G04 ================== begin FILE IDENTIFICATION RECORD ==================*
G04 Layout Name:  C:/DATA/GIT/CADENCE/MODULES/WIFI_SWITCH2/allegro/ESP8266_SWITCH.brd*
G04 Film Name:    SM_TOP*
G04 File Format:  Gerber RS274X*
G04 File Origin:  Cadence Allegro 17.2-P019*
G04 Origin Date:  Mon Aug 07 19:07:10 2017*
G04 *
G04 Layer:  PIN/SOLDERMASK_TOP*
G04 Layer:  PACKAGE GEOMETRY/SOLDERMASK_TOP*
G04 Layer:  BOARD GEOMETRY/SOLDERMASK_TOP*
G04 *
G04 Offset:    (0.0000 0.0000)*
G04 Mirror:    No*
G04 Mode:      Positive*
G04 Rotation:  0*
G04 FullContactRelief:  No*
G04 UndefLineWidth:     0.0000*
G04 ================== end FILE IDENTIFICATION RECORD ====================*
%FSLAX25Y25*MOMM*%
%IR0*IPPOS*OFA0.00000B0.00000*MIA0B0*SFA1.00000B1.00000*%
%AMMACRO13*
4,1,44,-.75,1.1,
-.75,-1.1,
-.745501,-1.152095,
-.731975,-1.202609,
-.709883,-1.250007,
-.679895,-1.292848,
-.642925,-1.329831,
-.600093,-1.359833,
-.552703,-1.381941,
-.502194,-1.395484,
-.4501,-1.40005,
-.45,-1.4,
.45,-1.4,
.502095,-1.395501,
.552609,-1.381975,
.600007,-1.359883,
.642848,-1.329895,
.679831,-1.292925,
.709833,-1.250093,
.731941,-1.202703,
.745484,-1.152194,
.75005,-1.1001,
.75,-1.1,
.75,1.1,
.745501,1.152095,
.731975,1.202609,
.709883,1.250007,
.679895,1.292848,
.642925,1.329831,
.600093,1.359833,
.552703,1.381941,
.502194,1.395484,
.4501,1.40005,
.45,1.4,
-.45,1.4,
-.502095,1.395501,
-.552609,1.381975,
-.600007,1.359883,
-.642848,1.329895,
-.679831,1.292925,
-.709833,1.250093,
-.731941,1.202703,
-.745484,1.152194,
-.75005,1.1001,
-.75,1.1,
0.0*
%
%ADD13MACRO13*%
%AMMACRO14*
4,1,44,1.1,.75,
-1.1,.75,
-1.152095,.745501,
-1.202609,.731975,
-1.250007,.709883,
-1.292848,.679895,
-1.329831,.642925,
-1.359833,.600093,
-1.381941,.552703,
-1.395484,.502194,
-1.40005,.4501,
-1.4,.45,
-1.4,-.45,
-1.395501,-.502095,
-1.381975,-.552609,
-1.359883,-.600007,
-1.329895,-.642848,
-1.292925,-.679831,
-1.250093,-.709833,
-1.202703,-.731941,
-1.152194,-.745484,
-1.1001,-.75005,
-1.1,-.75,
1.1,-.75,
1.152095,-.745501,
1.202609,-.731975,
1.250007,-.709883,
1.292848,-.679895,
1.329831,-.642925,
1.359833,-.600093,
1.381941,-.552703,
1.395484,-.502194,
1.40005,-.4501,
1.4,-.45,
1.4,.45,
1.395501,.502095,
1.381975,.552609,
1.359883,.600007,
1.329895,.642848,
1.292925,.679831,
1.250093,.709833,
1.202703,.731941,
1.152194,.745484,
1.1001,.75005,
1.1,.75,
0.0*
%
%ADD14MACRO14*%
%ADD18R,.74X1.02*%
%ADD12C,3.5*%
%ADD16C,3.6*%
%ADD10R,2.X2.*%
%ADD15R,3.5X3.5*%
%ADD17R,2.1001X1.5999*%
%ADD11C,1.8999*%
G75*
%LPD*%
G75*
G36*
G01X4700000Y-3790000D02*
Y-3370000D01*
X5360000Y-2710000D01*
Y-2300000D01*
X5620000D01*
Y-2820000D01*
X4960000Y-3480000D01*
Y-3790000D01*
X4700000D01*
G37*
G36*
G01D02*
Y-3370000D01*
X5360000Y-2710000D01*
Y-2300000D01*
X5620000D01*
Y-2820000D01*
X4960000Y-3480000D01*
Y-3790000D01*
X4700000D01*
G37*
G36*
G01D02*
Y-3370000D01*
X5360000Y-2710000D01*
Y-2300000D01*
X5620000D01*
Y-2820000D01*
X4960000Y-3480000D01*
Y-3790000D01*
X4700000D01*
G37*
G36*
G01X5960000Y-960000D02*
X6220000D01*
Y-3380000D01*
X5790000Y-3810000D01*
X5630000D01*
X5530000Y-3710000D01*
X5930000Y-3310000D01*
X5940000D01*
X5960000Y-3290000D01*
Y-960000D01*
G37*
G36*
G01D02*
X6220000D01*
Y-3380000D01*
X5790000Y-3810000D01*
X5630000D01*
X5530000Y-3710000D01*
X5930000Y-3310000D01*
X5940000D01*
X5960000Y-3290000D01*
Y-960000D01*
G37*
G36*
G01D02*
X6220000D01*
Y-3380000D01*
X5790000Y-3810000D01*
X5630000D01*
X5530000Y-3710000D01*
X5930000Y-3310000D01*
X5940000D01*
X5960000Y-3290000D01*
Y-960000D01*
G37*
G36*
G01X4720000Y-3770000D02*
Y-3380000D01*
X4900000Y-3200000D01*
X4910000D01*
X5380000Y-2730000D01*
Y-2320000D01*
X5600000D01*
Y-2810000D01*
X4940000Y-3470000D01*
Y-3770000D01*
X4720000D01*
G37*
G36*
G01D02*
Y-3380000D01*
X4900000Y-3200000D01*
X4910000D01*
X5380000Y-2730000D01*
Y-2320000D01*
X5600000D01*
Y-2810000D01*
X4940000Y-3470000D01*
Y-3770000D01*
X4720000D01*
G37*
G36*
G01X5980000Y-3290000D02*
Y-2230000D01*
X5990000Y-2220000D01*
Y-990000D01*
X5980000Y-980000D01*
X6200000D01*
Y-3370000D01*
X5800000Y-3770000D01*
X5600000D01*
X5550000Y-3720000D01*
X5980000Y-3290000D01*
G37*
G54D10*
X219000Y-1277000D03*
X5180000Y-693000D03*
G54D11*
X219000Y-769000D03*
X2934000Y-2300000D03*
Y-1284000D03*
Y-1792000D03*
X5180000Y-1963000D03*
Y-1709000D03*
Y-1455000D03*
Y-1201000D03*
Y-947000D03*
G54D12*
X1430000Y-3890000D03*
X2280000D03*
X3130000D03*
X3980000D03*
X4830000D03*
G54D13*
X3560000Y-2590000D03*
X4360000D03*
X4160000D03*
X3960000D03*
X3760000D03*
X4560000D03*
G54D14*
X3260000Y-2040000D03*
Y-2240000D03*
Y-2440000D03*
Y-1440000D03*
Y-1640000D03*
Y-1840000D03*
Y-1040000D03*
Y-1240000D03*
X4860000Y-2440000D03*
Y-2240000D03*
Y-2040000D03*
Y-1840000D03*
Y-1640000D03*
Y-1440000D03*
Y-1240000D03*
Y-1040000D03*
G54D15*
X5680000Y-3890000D03*
G54D16*
X5490000Y-2330000D03*
Y-1110000D03*
X6690000Y-2330000D03*
X6090000Y-910000D03*
X6690000Y-1110000D03*
G54D17*
X5849550Y-600000D03*
X6270450D03*
G54D18*
X6095000Y-260000D03*
X5945000D03*
X6195000D03*
X6365000D03*
M02*
