G04 ================== begin FILE IDENTIFICATION RECORD ==================*
G04 Layout Name:  C:/DATA/git/Cadence/modules/Wifi_Switch2/allegro/ESP8266_SWITCH.brd*
G04 Film Name:    SM_TOP*
G04 File Format:  Gerber RS274X*
G04 File Origin:  Cadence Allegro 17.2-P019*
G04 Origin Date:  Mon Jul 17 17:44:34 2017*
G04 *
G04 Layer:  PIN/SOLDERMASK_TOP*
G04 Layer:  PACKAGE GEOMETRY/SOLDERMASK_TOP*
G04 Layer:  BOARD GEOMETRY/SOLDERMASK_TOP*
G04 *
G04 Offset:    (0.0000 0.0000)*
G04 Mirror:    No*
G04 Mode:      Positive*
G04 Rotation:  0*
G04 FullContactRelief:  No*
G04 UndefLineWidth:     0.0000*
G04 ================== end FILE IDENTIFICATION RECORD ====================*
%FSLAX25Y25*MOMM*%
%IR0*IPPOS*OFA0.00000B0.00000*MIA0B0*SFA1.00000B1.00000*%
%AMMACRO17*
4,1,44,-.75,1.1,
-.75,-1.1,
-.745501,-1.152095,
-.731975,-1.202609,
-.709883,-1.250007,
-.679895,-1.292848,
-.642925,-1.329831,
-.600093,-1.359833,
-.552703,-1.381941,
-.502194,-1.395484,
-.4501,-1.40005,
-.45,-1.4,
.45,-1.4,
.502095,-1.395501,
.552609,-1.381975,
.600007,-1.359883,
.642848,-1.329895,
.679831,-1.292925,
.709833,-1.250093,
.731941,-1.202703,
.745484,-1.152194,
.75005,-1.1001,
.75,-1.1,
.75,1.1,
.745501,1.152095,
.731975,1.202609,
.709883,1.250007,
.679895,1.292848,
.642925,1.329831,
.600093,1.359833,
.552703,1.381941,
.502194,1.395484,
.4501,1.40005,
.45,1.4,
-.45,1.4,
-.502095,1.395501,
-.552609,1.381975,
-.600007,1.359883,
-.642848,1.329895,
-.679831,1.292925,
-.709833,1.250093,
-.731941,1.202703,
-.745484,1.152194,
-.75005,1.1001,
-.75,1.1,
0.0*
%
%ADD17MACRO17*%
%AMMACRO18*
4,1,44,1.1,.75,
-1.1,.75,
-1.152095,.745501,
-1.202609,.731975,
-1.250007,.709883,
-1.292848,.679895,
-1.329831,.642925,
-1.359833,.600093,
-1.381941,.552703,
-1.395484,.502194,
-1.40005,.4501,
-1.4,.45,
-1.4,-.45,
-1.395501,-.502095,
-1.381975,-.552609,
-1.359883,-.600007,
-1.329895,-.642848,
-1.292925,-.679831,
-1.250093,-.709833,
-1.202703,-.731941,
-1.152194,-.745484,
-1.1001,-.75005,
-1.1,-.75,
1.1,-.75,
1.152095,-.745501,
1.202609,-.731975,
1.250007,-.709883,
1.292848,-.679895,
1.329831,-.642925,
1.359833,-.600093,
1.381941,-.552703,
1.395484,-.502194,
1.40005,-.4501,
1.4,-.45,
1.4,.45,
1.395501,.502095,
1.381975,.552609,
1.359883,.600007,
1.329895,.642848,
1.292925,.679831,
1.250093,.709833,
1.202703,.731941,
1.152194,.745484,
1.1001,.75005,
1.1,.75,
0.0*
%
%ADD18MACRO18*%
%ADD16R,1.02X.74*%
%ADD10R,.74X1.02*%
%ADD21R,1.1001X1.*%
%ADD13R,2.35X1.1501*%
%ADD15C,3.5*%
%ADD14R,2.35X3.4501*%
%ADD11R,2.X2.*%
%ADD19R,3.5X3.5*%
%ADD22R,1.651X1.651*%
%ADD23R,2.1001X1.5999*%
%ADD20C,3.5999*%
%ADD12C,1.8999*%
%LPD*%
G75*
G54D10*
X455000Y-2990000D03*
X435000Y-2840000D03*
X625000Y-2990000D03*
X605000Y-2840000D03*
X885000Y-2990000D03*
X735000D03*
X715000Y-2840000D03*
X865000D03*
X2695000Y-140000D03*
X2545000D03*
X3285000Y-2670000D03*
X3135000D03*
X5075000Y-2030000D03*
X4755000Y-2660000D03*
X4905000D03*
X5245000Y-2030000D03*
X6195000Y-260000D03*
X6365000D03*
X6095000D03*
X5945000D03*
G54D20*
X5490000Y-2330000D03*
Y-1110000D03*
X6690000Y-2330000D03*
X6090000Y-910000D03*
X6690000Y-1110000D03*
G54D11*
X219000Y-1467000D03*
X5150000Y-763000D03*
G54D12*
X219000Y-959000D03*
X2934000Y-2490000D03*
Y-1474000D03*
Y-1982000D03*
X5150000Y-1779000D03*
Y-1525000D03*
Y-1271000D03*
Y-1017000D03*
G54D21*
X5675000Y-395000D03*
X5400000Y-490000D03*
Y-300000D03*
G54D22*
X6350000Y-3620000D03*
Y-2840000D03*
G54D13*
X1330070Y-600060D03*
Y-140060D03*
Y-370060D03*
X2360070Y-600060D03*
Y-140060D03*
Y-370060D03*
G54D23*
X5939550Y-520000D03*
X6360450D03*
G54D14*
X740000Y-370000D03*
X1770000D03*
G54D15*
X1430000Y-3890000D03*
X2280000D03*
X3130000D03*
X3980000D03*
X4830000D03*
G54D16*
X1560000Y-615000D03*
Y-465000D03*
X2610000Y-595000D03*
Y-445000D03*
X3180000Y-875000D03*
Y-705000D03*
X5080000Y-495000D03*
Y-325000D03*
X5220000Y-495000D03*
Y-325000D03*
X6640000Y-2955000D03*
Y-3125000D03*
X6780000Y-2975000D03*
Y-3125000D03*
G54D17*
X3560000Y-2590000D03*
X4360000D03*
X4160000D03*
X3960000D03*
X3760000D03*
X4560000D03*
G54D18*
X3260000Y-2040000D03*
Y-2240000D03*
Y-2440000D03*
Y-1440000D03*
Y-1640000D03*
Y-1840000D03*
Y-1040000D03*
Y-1240000D03*
X4860000Y-2440000D03*
Y-2240000D03*
Y-2040000D03*
Y-1840000D03*
Y-1640000D03*
Y-1440000D03*
Y-1240000D03*
Y-1040000D03*
G54D19*
X5680000Y-3890000D03*
M02*
