G04 ================== begin FILE IDENTIFICATION RECORD ==================*
G04 Layout Name:  C:/DATA/git/Cadence/modules/Wifi_Switch2/allegro/ESP8266_SWITCH.brd*
G04 Film Name:    TOP*
G04 File Format:  Gerber RS274X*
G04 File Origin:  Cadence Allegro 17.2-P019*
G04 Origin Date:  Mon Jul 17 17:44:34 2017*
G04 *
G04 Layer:  ETCH/TOP*
G04 Layer:  PIN/TOP*
G04 Layer:  VIA CLASS/TOP*
G04 *
G04 Offset:    (0.0000 0.0000)*
G04 Mirror:    No*
G04 Mode:      Positive*
G04 Rotation:  0*
G04 FullContactRelief:  No*
G04 UndefLineWidth:     0.0000*
G04 ================== end FILE IDENTIFICATION RECORD ====================*
%FSLAX25Y25*MOMM*%
%IR0*IPPOS*OFA0.00000B0.00000*MIA0B0*SFA1.00000B1.00000*%
%ADD18R,1.02X.74*%
%ADD11R,.74X1.02*%
%ADD15R,2.1501X.95*%
%AMMACRO19*
4,1,44,-.5999,.95,
-.5999,-.95,
-.595401,-1.002095,
-.581875,-1.052609,
-.559783,-1.100007,
-.529795,-1.142848,
-.492825,-1.179831,
-.449993,-1.209833,
-.402603,-1.231941,
-.352094,-1.245484,
-.3,-1.25005,
-.2999,-1.25,
.2999,-1.25,
.351995,-1.245501,
.402509,-1.231975,
.449907,-1.209883,
.492748,-1.179895,
.529731,-1.142925,
.559733,-1.100093,
.581841,-1.052703,
.595384,-1.002194,
.59995,-.9501,
.5999,-.95,
.5999,.95,
.595401,1.002095,
.581875,1.052609,
.559783,1.100007,
.529795,1.142848,
.492825,1.179831,
.449993,1.209833,
.402603,1.231941,
.352094,1.245484,
.3,1.25005,
.2999,1.25,
-.2999,1.25,
-.351995,1.245501,
-.402509,1.231975,
-.449907,1.209883,
-.492748,1.179895,
-.529731,1.142925,
-.559733,1.100093,
-.581841,1.052703,
-.595384,1.002194,
-.59995,.9501,
-.5999,.95,
0.0*
%
%ADD19MACRO19*%
%AMMACRO20*
4,1,44,.95,.5999,
-.95,.5999,
-1.002095,.595401,
-1.052609,.581875,
-1.100007,.559783,
-1.142848,.529795,
-1.179831,.492825,
-1.209833,.449993,
-1.231941,.402603,
-1.245484,.352094,
-1.25005,.3,
-1.25,.2999,
-1.25,-.2999,
-1.245501,-.351995,
-1.231975,-.402509,
-1.209883,-.449907,
-1.179895,-.492748,
-1.142925,-.529731,
-1.100093,-.559733,
-1.052703,-.581841,
-1.002194,-.595384,
-.9501,-.59995,
-.95,-.5999,
.95,-.5999,
1.002095,-.595401,
1.052609,-.581875,
1.100007,-.559783,
1.142848,-.529795,
1.179831,-.492825,
1.209833,-.449993,
1.231941,-.402603,
1.245484,-.352094,
1.25005,-.3,
1.25,-.2999,
1.25,.2999,
1.245501,.351995,
1.231975,.402509,
1.209883,.449907,
1.179895,.492748,
1.142925,.529731,
1.100093,.559733,
1.052703,.581841,
1.002194,.595384,
.9501,.59995,
.95,.5999,
0.0*
%
%ADD20MACRO20*%
%ADD12C,1.*%
%ADD17C,3.*%
%ADD10C,3.5*%
%ADD21R,3.X3.*%
%ADD23R,1.524X1.524*%
%ADD16R,2.1501X3.2499*%
%ADD24R,2.1001X1.5999*%
%ADD14C,1.5999*%
%ADD22R,.8999X.8001*%
%ADD13R,1.5999X1.5999*%
%ADD25C,.3*%
%ADD26C,.5*%
%ADD28C,5.0004*%
%ADD27C,3.2544*%
G75*
%LPD*%
G75*
G36*
G01X459090Y-4110000D02*
G02X450930Y-4093790I0J10159D01*
G03X66220Y-3709070I-220929J163787D01*
G02X50010Y-3700900I-6049J8164D01*
G01Y-1623970D01*
G02X67440Y-1616870I10160J4D01*
G03X139000Y-1647020I71570J69872D01*
G01X299000D01*
G03X399020Y-1547000I-5J100025D01*
G01Y-1387000D01*
G03X299000Y-1286980I-100025J-5D01*
G01X139000D01*
G03X67440Y-1317130I10J-100022D01*
G02X50010Y-1310030I-7270J7096D01*
G01Y-1063600D01*
G02X68650Y-1058010I10159J-2D01*
G03Y-859990I150350J99010D01*
G02X50010Y-854400I-8481J5592D01*
G01Y-459100D01*
G02X66220Y-450930I10161J6D01*
G03X450930Y-66220I163780J220930D01*
G02X459100Y-50010I8164J6049D01*
G01X488770D01*
G02X498930Y-60170I1J-10159D01*
G03X500930Y-66220I10162J4D01*
G02X539490Y-138890I-220924J-163792D01*
G03X543180Y-143800I9587J3363D01*
G02X546060Y-157180I-5902J-8270D01*
G03X532480Y-207500I86438J-50320D01*
G01Y-532500D01*
G03X632500Y-632520I100020J0D01*
G01X847500D01*
G03X908610Y-611680I-1J100022D01*
G02X924980Y-619720I6210J-8040D01*
G01Y-2068220D01*
X848220Y-2144980D01*
X518220D01*
X309980Y-2353220D01*
Y-2741500D01*
G03X306570Y-2748440I87998J-47546D01*
G01X272410Y-2825440D01*
X271950Y-2825990D01*
G03X244980Y-2900000I88063J-74010D01*
G01Y-2960000D01*
G03X278670Y-3041330I115013J0D01*
G01X308670Y-3071330D01*
G03X315590Y-3077710I81359J81303D01*
G01X315760Y-3077860D01*
X336480Y-3098960D01*
X336710Y-3099280D01*
G03X418000Y-3141020I81290J58287D01*
G01X492000D01*
G03X540000Y-3128750I0J100023D01*
G03X588000Y-3141020I48000J87753D01*
G01X644660D01*
X808660Y-3305020D01*
X3014980D01*
Y-3668010D01*
G03X2982190Y-4091650I115020J-221992D01*
G02X2976180Y-4110000I-6010J-8191D01*
G01X2433820D01*
G02X2427810Y-4091650I0J10159D01*
G03X2132190I-147810J201650D01*
G02X2126180Y-4110000I-6010J-8191D01*
G01X1583820D01*
G02X1577810Y-4091650I0J10159D01*
G03X1282190I-147810J201650D01*
G02X1276180Y-4110000I-6010J-8191D01*
G01X459090D01*
G37*
G36*
G01X427290Y-2753230D02*
X398000Y-2789000D01*
X435000Y-2846250D01*
X472000Y-2789000D01*
X442710Y-2753230D01*
G03X427290I-7710J-23780D01*
G37*
G36*
G01X369000Y-2906000D02*
X472000Y-2891000D01*
X437970Y-2837710D01*
X398000Y-2789000D01*
X354570Y-2886900D01*
G03X369000Y-2906000I14430J-4099D01*
G37*
G36*
G01X376960Y-2997420D02*
X418000Y-3039220D01*
X458750Y-2990000D01*
X418000Y-2940780D01*
X376960Y-2982580D01*
G03Y-2997420I13040J-7420D01*
G37*
G36*
G01X970250Y-2981350D02*
X922000Y-2939000D01*
X881250Y-2990000D01*
X922000Y-3041000D01*
X970250Y-2998650D01*
G03Y-2981350I-12260J8650D01*
G37*
G36*
G01X903940Y-3074980D02*
X900030Y-3071060D01*
G02X907210Y-3053720I7184J7182D01*
G01X922000D01*
G03X934720Y-3041000I0J12720D01*
G01Y-2985520D01*
G03X967980Y-2966170I-32728J94515D01*
G01X980680Y-2955020D01*
X2127640D01*
X2335020Y-2747640D01*
Y-2397640D01*
X2377640Y-2355020D01*
X2790510D01*
G02X2798180Y-2371850I5J-10160D01*
G03X2808980Y-2619530I135820J-118153D01*
G01Y-2675780D01*
X2928220Y-2795020D01*
X3030730D01*
G03X3098000Y-2821020I67270J74024D01*
G01X3172000D01*
G03X3270580Y-2737940I0J100026D01*
G01X3271300Y-2733720D01*
X3322000D01*
G03X3334720Y-2721000I0J12720D01*
G01Y-2619000D01*
G03X3333730Y-2614090I-12718J-10D01*
G02X3343110Y-2600010I9375J3919D01*
G01X3355020D01*
G03X3387310Y-2595930I-25J130014D01*
G02X3399990Y-2605770I2519J-9843D01*
G01Y-2685020D01*
G03X3444980Y-2783360I130014J19D01*
G01Y-2942360D01*
X3312360Y-3074980D01*
X903940D01*
G37*
G36*
G01X629750Y-2848650D02*
X678000Y-2891000D01*
X718750Y-2840000D01*
X678000Y-2789000D01*
X629750Y-2831350D01*
G03Y-2848650I12260J-8650D01*
G37*
G36*
G01X690250Y-2831350D02*
X642000Y-2789000D01*
X601250Y-2840000D01*
X642000Y-2891000D01*
X690250Y-2848650D01*
G03Y-2831350I-12260J8650D01*
G37*
G36*
G01X950250D02*
X902000Y-2789000D01*
X861250Y-2840000D01*
X902000Y-2891000D01*
X950250Y-2848650D01*
G03Y-2831350I-12260J8650D01*
G37*
G36*
G01X742660Y-3075880D02*
X772000Y-3041000D01*
X735000Y-2986250D01*
X698000Y-3041000D01*
X727340Y-3075880D01*
G03X742660I7660J12890D01*
G37*
G36*
G01X649750Y-2998650D02*
X698000Y-3041000D01*
X738750Y-2990000D01*
X698000Y-2939000D01*
X649750Y-2981350D01*
G03Y-2998650I12260J-8650D01*
G37*
G36*
G01X710250Y-2981350D02*
X662000Y-2939000D01*
X621250Y-2990000D01*
X662000Y-3041000D01*
X710250Y-2998650D01*
G03Y-2981350I-12260J8650D01*
G37*
G36*
G01X980680Y-2724980D02*
X967980Y-2713830D01*
G03X902000Y-2688980I-65980J-75168D01*
G01X828000D01*
G03X790000Y-2696480I0J-100017D01*
G03X752000Y-2688980I-38000J-92517D01*
G01X678000D01*
G03X660000Y-2690610I-16J-100021D01*
G03X642000Y-2688980I-17984J-98391D01*
G01X568000D01*
G03X565240Y-2689020I69J-100019D01*
G02X560020Y-2683940I-140J5079D01*
G01Y-2456780D01*
X621780Y-2395020D01*
X951780D01*
X1175020Y-2171780D01*
Y-521200D01*
G02X1188630Y-511650I10159J-5D01*
G03X1220080Y-517550I33930J94090D01*
G02X1225030Y-522630I-130J-5078D01*
G01Y-539330D01*
X1220700Y-539980D01*
G03X1209840Y-552560I1856J-12580D01*
G01Y-647560D01*
G03X1222560Y-660280I12720J0D01*
G01X1437580D01*
G03X1450300Y-647560I0J12720D01*
G01Y-600910D01*
G02X1464930Y-591790I10157J0D01*
G03X1492060Y-600580I44079J89786D01*
G01X1496280Y-601300D01*
Y-652000D01*
G03X1509000Y-664720I12720J0D01*
G01X1611000D01*
G03X1623720Y-652000I0J12720D01*
G01Y-638890D01*
G02X1636520Y-629080I10161J-2D01*
G03X1662500Y-632520I26006J96581D01*
G01X1877500D01*
G03X1977520Y-532500I0J100020D01*
G01Y-265080D01*
X2153060D01*
G02X2162240Y-279600I4J-10159D01*
G03X2152540Y-322560I90323J-42969D01*
G01Y-417560D01*
G03X2250080Y-517550I100021J0D01*
G02X2255030Y-522630I-130J-5078D01*
G01Y-539330D01*
X2250700Y-539980D01*
G03X2239840Y-552560I1856J-12580D01*
G01Y-647560D01*
G03X2252560Y-660280I12720J0D01*
G01X2467580D01*
G03X2480300Y-647560I0J12720D01*
G01Y-568260D01*
G02X2496780Y-560310I10158J-2D01*
G03X2542060Y-580580I62231J78304D01*
G01X2546280Y-581300D01*
Y-632000D01*
G03X2559000Y-644720I12720J0D01*
G01X2578090D01*
G02X2585270Y-662060I-4J-10158D01*
G01X2491780Y-755550D01*
X2489980Y-755730D01*
G03X2654270Y-920020I15020J-149270D01*
G01X2654450Y-918220D01*
X2752640Y-820020D01*
X3019100D01*
G02X3029230Y-830900I-3J-10159D01*
G03X3028980Y-838000I99771J-7067D01*
G01Y-912000D01*
G03X3043460Y-963830I100019J5D01*
G03X3034980Y-1009990I121534J-46186D01*
G01Y-1070010D01*
G03X3055440Y-1140000I130014J21D01*
G03X3034980Y-1209990I109554J-70011D01*
G01Y-1270010D01*
G03X3055440Y-1340000I130014J21D01*
G03X3034980Y-1409990I109554J-70011D01*
G01Y-1425670D01*
G02X3015850Y-1430440I-10160J1D01*
G03X3021000Y-1506070I-81849J-43564D01*
G02X3040270Y-1506720I9527J-3522D01*
G03X3055440Y-1540000I124713J36750D01*
G03X3034980Y-1609990I109554J-70011D01*
G01Y-1670010D01*
G03X3055440Y-1740000I130014J21D01*
G03X3034980Y-1809990I109554J-70011D01*
G01Y-1814910D01*
G02X3019970Y-1823830I-10158J5D01*
G03X2805160Y-2107720I-85966J-158167D01*
G02X2797890Y-2124980I-7271J-7099D01*
G01X2282360D01*
X2104980Y-2302360D01*
Y-2652360D01*
X2032360Y-2724980D01*
X980680D01*
G37*
G36*
G01X1645880Y-607340D02*
X1611000Y-578000D01*
X1556250Y-615000D01*
X1611000Y-652000D01*
X1645880Y-622660D01*
G03Y-607340I-12890J7660D01*
G37*
G36*
G01X1553740Y-396370D02*
X1520780Y-428000D01*
X1560000Y-468750D01*
X1599220Y-428000D01*
X1566260Y-396370D01*
G03X1553740I-6260J-13630D01*
G37*
G36*
G01X1278020Y-404070D02*
X1305650Y-411800D01*
X1336170Y-368720D01*
X1294720Y-334710D01*
X1267090Y-362320D01*
G03X1278020Y-404070I17679J-17677D01*
G37*
G36*
G01X1390180Y-359450D02*
X1365420Y-334710D01*
X1326320Y-370060D01*
X1365420Y-405410D01*
X1390180Y-380670D01*
G03Y-359450I-10610J10610D01*
G37*
G36*
G01X1482660Y-129370D02*
X1437580Y-92560D01*
X1323820Y-140060D01*
X1437580Y-187560D01*
X1482660Y-150750D01*
G03Y-129370I-22600J10690D01*
G37*
G36*
G01X2540000Y-855000D02*
X2505000D01*
X2502350Y-907650D01*
X2555000Y-905000D01*
Y-870000D01*
G03X2540000Y-855000I-15000J0D01*
G37*
G36*
G01X2512440Y-591590D02*
X2467580Y-552560D01*
X2356320Y-600060D01*
X2467580Y-647560D01*
X2512440Y-608530D01*
G03Y-591590I-12380J8470D01*
G37*
G36*
G01X2695880Y-587340D02*
X2661000Y-558000D01*
X2606250Y-595000D01*
X2661000Y-632000D01*
X2695880Y-602660D01*
G03Y-587340I-12890J7660D01*
G37*
G36*
G01X2760250Y-495080D02*
X3091720D01*
X3222640Y-364170D01*
G02X3239980Y-371350I7181J-7185D01*
G01Y-562970D01*
G02X3234710Y-568050I-5080J-3D01*
G03X3231000Y-567980I-3741J-99949D01*
G01X3129000D01*
G03X3066420Y-589980I4J-100018D01*
G01X2711700D01*
G02X2707030Y-570800I3J10159D01*
G03X2759520Y-499280I-46027J88802D01*
G01X2760250Y-495080D01*
G37*
G36*
G01X2780250Y-131350D02*
X2732000Y-89000D01*
X2691250Y-140000D01*
X2732000Y-191000D01*
X2780250Y-148650D01*
G03Y-131350I-12260J8650D01*
G37*
G36*
G01X2673750Y-230830D02*
G03X2680580Y-207940I-91746J39839D01*
G01X2681300Y-203720D01*
X2732000D01*
G03X2744720Y-191000I0J12720D01*
G01Y-89000D01*
G03X2732000Y-76280I-12720J0D01*
G01X2681300D01*
X2680580Y-72060D01*
G03X2678540Y-62830I-98577J-16947D01*
G02X2688340Y-50010I9803J2662D01*
G01X2998660D01*
G02X3005840Y-67350I-5J-10159D01*
G01X2994980Y-78220D01*
Y-238220D01*
X2988160Y-245040D01*
X2683060D01*
G02X2673750Y-230830I6J10159D01*
G37*
G36*
G01X2207480Y-150750D02*
X2252560Y-187560D01*
X2366320Y-140060D01*
X2252560Y-92560D01*
X2207480Y-129370D01*
G03Y-150750I22600J-10690D01*
G37*
G36*
G01X2512440Y-131590D02*
X2467580Y-92560D01*
X2356320Y-140060D01*
X2467580Y-187560D01*
X2512440Y-148530D01*
G03Y-131590I-12380J8470D01*
G37*
G36*
G01X2459710Y-148730D02*
X2508000Y-191000D01*
X2548750Y-140000D01*
X2508000Y-89000D01*
X2459700Y-131410D01*
G03X2459710Y-148730I12251J-8653D01*
G37*
G36*
G01X2512660Y-359370D02*
X2467580Y-322560D01*
X2353820Y-370060D01*
X2467580Y-417560D01*
X2512660Y-380750D01*
G03Y-359370I-22600J10690D01*
G37*
G36*
G01X2580960Y-414960D02*
Y-370060D01*
X2521060D01*
X2565960Y-414960D01*
X2580960D01*
G37*
G36*
G01X6255440Y-700020D02*
X6466460D01*
G03X6531160Y-675420I-1002J100018D01*
G01X6551170Y-657980D01*
X6564980Y-671780D01*
Y-893480D01*
G03X6815020I125020J-216520D01*
G01Y-568220D01*
X6769150Y-522340D01*
G02X6776460Y-505000I7182J7183D01*
G03X6953420Y-443450I3535J274998D01*
G02X6969990Y-451330I6410J-7883D01*
G01Y-3708670D01*
G02X6953420Y-3716550I-10160J3D01*
G03X6559070Y-4093790I-173422J-213450D01*
G02X6550910Y-4110000I-8160J-6051D01*
G01X5922510D01*
G02X5913980Y-4094320I1J10161D01*
G03X5930020Y-4040000I-83978J54326D01*
G01Y-3740000D01*
G03X5830000Y-3639980I-100020J0D01*
G01X5530000D01*
G03X5429980Y-3740000I0J-100020D01*
G01Y-4040000D01*
G03X5446020Y-4094320I100018J6D01*
G02X5437490Y-4110000I-8531J-5519D01*
G01X4983820D01*
G02X4977810Y-4091650I0J10159D01*
G03X4682190I-147810J201650D01*
G02X4676180Y-4110000I-6010J-8191D01*
G01X3283820D01*
G02X3277810Y-4091650I0J10159D01*
G03X3245020Y-3668010I-147810J201648D01*
G01Y-3305020D01*
X3407640D01*
X3620440Y-3092220D01*
G02X3637290Y-3096270I7186J-7182D01*
G03X3876310Y-3165020I142706J46271D01*
G01X4247640D01*
X4273220Y-3139450D01*
X4275020Y-3139270D01*
G03X4356310Y-3105020I-15030J149266D01*
G01X4757640D01*
X4870020Y-2992640D01*
Y-2773580D01*
G03X4890580Y-2727940I-78013J62595D01*
G01X4891300Y-2723720D01*
X4942000D01*
G03X4954720Y-2711000I0J12720D01*
G01Y-2609000D01*
G03X4942000Y-2596280I-12720J0D01*
G01X4891300D01*
X4890580Y-2592060D01*
G03X4854370Y-2530810I-98575J-16947D01*
G02X4860710Y-2512710I6339J7940D01*
G01X4955010D01*
G03X4997720Y-2470000I-5J42715D01*
G01Y-2410000D01*
G03X4996110Y-2398400I-42714J-17D01*
G02X4999270Y-2392240I4890J1382D01*
G03X5024400Y-2379940I-44260J122248D01*
G02X5039980Y-2388530I5420J-8594D01*
G01Y-3017000D01*
X5044980Y-3022000D01*
Y-3217640D01*
X5182360Y-3355020D01*
X6234980D01*
Y-3438130D01*
X6200070Y-3476220D01*
G03X6173780Y-3543800I73728J-67585D01*
G01Y-3696200D01*
G03X6273800Y-3796220I100020J0D01*
G01X6426200D01*
G03X6526220Y-3696200I0J100020D01*
G01Y-3543800D01*
G03X6499930Y-3476220I-100018J-5D01*
G01X6465020Y-3438130D01*
Y-3355020D01*
X6610000D01*
G03X6691330Y-3321330I0J115013D01*
G01X6750640Y-3262020D01*
X6831000D01*
G03X6931020Y-3162000I0J100020D01*
G01Y-3088000D01*
G03X6847940Y-2989420I-100026J0D01*
G01X6843720Y-2988700D01*
Y-2938000D01*
G03X6831000Y-2925280I-12720J0D01*
G01X6791020D01*
Y-2918000D01*
G03X6691000Y-2817980I-100020J0D01*
G01X6589000D01*
G03X6527760Y-2838920I0J-100020D01*
G01X6526390Y-2839980D01*
X6497360D01*
X6456260Y-2881070D01*
G02X6438920Y-2873890I-7182J7184D01*
G01Y-2763800D01*
G03X6426200Y-2751080I-12720J0D01*
G01X6273800D01*
G03X6261080Y-2763800I0J-12720D01*
G01Y-2916200D01*
G03X6273800Y-2928920I12720J0D01*
G01X6383890D01*
G02X6391070Y-2946260I-4J-10158D01*
G01X6312360Y-3024980D01*
X5417640D01*
X5365020Y-2972360D01*
Y-2726310D01*
G03X5390610Y-2577710I-115021J96311D01*
G02X5403640Y-2564630I9523J3544D01*
G03X5506020Y-2080490I86358J234633D01*
G02X5499490Y-2063170I655J10138D01*
G01X5515020Y-2047640D01*
Y-1502360D01*
X5422640Y-1409980D01*
X5289550D01*
X5277620Y-1398050D01*
X5281010Y-1394460D01*
G03X5324340Y-1315830I-131015J123451D01*
G02X5340270Y-1310230I9839J-2532D01*
G03X5732230Y-1048090I149727J200229D01*
G01X5731520Y-1045290D01*
X5800020Y-976780D01*
Y-707450D01*
G02X5812430Y-697540I10160J3D01*
G03X5834540Y-700020I22135J97542D01*
G01X5923380D01*
G02X5929880Y-717980I-5J-10158D01*
G03X6237510Y-708130I160121J-192020D01*
G02X6241230Y-699000I2994J4103D01*
G03X6255440Y-700020I14248J99003D01*
G37*
G36*
G01X3140610Y-3243040D02*
X3183040Y-3200610D01*
X3145000Y-3186250D01*
X3115000D01*
X3076960Y-3200610D01*
X3119390Y-3243040D01*
G03X3140610I10610J10610D01*
G37*
G36*
G01X2838550Y-1491680D02*
X2877440Y-1530560D01*
X2940250Y-1474000D01*
X2877440Y-1417440D01*
X2838550Y-1456320D01*
G03Y-1491680I17680J-17680D01*
G37*
G36*
G01X3094120Y-712660D02*
X3129000Y-742000D01*
X3183750Y-705000D01*
X3129000Y-668000D01*
X3094120Y-697340D01*
G03Y-712660I12890J-7660D01*
G37*
G36*
G01X3265880Y-697340D02*
X3231000Y-668000D01*
X3176250Y-705000D01*
X3231000Y-742000D01*
X3265880Y-712660D01*
G03Y-697340I-12890J7660D01*
G37*
G36*
G01X2874890Y-605610D02*
X2899650Y-630350D01*
X2938750Y-595000D01*
X2899650Y-559650D01*
X2874890Y-584390D01*
G03Y-605610I10610J-10610D01*
G37*
G36*
G01X3265880Y-867340D02*
X3231000Y-838000D01*
X3176250Y-875000D01*
X3231000Y-912000D01*
X3265880Y-882660D01*
G03Y-867340I-12890J7660D01*
G37*
G36*
G01X3840110Y-3039390D02*
X3815350Y-3014650D01*
X3776250Y-3050000D01*
X3815350Y-3085350D01*
X3840110Y-3060610D01*
G03Y-3039390I-10610J10610D01*
G37*
G36*
G01X4320110Y-2979390D02*
X4295350Y-2954650D01*
X4256250Y-2990000D01*
X4295350Y-3025350D01*
X4320110Y-3000610D01*
G03Y-2979390I-10610J10610D01*
G37*
G36*
G01X4225000Y-3040000D02*
X4260000D01*
X4262650Y-2987350D01*
X4210000Y-2990000D01*
Y-3025000D01*
G03X4225000Y-3040000I15000J0D01*
G37*
G36*
G01X3647570Y-2220140D02*
X3690000D01*
Y-2162710D01*
X3647570Y-2205140D01*
Y-2220140D01*
G37*
G36*
G01X4199890Y-2280610D02*
X4224650Y-2305350D01*
X4263750Y-2270000D01*
X4224650Y-2234650D01*
X4199890Y-2259390D01*
G03Y-2280610I10610J-10610D01*
G37*
G36*
G01X4703270Y-2431180D02*
G03X4590010Y-2364980I-113276J-63815D01*
G01X4529990D01*
G03X4460000Y-2385440I21J-130014D01*
G03X4390010Y-2364980I-70011J-109554D01*
G01X4381310D01*
Y-2358280D01*
X4382250Y-2356960D01*
G03X4165070Y-2153830I-122244J86967D01*
G01X4163670Y-2154980D01*
X4144980D01*
Y-2025020D01*
X3895020D01*
Y-2047640D01*
X3822360Y-2120300D01*
G02X3805020Y-2113110I-7180J7188D01*
G01Y-1987640D01*
X3895020Y-1897640D01*
Y-752360D01*
X3840030Y-697360D01*
G02X3847210Y-680020I7184J7182D01*
G01X4804980D01*
Y-714980D01*
X4452360D01*
X4354980Y-812360D01*
Y-1447640D01*
X4462360Y-1555020D01*
X4632180D01*
G02X4641810Y-1568430I3J-10161D01*
G03X4634980Y-1609990I123184J-41585D01*
G01Y-1670010D01*
G03X4655440Y-1740000I130014J21D01*
G03X4634980Y-1809990I109554J-70011D01*
G01Y-1870010D01*
G03X4655440Y-1940000I130014J21D01*
G03X4634980Y-2009990I109554J-70011D01*
G01Y-2070010D01*
G03X4655440Y-2140000I130014J21D01*
G03X4634980Y-2209990I109554J-70011D01*
G01Y-2270010D01*
G03X4720730Y-2392240I130014J17D01*
G02X4723890Y-2398400I-1730J-4778D01*
G03X4722280Y-2410000I41104J-11617D01*
G01Y-2426190D01*
G02X4703270Y-2431180I-10160J1D01*
G37*
G36*
G01X4762660Y-2745880D02*
X4792000Y-2711000D01*
X4755000Y-2656250D01*
X4718000Y-2711000D01*
X4747340Y-2745880D01*
G03X4762660I7660J12890D01*
G37*
G36*
G01X5082660Y-2115880D02*
X5112000Y-2081000D01*
X5075000Y-2026250D01*
X5038000Y-2081000D01*
X5067340Y-2115880D01*
G03X5082660I7660J12890D01*
G37*
G36*
G01X4912660Y-2745880D02*
X4942000Y-2711000D01*
X4905000Y-2656250D01*
X4868000Y-2711000D01*
X4897340Y-2745880D01*
G03X4912660I7660J12890D01*
G37*
G36*
G01X4990250Y-2651350D02*
X4942000Y-2609000D01*
X4901250Y-2660000D01*
X4942000Y-2711000D01*
X4990250Y-2668650D01*
G03Y-2651350I-12260J8650D01*
G37*
G36*
G01X5047470Y-1027610D02*
X5093440Y-1073560D01*
X5153750Y-1017000D01*
X5093440Y-960440D01*
X5047470Y-1006390D01*
G03Y-1027610I10610J-10610D01*
G37*
G36*
G01X5016470Y-1250610D02*
X5093440Y-1327560D01*
X5153640Y-1271920D01*
X5101180Y-1210330D01*
X5024220Y-1225280D01*
G03X5016470Y-1250610I2858J-14725D01*
G37*
G36*
G01X4994120Y-502660D02*
X5029000Y-532000D01*
X5083750Y-495000D01*
X5029000Y-458000D01*
X4994120Y-487340D01*
G03Y-502660I12890J-7660D01*
G37*
G36*
G01X5239390Y-2569890D02*
X5214650Y-2594650D01*
X5250000Y-2633750D01*
X5285350Y-2594650D01*
X5260610Y-2569890D01*
G03X5239390I-10610J-10610D01*
G37*
G36*
G01X5260610Y-2690110D02*
X5285350Y-2665350D01*
X5250000Y-2626250D01*
X5214650Y-2665350D01*
X5239390Y-2690110D01*
G03X5260610I10610J10610D01*
G37*
G36*
G01X5330250Y-2021350D02*
X5282000Y-1979000D01*
X5241250Y-2030000D01*
X5282000Y-2081000D01*
X5330250Y-2038650D01*
G03Y-2021350I-12260J8650D01*
G37*
G36*
G01X5252530Y-1514390D02*
X5206560Y-1468440D01*
X5146250Y-1525000D01*
X5206560Y-1581560D01*
X5252530Y-1535610D01*
G03Y-1514390I-10610J10610D01*
G37*
G36*
G01X5240710Y-1955630D02*
X5214780Y-1979010D01*
X5245000Y-2033750D01*
X5275220Y-1979010D01*
X5249290Y-1955630D01*
G03X5240710I-4290J-14370D01*
G37*
G36*
G01X5320010Y-926660D02*
G02X5304390Y-924430I-6905J7452D01*
G03X5298760Y-915630I-154388J-92572D01*
G03X5330020Y-843000I-68762J72638D01*
G01Y-683000D01*
G03X5230000Y-582980I-100025J-5D01*
G01X5220460D01*
Y-576740D01*
X5220970Y-575690D01*
G03X5229580Y-548940I-89961J43716D01*
G01X5230300Y-544720D01*
X5271000D01*
G03X5283720Y-532000I0J12720D01*
G01Y-461300D01*
X5287940Y-460580D01*
G03X5332240Y-441080I-16949J98575D01*
G01X5333610Y-440020D01*
X5342970D01*
Y-445810D01*
X5342780Y-446500D01*
G03X5342280Y-450000I12220J-3531D01*
G01Y-530000D01*
G03X5355000Y-542720I12720J0D01*
G01X5445000D01*
G03X5457720Y-530000I0J12720D01*
G01Y-450000D01*
G03X5456910Y-445550I-12721J-17D01*
G02X5460870Y-438760I4760J1774D01*
G03X5462590Y-438470I-15769J98772D01*
G01X5463030Y-438390D01*
X5468560D01*
Y-521000D01*
X5549980D01*
Y-854630D01*
G02X5537870Y-864610I-10161J-7D01*
G03X5320010Y-926660I-47875J-245392D01*
G37*
G36*
G01X5317290Y-497950D02*
X5355000Y-530000D01*
X5403750Y-490000D01*
X5355000Y-450000D01*
X5317290Y-482050D01*
G03Y-497950I12720J-7950D01*
G37*
G36*
G01Y-307950D02*
X5355000Y-340000D01*
X5403750Y-300000D01*
X5355000Y-260000D01*
X5317290Y-292050D01*
G03Y-307950I12720J-7950D01*
G37*
G36*
G01X5165880Y-317340D02*
X5131000Y-288000D01*
X5076250Y-325000D01*
X5131000Y-362000D01*
X5165880Y-332660D01*
G03Y-317340I-12890J7660D01*
G37*
G36*
G01X5305880D02*
X5271000Y-288000D01*
X5216250Y-325000D01*
X5271000Y-362000D01*
X5305880Y-332660D01*
G03Y-317340I-12890J7660D01*
G37*
G36*
G01X5134120Y-332660D02*
X5169000Y-362000D01*
X5223750Y-325000D01*
X5169000Y-288000D01*
X5134120Y-317340D01*
G03Y-332660I12890J-7660D01*
G37*
G36*
G01X5685150Y-477840D02*
X5720000Y-435000D01*
X5675000Y-388750D01*
X5630000Y-435000D01*
X5664850Y-477840D01*
G03X5685150I10150J22850D01*
G37*
G36*
G01X5758400Y-386230D02*
X5720000Y-355000D01*
X5668750Y-395000D01*
X5720000Y-435000D01*
X5758400Y-403770D01*
G03Y-386230I-23410J8770D01*
G37*
G36*
G01X6340610Y-3470910D02*
X6273800Y-3543800D01*
X6350000Y-3623750D01*
X6426200Y-3543800D01*
X6359390Y-3470910D01*
G03X6340610I-9390J-11700D01*
G37*
G36*
G01X6554120Y-2962660D02*
X6589000Y-2992000D01*
X6643750Y-2955000D01*
X6589000Y-2918000D01*
X6554120Y-2947340D01*
G03Y-2962660I12890J-7660D01*
G37*
G36*
G01X6360610Y-3293040D02*
X6403040Y-3250610D01*
X6365000Y-3236250D01*
X6335000D01*
X6296960Y-3250610D01*
X6339390Y-3293040D01*
G03X6360610I10610J10610D01*
G37*
G36*
G01X6541040Y-505840D02*
X6465460Y-440000D01*
X6354200Y-520000D01*
X6465460Y-600000D01*
X6541040Y-534160D01*
G03Y-505840I-20600J14160D01*
G37*
G36*
G01X6372710Y-346770D02*
X6402000Y-311000D01*
X6365000Y-253750D01*
X6328000Y-311000D01*
X6357290Y-346770D01*
G03X6372710I7710J23780D01*
G37*
G36*
G01X6348280Y-169930D02*
X6328000Y-209000D01*
X6365460Y-266230D01*
X6402000Y-209000D01*
X6369380Y-168830D01*
G03X6348280Y-169930I-9370J-23179D01*
G37*
G36*
G01X6348980Y-380090D02*
X6287380Y-440020D01*
X6360450Y-526250D01*
X6433520Y-440020D01*
X6371920Y-380090D01*
G03X6348980I-11470J-22210D01*
G37*
G36*
G01X6180260Y-248650D02*
X6132000Y-209000D01*
X6088750Y-260000D01*
X6132000Y-311000D01*
X6180260Y-271350D01*
G03Y-248650I-22270J11350D01*
G37*
G36*
G01X6109740Y-271350D02*
X6158000Y-311000D01*
X6201250Y-260000D01*
X6158000Y-209000D01*
X6109740Y-248650D01*
G03Y-271350I22270J-11350D01*
G37*
G36*
G01X5952710Y-346770D02*
X5982000Y-311000D01*
X5945000Y-253750D01*
X5908000Y-311000D01*
X5937290Y-346770D01*
G03X5952710I7710J23780D01*
G37*
G36*
G01X5928080Y-380090D02*
X5866480Y-440020D01*
X5939550Y-526250D01*
X6012620Y-440020D01*
X5951020Y-380090D01*
G03X5928080I-11470J-22210D01*
G37*
G36*
G01X6771350Y-2889750D02*
X6729000Y-2938000D01*
X6780000Y-2978750D01*
X6831000Y-2938000D01*
X6788650Y-2889750D01*
G03X6771350I-8650J-12260D01*
G37*
G36*
G01X6694120Y-3132660D02*
X6729000Y-3162000D01*
X6783750Y-3125000D01*
X6729000Y-3088000D01*
X6694120Y-3117340D01*
G03Y-3132660I12890J-7660D01*
G37*
G36*
G01X6648650Y-3210250D02*
X6691000Y-3162000D01*
X6640000Y-3121250D01*
X6589000Y-3162000D01*
X6631350Y-3210250D01*
G03X6648650I8650J12260D01*
G37*
G36*
G01X6725880Y-3117340D02*
X6691000Y-3088000D01*
X6636250Y-3125000D01*
X6691000Y-3162000D01*
X6725880Y-3132660D01*
G03Y-3117340I-12890J7660D01*
G37*
%LPC*%
G75*
G54D28*
X6690000Y-2330000D03*
G54D27*
X3980000Y-3890000D03*
%LPD*%
G75*
G36*
G01X3250000Y-2965000D02*
X3285000D01*
X3287650Y-2912350D01*
X3235000Y-2915000D01*
Y-2950000D01*
G03X3250000Y-2965000I15000J0D01*
G37*
G36*
G01X3289390Y-2839890D02*
X3249650Y-2879650D01*
X3284150Y-2918650D01*
X3324310Y-2886680D01*
X3314570Y-2846930D01*
G03X3289390Y-2839890I-14572J-3568D01*
G37*
G36*
G01X3274390Y-2854890D02*
X3249650Y-2879650D01*
X3285000Y-2918750D01*
X3320350Y-2879650D01*
X3295610Y-2854890D01*
G03X3274390I-10610J-10610D01*
G37*
G36*
G01X4460000Y-2095000D02*
Y-2060000D01*
X4407350Y-2057350D01*
X4410000Y-2110000D01*
X4445000D01*
G03X4460000Y-2095000I0J15000D01*
G37*
G36*
G01X5610110Y-1719390D02*
X5585350Y-1694650D01*
X5546250Y-1730000D01*
X5585350Y-1765350D01*
X5610110Y-1740610D01*
G03Y-1719390I-10610J10610D01*
G37*
G36*
G01X5440000Y-615000D02*
Y-650000D01*
X5492650Y-652650D01*
X5490000Y-600000D01*
X5455000D01*
G03X5440000Y-615000I0J-15000D01*
G37*
G36*
G01X6785000Y-3330000D02*
X6750000D01*
X6747350Y-3382650D01*
X6800000Y-3380000D01*
Y-3345000D01*
G03X6785000Y-3330000I-15000J0D01*
G37*
G36*
G01X6941390Y-1750240D02*
X6915990Y-1720620D01*
X6866650Y-1728320D01*
X6875000Y-1774990D01*
X6930000Y-1775000D01*
G03X6941390Y-1750240I0J15000D01*
G37*
G36*
G01X6809890Y-1740610D02*
X6834650Y-1765350D01*
X6873750Y-1730000D01*
X6834650Y-1694650D01*
X6809890Y-1719390D01*
G03Y-1740610I10610J-10610D01*
G37*
G54D10*
X230000Y-3930000D03*
Y-230000D03*
X6780000Y-3930000D03*
Y-230000D03*
G54D20*
X3260000Y-2040000D03*
Y-2240000D03*
Y-2440000D03*
Y-1440000D03*
Y-1640000D03*
Y-1840000D03*
Y-1040000D03*
Y-1240000D03*
X4860000Y-2440000D03*
Y-2240000D03*
Y-2040000D03*
Y-1840000D03*
Y-1640000D03*
Y-1440000D03*
Y-1240000D03*
Y-1040000D03*
G54D11*
X455000Y-2990000D03*
X435000Y-2840000D03*
X625000Y-2990000D03*
X605000Y-2840000D03*
X885000Y-2990000D03*
X735000D03*
X715000Y-2840000D03*
X865000D03*
X2695000Y-140000D03*
X2545000D03*
X3285000Y-2670000D03*
X3135000D03*
X5075000Y-2030000D03*
X4755000Y-2660000D03*
X4905000D03*
X5245000Y-2030000D03*
X6195000Y-260000D03*
X6365000D03*
X6095000D03*
X5945000D03*
G54D21*
X5680000Y-3890000D03*
G54D12*
X150000Y-2870000D03*
Y-3080000D03*
Y-3260000D03*
X210000Y-3410000D03*
X420000D03*
X150000Y-2120000D03*
Y-2300000D03*
Y-2480000D03*
X360000Y-2150000D03*
X150000Y-2690000D03*
X450000Y-1700000D03*
X150000Y-1760000D03*
Y-1940000D03*
X390000Y-1190000D03*
X210000Y-620000D03*
X450000Y-710000D03*
X720000Y-3650000D03*
X690000Y-3830000D03*
X870000Y-3890000D03*
X1050000D03*
Y-3710000D03*
X1140000Y-3560000D03*
X570000Y-3500000D03*
X780000Y-2060000D03*
X570000D03*
X1110000Y-2540000D03*
X810000D03*
Y-1700000D03*
X630000D03*
X810000Y-1880000D03*
X1290000Y-1190000D03*
X810000D03*
X600000Y-1220000D03*
X1770000Y-3860000D03*
X1950000D03*
X1770000Y-3650000D03*
X1980000Y-3620000D03*
X2040000Y-3440000D03*
X1680000Y-3500000D03*
X1830000Y-3380000D03*
X2040000Y-2180000D03*
X2010000Y-2390000D03*
Y-2570000D03*
X1800000Y-2630000D03*
X1680000Y-2480000D03*
Y-2270000D03*
Y-2060000D03*
X1950000Y-1310000D03*
X2040000Y-1460000D03*
Y-1640000D03*
Y-1820000D03*
Y-2000000D03*
X1680000Y-1850000D03*
X1650000Y-1640000D03*
X1500000Y-1520000D03*
X1380000Y-1370000D03*
X1470000Y-1190000D03*
X1650000D03*
X1830000D03*
X1330070Y-370060D03*
X2070000Y-350000D03*
X2790000Y-3710000D03*
X2580000Y-3560000D03*
X2610000Y-3740000D03*
X2700000Y-3890000D03*
X2520000Y-3380000D03*
X2700000D03*
X2760000Y-2780000D03*
X2505000Y-905000D03*
X2370000Y-140000D03*
X2850000Y-3530000D03*
X3420000D03*
X3480000Y-3680000D03*
Y-3830000D03*
X3285000Y-2915000D03*
X2880000Y-3380000D03*
X3480000Y-3260000D03*
X3390000Y-3380000D03*
X2935000Y-595000D03*
X3180000Y-500000D03*
X2880000Y-170000D03*
X3660000Y-3890000D03*
X3720000Y-3710000D03*
X3810000Y-3530000D03*
X4260000Y-3860000D03*
Y-2990000D03*
X3780000Y-3050000D03*
X3690000Y-3260000D03*
X3930000D03*
X4140000Y-3230000D03*
X4230000Y-3500000D03*
X4260000Y-2270000D03*
X3960000Y-1310000D03*
Y-1490000D03*
Y-1670000D03*
X4140000Y-1700000D03*
X4290000Y-1310000D03*
Y-1490000D03*
X3960000Y-740000D03*
X4140000D03*
X4320000D03*
X3960000Y-920000D03*
Y-1100000D03*
X4290000D03*
Y-920000D03*
X4470000Y-3680000D03*
Y-3860000D03*
X4380000Y-3200000D03*
X4500000Y-3320000D03*
Y-3500000D03*
X4410000Y-2060000D03*
Y-1610000D03*
X4560000Y-1640000D03*
Y-1850000D03*
X5160000Y-3890000D03*
X5220000Y-3710000D03*
X5190000Y-3500000D03*
X5370000Y-3440000D03*
X5250000Y-2630000D03*
X5550000Y-1730000D03*
X5490000Y-650000D03*
X6450000Y-2030000D03*
Y-1460000D03*
Y-1640000D03*
Y-1850000D03*
X6750000Y-3380000D03*
X6900000Y-1370000D03*
X6870000Y-1550000D03*
Y-1730000D03*
Y-1910000D03*
G54D13*
X219000Y-1467000D03*
X5150000Y-763000D03*
G54D22*
X5675000Y-395000D03*
X5400000Y-490000D03*
Y-300000D03*
G54D14*
X219000Y-959000D03*
X2934000Y-2490000D03*
Y-1474000D03*
Y-1982000D03*
X5150000Y-1779000D03*
Y-1525000D03*
Y-1271000D03*
Y-1017000D03*
G54D23*
X6350000Y-3620000D03*
Y-2840000D03*
G54D24*
X5939550Y-520000D03*
X6360450D03*
G54D15*
X1330070Y-600060D03*
Y-140060D03*
Y-370060D03*
X2360070Y-600060D03*
Y-140060D03*
Y-370060D03*
G54D25*
G01X455000Y-2990000D02*
X390000D01*
X360000Y-2960000D01*
Y-2900000D01*
X420000Y-2840000D01*
X435000D01*
G01X3210000Y-2990000D02*
X885000D01*
G01X605000Y-2840000D02*
X715000D01*
G01X3260000Y-2240000D02*
X2330000D01*
X2220000Y-2350000D01*
Y-2700000D01*
X2080000Y-2840000D01*
X865000D01*
G01X625000Y-2990000D02*
X735000D01*
G01X3130000Y-3190000D02*
X856300D01*
X735000Y-3068700D01*
Y-2990000D01*
G01X1204760Y-600060D02*
X1330070D01*
G01X1560000Y-615000D02*
X1481300D01*
G01X1560000D02*
X2209920D01*
G01X1481300D02*
X1466360Y-600060D01*
G01D02*
X1330070D01*
G01Y-665360D02*
Y-600060D01*
G01Y-370060D02*
X1520060D01*
X1560000Y-410000D01*
Y-465000D01*
G01X2505000Y-905000D02*
X2705000Y-705000D01*
X3180000D01*
G01X2610000Y-595000D02*
X2935000D01*
G01X2610000D02*
X2531300D01*
G01X2209920Y-615000D02*
X2224860Y-600060D01*
G01X2531300Y-595000D02*
X2526240Y-600060D01*
G01X2224860D02*
X2360070D01*
G01X2526240D02*
X2360070D01*
G01X2695000Y-140000D02*
X2850000D01*
G01X2695000Y-208800D02*
Y-140000D01*
G01D02*
Y-71200D01*
G01X2360070Y-140060D02*
X2544940D01*
X2545000Y-140000D01*
G01X2610000Y-445000D02*
X2596000D01*
X2521060Y-370060D01*
G01X3130000Y-3890000D02*
Y-3190000D01*
G01X3285000Y-2915000D02*
Y-2748700D01*
G01Y-2915000D02*
X3210000Y-2990000D01*
G01X3285000Y-2748700D02*
X3300000Y-2763700D01*
Y-2900000D01*
X3285000Y-2915000D01*
G01X3560000Y-2590000D02*
Y-2990000D01*
X3360000Y-3190000D01*
X3130000D01*
G01X3260000Y-2440000D02*
X3412710D01*
X3690000Y-2162710D01*
G01X3285000Y-2670000D02*
Y-2748700D01*
G01X2934000Y-1571800D02*
Y-1474000D01*
G01D02*
Y-1376200D01*
G01X3260000Y-1440000D02*
X3560000D01*
X3630000Y-1370000D01*
Y-950000D01*
X3555000Y-875000D01*
X3180000D01*
G01Y-705000D02*
X3685000D01*
X3780000Y-800000D01*
Y-1850000D01*
X3690000Y-1940000D01*
Y-2162710D01*
G01X2850000Y-140000D02*
X2880000Y-170000D01*
G01X3980000Y-3740000D02*
Y-3360000D01*
G01Y-4057800D02*
Y-3890000D01*
G01X3812200D02*
X3980000D01*
G01D02*
X4147800D01*
G01X3780000Y-3050000D02*
X4200000D01*
X4260000Y-2990000D01*
G01X4755000Y-2660000D02*
Y-2945000D01*
X4710000Y-2990000D01*
X4260000D01*
G01X3980000Y-3360000D02*
X4080000Y-3260000D01*
X4095640D01*
X4100640Y-3265000D01*
X4359360D01*
X4364360Y-3260000D01*
X4770000D01*
X4905000Y-3125000D01*
G01X3690000Y-2162710D02*
Y-2210000D01*
X3750000Y-2270000D01*
X4260000D01*
G01X4905000Y-3125000D02*
Y-2660000D01*
G01X4860000Y-2440000D02*
X4707290D01*
X4470000Y-2202710D01*
G01X4905000Y-2660000D02*
X5010000D01*
G01X4470000Y-2202710D02*
Y-2120000D01*
X4410000Y-2060000D01*
G01X5010000Y-2660000D02*
X5040000Y-2630000D01*
Y-2467290D01*
X5012710Y-2440000D01*
G01D02*
X4860000D01*
G01X6350000Y-3240000D02*
X5230000D01*
X5160000Y-3170000D01*
Y-2974360D01*
X5155000Y-2969360D01*
Y-2325000D01*
X5070000Y-2240000D01*
X4860000D01*
G01Y-1440000D02*
X4510000D01*
X4470000Y-1400000D01*
Y-860000D01*
X4500000Y-830000D01*
X4875000D01*
X4920000Y-785000D01*
Y-560000D01*
X4985000Y-495000D01*
X5080000D01*
G01X4860000Y-1840000D02*
X5012710D01*
X5106710Y-1934000D01*
X5130640D01*
X5136640Y-1940000D01*
X5215000D01*
X5245000Y-1970000D01*
Y-2030000D01*
G01X4860000Y-1040000D02*
X5012710D01*
X5035710Y-1017000D01*
X5150000D01*
G01X4860000Y-1240000D02*
X5119000D01*
X5150000Y-1271000D01*
G01X5250000Y-2630000D02*
Y-3020000D01*
X5370000Y-3140000D01*
X6360000D01*
X6545000Y-2955000D01*
X6640000D01*
G01X5075000Y-2030000D02*
Y-2108700D01*
X5146300Y-2180000D01*
X5160000D01*
X5250000Y-2270000D01*
Y-2630000D01*
G01X6870000Y-1730000D02*
X5550000D01*
G01X5150000Y-1525000D02*
X5375000D01*
X5400000Y-1550000D01*
Y-2000000D01*
X5370000Y-2030000D01*
X5245000D01*
G01X5400000Y-490000D02*
Y-560000D01*
G01D02*
X5490000Y-650000D01*
G01X5220000Y-495000D02*
X5298700D01*
G01D02*
X5303700Y-490000D01*
G01D02*
X5400000D01*
G01X5080000Y-325000D02*
X5220000D01*
G01X5400000Y-300000D02*
X5323700D01*
X5298700Y-325000D01*
X5220000D01*
G01X6350000Y-3620000D02*
Y-3240000D01*
G01Y-2840000D02*
Y-2790000D01*
X6420000Y-2720000D01*
G01X6350000Y-2934000D02*
Y-2840000D01*
G01X6256000D02*
X6350000D01*
G01D02*
X6444000D01*
G01X6350000Y-3240000D02*
X6610000D01*
X6640000Y-3210000D01*
Y-3125000D01*
G01X6420000Y-2720000D02*
X6750000D01*
X6780000Y-2750000D01*
G01X6750000Y-3380000D02*
X6876000Y-3254000D01*
G01X6870000Y-1730000D02*
X6900000D01*
X6930000Y-1760000D01*
Y-2840000D01*
X6859700Y-2910300D01*
G01X6876000Y-3254000D02*
X6900000Y-3230000D01*
Y-3016300D01*
X6858700Y-2975000D01*
G01D02*
X6780000D01*
G01X6859700Y-2910300D02*
X6736000D01*
Y-3005000D01*
X6836220D01*
X6845000Y-3013780D01*
Y-3038360D01*
X6876000Y-3069360D01*
Y-3254000D01*
G01X6780000Y-2750000D02*
Y-2975000D01*
G01X6640000Y-3125000D02*
X6780000D01*
G54D16*
X740000Y-370000D03*
X1770000D03*
G54D26*
G01X1330070Y-370060D02*
X1320130Y-380000D01*
X1100000D01*
X1050000Y-430000D01*
Y-2120000D01*
X900000Y-2270000D01*
X570000D01*
X435000Y-2405000D01*
Y-2840000D01*
G01X1330070Y-140060D02*
X2360070D01*
G01X2474000Y-1474000D02*
X2934000D01*
G01X2360070Y-685260D02*
X2310000Y-735330D01*
Y-1310000D01*
X2474000Y-1474000D01*
G01X2360070Y-600060D02*
Y-685260D01*
G01Y-370060D02*
X2521060D01*
G01X6365000Y-260000D02*
X6360000Y-255000D01*
Y-170000D01*
X6270000Y-80000D01*
X3170000D01*
X3120000Y-130000D01*
Y-290000D01*
X3039940Y-370060D01*
X2521060D01*
G01X2934000Y-2490000D02*
Y-2624000D01*
X2980000Y-2670000D01*
X3135000D01*
G01X5490000Y-1110000D02*
X5675000Y-925000D01*
Y-395000D01*
G01D02*
X5789540D01*
X5914540Y-520000D01*
X5939550D01*
G01X6690000Y-1110000D02*
Y-620000D01*
X6590000Y-520000D01*
X6360450D01*
G01D02*
Y-402300D01*
X6365000Y-397750D01*
Y-260000D01*
G01X6095000D02*
X6195000D01*
G01X5945000D02*
Y-396850D01*
X5939550Y-402300D01*
Y-520000D01*
G54D17*
X1430000Y-3890000D03*
X2280000D03*
X3130000D03*
X3980000D03*
X4830000D03*
X5490000Y-2330000D03*
Y-1110000D03*
X6690000Y-2330000D03*
X6090000Y-910000D03*
X6690000Y-1110000D03*
G54D18*
X1560000Y-615000D03*
Y-465000D03*
X2610000Y-595000D03*
Y-445000D03*
X3180000Y-875000D03*
Y-705000D03*
X5080000Y-495000D03*
Y-325000D03*
X5220000Y-495000D03*
Y-325000D03*
X6640000Y-2955000D03*
Y-3125000D03*
X6780000Y-2975000D03*
Y-3125000D03*
G54D19*
X3560000Y-2590000D03*
X4360000D03*
X4160000D03*
X3960000D03*
X3760000D03*
X4560000D03*
M02*
