G04 ================== begin FILE IDENTIFICATION RECORD ==================*
G04 Layout Name:  C:/DATA/GIT/CADENCE/MODULES/WIFI_SWITCH2/allegro/ESP8266_SWITCH.brd*
G04 Film Name:    TOP*
G04 File Format:  Gerber RS274X*
G04 File Origin:  Cadence Allegro 17.2-P019*
G04 Origin Date:  Mon Aug 07 19:07:10 2017*
G04 *
G04 Layer:  ETCH/TOP*
G04 Layer:  PIN/TOP*
G04 Layer:  VIA CLASS/TOP*
G04 *
G04 Offset:    (0.0000 0.0000)*
G04 Mirror:    No*
G04 Mode:      Positive*
G04 Rotation:  0*
G04 FullContactRelief:  No*
G04 UndefLineWidth:     0.0000*
G04 ================== end FILE IDENTIFICATION RECORD ====================*
%FSLAX25Y25*MOMM*%
%IR0*IPPOS*OFA0.00000B0.00000*MIA0B0*SFA1.00000B1.00000*%
%ADD19R,.74X1.02*%
%AMMACRO15*
4,1,44,-.5999,.95,
-.5999,-.95,
-.595401,-1.002095,
-.581875,-1.052609,
-.559783,-1.100007,
-.529795,-1.142848,
-.492825,-1.179831,
-.449993,-1.209833,
-.402603,-1.231941,
-.352094,-1.245484,
-.3,-1.25005,
-.2999,-1.25,
.2999,-1.25,
.351995,-1.245501,
.402509,-1.231975,
.449907,-1.209883,
.492748,-1.179895,
.529731,-1.142925,
.559733,-1.100093,
.581841,-1.052703,
.595384,-1.002194,
.59995,-.9501,
.5999,-.95,
.5999,.95,
.595401,1.002095,
.581875,1.052609,
.559783,1.100007,
.529795,1.142848,
.492825,1.179831,
.449993,1.209833,
.402603,1.231941,
.352094,1.245484,
.3,1.25005,
.2999,1.25,
-.2999,1.25,
-.351995,1.245501,
-.402509,1.231975,
-.449907,1.209883,
-.492748,1.179895,
-.529731,1.142925,
-.559733,1.100093,
-.581841,1.052703,
-.595384,1.002194,
-.59995,.9501,
-.5999,.95,
0.0*
%
%ADD15MACRO15*%
%AMMACRO16*
4,1,44,.95,.5999,
-.95,.5999,
-1.002095,.595401,
-1.052609,.581875,
-1.100007,.559783,
-1.142848,.529795,
-1.179831,.492825,
-1.209833,.449993,
-1.231941,.402603,
-1.245484,.352094,
-1.25005,.3,
-1.25,.2999,
-1.25,-.2999,
-1.245501,-.351995,
-1.231975,-.402509,
-1.209883,-.449907,
-1.179895,-.492748,
-1.142925,-.529731,
-1.100093,-.559733,
-1.052703,-.581841,
-1.002194,-.595384,
-.9501,-.59995,
-.95,-.5999,
.95,-.5999,
1.002095,-.595401,
1.052609,-.581875,
1.100007,-.559783,
1.142848,-.529795,
1.179831,-.492825,
1.209833,-.449993,
1.231941,-.402603,
1.245484,-.352094,
1.25005,-.3,
1.25,-.2999,
1.25,.2999,
1.245501,.351995,
1.231975,.402509,
1.209883,.449907,
1.179895,.492748,
1.142925,.529731,
1.100093,.559733,
1.052703,.581841,
1.002194,.595384,
.9501,.59995,
.95,.5999,
0.0*
%
%ADD16MACRO16*%
%ADD14C,1.*%
%ADD13C,3.*%
%ADD10C,3.5*%
%ADD17R,3.X3.*%
%ADD18R,2.1001X1.5999*%
%ADD12C,1.5999*%
%ADD11R,1.5999X1.5999*%
%ADD20C,.3*%
%ADD21C,.5*%
G75*
%LPD*%
G75*
G36*
G01X2530000Y-1990000D02*
X2500000Y-1960000D01*
Y-1270000D01*
X2620000Y-1150000D01*
X2960000D01*
X3010000Y-1200000D01*
Y-1204950D01*
G02X2993340Y-1212750I-10158J5D01*
G03X2948420Y-1375590I-59338J-71247D01*
G02X2957190Y-1392810I1585J-10036D01*
G01X2950000Y-1400000D01*
X2740000D01*
X2700000Y-1440000D01*
Y-1920000D01*
X2630000Y-1990000D01*
X2530000D01*
G37*
G36*
G01X3456960Y-2847680D02*
X3474650Y-2865350D01*
X3516250Y-2830000D01*
X3474650Y-2794650D01*
X3456960Y-2812320D01*
G03Y-2847680I17680J-17680D01*
G37*
G36*
G01X3527680Y-2883040D02*
X3545350Y-2865350D01*
X3510000Y-2823750D01*
X3474650Y-2865350D01*
X3492320Y-2883040D01*
G03X3527680I17680J17680D01*
G37*
G36*
G01X2838550Y-1301680D02*
X2877440Y-1340560D01*
X2940250Y-1284000D01*
X2877440Y-1227440D01*
X2838550Y-1266320D01*
G03Y-1301680I17680J-17680D01*
G37*
G36*
G01X4100610Y-2100110D02*
X4125350Y-2075350D01*
X4090000Y-2036250D01*
X4054650Y-2075350D01*
X4079390Y-2100110D01*
G03X4100610I10610J10610D01*
G37*
G36*
G01X3731820Y-1367560D02*
X3744490Y-1344870D01*
X3704230Y-1308800D01*
X3669650Y-1350350D01*
X3692320Y-1373040D01*
G03X3731820Y-1367560I17677J17679D01*
G37*
G36*
G01X4267680Y-1503040D02*
X4285350Y-1485350D01*
X4250000Y-1443750D01*
X4214650Y-1485350D01*
X4232320Y-1503040D01*
G03X4267680I17680J17680D01*
G37*
G36*
G01X4432320Y-1976960D02*
X4414650Y-1994650D01*
X4450000Y-2036250D01*
X4485350Y-1994650D01*
X4467680Y-1976960D01*
G03X4432320I-17680J-17680D01*
G37*
G36*
G01X5049410Y-703060D02*
X5100020Y-756070D01*
X5186250Y-693000D01*
X5100020Y-629930D01*
X5049410Y-682940D01*
G03Y-703060I22890J-10060D01*
G37*
G36*
G01X5197680Y-2058450D02*
X5236560Y-2019560D01*
X5180000Y-1956750D01*
X5123440Y-2019560D01*
X5162320Y-2058450D01*
G03X5197680I17680J17680D01*
G37*
G36*
G01X5084550Y-964680D02*
X5123440Y-1003560D01*
X5186250Y-947000D01*
X5123440Y-890440D01*
X5084550Y-929320D01*
G03Y-964680I17680J-17680D01*
G37*
G36*
G01Y-1218680D02*
X5123440Y-1257560D01*
X5186250Y-1201000D01*
X5123440Y-1144440D01*
X5084550Y-1183320D01*
G03Y-1218680I17680J-17680D01*
G37*
G36*
G01X5839490Y-469410D02*
X5786480Y-520020D01*
X5849550Y-606250D01*
X5912620Y-520020D01*
X5859610Y-469410D01*
G03X5839490I-10060J-22890D01*
G37*
G36*
G01X5669340Y-614080D02*
X5744540Y-680000D01*
X5855800Y-600000D01*
X5744540Y-520000D01*
X5669340Y-585920D01*
G03Y-614080I20660J-14080D01*
G37*
G36*
G01X6260390Y-469410D02*
X6207380Y-520020D01*
X6270450Y-606250D01*
X6333520Y-520020D01*
X6280510Y-469410D01*
G03X6260390I-10060J-22890D01*
G37*
G36*
G01X6426050Y-589940D02*
X6375440Y-536930D01*
X6264200Y-600000D01*
X6375440Y-663070D01*
X6426050Y-610060D01*
G03Y-589940I-22890J10060D01*
G37*
G36*
G01X6372710Y-346770D02*
X6402000Y-311000D01*
X6365000Y-253750D01*
X6328000Y-311000D01*
X6357290Y-346770D01*
G03X6372710I7710J23780D01*
G37*
G36*
G01X6109750Y-268650D02*
X6158000Y-311000D01*
X6198750Y-260000D01*
X6158000Y-209000D01*
X6109750Y-251350D01*
G03Y-268650I12260J-8650D01*
G37*
G36*
G01X6180250Y-251350D02*
X6132000Y-209000D01*
X6091250Y-260000D01*
X6132000Y-311000D01*
X6180250Y-268650D01*
G03Y-251350I-12260J8650D01*
G37*
G36*
G01X5952710Y-346770D02*
X5982000Y-311000D01*
X5945000Y-253750D01*
X5908000Y-311000D01*
X5937290Y-346770D01*
G03X5952710I7710J23780D01*
G37*
G36*
G01X2592320Y-1866960D02*
X2574650Y-1884650D01*
X2610000Y-1926250D01*
X2645350Y-1884650D01*
X2627680Y-1866960D01*
G03X2592320I-17680J-17680D01*
G37*
G54D10*
X230000Y-3930000D03*
Y-230000D03*
X6780000Y-3930000D03*
Y-230000D03*
G54D20*
G01X2934000Y-1381800D02*
Y-1284000D01*
G01D02*
Y-1186200D01*
G01X4090000Y-2040000D02*
Y-2250000D01*
X4160000Y-2320000D01*
X4550010D01*
X4670010Y-2440000D01*
X4860000D01*
G01X6095000Y-260000D02*
X6195000D01*
G54D11*
X219000Y-1277000D03*
X5180000Y-693000D03*
G54D21*
G01X3510000Y-2830000D02*
X2780000D01*
X2670000Y-2720000D01*
Y-2170000D01*
X2800000Y-2040000D01*
X3260000D01*
G01X2610000Y-1920000D02*
Y-1400000D01*
X2726000Y-1284000D01*
G01D02*
X2934000D01*
G01X3510000Y-2830000D02*
Y-3100000D01*
X3130000Y-3480000D01*
Y-3890000D01*
G01X5180000Y-693000D02*
X5072300D01*
X5025300Y-740000D01*
X4140000D01*
X3920000Y-960000D01*
Y-1932710D01*
X3412710Y-2440000D01*
X3260000D01*
G01Y-1440000D02*
X3680000D01*
X3710000Y-1410000D01*
Y-1320000D01*
X3705000Y-1315000D01*
G01X4860000Y-1840000D02*
X4660000D01*
X4620000Y-1880000D01*
Y-2130000D01*
X4550000Y-2200000D01*
X4340000D01*
X4250000Y-2110000D01*
Y-1450000D01*
G01X5180000Y-1963000D02*
Y-2390000D01*
X5130000Y-2440000D01*
X4860000D01*
G01Y-2240000D02*
Y-2440000D01*
G01X4450000Y-2030000D02*
Y-1539990D01*
X4549990Y-1440000D01*
X4860000D01*
G01Y-1040000D02*
X4925010D01*
X5018010Y-947000D01*
X5180000D01*
G01X4860000Y-1240000D02*
X5012710D01*
X5051710Y-1201000D01*
X5180000D01*
G01X5849550Y-600000D02*
X5690000D01*
X5490000Y-800000D01*
Y-1110000D01*
G01X6365000Y-260000D02*
Y-397750D01*
X6270450Y-492300D01*
Y-600000D01*
G01D02*
X6403160D01*
X6423160Y-620000D01*
X6630000D01*
X6690000Y-680000D01*
Y-1110000D01*
G01X5945000Y-260000D02*
Y-396850D01*
X5849550Y-492300D01*
Y-600000D01*
G54D12*
X219000Y-769000D03*
X2934000Y-2300000D03*
Y-1284000D03*
Y-1792000D03*
X5180000Y-1963000D03*
Y-1709000D03*
Y-1455000D03*
Y-1201000D03*
Y-947000D03*
G54D13*
G01X4830000Y-3890000D02*
Y-3430000D01*
X5490000Y-2770000D01*
Y-2330000D01*
G01X5680000Y-3890000D02*
Y-3740000D01*
X6090000Y-3330000D01*
Y-910000D01*
X1430000Y-3890000D03*
X2280000D03*
X3130000D03*
X3980000D03*
X4830000D03*
X5490000Y-2330000D03*
Y-1110000D03*
X6690000Y-2330000D03*
X6090000Y-910000D03*
X6690000Y-1110000D03*
G54D14*
G01X219000Y-1277000D02*
X1167000D01*
X1430000Y-1540000D01*
Y-3890000D01*
G01X219000Y-769000D02*
X1799000D01*
X2280000Y-1250000D01*
Y-3890000D01*
X2610000Y-1920000D03*
X3510000Y-2830000D03*
X3260000Y-2440000D03*
Y-2240000D03*
Y-1040000D03*
X4090000Y-2040000D03*
X3705000Y-1315000D03*
X4250000Y-1450000D03*
X4450000Y-2030000D03*
X4860000Y-2040000D03*
G54D15*
X3560000Y-2590000D03*
X4360000D03*
X4160000D03*
X3960000D03*
X3760000D03*
X4560000D03*
G54D16*
X3260000Y-2040000D03*
Y-2240000D03*
Y-2440000D03*
Y-1440000D03*
Y-1640000D03*
Y-1840000D03*
Y-1040000D03*
Y-1240000D03*
X4860000Y-2440000D03*
Y-2240000D03*
Y-2040000D03*
Y-1840000D03*
Y-1640000D03*
Y-1440000D03*
Y-1240000D03*
Y-1040000D03*
G54D17*
X5680000Y-3890000D03*
G54D18*
X5849550Y-600000D03*
X6270450D03*
G54D19*
X6095000Y-260000D03*
X5945000D03*
X6195000D03*
X6365000D03*
M02*
