G04 ================== begin FILE IDENTIFICATION RECORD ==================*
G04 Layout Name:  ENCODER_ZPULSE_DIRECTION.brd*
G04 Film Name:    BOTTOM*
G04 File Format:  Gerber RS274X*
G04 File Origin:  Cadence Allegro 17.2-P019*
G04 Origin Date:  Mon Aug 29 19:15:07 2016*
G04 *
G04 Layer:  ROUTE KEEPOUT/TOP*
G04 Layer:  ROUTE KEEPOUT/BOTTOM*
G04 Layer:  ROUTE KEEPOUT/ALL*
G04 Layer:  ROUTE KEEPIN/ALL*
G04 Layer:  BOARD GEOMETRY/OUTLINE*
G04 Layer:  BOARD GEOMETRY/DESIGN_OUTLINE*
G04 Layer:  DRC ERROR CLASS/TOP*
G04 Layer:  DRC ERROR CLASS/SOLDERMASK_TOP*
G04 Layer:  DRC ERROR CLASS/PASTEMASK_TOP*
G04 Layer:  DRC ERROR CLASS/PACKAGE_TOP*
G04 Layer:  ETCH/BOTTOM*
G04 Layer:  PIN/BOTTOM*
G04 Layer:  VIA CLASS/BOTTOM*
G04 *
G04 Offset:    (0.0000 0.0000)*
G04 Mirror:    No*
G04 Mode:      Positive*
G04 Rotation:  0*
G04 FullContactRelief:  No*
G04 UndefLineWidth:     0.0000*
G04 ================== end FILE IDENTIFICATION RECORD ====================*
%FSLAX25Y25*MOMM*%
%IR0*IPPOS*OFA0.00000B0.00000*MIA0B0*SFA1.00000B1.00000*%
%ADD13C,.9*%
%ADD12C,3.5*%
%ADD10C,1.5999*%
%ADD11R,1.5999X1.5999*%
%ADD14C,.4*%
%ADD15C,.127*%
G75*
%LPD*%
G75*
G36*
G01X-1511300Y2009140D02*
X-1663700D01*
Y1925320D01*
X-1511300D01*
Y2009140D01*
G37*
G36*
G01Y2260600D02*
X-1663700D01*
Y2184400D01*
X-1511300D01*
Y2260600D01*
G37*
G36*
G01Y2519680D02*
X-1663700D01*
Y2435860D01*
X-1511300D01*
Y2519680D01*
G37*
G36*
G01Y2771140D02*
X-1663700D01*
Y2687320D01*
X-1511300D01*
Y2771140D01*
G37*
G36*
G01Y3022600D02*
X-1663700D01*
Y2946400D01*
X-1511300D01*
Y3022600D01*
G37*
G36*
G01Y3848100D02*
X-1663700D01*
Y3771900D01*
X-1511300D01*
Y3848100D01*
G37*
G36*
G01Y4107180D02*
X-1663700D01*
Y4023360D01*
X-1511300D01*
Y4107180D01*
G37*
G36*
G01Y4358640D02*
X-1663700D01*
Y4274820D01*
X-1511300D01*
Y4358640D01*
G37*
G36*
G01X-1686490Y4430860D02*
X-1644050Y4388440D01*
X-1582500Y4445000D01*
X-1644050Y4501560D01*
X-1686490Y4459140D01*
G03Y4430860I14140J-14140D01*
G37*
G36*
G01X-1511300Y4610100D02*
X-1663700D01*
Y4533900D01*
X-1511300D01*
Y4610100D01*
G37*
G36*
G01X-1362000Y2300140D02*
X-1379680Y2317820D01*
X-1416500Y2286000D01*
X-1379680Y2254180D01*
X-1362000Y2271860D01*
G03Y2300140I-14140J14140D01*
G37*
G36*
G01X-1271000Y2271860D02*
X-1253320Y2254180D01*
X-1216500Y2286000D01*
X-1253320Y2317820D01*
X-1271000Y2300140D01*
G03Y2271860I14140J-14140D01*
G37*
G36*
G01X-1131480Y3689520D02*
Y3549480D01*
X-1071470D01*
Y3689520D01*
X-1131480D01*
G37*
G36*
G01Y3181520D02*
Y3041480D01*
X-1071470D01*
Y3181520D01*
X-1131480D01*
G37*
G36*
G01X-1046480Y4058920D02*
Y3914140D01*
X-795020D01*
Y4058920D01*
X-1046480D01*
G37*
G36*
G01X-1065000Y4369230D02*
X-1047320Y4351550D01*
X-1010500Y4383370D01*
X-1047320Y4415190D01*
X-1065000Y4397510D01*
G03Y4369230I14140J-14140D01*
G37*
G36*
G01X-1386780Y4397510D02*
X-1443350Y4454080D01*
X-1462490Y4403370D01*
Y4363370D01*
X-1443350Y4312660D01*
X-1386780Y4369230D01*
G03Y4397510I-14140J14140D01*
G37*
G36*
G01X-1154520Y4628980D02*
Y4769020D01*
X-1214530D01*
Y4628980D01*
X-1154520D01*
G37*
G36*
G01X-1459280Y4708210D02*
X-1507520Y4757760D01*
X-1592500Y4699000D01*
X-1507520Y4640240D01*
X-1459280Y4689790D01*
G03Y4708210I-17750J9210D01*
G37*
G36*
G01X-160020Y1846580D02*
Y1991360D01*
X-411480D01*
Y1846580D01*
X-160020D01*
G37*
G36*
G01X-750480Y1848020D02*
Y1707980D01*
X-690470D01*
Y1848020D01*
X-750480D01*
G37*
G36*
G01X-710020Y1961980D02*
Y2102020D01*
X-770030D01*
Y1961980D01*
X-710020D01*
G37*
G36*
G01Y2215980D02*
Y2356020D01*
X-770030D01*
Y2215980D01*
X-710020D01*
G37*
G36*
G01X-305980Y2356020D02*
Y2215980D01*
X-245970D01*
Y2356020D01*
X-305980D01*
G37*
G36*
G01X-646520Y3549480D02*
Y3689520D01*
X-706530D01*
Y3549480D01*
X-646520D01*
G37*
G36*
G01X-49360Y2998500D02*
X-31680Y3016180D01*
X-63500Y3053000D01*
X-95320Y3016180D01*
X-77640Y2998500D01*
G03X-49360I14140J14140D01*
G37*
G36*
G01X-424140Y3351500D02*
X-441820Y3333820D01*
X-410000Y3297000D01*
X-378180Y3333820D01*
X-395860Y3351500D01*
G03X-424140I-14140J-14140D01*
G37*
G36*
G01X-705020Y4012020D02*
X-564980D01*
Y4072030D01*
X-705020D01*
Y4012020D01*
G37*
G36*
G01X-480710Y3907860D02*
X-424140Y3851290D01*
X-405000Y3902000D01*
Y3942000D01*
X-424140Y3992710D01*
X-480710Y3936140D01*
G03Y3907860I14140J-14140D01*
G37*
G36*
G01X-710020Y4628980D02*
Y4769020D01*
X-770030D01*
Y4628980D01*
X-710020D01*
G37*
G36*
G01X-395860Y4586000D02*
X-378180Y4603680D01*
X-410000Y4640500D01*
X-441820Y4603680D01*
X-424140Y4586000D01*
G03X-395860I14140J14140D01*
G37*
G36*
G01X33020Y1963420D02*
Y1818640D01*
X284480D01*
Y1963420D01*
X33020D01*
G37*
G36*
G01X623480Y1961980D02*
Y2102020D01*
X563470D01*
Y1961980D01*
X623480D01*
G37*
G36*
G01X583020Y1848020D02*
Y1707980D01*
X643030D01*
Y1848020D01*
X583020D01*
G37*
G36*
G01X-45000Y2311000D02*
Y2286000D01*
X3540Y2282460D01*
X0Y2331000D01*
X-25000D01*
G03X-45000Y2311000I0J-20000D01*
G37*
G36*
G01X541020Y3677920D02*
Y3533140D01*
X792480D01*
Y3677920D01*
X541020D01*
G37*
G36*
G01X646520Y4070520D02*
Y3930480D01*
X706530D01*
Y4070520D01*
X646520D01*
G37*
G36*
G01X1473200Y2009140D02*
X1320800D01*
Y1925320D01*
X1473200D01*
Y2009140D01*
G37*
G36*
G01Y2260600D02*
X1320800D01*
Y2184400D01*
X1473200D01*
Y2260600D01*
G37*
G36*
G01X1067980Y1771480D02*
Y1911520D01*
X1007970D01*
Y1771480D01*
X1067980D01*
G37*
G36*
G01X981000Y2176360D02*
X998680Y2158680D01*
X1035500Y2190500D01*
X998680Y2222320D01*
X981000Y2204640D01*
G03Y2176360I14140J-14140D01*
G37*
G36*
G01X890000Y2204640D02*
X872320Y2222320D01*
X835500Y2190500D01*
X872320Y2158680D01*
X890000Y2176360D01*
G03Y2204640I-14140J14140D01*
G37*
G36*
G01X1298010Y1827360D02*
X1340450Y1784940D01*
X1402000Y1841500D01*
X1340450Y1898060D01*
X1298010Y1855640D01*
G03Y1827360I14140J-14140D01*
G37*
G36*
G01X1473200Y2519680D02*
X1320800D01*
Y2435860D01*
X1473200D01*
Y2519680D01*
G37*
G36*
G01Y2771140D02*
X1320800D01*
Y2687320D01*
X1473200D01*
Y2771140D01*
G37*
G36*
G01Y3022600D02*
X1320800D01*
Y2946400D01*
X1473200D01*
Y3022600D01*
G37*
G36*
G01X750480Y2850980D02*
Y2991020D01*
X690470D01*
Y2850980D01*
X750480D01*
G37*
G36*
G01X1495990Y2363640D02*
X1453550Y2406060D01*
X1392000Y2349500D01*
X1453550Y2292940D01*
X1495990Y2335360D01*
G03Y2363640I-14140J14140D01*
G37*
G36*
G01X750480Y3168480D02*
Y3308520D01*
X690470D01*
Y3168480D01*
X750480D01*
G37*
G36*
G01X1009480Y3567520D02*
X1149520D01*
Y3627530D01*
X1009480D01*
Y3567520D01*
G37*
G36*
G01X1268780Y3102290D02*
X1317020Y3052740D01*
X1402000Y3111500D01*
X1317020Y3170260D01*
X1268780Y3120710D01*
G03Y3102290I17750J-9210D01*
G37*
G36*
G01X1473200Y3848100D02*
X1320800D01*
Y3771900D01*
X1473200D01*
Y3848100D01*
G37*
G36*
G01Y4107180D02*
X1320800D01*
Y4023360D01*
X1473200D01*
Y4107180D01*
G37*
G36*
G01Y4358640D02*
X1320800D01*
Y4274820D01*
X1473200D01*
Y4358640D01*
G37*
G36*
G01X1149520Y4115980D02*
X1009480D01*
Y4055970D01*
X1149520D01*
Y4115980D01*
G37*
G36*
G01X690950Y4311500D02*
Y4286500D01*
X739490Y4282960D01*
X735950Y4331500D01*
X710950D01*
G03X690950Y4311500I0J-20000D01*
G37*
G36*
G01X760950Y4331500D02*
X735950D01*
X732410Y4282960D01*
X780950Y4286500D01*
Y4311500D01*
G03X760950Y4331500I-20000J0D01*
G37*
G36*
G01X1298010Y4430860D02*
X1340450Y4388440D01*
X1402000Y4445000D01*
X1340450Y4501560D01*
X1298010Y4459140D01*
G03Y4430860I14140J-14140D01*
G37*
G36*
G01X1473200Y4610100D02*
X1320800D01*
Y4533900D01*
X1473200D01*
Y4610100D01*
G37*
G36*
G01X1525220Y4708210D02*
X1476980Y4757760D01*
X1392000Y4699000D01*
X1476980Y4640240D01*
X1525220Y4689790D01*
G03Y4708210I-17750J9210D01*
G37*
G54D10*
X-1587500Y1841500D03*
Y2095500D03*
Y2349500D03*
Y2603500D03*
Y2857500D03*
Y3683000D03*
Y3937000D03*
Y4191000D03*
Y4445000D03*
X1397000Y1841500D03*
Y2095500D03*
Y2349500D03*
Y2603500D03*
Y2857500D03*
Y3683000D03*
Y3937000D03*
Y4191000D03*
Y4445000D03*
G54D11*
X-1587500Y3111500D03*
Y4699000D03*
X1397000Y3111500D03*
Y4699000D03*
G54D12*
X-1016000Y2667000D03*
X270000Y3720000D03*
G54D13*
X-1221500Y2286000D03*
X-1411500D03*
X-1333500Y3683000D03*
X-952500Y3746500D03*
X-1015500Y4383370D03*
X-510000Y2921000D03*
X-63500Y3048000D03*
X-410000Y3302000D03*
X-248250Y3895500D03*
X-508000Y4254500D03*
X-410000Y4635500D03*
X0Y2286000D03*
X571500Y2794000D03*
X405950Y3048000D03*
X572000Y3849200D03*
X405950Y4254500D03*
X443250Y4000500D03*
X405950Y4762500D03*
X840500Y2190500D03*
X1030500D03*
X1127000Y2857500D03*
X735950Y4286500D03*
X889000Y4127500D03*
G54D14*
G01X-1717500Y2857500D02*
Y1781500D01*
G01D02*
X-1647500Y1711500D01*
X-384000D01*
X-248250Y1847250D01*
Y3895500D01*
G01X-1587500Y2857500D02*
X-1717500D01*
G01D02*
Y4425470D01*
G01X-1678470Y2818270D02*
X-1587500Y2857500D01*
G01X-1717500Y4425470D02*
X-1697970Y4445000D01*
G01D02*
X-1587500D01*
G01Y2095500D02*
X-814500D01*
X-660000Y2250000D01*
Y2629220D01*
X-720000Y2689220D01*
Y3514000D01*
X-952500Y3746500D01*
G01X-510000Y2921000D02*
Y2040000D01*
X-708500Y1841500D01*
X-1587500D01*
G01Y2857500D02*
X-1488430D01*
G01X-1587500Y2603500D02*
X-1446510D01*
X-1127490Y2922520D01*
Y3784510D01*
X-990000Y3922000D01*
X-410000D01*
G01X-1221500Y2286000D02*
X-1411500D01*
G01X-1457490Y4383370D02*
Y3241510D01*
X-1587500Y3111500D01*
G01X-508000Y4254500D02*
X-1270000D01*
X-1333500Y4191000D01*
Y3683000D01*
G01X-1457490Y4383370D02*
X-1015500D01*
G01X-1587500Y4699000D02*
X-1477030D01*
X-1457490Y4679460D01*
Y4383370D01*
G01X-1015500D02*
Y4699490D01*
X-952490Y4762500D01*
X405950D01*
G01X-410000Y3302000D02*
Y3922000D01*
G01X-248250Y3895500D02*
Y4323760D01*
G01D02*
X-190510Y4381500D01*
X640950D01*
G01X-410000Y4635500D02*
Y3922000D01*
G01X1397000Y2349500D02*
X1507470D01*
X1527000Y2329970D01*
Y1781500D01*
X1457000Y1711500D01*
X384000D01*
X254000Y1841500D01*
Y2896050D01*
X405950Y3048000D01*
G01X1397000Y2095500D02*
X698510D01*
X635000Y2159010D01*
Y2540000D01*
X698500Y2603500D01*
Y2957750D01*
X540000Y3116250D01*
Y3200000D01*
X500000Y3240000D01*
X150000D01*
X45000Y3345000D01*
Y4065000D01*
X90000Y4110000D01*
X333750D01*
X443250Y4000500D01*
G01X571500Y2794000D02*
X381000Y2603500D01*
Y2095500D01*
X635000Y1841500D01*
X1397000D01*
G01X0Y2286000D02*
X-63500Y2349500D01*
Y3048000D01*
G01X572000Y3849200D02*
X690000Y3731200D01*
Y3118450D01*
X1045950Y2762500D01*
X1212000D01*
X1222000Y2772500D01*
Y3046970D01*
X1286530Y3111500D01*
X1397000D01*
G01X405950Y4254500D02*
X-5490D01*
X-60000Y4199990D01*
Y3209990D01*
X101990Y3048000D01*
X405950D01*
G01X640950Y4381500D02*
X735950Y4286500D01*
G01X840500Y2190500D02*
X1030500D01*
G01X1297930Y2857500D02*
X1397000D01*
G01X790900Y3193600D02*
X1127000Y2857500D01*
G01X1397000D02*
X1496070D01*
G01X735950Y4286500D02*
X790900Y4231550D01*
Y3193600D01*
G01X1397000Y3111500D02*
X1527000Y3241500D01*
Y4679470D01*
X1507470Y4699000D01*
X1397000D01*
G01Y3683000D02*
X952500D01*
X889000Y3746500D01*
Y4127500D01*
G01X735950Y4286500D02*
X894450Y4445000D01*
G01D02*
X1397000D01*
G54D15*
G01X-116370Y3186640D02*
X-78050Y3148320D01*
G03X-135370Y2976510I14549J-100321D01*
G03X-135180Y2976320I39955J39765D01*
G01X-119870Y2961010D01*
Y2326150D01*
X-101370Y2307650D01*
Y2286000D01*
G03X0Y2387370I101370J0D01*
G01X-7130D01*
Y2961010D01*
X8180Y2976320D01*
G03X8370Y2976510I-39765J39955D01*
G03X36820Y3033450I-71871J71488D01*
G01X78640Y2991630D01*
X269860D01*
X197630Y2919400D01*
Y1818150D01*
X329430Y1686350D01*
X-1823650D01*
Y4943650D01*
X1613650D01*
Y1686350D01*
X1511570D01*
X1583370Y1758150D01*
Y2353320D01*
X1546430Y2390260D01*
G03X1535840Y2403510I-64581J-40759D01*
G01X1494780Y2444550D01*
G03X1479570Y2458020I-97761J-95067D01*
G01Y2494970D01*
G03Y2712030I-82570J108530D01*
G01Y2777510D01*
X1455450D01*
G03X1451810Y2940030I-58449J79992D01*
G01X1479570D01*
Y2975190D01*
G03X1533360Y3031500I-2580J56311D01*
G01Y3168150D01*
X1583370Y3218150D01*
Y4690570D01*
G03X1569520Y4743510I-75900J8425D01*
G01X1533340Y4780680D01*
G03X1477000Y4835360I-56343J-1688D01*
G01X1317000D01*
G03X1260640Y4779000I5J-56365D01*
G01Y4619000D01*
G03X1314430Y4562690I56370J1D01*
G01Y4527530D01*
X1342190D01*
G03X1338550Y4365010I54809J-82528D01*
G01X1314430D01*
Y4299530D01*
G03Y4082470I82570J-108530D01*
G01Y4045530D01*
G03Y3828470I82570J-108530D01*
G01Y3791530D01*
G03X1272830Y3739370I82574J-108526D01*
G01X975850D01*
X945370Y3769850D01*
Y4043250D01*
G03X832630I-56370J84250D01*
G01Y3723150D01*
X929150Y3626630D01*
X1272830D01*
G03X1470630Y3568220I124171J56372D01*
G01Y3264850D01*
X1453650Y3247860D01*
X1317000D01*
G03X1260660Y3193180I3J-56368D01*
G01X1224480Y3156010D01*
G03X1210240Y3114930I62048J-44517D01*
G01X1165630Y3070320D01*
Y2818870D01*
X1069300D01*
X746370Y3141800D01*
Y3754550D01*
X671430Y3829480D01*
G03X523020Y3937950I-99432J19719D01*
G03X423530Y4099930I-79771J62548D01*
G01X358600Y4164870D01*
G03X321700Y4310870I47351J89630D01*
G01X-28840D01*
X-116370Y4223340D01*
Y3186640D01*
G01X-1414980Y4743510D02*
G02X-1401120Y4690660I-62049J-44515D01*
G01Y4491570D01*
X-1349290Y4439740D01*
X-1102490D01*
X-1087180Y4455050D01*
G02X-1086990Y4455240I39955J-39765D01*
G02X-1071870Y4467620I71481J-71878D01*
G01Y4722840D01*
X-975840Y4818870D01*
X321700D01*
G02Y4706130I84250J-56370D01*
G01X-337290D01*
G02X-338130Y4564010I-72710J-70633D01*
G02X-338320Y4563820I-39955J39765D01*
G01X-353630Y4548510D01*
Y3965530D01*
X-348630Y3952280D01*
Y3891720D01*
X-353630Y3878470D01*
Y3388990D01*
X-338320Y3373680D01*
G02X-338130Y3373490I-39765J-39955D01*
G02X-481870I-71870J-71490D01*
G02X-481680Y3373680I39955J-39765D01*
G01X-466370Y3388990D01*
Y3813800D01*
X-518200Y3865630D01*
X-966650D01*
X-992740Y3839540D01*
G02X-853070Y3726780I40238J-93040D01*
G01X-663630Y3537350D01*
Y2712570D01*
X-603630Y2652570D01*
Y2226650D01*
X-791150Y2039130D01*
X-1463330D01*
G02X-1504930Y1986970I-124174J56366D01*
G01Y1950030D01*
G02X-1463330Y1897870I-82574J-108526D01*
G01X-731850D01*
X-566370Y2063350D01*
Y2836750D01*
G02X-453630I56370J84250D01*
G01Y2016650D01*
X-685150Y1785130D01*
X-1463330D01*
G02X-1670070Y1950030I-124173J56369D01*
G01Y1986970D01*
G02Y2204030I82570J108530D01*
G01Y2240970D01*
G02Y2458030I82570J108530D01*
G01Y2494970D01*
G02Y2712030I82570J108530D01*
G01Y2777510D01*
X-1645950D01*
G02X-1642310Y2940030I58449J79992D01*
G01X-1670070D01*
Y2975190D01*
G02X-1723860Y3031500I2580J56311D01*
G01Y3191500D01*
G02X-1667500Y3247860I56365J-5D01*
G01X-1530850D01*
X-1513860Y3264860D01*
Y3568220D01*
G02X-1670070Y3791530I-73643J114776D01*
G01Y3828470D01*
G02Y4045530I82570J108530D01*
G01Y4082470D01*
G02Y4299530I82570J108530D01*
G01Y4365010D01*
X-1645950D01*
G02X-1642310Y4527530I58449J79992D01*
G01X-1670070D01*
Y4562690D01*
G02X-1723860Y4619000I2580J56311D01*
G01Y4779000D01*
G02X-1667500Y4835360I56365J-5D01*
G01X-1507500D01*
G02X-1451160Y4780680I-3J-56368D01*
G01X-1414980Y4743510D01*
G01X-1823650Y4927600D02*
X1613650D01*
G01X-1823650Y4902200D02*
X1613650D01*
G01X-1823650Y4876800D02*
X1613650D01*
G01X454660Y4851400D02*
X1613650D01*
G01X-1823650D02*
X357240D01*
G01X1508110Y4826000D02*
X1613650D01*
G01X484970D02*
X1285890D01*
G01X-1476390D02*
X326930D01*
G01X-1823650D02*
X-1698610D01*
G01X1529060Y4800600D02*
X1613650D01*
G01X499890D02*
X1264940D01*
G01X-1455440D02*
X-994110D01*
G01X-1823650D02*
X-1719560D01*
G01X1538680Y4775200D02*
X1613650D01*
G01X506530D02*
X1260640D01*
G01X-1445820D02*
X-1019510D01*
G01X-1823650D02*
X-1723860D01*
G01X1563400Y4749800D02*
X1613650D01*
G01X506530D02*
X1260640D01*
G01X-1421100D02*
X-1044910D01*
G01X-1823650D02*
X-1723860D01*
G01X1579490Y4724400D02*
X1613650D01*
G01X499890D02*
X1260640D01*
G01X-1405010D02*
X-1070310D01*
G01X-1823650D02*
X-1723860D01*
G01X1583840Y4699000D02*
X1613650D01*
G01X484970D02*
X1260640D01*
G01X-330980D02*
X326930D01*
G01X-1400660D02*
X-1071870D01*
G01X-1823650D02*
X-1723860D01*
G01X1583370Y4673600D02*
X1613650D01*
G01X454660D02*
X1260640D01*
G01X-316060D02*
X357240D01*
G01X-1401120D02*
X-1071870D01*
G01X-1823650D02*
X-1723860D01*
G01X1583370Y4648200D02*
X1613650D01*
G01X-309420D02*
X1260640D01*
G01X-1401120D02*
X-1071870D01*
G01X-1823650D02*
X-1723860D01*
G01X1583370Y4622800D02*
X1613650D01*
G01X-309420D02*
X1260640D01*
G01X-1401120D02*
X-1071870D01*
G01X-1823650D02*
X-1723860D01*
G01X1583370Y4597400D02*
X1613650D01*
G01X-316060D02*
X1264940D01*
G01X-1401120D02*
X-1071870D01*
G01X-1823650D02*
X-1719560D01*
G01X1583370Y4572000D02*
X1613650D01*
G01X-330980D02*
X1285880D01*
G01X-1401120D02*
X-1071870D01*
G01X-1823650D02*
X-1698620D01*
G01X1583370Y4546600D02*
X1613650D01*
G01X-353630D02*
X1314430D01*
G01X-1401120D02*
X-1071870D01*
G01X-1823650D02*
X-1670070D01*
G01X1583370Y4521200D02*
X1613650D01*
G01X-353630D02*
X1333680D01*
G01X-1401120D02*
X-1071870D01*
G01X-1823650D02*
X-1650820D01*
G01X1583370Y4495800D02*
X1613650D01*
G01X-353630D02*
X1311940D01*
G01X-1401120D02*
X-1071870D01*
G01X-1823650D02*
X-1672560D01*
G01X1583370Y4470400D02*
X1613650D01*
G01X-353630D02*
X1301230D01*
G01X-1379950D02*
X-1071870D01*
G01X-1823650D02*
X-1683270D01*
G01X1583370Y4445000D02*
X1613650D01*
G01X-353630D02*
X1297920D01*
G01X-1354550D02*
X-1097230D01*
G01X-1823650D02*
X-1686580D01*
G01X1583370Y4419600D02*
X1613650D01*
G01X-353630D02*
X1301240D01*
G01X-1823650D02*
X-1683260D01*
G01X1583370Y4394200D02*
X1613650D01*
G01X-353630D02*
X1311940D01*
G01X-1823650D02*
X-1672560D01*
G01X1583370Y4368800D02*
X1613650D01*
G01X-353630D02*
X1333680D01*
G01X-1823650D02*
X-1650820D01*
G01X1583370Y4343400D02*
X1613650D01*
G01X454660D02*
X1314430D01*
G01X-353630D02*
X357240D01*
G01X-1823650D02*
X-1670070D01*
G01X1583370Y4318000D02*
X1613650D01*
G01X484970D02*
X1314430D01*
G01X-353630D02*
X326930D01*
G01X-1823650D02*
X-1670070D01*
G01X1583370Y4292600D02*
X1613650D01*
G01X499890D02*
X1306030D01*
G01X-353630D02*
X-47110D01*
G01X-1823650D02*
X-1678470D01*
G01X1583370Y4267200D02*
X1613650D01*
G01X506530D02*
X1283900D01*
G01X-353630D02*
X-72510D01*
G01X-1823650D02*
X-1700600D01*
G01X1583370Y4241800D02*
X1613650D01*
G01X506530D02*
X1270440D01*
G01X-353630D02*
X-97910D01*
G01X-1823650D02*
X-1714060D01*
G01X1583370Y4216400D02*
X1613650D01*
G01X937710D02*
X1263010D01*
G01X499890D02*
X840290D01*
G01X-353630D02*
X-116370D01*
G01X-1823650D02*
X-1721490D01*
G01X1583370Y4191000D02*
X1613650D01*
G01X968020D02*
X1260630D01*
G01X484970D02*
X809980D01*
G01X-353630D02*
X-116370D01*
G01X-1823650D02*
X-1723870D01*
G01X1583370Y4165600D02*
X1613650D01*
G01X982940D02*
X1263010D01*
G01X454660D02*
X795060D01*
G01X-353630D02*
X-116370D01*
G01X-1823650D02*
X-1721490D01*
G01X1583370Y4140200D02*
X1613650D01*
G01X989580D02*
X1270440D01*
G01X383270D02*
X788420D01*
G01X-353630D02*
X-116370D01*
G01X-1823650D02*
X-1714060D01*
G01X1583370Y4114800D02*
X1613650D01*
G01X989580D02*
X1283900D01*
G01X408670D02*
X788420D01*
G01X-353630D02*
X-116370D01*
G01X-1823650D02*
X-1700600D01*
G01X1583370Y4089400D02*
X1613650D01*
G01X982940D02*
X1306030D01*
G01X491960D02*
X795060D01*
G01X-353630D02*
X-116370D01*
G01X-1823650D02*
X-1678470D01*
G01X1583370Y4064000D02*
X1613650D01*
G01X968020D02*
X1314430D01*
G01X522270D02*
X809980D01*
G01X-353630D02*
X-116370D01*
G01X-1823650D02*
X-1670070D01*
G01X1583370Y4038600D02*
X1613650D01*
G01X945370D02*
X1306030D01*
G01X537190D02*
X832630D01*
G01X-353630D02*
X-116370D01*
G01X-1823650D02*
X-1678470D01*
G01X1583370Y4013200D02*
X1613650D01*
G01X945370D02*
X1283900D01*
G01X543820D02*
X832630D01*
G01X-353630D02*
X-116370D01*
G01X-1823650D02*
X-1700600D01*
G01X1583370Y3987800D02*
X1613650D01*
G01X945370D02*
X1270440D01*
G01X543820D02*
X832630D01*
G01X-353630D02*
X-116370D01*
G01X-1823650D02*
X-1714060D01*
G01X1583370Y3962400D02*
X1613650D01*
G01X945370D02*
X1263010D01*
G01X537190D02*
X832630D01*
G01X-352440D02*
X-116370D01*
G01X-1823650D02*
X-1721490D01*
G01X1583370Y3937000D02*
X1613650D01*
G01X945370D02*
X1260630D01*
G01X622660D02*
X832630D01*
G01X-348630D02*
X-116370D01*
G01X-1823650D02*
X-1723870D01*
G01X1583370Y3911600D02*
X1613650D01*
G01X945370D02*
X1263010D01*
G01X651890D02*
X832630D01*
G01X-348630D02*
X-116370D01*
G01X-1823650D02*
X-1721490D01*
G01X1583370Y3886200D02*
X1613650D01*
G01X945370D02*
X1270440D01*
G01X666380D02*
X832630D01*
G01X-350710D02*
X-116370D01*
G01X-1823650D02*
X-1714060D01*
G01X1583370Y3860800D02*
X1613650D01*
G01X945370D02*
X1283900D01*
G01X672710D02*
X832630D01*
G01X-353630D02*
X-116370D01*
G01X-971480D02*
X-513370D01*
G01X-1823650D02*
X-1700600D01*
G01X1583370Y3835400D02*
X1613650D01*
G01X945370D02*
X1306030D01*
G01X672430D02*
X832630D01*
G01X-353630D02*
X-116370D01*
G01X-903790D02*
X-487970D01*
G01X-1823650D02*
X-1678470D01*
G01X1583370Y3810000D02*
X1613650D01*
G01X945370D02*
X1314430D01*
G01X690920D02*
X832630D01*
G01X-353630D02*
X-116370D01*
G01X-873480D02*
X-466370D01*
G01X-1823650D02*
X-1670070D01*
G01X1583370Y3784600D02*
X1613650D01*
G01X945370D02*
X1306030D01*
G01X716320D02*
X832630D01*
G01X-353630D02*
X-116370D01*
G01X-858560D02*
X-466370D01*
G01X-1823650D02*
X-1678470D01*
G01X1583370Y3759200D02*
X1613650D01*
G01X956020D02*
X1283900D01*
G01X741720D02*
X832630D01*
G01X-353630D02*
X-116370D01*
G01X-851930D02*
X-466370D01*
G01X-1823650D02*
X-1700600D01*
G01X1583370Y3733800D02*
X1613650D01*
G01X746370D02*
X832630D01*
G01X-353630D02*
X-116370D01*
G01X-851930D02*
X-466370D01*
G01X-1823650D02*
X-1714060D01*
G01X1583370Y3708400D02*
X1613650D01*
G01X746370D02*
X847380D01*
G01X-353630D02*
X-116370D01*
G01X-834680D02*
X-466370D01*
G01X-1823650D02*
X-1721490D01*
G01X1583370Y3683000D02*
X1613650D01*
G01X746370D02*
X872780D01*
G01X-353630D02*
X-116370D01*
G01X-809280D02*
X-466370D01*
G01X-1823650D02*
X-1723880D01*
G01X1583370Y3657600D02*
X1613650D01*
G01X746370D02*
X898180D01*
G01X-353630D02*
X-116370D01*
G01X-783880D02*
X-466370D01*
G01X-1823650D02*
X-1721490D01*
G01X1583370Y3632200D02*
X1613650D01*
G01X746370D02*
X923580D01*
G01X-353630D02*
X-116370D01*
G01X-758480D02*
X-466370D01*
G01X-1823650D02*
X-1714060D01*
G01X1583370Y3606800D02*
X1613650D01*
G01X746370D02*
X1283910D01*
G01X-353630D02*
X-116370D01*
G01X-733080D02*
X-466370D01*
G01X-1823650D02*
X-1700610D01*
G01X1583370Y3581400D02*
X1613650D01*
G01X746370D02*
X1306040D01*
G01X-353630D02*
X-116370D01*
G01X-707680D02*
X-466370D01*
G01X-1823650D02*
X-1678480D01*
G01X1583370Y3556000D02*
X1613650D01*
G01X1446670D02*
X1470630D01*
G01X746370D02*
X1347330D01*
G01X-353630D02*
X-116370D01*
G01X-682280D02*
X-466370D01*
G01X-1537810D02*
X-1513860D01*
G01X-1823650D02*
X-1637200D01*
G01X1583370Y3530600D02*
X1613650D01*
G01X746370D02*
X1470630D01*
G01X-353630D02*
X-116370D01*
G01X-663630D02*
X-466370D01*
G01X-1823650D02*
X-1513860D01*
G01X1583370Y3505200D02*
X1613650D01*
G01X746370D02*
X1470630D01*
G01X-353630D02*
X-116370D01*
G01X-663630D02*
X-466370D01*
G01X-1823650D02*
X-1513860D01*
G01X1583370Y3479800D02*
X1613650D01*
G01X746370D02*
X1470630D01*
G01X-353630D02*
X-116370D01*
G01X-663630D02*
X-466370D01*
G01X-1823650D02*
X-1513860D01*
G01X1583370Y3454400D02*
X1613650D01*
G01X746370D02*
X1470630D01*
G01X-353630D02*
X-116370D01*
G01X-663630D02*
X-466370D01*
G01X-1823650D02*
X-1513860D01*
G01X1583370Y3429000D02*
X1613650D01*
G01X746370D02*
X1470630D01*
G01X-353630D02*
X-116370D01*
G01X-663630D02*
X-466370D01*
G01X-1823650D02*
X-1513860D01*
G01X1583370Y3403600D02*
X1613650D01*
G01X746370D02*
X1470630D01*
G01X-353630D02*
X-116370D01*
G01X-663630D02*
X-466370D01*
G01X-1823650D02*
X-1513860D01*
G01X1583370Y3378200D02*
X1613650D01*
G01X746370D02*
X1470630D01*
G01X-342840D02*
X-116370D01*
G01X-663630D02*
X-477160D01*
G01X-1823650D02*
X-1513860D01*
G01X1583370Y3352800D02*
X1613650D01*
G01X746370D02*
X1470630D01*
G01X-322270D02*
X-116370D01*
G01X-663630D02*
X-497730D01*
G01X-1823650D02*
X-1513860D01*
G01X1583370Y3327400D02*
X1613650D01*
G01X746370D02*
X1470630D01*
G01X-311860D02*
X-116370D01*
G01X-663630D02*
X-508140D01*
G01X-1823650D02*
X-1513860D01*
G01X1583370Y3302000D02*
X1613650D01*
G01X746370D02*
X1470630D01*
G01X-308620D02*
X-116370D01*
G01X-663630D02*
X-511380D01*
G01X-1823650D02*
X-1513860D01*
G01X1583370Y3276600D02*
X1613650D01*
G01X746370D02*
X1470630D01*
G01X-311860D02*
X-116370D01*
G01X-663630D02*
X-508140D01*
G01X-1823650D02*
X-1513860D01*
G01X1583370Y3251200D02*
X1613650D01*
G01X746370D02*
X1456980D01*
G01X-322270D02*
X-116370D01*
G01X-663630D02*
X-497730D01*
G01X-1823650D02*
X-1527520D01*
G01X1583370Y3225800D02*
X1613650D01*
G01X746370D02*
X1272270D01*
G01X-343140D02*
X-116370D01*
G01X-663630D02*
X-476860D01*
G01X-1823650D02*
X-1712220D01*
G01X1565620Y3200400D02*
X1613650D01*
G01X746370D02*
X1261340D01*
G01X-663630D02*
X-116370D01*
G01X-1823650D02*
X-1723160D01*
G01X1540220Y3175000D02*
X1613650D01*
G01X746370D02*
X1242960D01*
G01X-663630D02*
X-104730D01*
G01X-1823650D02*
X-1723860D01*
G01X1533360Y3149600D02*
X1613650D01*
G01X746370D02*
X1220340D01*
G01X-663630D02*
X-79330D01*
G01X-1823650D02*
X-1723860D01*
G01X1533360Y3124200D02*
X1613650D01*
G01X763970D02*
X1211220D01*
G01X-663630D02*
X-130360D01*
G01X-1823650D02*
X-1723860D01*
G01X1533360Y3098800D02*
X1613650D01*
G01X789370D02*
X1194110D01*
G01X-663630D02*
X-151230D01*
G01X-1823650D02*
X-1723860D01*
G01X1533360Y3073400D02*
X1613650D01*
G01X814770D02*
X1168710D01*
G01X-663630D02*
X-161640D01*
G01X-1823650D02*
X-1723860D01*
G01X1533360Y3048000D02*
X1613650D01*
G01X840170D02*
X1165630D01*
G01X-663630D02*
X-164880D01*
G01X-1823650D02*
X-1723860D01*
G01X1532660Y3022600D02*
X1613650D01*
G01X865570D02*
X1165630D01*
G01X34640D02*
X47670D01*
G01X-663630D02*
X-161640D01*
G01X-1823650D02*
X-1723160D01*
G01X1521730Y2997200D02*
X1613650D01*
G01X890970D02*
X1165630D01*
G01X24230D02*
X73070D01*
G01X-443140D02*
X-151230D01*
G01X-663630D02*
X-576860D01*
G01X-1823650D02*
X-1712230D01*
G01X1479570Y2971800D02*
X1613650D01*
G01X916370D02*
X1165630D01*
G01X3660D02*
X250030D01*
G01X-422270D02*
X-130660D01*
G01X-663630D02*
X-597730D01*
G01X-1823650D02*
X-1670070D01*
G01X1479570Y2946400D02*
X1613650D01*
G01X941770D02*
X1165630D01*
G01X-7130D02*
X224630D01*
G01X-411860D02*
X-119870D01*
G01X-663630D02*
X-608140D01*
G01X-1823650D02*
X-1670070D01*
G01X1473050Y2921000D02*
X1613650D01*
G01X967170D02*
X1165630D01*
G01X-7130D02*
X199230D01*
G01X-408630D02*
X-119870D01*
G01X-663630D02*
X-611370D01*
G01X-1823650D02*
X-1663550D01*
G01X1488460Y2895600D02*
X1613650D01*
G01X992570D02*
X1165630D01*
G01X-7130D02*
X197630D01*
G01X-411860D02*
X-119870D01*
G01X-663630D02*
X-608140D01*
G01X-1823650D02*
X-1678960D01*
G01X1495260Y2870200D02*
X1613650D01*
G01X1017970D02*
X1165630D01*
G01X-7130D02*
X197630D01*
G01X-422270D02*
X-119870D01*
G01X-663630D02*
X-597730D01*
G01X-1823650D02*
X-1685760D01*
G01X1495260Y2844800D02*
X1613650D01*
G01X1043370D02*
X1165630D01*
G01X-7130D02*
X197630D01*
G01X-443140D02*
X-119870D01*
G01X-663630D02*
X-576860D01*
G01X-1823650D02*
X-1685760D01*
G01X1488460Y2819400D02*
X1613650D01*
G01X1068770D02*
X1165630D01*
G01X-7130D02*
X197630D01*
G01X-453630D02*
X-119870D01*
G01X-663630D02*
X-566370D01*
G01X-1823650D02*
X-1678960D01*
G01X1473050Y2794000D02*
X1613650D01*
G01X-7130D02*
X197630D01*
G01X-453630D02*
X-119870D01*
G01X-663630D02*
X-566370D01*
G01X-1823650D02*
X-1663550D01*
G01X1479570Y2768600D02*
X1613650D01*
G01X-7130D02*
X197630D01*
G01X-453630D02*
X-119870D01*
G01X-663630D02*
X-566370D01*
G01X-1823650D02*
X-1670070D01*
G01X1479570Y2743200D02*
X1613650D01*
G01X-7130D02*
X197630D01*
G01X-453630D02*
X-119870D01*
G01X-663630D02*
X-566370D01*
G01X-1823650D02*
X-1670070D01*
G01X1479570Y2717800D02*
X1613650D01*
G01X-7130D02*
X197630D01*
G01X-453630D02*
X-119870D01*
G01X-663630D02*
X-566370D01*
G01X-1823650D02*
X-1670070D01*
G01X1500410Y2692400D02*
X1613650D01*
G01X-7130D02*
X197630D01*
G01X-453630D02*
X-119870D01*
G01X-643460D02*
X-566370D01*
G01X-1823650D02*
X-1690910D01*
G01X1517690Y2667000D02*
X1613650D01*
G01X-7130D02*
X197630D01*
G01X-453630D02*
X-119870D01*
G01X-618060D02*
X-566370D01*
G01X-1823650D02*
X-1708190D01*
G01X1527940Y2641600D02*
X1613650D01*
G01X-7130D02*
X197630D01*
G01X-453630D02*
X-119870D01*
G01X-603630D02*
X-566370D01*
G01X-1823650D02*
X-1718440D01*
G01X1532780Y2616200D02*
X1613650D01*
G01X-7130D02*
X197630D01*
G01X-453630D02*
X-119870D01*
G01X-603630D02*
X-566370D01*
G01X-1823650D02*
X-1723280D01*
G01X1532780Y2590800D02*
X1613650D01*
G01X-7130D02*
X197630D01*
G01X-453630D02*
X-119870D01*
G01X-603630D02*
X-566370D01*
G01X-1823650D02*
X-1723280D01*
G01X1527940Y2565400D02*
X1613650D01*
G01X-7130D02*
X197630D01*
G01X-453630D02*
X-119870D01*
G01X-603630D02*
X-566370D01*
G01X-1823650D02*
X-1718440D01*
G01X1517690Y2540000D02*
X1613650D01*
G01X-7130D02*
X197630D01*
G01X-453630D02*
X-119870D01*
G01X-603630D02*
X-566370D01*
G01X-1823650D02*
X-1708190D01*
G01X1500410Y2514600D02*
X1613650D01*
G01X-7130D02*
X197630D01*
G01X-453630D02*
X-119870D01*
G01X-603630D02*
X-566370D01*
G01X-1823650D02*
X-1690910D01*
G01X1479570Y2489200D02*
X1613650D01*
G01X-7130D02*
X197630D01*
G01X-453630D02*
X-119870D01*
G01X-603630D02*
X-566370D01*
G01X-1823650D02*
X-1670070D01*
G01X1479570Y2463800D02*
X1613650D01*
G01X-7130D02*
X197630D01*
G01X-453630D02*
X-119870D01*
G01X-603630D02*
X-566370D01*
G01X-1823650D02*
X-1670070D01*
G01X1500940Y2438400D02*
X1613650D01*
G01X-7130D02*
X197630D01*
G01X-453630D02*
X-119870D01*
G01X-603630D02*
X-566370D01*
G01X-1823650D02*
X-1690910D01*
G01X1526350Y2413000D02*
X1613650D01*
G01X-7130D02*
X197630D01*
G01X-453630D02*
X-119870D01*
G01X-603630D02*
X-566370D01*
G01X-1823650D02*
X-1708190D01*
G01X1549090Y2387600D02*
X1613650D01*
G01X-7130D02*
X197630D01*
G01X-453630D02*
X-119870D01*
G01X-603630D02*
X-566370D01*
G01X-1823650D02*
X-1718440D01*
G01X1574490Y2362200D02*
X1613650D01*
G01X66860D02*
X197630D01*
G01X-453630D02*
X-119870D01*
G01X-603630D02*
X-566370D01*
G01X-1823650D02*
X-1723280D01*
G01X1583370Y2336800D02*
X1613650D01*
G01X87730D02*
X197630D01*
G01X-453630D02*
X-119870D01*
G01X-603630D02*
X-566370D01*
G01X-1823650D02*
X-1723280D01*
G01X1583370Y2311400D02*
X1613650D01*
G01X98140D02*
X197630D01*
G01X-453630D02*
X-105120D01*
G01X-603630D02*
X-566370D01*
G01X-1823650D02*
X-1718440D01*
G01X1583370Y2286000D02*
X1613650D01*
G01X101370D02*
X197630D01*
G01X-453630D02*
X-101370D01*
G01X-603630D02*
X-566370D01*
G01X-1823650D02*
X-1708190D01*
G01X1583370Y2260600D02*
X1613650D01*
G01X98140D02*
X197630D01*
G01X-453630D02*
X-98140D01*
G01X-603630D02*
X-566370D01*
G01X-1823650D02*
X-1690910D01*
G01X1583370Y2235200D02*
X1613650D01*
G01X87730D02*
X197630D01*
G01X-453630D02*
X-87730D01*
G01X-603630D02*
X-566370D01*
G01X-1823650D02*
X-1670070D01*
G01X1583370Y2209800D02*
X1613650D01*
G01X66860D02*
X197630D01*
G01X-453630D02*
X-66860D01*
G01X-620480D02*
X-566370D01*
G01X-1823650D02*
X-1670070D01*
G01X1583370Y2184400D02*
X1613650D01*
G01X-453630D02*
X197630D01*
G01X-645880D02*
X-566370D01*
G01X-1823650D02*
X-1690910D01*
G01X1583370Y2159000D02*
X1613650D01*
G01X-453630D02*
X197630D01*
G01X-671280D02*
X-566370D01*
G01X-1823650D02*
X-1708190D01*
G01X1583370Y2133600D02*
X1613650D01*
G01X-453630D02*
X197630D01*
G01X-696680D02*
X-566370D01*
G01X-1823650D02*
X-1718440D01*
G01X1583370Y2108200D02*
X1613650D01*
G01X-453630D02*
X197630D01*
G01X-722080D02*
X-566370D01*
G01X-1823650D02*
X-1723280D01*
G01X1583370Y2082800D02*
X1613650D01*
G01X-453630D02*
X197630D01*
G01X-747480D02*
X-566370D01*
G01X-1823650D02*
X-1723280D01*
G01X1583370Y2057400D02*
X1613650D01*
G01X-453630D02*
X197630D01*
G01X-772880D02*
X-572320D01*
G01X-1823650D02*
X-1718440D01*
G01X1583370Y2032000D02*
X1613650D01*
G01X-453630D02*
X197630D01*
G01X-1466820D02*
X-597720D01*
G01X-1823650D02*
X-1708190D01*
G01X1583370Y2006600D02*
X1613650D01*
G01X-463680D02*
X197630D01*
G01X-1484090D02*
X-623120D01*
G01X-1823650D02*
X-1690910D01*
G01X1583370Y1981200D02*
X1613650D01*
G01X-489080D02*
X197630D01*
G01X-1504930D02*
X-648520D01*
G01X-1823650D02*
X-1670070D01*
G01X1583370Y1955800D02*
X1613650D01*
G01X-514480D02*
X197630D01*
G01X-1504930D02*
X-673920D01*
G01X-1823650D02*
X-1670070D01*
G01X1583370Y1930400D02*
X1613650D01*
G01X-539880D02*
X197630D01*
G01X-1484090D02*
X-699320D01*
G01X-1823650D02*
X-1690910D01*
G01X1583370Y1905000D02*
X1613650D01*
G01X-565280D02*
X197630D01*
G01X-1466820D02*
X-724720D01*
G01X-1823650D02*
X-1708190D01*
G01X1583370Y1879600D02*
X1613650D01*
G01X-590680D02*
X197630D01*
G01X-1823650D02*
X-1718450D01*
G01X1583370Y1854200D02*
X1613650D01*
G01X-616080D02*
X197630D01*
G01X-1823650D02*
X-1723280D01*
G01X1583370Y1828800D02*
X1613650D01*
G01X-641480D02*
X197630D01*
G01X-1823650D02*
X-1723280D01*
G01X1583370Y1803400D02*
X1613650D01*
G01X-666880D02*
X212380D01*
G01X-1823650D02*
X-1718450D01*
G01X1583370Y1778000D02*
X1613650D01*
G01X-1466820D02*
X237780D01*
G01X-1823650D02*
X-1708190D01*
G01X1577820Y1752600D02*
X1613650D01*
G01X-1484090D02*
X263180D01*
G01X-1823650D02*
X-1690920D01*
G01X1552420Y1727200D02*
X1613650D01*
G01X-1513120D02*
X288580D01*
G01X-1823650D02*
X-1661890D01*
G01X1527020Y1701800D02*
X1613650D01*
G01X-1823650D02*
X313980D01*
G01X-1803400Y1686350D02*
Y4943650D01*
G01X-1778000Y1686350D02*
Y4943650D01*
G01X-1752600Y1686350D02*
Y4943650D01*
G01X-1727200Y1686350D02*
Y4943650D01*
G01X-1701800Y4823720D02*
Y4943650D01*
G01Y4265380D02*
Y4574270D01*
G01Y4011380D02*
Y4116620D01*
G01Y3757390D02*
Y3862620D01*
G01Y3236220D02*
Y3608610D01*
G01Y2677880D02*
Y2986770D01*
G01Y2423880D02*
Y2529120D01*
G01Y2169880D02*
Y2275120D01*
G01Y1915880D02*
Y2021120D01*
G01Y1686350D02*
Y1767110D01*
G01X-1676400Y4834660D02*
Y4943650D01*
G01Y4488730D02*
Y4563330D01*
G01Y4294410D02*
Y4401270D01*
G01Y4040410D02*
Y4087590D01*
G01Y3786410D02*
Y3833590D01*
G01Y3247160D02*
Y3579580D01*
G01Y2901230D02*
Y2975830D01*
G01Y2706910D02*
Y2813770D01*
G01Y2452910D02*
Y2500090D01*
G01Y2198910D02*
Y2246090D01*
G01Y1944910D02*
Y1992090D01*
G01Y1686350D02*
Y1738080D01*
G01X-1651000Y4835360D02*
Y4943650D01*
G01Y4521050D02*
Y4527530D01*
G01Y4365010D02*
Y4368950D01*
G01Y3247860D02*
Y3562310D01*
G01Y2933550D02*
Y2940030D01*
G01Y2777510D02*
Y2781450D01*
G01Y1686350D02*
Y1720810D01*
G01X-1625600Y4835360D02*
Y4943650D01*
G01Y3247860D02*
Y3552050D01*
G01Y1686350D02*
Y1710550D01*
G01X-1600200Y4835360D02*
Y4943650D01*
G01Y3247860D02*
Y3547210D01*
G01Y1686350D02*
Y1705720D01*
G01X-1574800Y4835360D02*
Y4943650D01*
G01Y3247860D02*
Y3547210D01*
G01Y1686350D02*
Y1705720D01*
G01X-1549400Y4835360D02*
Y4943650D01*
G01Y3247860D02*
Y3552050D01*
G01Y1686350D02*
Y1710560D01*
G01X-1524000Y4835360D02*
Y4943650D01*
G01Y3254720D02*
Y3562310D01*
G01Y1686350D02*
Y1720810D01*
G01X-1498600Y4834660D02*
Y4943650D01*
G01Y1944910D02*
Y1992090D01*
G01Y1686350D02*
Y1738090D01*
G01X-1473200Y4823730D02*
Y4943650D01*
G01Y1915880D02*
Y2021120D01*
G01Y1686350D02*
Y1767120D01*
G01X-1447800Y4777230D02*
Y4943650D01*
G01Y1897870D02*
Y2039130D01*
G01Y1686350D02*
Y1785130D01*
G01X-1422400Y4751140D02*
Y4943650D01*
G01Y1897870D02*
Y2039130D01*
G01Y1686350D02*
Y1785130D01*
G01X-1397000Y4487450D02*
Y4943650D01*
G01Y1897870D02*
Y2039130D01*
G01Y1686350D02*
Y1785130D01*
G01X-1371600Y4462050D02*
Y4943650D01*
G01Y1897870D02*
Y2039130D01*
G01Y1686350D02*
Y1785130D01*
G01X-1346200Y4439740D02*
Y4943650D01*
G01Y1897870D02*
Y2039130D01*
G01Y1686350D02*
Y1785130D01*
G01X-1320800Y4439740D02*
Y4943650D01*
G01Y1897870D02*
Y2039130D01*
G01Y1686350D02*
Y1785130D01*
G01X-1295400Y4439740D02*
Y4943650D01*
G01Y1897870D02*
Y2039130D01*
G01Y1686350D02*
Y1785130D01*
G01X-1270000Y4439740D02*
Y4943650D01*
G01Y1897870D02*
Y2039130D01*
G01Y1686350D02*
Y1785130D01*
G01X-1244600Y4439740D02*
Y4943650D01*
G01Y1897870D02*
Y2039130D01*
G01Y1686350D02*
Y1785130D01*
G01X-1219200Y4439740D02*
Y4943650D01*
G01Y1897870D02*
Y2039130D01*
G01Y1686350D02*
Y1785130D01*
G01X-1193800Y4439740D02*
Y4943650D01*
G01Y1897870D02*
Y2039130D01*
G01Y1686350D02*
Y1785130D01*
G01X-1168400Y4439740D02*
Y4943650D01*
G01Y1897870D02*
Y2039130D01*
G01Y1686350D02*
Y1785130D01*
G01X-1143000Y4439740D02*
Y4943650D01*
G01Y1897870D02*
Y2039130D01*
G01Y1686350D02*
Y1785130D01*
G01X-1117600Y4439740D02*
Y4943650D01*
G01Y1897870D02*
Y2039130D01*
G01Y1686350D02*
Y1785130D01*
G01X-1092200Y4450030D02*
Y4943650D01*
G01Y1897870D02*
Y2039130D01*
G01Y1686350D02*
Y1785130D01*
G01X-1066800Y4727910D02*
Y4943650D01*
G01Y1897870D02*
Y2039130D01*
G01Y1686350D02*
Y1785130D01*
G01X-1041400Y4753310D02*
Y4943650D01*
G01Y1897870D02*
Y2039130D01*
G01Y1686350D02*
Y1785130D01*
G01X-1016000Y4778710D02*
Y4943650D01*
G01Y1897870D02*
Y2039130D01*
G01Y1686350D02*
Y1785130D01*
G01X-990600Y4804110D02*
Y4943650D01*
G01Y3840440D02*
Y3841680D01*
G01Y1897870D02*
Y2039130D01*
G01Y1686350D02*
Y1785130D01*
G01X-965200Y4818870D02*
Y4943650D01*
G01Y3847070D02*
Y3865630D01*
G01Y1897870D02*
Y2039130D01*
G01Y1686350D02*
Y1785130D01*
G01X-939800Y4818870D02*
Y4943650D01*
G01Y3847070D02*
Y3865630D01*
G01Y1897870D02*
Y2039130D01*
G01Y1686350D02*
Y1785130D01*
G01X-914400Y4818870D02*
Y4943650D01*
G01Y3840440D02*
Y3865630D01*
G01Y1897870D02*
Y2039130D01*
G01Y1686350D02*
Y1785130D01*
G01X-889000Y4818870D02*
Y4943650D01*
G01Y3825520D02*
Y3865630D01*
G01Y1897870D02*
Y2039130D01*
G01Y1686350D02*
Y1785130D01*
G01X-863600Y4818870D02*
Y4943650D01*
G01Y3795210D02*
Y3865630D01*
G01Y1897870D02*
Y2039130D01*
G01Y1686350D02*
Y1785130D01*
G01X-838200Y4818870D02*
Y4943650D01*
G01Y3711920D02*
Y3865630D01*
G01Y1897870D02*
Y2039130D01*
G01Y1686350D02*
Y1785130D01*
G01X-812800Y4818870D02*
Y4943650D01*
G01Y3686520D02*
Y3865630D01*
G01Y1897870D02*
Y2039130D01*
G01Y1686350D02*
Y1785130D01*
G01X-787400Y4818870D02*
Y4943650D01*
G01Y3661120D02*
Y3865630D01*
G01Y1897870D02*
Y2042880D01*
G01Y1686350D02*
Y1785130D01*
G01X-762000Y4818870D02*
Y4943650D01*
G01Y3635720D02*
Y3865630D01*
G01Y1897870D02*
Y2068280D01*
G01Y1686350D02*
Y1785130D01*
G01X-736600Y4818870D02*
Y4943650D01*
G01Y3610320D02*
Y3865630D01*
G01Y1897870D02*
Y2093680D01*
G01Y1686350D02*
Y1785130D01*
G01X-711200Y4818870D02*
Y4943650D01*
G01Y3584920D02*
Y3865630D01*
G01Y1918520D02*
Y2119080D01*
G01Y1686350D02*
Y1785130D01*
G01X-685800Y4818870D02*
Y4943650D01*
G01Y3559520D02*
Y3865630D01*
G01Y1943920D02*
Y2144480D01*
G01Y1686350D02*
Y1785130D01*
G01X-660400Y4818870D02*
Y4943650D01*
G01Y2709340D02*
Y3865630D01*
G01Y1969320D02*
Y2169880D01*
G01Y1686350D02*
Y1809880D01*
G01X-635000Y4818870D02*
Y4943650D01*
G01Y2683940D02*
Y3865630D01*
G01Y1994720D02*
Y2195280D01*
G01Y1686350D02*
Y1835280D01*
G01X-609600Y4818870D02*
Y4943650D01*
G01Y2939860D02*
Y3865630D01*
G01Y2658540D02*
Y2902140D01*
G01Y2020120D02*
Y2220680D01*
G01Y1686350D02*
Y1860680D01*
G01X-584200Y4818870D02*
Y4943650D01*
G01Y2990070D02*
Y3865630D01*
G01Y2045520D02*
Y2851930D01*
G01Y1686350D02*
Y1886080D01*
G01X-558800Y4818870D02*
Y4943650D01*
G01Y3009850D02*
Y3865630D01*
G01Y1686350D02*
Y1911480D01*
G01X-533400Y4818870D02*
Y4943650D01*
G01Y3019640D02*
Y3865630D01*
G01Y1686350D02*
Y1936880D01*
G01X-508000Y4818870D02*
Y4943650D01*
G01Y3327930D02*
Y3855430D01*
G01Y3022350D02*
Y3276070D01*
G01Y1686350D02*
Y1962280D01*
G01X-482600Y4818870D02*
Y4943650D01*
G01Y3372750D02*
Y3830030D01*
G01Y3018600D02*
Y3231250D01*
G01Y1686350D02*
Y1987680D01*
G01X-457200Y4818870D02*
Y4943650D01*
G01Y3007540D02*
Y3212280D01*
G01Y1686350D02*
Y2013080D01*
G01X-431800Y4818870D02*
Y4943650D01*
G01Y2985510D02*
Y3203000D01*
G01Y1686350D02*
Y2856490D01*
G01X-406400Y4818870D02*
Y4943650D01*
G01Y1686350D02*
Y3200690D01*
G01X-381000Y4818870D02*
Y4943650D01*
G01Y1686350D02*
Y3204860D01*
G01X-355600Y4818870D02*
Y4943650D01*
G01Y1686350D02*
Y3216460D01*
G01X-330200Y4818870D02*
Y4943650D01*
G01Y4698010D02*
Y4706130D01*
G01Y3364520D02*
Y4572980D01*
G01Y1686350D02*
Y3239480D01*
G01X-304800Y4818870D02*
Y4943650D01*
G01Y1686350D02*
Y4706130D01*
G01X-279400Y4818870D02*
Y4943650D01*
G01Y1686350D02*
Y4706130D01*
G01X-254000Y4818870D02*
Y4943650D01*
G01Y1686350D02*
Y4706130D01*
G01X-228600Y4818870D02*
Y4943650D01*
G01Y1686350D02*
Y4706130D01*
G01X-203200Y4818870D02*
Y4943650D01*
G01Y1686350D02*
Y4706130D01*
G01X-177800Y4818870D02*
Y4943650D01*
G01Y1686350D02*
Y4706130D01*
G01X-152400Y4818870D02*
Y4943650D01*
G01Y3096720D02*
Y4706130D01*
G01Y1686350D02*
Y2999280D01*
G01X-127000Y4818870D02*
Y4943650D01*
G01Y3127020D02*
Y4706130D01*
G01Y1686350D02*
Y2968140D01*
G01X-101600Y4818870D02*
Y4943650D01*
G01Y4238110D02*
Y4706130D01*
G01Y3141940D02*
Y3171870D01*
G01Y1686350D02*
Y2307880D01*
G01X-76200Y4818870D02*
Y4943650D01*
G01Y4263510D02*
Y4706130D01*
G01Y1686350D02*
Y2219140D01*
G01X-50800Y4818870D02*
Y4943650D01*
G01Y4288910D02*
Y4706130D01*
G01Y1686350D02*
Y2198270D01*
G01X-25400Y4818870D02*
Y4943650D01*
G01Y4310870D02*
Y4706130D01*
G01Y1686350D02*
Y2187860D01*
G01X0Y4818870D02*
Y4943650D01*
G01Y4310870D02*
Y4706130D01*
G01Y2387370D02*
Y2968140D01*
G01Y1686350D02*
Y2184630D01*
G01X25400Y4818870D02*
Y4943650D01*
G01Y4310870D02*
Y4706130D01*
G01Y2384140D02*
Y2999280D01*
G01Y1686350D02*
Y2187860D01*
G01X50800Y4818870D02*
Y4943650D01*
G01Y4310870D02*
Y4706130D01*
G01Y2373730D02*
Y3019470D01*
G01Y1686350D02*
Y2198270D01*
G01X76200Y4818870D02*
Y4943650D01*
G01Y4310870D02*
Y4706130D01*
G01Y2352860D02*
Y2994070D01*
G01Y1686350D02*
Y2219140D01*
G01X101600Y4818870D02*
Y4943650D01*
G01Y4310870D02*
Y4706130D01*
G01Y1686350D02*
Y2991630D01*
G01X127000Y4818870D02*
Y4943650D01*
G01Y4310870D02*
Y4706130D01*
G01Y1686350D02*
Y2991630D01*
G01X152400Y4818870D02*
Y4943650D01*
G01Y4310870D02*
Y4706130D01*
G01Y1686350D02*
Y2991630D01*
G01X177800Y4818870D02*
Y4943650D01*
G01Y4310870D02*
Y4706130D01*
G01Y1686350D02*
Y2991630D01*
G01X203200Y4818870D02*
Y4943650D01*
G01Y4310870D02*
Y4706130D01*
G01Y2924970D02*
Y2991630D01*
G01Y1686350D02*
Y1812580D01*
G01X228600Y4818870D02*
Y4943650D01*
G01Y4310870D02*
Y4706130D01*
G01Y2950370D02*
Y2991630D01*
G01Y1686350D02*
Y1787180D01*
G01X254000Y4818870D02*
Y4943650D01*
G01Y4310870D02*
Y4706130D01*
G01Y2975770D02*
Y2991630D01*
G01Y1686350D02*
Y1761780D01*
G01X279400Y4818870D02*
Y4943650D01*
G01Y4310870D02*
Y4706130D01*
G01Y1686350D02*
Y1736380D01*
G01X304800Y4818870D02*
Y4943650D01*
G01Y4310870D02*
Y4706130D01*
G01Y1686350D02*
Y1710980D01*
G01X330200Y4829870D02*
Y4943650D01*
G01Y4321870D02*
Y4695130D01*
G01X355600Y4850490D02*
Y4943650D01*
G01Y4342490D02*
Y4674510D01*
G01X381000Y4860760D02*
Y4943650D01*
G01Y4352760D02*
Y4664240D01*
G01Y4142470D02*
Y4156240D01*
G01X406400Y4863870D02*
Y4943650D01*
G01Y4355870D02*
Y4661130D01*
G01Y4117070D02*
Y4153130D01*
G01X431800Y4860520D02*
Y4943650D01*
G01Y4352520D02*
Y4664480D01*
G01Y4101220D02*
Y4156480D01*
G01X457200Y4849960D02*
Y4943650D01*
G01Y4341970D02*
Y4675040D01*
G01Y4100910D02*
Y4167040D01*
G01X482600Y4828840D02*
Y4943650D01*
G01Y4320840D02*
Y4696160D01*
G01Y4093920D02*
Y4188160D01*
G01X508000Y4078500D02*
Y4943650D01*
G01X533400Y4046850D02*
Y4943650D01*
G01Y3942940D02*
Y3954140D01*
G01X558800Y3949710D02*
Y4943650D01*
G01X584200Y3949840D02*
Y4943650D01*
G01X609600Y3943340D02*
Y4943650D01*
G01X635000Y3928620D02*
Y4943650D01*
G01X660400Y3898810D02*
Y4943650D01*
G01X685800Y3815120D02*
Y4943650D01*
G01X711200Y3789720D02*
Y4943650D01*
G01X736600Y3764320D02*
Y4943650D01*
G01X762000Y3126170D02*
Y4943650D01*
G01X787400Y3100770D02*
Y4943650D01*
G01X812800Y4194360D02*
Y4943650D01*
G01Y3075370D02*
Y4060640D01*
G01X838200Y4215230D02*
Y4943650D01*
G01Y3049970D02*
Y3717580D01*
G01X863600Y4225640D02*
Y4943650D01*
G01Y3024570D02*
Y3692180D01*
G01X889000Y4228870D02*
Y4943650D01*
G01Y2999170D02*
Y3666780D01*
G01X914400Y4225640D02*
Y4943650D01*
G01Y2973770D02*
Y3641380D01*
G01X939800Y4215230D02*
Y4943650D01*
G01Y2948370D02*
Y3626630D01*
G01X965200Y4194360D02*
Y4943650D01*
G01Y3750020D02*
Y4060640D01*
G01Y2922970D02*
Y3626630D01*
G01X990600Y3739370D02*
Y4943650D01*
G01Y2897570D02*
Y3626630D01*
G01X1016000Y3739370D02*
Y4943650D01*
G01Y2872170D02*
Y3626630D01*
G01X1041400Y3739370D02*
Y4943650D01*
G01Y2846770D02*
Y3626630D01*
G01X1066800Y3739370D02*
Y4943650D01*
G01Y2821370D02*
Y3626630D01*
G01X1092200Y3739370D02*
Y4943650D01*
G01Y2818870D02*
Y3626630D01*
G01X1117600Y3739370D02*
Y4943650D01*
G01Y2818870D02*
Y3626630D01*
G01X1143000Y3739370D02*
Y4943650D01*
G01Y2818870D02*
Y3626630D01*
G01X1168400Y3739370D02*
Y4943650D01*
G01Y3073090D02*
Y3626630D01*
G01X1193800Y3739370D02*
Y4943650D01*
G01Y3098490D02*
Y3626630D01*
G01X1219200Y3739370D02*
Y4943650D01*
G01Y3147530D02*
Y3626630D01*
G01X1244600Y3739370D02*
Y4943650D01*
G01Y3176690D02*
Y3626630D01*
G01X1270000Y4810110D02*
Y4943650D01*
G01Y4240680D02*
Y4587890D01*
G01Y3986680D02*
Y4141320D01*
G01Y3739370D02*
Y3887320D01*
G01Y3222610D02*
Y3626630D01*
G01X1295400Y4831060D02*
Y4943650D01*
G01Y4281970D02*
Y4566930D01*
G01Y4027970D02*
Y4100030D01*
G01Y3773960D02*
Y3846030D01*
G01Y3243560D02*
Y3592040D01*
G01X1320800Y4835360D02*
Y4943650D01*
G01Y4508320D02*
Y4527530D01*
G01Y4365010D02*
Y4381680D01*
G01Y3247860D02*
Y3569910D01*
G01X1346200Y4835360D02*
Y4943650D01*
G01Y3247860D02*
Y3556440D01*
G01X1371600Y4835360D02*
Y4943650D01*
G01Y3247860D02*
Y3549020D01*
G01X1397000Y4835360D02*
Y4943650D01*
G01Y3247860D02*
Y3546630D01*
G01X1422400Y4835360D02*
Y4943650D01*
G01Y3247860D02*
Y3549020D01*
G01X1447800Y4835360D02*
Y4943650D01*
G01Y3247860D02*
Y3556440D01*
G01X1473200Y4835360D02*
Y4943650D01*
G01Y2920820D02*
Y2940030D01*
G01Y2777510D02*
Y2794180D01*
G01X1498600Y4831060D02*
Y4943650D01*
G01Y2694470D02*
Y2979430D01*
G01Y2440740D02*
Y2512530D01*
G01X1524000Y4810110D02*
Y4943650D01*
G01Y2653180D02*
Y3000390D01*
G01Y2415350D02*
Y2553820D01*
G01Y1686350D02*
Y1698780D01*
G01X1549400Y4764190D02*
Y4943650D01*
G01Y2387290D02*
Y3184180D01*
G01Y1686350D02*
Y1724180D01*
G01X1574800Y4735030D02*
Y4943650D01*
G01Y2361890D02*
Y3209580D01*
G01Y1686350D02*
Y1749580D01*
G01X1600200Y1686350D02*
Y4943650D01*
G01X-1451140Y3168150D02*
X-1401120Y3218160D01*
Y3607480D01*
G03X-1277130Y3767250I67623J75517D01*
G01Y4167650D01*
X-1246650Y4198130D01*
X-592250D01*
G03X-466370Y4162070I84253J56369D01*
G01Y4030200D01*
X-518200Y3978370D01*
X-1013350D01*
X-1183860Y3807860D01*
Y2945870D01*
X-1465430Y2664300D01*
G03X-1504930Y2712030I-122064J-60807D01*
G01Y2777510D01*
X-1529050D01*
G03X-1532690Y2940030I-58449J79992D01*
G01X-1504930D01*
Y2975190D01*
G03X-1451140Y3031500I-2580J56311D01*
G01Y3168150D01*
G01X-1253780Y4191000D02*
X-587020D01*
G01X-1277130Y4165600D02*
X-556720D01*
G01X-1277130Y4140200D02*
X-466370D01*
G01X-1277130Y4114800D02*
X-466370D01*
G01X-1277130Y4089400D02*
X-466370D01*
G01X-1277130Y4064000D02*
X-466370D01*
G01X-1277130Y4038600D02*
X-466370D01*
G01X-1277130Y4013200D02*
X-483370D01*
G01X-1277130Y3987800D02*
X-508770D01*
G01X-1277130Y3962400D02*
X-1029320D01*
G01X-1277130Y3937000D02*
X-1054720D01*
G01X-1277130Y3911600D02*
X-1080120D01*
G01X-1277130Y3886200D02*
X-1105520D01*
G01X-1277130Y3860800D02*
X-1130920D01*
G01X-1277130Y3835400D02*
X-1156320D01*
G01X-1277130Y3810000D02*
X-1181720D01*
G01X-1277130Y3784600D02*
X-1183860D01*
G01X-1266640Y3759200D02*
X-1183860D01*
G01X-1245770Y3733800D02*
X-1183860D01*
G01X-1235360Y3708400D02*
X-1183860D01*
G01X-1232120Y3683000D02*
X-1183860D01*
G01X-1235360Y3657600D02*
X-1183860D01*
G01X-1245770Y3632200D02*
X-1183860D01*
G01X-1266640Y3606800D02*
X-1183860D01*
G01X-1401120D02*
X-1400360D01*
G01X-1401120Y3581400D02*
X-1183860D01*
G01X-1401120Y3556000D02*
X-1183860D01*
G01X-1401120Y3530600D02*
X-1183860D01*
G01X-1401120Y3505200D02*
X-1183860D01*
G01X-1401120Y3479800D02*
X-1183860D01*
G01X-1401120Y3454400D02*
X-1183860D01*
G01X-1401120Y3429000D02*
X-1183860D01*
G01X-1401120Y3403600D02*
X-1183860D01*
G01X-1401120Y3378200D02*
X-1183860D01*
G01X-1401120Y3352800D02*
X-1183860D01*
G01X-1401120Y3327400D02*
X-1183860D01*
G01X-1401120Y3302000D02*
X-1183860D01*
G01X-1401120Y3276600D02*
X-1183860D01*
G01X-1401120Y3251200D02*
X-1183860D01*
G01X-1401120Y3225800D02*
X-1183860D01*
G01X-1418880Y3200400D02*
X-1183860D01*
G01X-1444280Y3175000D02*
X-1183860D01*
G01X-1451140Y3149600D02*
X-1183860D01*
G01X-1451140Y3124200D02*
X-1183860D01*
G01X-1451140Y3098800D02*
X-1183860D01*
G01X-1451140Y3073400D02*
X-1183860D01*
G01X-1451140Y3048000D02*
X-1183860D01*
G01X-1451840Y3022600D02*
X-1183860D01*
G01X-1462770Y2997200D02*
X-1183860D01*
G01X-1504930Y2971800D02*
X-1183860D01*
G01X-1504930Y2946400D02*
X-1183860D01*
G01X-1511450Y2921000D02*
X-1208730D01*
G01X-1496040Y2895600D02*
X-1234130D01*
G01X-1489240Y2870200D02*
X-1259530D01*
G01X-1489240Y2844800D02*
X-1284930D01*
G01X-1496040Y2819400D02*
X-1310330D01*
G01X-1511450Y2794000D02*
X-1335730D01*
G01X-1504930Y2768600D02*
X-1361130D01*
G01X-1504930Y2743200D02*
X-1386530D01*
G01X-1504930Y2717800D02*
X-1411930D01*
G01X-1484080Y2692400D02*
X-1437330D01*
G01X-1466810Y2667000D02*
X-1462730D01*
G01X-1524000Y2933550D02*
Y2940030D01*
G01Y2777510D02*
Y2781450D01*
G01X-1498600Y2901230D02*
Y2975830D01*
G01Y2706910D02*
Y2813770D01*
G01X-1473200Y2677890D02*
Y2986770D01*
G01X-1447800Y2681930D02*
Y3171480D01*
G01X-1422400Y2707330D02*
Y3196880D01*
G01X-1397000Y2732730D02*
Y3603980D01*
G01X-1371600Y2758130D02*
Y3589060D01*
G01X-1346200Y2783530D02*
Y3582420D01*
G01X-1320800Y2808930D02*
Y3582420D01*
G01X-1295400Y2834330D02*
Y3589050D01*
G01X-1270000Y3762020D02*
Y4174780D01*
G01Y2859730D02*
Y3603970D01*
G01X-1244600Y3731720D02*
Y4198130D01*
G01Y2885130D02*
Y3634280D01*
G01X-1219200Y2910530D02*
Y4198130D01*
G01X-1193800Y2935930D02*
Y4198130D01*
G01X-1168400Y3823320D02*
Y4198130D01*
G01X-1143000Y3848720D02*
Y4198130D01*
G01X-1117600Y3874120D02*
Y4198130D01*
G01X-1092200Y3899520D02*
Y4198130D01*
G01X-1066800Y3924920D02*
Y4198130D01*
G01X-1041400Y3950320D02*
Y4198130D01*
G01X-1016000Y3975720D02*
Y4198130D01*
G01X-990600Y3978370D02*
Y4198130D01*
G01X-965200Y3978370D02*
Y4198130D01*
G01X-939800Y3978370D02*
Y4198130D01*
G01X-914400Y3978370D02*
Y4198130D01*
G01X-889000Y3978370D02*
Y4198130D01*
G01X-863600Y3978370D02*
Y4198130D01*
G01X-838200Y3978370D02*
Y4198130D01*
G01X-812800Y3978370D02*
Y4198130D01*
G01X-787400Y3978370D02*
Y4198130D01*
G01X-762000Y3978370D02*
Y4198130D01*
G01X-736600Y3978370D02*
Y4198130D01*
G01X-711200Y3978370D02*
Y4198130D01*
G01X-685800Y3978370D02*
Y4198130D01*
G01X-660400Y3978370D02*
Y4198130D01*
G01X-635000Y3978370D02*
Y4198130D01*
G01X-609600Y3978370D02*
Y4198130D01*
G01X-584200Y3978370D02*
Y4187640D01*
G01X-558800Y3978370D02*
Y4166770D01*
G01X-533400Y3978370D02*
Y4156360D01*
G01X-508000Y3988570D02*
Y4153120D01*
G01X-482600Y4013970D02*
Y4156360D01*
G01X66650Y4166370D02*
X-3630Y4096090D01*
Y4176640D01*
X17860Y4198130D01*
X321700D01*
G03X355860Y4166370I84252J56368D01*
G01X66650D01*
G01X10730Y4191000D02*
X326930D01*
G01X-3630Y4165600D02*
X65880D01*
G01X-3630Y4140200D02*
X40480D01*
G01X-3630Y4114800D02*
X15080D01*
G01X0Y4099720D02*
Y4180270D01*
G01X25400Y4125120D02*
Y4198130D01*
G01X50800Y4150520D02*
Y4198130D01*
G01X76200Y4166370D02*
Y4198130D01*
G01X101600Y4166370D02*
Y4198130D01*
G01X127000Y4166370D02*
Y4198130D01*
G01X152400Y4166370D02*
Y4198130D01*
G01X177800Y4166370D02*
Y4198130D01*
G01X203200Y4166370D02*
Y4198130D01*
G01X228600Y4166370D02*
Y4198130D01*
G01X254000Y4166370D02*
Y4198130D01*
G01X279400Y4166370D02*
Y4198130D01*
G01X304800Y4166370D02*
Y4198130D01*
G01X330200Y4166370D02*
Y4187130D01*
G01X355600Y4166370D02*
Y4166510D01*
G01X1278370Y2990460D02*
G03X1314430Y2975190I38643J41041D01*
G01Y2940030D01*
X1342190D01*
G03X1338550Y2777510I54809J-82528D01*
G01X1314430D01*
Y2712030D01*
G03Y2494970I82570J-108530D01*
G01Y2458020D01*
G03Y2240980I82570J-108520D01*
G01Y2204030D01*
G03X1272830Y2151870I82574J-108526D01*
G01X1124220D01*
G03X959010Y2262370I-93721J38631D01*
G03X958820Y2262180I39765J-39955D01*
G01X943510Y2246870D01*
X927490D01*
X912180Y2262180D01*
G03X911990Y2262370I-39955J-39765D01*
G03X746780Y2151870I-71489J-71869D01*
G01X721860D01*
X691370Y2182360D01*
Y2516650D01*
X754870Y2580150D01*
Y2973860D01*
X1022600Y2706130D01*
X1235350D01*
X1278370Y2749150D01*
Y2990460D01*
G01Y2971800D02*
X1314430D01*
G01X754870D02*
X756930D01*
G01X1278370Y2946400D02*
X1314430D01*
G01X754870D02*
X782330D01*
G01X1278370Y2921000D02*
X1320950D01*
G01X754870D02*
X807730D01*
G01X1278370Y2895600D02*
X1305540D01*
G01X754870D02*
X833130D01*
G01X1278370Y2870200D02*
X1298740D01*
G01X754870D02*
X858530D01*
G01X1278370Y2844800D02*
X1298740D01*
G01X754870D02*
X883930D01*
G01X1278370Y2819400D02*
X1305540D01*
G01X754870D02*
X909330D01*
G01X1278370Y2794000D02*
X1320950D01*
G01X754870D02*
X934730D01*
G01X1278370Y2768600D02*
X1314430D01*
G01X754870D02*
X960130D01*
G01X1272420Y2743200D02*
X1314430D01*
G01X754870D02*
X985530D01*
G01X1247020Y2717800D02*
X1314430D01*
G01X754870D02*
X1010930D01*
G01X754870Y2692400D02*
X1293590D01*
G01X754870Y2667000D02*
X1276310D01*
G01X754870Y2641600D02*
X1266060D01*
G01X754870Y2616200D02*
X1261220D01*
G01X754870Y2590800D02*
X1261220D01*
G01X740120Y2565400D02*
X1266060D01*
G01X714720Y2540000D02*
X1276310D01*
G01X691370Y2514600D02*
X1293590D01*
G01X691370Y2489200D02*
X1314430D01*
G01X691370Y2463800D02*
X1314430D01*
G01X691370Y2438400D02*
X1293600D01*
G01X691370Y2413000D02*
X1276320D01*
G01X691370Y2387600D02*
X1266060D01*
G01X691370Y2362200D02*
X1261230D01*
G01X691370Y2336800D02*
X1261230D01*
G01X691370Y2311400D02*
X1266060D01*
G01X1064500Y2286000D02*
X1276320D01*
G01X874500D02*
X996500D01*
G01X691370D02*
X806500D01*
G01X1103730Y2260600D02*
X1293600D01*
G01X913760D02*
X957240D01*
G01X691370D02*
X767270D01*
G01X1121490Y2235200D02*
X1314430D01*
G01X691370D02*
X749510D01*
G01X1130020Y2209800D02*
X1314430D01*
G01X691370D02*
X740980D01*
G01X1131690Y2184400D02*
X1293590D01*
G01X691370D02*
X739310D01*
G01X1126860Y2159000D02*
X1276320D01*
G01X714730D02*
X744140D01*
G01X711200Y2162530D02*
Y2536480D01*
G01X736600Y2151870D02*
Y2561880D01*
G01X762000Y2254640D02*
Y2966730D01*
G01X787400Y2276860D02*
Y2941330D01*
G01X812800Y2288020D02*
Y2915930D01*
G01X838200Y2291850D02*
Y2890530D01*
G01X863600Y2289210D02*
Y2865130D01*
G01X889000Y2279520D02*
Y2839730D01*
G01X914400Y2259960D02*
Y2814330D01*
G01X939800Y2246870D02*
Y2788930D01*
G01X965200Y2268040D02*
Y2763530D01*
G01X990600Y2283690D02*
Y2738130D01*
G01X1016000Y2290830D02*
Y2712730D01*
G01X1041400Y2291290D02*
Y2706130D01*
G01X1066800Y2285150D02*
Y2706130D01*
G01X1092200Y2270940D02*
Y2706130D01*
G01X1117600Y2242370D02*
Y2706130D01*
G01X1143000Y2151870D02*
Y2706130D01*
G01X1168400Y2151870D02*
Y2706130D01*
G01X1193800Y2151870D02*
Y2706130D01*
G01X1219200Y2151870D02*
Y2706130D01*
G01X1244600Y2151870D02*
Y2715380D01*
G01X1270000Y2653180D02*
Y2740780D01*
G01Y2399160D02*
Y2553820D01*
G01Y2151870D02*
Y2299840D01*
G01X1295400Y2694470D02*
Y2979430D01*
G01Y2440450D02*
Y2512530D01*
G01Y2186460D02*
Y2258550D01*
G01X1320800Y2920820D02*
Y2940030D01*
G01Y2777510D02*
Y2794180D01*
M02*
