G04 ================== begin FILE IDENTIFICATION RECORD ==================*
G04 Layout Name:  ENCODER_ZPULSE_DIRECTION.brd*
G04 Film Name:    SPTOP*
G04 File Format:  Gerber RS274X*
G04 File Origin:  Cadence Allegro 17.2-P019*
G04 Origin Date:  Mon Aug 29 19:15:07 2016*
G04 *
G04 Layer:  VIA CLASS/PASTEMASK_TOP*
G04 Layer:  PIN/PASTEMASK_TOP*
G04 *
G04 Offset:    (0.0000 0.0000)*
G04 Mirror:    No*
G04 Mode:      Positive*
G04 Rotation:  0*
G04 FullContactRelief:  No*
G04 UndefLineWidth:     0.0000*
G04 ================== end FILE IDENTIFICATION RECORD ====================*
%FSLAX25Y25*MOMM*%
%IR0*IPPOS*OFA0.00000B0.00000*MIA0B0*SFA1.00000B1.00000*%
%ADD12O,2.X.5999*%
%ADD11R,.8001X.8999*%
%ADD10R,1.1999X1.1999*%
%LPD*%
G75*
G54D10*
X-825500Y1778000D03*
X-845000Y2032000D03*
Y2286000D03*
X-996500Y3619500D03*
X-1206500D03*
X-996500Y3111500D03*
X-1206500D03*
X-845000Y4699000D03*
X-1289500D03*
X-1079500D03*
X-615500Y1778000D03*
X-635000Y2032000D03*
Y2286000D03*
X-171000D03*
X-381000D03*
X-781500Y3619500D03*
X-571500D03*
X-635000Y4147000D03*
Y3937000D03*
Y4699000D03*
X488500Y2032000D03*
X698500D03*
X718000Y1778000D03*
X508000D03*
X615500Y2921000D03*
Y3238500D03*
X571500Y4000500D03*
X933000Y1841500D03*
X1143000D03*
X825500Y2921000D03*
Y3238500D03*
X1079500Y3702500D03*
Y3492500D03*
Y3981000D03*
Y4191000D03*
X781500Y4000500D03*
G54D11*
X-920500Y3852500D03*
X-1015500Y4127500D03*
X-825500D03*
X-286000Y2053000D03*
X-191000Y1778000D03*
X-381000D03*
X159000Y1757000D03*
X64000Y2032000D03*
X254000D03*
X667000Y3471500D03*
X572000Y3746500D03*
X762000D03*
G54D12*
X-248250Y2667000D03*
Y2794000D03*
Y2921000D03*
Y3048000D03*
Y3175000D03*
Y3302000D03*
Y3429000D03*
Y4000500D03*
Y4127500D03*
Y4254500D03*
Y4381500D03*
Y4508500D03*
Y4635500D03*
Y4762500D03*
X248250Y2921000D03*
Y2794000D03*
Y2667000D03*
Y3429000D03*
Y3302000D03*
Y3175000D03*
Y3048000D03*
Y4381500D03*
Y4254500D03*
Y4127500D03*
Y4000500D03*
Y4762500D03*
Y4635500D03*
Y4508500D03*
M02*
