G04 ================== begin FILE IDENTIFICATION RECORD ==================*
G04 Layout Name:  ENCODER_ZPULSE_DIRECTION.brd*
G04 Film Name:    TOP*
G04 File Format:  Gerber RS274X*
G04 File Origin:  Cadence Allegro 17.2-P019*
G04 Origin Date:  Mon Aug 29 19:15:07 2016*
G04 *
G04 Layer:  ETCH/TOP*
G04 Layer:  PIN/TOP*
G04 Layer:  VIA CLASS/TOP*
G04 *
G04 Offset:    (0.0000 0.0000)*
G04 Mirror:    No*
G04 Mode:      Positive*
G04 Rotation:  0*
G04 FullContactRelief:  No*
G04 UndefLineWidth:     0.0000*
G04 ================== end FILE IDENTIFICATION RECORD ====================*
%FSLAX25Y25*MOMM*%
%IR0*IPPOS*OFA0.00000B0.00000*MIA0B0*SFA1.00000B1.00000*%
%ADD14C,.9*%
%ADD16O,2.X.5999*%
%ADD13C,3.5*%
%ADD10C,1.5999*%
%ADD15R,.8001X.8999*%
%ADD12R,1.1999X1.1999*%
%ADD11R,1.5999X1.5999*%
%ADD17C,.4*%
%ADD18C,.127*%
G75*
%LPD*%
G75*
G36*
G01X-1686490Y2335360D02*
X-1644050Y2292940D01*
X-1582500Y2349500D01*
X-1644050Y2406060D01*
X-1686490Y2363640D01*
G03Y2335360I14140J-14140D01*
G37*
G36*
G01X-1488510Y1855640D02*
X-1530950Y1898060D01*
X-1592500Y1841500D01*
X-1530950Y1784940D01*
X-1488510Y1827360D01*
G03Y1855640I-14140J14140D01*
G37*
G36*
G01X-961620Y2020910D02*
X-905000Y1972000D01*
X-840000Y2032000D01*
X-905000Y2092000D01*
X-961620Y2043090D01*
G03Y2020910I16640J-11090D01*
G37*
G36*
G01X-1397360Y2236500D02*
X-1379680Y2254180D01*
X-1411500Y2291000D01*
X-1443320Y2254180D01*
X-1425640Y2236500D01*
G03X-1397360I14140J14140D01*
G37*
G36*
G01X-1172000Y2300140D02*
X-1189680Y2317820D01*
X-1226500Y2286000D01*
X-1189680Y2254180D01*
X-1172000Y2271860D01*
G03Y2300140I-14140J14140D01*
G37*
G36*
G01X-961620Y2274910D02*
X-905000Y2226000D01*
X-840000Y2286000D01*
X-905000Y2346000D01*
X-961620Y2297090D01*
G03Y2274910I16640J-11090D01*
G37*
G36*
G01X-1323120Y3100410D02*
X-1266500Y3051500D01*
X-1201500Y3111500D01*
X-1266500Y3171500D01*
X-1323120Y3122590D01*
G03Y3100410I16640J-11090D01*
G37*
G36*
G01X-1302360Y3040790D02*
X-1245790Y3097360D01*
X-1296500Y3116500D01*
X-1336500D01*
X-1387210Y3097360D01*
X-1330640Y3040790D01*
G03X-1302360I14140J14140D01*
G37*
G36*
G01X-1431520Y3123500D02*
X-1507500Y3191500D01*
X-1592500Y3111500D01*
X-1507500Y3031500D01*
X-1431520Y3099500D01*
G03Y3123500I-16000J12000D01*
G37*
G36*
G01X-1488510Y3697140D02*
X-1530950Y3739560D01*
X-1592500Y3683000D01*
X-1530950Y3626440D01*
X-1488510Y3668860D01*
G03Y3697140I-14140J14140D01*
G37*
G36*
G01X-1383000Y3668860D02*
X-1365320Y3651180D01*
X-1328500Y3683000D01*
X-1365320Y3714820D01*
X-1383000Y3697140D01*
G03Y3668860I14140J-14140D01*
G37*
G36*
G01X-903000Y3760640D02*
X-920680Y3778320D01*
X-957500Y3746500D01*
X-920680Y3714680D01*
X-903000Y3732360D01*
G03Y3760640I-14140J14140D01*
G37*
G36*
G01X-1217590Y3736120D02*
X-1266500Y3679500D01*
X-1206500Y3614500D01*
X-1146500Y3679500D01*
X-1195410Y3736120D01*
G03X-1217590I-11090J-16640D01*
G37*
G36*
G01X-879880Y3630590D02*
X-936500Y3679500D01*
X-1001500Y3619500D01*
X-936500Y3559500D01*
X-879880Y3608410D01*
G03Y3630590I-16640J11090D01*
G37*
G36*
G01X-898120Y3608410D02*
X-841500Y3559500D01*
X-776500Y3619500D01*
X-841500Y3679500D01*
X-898120Y3630590D01*
G03Y3608410I16640J-11090D01*
G37*
G36*
G01X-1488510Y4459140D02*
X-1530950Y4501560D01*
X-1592500Y4445000D01*
X-1530950Y4388440D01*
X-1488510Y4430860D01*
G03Y4459140I-14140J14140D01*
G37*
G36*
G01X-1001360Y4333870D02*
X-983680Y4351550D01*
X-1015500Y4388370D01*
X-1047320Y4351550D01*
X-1029640Y4333870D01*
G03X-1001360I14140J14140D01*
G37*
G36*
G01X-1024440Y4210380D02*
X-1055500Y4172500D01*
X-1015500Y4122500D01*
X-975500Y4172500D01*
X-1006560Y4210380D01*
G03X-1024440I-8940J-17890D01*
G37*
G36*
G01X-1488510Y3951140D02*
X-1530950Y3993560D01*
X-1592500Y3937000D01*
X-1530950Y3880440D01*
X-1488510Y3922860D01*
G03Y3951140I-14140J14140D01*
G37*
G36*
G01X-1002970Y3842790D02*
X-960500Y3807500D01*
X-915500Y3852500D01*
X-960500Y3897500D01*
X-1002970Y3862210D01*
G03Y3842790I17480J-9710D01*
G37*
G36*
G01X-1406120Y4687910D02*
X-1349500Y4639000D01*
X-1284500Y4699000D01*
X-1349500Y4759000D01*
X-1406120Y4710090D01*
G03Y4687910I16640J-11090D01*
G37*
G36*
G01X-1431520Y4711000D02*
X-1507500Y4779000D01*
X-1592500Y4699000D01*
X-1507500Y4619000D01*
X-1431520Y4687000D01*
G03Y4711000I-16000J12000D01*
G37*
G36*
G01X-962880Y4710090D02*
X-1019500Y4759000D01*
X-1084500Y4699000D01*
X-1019500Y4639000D01*
X-962880Y4687910D01*
G03Y4710090I-16640J11090D01*
G37*
G36*
G01X-961620Y4687910D02*
X-905000Y4639000D01*
X-840000Y4699000D01*
X-905000Y4759000D01*
X-961620Y4710090D01*
G03Y4687910I16640J-11090D01*
G37*
G36*
G01X-369910Y2169380D02*
X-321000Y2226000D01*
X-381000Y2291000D01*
X-441000Y2226000D01*
X-392090Y2169380D01*
G03X-369910I11090J16640D01*
G37*
G36*
G01X-86850Y2056290D02*
X-30280Y2112860D01*
X-80990Y2132000D01*
X-120990D01*
X-171700Y2112860D01*
X-115130Y2056290D01*
G03X-86850I14140J14140D01*
G37*
G36*
G01X-108530Y1787710D02*
X-151000Y1823000D01*
X-196000Y1778000D01*
X-151000Y1733000D01*
X-108530Y1768290D01*
G03Y1787710I-17480J9710D01*
G37*
G36*
G01X-463470Y1768290D02*
X-421000Y1733000D01*
X-376000Y1778000D01*
X-421000Y1823000D01*
X-463470Y1787710D01*
G03Y1768290I17480J-9710D01*
G37*
G36*
G01X-498880Y1789090D02*
X-555500Y1838000D01*
X-620500Y1778000D01*
X-555500Y1718000D01*
X-498880Y1766910D01*
G03Y1789090I-16640J11090D01*
G37*
G36*
G01X-503240Y2069850D02*
X-575000Y2092000D01*
X-639930Y2031140D01*
X-575000Y1972000D01*
X-498040Y2040970D01*
G03X-503240Y2069850I-15979J12031D01*
G37*
G36*
G01X-368470Y2043290D02*
X-326000Y2008000D01*
X-281000Y2053000D01*
X-326000Y2098000D01*
X-368470Y2062710D01*
G03Y2043290I17480J-9710D01*
G37*
G36*
G01X-54380Y2297090D02*
X-111000Y2346000D01*
X-176000Y2286000D01*
X-111000Y2226000D01*
X-54380Y2274910D01*
G03Y2297090I-16640J11090D01*
G37*
G36*
G01X-113000Y3033860D02*
X-95320Y3016180D01*
X-58500Y3048000D01*
X-95320Y3079820D01*
X-113000Y3062140D01*
G03Y3033860I14140J-14140D01*
G37*
G36*
G01X-360500Y3316140D02*
X-378180Y3333820D01*
X-415000Y3302000D01*
X-378180Y3270180D01*
X-360500Y3287860D01*
G03Y3316140I-14140J14140D01*
G37*
G36*
G01X-458500Y4268640D02*
X-476180Y4286320D01*
X-513000Y4254500D01*
X-476180Y4222680D01*
X-458500Y4240360D01*
G03Y4268640I-14140J14140D01*
G37*
G36*
G01X-545510Y4016990D02*
X-695000Y3996990D01*
X-639150Y3934220D01*
X-575000Y3877000D01*
X-526090Y3992220D01*
G03X-545510Y4016990I-19420J4772D01*
G37*
G36*
G01X-751620Y4135910D02*
X-695000Y4087000D01*
X-630000Y4147000D01*
X-695000Y4207000D01*
X-751620Y4158090D01*
G03Y4135910I16640J-11090D01*
G37*
G36*
G01X-731060Y4164350D02*
X-785500Y4172500D01*
X-830370Y4126380D01*
X-785500Y4082500D01*
X-724550Y4135640D01*
G03X-731060Y4164350I-16460J11361D01*
G37*
G36*
G01X-360500Y4649640D02*
X-378180Y4667320D01*
X-415000Y4635500D01*
X-378180Y4603680D01*
X-360500Y4621360D01*
G03Y4649640I-14140J14140D01*
G37*
G36*
G01X241470Y1766710D02*
X199000Y1802000D01*
X154000Y1757000D01*
X199000Y1712000D01*
X241470Y1747290D01*
G03Y1766710I-17480J9710D01*
G37*
G36*
G01X376240Y1740150D02*
X448000Y1718000D01*
X512930Y1778860D01*
X448000Y1838000D01*
X371040Y1769030D01*
G03X376240Y1740150I15979J-12031D01*
G37*
G36*
G01X245060Y2114880D02*
X214000Y2077000D01*
X254000Y2027000D01*
X294000Y2077000D01*
X262940Y2114880D01*
G03X245060I-8940J-17890D01*
G37*
G36*
G01X497710Y1923780D02*
X547260Y1972020D01*
X488500Y2037000D01*
X429740Y1972020D01*
X479290Y1923780D01*
G03X497710I9210J17750D01*
G37*
G36*
G01X708790Y1886220D02*
X659240Y1837980D01*
X718000Y1773000D01*
X776760Y1837980D01*
X727210Y1886220D01*
G03X708790I-9210J-17750D01*
G37*
G36*
G01X55060Y2114880D02*
X24000Y2077000D01*
X64000Y2027000D01*
X104000Y2077000D01*
X72940Y2114880D01*
G03X55060I-8940J-17890D01*
G37*
G36*
G01X-49500Y2271860D02*
X-31820Y2254180D01*
X5000Y2286000D01*
X-31820Y2317820D01*
X-49500Y2300140D01*
G03Y2271860I14140J-14140D01*
G37*
G36*
G01X498880Y2909910D02*
X555500Y2861000D01*
X620500Y2921000D01*
X555500Y2981000D01*
X498880Y2932090D01*
G03Y2909910I16640J-11090D01*
G37*
G36*
G01X522000Y2779860D02*
X539680Y2762180D01*
X576500Y2794000D01*
X539680Y2825820D01*
X522000Y2808140D01*
G03Y2779860I14140J-14140D01*
G37*
G36*
G01X356450Y3033860D02*
X374130Y3016180D01*
X410950Y3048000D01*
X374130Y3079820D01*
X356450Y3062140D01*
G03Y3033860I14140J-14140D01*
G37*
G36*
G01X749470Y3481210D02*
X707000Y3516500D01*
X662000Y3471500D01*
X707000Y3426500D01*
X749470Y3461790D01*
G03Y3481210I-17480J9710D01*
G37*
G36*
G01X563060Y3829380D02*
X532000Y3791500D01*
X572000Y3741500D01*
X612000Y3791500D01*
X580940Y3829380D01*
G03X563060I-8940J-17890D01*
G37*
G36*
G01X356450Y4240360D02*
X374130Y4222680D01*
X410950Y4254500D01*
X374130Y4286320D01*
X356450Y4268640D01*
G03Y4240360I14140J-14140D01*
G37*
G36*
G01X393750Y3986360D02*
X411430Y3968680D01*
X448250Y4000500D01*
X411430Y4032320D01*
X393750Y4014640D01*
G03Y3986360I14140J-14140D01*
G37*
G36*
G01X492750Y4014640D02*
X475070Y4032320D01*
X438250Y4000500D01*
X475070Y3968680D01*
X492750Y3986360D01*
G03Y4014640I-14140J14140D01*
G37*
G36*
G01X454880Y3989410D02*
X511500Y3940500D01*
X576500Y4000500D01*
X511500Y4060500D01*
X454880Y4011590D01*
G03Y3989410I16640J-11090D01*
G37*
G36*
G01X356450Y4748360D02*
X374130Y4730680D01*
X410950Y4762500D01*
X374130Y4794320D01*
X356450Y4776640D01*
G03Y4748360I14140J-14140D01*
G37*
G36*
G01X455450Y4776640D02*
X437770Y4794320D01*
X400950Y4762500D01*
X437770Y4730680D01*
X455450Y4748360D01*
G03Y4776640I-14140J14140D01*
G37*
G36*
G01X1044640Y2141000D02*
X1062320Y2158680D01*
X1030500Y2195500D01*
X998680Y2158680D01*
X1016360Y2141000D01*
G03X1044640I14140J14140D01*
G37*
G36*
G01X923790Y1949720D02*
X874240Y1901480D01*
X933000Y1836500D01*
X991760Y1901480D01*
X942210Y1949720D01*
G03X923790I-9210J-17750D01*
G37*
G36*
G01X791000Y2176360D02*
X808680Y2158680D01*
X845500Y2190500D01*
X808680Y2222320D01*
X791000Y2204640D01*
G03Y2176360I14140J-14140D01*
G37*
G36*
G01X815120Y2043090D02*
X758500Y2092000D01*
X693500Y2032000D01*
X758500Y1972000D01*
X815120Y2020910D01*
G03Y2043090I-16640J11090D01*
G37*
G36*
G01X1298010Y1827360D02*
X1340450Y1784940D01*
X1402000Y1841500D01*
X1340450Y1898060D01*
X1298010Y1855640D01*
G03Y1827360I14140J-14140D01*
G37*
G36*
G01X1259620Y1852590D02*
X1203000Y1901500D01*
X1138000Y1841500D01*
X1203000Y1781500D01*
X1259620Y1830410D01*
G03Y1852590I-16640J11090D01*
G37*
G36*
G01X1176500Y2871640D02*
X1158820Y2889320D01*
X1122000Y2857500D01*
X1158820Y2825680D01*
X1176500Y2843360D01*
G03Y2871640I-14140J14140D01*
G37*
G36*
G01X1077500Y2843360D02*
X1095180Y2825680D01*
X1132000Y2857500D01*
X1095180Y2889320D01*
X1077500Y2871640D01*
G03Y2843360I14140J-14140D01*
G37*
G36*
G01X1298010D02*
X1340450Y2800940D01*
X1402000Y2857500D01*
X1340450Y2914060D01*
X1298010Y2871640D01*
G03Y2843360I14140J-14140D01*
G37*
G36*
G01X1495990Y2617640D02*
X1453550Y2660060D01*
X1392000Y2603500D01*
X1453550Y2546940D01*
X1495990Y2589360D01*
G03Y2617640I-14140J14140D01*
G37*
G36*
G01X1068410Y3819120D02*
X1019500Y3762500D01*
X1079500Y3697500D01*
X1139500Y3762500D01*
X1090590Y3819120D01*
G03X1068410I-11090J-16640D01*
G37*
G36*
G01X947740Y3454650D02*
X1019500Y3432500D01*
X1084430Y3493360D01*
X1019500Y3552500D01*
X942540Y3483530D01*
G03X947740Y3454650I15979J-12031D01*
G37*
G36*
G01X785450Y4300640D02*
X767770Y4318320D01*
X730950Y4286500D01*
X767770Y4254680D01*
X785450Y4272360D01*
G03Y4300640I-14140J14140D01*
G37*
G36*
G01X1298010Y4176860D02*
X1340450Y4134440D01*
X1402000Y4191000D01*
X1340450Y4247560D01*
X1298010Y4205140D01*
G03Y4176860I14140J-14140D01*
G37*
G36*
G01Y3922860D02*
X1340450Y3880440D01*
X1402000Y3937000D01*
X1340450Y3993560D01*
X1298010Y3951140D01*
G03Y3922860I14140J-14140D01*
G37*
G36*
G01X839500Y4113360D02*
X857180Y4095680D01*
X894000Y4127500D01*
X857180Y4159320D01*
X839500Y4141640D01*
G03Y4113360I14140J-14140D01*
G37*
G36*
G01X1090590Y3864380D02*
X1139500Y3921000D01*
X1079500Y3986000D01*
X1019500Y3921000D01*
X1068410Y3864380D01*
G03X1090590I11090J16640D01*
G37*
G36*
G01X753060Y3829380D02*
X722000Y3791500D01*
X762000Y3741500D01*
X802000Y3791500D01*
X770940Y3829380D01*
G03X753060I-8940J-17890D01*
G37*
G36*
G01X773980Y3865010D02*
X841500Y3940500D01*
X782310Y4005430D01*
X721500Y3940500D01*
X745470Y3869760D01*
G03X773980Y3865010I16527J11261D01*
G37*
G36*
G01X1237640Y4750320D02*
X1347010Y4640720D01*
X1401570Y4696980D01*
X1477000Y4779000D01*
X1252030Y4782450D01*
G03X1237640Y4750320I1471J-19946D01*
G37*
G54D10*
X-1587500Y1841500D03*
Y2095500D03*
Y2349500D03*
Y2603500D03*
Y2857500D03*
Y3683000D03*
Y3937000D03*
Y4191000D03*
Y4445000D03*
X1397000Y1841500D03*
Y2095500D03*
Y2349500D03*
Y2603500D03*
Y2857500D03*
Y3683000D03*
Y3937000D03*
Y4191000D03*
Y4445000D03*
G54D11*
X-1587500Y3111500D03*
Y4699000D03*
X1397000Y3111500D03*
Y4699000D03*
G54D12*
X-825500Y1778000D03*
X-845000Y2032000D03*
Y2286000D03*
X-996500Y3619500D03*
X-1206500D03*
X-996500Y3111500D03*
X-1206500D03*
X-845000Y4699000D03*
X-1289500D03*
X-1079500D03*
X-615500Y1778000D03*
X-635000Y2032000D03*
Y2286000D03*
X-171000D03*
X-381000D03*
X-781500Y3619500D03*
X-571500D03*
X-635000Y4147000D03*
Y3937000D03*
Y4699000D03*
X488500Y2032000D03*
X698500D03*
X718000Y1778000D03*
X508000D03*
X615500Y2921000D03*
Y3238500D03*
X571500Y4000500D03*
X933000Y1841500D03*
X1143000D03*
X825500Y2921000D03*
Y3238500D03*
X1079500Y3702500D03*
Y3492500D03*
Y3981000D03*
Y4191000D03*
X781500Y4000500D03*
G54D13*
X-1016000Y2667000D03*
X270000Y3720000D03*
G54D14*
X-1221500Y2286000D03*
X-1411500D03*
X-1333500Y3683000D03*
X-952500Y3746500D03*
X-1015500Y4383370D03*
X-510000Y2921000D03*
X-63500Y3048000D03*
X-410000Y3302000D03*
X-248250Y3895500D03*
X-508000Y4254500D03*
X-410000Y4635500D03*
X0Y2286000D03*
X571500Y2794000D03*
X405950Y3048000D03*
X572000Y3849200D03*
X405950Y4254500D03*
X443250Y4000500D03*
X405950Y4762500D03*
X840500Y2190500D03*
X1030500D03*
X1127000Y2857500D03*
X735950Y4286500D03*
X889000Y4127500D03*
G54D15*
X-920500Y3852500D03*
X-1015500Y4127500D03*
X-825500D03*
X-286000Y2053000D03*
X-191000Y1778000D03*
X-381000D03*
X159000Y1757000D03*
X64000Y2032000D03*
X254000D03*
X667000Y3471500D03*
X572000Y3746500D03*
X762000D03*
G54D16*
X-248250Y2667000D03*
Y2794000D03*
Y2921000D03*
Y3048000D03*
Y3175000D03*
Y3302000D03*
Y3429000D03*
Y4000500D03*
Y4127500D03*
Y4254500D03*
Y4381500D03*
Y4508500D03*
Y4635500D03*
Y4762500D03*
X248250Y2921000D03*
Y2794000D03*
Y2667000D03*
Y3429000D03*
Y3302000D03*
Y3175000D03*
Y3048000D03*
Y4381500D03*
Y4254500D03*
Y4127500D03*
Y4000500D03*
Y4762500D03*
Y4635500D03*
Y4508500D03*
G54D17*
G01X-98250Y3509000D02*
X-1634500D01*
X-1717500Y3426000D01*
Y2369030D01*
X-1697970Y2349500D01*
X-1587500D01*
G01Y4191000D02*
X-1677500D01*
X-1717500Y4231000D01*
Y4799710D01*
X-1688210Y4829000D01*
X-1486790D01*
X-1483790Y4826000D01*
X-452000D01*
X-388500Y4762500D01*
X-248250D01*
G01X-1316500Y3111500D02*
Y2246000D01*
X-1229500Y2159000D01*
X-398000D01*
X-381000Y2176000D01*
G01X-825500Y1778000D02*
X-889000Y1841500D01*
X-1587500D01*
G01X-845000Y2032000D02*
X-1311500D01*
X-1411500Y2132000D01*
Y2286000D01*
G01X-845000D02*
X-1221500D01*
G01X-996500Y3111500D02*
Y3321500D01*
X-889000Y3429000D01*
X-248250D01*
G01X-1587500Y3111500D02*
X-1316500D01*
G01X-1206500D02*
X-1316500D01*
G01X-1587500Y3683000D02*
X-1333500D01*
G01X-1206500Y3619500D02*
Y3719500D01*
X-1073500Y3852500D01*
X-920500D01*
G01X-996500Y3619500D02*
X-781500D01*
G01X-1587500Y4445000D02*
X-1387500D01*
G01D02*
X-1254000Y4578500D01*
X-665030D01*
X-635000Y4608530D01*
G01X-1015500Y4127500D02*
Y4383370D01*
G01X-248250Y4508500D02*
X-1206500D01*
X-1317500Y4397500D01*
Y3965190D01*
X-1345690Y3937000D01*
X-1587500D01*
G01X-635000D02*
X-825500Y3746500D01*
X-952500D01*
G01X-1289500Y4699000D02*
X-1587500D01*
G01X-1079500D02*
X-845000D01*
G01X-100990Y2127000D02*
X44470D01*
X64000Y2107470D01*
Y2032000D01*
G01X-381000Y2176000D02*
X-244990D01*
X-195990Y2127000D01*
X-100990D01*
G01X-381000Y2286000D02*
Y2176000D01*
G01X-191000Y1778000D02*
X-120520D01*
X-100990Y1797530D01*
Y2127000D01*
G01X-381000Y1778000D02*
X-615500D01*
G01X-635000Y2032000D02*
X-614000Y2053000D01*
X-286000D01*
G01X0Y2286000D02*
X-171000D01*
G01X-398250Y2396000D02*
X935500D01*
G01X-635000Y2286000D02*
X-525000Y2396000D01*
X-398250D01*
G01X-248250Y2667000D02*
X-378730D01*
G01X-398250Y2647480D02*
Y2396000D01*
G01X-378730Y2667000D02*
X-398250Y2647480D01*
G01X-510000Y2921000D02*
X-248250D01*
G01Y3048000D02*
X-63500D01*
G01X-488370Y3702630D02*
X-571500Y3619500D01*
G01X-359000Y3895500D02*
X-488370Y3766130D01*
Y3702630D01*
G01X-248250Y3302000D02*
X-410000D01*
G01X-248250Y4381500D02*
X-117770D01*
X-98250Y4361980D01*
Y3509000D01*
G01D02*
Y3194520D01*
X-117770Y3175000D01*
X-248250D01*
G01Y3895500D02*
X-293250D01*
G01D02*
Y3975500D01*
X-268250Y4000500D01*
X-248250D01*
G01X-293250Y3895500D02*
X-359000D01*
G01X-508000Y4254500D02*
X-248250D01*
G01Y4127500D02*
X-415000D01*
X-605500Y3937000D01*
X-635000D01*
G01Y4147000D02*
X-806000D01*
X-825500Y4127500D01*
G01X-635000Y4608530D02*
Y4699000D01*
G01X-248250Y4635500D02*
X-410000D01*
G01X159000Y1757000D02*
X487000D01*
X508000Y1778000D01*
G01X254000Y2032000D02*
Y2107470D01*
X337030Y2190500D01*
X840500D01*
G01X488500Y2032000D02*
Y1941530D01*
X542030Y1888000D01*
X698470D01*
X718000Y1868470D01*
Y1778000D01*
G01X615500Y2921000D02*
X248250D01*
G01Y2794000D02*
X571500D01*
G01X248250Y3429000D02*
X444490D01*
X521020Y3505530D01*
Y3686210D01*
X572000Y3737190D01*
Y3746500D01*
G01X248250Y3175000D02*
X117770D01*
X29000Y3263770D01*
Y4439250D01*
X98250Y4508500D01*
G01X248250Y3048000D02*
X405950D01*
G01X615500Y3238500D02*
X525020Y3148020D01*
X472230D01*
X318250Y3302000D01*
X248250D01*
G01X667000Y3471500D02*
X1058500D01*
X1079500Y3492500D01*
G01X572000Y3746500D02*
Y3849200D01*
G01X248250Y4381500D02*
X1099500D01*
X1189500Y4291500D01*
Y4034030D01*
X1286530Y3937000D01*
X1397000D01*
G01X248250Y4127500D02*
X889000D01*
G01X248250Y4254500D02*
X405950D01*
G01X248250Y4000500D02*
X443250D01*
G01D02*
X571500D01*
G01X248250Y4762500D02*
X405950D01*
G01D02*
X1333500D01*
X1397000Y4699000D01*
G01X248250Y4635500D02*
X1015000D01*
X1259500Y4391000D01*
Y4218030D01*
X1286530Y4191000D01*
X1397000D01*
G01Y2603500D02*
X1507470D01*
X1527000Y2623030D01*
Y4847500D01*
X1517000Y4857500D01*
X158250D01*
X98250Y4797500D01*
Y4508500D01*
G01D02*
X248250D01*
G01X933000Y1841500D02*
Y1931970D01*
X1030500Y2029470D01*
Y2190500D01*
G01X935500Y2396000D02*
Y2132000D01*
G01D02*
X835500Y2032000D01*
G01D02*
X698500D01*
G01X1143000Y1841500D02*
X1397000D01*
G01Y2857500D02*
X1127000D01*
G01X935500Y2921000D02*
Y2857500D01*
G01X825500Y2921000D02*
X935500D01*
G01D02*
Y3128500D01*
G01Y2857500D02*
X1127000D01*
G01X935500Y2396000D02*
Y2857500D01*
G01Y3128500D02*
X825500Y3238500D01*
G01X1079500Y3702500D02*
Y3981000D01*
G01X735950Y4286500D02*
X984000D01*
G01D02*
X1079500Y4191000D01*
G01X762000Y3746500D02*
Y3981000D01*
X781500Y4000500D01*
G54D18*
G01X1299220Y1936550D02*
X1275780Y1913120D01*
X1239850Y1944160D01*
G03X1202250Y1957860I-36841J-42664D01*
G01X1083000D01*
G03X1038000Y1935440I-1J-56369D01*
G03X1027120Y1946370I-45018J-33932D01*
G01X1086870Y2006120D01*
Y2103510D01*
X1102180Y2118820D01*
G03X1102370Y2119010I-39765J39955D01*
G03X935500Y2225870I-71871J71489D01*
G03X769010Y2262370I-95000J-35369D01*
G03X768820Y2262180I39765J-39955D01*
G01X753510Y2246870D01*
X313680D01*
X238600Y2171790D01*
G03X206580Y2156850I15404J-74799D01*
G01X170580Y2112950D01*
G03X159000Y2089370I43415J-35954D01*
G03X147420Y2112950I-54995J-12374D01*
G01X111420Y2156850D01*
G03X79400Y2171790I-47424J-59859D01*
G01X67820Y2183370D01*
X-57460D01*
X-69050Y2187750D01*
X-54360Y2200440D01*
G03Y2371560I54360J85560D01*
G01X-74150Y2388660D01*
G03X-111750Y2402360I-36841J-42664D01*
G01X-231000D01*
G03X-276000Y2379940I-1J-56369D01*
G03X-321000Y2402360I-44999J-33949D01*
G01X-441000D01*
G03X-497360Y2346000I5J-56365D01*
G01Y2226750D01*
G03X-496360Y2215370I56363J-781D01*
G01X-559180D01*
G03X-555940Y2226000I-15827J10633D01*
G01Y2346000D01*
G03X-575000Y2365060I-19065J-5D01*
G01X-695000D01*
G03X-704740Y2362390I-9J-19069D01*
G01X-731070D01*
G03X-785000Y2402360I-53931J-16399D01*
G01X-904250D01*
G03X-941850Y2388660I-759J-56364D01*
G01X-995430Y2342370D01*
X-1134510D01*
X-1149820Y2357680D01*
G03X-1150010Y2357870I-39955J-39765D01*
G03X-1260130Y2379720I-71488J-71870D01*
G01Y2995140D01*
X-1146500D01*
G03X-1101500Y3017560I1J56369D01*
G03X-1056500Y2995140I44999J33949D01*
G01X-936500D01*
G03X-880140Y3051500I-5J56365D01*
G01Y3171500D01*
G03X-936500Y3227860I-56365J-5D01*
G01X-940130D01*
Y3298150D01*
X-865650Y3372630D01*
X-482710D01*
G03X-400590Y3201070I72712J-70629D01*
G03X-376790Y3111500I82335J-26069D01*
G03Y2984500I58535J-63500D01*
G03X-383690Y2977370I58510J-63526D01*
G01X-425750D01*
G03Y2864630I-84250J-56370D01*
G01X-383690D01*
G03X-376790Y2857500I65410J56396D01*
G03X-340740Y2710610I58535J-63503D01*
G03X-318260Y2617940I22488J-43607D01*
G01X-178240D01*
G03X-155760Y2710610I-8J49063D01*
G03X-119710Y2857500I-22485J83387D01*
G03X-97880Y2952640I-58533J63505D01*
G03X-63680Y3149370I34382J95361D01*
G01X-41880Y3171170D01*
Y4385330D01*
X-94420Y4437870D01*
X-112810D01*
G03X-119710Y4445000I-65410J-56396D01*
G03Y4572000I-58535J63500D01*
G03Y4699000I-58535J63500D01*
G03X-178240Y4848860I-58537J63497D01*
G01X-318260D01*
G03X-374400Y4828120I4J-86362D01*
G01X-428650Y4882370D01*
X-1460440D01*
X-1463440Y4885370D01*
X-1711560D01*
X-1773870Y4823060D01*
Y4207650D01*
X-1718160Y4151940D01*
G03X-1670070Y4082470I130656J39065D01*
G01Y4045520D01*
G03Y3828480I82570J-108520D01*
G01Y3791520D01*
G03X-1656480Y3565370I82572J-108521D01*
G01X-1657850D01*
X-1773870Y3449350D01*
Y2345680D01*
X-1736930Y2308740D01*
G03X-1726340Y2295490I64581J40759D01*
G01X-1685280Y2254450D01*
G03X-1670070Y2240980I97761J95067D01*
G01Y2204030D01*
G03Y1986970I82570J-108530D01*
G01Y1950020D01*
G03X-1489720Y1746450I82565J-108527D01*
G01X-1451020Y1785130D01*
X-941860D01*
Y1718000D01*
G03X-932140Y1686350I56369J-6D01*
G01X-1823650D01*
Y4943650D01*
X1613650D01*
Y1686350D01*
X824640D01*
G03X834360Y1718000I-46649J31644D01*
G01Y1740460D01*
G03X873000Y1725140I38633J41050D01*
G01X993000D01*
G03X1038000Y1747560I1J56369D01*
G03X1083000Y1725140I44999J33949D01*
G01X1202250D01*
G03X1239850Y1738840I759J56364D01*
G01X1275780Y1769880D01*
X1299220Y1746450D01*
G03X1479570Y1950020I97785J95043D01*
G01Y1986970D01*
G03Y2204030I-82570J108530D01*
G01Y2240970D01*
G03Y2458030I-82570J108530D01*
G01Y2494980D01*
G03X1494780Y2508450I-82551J108537D01*
G01X1535840Y2549490D01*
G03X1546430Y2562740I-53991J54009D01*
G01X1583370Y2599680D01*
Y4870850D01*
X1540350Y4913870D01*
X134900D01*
X41880Y4820850D01*
Y4531850D01*
X-27370Y4462600D01*
Y3240420D01*
X94420Y3118630D01*
X112810D01*
G03X119710Y3111500I65410J56396D01*
G03Y2984500I58535J-63500D01*
G03Y2857500I58535J-63500D01*
G03Y2730500I58535J-63500D01*
G03X178240Y2580640I58537J-63497D01*
G01X318260D01*
G03X376790Y2730500I-7J86363D01*
G03X383690Y2737630I-58510J63526D01*
G01X484510D01*
X499820Y2722320D01*
G03X500010Y2722130I39955J39765D01*
G03X672310Y2804640I71490J71869D01*
G01X675500D01*
G03X729430Y2844610I-1J56369D01*
G01X755760D01*
G03X765500Y2841940I9731J16399D01*
G01X885500D01*
G03X904560Y2861000I-5J19065D01*
G01Y2981000D01*
G03X885500Y3000060I-19065J-5D01*
G01X765500D01*
G03X755760Y2997390I-9J-19069D01*
G01X729430D01*
G03X675500Y3037360I-53931J-16399D01*
G01X556250D01*
G03X518650Y3023660I-759J-56364D01*
G01X498210Y3006000D01*
G03X497440Y3091650I-92260J41999D01*
G01X548370D01*
X578850Y3122140D01*
X675500D01*
G03X729430Y3162110I-1J56369D01*
G01X755760D01*
G03X765500Y3159440I9731J16399D01*
G01X885500D01*
G03X904560Y3178500I-5J19065D01*
G01Y3298500D01*
G03X885500Y3317560I-19065J-5D01*
G01X765500D01*
G03X755760Y3314890I-9J-19069D01*
G01X729430D01*
G03X675500Y3354860I-53931J-16399D01*
G01X555500D01*
G03X499140Y3298500I5J-56365D01*
G01Y3204390D01*
X495580D01*
X404380Y3295590D01*
G03X376790Y3365500I-86126J6410D01*
G03X383690Y3372630I-58510J63526D01*
G01X467840D01*
X570620Y3475420D01*
Y3426500D01*
G03X627000Y3370140I56370J10D01*
G01X706250D01*
G03X743030Y3383140I765J56365D01*
G01X781520Y3415130D01*
X906990D01*
G03X926190Y3402310I51522J56374D01*
G01X1002870Y3378640D01*
G03X1020250Y3376140I16618J53863D01*
G01X1139500D01*
G03X1195860Y3432500I-5J56365D01*
G01Y3552500D01*
G03X1173440Y3597500I-56369J1D01*
G03X1195860Y3642500I-33949J44999D01*
G01Y3761750D01*
G03X1182160Y3799350I-56364J759D01*
G01X1145530Y3841750D01*
X1182160Y3884150D01*
G03X1195860Y3921750I-42664J36841D01*
G01Y3947950D01*
X1247570Y3896240D01*
G03X1258160Y3882990I64581J40759D01*
G01X1299220Y3841950D01*
G03X1314430Y3828480I97761J95067D01*
G01Y3791530D01*
G03X1470630Y3568220I82569J-108529D01*
G01Y3247860D01*
X1317000D01*
G03X1260640Y3191500I5J-56365D01*
G01Y3031500D01*
G03X1314430Y2975190I56370J1D01*
G01Y2940030D01*
X1342190D01*
G03X1338550Y2777510I54809J-82528D01*
G01X1314430D01*
Y2712020D01*
G03Y2494980I82570J-108520D01*
G01Y2458030D01*
G03Y2240970I82570J-108530D01*
G01Y2204030D01*
G03Y1986970I82570J-108530D01*
G01Y1950020D01*
G03X1299220Y1936550I82551J-108537D01*
G01X-784630Y2667000D02*
G02I-231370J0D01*
G01X-1823650Y4933950D02*
X1613650D01*
G01X1600200Y4921250D02*
X1613650D01*
G01X1600200Y4908550D02*
X1613650D01*
G01X101600Y4921250D02*
X1574800D01*
G01X1545670Y4908550D02*
X1574800D01*
G01X101600D02*
X129580D01*
G01X-1823650Y4921250D02*
X-1803400D01*
G01X-1823650Y4908550D02*
X-1803400D01*
G01X1558370Y4895850D02*
X1613650D01*
G01X1571070Y4883150D02*
X1613650D01*
G01X76200Y4895850D02*
X116880D01*
G01X76200Y4883150D02*
X104180D01*
G01X-1727200Y4895850D02*
X-406400D01*
G01X-1461220Y4883150D02*
X-406400D01*
G01X-1727200D02*
X-1713780D01*
G01X-1823650Y4895850D02*
X-1803400D01*
G01X-1823650Y4883150D02*
X-1803400D01*
G01X1583370Y4870450D02*
X1613650D01*
G01X1583370Y4857750D02*
X1613650D01*
G01X50800Y4870450D02*
X91480D01*
G01X50800Y4857750D02*
X78780D01*
G01X-416730Y4870450D02*
X-381000D01*
G01X-404030Y4857750D02*
X-381000D01*
G01X-1752600Y4870450D02*
X-1726480D01*
G01X-1752600Y4857750D02*
X-1739180D01*
G01X-1823650Y4870450D02*
X-1803400D01*
G01X-1823650Y4857750D02*
X-1803400D01*
G01X1583370Y4845050D02*
X1613650D01*
G01X1583370Y4832350D02*
X1613650D01*
G01X25400Y4845050D02*
X66080D01*
G01X25400Y4832350D02*
X53380D01*
G01X-152880Y4845050D02*
X-101600D01*
G01X-391330D02*
X-343620D01*
G01X-127460Y4832350D02*
X-101600D01*
G01X-378630D02*
X-369040D01*
G01X-1778000Y4845050D02*
X-1751880D01*
G01X-1778000Y4832350D02*
X-1764580D01*
G01X-1823650Y4845050D02*
X-1803400D01*
G01X-1823650Y4832350D02*
X-1803400D01*
G01X1583370Y4819650D02*
X1613650D01*
G01X1583370Y4806950D02*
X1613650D01*
G01X25400Y4819650D02*
X41880D01*
G01X25400Y4806950D02*
X41880D01*
G01X-113500Y4819650D02*
X-76200D01*
G01X-104200Y4806950D02*
X-76200D01*
G01X-1778000Y4819650D02*
X-1773870D01*
G01X-1778000Y4806950D02*
X-1773870D01*
G01X-1823650Y4819650D02*
X-1803400D01*
G01X-1823650Y4806950D02*
X-1803400D01*
G01X1583370Y4794250D02*
X1613650D01*
G01X1583370Y4781550D02*
X1613650D01*
G01X25400Y4794250D02*
X41880D01*
G01X25400Y4781550D02*
X41880D01*
G01X-97930Y4794250D02*
X-76200D01*
G01X-94010Y4781550D02*
X-76200D01*
G01X-1778000Y4794250D02*
X-1773870D01*
G01X-1778000Y4781550D02*
X-1773870D01*
G01X-1823650Y4794250D02*
X-1803400D01*
G01X-1823650Y4781550D02*
X-1803400D01*
G01X1583370Y4768850D02*
X1613650D01*
G01X1583370Y4756150D02*
X1613650D01*
G01X25400Y4768850D02*
X41880D01*
G01X25400Y4756150D02*
X41880D01*
G01X-92120Y4768850D02*
X-76200D01*
G01X-92120Y4756150D02*
X-76200D01*
G01X-1778000Y4768850D02*
X-1773870D01*
G01X-1778000Y4756150D02*
X-1773870D01*
G01X-1823650Y4768850D02*
X-1803400D01*
G01X-1823650Y4756150D02*
X-1803400D01*
G01X1583370Y4743450D02*
X1613650D01*
G01X1583370Y4730750D02*
X1613650D01*
G01X25400Y4743450D02*
X41880D01*
G01X25400Y4730750D02*
X41880D01*
G01X-94010Y4743450D02*
X-76200D01*
G01X-97930Y4730750D02*
X-76200D01*
G01X-1778000Y4743450D02*
X-1773870D01*
G01X-1778000Y4730750D02*
X-1773870D01*
G01X-1823650Y4743450D02*
X-1803400D01*
G01X-1823650Y4730750D02*
X-1803400D01*
G01X1583370Y4718050D02*
X1613650D01*
G01X1583370Y4705350D02*
X1613650D01*
G01X25400Y4718050D02*
X41880D01*
G01X25400Y4705350D02*
X41880D01*
G01X-104200Y4718050D02*
X-76200D01*
G01X-113500Y4705350D02*
X-76200D01*
G01X-1778000Y4718050D02*
X-1773870D01*
G01X-1778000Y4705350D02*
X-1773870D01*
G01X-1823650Y4718050D02*
X-1803400D01*
G01X-1823650Y4705350D02*
X-1803400D01*
G01X1583370Y4692650D02*
X1613650D01*
G01X1583370Y4679950D02*
X1613650D01*
G01X25400Y4692650D02*
X41880D01*
G01X25400Y4679950D02*
X41880D01*
G01X-113500Y4692650D02*
X-76200D01*
G01X-104200Y4679950D02*
X-76200D01*
G01X-1778000Y4692650D02*
X-1773870D01*
G01X-1778000Y4679950D02*
X-1773870D01*
G01X-1823650Y4692650D02*
X-1803400D01*
G01X-1823650Y4679950D02*
X-1803400D01*
G01X1583370Y4667250D02*
X1613650D01*
G01X1583370Y4654550D02*
X1613650D01*
G01X25400Y4667250D02*
X41880D01*
G01X25400Y4654550D02*
X41880D01*
G01X-97930Y4667250D02*
X-76200D01*
G01X-94010Y4654550D02*
X-76200D01*
G01X-1778000Y4667250D02*
X-1773870D01*
G01X-1778000Y4654550D02*
X-1773870D01*
G01X-1823650Y4667250D02*
X-1803400D01*
G01X-1823650Y4654550D02*
X-1803400D01*
G01X1583370Y4641850D02*
X1613650D01*
G01X1583370Y4629150D02*
X1613650D01*
G01X25400Y4641850D02*
X41880D01*
G01X25400Y4629150D02*
X41880D01*
G01X-92120Y4641850D02*
X-76200D01*
G01X-92120Y4629150D02*
X-76200D01*
G01X-1778000Y4641850D02*
X-1773870D01*
G01X-1778000Y4629150D02*
X-1773870D01*
G01X-1823650Y4641850D02*
X-1803400D01*
G01X-1823650Y4629150D02*
X-1803400D01*
G01X1583370Y4616450D02*
X1613650D01*
G01X1583370Y4603750D02*
X1613650D01*
G01X25400Y4616450D02*
X41880D01*
G01X25400Y4603750D02*
X41880D01*
G01X-94010Y4616450D02*
X-76200D01*
G01X-97930Y4603750D02*
X-76200D01*
G01X-1778000Y4616450D02*
X-1773870D01*
G01X-1778000Y4603750D02*
X-1773870D01*
G01X-1823650Y4616450D02*
X-1803400D01*
G01X-1823650Y4603750D02*
X-1803400D01*
G01X1583370Y4591050D02*
X1613650D01*
G01X1583370Y4578350D02*
X1613650D01*
G01X25400Y4591050D02*
X41880D01*
G01X25400Y4578350D02*
X41880D01*
G01X-104200Y4591050D02*
X-76200D01*
G01X-113500Y4578350D02*
X-76200D01*
G01X-1778000Y4591050D02*
X-1773870D01*
G01X-1778000Y4578350D02*
X-1773870D01*
G01X-1823650Y4591050D02*
X-1803400D01*
G01X-1823650Y4578350D02*
X-1803400D01*
G01X1583370Y4565650D02*
X1613650D01*
G01X1583370Y4552950D02*
X1613650D01*
G01X25400Y4565650D02*
X41880D01*
G01X25400Y4552950D02*
X41880D01*
G01X-113500Y4565650D02*
X-76200D01*
G01X-104200Y4552950D02*
X-76200D01*
G01X-1778000Y4565650D02*
X-1773870D01*
G01X-1778000Y4552950D02*
X-1773870D01*
G01X-1823650Y4565650D02*
X-1803400D01*
G01X-1823650Y4552950D02*
X-1803400D01*
G01X1583370Y4540250D02*
X1613650D01*
G01X1583370Y4527550D02*
X1613650D01*
G01X25400Y4540250D02*
X41880D01*
G01X25400Y4527550D02*
X37580D01*
G01X-97930Y4540250D02*
X-76200D01*
G01X-94010Y4527550D02*
X-76200D01*
G01X-1778000Y4540250D02*
X-1773870D01*
G01X-1778000Y4527550D02*
X-1773870D01*
G01X-1823650Y4540250D02*
X-1803400D01*
G01X-1823650Y4527550D02*
X-1803400D01*
G01X1583370Y4514850D02*
X1613650D01*
G01X1583370Y4502150D02*
X1613650D01*
G01X0Y4514850D02*
X24880D01*
G01X0Y4502150D02*
X12180D01*
G01X-92120Y4514850D02*
X-76200D01*
G01X-92120Y4502150D02*
X-76200D01*
G01X-1778000Y4514850D02*
X-1773870D01*
G01X-1778000Y4502150D02*
X-1773870D01*
G01X-1823650Y4514850D02*
X-1803400D01*
G01X-1823650Y4502150D02*
X-1803400D01*
G01X1583370Y4489450D02*
X1613650D01*
G01X1583370Y4476750D02*
X1613650D01*
G01X-25400Y4489450D02*
X-520D01*
G01X-25400Y4476750D02*
X-13220D01*
G01X-94010Y4489450D02*
X-76200D01*
G01X-97930Y4476750D02*
X-76200D01*
G01X-1778000Y4489450D02*
X-1773870D01*
G01X-1778000Y4476750D02*
X-1773870D01*
G01X-1823650Y4489450D02*
X-1803400D01*
G01X-1823650Y4476750D02*
X-1803400D01*
G01X1583370Y4464050D02*
X1613650D01*
G01X1583370Y4451350D02*
X1613650D01*
G01X-50800Y4464050D02*
X-25920D01*
G01X-50800Y4451350D02*
X-27370D01*
G01X-104200Y4464050D02*
X-76200D01*
G01X-113500Y4451350D02*
X-76200D01*
G01X-1778000Y4464050D02*
X-1773870D01*
G01X-1778000Y4451350D02*
X-1773870D01*
G01X-1823650Y4464050D02*
X-1803400D01*
G01X-1823650Y4451350D02*
X-1803400D01*
G01X1583370Y4438650D02*
X1613650D01*
G01X1583370Y4425950D02*
X1613650D01*
G01X-113490Y4438650D02*
X-27370D01*
G01X-82500Y4425950D02*
X-27370D01*
G01X-1778000Y4438650D02*
X-1773870D01*
G01X-1778000Y4425950D02*
X-1773870D01*
G01X-1823650Y4438650D02*
X-1803400D01*
G01X-1823650Y4425950D02*
X-1803400D01*
G01X1583370Y4413250D02*
X1613650D01*
G01X1583370Y4400550D02*
X1613650D01*
G01X-69800Y4413250D02*
X-27370D01*
G01X-57100Y4400550D02*
X-27370D01*
G01X-1778000Y4413250D02*
X-1773870D01*
G01X-1778000Y4400550D02*
X-1773870D01*
G01X-1823650Y4413250D02*
X-1803400D01*
G01X-1823650Y4400550D02*
X-1803400D01*
G01X1583370Y4387850D02*
X1613650D01*
G01X1583370Y4375150D02*
X1613650D01*
G01X-44400Y4387850D02*
X-27370D01*
G01X-41880Y4375150D02*
X-27370D01*
G01X-1778000Y4387850D02*
X-1773870D01*
G01X-1778000Y4375150D02*
X-1773870D01*
G01X-1823650Y4387850D02*
X-1803400D01*
G01X-1823650Y4375150D02*
X-1803400D01*
G01X1583370Y4362450D02*
X1613650D01*
G01X1583370Y4349750D02*
X1613650D01*
G01X-41880Y4362450D02*
X-27370D01*
G01X-41880Y4349750D02*
X-27370D01*
G01X-1778000Y4362450D02*
X-1773870D01*
G01X-1778000Y4349750D02*
X-1773870D01*
G01X-1823650Y4362450D02*
X-1803400D01*
G01X-1823650Y4349750D02*
X-1803400D01*
G01X1583370Y4337050D02*
X1613650D01*
G01X1583370Y4324350D02*
X1613650D01*
G01X-41880Y4337050D02*
X-27370D01*
G01X-41880Y4324350D02*
X-27370D01*
G01X-1778000Y4337050D02*
X-1773870D01*
G01X-1778000Y4324350D02*
X-1773870D01*
G01X-1823650Y4337050D02*
X-1803400D01*
G01X-1823650Y4324350D02*
X-1803400D01*
G01X1583370Y4311650D02*
X1613650D01*
G01X1583370Y4298950D02*
X1613650D01*
G01X-41880Y4311650D02*
X-27370D01*
G01X-41880Y4298950D02*
X-27370D01*
G01X-1778000Y4311650D02*
X-1773870D01*
G01X-1778000Y4298950D02*
X-1773870D01*
G01X-1823650Y4311650D02*
X-1803400D01*
G01X-1823650Y4298950D02*
X-1803400D01*
G01X1583370Y4286250D02*
X1613650D01*
G01X1583370Y4273550D02*
X1613650D01*
G01X-41880Y4286250D02*
X-27370D01*
G01X-41880Y4273550D02*
X-27370D01*
G01X-1778000Y4286250D02*
X-1773870D01*
G01X-1778000Y4273550D02*
X-1773870D01*
G01X-1823650Y4286250D02*
X-1803400D01*
G01X-1823650Y4273550D02*
X-1803400D01*
G01X1583370Y4260850D02*
X1613650D01*
G01X1583370Y4248150D02*
X1613650D01*
G01X-41880Y4260850D02*
X-27370D01*
G01X-41880Y4248150D02*
X-27370D01*
G01X-1778000Y4260850D02*
X-1773870D01*
G01X-1778000Y4248150D02*
X-1773870D01*
G01X-1823650Y4260850D02*
X-1803400D01*
G01X-1823650Y4248150D02*
X-1803400D01*
G01X1583370Y4235450D02*
X1613650D01*
G01X1583370Y4222750D02*
X1613650D01*
G01X-41880Y4235450D02*
X-27370D01*
G01X-41880Y4222750D02*
X-27370D01*
G01X-1778000Y4235450D02*
X-1773870D01*
G01X-1778000Y4222750D02*
X-1773870D01*
G01X-1823650Y4235450D02*
X-1803400D01*
G01X-1823650Y4222750D02*
X-1803400D01*
G01X1583370Y4210050D02*
X1613650D01*
G01X1583370Y4197350D02*
X1613650D01*
G01X-41880Y4210050D02*
X-27370D01*
G01X-41880Y4197350D02*
X-27370D01*
G01X-1778000Y4210050D02*
X-1773870D01*
G01X-1778000Y4197350D02*
X-1763570D01*
G01X-1823650Y4210050D02*
X-1803400D01*
G01X-1823650Y4197350D02*
X-1803400D01*
G01X1583370Y4184650D02*
X1613650D01*
G01X1583370Y4171950D02*
X1613650D01*
G01X-41880Y4184650D02*
X-27370D01*
G01X-41880Y4171950D02*
X-27370D01*
G01X-1778000Y4184650D02*
X-1750870D01*
G01X-1778000Y4171950D02*
X-1738170D01*
G01X-1823650Y4184650D02*
X-1803400D01*
G01X-1823650Y4171950D02*
X-1803400D01*
G01X1583370Y4159250D02*
X1613650D01*
G01X1583370Y4146550D02*
X1613650D01*
G01X-41880Y4159250D02*
X-27370D01*
G01X-41880Y4146550D02*
X-27370D01*
G01X-1752600Y4159250D02*
X-1725470D01*
G01X-1752600Y4146550D02*
X-1716430D01*
G01X-1823650Y4159250D02*
X-1803400D01*
G01X-1823650Y4146550D02*
X-1803400D01*
G01X1583370Y4133850D02*
X1613650D01*
G01X1583370Y4121150D02*
X1613650D01*
G01X-41880Y4133850D02*
X-27370D01*
G01X-41880Y4121150D02*
X-27370D01*
G01X-1727200Y4133850D02*
X-1711320D01*
G01X-1727200Y4121150D02*
X-1704620D01*
G01X-1823650Y4133850D02*
X-1803400D01*
G01X-1823650Y4121150D02*
X-1803400D01*
G01X1583370Y4108450D02*
X1613650D01*
G01X1583370Y4095750D02*
X1613650D01*
G01X-41880Y4108450D02*
X-27370D01*
G01X-41880Y4095750D02*
X-27370D01*
G01X-1701800Y4108450D02*
X-1696050D01*
G01X-1701800Y4095750D02*
X-1685090D01*
G01X-1823650Y4108450D02*
X-1803400D01*
G01X-1823650Y4095750D02*
X-1803400D01*
G01X1583370Y4083050D02*
X1613650D01*
G01X1583370Y4070350D02*
X1613650D01*
G01X-41880Y4083050D02*
X-27370D01*
G01X-41880Y4070350D02*
X-27370D01*
G01X-1701800Y4083050D02*
X-1670830D01*
G01X-1701800Y4070350D02*
X-1670070D01*
G01X-1823650Y4083050D02*
X-1803400D01*
G01X-1823650Y4070350D02*
X-1803400D01*
G01X1583370Y4057650D02*
X1613650D01*
G01X1583370Y4044950D02*
X1613650D01*
G01X-41880Y4057650D02*
X-27370D01*
G01X-41880Y4044950D02*
X-27370D01*
G01X-1701800Y4057650D02*
X-1670070D01*
G01X-1701800Y4044950D02*
X-1670810D01*
G01X-1823650Y4057650D02*
X-1803400D01*
G01X-1823650Y4044950D02*
X-1803400D01*
G01X1583370Y4032250D02*
X1613650D01*
G01X1583370Y4019550D02*
X1613650D01*
G01X-41880Y4032250D02*
X-27370D01*
G01X-41880Y4019550D02*
X-27370D01*
G01X-1701800Y4032250D02*
X-1685080D01*
G01X-1701800Y4019550D02*
X-1696040D01*
G01X-1823650Y4032250D02*
X-1803400D01*
G01X-1823650Y4019550D02*
X-1803400D01*
G01X1583370Y4006850D02*
X1613650D01*
G01X1583370Y3994150D02*
X1613650D01*
G01X-41880Y4006850D02*
X-27370D01*
G01X-41880Y3994150D02*
X-27370D01*
G01X-1727200Y4006850D02*
X-1704610D01*
G01X-1727200Y3994150D02*
X-1711310D01*
G01X-1823650Y4006850D02*
X-1803400D01*
G01X-1823650Y3994150D02*
X-1803400D01*
G01X1583370Y3981450D02*
X1613650D01*
G01X1583370Y3968750D02*
X1613650D01*
G01X-41880Y3981450D02*
X-27370D01*
G01X-41880Y3968750D02*
X-27370D01*
G01X-1727200Y3981450D02*
X-1716410D01*
G01X-1727200Y3968750D02*
X-1720110D01*
G01X-1823650Y3981450D02*
X-1803400D01*
G01X-1823650Y3968750D02*
X-1803400D01*
G01X1583370Y3956050D02*
X1613650D01*
G01X1583370Y3943350D02*
X1613650D01*
G01X1195860D02*
X1200460D01*
G01X-41880Y3956050D02*
X-27370D01*
G01X-41880Y3943350D02*
X-27370D01*
G01X-1727200Y3956050D02*
X-1722520D01*
G01X-1727200Y3943350D02*
X-1723710D01*
G01X-1823650Y3956050D02*
X-1803400D01*
G01X-1823650Y3943350D02*
X-1803400D01*
G01X1583370Y3930650D02*
X1613650D01*
G01X1583370Y3917950D02*
X1613650D01*
G01X1195860Y3930650D02*
X1213160D01*
G01X1195780Y3917950D02*
X1225860D01*
G01X-41880Y3930650D02*
X-27370D01*
G01X-41880Y3917950D02*
X-27370D01*
G01X-1727200Y3930650D02*
X-1723710D01*
G01X-1727200Y3917950D02*
X-1722520D01*
G01X-1823650Y3930650D02*
X-1803400D01*
G01X-1823650Y3917950D02*
X-1803400D01*
G01X1583370Y3905250D02*
X1613650D01*
G01X1583370Y3892550D02*
X1613650D01*
G01X1193620Y3905250D02*
X1238560D01*
G01X1188160Y3892550D02*
X1250050D01*
G01X-41880Y3905250D02*
X-27370D01*
G01X-41880Y3892550D02*
X-27370D01*
G01X-1727200Y3905250D02*
X-1720110D01*
G01X-1727200Y3892550D02*
X-1716410D01*
G01X-1823650Y3905250D02*
X-1803400D01*
G01X-1823650Y3892550D02*
X-1803400D01*
G01X1583370Y3879850D02*
X1613650D01*
G01X1583370Y3867150D02*
X1613650D01*
G01X1244600Y3879850D02*
X1261300D01*
G01X1244600Y3867150D02*
X1274010D01*
G01X1178450Y3879850D02*
X1193800D01*
G01X1167470Y3867150D02*
X1193800D01*
G01X-41880Y3879850D02*
X-27370D01*
G01X-41880Y3867150D02*
X-27370D01*
G01X-1727200Y3879850D02*
X-1711310D01*
G01X-1727200Y3867150D02*
X-1704610D01*
G01X-1823650Y3879850D02*
X-1803400D01*
G01X-1823650Y3867150D02*
X-1803400D01*
G01X1583370Y3854450D02*
X1613650D01*
G01X1583370Y3841750D02*
X1613650D01*
G01X1270000Y3854450D02*
X1286710D01*
G01X1270000Y3841750D02*
X1299410D01*
G01X1156500Y3854450D02*
X1168400D01*
G01X1145530Y3841750D02*
X1168400D01*
G01X-41880Y3854450D02*
X-27370D01*
G01X-41880Y3841750D02*
X-27370D01*
G01X-1701800Y3854450D02*
X-1696040D01*
G01X-1701800Y3841750D02*
X-1685080D01*
G01X-1823650Y3854450D02*
X-1803400D01*
G01X-1823650Y3841750D02*
X-1803400D01*
G01X1583370Y3829050D02*
X1613650D01*
G01X1583370Y3816350D02*
X1613650D01*
G01X1295400Y3829050D02*
X1313690D01*
G01X1295400Y3816350D02*
X1314430D01*
G01X1156500Y3829050D02*
X1193800D01*
G01X1167470Y3816350D02*
X1193800D01*
G01X-41880Y3829050D02*
X-27370D01*
G01X-41880Y3816350D02*
X-27370D01*
G01X-1701800Y3829050D02*
X-1670810D01*
G01X-1701800Y3816350D02*
X-1670070D01*
G01X-1823650Y3829050D02*
X-1803400D01*
G01X-1823650Y3816350D02*
X-1803400D01*
G01X1583370Y3803650D02*
X1613650D01*
G01X1583370Y3790950D02*
X1613650D01*
G01X1295400Y3803650D02*
X1314430D01*
G01X1295400Y3790950D02*
X1313670D01*
G01X1178450Y3803650D02*
X1193800D01*
G01X1188160Y3790950D02*
X1193800D01*
G01X-41880Y3803650D02*
X-27370D01*
G01X-41880Y3790950D02*
X-27370D01*
G01X-1701800Y3803650D02*
X-1670070D01*
G01X-1701800Y3790950D02*
X-1670810D01*
G01X-1823650Y3803650D02*
X-1803400D01*
G01X-1823650Y3790950D02*
X-1803400D01*
G01X1583370Y3778250D02*
X1613650D01*
G01X1583370Y3765550D02*
X1613650D01*
G01X1270000Y3778250D02*
X1299410D01*
G01X1270000Y3765550D02*
X1288450D01*
G01X1193620Y3778250D02*
X1219200D01*
G01X1195780Y3765550D02*
X1219200D01*
G01X-41880Y3778250D02*
X-27370D01*
G01X-41880Y3765550D02*
X-27370D01*
G01X-1701800Y3778250D02*
X-1685080D01*
G01X-1701800Y3765550D02*
X-1696040D01*
G01X-1823650Y3778250D02*
X-1803400D01*
G01X-1823650Y3765550D02*
X-1803400D01*
G01X1583370Y3752850D02*
X1613650D01*
G01X1583370Y3740150D02*
X1613650D01*
G01X1270000Y3752850D02*
X1279880D01*
G01X1270000Y3740150D02*
X1273180D01*
G01X1195860Y3752850D02*
X1219200D01*
G01X1195860Y3740150D02*
X1219200D01*
G01X-41880Y3752850D02*
X-27370D01*
G01X-41880Y3740150D02*
X-27370D01*
G01X-1727200Y3752850D02*
X-1704610D01*
G01X-1727200Y3740150D02*
X-1711310D01*
G01X-1823650Y3752850D02*
X-1803400D01*
G01X-1823650Y3740150D02*
X-1803400D01*
G01X1583370Y3727450D02*
X1613650D01*
G01X1583370Y3714750D02*
X1613650D01*
G01X1244600Y3727450D02*
X1268080D01*
G01X1244600Y3714750D02*
X1264380D01*
G01X1195860Y3727450D02*
X1219200D01*
G01X1195860Y3714750D02*
X1219200D01*
G01X-41880Y3727450D02*
X-27370D01*
G01X-41880Y3714750D02*
X-27370D01*
G01X-1727200Y3727450D02*
X-1716410D01*
G01X-1727200Y3714750D02*
X-1720110D01*
G01X-1823650Y3727450D02*
X-1803400D01*
G01X-1823650Y3714750D02*
X-1803400D01*
G01X1583370Y3702050D02*
X1613650D01*
G01X1583370Y3689350D02*
X1613650D01*
G01X1244600Y3702050D02*
X1261970D01*
G01X1244600Y3689350D02*
X1260780D01*
G01X1195860Y3702050D02*
X1219200D01*
G01X1195860Y3689350D02*
X1219200D01*
G01X-41880Y3702050D02*
X-27370D01*
G01X-41880Y3689350D02*
X-27370D01*
G01X-1727200Y3702050D02*
X-1722520D01*
G01X-1727200Y3689350D02*
X-1723710D01*
G01X-1823650Y3702050D02*
X-1803400D01*
G01X-1823650Y3689350D02*
X-1803400D01*
G01X1583370Y3676650D02*
X1613650D01*
G01X1583370Y3663950D02*
X1613650D01*
G01X1244600Y3676650D02*
X1260780D01*
G01X1244600Y3663950D02*
X1261970D01*
G01X1195860Y3676650D02*
X1219200D01*
G01X1195860Y3663950D02*
X1219200D01*
G01X-41880Y3676650D02*
X-27370D01*
G01X-41880Y3663950D02*
X-27370D01*
G01X-1727200Y3676650D02*
X-1723710D01*
G01X-1727200Y3663950D02*
X-1722520D01*
G01X-1823650Y3676650D02*
X-1803400D01*
G01X-1823650Y3663950D02*
X-1803400D01*
G01X1583370Y3651250D02*
X1613650D01*
G01X1583370Y3638550D02*
X1613650D01*
G01X1244600Y3651250D02*
X1264380D01*
G01X1244600Y3638550D02*
X1268080D01*
G01X1195860Y3651250D02*
X1219200D01*
G01X1195720Y3638550D02*
X1219200D01*
G01X-41880Y3651250D02*
X-27370D01*
G01X-41880Y3638550D02*
X-27370D01*
G01X-1727200Y3651250D02*
X-1720110D01*
G01X-1727200Y3638550D02*
X-1716410D01*
G01X-1823650Y3651250D02*
X-1803400D01*
G01X-1823650Y3638550D02*
X-1803400D01*
G01X1583370Y3625850D02*
X1613650D01*
G01X1583370Y3613150D02*
X1613650D01*
G01X1270000Y3625850D02*
X1273190D01*
G01X1270000Y3613150D02*
X1279880D01*
G01X1193350Y3625850D02*
X1219200D01*
G01X1187620Y3613150D02*
X1219200D01*
G01X-41880Y3625850D02*
X-27370D01*
G01X-41880Y3613150D02*
X-27370D01*
G01X-1727200Y3625850D02*
X-1711310D01*
G01X-1727200Y3613150D02*
X-1704610D01*
G01X-1823650Y3625850D02*
X-1803400D01*
G01X-1823650Y3613150D02*
X-1803400D01*
G01X1583370Y3600450D02*
X1613650D01*
G01X1583370Y3587750D02*
X1613650D01*
G01X1270000Y3600450D02*
X1288460D01*
G01X1270000Y3587750D02*
X1299410D01*
G01X1177030Y3600450D02*
X1193800D01*
G01X1183480Y3587750D02*
X1193800D01*
G01X-41880Y3600450D02*
X-27370D01*
G01X-41880Y3587750D02*
X-27370D01*
G01X-1701800Y3600450D02*
X-1696040D01*
G01X-1701800Y3587750D02*
X-1685080D01*
G01X-1823650Y3600450D02*
X-1803400D01*
G01X-1823650Y3587750D02*
X-1803400D01*
G01X1583370Y3575050D02*
X1613650D01*
G01X1583370Y3562350D02*
X1613650D01*
G01X1460560D02*
X1470630D01*
G01X1295400Y3575050D02*
X1313680D01*
G01X1295400Y3562350D02*
X1333440D01*
G01X1191150Y3575050D02*
X1219200D01*
G01X1194990Y3562350D02*
X1219200D01*
G01X-41880Y3575050D02*
X-27370D01*
G01X-41880Y3562350D02*
X-27370D01*
G01X-1701800Y3575050D02*
X-1670820D01*
G01X-1701800Y3562350D02*
X-1660870D01*
G01X-1823650Y3575050D02*
X-1803400D01*
G01X-1823650Y3562350D02*
X-1803400D01*
G01X1583370Y3549650D02*
X1613650D01*
G01X1583370Y3536950D02*
X1613650D01*
G01X1425520Y3549650D02*
X1470630D01*
G01X1346200D02*
X1368470D01*
G01X1346200Y3536950D02*
X1470630D01*
G01X1195860Y3549650D02*
X1219200D01*
G01X1195860Y3536950D02*
X1219200D01*
G01X-41880Y3549650D02*
X-27370D01*
G01X-41880Y3536950D02*
X-27370D01*
G01X-1701800Y3549650D02*
X-1673570D01*
G01X-1701800Y3536950D02*
X-1686270D01*
G01X-1823650Y3549650D02*
X-1803400D01*
G01X-1823650Y3536950D02*
X-1803400D01*
G01X1583370Y3524250D02*
X1613650D01*
G01X1583370Y3511550D02*
X1613650D01*
G01X1447800Y3524250D02*
X1470630D01*
G01X1447800Y3511550D02*
X1470630D01*
G01X1195860Y3524250D02*
X1219200D01*
G01X1195860Y3511550D02*
X1219200D01*
G01X-41880Y3524250D02*
X-27370D01*
G01X-41880Y3511550D02*
X-27370D01*
G01X-1727200Y3524250D02*
X-1698970D01*
G01X-1727200Y3511550D02*
X-1711670D01*
G01X-1823650Y3524250D02*
X-1803400D01*
G01X-1823650Y3511550D02*
X-1803400D01*
G01X1583370Y3498850D02*
X1613650D01*
G01X1583370Y3486150D02*
X1613650D01*
G01X1447800Y3498850D02*
X1470630D01*
G01X1447800Y3486150D02*
X1470630D01*
G01X1195860Y3498850D02*
X1219200D01*
G01X1195860Y3486150D02*
X1219200D01*
G01X-41880Y3498850D02*
X-27370D01*
G01X-41880Y3486150D02*
X-27370D01*
G01X-1752600Y3498850D02*
X-1724370D01*
G01X-1752600Y3486150D02*
X-1737070D01*
G01X-1823650Y3498850D02*
X-1803400D01*
G01X-1823650Y3486150D02*
X-1803400D01*
G01X1583370Y3473450D02*
X1613650D01*
G01X1583370Y3460750D02*
X1613650D01*
G01X1447800Y3473450D02*
X1470630D01*
G01X1447800Y3460750D02*
X1470630D01*
G01X1195860Y3473450D02*
X1219200D01*
G01X1195860Y3460750D02*
X1219200D01*
G01X568650Y3473450D02*
X570620D01*
G01X555950Y3460750D02*
X570620D01*
G01X-41880Y3473450D02*
X-27370D01*
G01X-41880Y3460750D02*
X-27370D01*
G01X-1778000Y3473450D02*
X-1749770D01*
G01X-1778000Y3460750D02*
X-1762470D01*
G01X-1823650Y3473450D02*
X-1803400D01*
G01X-1823650Y3460750D02*
X-1803400D01*
G01X1583370Y3448050D02*
X1613650D01*
G01X1583370Y3435350D02*
X1613650D01*
G01X1447800Y3448050D02*
X1470630D01*
G01X1447800Y3435350D02*
X1470630D01*
G01X1195860Y3448050D02*
X1219200D01*
G01X1195860Y3435350D02*
X1219200D01*
G01X543250Y3448050D02*
X570620D01*
G01X530550Y3435350D02*
X570620D01*
G01X-41880Y3448050D02*
X-27370D01*
G01X-41880Y3435350D02*
X-27370D01*
G01X-1778000Y3448050D02*
X-1773870D01*
G01X-1778000Y3435350D02*
X-1773870D01*
G01X-1823650Y3448050D02*
X-1803400D01*
G01X-1823650Y3435350D02*
X-1803400D01*
G01X1583370Y3422650D02*
X1613650D01*
G01X1583370Y3409950D02*
X1613650D01*
G01X1447800Y3422650D02*
X1470630D01*
G01X1447800Y3409950D02*
X1470630D01*
G01X1194990Y3422650D02*
X1219200D01*
G01X1191150Y3409950D02*
X1219200D01*
G01X775290D02*
X913310D01*
G01X558800Y3422650D02*
X570750D01*
G01X558800Y3409950D02*
X573110D01*
G01X517860Y3422650D02*
X533400D01*
G01X505160Y3409950D02*
X533400D01*
G01X-41880Y3422650D02*
X-27370D01*
G01X-41880Y3409950D02*
X-27370D01*
G01X-1778000Y3422650D02*
X-1773870D01*
G01X-1778000Y3409950D02*
X-1773870D01*
G01X-1823650Y3422650D02*
X-1803400D01*
G01X-1823650Y3409950D02*
X-1803400D01*
G01X1583370Y3397250D02*
X1613650D01*
G01X1583370Y3384550D02*
X1613650D01*
G01X1447800Y3397250D02*
X1470630D01*
G01X1447800Y3384550D02*
X1470630D01*
G01X1183470Y3397250D02*
X1193800D01*
G01X1169110Y3384550D02*
X1193800D01*
G01X914400Y3397250D02*
X942580D01*
G01X914400Y3384550D02*
X983720D01*
G01X760010Y3397250D02*
X787400D01*
G01X744730Y3384550D02*
X787400D01*
G01X558800Y3397250D02*
X578810D01*
G01X558800Y3384550D02*
X589350D01*
G01X492460Y3397250D02*
X508000D01*
G01X479760Y3384550D02*
X508000D01*
G01X-41880Y3397250D02*
X-27370D01*
G01X-41880Y3384550D02*
X-27370D01*
G01X-1778000Y3397250D02*
X-1773870D01*
G01X-1778000Y3384550D02*
X-1773870D01*
G01X-1823650Y3397250D02*
X-1803400D01*
G01X-1823650Y3384550D02*
X-1803400D01*
G01X1583370Y3371850D02*
X1613650D01*
G01X1583370Y3359150D02*
X1613650D01*
G01X1447800Y3371850D02*
X1470630D01*
G01X1447800Y3359150D02*
X1470630D01*
G01X990600Y3371850D02*
X1168400D01*
G01X990600Y3359150D02*
X1168400D01*
G01X720810Y3371850D02*
X736600D01*
G01X533400D02*
X613210D01*
G01X533400Y3359150D02*
X736600D01*
G01X383010Y3371850D02*
X482600D01*
G01X383000Y3359150D02*
X482600D01*
G01X-41880Y3371850D02*
X-27370D01*
G01X-41880Y3359150D02*
X-27370D01*
G01X-866430Y3371850D02*
X-483460D01*
G01X-879130Y3359150D02*
X-493720D01*
G01X-1778000Y3371850D02*
X-1773870D01*
G01X-1778000Y3359150D02*
X-1773870D01*
G01X-1823650Y3371850D02*
X-1803400D01*
G01X-1823650Y3359150D02*
X-1803400D01*
G01X1583370Y3346450D02*
X1613650D01*
G01X1583370Y3333750D02*
X1613650D01*
G01X1447800Y3346450D02*
X1470630D01*
G01X1447800Y3333750D02*
X1470630D01*
G01X705120Y3346450D02*
X736600D01*
G01X719480Y3333750D02*
X736600D01*
G01X482600Y3346450D02*
X525890D01*
G01X482600Y3333750D02*
X511530D01*
G01X392300Y3346450D02*
X406400D01*
G01X398570Y3333750D02*
X406400D01*
G01X-41880Y3346450D02*
X-27370D01*
G01X-41880Y3333750D02*
X-27370D01*
G01X-533400Y3346450D02*
X-501100D01*
G01X-533400Y3333750D02*
X-506270D01*
G01X-891830Y3346450D02*
X-863600D01*
G01X-904530Y3333750D02*
X-863600D01*
G01X-1778000Y3346450D02*
X-1773870D01*
G01X-1778000Y3333750D02*
X-1773870D01*
G01X-1823650Y3346450D02*
X-1803400D01*
G01X-1823650Y3333750D02*
X-1803400D01*
G01X1583370Y3321050D02*
X1613650D01*
G01X1583370Y3308350D02*
X1613650D01*
G01X1447800Y3321050D02*
X1470630D01*
G01X1447800Y3308350D02*
X1470630D01*
G01X727160Y3321050D02*
X914400D01*
G01X901820Y3308350D02*
X914400D01*
G01X482600Y3321050D02*
X503850D01*
G01X482600Y3308350D02*
X500010D01*
G01X402490Y3321050D02*
X406400D01*
G01X404380Y3308350D02*
X406400D01*
G01X-41880Y3321050D02*
X-27370D01*
G01X-41880Y3308350D02*
X-27370D01*
G01X-533400Y3321050D02*
X-509560D01*
G01X-533400Y3308350D02*
X-511170D01*
G01X-917230Y3321050D02*
X-889000D01*
G01X-929930Y3308350D02*
X-889000D01*
G01X-1778000Y3321050D02*
X-1773870D01*
G01X-1778000Y3308350D02*
X-1773870D01*
G01X-1823650Y3321050D02*
X-1803400D01*
G01X-1823650Y3308350D02*
X-1803400D01*
G01X1583370Y3295650D02*
X1613650D01*
G01X1583370Y3282950D02*
X1613650D01*
G01X1447800Y3295650D02*
X1470630D01*
G01X1447800Y3282950D02*
X1470630D01*
G01X904560Y3295650D02*
X914400D01*
G01X904560Y3282950D02*
X914400D01*
G01X482600Y3295650D02*
X499140D01*
G01X482600Y3282950D02*
X499140D01*
G01X404380Y3295650D02*
X431800D01*
G01X417020Y3282950D02*
X431800D01*
G01X-41880Y3295650D02*
X-27370D01*
G01X-41880Y3282950D02*
X-27370D01*
G01X-533400Y3295650D02*
X-511170D01*
G01X-533400Y3282950D02*
X-509560D01*
G01X-940130Y3295650D02*
X-914400D01*
G01X-940130Y3282950D02*
X-914400D01*
G01X-1778000Y3295650D02*
X-1773870D01*
G01X-1778000Y3282950D02*
X-1773870D01*
G01X-1823650Y3295650D02*
X-1803400D01*
G01X-1823650Y3282950D02*
X-1803400D01*
G01X1583370Y3270250D02*
X1613650D01*
G01X1583370Y3257550D02*
X1613650D01*
G01X1447800Y3270250D02*
X1470630D01*
G01X1447800Y3257550D02*
X1470630D01*
G01X904560Y3270250D02*
X914400D01*
G01X904560Y3257550D02*
X914400D01*
G01X482600Y3270250D02*
X499140D01*
G01X482600Y3257550D02*
X499140D01*
G01X429720Y3270250D02*
X457200D01*
G01X442420Y3257550D02*
X457200D01*
G01X-41880Y3270250D02*
X-27370D01*
G01X-41880Y3257550D02*
X-27370D01*
G01X-533400Y3270250D02*
X-506270D01*
G01X-533400Y3257550D02*
X-501100D01*
G01X-940130Y3270250D02*
X-939800D01*
G01X-940130Y3257550D02*
X-939800D01*
G01X-1778000Y3270250D02*
X-1773870D01*
G01X-1778000Y3257550D02*
X-1773870D01*
G01X-1823650Y3270250D02*
X-1803400D01*
G01X-1823650Y3257550D02*
X-1803400D01*
G01X1583370Y3244850D02*
X1613650D01*
G01X1583370Y3232150D02*
X1613650D01*
G01X1270000Y3244850D02*
X1298830D01*
G01X1270000Y3232150D02*
X1277960D01*
G01X904560Y3244850D02*
X914400D01*
G01X904560Y3232150D02*
X914400D01*
G01X455120Y3244850D02*
X499140D01*
G01X467820Y3232150D02*
X499140D01*
G01X-41880Y3244850D02*
X-27370D01*
G01X-41880Y3232150D02*
X-19100D01*
G01X-508000Y3244850D02*
X-493720D01*
G01X-508000Y3232150D02*
X-483460D01*
G01X-940130Y3244850D02*
X-914400D01*
G01X-940130Y3232150D02*
X-914400D01*
G01X-1778000Y3244850D02*
X-1773870D01*
G01X-1778000Y3232150D02*
X-1773870D01*
G01X-1823650Y3244850D02*
X-1803400D01*
G01X-1823650Y3232150D02*
X-1803400D01*
G01X1583370Y3219450D02*
X1613650D01*
G01X1583370Y3206750D02*
X1613650D01*
G01X1244600Y3219450D02*
X1268060D01*
G01X1244600Y3206750D02*
X1262740D01*
G01X904560Y3219450D02*
X914400D01*
G01X904560Y3206750D02*
X914400D01*
G01X480520Y3219450D02*
X499140D01*
G01X493220Y3206750D02*
X499140D01*
G01X-41880Y3219450D02*
X-6400D01*
G01X-41880Y3206750D02*
X6300D01*
G01X-482600Y3219450D02*
X-468830D01*
G01X-482600Y3206750D02*
X-444680D01*
G01X-906890Y3219450D02*
X-863600D01*
G01X-892530Y3206750D02*
X-863600D01*
G01X-1778000Y3219450D02*
X-1773870D01*
G01X-1778000Y3206750D02*
X-1773870D01*
G01X-1823650Y3219450D02*
X-1803400D01*
G01X-1823650Y3206750D02*
X-1803400D01*
G01X1583370Y3194050D02*
X1613650D01*
G01X1583370Y3181350D02*
X1613650D01*
G01X1244600Y3194050D02*
X1260700D01*
G01X1244600Y3181350D02*
X1260640D01*
G01X904560Y3194050D02*
X914400D01*
G01X904560Y3181350D02*
X914400D01*
G01X0Y3194050D02*
X19000D01*
G01X0Y3181350D02*
X31700D01*
G01X-41880Y3194050D02*
X-25400D01*
G01X-41880Y3181350D02*
X-25400D01*
G01X-406400Y3194050D02*
X-402490D01*
G01X-406400Y3181350D02*
X-404380D01*
G01X-884850Y3194050D02*
X-863600D01*
G01X-881010Y3181350D02*
X-863600D01*
G01X-1778000Y3194050D02*
X-1773870D01*
G01X-1778000Y3181350D02*
X-1773870D01*
G01X-1823650Y3194050D02*
X-1803400D01*
G01X-1823650Y3181350D02*
X-1803400D01*
G01X1583370Y3168650D02*
X1613650D01*
G01X1583370Y3155950D02*
X1613650D01*
G01X1244600Y3168650D02*
X1260640D01*
G01X1244600Y3155950D02*
X1260640D01*
G01X901820Y3168650D02*
X914400D01*
G01X727160Y3155950D02*
X914400D01*
G01X25400Y3168650D02*
X44400D01*
G01X25400Y3155950D02*
X57100D01*
G01X-44400Y3168650D02*
X-25400D01*
G01X-57100Y3155950D02*
X-25400D01*
G01X-406400Y3168650D02*
X-404380D01*
G01X-406400Y3155950D02*
X-402490D01*
G01X-880140Y3168650D02*
X-863600D01*
G01X-880140Y3155950D02*
X-863600D01*
G01X-1778000Y3168650D02*
X-1773870D01*
G01X-1778000Y3155950D02*
X-1773870D01*
G01X-1823650Y3168650D02*
X-1803400D01*
G01X-1823650Y3155950D02*
X-1803400D01*
G01X1583370Y3143250D02*
X1613650D01*
G01X1583370Y3130550D02*
X1613650D01*
G01X1244600Y3143250D02*
X1260640D01*
G01X1244600Y3130550D02*
X1260640D01*
G01X719480Y3143250D02*
X736600D01*
G01X705120Y3130550D02*
X736600D01*
G01X50800Y3143250D02*
X69800D01*
G01X50800Y3130550D02*
X82500D01*
G01X-28810Y3143250D02*
X25400D01*
G01X-4660Y3130550D02*
X25400D01*
G01X-406400Y3143250D02*
X-398570D01*
G01X-406400Y3130550D02*
X-392300D01*
G01X-880140Y3143250D02*
X-863600D01*
G01X-880140Y3130550D02*
X-863600D01*
G01X-1778000Y3143250D02*
X-1773870D01*
G01X-1778000Y3130550D02*
X-1773870D01*
G01X-1823650Y3143250D02*
X-1803400D01*
G01X-1823650Y3130550D02*
X-1803400D01*
G01X1583370Y3117850D02*
X1613650D01*
G01X1583370Y3105150D02*
X1613650D01*
G01X1244600Y3117850D02*
X1260640D01*
G01X1244600Y3105150D02*
X1260640D01*
G01X574560Y3117850D02*
X711200D01*
G01X561870Y3105150D02*
X711200D01*
G01X76200Y3117850D02*
X113490D01*
G01X76200Y3105150D02*
X113500D01*
G01X9960Y3117850D02*
X25400D01*
G01X20230Y3105150D02*
X25400D01*
G01X-406400Y3117850D02*
X-383000D01*
G01X-406400Y3105150D02*
X-383000D01*
G01X-880140Y3117850D02*
X-863600D01*
G01X-880140Y3105150D02*
X-863600D01*
G01X-1778000Y3117850D02*
X-1773870D01*
G01X-1778000Y3105150D02*
X-1773870D01*
G01X-1823650Y3117850D02*
X-1803400D01*
G01X-1823650Y3105150D02*
X-1803400D01*
G01X1583370Y3092450D02*
X1613650D01*
G01X1583370Y3079750D02*
X1613650D01*
G01X1244600Y3092450D02*
X1260640D01*
G01X1244600Y3079750D02*
X1260640D01*
G01X549170Y3092450D02*
X558800D01*
G01X502220Y3079750D02*
X558800D01*
G01X76200Y3092450D02*
X104200D01*
G01X76200Y3079750D02*
X97930D01*
G01X27610Y3092450D02*
X50800D01*
G01X32770Y3079750D02*
X50800D01*
G01X-406400Y3092450D02*
X-392300D01*
G01X-406400Y3079750D02*
X-398570D01*
G01X-880140Y3092450D02*
X-863600D01*
G01X-880140Y3079750D02*
X-863600D01*
G01X-1778000Y3092450D02*
X-1773870D01*
G01X-1778000Y3079750D02*
X-1773870D01*
G01X-1823650Y3092450D02*
X-1803400D01*
G01X-1823650Y3079750D02*
X-1803400D01*
G01X1583370Y3067050D02*
X1613650D01*
G01X1583370Y3054350D02*
X1613650D01*
G01X1244600Y3067050D02*
X1260640D01*
G01X1244600Y3054350D02*
X1260640D01*
G01X505510Y3067050D02*
X508000D01*
G01X507120Y3054350D02*
X508000D01*
G01X76200Y3067050D02*
X94010D01*
G01X76200Y3054350D02*
X92120D01*
G01X36070Y3067050D02*
X50800D01*
G01X37670Y3054350D02*
X50800D01*
G01X-406400Y3067050D02*
X-402490D01*
G01X-406400Y3054350D02*
X-404380D01*
G01X-880140Y3067050D02*
X-863600D01*
G01X-880140Y3054350D02*
X-863600D01*
G01X-1778000Y3067050D02*
X-1773870D01*
G01X-1778000Y3054350D02*
X-1773870D01*
G01X-1823650Y3067050D02*
X-1803400D01*
G01X-1823650Y3054350D02*
X-1803400D01*
G01X1583370Y3041650D02*
X1613650D01*
G01X1583370Y3028950D02*
X1613650D01*
G01X1244600Y3041650D02*
X1260640D01*
G01X1244600Y3028950D02*
X1260700D01*
G01X507120Y3041650D02*
X736600D01*
G01X705120Y3028950D02*
X736600D01*
G01X505510D02*
X525860D01*
G01X76200Y3041650D02*
X92120D01*
G01X76200Y3028950D02*
X94010D01*
G01X37670Y3041650D02*
X50800D01*
G01X36060Y3028950D02*
X50800D01*
G01X-406400Y3041650D02*
X-404380D01*
G01X-406400Y3028950D02*
X-402490D01*
G01X-881010Y3041650D02*
X-863600D01*
G01X-884850Y3028950D02*
X-863600D01*
G01X-1778000Y3041650D02*
X-1773870D01*
G01X-1778000Y3028950D02*
X-1773870D01*
G01X-1823650Y3041650D02*
X-1803400D01*
G01X-1823650Y3028950D02*
X-1803400D01*
G01X1583370Y3016250D02*
X1613650D01*
G01X1583370Y3003550D02*
X1613650D01*
G01X1244600Y3016250D02*
X1262740D01*
G01X1244600Y3003550D02*
X1268060D01*
G01X719480Y3016250D02*
X914400D01*
G01X727160Y3003550D02*
X914400D01*
G01X502220Y3016250D02*
X510070D01*
G01X76200D02*
X97930D01*
G01X76200Y3003550D02*
X104200D01*
G01X32770Y3016250D02*
X50800D01*
G01X27610Y3003550D02*
X50800D01*
G01X-406400Y3016250D02*
X-398570D01*
G01X-406400Y3003550D02*
X-392300D01*
G01X-475310Y3016250D02*
X-431800D01*
G01X-584200D02*
X-544690D01*
G01X-451170Y3003550D02*
X-431800D01*
G01X-584200D02*
X-568830D01*
G01X-892530Y3016250D02*
X-863600D01*
G01X-906890Y3003550D02*
X-863600D01*
G01X-1102520Y3016250D02*
X-1100480D01*
G01X-1116880Y3003550D02*
X-1086120D01*
G01X-1778000Y3016250D02*
X-1773870D01*
G01X-1778000Y3003550D02*
X-1773870D01*
G01X-1823650Y3016250D02*
X-1803400D01*
G01X-1823650Y3003550D02*
X-1803400D01*
G01X1583370Y2990850D02*
X1613650D01*
G01X1583370Y2978150D02*
X1613650D01*
G01X1270000Y2990850D02*
X1277960D01*
G01X1270000Y2978150D02*
X1298810D01*
G01X901820Y2990850D02*
X914400D01*
G01X904560Y2978150D02*
X914400D01*
G01X101600Y2990850D02*
X113500D01*
G01X101600Y2978150D02*
X113500D01*
G01X20220Y2990850D02*
X25400D01*
G01X9960Y2978150D02*
X25400D01*
G01X-436540Y2990850D02*
X-383000D01*
G01X-426280Y2978150D02*
X-383010D01*
G01X-609600Y2990850D02*
X-583460D01*
G01X-609600Y2978150D02*
X-593720D01*
G01X-1092200Y2990850D02*
X-914400D01*
G01X-1092200Y2978150D02*
X-914400D01*
G01X-1260130Y2990850D02*
X-1117600D01*
G01X-1260130Y2978150D02*
X-1117600D01*
G01X-1778000Y2990850D02*
X-1773870D01*
G01X-1778000Y2978150D02*
X-1773870D01*
G01X-1823650Y2990850D02*
X-1803400D01*
G01X-1823650Y2978150D02*
X-1803400D01*
G01X1583370Y2965450D02*
X1613650D01*
G01X1583370Y2952750D02*
X1613650D01*
G01X1295400Y2965450D02*
X1314430D01*
G01X1295400Y2952750D02*
X1314430D01*
G01X904560Y2965450D02*
X914400D01*
G01X904560Y2952750D02*
X914400D01*
G01X76200Y2965450D02*
X104200D01*
G01X76200Y2952750D02*
X97930D01*
G01X-4670Y2965450D02*
X25400D01*
G01X-28810Y2952750D02*
X25400D01*
G01X-609600Y2965450D02*
X-601100D01*
G01X-609600Y2952750D02*
X-606270D01*
G01X-1260130Y2965450D02*
X-1244600D01*
G01X-1260130Y2952750D02*
X-1244600D01*
G01X-1778000Y2965450D02*
X-1773870D01*
G01X-1778000Y2952750D02*
X-1773870D01*
G01X-1823650Y2965450D02*
X-1803400D01*
G01X-1823650Y2952750D02*
X-1803400D01*
G01X1583370Y2940050D02*
X1613650D01*
G01X1583370Y2927350D02*
X1613650D01*
G01X1295400Y2940050D02*
X1314430D01*
G01X1295400Y2927350D02*
X1326740D01*
G01X904560Y2940050D02*
X914400D01*
G01X904560Y2927350D02*
X914400D01*
G01X76200Y2940050D02*
X94010D01*
G01X76200Y2927350D02*
X92120D01*
G01X-94000Y2940050D02*
X-76200D01*
G01X-92110Y2927350D02*
X-76200D01*
G01X-635000Y2940050D02*
X-609560D01*
G01X-635000Y2927350D02*
X-611170D01*
G01X-1260130Y2940050D02*
X-1244600D01*
G01X-1260130Y2927350D02*
X-1244600D01*
G01X-1778000Y2940050D02*
X-1773870D01*
G01X-1778000Y2927350D02*
X-1773870D01*
G01X-1823650Y2940050D02*
X-1803400D01*
G01X-1823650Y2927350D02*
X-1803400D01*
G01X1583370Y2914650D02*
X1613650D01*
G01X1583370Y2901950D02*
X1613650D01*
G01X1295400Y2914650D02*
X1316070D01*
G01X1295400Y2901950D02*
X1308460D01*
G01X904560Y2914650D02*
X914400D01*
G01X904560Y2901950D02*
X914400D01*
G01X76200Y2914650D02*
X92120D01*
G01X76200Y2901950D02*
X94010D01*
G01X-92110Y2914650D02*
X-76200D01*
G01X-94010Y2901950D02*
X-76200D01*
G01X-635000Y2914650D02*
X-611170D01*
G01X-635000Y2901950D02*
X-609560D01*
G01X-1066800Y2914650D02*
X-965200D01*
G01X-1066800Y2901950D02*
X-965200D01*
G01X-1260130Y2914650D02*
X-1244600D01*
G01X-1260130Y2901950D02*
X-1244600D01*
G01X-1778000Y2914650D02*
X-1773870D01*
G01X-1778000Y2901950D02*
X-1773870D01*
G01X-1823650Y2914650D02*
X-1803400D01*
G01X-1823650Y2901950D02*
X-1803400D01*
G01X1583370Y2889250D02*
X1613650D01*
G01X1583370Y2876550D02*
X1613650D01*
G01X1295400Y2889250D02*
X1303150D01*
G01X1295400Y2876550D02*
X1299780D01*
G01X904560Y2889250D02*
X914400D01*
G01X904560Y2876550D02*
X914400D01*
G01X76200Y2889250D02*
X97930D01*
G01X76200Y2876550D02*
X104200D01*
G01X-97930Y2889250D02*
X-76200D01*
G01X-104200Y2876550D02*
X-76200D01*
G01X-609600Y2889250D02*
X-606270D01*
G01X-609600Y2876550D02*
X-601100D01*
G01X-951680Y2889250D02*
X-889000D01*
G01X-1143000D02*
X-1080320D01*
G01X-917910Y2876550D02*
X-889000D01*
G01X-1143000D02*
X-1114090D01*
G01X-1260130Y2889250D02*
X-1244600D01*
G01X-1260130Y2876550D02*
X-1244600D01*
G01X-1778000Y2889250D02*
X-1773870D01*
G01X-1778000Y2876550D02*
X-1773870D01*
G01X-1823650Y2889250D02*
X-1803400D01*
G01X-1823650Y2876550D02*
X-1803400D01*
G01X1583370Y2863850D02*
X1613650D01*
G01X1583370Y2851150D02*
X1613650D01*
G01X1295400Y2863850D02*
X1298130D01*
G01X1295400Y2851150D02*
X1298130D01*
G01X904560Y2863850D02*
X914400D01*
G01X901820Y2851150D02*
X914400D01*
G01X101600Y2863850D02*
X113500D01*
G01X101600Y2851150D02*
X113500D01*
G01X-113500Y2863850D02*
X-101600D01*
G01X-113500Y2851150D02*
X-101600D01*
G01X-426280Y2863850D02*
X-383010D01*
G01X-436540Y2851150D02*
X-383000D01*
G01X-609600Y2863850D02*
X-593720D01*
G01X-609600Y2851150D02*
X-583460D01*
G01X-894420Y2863850D02*
X-863600D01*
G01X-1168400D02*
X-1137580D01*
G01X-875930Y2851150D02*
X-863600D01*
G01X-1168400D02*
X-1156070D01*
G01X-1260130Y2863850D02*
X-1244600D01*
G01X-1260130Y2851150D02*
X-1244600D01*
G01X-1778000Y2863850D02*
X-1773870D01*
G01X-1778000Y2851150D02*
X-1773870D01*
G01X-1823650Y2863850D02*
X-1803400D01*
G01X-1823650Y2851150D02*
X-1803400D01*
G01X1583370Y2838450D02*
X1613650D01*
G01X1583370Y2825750D02*
X1613650D01*
G01X1295400Y2838450D02*
X1299780D01*
G01X1295400Y2825750D02*
X1303150D01*
G01X727160Y2838450D02*
X914400D01*
G01X719480Y2825750D02*
X914400D01*
G01X76200Y2838450D02*
X104200D01*
G01X76200Y2825750D02*
X97930D01*
G01X-104200Y2838450D02*
X-76200D01*
G01X-97930Y2825750D02*
X-76200D01*
G01X-406400Y2838450D02*
X-392300D01*
G01X-406400Y2825750D02*
X-398570D01*
G01X-451170Y2838450D02*
X-431800D01*
G01X-584200D02*
X-568830D01*
G01X-475310Y2825750D02*
X-431800D01*
G01X-584200D02*
X-544690D01*
G01X-860640Y2838450D02*
X-838200D01*
G01X-1193800D02*
X-1171360D01*
G01X-847680Y2825750D02*
X-838200D01*
G01X-1193800D02*
X-1184320D01*
G01X-1260130Y2838450D02*
X-1244600D01*
G01X-1260130Y2825750D02*
X-1244600D01*
G01X-1778000Y2838450D02*
X-1773870D01*
G01X-1778000Y2825750D02*
X-1773870D01*
G01X-1823650Y2838450D02*
X-1803400D01*
G01X-1823650Y2825750D02*
X-1803400D01*
G01X1583370Y2813050D02*
X1613650D01*
G01X1583370Y2800350D02*
X1613650D01*
G01X1295400Y2813050D02*
X1308460D01*
G01X1295400Y2800350D02*
X1316080D01*
G01X705120Y2813050D02*
X736600D01*
G01X672670Y2800350D02*
X736600D01*
G01X76200Y2813050D02*
X94010D01*
G01X76200Y2800350D02*
X92120D01*
G01X-94010Y2813050D02*
X-76200D01*
G01X-92110Y2800350D02*
X-76200D01*
G01X-406400Y2813050D02*
X-402490D01*
G01X-406400Y2800350D02*
X-404390D01*
G01X-836550Y2813050D02*
X-812800D01*
G01X-1219200D02*
X-1195450D01*
G01X-826920Y2800350D02*
X-812800D01*
G01X-1219200D02*
X-1205080D01*
G01X-1260130Y2813050D02*
X-1244600D01*
G01X-1260130Y2800350D02*
X-1244600D01*
G01X-1778000Y2813050D02*
X-1773870D01*
G01X-1778000Y2800350D02*
X-1773870D01*
G01X-1823650Y2813050D02*
X-1803400D01*
G01X-1823650Y2800350D02*
X-1803400D01*
G01X1583370Y2787650D02*
X1613650D01*
G01X1583370Y2774950D02*
X1613650D01*
G01X1295400Y2787650D02*
X1326740D01*
G01X1295400Y2774950D02*
X1314430D01*
G01X672670Y2787650D02*
X685800D01*
G01X671060Y2774950D02*
X685800D01*
G01X76200Y2787650D02*
X92120D01*
G01X76200Y2774950D02*
X94010D01*
G01X-92110Y2787650D02*
X-76200D01*
G01X-94010Y2774950D02*
X-76200D01*
G01X-406400Y2787650D02*
X-404390D01*
G01X-406400Y2774950D02*
X-402490D01*
G01X-818580Y2787650D02*
X-787400D01*
G01X-1260130D02*
X-1213420D01*
G01X-811360Y2774950D02*
X-787400D01*
G01X-1260130D02*
X-1220640D01*
G01X-1778000Y2787650D02*
X-1773870D01*
G01X-1778000Y2774950D02*
X-1773870D01*
G01X-1823650Y2787650D02*
X-1803400D01*
G01X-1823650Y2774950D02*
X-1803400D01*
G01X1583370Y2762250D02*
X1613650D01*
G01X1583370Y2749550D02*
X1613650D01*
G01X1295400Y2762250D02*
X1314430D01*
G01X1295400Y2749550D02*
X1314430D01*
G01X667770Y2762250D02*
X685800D01*
G01X662610Y2749550D02*
X685800D01*
G01X76200Y2762250D02*
X97930D01*
G01X76200Y2749550D02*
X104200D01*
G01X-97930Y2762250D02*
X-76200D01*
G01X-104190Y2749550D02*
X-76200D01*
G01X-406400Y2762250D02*
X-398570D01*
G01X-406400Y2749550D02*
X-392310D01*
G01X-805150Y2762250D02*
X-787400D01*
G01X-1260130D02*
X-1226850D01*
G01X-799860Y2749550D02*
X-787400D01*
G01X-1260130D02*
X-1232140D01*
G01X-1778000Y2762250D02*
X-1773870D01*
G01X-1778000Y2749550D02*
X-1773870D01*
G01X-1823650Y2762250D02*
X-1803400D01*
G01X-1823650Y2749550D02*
X-1803400D01*
G01X1583370Y2736850D02*
X1613650D01*
G01X1583370Y2724150D02*
X1613650D01*
G01X1295400Y2736850D02*
X1314430D01*
G01X1295400Y2724150D02*
X1314430D01*
G01X655220Y2736850D02*
X660400D01*
G01X644960Y2724150D02*
X660400D01*
G01X383010Y2736850D02*
X485290D01*
G01X383000Y2724150D02*
X497990D01*
G01X101600Y2736850D02*
X113500D01*
G01X101600Y2724150D02*
X113500D01*
G01X-113490Y2736850D02*
X-101600D01*
G01X-127450Y2724150D02*
X-101600D01*
G01X-406400Y2736850D02*
X-383010D01*
G01X-406400Y2724150D02*
X-369050D01*
G01X-795430Y2736850D02*
X-787400D01*
G01X-1260130D02*
X-1236570D01*
G01X-791800Y2724150D02*
X-787400D01*
G01X-1260130D02*
X-1240200D01*
G01X-1778000Y2736850D02*
X-1773870D01*
G01X-1778000Y2724150D02*
X-1773870D01*
G01X-1823650Y2736850D02*
X-1803400D01*
G01X-1823650Y2724150D02*
X-1803400D01*
G01X1583370Y2711450D02*
X1613650D01*
G01X1583370Y2698750D02*
X1613650D01*
G01X1270000Y2711450D02*
X1313690D01*
G01X1270000Y2698750D02*
X1299420D01*
G01X630330Y2711450D02*
X660400D01*
G01X482600D02*
X512660D01*
G01X606190Y2698750D02*
X660400D01*
G01X482600D02*
X536810D01*
G01X392300Y2711450D02*
X406400D01*
G01X398570Y2698750D02*
X406400D01*
G01X76200Y2711450D02*
X104200D01*
G01X76200Y2698750D02*
X97930D01*
G01X-152850Y2711450D02*
X-127000D01*
G01X-140840Y2698750D02*
X-127000D01*
G01X-381000Y2711450D02*
X-343650D01*
G01X-381000Y2698750D02*
X-355660D01*
G01X-788940Y2711450D02*
X-762000D01*
G01X-1260130D02*
X-1243060D01*
G01X-786820Y2698750D02*
X-762000D01*
G01X-1260130D02*
X-1245180D01*
G01X-1778000Y2711450D02*
X-1773870D01*
G01X-1778000Y2698750D02*
X-1773870D01*
G01X-1823650Y2711450D02*
X-1803400D01*
G01X-1823650Y2698750D02*
X-1803400D01*
G01X1583370Y2686050D02*
X1613650D01*
G01X1583370Y2673350D02*
X1613650D01*
G01X1270000Y2686050D02*
X1288460D01*
G01X1270000Y2673350D02*
X1279890D01*
G01X402490Y2686050D02*
X406400D01*
G01X404380Y2673350D02*
X406400D01*
G01X76200Y2686050D02*
X94010D01*
G01X76200Y2673350D02*
X92120D01*
G01X-133030Y2686050D02*
X-127000D01*
G01X-129600Y2673350D02*
X-127000D01*
G01X-381000Y2686050D02*
X-363470D01*
G01X-381000Y2673350D02*
X-366900D01*
G01X-785420Y2686050D02*
X-762000D01*
G01X-1260130D02*
X-1246580D01*
G01X-784720Y2673350D02*
X-762000D01*
G01X-1260130D02*
X-1247280D01*
G01X-1778000Y2686050D02*
X-1773870D01*
G01X-1778000Y2673350D02*
X-1773870D01*
G01X-1823650Y2686050D02*
X-1803400D01*
G01X-1823650Y2673350D02*
X-1803400D01*
G01X1583370Y2660650D02*
X1613650D01*
G01X1583370Y2647950D02*
X1613650D01*
G01X1244600Y2660650D02*
X1273190D01*
G01X1244600Y2647950D02*
X1268090D01*
G01X404380Y2660650D02*
X406400D01*
G01X402490Y2647950D02*
X406400D01*
G01X76200Y2660650D02*
X92120D01*
G01X76200Y2647950D02*
X94010D01*
G01X-129600Y2660650D02*
X-127000D01*
G01X-133030Y2647950D02*
X-127000D01*
G01X-381000Y2660650D02*
X-366900D01*
G01X-381000Y2647950D02*
X-363470D01*
G01X-784720Y2660650D02*
X-762000D01*
G01X-1260130D02*
X-1247280D01*
G01X-785420Y2647950D02*
X-762000D01*
G01X-1260130D02*
X-1246580D01*
G01X-1778000Y2660650D02*
X-1773870D01*
G01X-1778000Y2647950D02*
X-1773870D01*
G01X-1823650Y2660650D02*
X-1803400D01*
G01X-1823650Y2647950D02*
X-1803400D01*
G01X1583370Y2635250D02*
X1613650D01*
G01X1583370Y2622550D02*
X1613650D01*
G01X1244600Y2635250D02*
X1264390D01*
G01X1244600Y2622550D02*
X1261980D01*
G01X398570Y2635250D02*
X406400D01*
G01X392300Y2622550D02*
X406400D01*
G01X76200Y2635250D02*
X97930D01*
G01X76200Y2622550D02*
X104200D01*
G01X-140850Y2635250D02*
X-127000D01*
G01X-381000D02*
X-355650D01*
G01X-157480Y2622550D02*
X-127000D01*
G01X-381000D02*
X-339020D01*
G01X-786820Y2635250D02*
X-762000D01*
G01X-1260130D02*
X-1245180D01*
G01X-788940Y2622550D02*
X-762000D01*
G01X-1260130D02*
X-1243060D01*
G01X-1778000Y2635250D02*
X-1773870D01*
G01X-1778000Y2622550D02*
X-1773870D01*
G01X-1823650Y2635250D02*
X-1803400D01*
G01X-1823650Y2622550D02*
X-1803400D01*
G01X1583370Y2609850D02*
X1613650D01*
G01X1580840Y2597150D02*
X1613650D01*
G01X1244600Y2609850D02*
X1260790D01*
G01X1244600Y2597150D02*
X1260790D01*
G01X383000Y2609850D02*
X406400D01*
G01X369040Y2597150D02*
X406400D01*
G01X101600Y2609850D02*
X113500D01*
G01X101600Y2597150D02*
X127460D01*
G01X-791800Y2609850D02*
X-787400D01*
G01X-1260130D02*
X-1240200D01*
G01X-795430Y2597150D02*
X-787400D01*
G01X-1260130D02*
X-1236570D01*
G01X-1778000Y2609850D02*
X-1773870D01*
G01X-1778000Y2597150D02*
X-1773870D01*
G01X-1823650Y2609850D02*
X-1803400D01*
G01X-1823650Y2597150D02*
X-1803400D01*
G01X1600200Y2584450D02*
X1613650D01*
G01X1600200Y2571750D02*
X1613650D01*
G01X1568140Y2584450D02*
X1574800D01*
G01X1555440Y2571750D02*
X1574800D01*
G01X1244600Y2584450D02*
X1261980D01*
G01X1244600Y2571750D02*
X1264390D01*
G01X343620Y2584450D02*
X381000D01*
G01X127000D02*
X152880D01*
G01X127000Y2571750D02*
X381000D01*
G01X-799860Y2584450D02*
X-787400D01*
G01X-1260130D02*
X-1232140D01*
G01X-805150Y2571750D02*
X-787400D01*
G01X-1260130D02*
X-1226850D01*
G01X-1778000Y2584450D02*
X-1773870D01*
G01X-1778000Y2571750D02*
X-1773870D01*
G01X-1823650Y2584450D02*
X-1803400D01*
G01X-1823650Y2571750D02*
X-1803400D01*
G01X1600200Y2559050D02*
X1613650D01*
G01X1600200Y2546350D02*
X1613650D01*
G01X1543950Y2559050D02*
X1549400D01*
G01X1532700Y2546350D02*
X1549400D01*
G01X1244600Y2559050D02*
X1268090D01*
G01X1244600Y2546350D02*
X1273190D01*
G01X-811360Y2559050D02*
X-787400D01*
G01X-1260130D02*
X-1220640D01*
G01X-818580Y2546350D02*
X-787400D01*
G01X-1260130D02*
X-1213420D01*
G01X-1778000Y2559050D02*
X-1773870D01*
G01X-1778000Y2546350D02*
X-1773870D01*
G01X-1823650Y2559050D02*
X-1803400D01*
G01X-1823650Y2546350D02*
X-1803400D01*
G01X1600200Y2533650D02*
X1613650D01*
G01X1600200Y2520950D02*
X1613650D01*
G01X1519990Y2533650D02*
X1549400D01*
G01X1507290Y2520950D02*
X1549400D01*
G01X1270000Y2533650D02*
X1279890D01*
G01X1270000Y2520950D02*
X1288460D01*
G01X-826920Y2533650D02*
X-812800D01*
G01X-1219200D02*
X-1205080D01*
G01X-836550Y2520950D02*
X-812800D01*
G01X-1219200D02*
X-1195450D01*
G01X-1260130Y2533650D02*
X-1244600D01*
G01X-1260130Y2520950D02*
X-1244600D01*
G01X-1778000Y2533650D02*
X-1773870D01*
G01X-1778000Y2520950D02*
X-1773870D01*
G01X-1823650Y2533650D02*
X-1803400D01*
G01X-1823650Y2520950D02*
X-1803400D01*
G01X1600200Y2508250D02*
X1613650D01*
G01X1600200Y2495550D02*
X1613650D01*
G01X1494590Y2508250D02*
X1524000D01*
G01X1480310Y2495550D02*
X1524000D01*
G01X1270000Y2508250D02*
X1299420D01*
G01X1270000Y2495550D02*
X1313690D01*
G01X-847680Y2508250D02*
X-838200D01*
G01X-1193800D02*
X-1184320D01*
G01X-860640Y2495550D02*
X-838200D01*
G01X-1193800D02*
X-1171360D01*
G01X-1260130Y2508250D02*
X-1244600D01*
G01X-1260130Y2495550D02*
X-1244600D01*
G01X-1778000Y2508250D02*
X-1773870D01*
G01X-1778000Y2495550D02*
X-1773870D01*
G01X-1823650Y2508250D02*
X-1803400D01*
G01X-1823650Y2495550D02*
X-1803400D01*
G01X1600200Y2482850D02*
X1613650D01*
G01X1600200Y2470150D02*
X1613650D01*
G01X1479570Y2482850D02*
X1498600D01*
G01X1479570Y2470150D02*
X1498600D01*
G01X1295400Y2482850D02*
X1314430D01*
G01X1295400Y2470150D02*
X1314430D01*
G01X-875930Y2482850D02*
X-863600D01*
G01X-1168400D02*
X-1156070D01*
G01X-894420Y2470150D02*
X-863600D01*
G01X-1168400D02*
X-1137580D01*
G01X-1260130Y2482850D02*
X-1244600D01*
G01X-1260130Y2470150D02*
X-1244600D01*
G01X-1778000Y2482850D02*
X-1773870D01*
G01X-1778000Y2470150D02*
X-1773870D01*
G01X-1823650Y2482850D02*
X-1803400D01*
G01X-1823650Y2470150D02*
X-1803400D01*
G01X1600200Y2457450D02*
X1613650D01*
G01X1600200Y2444750D02*
X1613650D01*
G01X1480330Y2457450D02*
X1524000D01*
G01X1494590Y2444750D02*
X1524000D01*
G01X1270000Y2457450D02*
X1313670D01*
G01X1270000Y2444750D02*
X1299410D01*
G01X-917910Y2457450D02*
X-889000D01*
G01X-1143000D02*
X-1114090D01*
G01X-951680Y2444750D02*
X-889000D01*
G01X-1143000D02*
X-1080320D01*
G01X-1260130Y2457450D02*
X-1244600D01*
G01X-1260130Y2444750D02*
X-1244600D01*
G01X-1778000Y2457450D02*
X-1773870D01*
G01X-1778000Y2444750D02*
X-1773870D01*
G01X-1823650Y2457450D02*
X-1803400D01*
G01X-1823650Y2444750D02*
X-1803400D01*
G01X1600200Y2432050D02*
X1613650D01*
G01X1600200Y2419350D02*
X1613650D01*
G01X1505550Y2432050D02*
X1524000D01*
G01X1514120Y2419350D02*
X1524000D01*
G01X1270000Y2432050D02*
X1288450D01*
G01X1270000Y2419350D02*
X1279880D01*
G01X-1066800Y2432050D02*
X-965200D01*
G01X-1066800Y2419350D02*
X-965200D01*
G01X-1260130Y2432050D02*
X-1244600D01*
G01X-1260130Y2419350D02*
X-1244600D01*
G01X-1778000Y2432050D02*
X-1773870D01*
G01X-1778000Y2419350D02*
X-1773870D01*
G01X-1823650Y2432050D02*
X-1803400D01*
G01X-1823650Y2419350D02*
X-1803400D01*
G01X1600200Y2406650D02*
X1613650D01*
G01X1600200Y2393950D02*
X1613650D01*
G01X1520820Y2406650D02*
X1549400D01*
G01X1525920Y2393950D02*
X1549400D01*
G01X1244600Y2406650D02*
X1273180D01*
G01X1244600Y2393950D02*
X1268080D01*
G01X-482600Y2406650D02*
X-50800D01*
G01X-81360Y2393950D02*
X-50800D01*
G01X-291380D02*
X-260620D01*
G01X-482600D02*
X-470610D01*
G01X-965200Y2406650D02*
X-736600D01*
G01X-755380Y2393950D02*
X-736600D01*
G01X-965200D02*
X-934640D01*
G01X-1260130Y2406650D02*
X-1244600D01*
G01X-1260130Y2393950D02*
X-1244600D01*
G01X-1778000Y2406650D02*
X-1773870D01*
G01X-1778000Y2393950D02*
X-1773870D01*
G01X-1823650Y2406650D02*
X-1803400D01*
G01X-1823650Y2393950D02*
X-1803400D01*
G01X1600200Y2381250D02*
X1613650D01*
G01X1600200Y2368550D02*
X1613650D01*
G01X1529620Y2381250D02*
X1549400D01*
G01X1532030Y2368550D02*
X1549400D01*
G01X1244600Y2381250D02*
X1264380D01*
G01X1244600Y2368550D02*
X1261970D01*
G01X34680Y2381250D02*
X76200D01*
G01X-65570D02*
X-34680D01*
G01X58830Y2368550D02*
X76200D01*
G01X-277020Y2381250D02*
X-274980D01*
G01X-508000D02*
X-484970D01*
G01X-508000Y2368550D02*
X-492650D01*
G01X-741020Y2381250D02*
X-558800D01*
G01X-733340Y2368550D02*
X-558800D01*
G01X-990600Y2381250D02*
X-950430D01*
G01X-990600Y2368550D02*
X-965130D01*
G01X-1186810Y2381250D02*
X-1143000D01*
G01X-1260130D02*
X-1256190D01*
G01X-1162660Y2368550D02*
X-1143000D01*
G01X-1778000Y2381250D02*
X-1773870D01*
G01X-1778000Y2368550D02*
X-1773870D01*
G01X-1823650Y2381250D02*
X-1803400D01*
G01X-1823650Y2368550D02*
X-1803400D01*
G01X1600200Y2355850D02*
X1613650D01*
G01X1600200Y2343150D02*
X1613650D01*
G01X1533220Y2355850D02*
X1549400D01*
G01X1533220Y2343150D02*
X1549400D01*
G01X1244600Y2355850D02*
X1260780D01*
G01X1244600Y2343150D02*
X1260780D01*
G01X73460Y2355850D02*
X101600D01*
G01X83720Y2343150D02*
X101600D01*
G01X-508000Y2355850D02*
X-496490D01*
G01X-508000Y2343150D02*
X-497360D01*
G01X-558680Y2355850D02*
X-533400D01*
G01X-555940Y2343150D02*
X-533400D01*
G01X-1147990Y2355850D02*
X-979830D01*
G01X-1135290Y2343150D02*
X-994530D01*
G01X-1778000Y2355850D02*
X-1773870D01*
G01X-1778000Y2343150D02*
X-1771340D01*
G01X-1823650Y2355850D02*
X-1803400D01*
G01X-1823650Y2343150D02*
X-1803400D01*
G01X1600200Y2330450D02*
X1613650D01*
G01X1600200Y2317750D02*
X1613650D01*
G01X1532030Y2330450D02*
X1549400D01*
G01X1529620Y2317750D02*
X1549400D01*
G01X1244600Y2330450D02*
X1261970D01*
G01X1244600Y2317750D02*
X1264380D01*
G01X91100Y2330450D02*
X101600D01*
G01X96270Y2317750D02*
X101600D01*
G01X-508000Y2330450D02*
X-497360D01*
G01X-508000Y2317750D02*
X-497360D01*
G01X-555940Y2330450D02*
X-533400D01*
G01X-555940Y2317750D02*
X-533400D01*
G01X-1778000Y2330450D02*
X-1758640D01*
G01X-1778000Y2317750D02*
X-1745940D01*
G01X-1823650Y2330450D02*
X-1803400D01*
G01X-1823650Y2317750D02*
X-1803400D01*
G01X1600200Y2305050D02*
X1613650D01*
G01X1600200Y2292350D02*
X1613650D01*
G01X1525920Y2305050D02*
X1549400D01*
G01X1520820Y2292350D02*
X1549400D01*
G01X1244600Y2305050D02*
X1268080D01*
G01X1244600Y2292350D02*
X1273180D01*
G01X990600Y2305050D02*
X1066800D01*
G01X990600Y2292350D02*
X1066800D01*
G01X787400Y2305050D02*
X889000D01*
G01X787400Y2292350D02*
X889000D01*
G01X99560Y2305050D02*
X101600D01*
G01X101170Y2292350D02*
X101600D01*
G01X-508000Y2305050D02*
X-497360D01*
G01X-508000Y2292350D02*
X-497360D01*
G01X-555940Y2305050D02*
X-533400D01*
G01X-555940Y2292350D02*
X-533400D01*
G01X-1752600Y2305050D02*
X-1734450D01*
G01X-1752600Y2292350D02*
X-1723200D01*
G01X-1823650Y2305050D02*
X-1803400D01*
G01X-1823650Y2292350D02*
X-1803400D01*
G01X1600200Y2279650D02*
X1613650D01*
G01X1600200Y2266950D02*
X1613650D01*
G01X1514120Y2279650D02*
X1524000D01*
G01X1505550Y2266950D02*
X1524000D01*
G01X1270000Y2279650D02*
X1279880D01*
G01X1270000Y2266950D02*
X1288450D01*
G01X1078750Y2279650D02*
X1117600D01*
G01X1097070Y2266950D02*
X1117600D01*
G01X939800Y2279650D02*
X982250D01*
G01X939800Y2266950D02*
X963930D01*
G01X888750Y2279650D02*
X914400D01*
G01X907070Y2266950D02*
X914400D01*
G01X762000Y2279650D02*
X792250D01*
G01X762000Y2266950D02*
X773930D01*
G01X101170Y2279650D02*
X101600D01*
G01X99560Y2266950D02*
X101600D01*
G01X-508000Y2279650D02*
X-497360D01*
G01X-508000Y2266950D02*
X-497360D01*
G01X-555940Y2279650D02*
X-533400D01*
G01X-555940Y2266950D02*
X-533400D01*
G01X-1727200Y2279650D02*
X-1710490D01*
G01X-1727200Y2266950D02*
X-1697790D01*
G01X-1823650Y2279650D02*
X-1803400D01*
G01X-1823650Y2266950D02*
X-1803400D01*
G01X1600200Y2254250D02*
X1613650D01*
G01X1600200Y2241550D02*
X1613650D01*
G01X1494590Y2254250D02*
X1524000D01*
G01X1480330Y2241550D02*
X1524000D01*
G01X1270000Y2254250D02*
X1299410D01*
G01X1270000Y2241550D02*
X1313670D01*
G01X1109310Y2254250D02*
X1143000D01*
G01X1118080Y2241550D02*
X1143000D01*
G01X919320Y2254250D02*
X951680D01*
G01X928080Y2241550D02*
X942920D01*
G01X279400Y2254250D02*
X760890D01*
G01X279400Y2241550D02*
X308360D01*
G01X96270Y2254250D02*
X101600D01*
G01X91100Y2241550D02*
X101600D01*
G01X-508000Y2254250D02*
X-497360D01*
G01X-508000Y2241550D02*
X-497360D01*
G01X-555940Y2254250D02*
X-533400D01*
G01X-555940Y2241550D02*
X-533400D01*
G01X-1701800Y2254250D02*
X-1685090D01*
G01X-1701800Y2241550D02*
X-1670810D01*
G01X-1823650Y2254250D02*
X-1803400D01*
G01X-1823650Y2241550D02*
X-1803400D01*
G01X1600200Y2228850D02*
X1613650D01*
G01X1600200Y2216150D02*
X1613650D01*
G01X1479570Y2228850D02*
X1498600D01*
G01X1479570Y2216150D02*
X1498600D01*
G01X1295400Y2228850D02*
X1314430D01*
G01X1295400Y2216150D02*
X1314430D01*
G01X1124340Y2228850D02*
X1143000D01*
G01X1128570Y2216150D02*
X1143000D01*
G01X934340Y2228850D02*
X936660D01*
G01X254000D02*
X295660D01*
G01X254000Y2216150D02*
X282960D01*
G01X83720Y2228850D02*
X101600D01*
G01X73460Y2216150D02*
X101600D01*
G01X-555940Y2228850D02*
X-497360D01*
G01X-558680Y2216150D02*
X-496500D01*
G01X-1676400Y2228850D02*
X-1670070D01*
G01X-1676400Y2216150D02*
X-1670070D01*
G01X-1823650Y2228850D02*
X-1803400D01*
G01X-1823650Y2216150D02*
X-1803400D01*
G01X1600200Y2203450D02*
X1613650D01*
G01X1600200Y2190750D02*
X1613650D01*
G01X1480330Y2203450D02*
X1524000D01*
G01X1494590Y2190750D02*
X1524000D01*
G01X1270000Y2203450D02*
X1313670D01*
G01X1270000Y2190750D02*
X1299410D01*
G01X1131040Y2203450D02*
X1143000D01*
G01X1131870Y2190750D02*
X1143000D01*
G01X228600Y2203450D02*
X270260D01*
G01X228600Y2190750D02*
X257560D01*
G01X58830Y2203450D02*
X76200D01*
G01X34680Y2190750D02*
X76200D01*
G01X-65580D02*
X-34680D01*
G01X-1701800Y2203450D02*
X-1670830D01*
G01X-1701800Y2190750D02*
X-1685090D01*
G01X-1823650Y2203450D02*
X-1803400D01*
G01X-1823650Y2190750D02*
X-1803400D01*
G01X1600200Y2178050D02*
X1613650D01*
G01X1600200Y2165350D02*
X1613650D01*
G01X1505550Y2178050D02*
X1524000D01*
G01X1514120Y2165350D02*
X1524000D01*
G01X1270000Y2178050D02*
X1288450D01*
G01X1270000Y2165350D02*
X1279880D01*
G01X1131100Y2178050D02*
X1143000D01*
G01X1128700Y2165350D02*
X1143000D01*
G01X203200Y2178050D02*
X244860D01*
G01X203200Y2165350D02*
X219960D01*
G01X73140Y2178050D02*
X127000D01*
G01X98040Y2165350D02*
X127000D01*
G01X-1727200Y2178050D02*
X-1696050D01*
G01X-1727200Y2165350D02*
X-1704620D01*
G01X-1823650Y2178050D02*
X-1803400D01*
G01X-1823650Y2165350D02*
X-1803400D01*
G01X1600200Y2152650D02*
X1613650D01*
G01X1600200Y2139950D02*
X1613650D01*
G01X1520820Y2152650D02*
X1549400D01*
G01X1525920Y2139950D02*
X1549400D01*
G01X1244600Y2152650D02*
X1273180D01*
G01X1244600Y2139950D02*
X1268080D01*
G01X1124540Y2152650D02*
X1143000D01*
G01X1118370Y2139950D02*
X1143000D01*
G01X177800Y2152650D02*
X203140D01*
G01X177800Y2139950D02*
X192720D01*
G01X114860Y2152650D02*
X152400D01*
G01X125280Y2139950D02*
X152400D01*
G01X-1727200Y2152650D02*
X-1711320D01*
G01X-1727200Y2139950D02*
X-1716420D01*
G01X-1823650Y2152650D02*
X-1803400D01*
G01X-1823650Y2139950D02*
X-1803400D01*
G01X1600200Y2127250D02*
X1613650D01*
G01X1600200Y2114550D02*
X1613650D01*
G01X1529620Y2127250D02*
X1549400D01*
G01X1532030Y2114550D02*
X1549400D01*
G01X1244600Y2127250D02*
X1264380D01*
G01X1244600Y2114550D02*
X1261970D01*
G01X1109720Y2127250D02*
X1117600D01*
G01X1097910Y2114550D02*
X1117600D01*
G01X135690Y2127250D02*
X182310D01*
G01X146110Y2114550D02*
X171890D01*
G01X-1727200Y2127250D02*
X-1720120D01*
G01X-1727200Y2114550D02*
X-1722530D01*
G01X-1823650Y2127250D02*
X-1803400D01*
G01X-1823650Y2114550D02*
X-1803400D01*
G01X1600200Y2101850D02*
X1613650D01*
G01X1600200Y2089150D02*
X1613650D01*
G01X1533220Y2101850D02*
X1549400D01*
G01X1533220Y2089150D02*
X1549400D01*
G01X1244600Y2101850D02*
X1260780D01*
G01X1244600Y2089150D02*
X1260780D01*
G01X1086870Y2101850D02*
X1092200D01*
G01X1086870Y2089150D02*
X1092200D01*
G01X154600Y2101850D02*
X163400D01*
G01X-1727200D02*
X-1723720D01*
G01X-1727200Y2089150D02*
X-1723720D01*
G01X-1823650Y2101850D02*
X-1803400D01*
G01X-1823650Y2089150D02*
X-1803400D01*
G01X1600200Y2076450D02*
X1613650D01*
G01X1600200Y2063750D02*
X1613650D01*
G01X1532030Y2076450D02*
X1549400D01*
G01X1529620Y2063750D02*
X1549400D01*
G01X1244600Y2076450D02*
X1261970D01*
G01X1244600Y2063750D02*
X1264380D01*
G01X1086870Y2076450D02*
X1092200D01*
G01X1086870Y2063750D02*
X1092200D01*
G01X-1727200Y2076450D02*
X-1722530D01*
G01X-1727200Y2063750D02*
X-1720120D01*
G01X-1823650Y2076450D02*
X-1803400D01*
G01X-1823650Y2063750D02*
X-1803400D01*
G01X1600200Y2051050D02*
X1613650D01*
G01X1600200Y2038350D02*
X1613650D01*
G01X1525920Y2051050D02*
X1549400D01*
G01X1520820Y2038350D02*
X1549400D01*
G01X1244600Y2051050D02*
X1268080D01*
G01X1244600Y2038350D02*
X1273180D01*
G01X1086870Y2051050D02*
X1092200D01*
G01X1086870Y2038350D02*
X1092200D01*
G01X-1727200Y2051050D02*
X-1716420D01*
G01X-1727200Y2038350D02*
X-1711320D01*
G01X-1823650Y2051050D02*
X-1803400D01*
G01X-1823650Y2038350D02*
X-1803400D01*
G01X1600200Y2025650D02*
X1613650D01*
G01X1600200Y2012950D02*
X1613650D01*
G01X1514120Y2025650D02*
X1524000D01*
G01X1505550Y2012950D02*
X1524000D01*
G01X1270000Y2025650D02*
X1279880D01*
G01X1270000Y2012950D02*
X1288450D01*
G01X1086870Y2025650D02*
X1092200D01*
G01X1086870Y2012950D02*
X1092200D01*
G01X-1727200Y2025650D02*
X-1704620D01*
G01X-1727200Y2012950D02*
X-1696050D01*
G01X-1823650Y2025650D02*
X-1803400D01*
G01X-1823650Y2012950D02*
X-1803400D01*
G01X1600200Y2000250D02*
X1613650D01*
G01X1600200Y1987550D02*
X1613650D01*
G01X1494590Y2000250D02*
X1524000D01*
G01X1480330Y1987550D02*
X1524000D01*
G01X1270000Y2000250D02*
X1299410D01*
G01X1270000Y1987550D02*
X1313670D01*
G01X1081000Y2000250D02*
X1092200D01*
G01X1068300Y1987550D02*
X1092200D01*
G01X-1701800Y2000250D02*
X-1685090D01*
G01X-1701800Y1987550D02*
X-1670830D01*
G01X-1823650Y2000250D02*
X-1803400D01*
G01X-1823650Y1987550D02*
X-1803400D01*
G01X1600200Y1974850D02*
X1613650D01*
G01X1600200Y1962150D02*
X1613650D01*
G01X1479570Y1974850D02*
X1498600D01*
G01X1479570Y1962150D02*
X1498600D01*
G01X1295400Y1974850D02*
X1314430D01*
G01X1295400Y1962150D02*
X1314430D01*
G01X1055600Y1974850D02*
X1219200D01*
G01X1042900Y1962150D02*
X1219200D01*
G01X-1676400Y1974850D02*
X-1670070D01*
G01X-1676400Y1962150D02*
X-1670070D01*
G01X-1823650Y1974850D02*
X-1803400D01*
G01X-1823650Y1962150D02*
X-1803400D01*
G01X1600200Y1949450D02*
X1613650D01*
G01X1600200Y1936750D02*
X1613650D01*
G01X1480310Y1949450D02*
X1524000D01*
G01X1494580Y1936750D02*
X1524000D01*
G01X1232640Y1949450D02*
X1313690D01*
G01X1248430Y1936750D02*
X1299410D01*
G01X1030200Y1949450D02*
X1053380D01*
G01X1036980Y1936750D02*
X1039020D01*
G01X-1701800Y1949450D02*
X-1670810D01*
G01X-1701800Y1936750D02*
X-1685080D01*
G01X-1823650Y1949450D02*
X-1803400D01*
G01X-1823650Y1936750D02*
X-1803400D01*
G01X1600200Y1924050D02*
X1613650D01*
G01X1600200Y1911350D02*
X1613650D01*
G01X1505540Y1924050D02*
X1524000D01*
G01X1514120Y1911350D02*
X1524000D01*
G01X1263130Y1924050D02*
X1286710D01*
G01X-1727200D02*
X-1696040D01*
G01X-1727200Y1911350D02*
X-1704620D01*
G01X-1823650Y1924050D02*
X-1803400D01*
G01X-1823650Y1911350D02*
X-1803400D01*
G01X1600200Y1898650D02*
X1613650D01*
G01X1600200Y1885950D02*
X1613650D01*
G01X1520810Y1898650D02*
X1549400D01*
G01X1525920Y1885950D02*
X1549400D01*
G01X-1727200Y1898650D02*
X-1711310D01*
G01X-1727200Y1885950D02*
X-1716420D01*
G01X-1823650Y1898650D02*
X-1803400D01*
G01X-1823650Y1885950D02*
X-1803400D01*
G01X1600200Y1873250D02*
X1613650D01*
G01X1600200Y1860550D02*
X1613650D01*
G01X1529620Y1873250D02*
X1549400D01*
G01X1532030Y1860550D02*
X1549400D01*
G01X-1727200Y1873250D02*
X-1720120D01*
G01X-1727200Y1860550D02*
X-1722530D01*
G01X-1823650Y1873250D02*
X-1803400D01*
G01X-1823650Y1860550D02*
X-1803400D01*
G01X1600200Y1847850D02*
X1613650D01*
G01X1600200Y1835150D02*
X1613650D01*
G01X1533220Y1847850D02*
X1549400D01*
G01X1533220Y1835150D02*
X1549400D01*
G01X-1727200Y1847850D02*
X-1723720D01*
G01X-1727200Y1835150D02*
X-1723720D01*
G01X-1823650Y1847850D02*
X-1803400D01*
G01X-1823650Y1835150D02*
X-1803400D01*
G01X1600200Y1822450D02*
X1613650D01*
G01X1600200Y1809750D02*
X1613650D01*
G01X1532030Y1822450D02*
X1549400D01*
G01X1529620Y1809750D02*
X1549400D01*
G01X-1727200Y1822450D02*
X-1722530D01*
G01X-1727200Y1809750D02*
X-1720120D01*
G01X-1823650Y1822450D02*
X-1803400D01*
G01X-1823650Y1809750D02*
X-1803400D01*
G01X1600200Y1797050D02*
X1613650D01*
G01X1600200Y1784350D02*
X1613650D01*
G01X1525920Y1797050D02*
X1549400D01*
G01X1520820Y1784350D02*
X1549400D01*
G01X-1451800D02*
X-941860D01*
G01X-1727200Y1797050D02*
X-1716420D01*
G01X-1727200Y1784350D02*
X-1711320D01*
G01X-1823650Y1797050D02*
X-1803400D01*
G01X-1823650Y1784350D02*
X-1803400D01*
G01X1600200Y1771650D02*
X1613650D01*
G01X1600200Y1758950D02*
X1613650D01*
G01X1514120Y1771650D02*
X1524000D01*
G01X1505550Y1758950D02*
X1524000D01*
G01X1263130D02*
X1286710D01*
G01X-965200Y1771650D02*
X-941860D01*
G01X-965200Y1758950D02*
X-941860D01*
G01X-1464510Y1771650D02*
X-1447800D01*
G01X-1477210Y1758950D02*
X-1447800D01*
G01X-1727200Y1771650D02*
X-1704620D01*
G01X-1727200Y1758950D02*
X-1696050D01*
G01X-1823650Y1771650D02*
X-1803400D01*
G01X-1823650Y1758950D02*
X-1803400D01*
G01X1600200Y1746250D02*
X1613650D01*
G01X1600200Y1733550D02*
X1613650D01*
G01X1494590Y1746250D02*
X1524000D01*
G01X1480330Y1733550D02*
X1524000D01*
G01X1248430Y1746250D02*
X1299410D01*
G01X1232640Y1733550D02*
X1313680D01*
G01X1036980Y1746250D02*
X1039020D01*
G01X1022620Y1733550D02*
X1053380D01*
G01X834360D02*
X843370D01*
G01X-965200Y1746250D02*
X-941860D01*
G01X-965200Y1733550D02*
X-941860D01*
G01X-1489910Y1746250D02*
X-1473200D01*
G01X-1504180Y1733550D02*
X-1473200D01*
G01X-1701800Y1746250D02*
X-1685090D01*
G01X-1701800Y1733550D02*
X-1670830D01*
G01X-1823650Y1746250D02*
X-1803400D01*
G01X-1823650Y1733550D02*
X-1803400D01*
G01X1600200Y1720850D02*
X1613650D01*
G01X1600200Y1708150D02*
X1613650D01*
G01X1460570Y1720850D02*
X1473200D01*
G01X1320800D02*
X1333440D01*
G01X1425550Y1708150D02*
X1473200D01*
G01X1320800D02*
X1368460D01*
G01X1066800Y1720850D02*
X1219200D01*
G01X1066800Y1708150D02*
X1219200D01*
G01X834360Y1720850D02*
X1016000D01*
G01X833490Y1708150D02*
X1016000D01*
G01X-965200Y1720850D02*
X-941860D01*
G01X-965200Y1708150D02*
X-940990D01*
G01X-1523940Y1720850D02*
X-1498600D01*
G01X-1676400D02*
X-1651070D01*
G01X-1558960Y1708150D02*
X-1498600D01*
G01X-1676400D02*
X-1616050D01*
G01X-1823650Y1720850D02*
X-1803400D01*
G01X-1823650Y1708150D02*
X-1803400D01*
G01X829660Y1695450D02*
X1613650D01*
G01X-1823650D02*
X-937160D01*
G01X-1823650Y4927600D02*
X1613650D01*
G01X1552020Y4902200D02*
X1613650D01*
G01X-1823650D02*
X123230D01*
G01X1577420Y4876800D02*
X1613650D01*
G01X-423080D02*
X97830D01*
G01X-1823650D02*
X-1720130D01*
G01X1583370Y4851400D02*
X1613650D01*
G01X-397680D02*
X72430D01*
G01X-1823650D02*
X-1745530D01*
G01X1583370Y4826000D02*
X1613650D01*
G01X-119710D02*
X47030D01*
G01X-1823650D02*
X-1770930D01*
G01X1583370Y4800600D02*
X1613650D01*
G01X-100740D02*
X41880D01*
G01X-1823650D02*
X-1773870D01*
G01X1583370Y4775200D02*
X1613650D01*
G01X-92820D02*
X41880D01*
G01X-1823650D02*
X-1773870D01*
G01X1583370Y4749800D02*
X1613650D01*
G01X-92820D02*
X41880D01*
G01X-1823650D02*
X-1773870D01*
G01X1583370Y4724400D02*
X1613650D01*
G01X-100740D02*
X41880D01*
G01X-1823650D02*
X-1773870D01*
G01X1583370Y4699000D02*
X1613650D01*
G01X-119710D02*
X41880D01*
G01X-1823650D02*
X-1773870D01*
G01X1583370Y4673600D02*
X1613650D01*
G01X-100740D02*
X41880D01*
G01X-1823650D02*
X-1773870D01*
G01X1583370Y4648200D02*
X1613650D01*
G01X-92820D02*
X41880D01*
G01X-1823650D02*
X-1773870D01*
G01X1583370Y4622800D02*
X1613650D01*
G01X-92820D02*
X41880D01*
G01X-1823650D02*
X-1773870D01*
G01X1583370Y4597400D02*
X1613650D01*
G01X-100740D02*
X41880D01*
G01X-1823650D02*
X-1773870D01*
G01X1583370Y4572000D02*
X1613650D01*
G01X-119710D02*
X41880D01*
G01X-1823650D02*
X-1773870D01*
G01X1583370Y4546600D02*
X1613650D01*
G01X-100740D02*
X41880D01*
G01X-1823650D02*
X-1773870D01*
G01X1583370Y4521200D02*
X1613650D01*
G01X-92820D02*
X31230D01*
G01X-1823650D02*
X-1773870D01*
G01X1583370Y4495800D02*
X1613650D01*
G01X-92820D02*
X5830D01*
G01X-1823650D02*
X-1773870D01*
G01X1583370Y4470400D02*
X1613650D01*
G01X-100740D02*
X-19570D01*
G01X-1823650D02*
X-1773870D01*
G01X1583370Y4445000D02*
X1613650D01*
G01X-119710D02*
X-27370D01*
G01X-1823650D02*
X-1773870D01*
G01X1583370Y4419600D02*
X1613650D01*
G01X-76150D02*
X-27370D01*
G01X-1823650D02*
X-1773870D01*
G01X1583370Y4394200D02*
X1613650D01*
G01X-50750D02*
X-27370D01*
G01X-1823650D02*
X-1773870D01*
G01X1583370Y4368800D02*
X1613650D01*
G01X-41880D02*
X-27370D01*
G01X-1823650D02*
X-1773870D01*
G01X1583370Y4343400D02*
X1613650D01*
G01X-41880D02*
X-27370D01*
G01X-1823650D02*
X-1773870D01*
G01X1583370Y4318000D02*
X1613650D01*
G01X-41880D02*
X-27370D01*
G01X-1823650D02*
X-1773870D01*
G01X1583370Y4292600D02*
X1613650D01*
G01X-41880D02*
X-27370D01*
G01X-1823650D02*
X-1773870D01*
G01X1583370Y4267200D02*
X1613650D01*
G01X-41880D02*
X-27370D01*
G01X-1823650D02*
X-1773870D01*
G01X1583370Y4241800D02*
X1613650D01*
G01X-41880D02*
X-27370D01*
G01X-1823650D02*
X-1773870D01*
G01X1583370Y4216400D02*
X1613650D01*
G01X-41880D02*
X-27370D01*
G01X-1823650D02*
X-1773870D01*
G01X1583370Y4191000D02*
X1613650D01*
G01X-41880D02*
X-27370D01*
G01X-1823650D02*
X-1757220D01*
G01X1583370Y4165600D02*
X1613650D01*
G01X-41880D02*
X-27370D01*
G01X-1823650D02*
X-1731820D01*
G01X1583370Y4140200D02*
X1613650D01*
G01X-41880D02*
X-27370D01*
G01X-1823650D02*
X-1714060D01*
G01X1583370Y4114800D02*
X1613650D01*
G01X-41880D02*
X-27370D01*
G01X-1823650D02*
X-1700600D01*
G01X1583370Y4089400D02*
X1613650D01*
G01X-41880D02*
X-27370D01*
G01X-1823650D02*
X-1678470D01*
G01X1583370Y4064000D02*
X1613650D01*
G01X-41880D02*
X-27370D01*
G01X-1823650D02*
X-1670070D01*
G01X1583370Y4038600D02*
X1613650D01*
G01X-41880D02*
X-27370D01*
G01X-1823650D02*
X-1678450D01*
G01X1583370Y4013200D02*
X1613650D01*
G01X-41880D02*
X-27370D01*
G01X-1823650D02*
X-1700590D01*
G01X1583370Y3987800D02*
X1613650D01*
G01X-41880D02*
X-27370D01*
G01X-1823650D02*
X-1714050D01*
G01X1583370Y3962400D02*
X1613650D01*
G01X-41880D02*
X-27370D01*
G01X-1823650D02*
X-1721480D01*
G01X1583370Y3937000D02*
X1613650D01*
G01X1195860D02*
X1206810D01*
G01X-41880D02*
X-27370D01*
G01X-1823650D02*
X-1723870D01*
G01X1583370Y3911600D02*
X1613650D01*
G01X1195080D02*
X1232210D01*
G01X-41880D02*
X-27370D01*
G01X-1823650D02*
X-1721480D01*
G01X1583370Y3886200D02*
X1613650D01*
G01X1183850D02*
X1255120D01*
G01X-41880D02*
X-27370D01*
G01X-1823650D02*
X-1714050D01*
G01X1583370Y3860800D02*
X1613650D01*
G01X1161990D02*
X1280360D01*
G01X-41880D02*
X-27370D01*
G01X-1823650D02*
X-1700590D01*
G01X1583370Y3835400D02*
X1613650D01*
G01X1151020D02*
X1306040D01*
G01X-41880D02*
X-27370D01*
G01X-1823650D02*
X-1678450D01*
G01X1583370Y3810000D02*
X1613650D01*
G01X1172960D02*
X1314430D01*
G01X-41880D02*
X-27370D01*
G01X-1823650D02*
X-1670070D01*
G01X1583370Y3784600D02*
X1613650D01*
G01X1191360D02*
X1306030D01*
G01X-41880D02*
X-27370D01*
G01X-1823650D02*
X-1678450D01*
G01X1583370Y3759200D02*
X1613650D01*
G01X1195860D02*
X1283900D01*
G01X-41880D02*
X-27370D01*
G01X-1823650D02*
X-1700590D01*
G01X1583370Y3733800D02*
X1613650D01*
G01X1195860D02*
X1270440D01*
G01X-41880D02*
X-27370D01*
G01X-1823650D02*
X-1714050D01*
G01X1583370Y3708400D02*
X1613650D01*
G01X1195860D02*
X1263010D01*
G01X-41880D02*
X-27370D01*
G01X-1823650D02*
X-1721480D01*
G01X1583370Y3683000D02*
X1613650D01*
G01X1195860D02*
X1260630D01*
G01X-41880D02*
X-27370D01*
G01X-1823650D02*
X-1723870D01*
G01X1583370Y3657600D02*
X1613650D01*
G01X1195860D02*
X1263010D01*
G01X-41880D02*
X-27370D01*
G01X-1823650D02*
X-1721480D01*
G01X1583370Y3632200D02*
X1613650D01*
G01X1194920D02*
X1270440D01*
G01X-41880D02*
X-27370D01*
G01X-1823650D02*
X-1714050D01*
G01X1583370Y3606800D02*
X1613650D01*
G01X1183120D02*
X1283900D01*
G01X-41880D02*
X-27370D01*
G01X-1823650D02*
X-1700590D01*
G01X1583370Y3581400D02*
X1613650D01*
G01X1187890D02*
X1306040D01*
G01X-41880D02*
X-27370D01*
G01X-1823650D02*
X-1678460D01*
G01X1583370Y3556000D02*
X1613650D01*
G01X1446670D02*
X1470630D01*
G01X1195760D02*
X1347330D01*
G01X-41880D02*
X-27370D01*
G01X-1823650D02*
X-1667220D01*
G01X1583370Y3530600D02*
X1613650D01*
G01X1195860D02*
X1470630D01*
G01X-41880D02*
X-27370D01*
G01X-1823650D02*
X-1692620D01*
G01X1583370Y3505200D02*
X1613650D01*
G01X1195860D02*
X1470630D01*
G01X-41880D02*
X-27370D01*
G01X-1823650D02*
X-1718020D01*
G01X1583370Y3479800D02*
X1613650D01*
G01X1195860D02*
X1470630D01*
G01X-41880D02*
X-27370D01*
G01X-1823650D02*
X-1743420D01*
G01X1583370Y3454400D02*
X1613650D01*
G01X1195860D02*
X1470630D01*
G01X549610D02*
X570620D01*
G01X-41880D02*
X-27370D01*
G01X-1823650D02*
X-1768820D01*
G01X1583370Y3429000D02*
X1613650D01*
G01X1195760D02*
X1470630D01*
G01X524210D02*
X570620D01*
G01X-41880D02*
X-27370D01*
G01X-1823650D02*
X-1773870D01*
G01X1583370Y3403600D02*
X1613650D01*
G01X1187890D02*
X1470630D01*
G01X767650D02*
X923560D01*
G01X498810D02*
X575480D01*
G01X-41880D02*
X-27370D01*
G01X-1823650D02*
X-1773870D01*
G01X1583370Y3378200D02*
X1613650D01*
G01X1154600D02*
X1470630D01*
G01X736080D02*
X1004360D01*
G01X473410D02*
X597940D01*
G01X-41880D02*
X-27370D01*
G01X-1823650D02*
X-1773870D01*
G01X1583370Y3352800D02*
X1613650D01*
G01X690600D02*
X1470630D01*
G01X388100D02*
X540400D01*
G01X-41880D02*
X-27370D01*
G01X-885480D02*
X-497720D01*
G01X-1823650D02*
X-1773870D01*
G01X1583370Y3327400D02*
X1613650D01*
G01X723900D02*
X1470630D01*
G01X400800D02*
X507110D01*
G01X-41880D02*
X-27370D01*
G01X-910880D02*
X-508140D01*
G01X-1823650D02*
X-1773870D01*
G01X1583370Y3302000D02*
X1613650D01*
G01X904240D02*
X1470630D01*
G01X404620D02*
X499240D01*
G01X-41880D02*
X-27370D01*
G01X-936280D02*
X-511370D01*
G01X-1823650D02*
X-1773870D01*
G01X1583370Y3276600D02*
X1613650D01*
G01X904560D02*
X1470630D01*
G01X423370D02*
X499140D01*
G01X-41880D02*
X-27370D01*
G01X-940130D02*
X-508140D01*
G01X-1823650D02*
X-1773870D01*
G01X1583370Y3251200D02*
X1613650D01*
G01X904560D02*
X1470630D01*
G01X448770D02*
X499140D01*
G01X-41880D02*
X-27370D01*
G01X-940130D02*
X-497720D01*
G01X-1823650D02*
X-1773870D01*
G01X1583370Y3225800D02*
X1613650D01*
G01X904560D02*
X1272280D01*
G01X474170D02*
X499140D01*
G01X-41880D02*
X-12750D01*
G01X-921400D02*
X-476850D01*
G01X-1823650D02*
X-1773870D01*
G01X1583370Y3200400D02*
X1613650D01*
G01X904560D02*
X1261340D01*
G01X-41880D02*
X12650D01*
G01X-888110D02*
X-400800D01*
G01X-1823650D02*
X-1773870D01*
G01X1583370Y3175000D02*
X1613650D01*
G01X904240D02*
X1260640D01*
G01X-41880D02*
X38050D01*
G01X-880240D02*
X-404620D01*
G01X-1823650D02*
X-1773870D01*
G01X1583370Y3149600D02*
X1613650D01*
G01X723900D02*
X1260640D01*
G01X-63450D02*
X63450D01*
G01X-880140D02*
X-400800D01*
G01X-1823650D02*
X-1773870D01*
G01X1583370Y3124200D02*
X1613650D01*
G01X690600D02*
X1260640D01*
G01X3360D02*
X88850D01*
G01X-880140D02*
X-388100D01*
G01X-1823650D02*
X-1773870D01*
G01X1583370Y3098800D02*
X1613650D01*
G01X555520D02*
X1260640D01*
G01X24230D02*
X108400D01*
G01X-880140D02*
X-388100D01*
G01X-1823650D02*
X-1773870D01*
G01X1583370Y3073400D02*
X1613650D01*
G01X504090D02*
X1260640D01*
G01X34640D02*
X95700D01*
G01X-880140D02*
X-400800D01*
G01X-1823650D02*
X-1773870D01*
G01X1583370Y3048000D02*
X1613650D01*
G01X507320D02*
X1260640D01*
G01X37880D02*
X91880D01*
G01X-880240D02*
X-404620D01*
G01X-1823650D02*
X-1773870D01*
G01X1583370Y3022600D02*
X1613650D01*
G01X713530D02*
X1261340D01*
G01X504090D02*
X517420D01*
G01X34640D02*
X95700D01*
G01X-888110D02*
X-400800D01*
G01X-1823650D02*
X-1773870D01*
G01X1583370Y2997200D02*
X1613650D01*
G01X895540D02*
X1272270D01*
G01X24230D02*
X108400D01*
G01X-443140D02*
X-388100D01*
G01X-921400D02*
X-576860D01*
G01X-1131390D02*
X-1071610D01*
G01X-1823650D02*
X-1773870D01*
G01X1583370Y2971800D02*
X1613650D01*
G01X904560D02*
X1314430D01*
G01X3360D02*
X108400D01*
G01X-1260130D02*
X-597730D01*
G01X-1823650D02*
X-1773870D01*
G01X1583370Y2946400D02*
X1613650D01*
G01X904560D02*
X1314430D01*
G01X-95690D02*
X95700D01*
G01X-1260130D02*
X-608140D01*
G01X-1823650D02*
X-1773870D01*
G01X1583370Y2921000D02*
X1613650D01*
G01X904560D02*
X1320950D01*
G01X-91870D02*
X91880D01*
G01X-1260130D02*
X-611370D01*
G01X-1823650D02*
X-1773870D01*
G01X1583370Y2895600D02*
X1613650D01*
G01X904560D02*
X1305540D01*
G01X-95690D02*
X95700D01*
G01X-980300D02*
X-608140D01*
G01X-1260130D02*
X-1051700D01*
G01X-1823650D02*
X-1773870D01*
G01X1583370Y2870200D02*
X1613650D01*
G01X904560D02*
X1298740D01*
G01X-108400D02*
X108400D01*
G01X-905350D02*
X-597730D01*
G01X-1260130D02*
X-1126650D01*
G01X-1823650D02*
X-1773870D01*
G01X1583370Y2844800D02*
X1613650D01*
G01X895540D02*
X1298740D01*
G01X-108400D02*
X108400D01*
G01X-443140D02*
X-388100D01*
G01X-867940D02*
X-576860D01*
G01X-1260130D02*
X-1164060D01*
G01X-1823650D02*
X-1773870D01*
G01X1583370Y2819400D02*
X1613650D01*
G01X713530D02*
X1305540D01*
G01X-95700D02*
X95700D01*
G01X-841910D02*
X-400800D01*
G01X-1260130D02*
X-1190090D01*
G01X-1823650D02*
X-1773870D01*
G01X1583370Y2794000D02*
X1613650D01*
G01X672880D02*
X1320950D01*
G01X-91870D02*
X91880D01*
G01X-822600D02*
X-404630D01*
G01X-1260130D02*
X-1209400D01*
G01X-1823650D02*
X-1773870D01*
G01X1583370Y2768600D02*
X1613650D01*
G01X669640D02*
X1314430D01*
G01X-95690D02*
X95700D01*
G01X-808130D02*
X-400810D01*
G01X-1260130D02*
X-1223870D01*
G01X-1823650D02*
X-1773870D01*
G01X1583370Y2743200D02*
X1613650D01*
G01X659230D02*
X1314430D01*
G01X-108390D02*
X108400D01*
G01X-797530D02*
X-388110D01*
G01X-1260130D02*
X-1234470D01*
G01X-1823650D02*
X-1773870D01*
G01X1583370Y2717800D02*
X1613650D01*
G01X638360D02*
X1314430D01*
G01X388100D02*
X504640D01*
G01X-137580D02*
X108400D01*
G01X-790270D02*
X-358920D01*
G01X-1260130D02*
X-1241730D01*
G01X-1823650D02*
X-1773870D01*
G01X1583370Y2692400D02*
X1613650D01*
G01X400800D02*
X1293600D01*
G01X-136260D02*
X95700D01*
G01X-786020D02*
X-360240D01*
G01X-1260130D02*
X-1245980D01*
G01X-1823650D02*
X-1773870D01*
G01X1583370Y2667000D02*
X1613650D01*
G01X404620D02*
X1276320D01*
G01X-129180D02*
X91880D01*
G01X-784630D02*
X-367320D01*
G01X-1260130D02*
X-1247370D01*
G01X-1823650D02*
X-1773870D01*
G01X1583370Y2641600D02*
X1613650D01*
G01X400800D02*
X1266060D01*
G01X-136270D02*
X95700D01*
G01X-786020D02*
X-360230D01*
G01X-1260130D02*
X-1245980D01*
G01X-1823650D02*
X-1773870D01*
G01X1583370Y2616200D02*
X1613650D01*
G01X388100D02*
X1261230D01*
G01X-790270D02*
X108400D01*
G01X-1260130D02*
X-1241730D01*
G01X-1823650D02*
X-1773870D01*
G01X1574490Y2590800D02*
X1613650D01*
G01X358900D02*
X1261230D01*
G01X-797530D02*
X137600D01*
G01X-1260130D02*
X-1234470D01*
G01X-1823650D02*
X-1773870D01*
G01X1549090Y2565400D02*
X1613650D01*
G01X-808130D02*
X1266060D01*
G01X-1260130D02*
X-1223870D01*
G01X-1823650D02*
X-1773870D01*
G01X1526350Y2540000D02*
X1613650D01*
G01X-822600D02*
X1276320D01*
G01X-1260130D02*
X-1209400D01*
G01X-1823650D02*
X-1773870D01*
G01X1500940Y2514600D02*
X1613650D01*
G01X-841910D02*
X1293600D01*
G01X-1260130D02*
X-1190090D01*
G01X-1823650D02*
X-1773870D01*
G01X1479570Y2489200D02*
X1613650D01*
G01X-867940D02*
X1314430D01*
G01X-1260130D02*
X-1164060D01*
G01X-1823650D02*
X-1773870D01*
G01X1479570Y2463800D02*
X1613650D01*
G01X-905350D02*
X1314430D01*
G01X-1260130D02*
X-1126650D01*
G01X-1823650D02*
X-1773870D01*
G01X1500410Y2438400D02*
X1613650D01*
G01X-980300D02*
X1293590D01*
G01X-1260130D02*
X-1051700D01*
G01X-1823650D02*
X-1773870D01*
G01X1517690Y2413000D02*
X1613650D01*
G01X-1260130D02*
X1276310D01*
G01X-1823650D02*
X-1773870D01*
G01X1527940Y2387600D02*
X1613650D01*
G01X-72920D02*
X1266060D01*
G01X-282970D02*
X-269030D01*
G01X-746970D02*
X-479030D01*
G01X-1260130D02*
X-943080D01*
G01X-1823650D02*
X-1773870D01*
G01X1532780Y2362200D02*
X1613650D01*
G01X66860D02*
X1261220D01*
G01X-564960D02*
X-494990D01*
G01X-1154640D02*
X-972480D01*
G01X-1823650D02*
X-1773870D01*
G01X1532780Y2336800D02*
X1613650D01*
G01X87730D02*
X1261220D01*
G01X-555940D02*
X-497360D01*
G01X-1823650D02*
X-1764990D01*
G01X1527940Y2311400D02*
X1613650D01*
G01X98140D02*
X1266060D01*
G01X-555940D02*
X-497360D01*
G01X-1823650D02*
X-1739590D01*
G01X1517690Y2286000D02*
X1613650D01*
G01X1064500D02*
X1276310D01*
G01X874500D02*
X996500D01*
G01X101370D02*
X806500D01*
G01X-555940D02*
X-497360D01*
G01X-1823650D02*
X-1716850D01*
G01X1500410Y2260600D02*
X1613650D01*
G01X1103730D02*
X1293590D01*
G01X913730D02*
X957270D01*
G01X98140D02*
X767240D01*
G01X-555940D02*
X-497360D01*
G01X-1823650D02*
X-1691440D01*
G01X1479570Y2235200D02*
X1613650D01*
G01X1121490D02*
X1314430D01*
G01X931490D02*
X939510D01*
G01X87730D02*
X302010D01*
G01X-555940D02*
X-497360D01*
G01X-1823650D02*
X-1670070D01*
G01X1479570Y2209800D02*
X1613650D01*
G01X1130020D02*
X1314430D01*
G01X66860D02*
X276610D01*
G01X-1823650D02*
X-1670070D01*
G01X1500410Y2184400D02*
X1613650D01*
G01X1131690D02*
X1293590D01*
G01X-60180D02*
X251210D01*
G01X-1823650D02*
X-1690910D01*
G01X1517690Y2159000D02*
X1613650D01*
G01X1126860D02*
X1276310D01*
G01X108580D02*
X209420D01*
G01X-1823650D02*
X-1708190D01*
G01X1527940Y2133600D02*
X1613650D01*
G01X1114400D02*
X1266060D01*
G01X130490D02*
X187510D01*
G01X-1823650D02*
X-1718440D01*
G01X1532780Y2108200D02*
X1613650D01*
G01X1091560D02*
X1261220D01*
G01X150960D02*
X167040D01*
G01X-1823650D02*
X-1723280D01*
G01X1532780Y2082800D02*
X1613650D01*
G01X1086870D02*
X1261220D01*
G01X-1823650D02*
X-1723280D01*
G01X1527940Y2057400D02*
X1613650D01*
G01X1086870D02*
X1266060D01*
G01X-1823650D02*
X-1718440D01*
G01X1517690Y2032000D02*
X1613650D01*
G01X1086870D02*
X1276310D01*
G01X-1823650D02*
X-1708190D01*
G01X1500410Y2006600D02*
X1613650D01*
G01X1086870D02*
X1293590D01*
G01X-1823650D02*
X-1690910D01*
G01X1479570Y1981200D02*
X1613650D01*
G01X1061950D02*
X1314430D01*
G01X-1823650D02*
X-1670070D01*
G01X1479570Y1955800D02*
X1613650D01*
G01X1218130D02*
X1314430D01*
G01X1036550D02*
X1067890D01*
G01X-1823650D02*
X-1670070D01*
G01X1500410Y1930400D02*
X1613650D01*
G01X1255780D02*
X1293060D01*
G01X-1823650D02*
X-1690910D01*
G01X1517680Y1905000D02*
X1613650D01*
G01X-1823650D02*
X-1708180D01*
G01X1527940Y1879600D02*
X1613650D01*
G01X-1823650D02*
X-1718440D01*
G01X1532780Y1854200D02*
X1613650D01*
G01X-1823650D02*
X-1723280D01*
G01X1532780Y1828800D02*
X1613650D01*
G01X-1823650D02*
X-1723280D01*
G01X1527940Y1803400D02*
X1613650D01*
G01X-1823650D02*
X-1718440D01*
G01X1517690Y1778000D02*
X1613650D01*
G01X-1458150D02*
X-941860D01*
G01X-1823650D02*
X-1708190D01*
G01X1500420Y1752600D02*
X1613650D01*
G01X1255780D02*
X1293060D01*
G01X-1483560D02*
X-941860D01*
G01X-1823650D02*
X-1690920D01*
G01X1471390Y1727200D02*
X1613650D01*
G01X1218130D02*
X1322620D01*
G01X1008110D02*
X1067890D01*
G01X834360D02*
X857890D01*
G01X-1513120D02*
X-941860D01*
G01X-1823650D02*
X-1661890D01*
G01X831990Y1701800D02*
X1613650D01*
G01X-1823650D02*
X-939490D01*
G01X-1803400Y1686350D02*
Y4943650D01*
G01X-1778000Y1686350D02*
Y4943650D01*
G01X-1752600Y4844330D02*
Y4943650D01*
G01Y3470620D02*
Y4186380D01*
G01Y1686350D02*
Y2324410D01*
G01X-1727200Y4869730D02*
Y4943650D01*
G01Y3496020D02*
Y4160980D01*
G01Y1686350D02*
Y2296360D01*
G01X-1701800Y4885370D02*
Y4943650D01*
G01Y4011370D02*
Y4116610D01*
G01Y3757370D02*
Y3862630D01*
G01Y3521420D02*
Y3608630D01*
G01Y2169880D02*
Y2270960D01*
G01Y1915870D02*
Y2021120D01*
G01Y1686350D02*
Y1767110D01*
G01X-1676400Y4885370D02*
Y4943650D01*
G01Y4040400D02*
Y4087590D01*
G01Y3786400D02*
Y3833600D01*
G01Y3546820D02*
Y3579590D01*
G01Y2198910D02*
Y2246090D01*
G01Y1944900D02*
Y1992090D01*
G01Y1686350D02*
Y1738080D01*
G01X-1651000Y4885370D02*
Y4943650D01*
G01Y1686350D02*
Y1720810D01*
G01X-1625600Y4885370D02*
Y4943650D01*
G01Y1686350D02*
Y1710550D01*
G01X-1600200Y4885370D02*
Y4943650D01*
G01Y1686350D02*
Y1705720D01*
G01X-1574800Y4885370D02*
Y4943650D01*
G01Y1686350D02*
Y1705720D01*
G01X-1549400Y4885370D02*
Y4943650D01*
G01Y1686350D02*
Y1710560D01*
G01X-1524000Y4885370D02*
Y4943650D01*
G01Y1686350D02*
Y1720810D01*
G01X-1498600Y4885370D02*
Y4943650D01*
G01Y1686350D02*
Y1738090D01*
G01X-1473200Y4885370D02*
Y4943650D01*
G01Y1686350D02*
Y1762960D01*
G01X-1447800Y4882370D02*
Y4943650D01*
G01Y1686350D02*
Y1785130D01*
G01X-1422400Y4882370D02*
Y4943650D01*
G01Y1686350D02*
Y1785130D01*
G01X-1397000Y4882370D02*
Y4943650D01*
G01Y1686350D02*
Y1785130D01*
G01X-1371600Y4882370D02*
Y4943650D01*
G01Y1686350D02*
Y1785130D01*
G01X-1346200Y4882370D02*
Y4943650D01*
G01Y1686350D02*
Y1785130D01*
G01X-1320800Y4882370D02*
Y4943650D01*
G01Y1686350D02*
Y1785130D01*
G01X-1295400Y4882370D02*
Y4943650D01*
G01Y1686350D02*
Y1785130D01*
G01X-1270000Y4882370D02*
Y4943650D01*
G01Y1686350D02*
Y1785130D01*
G01X-1244600Y4882370D02*
Y4943650D01*
G01Y2702700D02*
Y2995140D01*
G01Y2384710D02*
Y2631300D01*
G01Y1686350D02*
Y1785130D01*
G01X-1219200Y4882370D02*
Y4943650D01*
G01Y2777650D02*
Y2995140D01*
G01Y2387350D02*
Y2556350D01*
G01Y1686350D02*
Y1785130D01*
G01X-1193800Y4882370D02*
Y4943650D01*
G01Y2815060D02*
Y2995140D01*
G01Y2383520D02*
Y2518940D01*
G01Y1686350D02*
Y1785130D01*
G01X-1168400Y4882370D02*
Y4943650D01*
G01Y2841090D02*
Y2995140D01*
G01Y2372360D02*
Y2492910D01*
G01Y1686350D02*
Y1785130D01*
G01X-1143000Y4882370D02*
Y4943650D01*
G01Y2860400D02*
Y2995240D01*
G01Y2350860D02*
Y2473600D01*
G01Y1686350D02*
Y1785130D01*
G01X-1117600Y4882370D02*
Y4943650D01*
G01Y2874870D02*
Y3003110D01*
G01Y2342370D02*
Y2459130D01*
G01Y1686350D02*
Y1785130D01*
G01X-1092200Y4882370D02*
Y4943650D01*
G01Y2885470D02*
Y3007880D01*
G01Y2342370D02*
Y2448530D01*
G01Y1686350D02*
Y1785130D01*
G01X-1066800Y4882370D02*
Y4943650D01*
G01Y2892730D02*
Y2996080D01*
G01Y2342370D02*
Y2441270D01*
G01Y1686350D02*
Y1785130D01*
G01X-1041400Y4882370D02*
Y4943650D01*
G01Y2896980D02*
Y2995140D01*
G01Y2342370D02*
Y2437020D01*
G01Y1686350D02*
Y1785130D01*
G01X-1016000Y4882370D02*
Y4943650D01*
G01Y2898370D02*
Y2995140D01*
G01Y2342370D02*
Y2435630D01*
G01Y1686350D02*
Y1785130D01*
G01X-990600Y4882370D02*
Y4943650D01*
G01Y2896980D02*
Y2995140D01*
G01Y2346550D02*
Y2437020D01*
G01Y1686350D02*
Y1785130D01*
G01X-965200Y4882370D02*
Y4943650D01*
G01Y2892730D02*
Y2995140D01*
G01Y2368490D02*
Y2441270D01*
G01Y1686350D02*
Y1785130D01*
G01X-939800Y4882370D02*
Y4943650D01*
G01Y3227860D02*
Y3298480D01*
G01Y2885470D02*
Y2995140D01*
G01Y2390350D02*
Y2448530D01*
G01Y1686350D02*
Y1702890D01*
G01X-914400Y4882370D02*
Y4943650D01*
G01Y3223350D02*
Y3323880D01*
G01Y2874870D02*
Y2999650D01*
G01Y2401580D02*
Y2459130D01*
G01X-889000Y4882370D02*
Y4943650D01*
G01Y3201840D02*
Y3349280D01*
G01Y2860400D02*
Y3021160D01*
G01Y2402360D02*
Y2473600D01*
G01X-863600Y4882370D02*
Y4943650D01*
G01Y2841090D02*
Y3372630D01*
G01Y2402360D02*
Y2492910D01*
G01X-838200Y4882370D02*
Y4943650D01*
G01Y2815060D02*
Y3372630D01*
G01Y2402360D02*
Y2518940D01*
G01X-812800Y4882370D02*
Y4943650D01*
G01Y2777650D02*
Y3372630D01*
G01Y2402360D02*
Y2556350D01*
G01X-787400Y4882370D02*
Y4943650D01*
G01Y2702700D02*
Y3372630D01*
G01Y2402360D02*
Y2631300D01*
G01X-762000Y4882370D02*
Y4943650D01*
G01Y2397460D02*
Y3372630D01*
G01X-736600Y4882370D02*
Y4943650D01*
G01Y2374890D02*
Y3372630D01*
G01X-711200Y4882370D02*
Y4943650D01*
G01Y2362390D02*
Y3372630D01*
G01X-685800Y4882370D02*
Y4943650D01*
G01Y2365060D02*
Y3372630D01*
G01X-660400Y4882370D02*
Y4943650D01*
G01Y2365060D02*
Y3372630D01*
G01X-635000Y4882370D02*
Y4943650D01*
G01Y2365060D02*
Y3372630D01*
G01X-609600Y4882370D02*
Y4943650D01*
G01Y2939860D02*
Y3372630D01*
G01Y2365060D02*
Y2902140D01*
G01X-584200Y4882370D02*
Y4943650D01*
G01Y2990070D02*
Y3372630D01*
G01Y2365060D02*
Y2851930D01*
G01X-558800Y4882370D02*
Y4943650D01*
G01Y3009850D02*
Y3372630D01*
G01Y2356040D02*
Y2832150D01*
G01Y2215370D02*
Y2215950D01*
G01X-533400Y4882370D02*
Y4943650D01*
G01Y3019640D02*
Y3372630D01*
G01Y2215370D02*
Y2822360D01*
G01X-508000Y4882370D02*
Y4943650D01*
G01Y3327910D02*
Y3372630D01*
G01Y3022350D02*
Y3276090D01*
G01Y2215370D02*
Y2819650D01*
G01X-482600Y4882370D02*
Y4943650D01*
G01Y3018600D02*
Y3231250D01*
G01Y2384030D02*
Y2823400D01*
G01X-457200Y4882370D02*
Y4943650D01*
G01Y3007540D02*
Y3212290D01*
G01Y2399990D02*
Y2834460D01*
G01X-431800Y4882370D02*
Y4943650D01*
G01Y2985510D02*
Y3203000D01*
G01Y2402360D02*
Y2856490D01*
G01X-406400Y4860120D02*
Y4943650D01*
G01Y2977370D02*
Y3200690D01*
G01Y2402360D02*
Y2864630D01*
G01X-381000Y4834720D02*
Y4943650D01*
G01Y3107350D02*
Y3115650D01*
G01Y2980350D02*
Y2988650D01*
G01Y2853350D02*
Y2861650D01*
G01Y2402360D02*
Y2734650D01*
G01X-355600Y4840370D02*
Y4943650D01*
G01Y2698830D02*
Y2716120D01*
G01Y2402360D02*
Y2635180D01*
G01X-330200Y4848040D02*
Y4943650D01*
G01Y2402360D02*
Y2619410D01*
G01X-304800Y4848860D02*
Y4943650D01*
G01Y2399990D02*
Y2617940D01*
G01X-279400Y4848860D02*
Y4943650D01*
G01Y2384040D02*
Y2617940D01*
G01X-254000Y4848860D02*
Y4943650D01*
G01Y2397460D02*
Y2617940D01*
G01X-228600Y4848860D02*
Y4943650D01*
G01Y2402360D02*
Y2617940D01*
G01X-203200Y4848860D02*
Y4943650D01*
G01Y2402360D02*
Y2617940D01*
G01X-177800Y4848860D02*
Y4943650D01*
G01Y2402360D02*
Y2617940D01*
G01X-152400Y4844910D02*
Y4943650D01*
G01Y2708710D02*
Y2711580D01*
G01Y2402360D02*
Y2625300D01*
G01X-127000Y4832020D02*
Y4943650D01*
G01Y2402360D02*
Y2724470D01*
G01X-101600Y4802300D02*
Y4943650D01*
G01Y4675310D02*
Y4722700D01*
G01Y4548310D02*
Y4595690D01*
G01Y4437870D02*
Y4468690D01*
G01Y2833810D02*
Y2881190D01*
G01Y2401580D02*
Y2754190D01*
G01X-76200Y4419650D02*
Y4943650D01*
G01Y2390350D02*
Y2947430D01*
G01X-50800Y4394250D02*
Y4943650D01*
G01Y3148580D02*
Y3162250D01*
G01Y2373730D02*
Y2947420D01*
G01Y2183370D02*
Y2198270D01*
G01X-25400Y4464570D02*
Y4943650D01*
G01Y3141940D02*
Y3238450D01*
G01Y2384140D02*
Y2954060D01*
G01Y2183370D02*
Y2187860D01*
G01X0Y4489970D02*
Y4943650D01*
G01Y3127020D02*
Y3213050D01*
G01Y2387370D02*
Y2968980D01*
G01Y2183370D02*
Y2184630D01*
G01X25400Y4515370D02*
Y4943650D01*
G01Y3096720D02*
Y3187650D01*
G01Y2384140D02*
Y2999280D01*
G01Y2183370D02*
Y2187860D01*
G01X50800Y4829770D02*
Y4943650D01*
G01Y2373730D02*
Y3162250D01*
G01Y2183370D02*
Y2198270D01*
G01X76200Y4855170D02*
Y4943650D01*
G01Y2352860D02*
Y3136850D01*
G01Y2174990D02*
Y2219140D01*
G01X101600Y4880570D02*
Y4943650D01*
G01Y3087810D02*
Y3118630D01*
G01Y2960810D02*
Y3008190D01*
G01Y2833810D02*
Y2881190D01*
G01Y2706800D02*
Y2754190D01*
G01Y2163460D02*
Y2627200D01*
G01X127000Y4905970D02*
Y4943650D01*
G01Y2137860D02*
Y2597480D01*
G01X152400Y4913870D02*
Y4943650D01*
G01Y2105910D02*
Y2584590D01*
G01X177800Y4913870D02*
Y4943650D01*
G01Y2121760D02*
Y2580640D01*
G01X203200Y4913870D02*
Y4943650D01*
G01Y2152730D02*
Y2580640D01*
G01X228600Y4913870D02*
Y4943650D01*
G01Y2169020D02*
Y2580640D01*
G01X254000Y4913870D02*
Y4943650D01*
G01Y2187190D02*
Y2580640D01*
G01X279400Y4913870D02*
Y4943650D01*
G01Y2212590D02*
Y2580640D01*
G01X304800Y4913870D02*
Y4943650D01*
G01Y2237990D02*
Y2580640D01*
G01X330200Y4913870D02*
Y4943650D01*
G01Y2246870D02*
Y2581470D01*
G01X355600Y4913870D02*
Y4943650D01*
G01Y2246870D02*
Y2589130D01*
G01X381000Y4913870D02*
Y4943650D01*
G01Y3361350D02*
Y3369650D01*
G01Y2726350D02*
Y2734650D01*
G01Y2246870D02*
Y2607660D01*
G01X406400Y4913870D02*
Y4943650D01*
G01Y3293570D02*
Y3372630D01*
G01Y2246870D02*
Y2737630D01*
G01X431800Y4913870D02*
Y4943650D01*
G01Y3268170D02*
Y3372630D01*
G01Y2246870D02*
Y2737630D01*
G01X457200Y4913870D02*
Y4943650D01*
G01Y3242770D02*
Y3372630D01*
G01Y2246870D02*
Y2737630D01*
G01X482600Y4913870D02*
Y4943650D01*
G01Y3217370D02*
Y3387390D01*
G01Y2246870D02*
Y2737630D01*
G01X508000Y4913870D02*
Y4943650D01*
G01Y3328840D02*
Y3412790D01*
G01Y3014460D02*
Y3091650D01*
G01Y2246870D02*
Y2714980D01*
G01X533400Y4913870D02*
Y4943650D01*
G01Y3350350D02*
Y3438190D01*
G01Y3032860D02*
Y3091650D01*
G01Y2246870D02*
Y2700060D01*
G01X558800Y4913870D02*
Y4943650D01*
G01Y3354860D02*
Y3463590D01*
G01Y3037360D02*
Y3102080D01*
G01Y2246870D02*
Y2693420D01*
G01X584200Y4913870D02*
Y4943650D01*
G01Y3354860D02*
Y3389810D01*
G01Y3037360D02*
Y3122140D01*
G01Y2246870D02*
Y2693420D01*
G01X609600Y4913870D02*
Y4943650D01*
G01Y3354860D02*
Y3372880D01*
G01Y3037360D02*
Y3122140D01*
G01Y2246870D02*
Y2700060D01*
G01X635000Y4913870D02*
Y4943650D01*
G01Y3354860D02*
Y3370140D01*
G01Y3037360D02*
Y3122140D01*
G01Y2246870D02*
Y2714980D01*
G01X660400Y4913870D02*
Y4943650D01*
G01Y3354860D02*
Y3370140D01*
G01Y3037360D02*
Y3122140D01*
G01Y2246870D02*
Y2745280D01*
G01X685800Y4913870D02*
Y4943650D01*
G01Y3353920D02*
Y3370140D01*
G01Y3036420D02*
Y3123080D01*
G01Y2246870D02*
Y2805580D01*
G01X711200Y4913870D02*
Y4943650D01*
G01Y3342120D02*
Y3370290D01*
G01Y3024620D02*
Y3134880D01*
G01Y2246870D02*
Y2817380D01*
G01X736600Y4913870D02*
Y4943650D01*
G01Y3314890D02*
Y3378520D01*
G01Y2997390D02*
Y3162110D01*
G01Y2246870D02*
Y2844610D01*
G01X762000Y4913870D02*
Y4943650D01*
G01Y3317240D02*
Y3398900D01*
G01Y2999740D02*
Y3159760D01*
G01Y2255360D02*
Y2842260D01*
G01X787400Y4913870D02*
Y4943650D01*
G01Y3317560D02*
Y3415130D01*
G01Y3000060D02*
Y3159440D01*
G01Y2276860D02*
Y2841940D01*
G01X812800Y4913870D02*
Y4943650D01*
G01Y3317560D02*
Y3415130D01*
G01Y3000060D02*
Y3159440D01*
G01Y2288020D02*
Y2841940D01*
G01X838200Y4913870D02*
Y4943650D01*
G01Y3317560D02*
Y3415130D01*
G01Y3000060D02*
Y3159440D01*
G01Y2291850D02*
Y2841940D01*
G01Y1686350D02*
Y1737150D01*
G01X863600Y4913870D02*
Y4943650D01*
G01Y3317560D02*
Y3415130D01*
G01Y3000060D02*
Y3159440D01*
G01Y2289210D02*
Y2841940D01*
G01Y1686350D02*
Y1725920D01*
G01X889000Y4913870D02*
Y4943650D01*
G01Y3317240D02*
Y3415130D01*
G01Y2999740D02*
Y3159760D01*
G01Y2279520D02*
Y2842260D01*
G01Y1686350D02*
Y1725140D01*
G01X914400Y4913870D02*
Y4943650D01*
G01Y2259890D02*
Y3409160D01*
G01Y1686350D02*
Y1725140D01*
G01X939800Y4913870D02*
Y4943650D01*
G01Y2235780D02*
Y3398100D01*
G01Y1686350D02*
Y1725140D01*
G01X965200Y4913870D02*
Y4943650D01*
G01Y2268040D02*
Y3390260D01*
G01Y1686350D02*
Y1725140D01*
G01X990600Y4913870D02*
Y4943650D01*
G01Y2283690D02*
Y3382420D01*
G01Y1686350D02*
Y1725140D01*
G01X1016000Y4913870D02*
Y4943650D01*
G01Y2290830D02*
Y3376240D01*
G01Y1686350D02*
Y1730040D01*
G01X1041400Y4913870D02*
Y4943650D01*
G01Y2291290D02*
Y3376140D01*
G01Y1939540D02*
Y1960650D01*
G01Y1686350D02*
Y1743460D01*
G01X1066800Y4913870D02*
Y4943650D01*
G01Y2285150D02*
Y3376140D01*
G01Y1955490D02*
Y1986050D01*
G01Y1686350D02*
Y1727510D01*
G01X1092200Y4913870D02*
Y4943650D01*
G01Y2270930D02*
Y3376140D01*
G01Y1957860D02*
Y2108840D01*
G01Y1686350D02*
Y1725140D01*
G01X1117600Y4913870D02*
Y4943650D01*
G01Y2242360D02*
Y3376140D01*
G01Y1957860D02*
Y2138630D01*
G01Y1686350D02*
Y1725140D01*
G01X1143000Y4913870D02*
Y4943650D01*
G01Y1957860D02*
Y3376240D01*
G01Y1686350D02*
Y1725140D01*
G01X1168400Y4913870D02*
Y4943650D01*
G01Y3815280D02*
Y3868220D01*
G01Y1957860D02*
Y3384110D01*
G01Y1686350D02*
Y1725140D01*
G01X1193800Y4913870D02*
Y4943650D01*
G01Y3777630D02*
Y3905870D01*
G01Y3567610D02*
Y3627390D01*
G01Y1957860D02*
Y3417400D01*
G01Y1686350D02*
Y1725140D01*
G01X1219200Y4913870D02*
Y4943650D01*
G01Y1955490D02*
Y3924610D01*
G01Y1686350D02*
Y1727510D01*
G01X1244600Y4913870D02*
Y4943650D01*
G01Y1940060D02*
Y3899210D01*
G01Y1686350D02*
Y1742940D01*
G01X1270000Y4913870D02*
Y4943650D01*
G01Y3732680D02*
Y3871150D01*
G01Y3222610D02*
Y3633320D01*
G01Y2653160D02*
Y3000390D01*
G01Y2399180D02*
Y2553840D01*
G01Y2145180D02*
Y2299820D01*
G01Y1918120D02*
Y2045820D01*
G01Y1686350D02*
Y1764880D01*
G01X1295400Y4913870D02*
Y4943650D01*
G01Y3773970D02*
Y3845760D01*
G01Y3243560D02*
Y3592040D01*
G01Y2694450D02*
Y2979430D01*
G01Y2440470D02*
Y2512550D01*
G01Y2186470D02*
Y2258530D01*
G01Y1932740D02*
Y2004530D01*
G01Y1686350D02*
Y1750260D01*
G01X1320800Y4913870D02*
Y4943650D01*
G01Y3247860D02*
Y3569900D01*
G01Y2920820D02*
Y2940030D01*
G01Y2777510D02*
Y2794180D01*
G01Y1686350D02*
Y1728400D01*
G01X1346200Y4913870D02*
Y4943650D01*
G01Y3247860D02*
Y3556440D01*
G01Y1686350D02*
Y1714940D01*
G01X1371600Y4913870D02*
Y4943650D01*
G01Y3247860D02*
Y3549010D01*
G01Y1686350D02*
Y1707510D01*
G01X1397000Y4913870D02*
Y4943650D01*
G01Y3247860D02*
Y3546630D01*
G01Y1686350D02*
Y1705120D01*
G01X1422400Y4913870D02*
Y4943650D01*
G01Y3247860D02*
Y3549010D01*
G01Y1686350D02*
Y1707510D01*
G01X1447800Y4913870D02*
Y4943650D01*
G01Y3247860D02*
Y3556440D01*
G01Y1686350D02*
Y1714940D01*
G01X1473200Y4913870D02*
Y4943650D01*
G01Y1686350D02*
Y1728400D01*
G01X1498600Y4913870D02*
Y4943650D01*
G01Y2440470D02*
Y2512260D01*
G01Y2186470D02*
Y2258530D01*
G01Y1932460D02*
Y2004530D01*
G01Y1686350D02*
Y1750530D01*
G01X1524000Y4913870D02*
Y4943650D01*
G01Y2399180D02*
Y2537650D01*
G01Y2145180D02*
Y2299820D01*
G01Y1891170D02*
Y2045820D01*
G01Y1686350D02*
Y1791820D01*
G01X1549400Y4904820D02*
Y4943650D01*
G01Y1686350D02*
Y2565710D01*
G01X1574800Y4879420D02*
Y4943650D01*
G01Y1686350D02*
Y2591110D01*
G01X1600200Y1686350D02*
Y4943650D01*
G01X-1489720Y4032050D02*
G03X-1504930Y4045520I-97761J-95067D01*
G01Y4082470D01*
G03Y4299530I-82570J108530D01*
G01Y4365010D01*
X-1529050D01*
G03X-1532690Y4527530I-58449J79992D01*
G01X-1504930D01*
Y4562690D01*
G03X-1469910Y4577000I-2575J56309D01*
G01X-1417870Y4623570D01*
X-1386350Y4596340D01*
G03X-1348750Y4582640I36841J42664D01*
G01X-1229500D01*
G03X-1184500Y4605060I1J56369D01*
G03X-1139500Y4582640I44999J33949D01*
G01X-1020250D01*
G03X-982650Y4596340I759J56364D01*
G01X-962250Y4613960D01*
X-941850Y4596340D01*
G03X-904250Y4582640I36841J42664D01*
G01X-785000D01*
G03X-731070Y4622610I-1J56369D01*
G01X-704740D01*
G03X-695000Y4619940I9731J16399D01*
G01X-575000D01*
G03X-555940Y4639000I-5J19065D01*
G01Y4759000D01*
G03X-559180Y4769630I-19067J-3D01*
G01X-475350D01*
X-438500Y4732780D01*
G03X-482710Y4564870I28501J-97279D01*
G01X-1229850D01*
X-1373870Y4420850D01*
Y3993370D01*
X-1451020D01*
X-1489720Y4032050D01*
G01X-558680Y4768850D02*
X-474570D01*
G01X-555940Y4756150D02*
X-461870D01*
G01X-482600Y4743450D02*
X-449170D01*
G01X-482600Y4730750D02*
X-444690D01*
G01X-555940Y4743450D02*
X-533400D01*
G01X-555940Y4730750D02*
X-533400D01*
G01X-508000Y4718050D02*
X-468830D01*
G01X-508000Y4705350D02*
X-483460D01*
G01X-555940Y4718050D02*
X-533400D01*
G01X-555940Y4705350D02*
X-533400D01*
G01X-508000Y4692650D02*
X-493720D01*
G01X-508000Y4679950D02*
X-501100D01*
G01X-555940Y4692650D02*
X-533400D01*
G01X-555940Y4679950D02*
X-533400D01*
G01X-555940Y4667250D02*
X-506270D01*
G01X-555940Y4654550D02*
X-509560D01*
G01X-555940Y4641850D02*
X-511170D01*
G01X-558680Y4629150D02*
X-511170D01*
G01X-533400Y4616450D02*
X-509560D01*
G01X-533400Y4603750D02*
X-506270D01*
G01X-733340Y4616450D02*
X-558800D01*
G01X-741020Y4603750D02*
X-558800D01*
G01X-974070D02*
X-950430D01*
G01X-1185520D02*
X-1183480D01*
G01X-1425830Y4616450D02*
X-1409630D01*
G01X-1440020Y4603750D02*
X-1394930D01*
G01X-508000Y4591050D02*
X-501100D01*
G01X-508000Y4578350D02*
X-493720D01*
G01X-755380Y4591050D02*
X-736600D01*
G01X-989860D02*
X-934640D01*
G01X-1199880D02*
X-1169120D01*
G01X-1397000D02*
X-1379140D01*
G01X-1397000Y4578350D02*
X-736600D01*
G01X-1454210Y4591050D02*
X-1422400D01*
G01X-1468400Y4578350D02*
X-1422400D01*
G01X-1270000Y4565650D02*
X-483460D01*
G01X-1270000Y4552950D02*
X-1241770D01*
G01X-1489310Y4565650D02*
X-1473200D01*
G01X-1504930Y4552950D02*
X-1473200D01*
G01X-1295400Y4540250D02*
X-1254470D01*
G01X-1295400Y4527550D02*
X-1267170D01*
G01X-1504930Y4540250D02*
X-1498600D01*
G01X-1504930Y4527550D02*
X-1498600D01*
G01X-1320800Y4514850D02*
X-1279870D01*
G01X-1320800Y4502150D02*
X-1292570D01*
G01X-1517240Y4514850D02*
X-1498600D01*
G01X-1506570Y4502150D02*
X-1498600D01*
G01X-1346200Y4489450D02*
X-1305270D01*
G01X-1346200Y4476750D02*
X-1317970D01*
G01X-1498960Y4489450D02*
X-1473200D01*
G01X-1493650Y4476750D02*
X-1473200D01*
G01X-1371600Y4464050D02*
X-1330670D01*
G01X-1371600Y4451350D02*
X-1343370D01*
G01X-1490280Y4464050D02*
X-1473200D01*
G01X-1488630Y4451350D02*
X-1473200D01*
G01X-1397000Y4438650D02*
X-1356070D01*
G01X-1397000Y4425950D02*
X-1368770D01*
G01X-1488630Y4438650D02*
X-1473200D01*
G01X-1490280Y4425950D02*
X-1473200D01*
G01X-1397000Y4413250D02*
X-1373870D01*
G01X-1397000Y4400550D02*
X-1373870D01*
G01X-1493650Y4413250D02*
X-1473200D01*
G01X-1498960Y4400550D02*
X-1473200D01*
G01X-1397000Y4387850D02*
X-1373870D01*
G01X-1397000Y4375150D02*
X-1373870D01*
G01X-1506580Y4387850D02*
X-1498600D01*
G01X-1517240Y4375150D02*
X-1498600D01*
G01X-1397000Y4362450D02*
X-1373870D01*
G01X-1397000Y4349750D02*
X-1373870D01*
G01X-1504930Y4362450D02*
X-1498600D01*
G01X-1504930Y4349750D02*
X-1498600D01*
G01X-1397000Y4337050D02*
X-1373870D01*
G01X-1397000Y4324350D02*
X-1373870D01*
G01X-1504930Y4337050D02*
X-1498600D01*
G01X-1504930Y4324350D02*
X-1498600D01*
G01X-1397000Y4311650D02*
X-1373870D01*
G01X-1397000Y4298950D02*
X-1373870D01*
G01X-1504930Y4311650D02*
X-1473200D01*
G01X-1504170Y4298950D02*
X-1473200D01*
G01X-1397000Y4286250D02*
X-1373870D01*
G01X-1397000Y4273550D02*
X-1373870D01*
G01X-1489910Y4286250D02*
X-1473200D01*
G01X-1478950Y4273550D02*
X-1473200D01*
G01X-1397000Y4260850D02*
X-1373870D01*
G01X-1397000Y4248150D02*
X-1373870D01*
G01X-1470380Y4260850D02*
X-1447800D01*
G01X-1463680Y4248150D02*
X-1447800D01*
G01X-1397000Y4235450D02*
X-1373870D01*
G01X-1397000Y4222750D02*
X-1373870D01*
G01X-1458580Y4235450D02*
X-1447800D01*
G01X-1454880Y4222750D02*
X-1447800D01*
G01X-1397000Y4210050D02*
X-1373870D01*
G01X-1397000Y4197350D02*
X-1373870D01*
G01X-1452470Y4210050D02*
X-1447800D01*
G01X-1451280Y4197350D02*
X-1447800D01*
G01X-1397000Y4184650D02*
X-1373870D01*
G01X-1397000Y4171950D02*
X-1373870D01*
G01X-1451280Y4184650D02*
X-1447800D01*
G01X-1452470Y4171950D02*
X-1447800D01*
G01X-1397000Y4159250D02*
X-1373870D01*
G01X-1397000Y4146550D02*
X-1373870D01*
G01X-1454880Y4159250D02*
X-1447800D01*
G01X-1458580Y4146550D02*
X-1447800D01*
G01X-1397000Y4133850D02*
X-1373870D01*
G01X-1397000Y4121150D02*
X-1373870D01*
G01X-1463680Y4133850D02*
X-1447800D01*
G01X-1470380Y4121150D02*
X-1447800D01*
G01X-1397000Y4108450D02*
X-1373870D01*
G01X-1397000Y4095750D02*
X-1373870D01*
G01X-1478950Y4108450D02*
X-1473200D01*
G01X-1489910Y4095750D02*
X-1473200D01*
G01X-1397000Y4083050D02*
X-1373870D01*
G01X-1397000Y4070350D02*
X-1373870D01*
G01X-1504170Y4083050D02*
X-1473200D01*
G01X-1504930Y4070350D02*
X-1473200D01*
G01X-1397000Y4057650D02*
X-1373870D01*
G01X-1397000Y4044950D02*
X-1373870D01*
G01X-1504930Y4057650D02*
X-1473200D01*
G01X-1504190Y4044950D02*
X-1473200D01*
G01X-1397000Y4032250D02*
X-1373870D01*
G01X-1397000Y4019550D02*
X-1373870D01*
G01X-1489910Y4032250D02*
X-1447800D01*
G01X-1477210Y4019550D02*
X-1447800D01*
G01X-1464510Y4006850D02*
X-1373870D01*
G01X-1451800Y3994150D02*
X-1373870D01*
G01X-555940Y4749800D02*
X-455520D01*
G01X-555940Y4724400D02*
X-458710D01*
G01X-555940Y4699000D02*
X-489020D01*
G01X-555940Y4673600D02*
X-503940D01*
G01X-555940Y4648200D02*
X-510570D01*
G01X-564960Y4622800D02*
X-510570D01*
G01X-1418730D02*
X-1416980D01*
G01X-746970Y4597400D02*
X-503940D01*
G01X-981420D02*
X-943080D01*
G01X-1191470D02*
X-1177530D01*
G01X-1447110D02*
X-1387580D01*
G01X-1476380Y4572000D02*
X-489020D01*
G01X-1504930Y4546600D02*
X-1248120D01*
G01X-1524180Y4521200D02*
X-1273520D01*
G01X-1502440Y4495800D02*
X-1298920D01*
G01X-1491730Y4470400D02*
X-1324320D01*
G01X-1488420Y4445000D02*
X-1349720D01*
G01X-1491740Y4419600D02*
X-1373870D01*
G01X-1502440Y4394200D02*
X-1373870D01*
G01X-1524180Y4368800D02*
X-1373870D01*
G01X-1504930Y4343400D02*
X-1373870D01*
G01X-1504930Y4318000D02*
X-1373870D01*
G01X-1496530Y4292600D02*
X-1373870D01*
G01X-1474400Y4267200D02*
X-1373870D01*
G01X-1460940Y4241800D02*
X-1373870D01*
G01X-1453510Y4216400D02*
X-1373870D01*
G01X-1451130Y4191000D02*
X-1373870D01*
G01X-1453510Y4165600D02*
X-1373870D01*
G01X-1460940Y4140200D02*
X-1373870D01*
G01X-1474400Y4114800D02*
X-1373870D01*
G01X-1496530Y4089400D02*
X-1373870D01*
G01X-1504930Y4064000D02*
X-1373870D01*
G01X-1496540Y4038600D02*
X-1373870D01*
G01X-1470860Y4013200D02*
X-1373870D01*
G01X-1524000Y4521050D02*
Y4527530D01*
G01Y4365010D02*
Y4368950D01*
G01X-1498600Y4488730D02*
Y4563330D01*
G01Y4294410D02*
Y4401270D01*
G01Y4040410D02*
Y4087590D01*
G01X-1473200Y4265380D02*
Y4574270D01*
G01Y4015540D02*
Y4116620D01*
G01X-1447800Y3993370D02*
Y4596780D01*
G01X-1422400Y3993370D02*
Y4619510D01*
G01X-1397000Y3993370D02*
Y4605540D01*
G01X-1371600Y4423120D02*
Y4587140D01*
G01X-1346200Y4448520D02*
Y4582640D01*
G01X-1320800Y4473920D02*
Y4582640D01*
G01X-1295400Y4499320D02*
Y4582640D01*
G01X-1270000Y4524720D02*
Y4582640D01*
G01X-1244600Y4550120D02*
Y4582640D01*
G01X-1219200Y4564870D02*
Y4583580D01*
G01X-1193800Y4564870D02*
Y4595380D01*
G01X-1168400Y4564870D02*
Y4590610D01*
G01X-1143000Y4564870D02*
Y4582740D01*
G01X-1117600Y4564870D02*
Y4582640D01*
G01X-1092200Y4564870D02*
Y4582640D01*
G01X-1066800Y4564870D02*
Y4582640D01*
G01X-1041400Y4564870D02*
Y4582640D01*
G01X-1016000Y4564870D02*
Y4582740D01*
G01X-990600Y4564870D02*
Y4590600D01*
G01X-965200Y4564870D02*
Y4611410D01*
G01X-939800Y4564870D02*
Y4594650D01*
G01X-914400Y4564870D02*
Y4583420D01*
G01X-889000Y4564870D02*
Y4582640D01*
G01X-863600Y4564870D02*
Y4582640D01*
G01X-838200Y4564870D02*
Y4582640D01*
G01X-812800Y4564870D02*
Y4582640D01*
G01X-787400Y4564870D02*
Y4582640D01*
G01X-762000Y4564870D02*
Y4587540D01*
G01X-736600Y4564870D02*
Y4610110D01*
G01X-711200Y4564870D02*
Y4622610D01*
G01X-685800Y4564870D02*
Y4619940D01*
G01X-660400Y4564870D02*
Y4619940D01*
G01X-635000Y4564870D02*
Y4619940D01*
G01X-609600Y4564870D02*
Y4619940D01*
G01X-584200Y4564870D02*
Y4619940D01*
G01X-558800Y4769050D02*
Y4769630D01*
G01Y4564870D02*
Y4628960D01*
G01X-533400Y4564870D02*
Y4769630D01*
G01X-508000Y4661420D02*
Y4769630D01*
G01Y4564870D02*
Y4609590D01*
G01X-482600Y4706250D02*
Y4769630D01*
G01X-457200Y4725210D02*
Y4751480D01*
G01X-473000Y3973010D02*
G03X-469220Y3993560I-72514J23961D01*
G01X-391650Y4071130D01*
X-383690D01*
G03X-340740Y4044110I65436J56368D01*
G03X-318260Y3951440I22488J-43607D01*
G01X-178240D01*
G03X-154620Y3957500I0J49063D01*
G01Y3565370D01*
X-492440D01*
Y3679500D01*
G03X-511500Y3698560I-19065J-5D01*
G01X-631500D01*
G03X-641240Y3695890I-9J-19069D01*
G01X-667570D01*
G03X-721500Y3735860I-53931J-16399D01*
G01X-756420D01*
X-671650Y3820640D01*
X-575750D01*
G03X-523110Y3854970I756J56364D01*
G01X-473000Y3973010D01*
G01X-392430Y4070350D02*
X-383010D01*
G01X-405130Y4057650D02*
X-369050D01*
G01X-417830Y4044950D02*
X-343650D01*
G01X-381000Y4032250D02*
X-355660D01*
G01X-381000Y4019550D02*
X-363470D01*
G01X-430530Y4032250D02*
X-406400D01*
G01X-443230Y4019550D02*
X-406400D01*
G01X-381000Y4006850D02*
X-366900D01*
G01X-381000Y3994150D02*
X-366900D01*
G01X-455930Y4006850D02*
X-431800D01*
G01X-468630Y3994150D02*
X-431800D01*
G01X-381000Y3981450D02*
X-363470D01*
G01X-381000Y3968750D02*
X-355650D01*
G01X-470740Y3981450D02*
X-457200D01*
G01X-474810Y3968750D02*
X-457200D01*
G01X-157480Y3956050D02*
X-154620D01*
G01X-355600D02*
X-339020D01*
G01X-355600Y3943350D02*
X-154620D01*
G01X-480200Y3956050D02*
X-457200D01*
G01X-485590Y3943350D02*
X-457200D01*
G01X-177800Y3930650D02*
X-154620D01*
G01X-177800Y3917950D02*
X-154620D01*
G01X-490980Y3930650D02*
X-482600D01*
G01X-496370Y3917950D02*
X-482600D01*
G01X-177800Y3905250D02*
X-154620D01*
G01X-177800Y3892550D02*
X-154620D01*
G01X-501770Y3905250D02*
X-482600D01*
G01X-507160Y3892550D02*
X-482600D01*
G01X-177800Y3879850D02*
X-154620D01*
G01X-177800Y3867150D02*
X-154620D01*
G01X-512550Y3879850D02*
X-508000D01*
G01X-517940Y3867150D02*
X-508000D01*
G01X-177800Y3854450D02*
X-154620D01*
G01X-177800Y3841750D02*
X-154620D01*
G01X-523330Y3854450D02*
X-508000D01*
G01X-531010Y3841750D02*
X-508000D01*
G01X-177800Y3829050D02*
X-154620D01*
G01X-177800Y3816350D02*
X-154620D01*
G01X-545370Y3829050D02*
X-533400D01*
G01X-675940Y3816350D02*
X-533400D01*
G01X-177800Y3803650D02*
X-154620D01*
G01X-177800Y3790950D02*
X-154620D01*
G01X-688640Y3803650D02*
X-660400D01*
G01X-701340Y3790950D02*
X-660400D01*
G01X-177800Y3778250D02*
X-154620D01*
G01X-177800Y3765550D02*
X-154620D01*
G01X-714040Y3778250D02*
X-685800D01*
G01X-726730Y3765550D02*
X-685800D01*
G01X-177800Y3752850D02*
X-154620D01*
G01X-177800Y3740150D02*
X-154620D01*
G01X-739430Y3752850D02*
X-685800D01*
G01X-752130Y3740150D02*
X-685800D01*
G01X-177800Y3727450D02*
X-154620D01*
G01X-177800Y3714750D02*
X-154620D01*
G01X-691880Y3727450D02*
X-660400D01*
G01X-677520Y3714750D02*
X-660400D01*
G01X-177800Y3702050D02*
X-154620D01*
G01X-177800Y3689350D02*
X-154620D01*
G01X-669840Y3702050D02*
X-482600D01*
G01X-495180Y3689350D02*
X-482600D01*
G01X-177800Y3676650D02*
X-154620D01*
G01X-177800Y3663950D02*
X-154620D01*
G01X-492440Y3676650D02*
X-482600D01*
G01X-492440Y3663950D02*
X-482600D01*
G01X-177800Y3651250D02*
X-154620D01*
G01X-177800Y3638550D02*
X-154620D01*
G01X-492440Y3651250D02*
X-482600D01*
G01X-492440Y3638550D02*
X-482600D01*
G01X-177800Y3625850D02*
X-154620D01*
G01X-177800Y3613150D02*
X-154620D01*
G01X-492440Y3625850D02*
X-482600D01*
G01X-492440Y3613150D02*
X-482600D01*
G01X-177800Y3600450D02*
X-154620D01*
G01X-177800Y3587750D02*
X-154620D01*
G01X-492440Y3600450D02*
X-482600D01*
G01X-492440Y3587750D02*
X-482600D01*
G01X-492440Y3575050D02*
X-154620D01*
G01X-398780Y4064000D02*
X-376800D01*
G01X-424180Y4038600D02*
X-349170D01*
G01X-449580Y4013200D02*
X-365650D01*
G01X-469690Y3987800D02*
X-365650D01*
G01X-477500Y3962400D02*
X-349170D01*
G01X-488280Y3937000D02*
X-154620D01*
G01X-499060Y3911600D02*
X-154620D01*
G01X-509850Y3886200D02*
X-154620D01*
G01X-520630Y3860800D02*
X-154620D01*
G01X-536960Y3835400D02*
X-154620D01*
G01X-682280Y3810000D02*
X-154620D01*
G01X-707680Y3784600D02*
X-154620D01*
G01X-733080Y3759200D02*
X-154620D01*
G01X-706400Y3733800D02*
X-154620D01*
G01X-673100Y3708400D02*
X-154620D01*
G01X-492760Y3683000D02*
X-154620D01*
G01X-492440Y3657600D02*
X-154620D01*
G01X-492440Y3632200D02*
X-154620D01*
G01X-492440Y3606800D02*
X-154620D01*
G01X-492440Y3581400D02*
X-154620D01*
G01X-736600Y3735860D02*
Y3755680D01*
G01X-711200Y3734920D02*
Y3781080D01*
G01X-685800Y3723120D02*
Y3806480D01*
G01X-660400Y3695890D02*
Y3820640D01*
G01X-635000Y3698240D02*
Y3820640D01*
G01X-609600Y3698560D02*
Y3820640D01*
G01X-584200Y3698560D02*
Y3820640D01*
G01X-558800Y3698560D02*
Y3823010D01*
G01X-533400Y3698560D02*
Y3838950D01*
G01X-508000Y3698240D02*
Y3890560D01*
G01X-482600Y3565370D02*
Y3950390D01*
G01X-457200Y3565370D02*
Y4005580D01*
G01X-431800Y3565370D02*
Y4030980D01*
G01X-406400Y3565370D02*
Y4056380D01*
G01X-381000Y3565370D02*
Y4068150D01*
G01X-355600Y4032330D02*
Y4049620D01*
G01Y3565370D02*
Y3968680D01*
G01X-330200Y3565370D02*
Y3952910D01*
G01X-304800Y3565370D02*
Y3951440D01*
G01X-279400Y3565370D02*
Y3951440D01*
G01X-254000Y3565370D02*
Y3951440D01*
G01X-228600Y3565370D02*
Y3951440D01*
G01X-203200Y3565370D02*
Y3951440D01*
G01X-177800Y3565370D02*
Y3951440D01*
G01X-248250D02*
Y4000500D01*
G01X-336550Y3954980D02*
X-248250Y4000500D01*
G01X-382370Y4069640D02*
X-248250Y4000500D01*
G01D02*
X-159940Y3954980D01*
G01X-295830Y3951440D02*
X-248250Y4000500D01*
G01X-358280Y3972140D02*
X-248250Y4000500D01*
G01X-358290Y4028860D02*
X-248250Y4000500D01*
G01D02*
X-200670Y3951440D01*
G01X816640Y1879040D02*
G03X809630Y1884650I-38616J-41068D01*
G01X762510Y1930520D01*
G03X709570Y1944370I-44515J-62050D01*
G01X597630D01*
G03X602430Y1955610I-49137J27629D01*
G01X628760D01*
G03X638500Y1952940I9731J16399D01*
G01X758500D01*
G03X777560Y1972000I-5J19065D01*
G01Y2092000D01*
G03X758500Y2111060I-19065J-5D01*
G01X638500D01*
G03X628760Y2108390I-9J-19069D01*
G01X602430D01*
G03X585940Y2134130I-53932J-16399D01*
G01X753510D01*
X768820Y2118820D01*
G03X769010Y2118630I39955J39765D01*
G03X935500Y2155130I71490J71869D01*
G03X958630Y2119010I95000J35369D01*
G03X958820Y2118820I39955J39765D01*
G01X974130Y2103510D01*
Y2052820D01*
X929570Y2008260D01*
G03X888490Y1994020I3437J-76288D01*
G01X841370Y1948150D01*
G03X816640Y1901500I31638J-46652D01*
G01Y1879040D01*
G01X934540Y2152650D02*
X936460D01*
G01X928370Y2139950D02*
X942630D01*
G01X919720Y2127250D02*
X951280D01*
G01X907640Y2114550D02*
X963090D01*
G01X592480Y2127250D02*
X760390D01*
G01X600160Y2114550D02*
X773360D01*
G01X965200Y2101850D02*
X974130D01*
G01X965200Y2089150D02*
X974130D01*
G01X889670Y2101850D02*
X914400D01*
G01X774820D02*
X791330D01*
G01X842580Y2089150D02*
X914400D01*
G01X777560D02*
X838420D01*
G01X965200Y2076450D02*
X974130D01*
G01X965200Y2063750D02*
X974130D01*
G01X777560Y2076450D02*
X787400D01*
G01X777560Y2063750D02*
X787400D01*
G01X939800Y2051050D02*
X972360D01*
G01X939800Y2038350D02*
X959660D01*
G01X777560Y2051050D02*
X787400D01*
G01X777560Y2038350D02*
X787400D01*
G01X914400Y2025650D02*
X946960D01*
G01X914400Y2012950D02*
X934260D01*
G01X777560Y2025650D02*
X787400D01*
G01X777560Y2012950D02*
X787400D01*
G01X863600Y2000250D02*
X898800D01*
G01X863600Y1987550D02*
X881840D01*
G01X777560Y2000250D02*
X787400D01*
G01X777560Y1987550D02*
X787400D01*
G01X838200Y1974850D02*
X868800D01*
G01X838200Y1962150D02*
X855750D01*
G01X777560Y1974850D02*
X787400D01*
G01X774820Y1962150D02*
X787400D01*
G01X812800Y1949450D02*
X842710D01*
G01X812800Y1936750D02*
X829020D01*
G01X600160Y1949450D02*
X787400D01*
G01X752190Y1936750D02*
X787400D01*
G01X769160Y1924050D02*
X821350D01*
G01X782200Y1911350D02*
X817510D01*
G01X795250Y1898650D02*
X816640D01*
G01X808290Y1885950D02*
X816640D01*
G01X924400Y2133600D02*
X946600D01*
G01X586530D02*
X754040D01*
G01X899690Y2108200D02*
X969440D01*
G01X768540D02*
X781310D01*
G01X777560Y2082800D02*
X974130D01*
G01X777560Y2057400D02*
X974130D01*
G01X777560Y2032000D02*
X953310D01*
G01X777560Y2006600D02*
X916800D01*
G01X777560Y1981200D02*
X875320D01*
G01X768540Y1955800D02*
X849220D01*
G01X762640Y1930400D02*
X824610D01*
G01X788730Y1905000D02*
X816740D01*
G01X816040Y1879600D02*
X816640D01*
G01X609600Y2108390D02*
Y2134130D01*
G01Y1944370D02*
Y1955610D01*
G01X635000Y2110740D02*
Y2134130D01*
G01Y1944370D02*
Y1953260D01*
G01X660400Y2111060D02*
Y2134130D01*
G01Y1944370D02*
Y1952940D01*
G01X685800Y2111060D02*
Y2134130D01*
G01Y1944370D02*
Y1952940D01*
G01X711200Y2111060D02*
Y2134130D01*
G01Y1944540D02*
Y1952940D01*
G01X736600Y2111060D02*
Y2134130D01*
G01Y1942540D02*
Y1952940D01*
G01X762000Y2110740D02*
Y2125640D01*
G01Y1930890D02*
Y1953260D01*
G01X787400Y1906300D02*
Y2104140D01*
G01X812800Y1882340D02*
Y2092980D01*
G01X838200Y1945840D02*
Y2089150D01*
G01X863600Y1969800D02*
Y2091790D01*
G01X889000Y1994390D02*
Y2101480D01*
G01X914400Y2006040D02*
Y2121110D01*
G01X939800Y2018490D02*
Y2145220D01*
G01X965200Y2043890D02*
Y2112440D01*
G01X978220Y4079370D02*
G03X817510Y4199370I-89215J48134D01*
G03X817320Y4199180I39765J-39955D01*
G01X802010Y4183870D01*
X478660D01*
G03Y4325130I-72710J70630D01*
G01X1076150D01*
X1131220Y4270060D01*
X1019500D01*
G03X1000440Y4251000I5J-19065D01*
G01Y4131000D01*
G03X1003110Y4121260I19069J-9D01*
G01Y4094930D01*
G03X978220Y4079370I16405J-53929D01*
G01X479410Y4324350D02*
X1076930D01*
G01X1066800Y4311650D02*
X1089630D01*
G01X1066800Y4298950D02*
X1102330D01*
G01X489670Y4311650D02*
X508000D01*
G01X497050Y4298950D02*
X508000D01*
G01X990600Y4286250D02*
X1115030D01*
G01X990600Y4273550D02*
X1127730D01*
G01X502220Y4286250D02*
X508000D01*
G01X505510Y4273550D02*
X508000D01*
G01X990600Y4260850D02*
X1003180D01*
G01X990600Y4248150D02*
X1000440D01*
G01X507120Y4260850D02*
X508000D01*
G01X507120Y4248150D02*
X508000D01*
G01X990600Y4235450D02*
X1000440D01*
G01X990600Y4222750D02*
X1000440D01*
G01X838200Y4235450D02*
X939800D01*
G01X923710Y4222750D02*
X939800D01*
G01X838200D02*
X854300D01*
G01X505510Y4235450D02*
X508000D01*
G01X502220Y4222750D02*
X508000D01*
G01X947850Y4210050D02*
X1000440D01*
G01X962470Y4197350D02*
X1000440D01*
G01X787400Y4210050D02*
X830160D01*
G01X787400Y4197350D02*
X815490D01*
G01X497050Y4210050D02*
X508000D01*
G01X489670Y4197350D02*
X508000D01*
G01X972730Y4184650D02*
X1000440D01*
G01X980110Y4171950D02*
X1000440D01*
G01X479410Y4184650D02*
X802790D01*
G01X985280Y4159250D02*
X1000440D01*
G01X988570Y4146550D02*
X1000440D01*
G01X990180Y4133850D02*
X1000440D01*
G01X990180Y4121150D02*
X1003110D01*
G01X988570Y4108450D02*
X1003110D01*
G01X985270Y4095750D02*
X1003110D01*
G01X980110Y4083050D02*
X981970D01*
G01X484970Y4318000D02*
X1083280D01*
G01X499890Y4292600D02*
X1108680D01*
G01X506520Y4267200D02*
X1009460D01*
G01X506520Y4241800D02*
X1000440D01*
G01X937730Y4216400D02*
X1000440D01*
G01X499890D02*
X840280D01*
G01X968030Y4191000D02*
X1000440D01*
G01X484970D02*
X809140D01*
G01X982950Y4165600D02*
X1000440D01*
G01X989580Y4140200D02*
X1000440D01*
G01X989580Y4114800D02*
X1003110D01*
G01X982950Y4089400D02*
X990610D01*
G01X482600Y4320840D02*
Y4325130D01*
G01Y4183870D02*
Y4188160D01*
G01X508000Y4183870D02*
Y4325130D01*
G01X533400Y4183870D02*
Y4325130D01*
G01X558800Y4183870D02*
Y4325130D01*
G01X584200Y4183870D02*
Y4325130D01*
G01X609600Y4183870D02*
Y4325130D01*
G01X635000Y4183870D02*
Y4325130D01*
G01X660400Y4183870D02*
Y4325130D01*
G01X685800Y4183870D02*
Y4325130D01*
G01X711200Y4183870D02*
Y4325130D01*
G01X736600Y4183870D02*
Y4325130D01*
G01X762000Y4183870D02*
Y4325130D01*
G01X787400Y4183870D02*
Y4325130D01*
G01X812800Y4194660D02*
Y4325130D01*
G01X838200Y4215230D02*
Y4325130D01*
G01X863600Y4225650D02*
Y4325130D01*
G01X889000Y4228880D02*
Y4325130D01*
G01X914400Y4225650D02*
Y4325130D01*
G01X939800Y4215240D02*
Y4325130D01*
G01X965200Y4194370D02*
Y4325130D01*
G01X990600Y4089390D02*
Y4325130D01*
G01X1016000Y4269740D02*
Y4325130D01*
G01X1041400Y4270060D02*
Y4325130D01*
G01X1066800Y4270060D02*
Y4325130D01*
G01X1092200Y4270060D02*
Y4309080D01*
G01X1117600Y4270060D02*
Y4283680D01*
M02*
