G04 ================== begin FILE IDENTIFICATION RECORD ==================*
G04 Layout Name:  C:/DATA/GIT/CADENCE/MODULES/ZM5202_PL2303/allegro/ZM5202_PL2303.brd*
G04 Film Name:    BOTTOM*
G04 File Format:  Gerber RS274X*
G04 File Origin:  Cadence Allegro 17.2-P019*
G04 Origin Date:  Mon Mar 20 23:22:01 2017*
G04 *
G04 Layer:  ETCH/BOTTOM*
G04 Layer:  PIN/BOTTOM*
G04 Layer:  VIA CLASS/BOTTOM*
G04 *
G04 Offset:    (0.0000 0.0000)*
G04 Mirror:    No*
G04 Mode:      Positive*
G04 Rotation:  0*
G04 FullContactRelief:  No*
G04 UndefLineWidth:     0.0000*
G04 ================== end FILE IDENTIFICATION RECORD ====================*
%FSLAX25Y25*MOMM*%
%IR0*IPPOS*OFA0.00000B0.00000*MIA0B0*SFA1.00000B1.00000*%
%ADD21R,2.1501X1.4*%
%ADD16R,1.4X2.1501*%
%ADD13C,1.*%
%ADD22C,3.*%
%ADD18R,1.95X1.1001*%
%ADD17R,1.1001X1.95*%
%ADD14R,.9901X.51*%
%ADD15C,1.1999*%
%ADD19C,2.1999*%
%ADD11C,1.5999*%
%ADD10R,1.1999X1.1999*%
%ADD20R,2.1999X2.1999*%
%ADD12R,1.5999X1.5999*%
%ADD23C,.3*%
%ADD24C,2.2004*%
%ADD25C,1.8544*%
G75*
%LPD*%
G75*
G36*
G01X-489990Y-1689990D02*
Y1439990D01*
X3749990D01*
Y-1689990D01*
X-489990D01*
G37*
%LPC*%
G75*
G36*
G01X-122220Y-34500D02*
Y16500D01*
G02X-109500Y29220I12720J0D01*
G01X-10500D01*
G02X2220Y16500I0J-12720D01*
G01Y-34500D01*
G02X-10500Y-47220I-12720J0D01*
G01X-109500D01*
G02X-122220Y-34500I0J12720D01*
G37*
G36*
G01X2378070Y-379980D02*
X2479980Y-278070D01*
Y-270000D01*
G02X2580000Y-370020I100020J0D01*
G01X2571930D01*
X2470020Y-471930D01*
Y-480000D01*
G02X2370000Y-379980I-100020J0D01*
G01X2378070D01*
G37*
G36*
G01X3418770Y179720D02*
G02Y280I-178770J-89720D01*
G03X3427850Y-14440I9080J-4559D01*
G03X3431740Y-13660I-14J10160D01*
G02X3343660Y-101740I62260J-150340D01*
G03X3329720Y-88770I-9384J3890D01*
G02X3150280I-89720J178770D01*
G03X3136340Y-101740I-4556J-9080D01*
G02X3048260Y-13660I-150340J-62260D01*
G03X3061230Y280I3890J9384D01*
G02X3050840Y24980I178764J89732D01*
G01X2751710D01*
X2750430Y21790D01*
G02X2730000Y7980I-20434J8213D01*
G01X2610000D01*
G02X2591730Y17720I9J22022D01*
G01X2590220Y19960D01*
X2539780D01*
X2538270Y17720D01*
G02X2520000Y7980I-18279J12282D01*
G01X2469940D01*
X2395490Y-66470D01*
G02X2349510Y-85510I-45973J45983D01*
G01X2291050D01*
X2217560Y-12020D01*
X2092500D01*
G02X2087490Y-11450I-32J22019D01*
G03X2075020Y-21340I-2311J-9892D01*
G01Y-206930D01*
X2005610Y-276340D01*
G03X2007110Y-291950I7183J-7187D01*
G02X2012720Y-302500I-7109J-10547D01*
G01Y-517500D01*
G02X2000000Y-530220I-12720J0D01*
G01X1860000D01*
G02X1847280Y-517500I0J12720D01*
G01Y-305020D01*
X1781920D01*
Y-310330D01*
X1781940Y-310550D01*
G02X1782020Y-312500I-21938J-1877D01*
G01Y-507500D01*
G02X1772270Y-525790I-22018J-6D01*
G01X1770020Y-527300D01*
Y-757980D01*
X1800000D01*
G02X1818270Y-767720I-9J-22022D01*
G01X1819780Y-769960D01*
X1870220D01*
X1871730Y-767720D01*
G02X1890000Y-757980I18279J-12282D01*
G01X2010000D01*
G02X2030430Y-771790I-4J-22023D01*
G01X2031710Y-774980D01*
X2336930D01*
X2435020Y-873070D01*
Y-968290D01*
X2438210Y-969570D01*
G02X2450430Y-981790I-8215J-20435D01*
G01X2451710Y-984980D01*
X2906930D01*
X3087360Y-1165410D01*
X3090290Y-1164490D01*
G02Y-1355510I29710J-95510D01*
G01X3087360Y-1354590D01*
X2966930Y-1475020D01*
X2754050D01*
G03X2743950Y-1486310I-2J-10161D01*
G02X2525260Y-1575510I-121953J-13689D01*
G03X2508340Y-1576880I-8009J-6251D01*
G02X2248580Y-1606520I-140343J76879D01*
G03X2233420I-7580J-6759D01*
G02X2026310Y-1633850I-119415J106521D01*
G03X2012170Y-1636890I-5570J-8498D01*
G02X1970000Y-1660020I-42178J26892D01*
G01X1750000D01*
G02X1699980Y-1610000I5J50025D01*
G01Y-1390000D01*
G02X1750000Y-1339980I50025J-5D01*
G01X1928060D01*
X2043070Y-1224980D01*
X2128030D01*
G03X2135210Y-1207640I-3J10158D01*
G01X2094980Y-1167400D01*
Y-1131710D01*
X2091790Y-1130430D01*
G02X2079570Y-1118210I8215J20435D01*
G01X2078290Y-1115020D01*
X2031710D01*
X2030430Y-1118210D01*
G02X2010000Y-1132020I-20434J8213D01*
G01X1890000D01*
G02X1871730Y-1122280I9J22022D01*
G01X1870220Y-1120040D01*
X1819780D01*
X1818270Y-1122280D01*
G02X1800000Y-1132020I-18279J12282D01*
G01X1680000D01*
G02X1659570Y-1118210I4J22023D01*
G01X1658290Y-1115020D01*
X1593070D01*
X1563070Y-1085020D01*
X1555000D01*
G02X1477630Y-921620I0J100017D01*
G03X1469770Y-905020I-7861J6439D01*
G01X1413070D01*
X1370060Y-862020D01*
X1320000D01*
G02X1301730Y-852280I9J22022D01*
G01X1300220Y-850040D01*
X1249780D01*
X1248270Y-852280D01*
G02X1238210Y-860430I-18280J12280D01*
G01X1235020Y-861710D01*
Y-968930D01*
X1186620Y-1017330D01*
X1187300Y-1020110D01*
G02X943200Y-1106040I-126297J-30901D01*
G03X924800I-9200J-4301D01*
G02X689200I-117800J55040D01*
G03X670800I-9200J-4301D01*
G02X608040Y-1168800I-117800J55040D01*
G03Y-1187200I4301J-9200D01*
G02X435200Y-1360040I-55040J-117800D01*
G03X416800I-9200J-4301D01*
G02X184570Y-1366730I-117797J55039D01*
G01X183130Y-1364060D01*
X175020D01*
Y-1385000D01*
G02X125000Y-1435020I-50025J5D01*
G01X-35000D01*
G02X-85020Y-1385000I5J50025D01*
G01Y-1370020D01*
X-161930D01*
X-189940Y-1342020D01*
X-240000D01*
G02X-260430Y-1328210I4J22023D01*
G01X-261710Y-1325020D01*
X-297400D01*
X-380020Y-1242400D01*
Y-501710D01*
X-383210Y-500430D01*
G02X-397020Y-480000I8213J20434D01*
G01Y-360000D01*
G02X-379160Y-338380I22022J-6D01*
G01X-375040Y-337590D01*
Y-283260D01*
X-378660Y-282180D01*
G02X-387720Y-270000I3663J12184D01*
G01Y-150000D01*
G02X-375000Y-137280I12725J-5D01*
G01X-255000D01*
G02X-242280Y-150000I-5J-12725D01*
G01Y-270000D01*
G02X-244420Y-277050I-12722J12D01*
G01X-245280Y-278330D01*
Y-284950D01*
X-244960D01*
Y-340220D01*
X-242720Y-341730D01*
G02X-233570Y-354980I-12289J-18271D01*
G01X-230020D01*
Y-134090D01*
X-166910Y-70980D01*
X103580D01*
X108440Y-66120D01*
X108460Y-66100D01*
G02X110100Y-64460I71540J-69900D01*
G01X110120Y-64440D01*
X114980Y-59580D01*
Y271930D01*
X384980Y541930D01*
Y848290D01*
X381790Y849570D01*
G02X368380Y865840I8215J20433D01*
G01X367590Y869960D01*
X313260D01*
X312180Y866340D01*
G02X300000Y857280I-12184J3663D01*
G01X180000D01*
G02X167280Y870000I5J12725D01*
G01Y990000D01*
G02X180000Y1002720I12725J-5D01*
G01X300000D01*
G02X307050Y1000580I-12J-12722D01*
G01X308330Y999720D01*
X314950D01*
Y1000040D01*
X370220D01*
X371730Y1002280D01*
G02X381790Y1010430I18280J-12280D01*
G01X384980Y1011710D01*
Y1058290D01*
X381790Y1059570D01*
G02X368380Y1075840I8215J20433D01*
G01X367590Y1079960D01*
X313260D01*
X312180Y1076340D01*
G02X300000Y1067280I-12184J3663D01*
G01X180000D01*
G02X167280Y1080000I5J12725D01*
G01Y1200000D01*
G02X180000Y1212720I12725J-5D01*
G01X300000D01*
G02X307050Y1210580I-12J-12722D01*
G01X308330Y1209720D01*
X314950D01*
Y1210040D01*
X370220D01*
X371730Y1212280D01*
G02X390000Y1222020I18279J-12282D01*
G01X510000D01*
G02X532020Y1200000I-5J-22025D01*
G01Y1080000D01*
G02X518210Y1059570I-22023J4D01*
G01X515020Y1058290D01*
Y1011710D01*
X518210Y1010430D01*
G02X532020Y990000I-8213J-20434D01*
G01Y870000D01*
G02X518210Y849570I-22023J4D01*
G01X515020Y848290D01*
Y584370D01*
X519370Y580020D01*
X722700D01*
X724210Y582270D01*
G02X742500Y592020I18284J-12268D01*
G01X937500D01*
G02X955790Y582270I6J-22018D01*
G01X957300Y580020D01*
X1041930D01*
X1140080Y481870D01*
Y226420D01*
X1144940Y221560D01*
X1144960Y221540D01*
G02X1086030Y50580I-69899J-71542D01*
G01X1084250Y50390D01*
X1079400Y45530D01*
X1085020Y39910D01*
Y-221930D01*
X1020830Y-286120D01*
X1026850Y-292140D01*
X1030010Y-290800D01*
G02X1035000Y-289780I4990J-11696D01*
G01X1175000D01*
G02X1183260Y-292820I9J-12718D01*
G03X1189080Y-293370I3301J3859D01*
G02X1200000Y-290480I10906J-19132D01*
G01X1339980D01*
Y-243070D01*
X1408070Y-174980D01*
X1923070D01*
X1944980Y-153070D01*
Y63070D01*
X1893070Y114980D01*
X1698070D01*
X1599980Y213070D01*
Y491930D01*
X1713070Y605020D01*
X1953070D01*
X2004980Y656930D01*
Y719780D01*
X1860000D01*
G02X1847280Y732500I0J12720D01*
G01Y947500D01*
G02X1860000Y960220I12720J0D01*
G01X1941830D01*
G03X1949010Y977570I-3J10162D01*
G01X1863980Y1062600D01*
Y1087410D01*
G02X1823660Y1123780I65007J112602D01*
G01X1780340D01*
G02X1740020Y1087410I-105327J76232D01*
G01Y1062600D01*
X1662400Y984980D01*
X1513950D01*
X1505840Y976860D01*
G03X1513020Y959520I7183J-7182D01*
G01X1760000D01*
G02X1782020Y937500I0J-22020D01*
G01Y742500D01*
G02X1760000Y720480I-22020J0D01*
G01X1620020D01*
Y685090D01*
X1535020Y600090D01*
Y56930D01*
X1586930Y5020D01*
X1724000D01*
G02Y-125020I76000J-65020D01*
G01X1533070D01*
X1404980Y3070D01*
Y653950D01*
X1454160Y703140D01*
G03X1446980Y720480I-7183J7182D01*
G01X1200000D01*
G02X1189080Y723370I-14J22022D01*
G03X1183260Y722820I-2519J-4409D01*
G02X1175000Y719780I-8251J9678D01*
G01X1035000D01*
G02X1022280Y732500I0J12720D01*
G01Y947500D01*
G02X1035000Y960220I12720J0D01*
G01X1175000D01*
G02X1177680Y959940I26J-12718D01*
G03X1189980Y969870I2140J9931D01*
G01Y1049870D01*
X1255220Y1115110D01*
G03X1251620Y1123780I-3595J3590D01*
G01X1250800D01*
Y1128160D01*
G03X1233370Y1135250I-10159J-4D01*
G02X1091570Y1253910I-66363J64752D01*
G03X1083300Y1269980I-8267J5908D01*
G01X1055020D01*
Y1156000D01*
G02X924980I-65020J-76000D01*
G01Y1346930D01*
X978070Y1400020D01*
X2439400D01*
X2502020Y1337400D01*
Y1330020D01*
X2517000D01*
G02X2567020Y1280000I-5J-50025D01*
G01Y1263140D01*
X2575570D01*
X2576830Y1266370D01*
G02X2746000Y1295020I93171J-36371D01*
G01X3013580D01*
X3018440Y1299880D01*
X3018460Y1299900D01*
G02X3161540I71540J-69900D01*
G01X3161560Y1299880D01*
X3166420Y1295020D01*
X3523580D01*
X3528440Y1299880D01*
X3528460Y1299900D01*
G02Y1160100I71540J-69900D01*
G01X3528440Y1160120D01*
X3523580Y1164980D01*
X3166420D01*
X3161560Y1160120D01*
X3161540Y1160100D01*
G02X3018460I-71540J69900D01*
G01X3018440Y1160120D01*
X3013580Y1164980D01*
X2771020D01*
G03X2763840Y1147640I3J-10158D01*
G01X2795020Y1116450D01*
Y556420D01*
X2799880Y551560D01*
X2799900Y551540D01*
G02X2747900Y381590I-69899J-71543D01*
G03X2740960Y366450I1816J-9993D01*
G02X2742720Y360000I-10963J-6457D01*
G01Y240000D01*
G02X2730000Y227280I-12725J5D01*
G01X2610000D01*
G02X2602950Y229420I12J12722D01*
G01X2601670Y230280D01*
X2595050D01*
Y229960D01*
X2539780D01*
X2538270Y227720D01*
G02X2528210Y219570I-18280J12280D01*
G01X2525020Y218290D01*
Y171710D01*
X2528210Y170430D01*
G02X2538270Y162280I-8220J-20430D01*
G01X2539780Y160040D01*
X2590220D01*
X2591730Y162280D01*
G02X2610000Y172020I18279J-12282D01*
G01X2730000D01*
G02X2750430Y158210I-4J-22023D01*
G01X2751710Y155020D01*
X3050840D01*
G02X3061230Y179720I189154J-65032D01*
G03X3048260Y193660I-9080J4556D01*
G02X3136340Y281740I-62260J150340D01*
G03X3150280Y268770I9384J-3890D01*
G02X3329720I89720J-178770D01*
G03X3343660Y281740I4556J9080D01*
G02X3431740Y193660I150340J62260D01*
G03X3418770Y179720I-3890J-9384D01*
G37*
G54D24*
X-30000Y410000D03*
Y850000D03*
G54D25*
X807000Y-1305000D03*
X1061000D03*
%LPD*%
G75*
G36*
G01X210110Y-649390D02*
X185350Y-624650D01*
X146250Y-660000D01*
X185350Y-695350D01*
X210110Y-670610D01*
G03Y-649390I-10610J10610D01*
G37*
G36*
G01X-70610Y-839890D02*
X-95350Y-864650D01*
X-60000Y-903750D01*
X-24650Y-864650D01*
X-49390Y-839890D01*
G03X-70610I-10610J-10610D01*
G37*
G36*
G01X-120110Y-910610D02*
X-95350Y-935350D01*
X-56250Y-900000D01*
X-95350Y-864650D01*
X-120110Y-889390D01*
G03Y-910610I10610J-10610D01*
G37*
G36*
G01X365000Y20000D02*
X330000D01*
X327350Y-32650D01*
X380000Y-30000D01*
Y5000D01*
G03X365000Y20000I-15000J0D01*
G37*
G36*
G01X515000Y320000D02*
X480000D01*
X477350Y267350D01*
X530000Y270000D01*
Y305000D01*
G03X515000Y320000I-15000J0D01*
G37*
G36*
G01X450000Y557430D02*
Y515000D01*
X503040Y525610D01*
X460610Y568040D01*
X450000Y557430D01*
G37*
G36*
G01X169390Y-75890D02*
X144650Y-100650D01*
X180000Y-139750D01*
X215350Y-100650D01*
X190610Y-75890D01*
G03X169390I-10610J-10610D01*
G37*
G36*
G01X119890Y-146610D02*
X144650Y-171350D01*
X183750Y-136000D01*
X144650Y-100650D01*
X119890Y-125390D01*
G03Y-146610I10610J-10610D01*
G37*
G36*
G01X230000Y-171000D02*
Y-136000D01*
X177350Y-133350D01*
X180000Y-186000D01*
X215000D01*
G03X230000Y-171000I0J15000D01*
G37*
G36*
G01X1010000Y-670000D02*
X975000D01*
X972350Y-722650D01*
X1025000Y-720000D01*
Y-685000D01*
G03X1010000Y-670000I-15000J0D01*
G37*
G36*
G01X908890Y-644940D02*
G02X892020Y-637320I-6713J7623D01*
G01Y-600000D01*
G03X878210Y-579570I-22023J-4D01*
G01X875020Y-578290D01*
Y-431930D01*
X1018630Y-288320D01*
X1024650Y-294340D01*
X1023300Y-297500D01*
G03X1022280Y-302500I11701J-4991D01*
G01Y-517500D01*
G03X1035000Y-530220I12720J0D01*
G01X1146280D01*
G02X1153460Y-547570I-3J-10162D01*
G01X1101000Y-600030D01*
X1003020D01*
X983070Y-619980D01*
X975000D01*
G03X908890Y-644940I0J-100031D01*
G37*
G36*
G01X1064450Y210110D02*
X1039710Y185350D01*
X1075060Y146250D01*
X1110410Y185350D01*
X1085670Y210110D01*
G03X1064450I-10610J-10610D01*
G37*
G36*
G01X1605000Y-1020000D02*
Y-985000D01*
X1552350Y-982350D01*
X1555000Y-1035000D01*
X1590000D01*
G03X1605000Y-1020000I0J15000D01*
G37*
G36*
G01X1544390Y-594890D02*
X1519650Y-619650D01*
X1555000Y-658750D01*
X1590350Y-619650D01*
X1565610Y-594890D01*
G03X1544390I-10610J-10610D01*
G37*
G36*
G01X2333740Y55700D02*
X2309520Y79920D01*
Y120000D01*
G03X2287500Y142020I-22020J0D01*
G01X2092500D01*
G03X2074960Y133310I0J-22016D01*
G02X2059680Y132270I-8094J6144D01*
G01X1946930Y245020D01*
X1930650D01*
G02X1921370Y259310I2J10159D01*
G03X1930020Y300000I-91379J40690D01*
G01Y308070D01*
X2502020Y880070D01*
Y1069980D01*
X2517000D01*
G03X2567020Y1120000I-5J50025D01*
G01Y1170640D01*
G02X2585730Y1176120I10157J1D01*
G03X2604980Y1154000I84260J53891D01*
G01Y1122590D01*
X2664980Y1062590D01*
Y556420D01*
X2660120Y551560D01*
X2660100Y551540D01*
G03X2682780Y391830I69900J-71539D01*
G02X2677980Y372720I-4803J-8951D01*
G01X2610000D01*
G03X2597820Y363660I4J-12723D01*
G01X2596740Y360040D01*
X2542410D01*
X2541620Y364160D01*
G03X2520000Y382020I-21626J-4162D01*
G01X2400000D01*
G03X2377980Y360000I5J-22025D01*
G01Y240000D01*
G03X2391790Y219570I22023J4D01*
G01X2394980Y218290D01*
Y171710D01*
X2391790Y170430D01*
G03X2377980Y150000I8213J-20434D01*
G01Y99940D01*
X2333740Y55700D01*
G37*
G36*
G01X1865000Y350000D02*
X1830000D01*
X1827350Y297350D01*
X1880000Y300000D01*
Y335000D01*
G03X1865000Y350000I-15000J0D01*
G37*
G36*
G01X2830000Y-1225000D02*
Y-1260000D01*
X2882650Y-1262650D01*
X2880000Y-1210000D01*
X2845000D01*
G03X2830000Y-1225000I0J-15000D01*
G37*
G36*
G01X2405000Y-430000D02*
X2370000D01*
X2367350Y-482650D01*
X2420000Y-480000D01*
Y-445000D01*
G03X2405000Y-430000I-15000J0D01*
G37*
G36*
G01X2545000Y-320000D02*
X2580000D01*
X2582650Y-267350D01*
X2530000Y-270000D01*
Y-305000D01*
G03X2545000Y-320000I15000J0D01*
G37*
G36*
G01X2719390Y540110D02*
X2694650Y515350D01*
X2730000Y476250D01*
X2765350Y515350D01*
X2740610Y540110D01*
G03X2719390I-10610J-10610D01*
G37*
G36*
G01X3539890Y1219390D02*
X3564650Y1194650D01*
X3603750Y1230000D01*
X3564650Y1265350D01*
X3539890Y1240610D01*
G03Y1219390I10610J-10610D01*
G37*
G36*
G01X3150110Y1240610D02*
X3125350Y1265350D01*
X3086250Y1230000D01*
X3125350Y1194650D01*
X3150110Y1219390D01*
G03Y1240610I-10610J10610D01*
G37*
G36*
G01X3029890Y1219390D02*
X3054650Y1194650D01*
X3093750Y1230000D01*
X3054650Y1265350D01*
X3029890Y1240610D01*
G03Y1219390I10610J-10610D01*
G37*
%LPC*%
G75*
G36*
G01X2079780Y170000D02*
Y310000D01*
G02X2092500Y322720I12720J0D01*
G01X2307500D01*
G02X2320220Y310000I0J-12720D01*
G01Y170000D01*
G02X2307500Y157280I-12720J0D01*
G01X2092500D01*
G02X2079780Y170000I0J12720D01*
G37*
%LPD*%
G75*
G54D10*
X-180000Y-1050000D03*
Y-1260000D03*
X-315000Y-210000D03*
Y-420000D03*
X555000Y-630000D03*
Y-840000D03*
X315000Y-630000D03*
Y-840000D03*
X240000Y1140000D03*
X450000D03*
X240000Y930000D03*
X450000D03*
X1380000Y-780000D03*
X1170000D03*
X810000Y-660000D03*
Y-870000D03*
X2160000Y-1050000D03*
X1740000D03*
X1950000D03*
Y-840000D03*
X1740000D03*
X2370000Y-1050000D03*
X2670000Y300000D03*
X2460000D03*
X2670000Y90000D03*
X2460000D03*
G54D20*
X1860000Y-1500000D03*
G54D11*
X553000Y-1051000D03*
Y-1305000D03*
X299000Y-1051000D03*
Y-1305000D03*
X45000Y-1051000D03*
X1061000D03*
Y-1305000D03*
X807000Y-1051000D03*
Y-1305000D03*
X1167000Y1200000D03*
X1421000D03*
X1675000D03*
X1929000D03*
X2183000D03*
G54D12*
X45000Y-1305000D03*
X2437000Y1200000D03*
G54D21*
X2200000Y240000D03*
G54D22*
X2986000Y-164000D03*
Y344000D03*
X3494000Y-164000D03*
Y344000D03*
X3240000Y90000D03*
G54D13*
X-60000Y-900000D03*
X150000Y-660000D03*
X180000Y-136000D03*
X330000Y-30000D03*
X480000Y270000D03*
X975000Y-720000D03*
X1075060Y150000D03*
X990000Y1080000D03*
X1555000Y-985000D03*
Y-655000D03*
X1800000Y-60000D03*
X1830000Y300000D03*
X1930000Y840000D03*
X2880000Y-1260000D03*
X2580000Y-270000D03*
X2370000Y-480000D03*
X2730000Y480000D03*
X2670000Y1230000D03*
X3120000Y-1260000D03*
X3090000Y1230000D03*
X3600000D03*
G54D23*
G01X-180000Y-1050000D02*
Y-939520D01*
X-140480Y-900000D01*
X-60000D01*
G01X-315000Y-420000D02*
Y-1215470D01*
X-270470Y-1260000D01*
X-180000D01*
G01D02*
X-135000Y-1305000D01*
X45000D01*
G01X-315000Y-210000D02*
Y-119530D01*
G01X-392800Y-210000D02*
X-315000D01*
G01D02*
X-237200D01*
G01X-315000Y-420000D02*
X-195000D01*
X-165000Y-390000D01*
Y-161020D01*
X-139980Y-136000D01*
X-60000D01*
G01X-315000Y-119530D02*
X-204470Y-9000D01*
G01D02*
X-60000D01*
G01X315000Y-840000D02*
X220880Y-934120D01*
Y-972880D01*
X299000Y-1051000D01*
G01X555000Y-840000D02*
X464520Y-930480D01*
Y-962520D01*
X553000Y-1051000D01*
G01X315000Y-630000D02*
X285000Y-660000D01*
X150000D01*
G01X-60000Y-390000D02*
Y-900000D01*
G01X840000Y-85000D02*
X797510D01*
X660000Y-222510D01*
Y-525000D01*
X555000Y-630000D01*
G01D02*
X188000Y-263000D01*
X-60000D01*
G01X514000Y-390000D02*
Y-263000D01*
G01D02*
X307000D01*
X180000Y-136000D01*
G01X330000Y-30000D02*
X406990Y46990D01*
X434010D01*
X490000Y-9000D01*
X514000D01*
G01X840000Y215000D02*
X695000D01*
X514000Y34000D01*
Y-9000D01*
G01X840000Y365000D02*
X575000D01*
X480000Y270000D01*
G01X120000Y810000D02*
Y91020D01*
X19980Y-9000D01*
G01D02*
X-60000D01*
G01Y-52300D02*
Y-9000D01*
G01D02*
Y34300D01*
G01X180000Y-136000D02*
Y245000D01*
X450000Y515000D01*
G01X180000Y-136000D02*
X-60000D01*
G01X450000Y515000D02*
X840000D01*
G01X450000D02*
Y930000D01*
G01X514000Y-136000D02*
X600000D01*
X630000Y-106000D01*
Y30000D01*
X665000Y65000D01*
X840000D01*
G01X240000Y1140000D02*
Y930000D01*
G01Y1140000D02*
Y1230470D01*
G01Y930000D02*
X120000Y810000D01*
G01X240000Y1230470D02*
X254530Y1245000D01*
X705000D01*
X720000Y1230000D01*
Y960000D01*
X840000Y840000D01*
G01X240000Y852200D02*
Y930000D01*
G01X162200D02*
X240000D01*
G01X450000D02*
Y1140000D01*
G01X1170000Y-780000D02*
Y-942000D01*
X1061000Y-1051000D01*
G01X810000Y-870000D02*
X719520Y-960480D01*
Y-963520D01*
X807000Y-1051000D01*
G01X1061000Y-1305000D02*
X1411000Y-1655000D01*
G01X1061000Y-1402800D02*
Y-1305000D01*
G01D02*
Y-1207200D01*
G01X963200Y-1305000D02*
X1061000D01*
G01D02*
X1158800D01*
G01X807000Y-1402800D02*
Y-1305000D01*
G01D02*
Y-1207200D01*
G01X709200Y-1305000D02*
X807000D01*
G01D02*
X904800D01*
G01X1255000Y-410000D02*
Y-537980D01*
X1127930Y-665050D01*
X1029950D01*
X975000Y-720000D01*
G01X1105000Y-535310D02*
Y-410000D01*
G01X1230000Y-90000D02*
X1320000Y-180000D01*
G01X1230000Y-90000D02*
X1105000Y-215000D01*
G01D02*
Y-410000D01*
G01X1320000Y-180000D02*
X1890000D01*
X1920000Y-150000D01*
G01X1017200Y-410000D02*
X1105000D01*
G01X810000Y-660000D02*
Y-405000D01*
X1020000Y-195000D01*
Y12980D01*
X967980Y65000D01*
X840000D01*
G01X1105000Y840000D02*
Y515000D01*
X1230000Y390000D01*
G01D02*
Y-90000D01*
G01X840000Y515000D02*
X1015000D01*
X1075060Y454940D01*
Y150000D01*
G01X1167000Y1200000D02*
X1105000Y1138000D01*
Y840000D01*
G01X840000D02*
X1105000D01*
G01X1167000Y1102200D02*
Y1200000D01*
G01X1069200D02*
X1167000D01*
G01X1255000Y840000D02*
Y1022940D01*
X1421000Y1188940D01*
Y1200000D01*
G01X990000Y1080000D02*
Y1320000D01*
X1005000Y1335000D01*
X2412470D01*
X2437000Y1310470D01*
Y1200000D01*
G01X1411000Y-1655000D02*
X2467000D01*
G01X1740000Y-1050000D02*
X1620000D01*
X1555000Y-985000D01*
G01X1950000Y-1050000D02*
X2160000D01*
G01X1860000Y-1500000D02*
X2070000Y-1290000D01*
X2631210D01*
X2751210Y-1410000D01*
X2940000D01*
X3090000Y-1260000D01*
G01X1380000Y-780000D02*
X1440000Y-840000D01*
X1740000D01*
G01D02*
X1705000Y-805000D01*
Y-410000D01*
G01X1405000D02*
Y-270000D01*
X1435000Y-240000D01*
X1950000D01*
X2010000Y-180000D01*
Y90000D01*
X1920000Y180000D01*
X1725000D01*
X1665000Y240000D01*
Y465000D01*
X1740000Y540000D01*
X1980000D01*
X2070000Y630000D01*
Y948530D01*
X1929000Y1089530D01*
Y1200000D01*
G01X1930000Y-410000D02*
Y-547980D01*
G01D02*
X1962010Y-579990D01*
X2570010D01*
G01X1842200Y-410000D02*
X1930000D01*
G01D02*
X2017800D01*
G01X1555000D02*
Y-655000D01*
G01X1950000Y-840000D02*
X2310000D01*
X2370000Y-900000D01*
Y-1050000D01*
G01X1555000Y840000D02*
Y712020D01*
X1470000Y627020D01*
Y30000D01*
X1560000Y-60000D01*
X1800000D01*
G01X1920000Y-150000D02*
Y60000D01*
X1890000Y90000D01*
X1590000D01*
G01D02*
X1530000Y150000D01*
Y570000D01*
X1590000Y630000D01*
G01X2074690Y240000D02*
X2200000D01*
G01X2437000Y1200000D02*
Y907000D01*
X1830000Y300000D01*
G01X1590000Y630000D02*
X1720000D01*
G01D02*
X1930000Y840000D01*
G01Y714690D02*
Y840000D01*
G01D02*
Y965310D01*
G01X1842200Y840000D02*
X1930000D01*
G01X1405000D02*
Y967980D01*
X1487020Y1050000D01*
X1635470D01*
X1675000Y1089530D01*
Y1200000D01*
G01X2467000Y-1655000D02*
X2622000Y-1500000D01*
G01X3344990D02*
X2622000D01*
G01Y-1627800D02*
Y-1500000D01*
G01X2160000Y-1050000D02*
Y-1140470D01*
X2189530Y-1170000D01*
X2790000D01*
X2880000Y-1260000D01*
G01X2370000Y-1050000D02*
X2880000D01*
X3090000Y-1260000D01*
G01X2570010Y-579990D02*
X2986000Y-164000D01*
G01X2580000Y-270000D02*
X2370000Y-480000D01*
G01X2670000Y300000D02*
X2760480Y209520D01*
G01X2670000Y300000D02*
Y306270D01*
X2546270Y430000D01*
G01X2851520Y209520D02*
X2986000Y344000D01*
G01X2760480Y209520D02*
X2851520D01*
G01X2200000Y340480D02*
Y240000D01*
G01X2546270Y430000D02*
X2289520D01*
X2200000Y340480D01*
G01X2818200Y344000D02*
X2986000D01*
G01X2670000Y222200D02*
Y300000D01*
G01D02*
X2747800D01*
G01X2818200Y-164000D02*
X2986000D01*
G01X2200000Y240000D02*
X2325310D01*
G01X2670000Y90000D02*
X3240000D01*
G01X2460000Y300000D02*
Y90000D01*
G01D02*
X2349510Y-20490D01*
X2317980D01*
X2232490Y65000D01*
X2190000D01*
G01X2670000Y1230000D02*
Y1149520D01*
X2730000Y1089520D01*
Y480000D01*
G01X2670000Y1230000D02*
X3090000D01*
G01X3494000Y-164000D02*
Y-1350990D01*
G01D02*
X3344990Y-1500000D01*
G01X3120000Y-1260000D02*
X3090000D01*
G01X2986000Y-331800D02*
Y-164000D01*
G01Y344000D02*
X3494000D01*
G01D02*
Y-164000D01*
G01D02*
X2986000D01*
G01X3494000Y344000D02*
Y511800D01*
G01Y344000D02*
X3661800D01*
G01X3494000Y-164000D02*
X3661800D01*
G01X2986000Y176200D02*
Y344000D01*
G01D02*
Y511800D01*
G01Y-164000D02*
Y3800D01*
G01X3090000Y1230000D02*
X3600000D01*
G54D14*
X514000Y-390000D03*
Y-263000D03*
X-60000D03*
Y-390000D03*
X514000Y-136000D03*
Y-9000D03*
X-60000D03*
Y-136000D03*
G54D15*
X-30000Y410000D03*
Y850000D03*
G54D16*
X1105000Y-410000D03*
Y840000D03*
X1930000Y-410000D03*
Y840000D03*
G54D17*
X1255000Y-410000D03*
Y840000D03*
X1405000Y-410000D03*
X1555000D03*
X1705000D03*
Y840000D03*
X1555000D03*
X1405000D03*
G54D18*
X840000Y515000D03*
Y365000D03*
Y215000D03*
Y65000D03*
Y-85000D03*
X2190000Y65000D03*
G54D19*
X2114000Y-1500000D03*
X2622000D03*
X2368000D03*
M02*
