G04 ================== begin FILE IDENTIFICATION RECORD ==================*
G04 Layout Name:  C:/DATA/GIT/CADENCE/MODULES/ZM5202_PL2303/allegro/ZM5202_PL2303.brd*
G04 Film Name:    SC_BOT*
G04 File Format:  Gerber RS274X*
G04 File Origin:  Cadence Allegro 17.2-P019*
G04 Origin Date:  Mon Mar 20 23:22:01 2017*
G04 *
G04 Layer:  PACKAGE GEOMETRY/SILKSCREEN_BOTTOM*
G04 Layer:  REF DES/SILKSCREEN_BOTTOM*
G04 Layer:  BOARD GEOMETRY/SILKSCREEN_BOTTOM*
G04 Layer:  BOARD GEOMETRY/DESIGN_OUTLINE*
G04 *
G04 Offset:    (0.0000 0.0000)*
G04 Mirror:    No*
G04 Mode:      Positive*
G04 Rotation:  0*
G04 FullContactRelief:  No*
G04 UndefLineWidth:     0.0000*
G04 ================== end FILE IDENTIFICATION RECORD ====================*
%FSLAX25Y25*MOMM*%
%IR0*IPPOS*OFA0.00000B0.00000*MIA0B0*SFA1.00000B1.00000*%
%ADD10C,.1*%
%ADD11C,.5*%
%ADD12C,.15*%
%ADD13C,.254*%
G75*
%LPD*%
G75*
G36*
G01X-145000Y-400000D02*
G03I-25000J0D01*
G37*
G54D10*
G01X-100000Y-1340000D02*
Y-970000D01*
X-260000D01*
Y-1340000D01*
X-100000D01*
G01X-180000Y-1180000D02*
Y-1175000D01*
X-160000D01*
X-200000Y-1160000D01*
X-160000D01*
X-200000Y-1145000D01*
X-160000D01*
X-180000Y-1135000D01*
Y-1130000D01*
G01X-235000Y-500000D02*
Y-130000D01*
X-395000D01*
Y-500000D01*
X-235000D01*
G01X-320000Y-305000D02*
Y-290000D01*
G01Y-325000D02*
Y-340000D01*
G01X-265000Y-305000D02*
X-370000D01*
G01X-265000Y-325000D02*
X-370000D01*
G01X635000Y-920000D02*
Y-550000D01*
X475000D01*
Y-920000D01*
X635000D01*
G01X555000Y-760000D02*
Y-755000D01*
X575000D01*
X535000Y-740000D01*
X575000D01*
X535000Y-725000D01*
X575000D01*
X555000Y-715000D01*
Y-710000D01*
G01X395000Y-920000D02*
Y-550000D01*
X235000D01*
Y-920000D01*
X395000D01*
G01X315000Y-760000D02*
Y-755000D01*
X335000D01*
X295000Y-740000D01*
X335000D01*
X295000Y-725000D01*
X335000D01*
X315000Y-715000D01*
Y-710000D01*
G01X530000Y1220000D02*
X160000D01*
Y1060000D01*
X530000D01*
Y1220000D01*
G01X335000Y1135000D02*
X320000D01*
G01X355000D02*
X370000D01*
G01X335000Y1190000D02*
Y1085000D01*
G01X355000Y1190000D02*
Y1085000D01*
G01X530000Y1010000D02*
X160000D01*
Y850000D01*
X530000D01*
Y1010000D01*
G01X335000Y925000D02*
X320000D01*
G01X355000D02*
X370000D01*
G01X335000Y980000D02*
Y875000D01*
G01X355000Y980000D02*
Y875000D01*
G01X890000Y-950000D02*
Y-580000D01*
X730000D01*
Y-950000D01*
X890000D01*
G01X1090000Y-860000D02*
X1460000D01*
Y-700000D01*
X1090000D01*
Y-860000D01*
G01X1250000Y-780000D02*
X1255000D01*
Y-800000D01*
X1270000Y-760000D01*
Y-800000D01*
X1285000Y-760000D01*
Y-800000D01*
X1295000Y-780000D01*
X1300000D01*
G01X810000Y-790000D02*
Y-785000D01*
X830000D01*
X790000Y-770000D01*
X830000D01*
X790000Y-755000D01*
X830000D01*
X810000Y-745000D01*
Y-740000D01*
G01X2450000Y-970000D02*
X2080000D01*
Y-1130000D01*
X2450000D01*
Y-970000D01*
G01X2030000D02*
X1660000D01*
Y-1130000D01*
X2030000D01*
Y-970000D01*
G01X1870000Y-1050000D02*
X1865000D01*
Y-1030000D01*
X1850000Y-1070000D01*
Y-1030000D01*
X1835000Y-1070000D01*
Y-1030000D01*
X1825000Y-1050000D01*
X1820000D01*
G01X1660000Y-920000D02*
X2030000D01*
Y-760000D01*
X1660000D01*
Y-920000D01*
G01X1820000Y-840000D02*
X1825000D01*
Y-860000D01*
X1840000Y-820000D01*
Y-860000D01*
X1855000Y-820000D01*
Y-860000D01*
X1865000Y-840000D01*
X1870000D01*
G01X2290000Y-1050000D02*
X2285000D01*
Y-1030000D01*
X2270000Y-1070000D01*
Y-1030000D01*
X2255000Y-1070000D01*
Y-1030000D01*
X2245000Y-1050000D01*
X2240000D01*
G01X2380000Y220000D02*
X2750000D01*
Y380000D01*
X2380000D01*
Y220000D01*
G01X2575000Y305000D02*
X2590000D01*
G01X2555000D02*
X2540000D01*
G01X2575000Y250000D02*
Y355000D01*
G01X2555000Y250000D02*
Y355000D01*
G01X2380000Y10000D02*
X2750000D01*
Y170000D01*
X2380000D01*
Y10000D01*
G01X2540000Y90000D02*
X2545000D01*
Y70000D01*
X2560000Y110000D01*
Y70000D01*
X2575000Y110000D01*
Y70000D01*
X2585000Y90000D01*
X2590000D01*
G54D11*
G01X765000Y-335000D02*
Y-485000D01*
X915000D01*
G01Y915000D02*
X765000D01*
Y765000D01*
G01X2125000Y-485000D02*
X2275000D01*
Y-335000D01*
G01X2150000Y915000D02*
X2275000D01*
Y790000D01*
G54D12*
G01X-315000Y-984740D02*
X-393740D01*
Y-1009080D01*
X-389800Y-1016870D01*
X-384550Y-1021740D01*
X-374050Y-1023680D01*
X-363560Y-1021740D01*
X-357000Y-1015890D01*
X-353060Y-1009080D01*
Y-984740D01*
G01Y-1009080D02*
X-315000Y-1023680D01*
G01Y-1082950D02*
X-393740D01*
X-377990Y-1071270D01*
G01X-315000D02*
Y-1094630D01*
G01X-324180Y-1145140D02*
X-317620Y-1151950D01*
X-315000Y-1159740D01*
X-317620Y-1167530D01*
X-325500Y-1174350D01*
X-337310Y-1179220D01*
X-349120Y-1181160D01*
X-363560D01*
X-375370Y-1179220D01*
X-385870Y-1174350D01*
X-391120Y-1168510D01*
X-393740Y-1161690D01*
X-391120Y-1153900D01*
X-385870Y-1148060D01*
X-377990Y-1144160D01*
X-367490Y-1142220D01*
X-358310Y-1144160D01*
X-349120Y-1149030D01*
X-343870Y-1154870D01*
X-342560Y-1161690D01*
X-345180Y-1169480D01*
X-351740Y-1175320D01*
X-363560Y-1181160D01*
G01X-290630Y-17820D02*
X-284790Y-13880D01*
X-277970Y-11260D01*
X-270180D01*
X-261420Y-15200D01*
X-254610Y-21760D01*
X-249740Y-29630D01*
X-245840Y-42760D01*
X-244870Y-54570D01*
X-246820Y-66380D01*
X-249740Y-74250D01*
X-255580Y-82130D01*
X-262390Y-87380D01*
X-269210Y-90000D01*
X-276030D01*
X-282840Y-87380D01*
X-288680Y-83440D01*
X-293550Y-78190D01*
G01X-331400Y-80820D02*
X-338210Y-87380D01*
X-346000Y-90000D01*
X-353790Y-87380D01*
X-360610Y-79500D01*
X-365480Y-67690D01*
X-367420Y-55880D01*
Y-41440D01*
X-365480Y-29630D01*
X-360610Y-19130D01*
X-354770Y-13880D01*
X-347950Y-11260D01*
X-340160Y-13880D01*
X-334320Y-19130D01*
X-330420Y-27010D01*
X-328480Y-37510D01*
X-330420Y-46690D01*
X-335290Y-55880D01*
X-341130Y-61130D01*
X-347950Y-62440D01*
X-355740Y-59820D01*
X-361580Y-53260D01*
X-367420Y-41440D01*
G01X195000Y-804740D02*
X116260D01*
Y-829080D01*
X120200Y-836870D01*
X125450Y-841740D01*
X135950Y-843680D01*
X146440Y-841740D01*
X153000Y-835890D01*
X156940Y-829080D01*
Y-804740D01*
G01Y-829080D02*
X195000Y-843680D01*
G01X162190Y-884450D02*
X153000Y-891270D01*
X147760Y-897110D01*
X145130Y-904900D01*
X147760Y-911710D01*
X153000Y-916580D01*
X160880Y-920480D01*
X170070Y-921450D01*
X177940Y-920480D01*
X185820Y-916580D01*
X192380Y-910740D01*
X195000Y-903920D01*
X192380Y-896130D01*
X184500Y-889320D01*
X172690Y-885420D01*
X159570Y-884450D01*
X142510Y-886400D01*
X133320Y-889320D01*
X124130Y-894190D01*
X117570Y-901000D01*
X116260Y-907820D01*
X118880Y-914630D01*
X125450Y-919500D01*
G01X337210Y273740D02*
Y217310D01*
X333320Y205500D01*
X325530Y197620D01*
X315790Y195000D01*
X306050Y197620D01*
X298260Y205500D01*
X294370Y217310D01*
Y273740D01*
G01X258470Y206810D02*
X252630Y200250D01*
X245810Y196310D01*
X237050Y195000D01*
X228290Y197620D01*
X221470Y202870D01*
X216600Y212060D01*
X215630Y222560D01*
X217580Y233060D01*
X222450Y239620D01*
X229260Y244870D01*
X236080Y246180D01*
X242890Y244870D01*
X251650Y239620D01*
X248730Y273740D01*
X222450D01*
G01X639370Y1197180D02*
X645210Y1201120D01*
X652030Y1203740D01*
X659820D01*
X668580Y1199800D01*
X675390Y1193240D01*
X680260Y1185370D01*
X684160Y1172240D01*
X685130Y1160430D01*
X683180Y1148620D01*
X680260Y1140750D01*
X674420Y1132870D01*
X667610Y1127620D01*
X660790Y1125000D01*
X653970D01*
X647160Y1127620D01*
X641320Y1131560D01*
X636450Y1136810D01*
G01X582050Y1125000D02*
X575230Y1126310D01*
X567450Y1130250D01*
X562580Y1136810D01*
X560630Y1146000D01*
X562580Y1155180D01*
X568420Y1163060D01*
X577180Y1167000D01*
X586920D01*
X592760Y1169620D01*
X597630Y1176180D01*
X599580Y1185370D01*
X596650Y1194550D01*
X589840Y1201120D01*
X582050Y1203740D01*
X574260Y1201120D01*
X567450Y1194550D01*
X564520Y1185370D01*
X566470Y1176180D01*
X571340Y1169620D01*
X577180Y1167000D01*
X586920D01*
X595680Y1163060D01*
X601520Y1155180D01*
X603470Y1146000D01*
X601520Y1136810D01*
X596650Y1130250D01*
X588870Y1126310D01*
X582050Y1125000D01*
G01X639370Y957180D02*
X645210Y961120D01*
X652030Y963740D01*
X659820D01*
X668580Y959800D01*
X675390Y953240D01*
X680260Y945370D01*
X684160Y932240D01*
X685130Y920430D01*
X683180Y908620D01*
X680260Y900750D01*
X674420Y892870D01*
X667610Y887620D01*
X660790Y885000D01*
X653970D01*
X647160Y887620D01*
X641320Y891560D01*
X636450Y896810D01*
G01X584000Y885000D02*
X582050Y902060D01*
X579130Y916490D01*
X575230Y929620D01*
X570370Y944050D01*
X562580Y963740D01*
X601520D01*
G01X915000Y-935260D02*
X993740D01*
Y-910920D01*
X989800Y-903130D01*
X984550Y-898260D01*
X974050Y-896320D01*
X963560Y-898260D01*
X957000Y-904110D01*
X953060Y-910920D01*
Y-935260D01*
G01Y-910920D02*
X915000Y-896320D01*
G01Y-837050D02*
X916310Y-830230D01*
X920250Y-822450D01*
X926810Y-817580D01*
X936000Y-815630D01*
X945180Y-817580D01*
X953060Y-823420D01*
X957000Y-832180D01*
Y-841920D01*
X959620Y-847760D01*
X966180Y-852630D01*
X975370Y-854580D01*
X984550Y-851650D01*
X991120Y-844840D01*
X993740Y-837050D01*
X991120Y-829260D01*
X984550Y-822450D01*
X975370Y-819520D01*
X966180Y-821470D01*
X959620Y-826340D01*
X957000Y-832180D01*
Y-841920D01*
X953060Y-850680D01*
X945180Y-856520D01*
X936000Y-858470D01*
X926810Y-856520D01*
X920250Y-851650D01*
X916310Y-843870D01*
X915000Y-837050D01*
G01X1460260Y-675000D02*
Y-596260D01*
X1435920D01*
X1428130Y-600200D01*
X1423260Y-605450D01*
X1421320Y-615950D01*
X1423260Y-626440D01*
X1429110Y-633000D01*
X1435920Y-636940D01*
X1460260D01*
G01X1435920D02*
X1421320Y-675000D01*
G01X1378600Y-665820D02*
X1371790Y-672380D01*
X1364000Y-675000D01*
X1356210Y-672380D01*
X1349390Y-664500D01*
X1344520Y-652690D01*
X1342580Y-640880D01*
Y-626440D01*
X1344520Y-614630D01*
X1349390Y-604130D01*
X1355230Y-598880D01*
X1362050Y-596260D01*
X1369840Y-598880D01*
X1375680Y-604130D01*
X1379580Y-612010D01*
X1381520Y-622510D01*
X1379580Y-631690D01*
X1374710Y-640880D01*
X1368870Y-646130D01*
X1362050Y-647440D01*
X1354260Y-644820D01*
X1348420Y-638260D01*
X1342580Y-626440D01*
G01X630000Y-515260D02*
X708740D01*
Y-490920D01*
X704800Y-483130D01*
X699550Y-478260D01*
X689050Y-476320D01*
X678560Y-478260D01*
X672000Y-484110D01*
X668060Y-490920D01*
Y-515260D01*
G01Y-490920D02*
X630000Y-476320D01*
G01Y-419000D02*
X647060Y-417050D01*
X661490Y-414130D01*
X674620Y-410230D01*
X689050Y-405370D01*
X708740Y-397580D01*
Y-436520D01*
G01X2015260Y-1230000D02*
Y-1151260D01*
X1990920D01*
X1983130Y-1155200D01*
X1978260Y-1160450D01*
X1976320Y-1170950D01*
X1978260Y-1181440D01*
X1984110Y-1188000D01*
X1990920Y-1191940D01*
X2015260D01*
G01X1990920D02*
X1976320Y-1230000D01*
G01X1917050D02*
Y-1151260D01*
X1928730Y-1167010D01*
G01Y-1230000D02*
X1905370D01*
G01X1838310D02*
Y-1151260D01*
X1849990Y-1167010D01*
G01Y-1230000D02*
X1826630D01*
G01X2030260Y-735000D02*
Y-656260D01*
X2005920D01*
X1998130Y-660200D01*
X1993260Y-665450D01*
X1991320Y-675950D01*
X1993260Y-686440D01*
X1999110Y-693000D01*
X2005920Y-696940D01*
X2030260D01*
G01X2005920D02*
X1991320Y-735000D01*
G01X1932050D02*
Y-656260D01*
X1943730Y-672010D01*
G01Y-735000D02*
X1920370D01*
G01X1871810Y-669380D02*
X1865970Y-661510D01*
X1859150Y-657570D01*
X1851360Y-656260D01*
X1841630Y-658880D01*
X1834810Y-665450D01*
X1832860Y-673320D01*
X1833840Y-681200D01*
X1837730Y-687760D01*
X1857200Y-700880D01*
X1865970Y-710070D01*
X1871810Y-723190D01*
X1873760Y-735000D01*
X1832860D01*
G01X2445260Y-945000D02*
Y-866260D01*
X2420920D01*
X2413130Y-870200D01*
X2408260Y-875450D01*
X2406320Y-885950D01*
X2408260Y-896440D01*
X2414110Y-903000D01*
X2420920Y-906940D01*
X2445260D01*
G01X2420920D02*
X2406320Y-945000D01*
G01X2347050D02*
Y-866260D01*
X2358730Y-882010D01*
G01Y-945000D02*
X2335370D01*
G01X2268310Y-866260D02*
X2276100Y-868880D01*
X2281940Y-875450D01*
X2285840Y-883320D01*
X2288760Y-893820D01*
X2289730Y-905630D01*
X2288760Y-917440D01*
X2285840Y-927940D01*
X2281940Y-935820D01*
X2276100Y-942380D01*
X2268310Y-945000D01*
X2260520Y-942380D01*
X2254680Y-935820D01*
X2250780Y-927940D01*
X2247860Y-917440D01*
X2246890Y-905630D01*
X2247860Y-893820D01*
X2250780Y-883320D01*
X2254680Y-875450D01*
X2260520Y-868880D01*
X2268310Y-866260D01*
G01X2604370Y477180D02*
X2610210Y481120D01*
X2617030Y483740D01*
X2624820D01*
X2633580Y479800D01*
X2640390Y473240D01*
X2645260Y465370D01*
X2649160Y452240D01*
X2650130Y440430D01*
X2648180Y428620D01*
X2645260Y420750D01*
X2639420Y412870D01*
X2632610Y407620D01*
X2625790Y405000D01*
X2618970D01*
X2612160Y407620D01*
X2606320Y411560D01*
X2601450Y416810D01*
G01X2565550Y437810D02*
X2558730Y447000D01*
X2552890Y452240D01*
X2545100Y454870D01*
X2538290Y452240D01*
X2533420Y447000D01*
X2529520Y439120D01*
X2528550Y429930D01*
X2529520Y422060D01*
X2533420Y414180D01*
X2539260Y407620D01*
X2546080Y405000D01*
X2553870Y407620D01*
X2560680Y415500D01*
X2564580Y427310D01*
X2565550Y440430D01*
X2563600Y457490D01*
X2560680Y466680D01*
X2555810Y475870D01*
X2549000Y482430D01*
X2542180Y483740D01*
X2535370Y481120D01*
X2530500Y474550D01*
G01X2735260Y-120000D02*
Y-41260D01*
X2710920D01*
X2703130Y-45200D01*
X2698260Y-50450D01*
X2696320Y-60950D01*
X2698260Y-71440D01*
X2704110Y-78000D01*
X2710920Y-81940D01*
X2735260D01*
G01X2710920D02*
X2696320Y-120000D01*
G01X2637050D02*
Y-41260D01*
X2648730Y-57010D01*
G01Y-120000D02*
X2625370D01*
G01X2579730Y-104250D02*
X2573890Y-113440D01*
X2566100Y-118690D01*
X2557340Y-120000D01*
X2549550Y-118690D01*
X2541760Y-112130D01*
X2536890Y-104250D01*
X2535920Y-96380D01*
X2537860Y-87190D01*
X2544680Y-80630D01*
X2551490Y-78000D01*
X2560260D01*
G01X2551490D02*
X2545650Y-74070D01*
X2540780Y-67510D01*
X2538840Y-59630D01*
X2540780Y-51760D01*
X2545650Y-45200D01*
X2554420Y-41260D01*
X2563180Y-42570D01*
X2571940Y-47820D01*
G01X2467210Y963740D02*
Y907310D01*
X2463320Y895500D01*
X2455530Y887620D01*
X2445790Y885000D01*
X2436050Y887620D01*
X2428260Y895500D01*
X2424370Y907310D01*
Y963740D01*
G01X2388470Y900750D02*
X2382630Y891560D01*
X2374840Y886310D01*
X2366080Y885000D01*
X2358290Y886310D01*
X2350500Y892870D01*
X2345630Y900750D01*
X2344660Y908620D01*
X2346600Y917810D01*
X2353420Y924370D01*
X2360230Y927000D01*
X2369000D01*
G01X2360230D02*
X2354390Y930930D01*
X2349520Y937490D01*
X2347580Y945370D01*
X2349520Y953240D01*
X2354390Y959800D01*
X2363160Y963740D01*
X2371920Y962430D01*
X2380680Y957180D01*
G54D13*
G01X2564000Y1073000D02*
X1040000D01*
Y1327000D01*
X2564000D01*
Y1073000D01*
M02*
