G04 ================== begin FILE IDENTIFICATION RECORD ==================*
G04 Layout Name:  C:/DATA/GIT/CADENCE/MODULES/ZM5202_PL2303/allegro/ZM5202_PL2303.brd*
G04 Film Name:    SC_TOP*
G04 File Format:  Gerber RS274X*
G04 File Origin:  Cadence Allegro 17.2-P019*
G04 Origin Date:  Mon Mar 20 23:22:01 2017*
G04 *
G04 Layer:  REF DES/SILKSCREEN_TOP*
G04 Layer:  PACKAGE GEOMETRY/SILKSCREEN_TOP*
G04 Layer:  BOARD GEOMETRY/SILKSCREEN_TOP*
G04 Layer:  BOARD GEOMETRY/DESIGN_OUTLINE*
G04 *
G04 Offset:    (0.0000 0.0000)*
G04 Mirror:    No*
G04 Mode:      Positive*
G04 Rotation:  0*
G04 FullContactRelief:  No*
G04 UndefLineWidth:     0.0000*
G04 ================== end FILE IDENTIFICATION RECORD ====================*
%FSLAX25Y25*MOMM*%
%IR0*IPPOS*OFA0.00000B0.00000*MIA0B0*SFA1.00000B1.00000*%
%ADD10C,.1*%
%ADD11C,.2*%
%ADD12C,.5*%
%ADD13C,.15*%
%ADD14C,.254*%
G75*
%LPD*%
G75*
G36*
G01X1890000Y-1677000D02*
G02I-30000J0D01*
G37*
G36*
G01X2395000Y-270000D02*
G03I-25000J0D01*
G37*
G54D10*
G01X-40000Y-520000D02*
Y-680000D01*
X-410000D01*
Y-520000D01*
X-40000D01*
G01Y-320000D02*
X-410000D01*
Y-160000D01*
X-40000D01*
Y-320000D01*
G01X-200000Y-240000D02*
X-205000D01*
Y-260000D01*
X-220000Y-220000D01*
Y-260000D01*
X-235000Y-220000D01*
Y-260000D01*
X-245000Y-240000D01*
X-250000D01*
G01X-40000Y-500000D02*
X-410000D01*
Y-340000D01*
X-40000D01*
Y-500000D01*
G01Y20000D02*
Y-140000D01*
X-410000D01*
Y20000D01*
X-40000D01*
G01X410000Y30000D02*
X-490000D01*
G01D02*
Y1230000D01*
G01D02*
X410000D01*
G01D02*
Y30000D01*
G01X520000Y1070000D02*
X890000D01*
Y910000D01*
X520000D01*
Y1070000D01*
G01Y1250000D02*
X890000D01*
Y1090000D01*
X520000D01*
Y1250000D01*
G01Y890000D02*
X890000D01*
Y730000D01*
X520000D01*
Y890000D01*
G01X1310000Y-340000D02*
Y650000D01*
G01X2300000Y-340000D02*
X1310000D01*
G01X670000Y-40000D02*
X1040000D01*
Y-200000D01*
X670000D01*
Y-40000D01*
G01Y-250000D02*
X1040000D01*
Y-410000D01*
X670000D01*
Y-250000D01*
G01X865000Y-335000D02*
X880000D01*
G01X845000D02*
X830000D01*
G01X865000Y-280000D02*
Y-385000D01*
G01X845000Y-280000D02*
Y-385000D01*
G01X865000Y-125000D02*
X880000D01*
G01X845000D02*
X830000D01*
G01X865000Y-70000D02*
Y-175000D01*
G01X845000Y-70000D02*
Y-175000D01*
G01X1040000Y250000D02*
X670000D01*
Y410000D01*
X1040000D01*
Y250000D01*
G01X880000Y330000D02*
X875000D01*
Y310000D01*
X860000Y350000D01*
Y310000D01*
X845000Y350000D01*
Y310000D01*
X835000Y330000D01*
X830000D01*
G01X1040000Y430000D02*
X670000D01*
Y590000D01*
X1040000D01*
Y430000D01*
G01X880000Y510000D02*
X875000D01*
Y490000D01*
X860000Y530000D01*
Y490000D01*
X845000Y530000D01*
Y490000D01*
X835000Y510000D01*
X830000D01*
G01X670000Y200000D02*
X1040000D01*
Y40000D01*
X670000D01*
Y200000D01*
G01X830000Y120000D02*
X835000D01*
Y140000D01*
X850000Y100000D01*
Y140000D01*
X865000Y100000D01*
Y140000D01*
X875000Y120000D01*
X880000D01*
G01X1310000Y650000D02*
X2300000D01*
G01X715000Y985000D02*
X730000D01*
G01X695000D02*
X680000D01*
G01X715000Y1040000D02*
Y935000D01*
G01X695000Y1040000D02*
Y935000D01*
G01X910000Y890000D02*
X1280000D01*
Y730000D01*
X910000D01*
Y890000D01*
G01X1105000Y805000D02*
X1120000D01*
G01X1085000D02*
X1070000D01*
G01X1105000Y860000D02*
Y755000D01*
G01X1085000Y860000D02*
Y755000D01*
G01X680000Y1170000D02*
X685000D01*
Y1190000D01*
X700000Y1150000D01*
Y1190000D01*
X715000Y1150000D01*
Y1190000D01*
X725000Y1170000D01*
X730000D01*
G01X680000Y810000D02*
X685000D01*
Y830000D01*
X700000Y790000D01*
Y830000D01*
X715000Y790000D01*
Y830000D01*
X725000Y810000D01*
X730000D01*
G01X3690000Y540000D02*
Y-360000D01*
X2790000D01*
Y540000D01*
X3690000D01*
G01X2300000Y650000D02*
Y-340000D01*
G01X2785000Y570000D02*
Y670000D01*
X2835000D01*
X2785000Y710000D01*
X2735000Y670000D01*
X2785000D01*
G01X2500000Y-140000D02*
Y230000D01*
X2660000D01*
Y-140000D01*
X2500000D01*
G01X2585000Y55000D02*
Y70000D01*
G01Y35000D02*
Y20000D01*
G01X2530000Y55000D02*
X2635000D01*
G01X2530000Y35000D02*
X2635000D01*
G01X2500000Y250000D02*
Y620000D01*
X2660000D01*
Y250000D01*
X2500000D01*
G01X2580000Y410000D02*
Y415000D01*
X2560000D01*
X2600000Y430000D01*
X2560000D01*
X2600000Y445000D01*
X2560000D01*
X2580000Y455000D01*
Y460000D01*
G01X2510000Y670000D02*
X2350000D01*
Y1040000D01*
X2510000D01*
Y670000D01*
G01X2310000Y800000D02*
Y820000D01*
G01X2280000Y830000D02*
X2310000Y800000D01*
X2290000D01*
G01X2270000Y850000D02*
Y755000D01*
G01X2320000Y845000D02*
X2220000D01*
G01X2270000Y990000D02*
Y890000D01*
X2220000D01*
X2270000Y850000D01*
X2320000Y890000D01*
X2270000D01*
G01X2830000Y1010000D02*
X2990000D01*
Y640000D01*
X2830000D01*
Y1010000D01*
G01X2745000Y760000D02*
Y740000D01*
G01X2775000Y730000D02*
X2745000Y760000D01*
X2765000D01*
G01X2785000Y710000D02*
Y805000D01*
G01X2735000Y715000D02*
X2835000D01*
G01X2750000Y1160000D02*
Y790000D01*
X2590000D01*
Y1160000D01*
X2750000D01*
G01X2670000Y1000000D02*
Y995000D01*
X2690000D01*
X2650000Y980000D01*
X2690000D01*
X2650000Y965000D01*
X2690000D01*
X2670000Y955000D01*
Y950000D01*
G01X3280000Y1010000D02*
X3440000D01*
Y640000D01*
X3280000D01*
Y1010000D01*
G01X3180000Y865000D02*
Y845000D01*
G01X3210000Y835000D02*
X3180000Y865000D01*
X3200000D01*
G01X3220000Y815000D02*
Y910000D01*
G01X3170000Y820000D02*
X3270000D01*
G01X3220000Y675000D02*
Y775000D01*
X3270000D01*
X3220000Y815000D01*
X3170000Y775000D01*
X3220000D01*
G01X3170000Y1010000D02*
Y640000D01*
X3010000D01*
Y1010000D01*
X3170000D01*
G01X3090000Y850000D02*
Y845000D01*
X3110000D01*
X3070000Y830000D01*
X3110000D01*
X3070000Y815000D01*
X3110000D01*
X3090000Y805000D01*
Y800000D01*
G01X3680000Y1010000D02*
Y640000D01*
X3520000D01*
Y1010000D01*
X3680000D01*
G01X3600000Y850000D02*
Y845000D01*
X3620000D01*
X3580000Y830000D01*
X3620000D01*
X3580000Y815000D01*
X3620000D01*
X3600000Y805000D01*
Y800000D01*
G54D11*
G01X1575000Y-725000D02*
Y-1665000D01*
X685000D01*
Y-1505000D01*
X425000D01*
Y-1665000D01*
X-465000D01*
Y-725000D01*
X1575000D01*
G01X1733000Y-1627000D02*
Y-1373000D01*
X2749000D01*
Y-1627000D01*
X1733000D01*
G54D12*
G01X3320000Y-164000D02*
X3160000D01*
G01Y344000D02*
X3320000D01*
G01X2986000Y170000D02*
Y10000D01*
G01X3494000Y170000D02*
Y10000D01*
G54D13*
G01X-490710Y-1100620D02*
X-496550Y-1108490D01*
X-503370Y-1112430D01*
X-511160Y-1113740D01*
X-520890Y-1111120D01*
X-527710Y-1104550D01*
X-529660Y-1096680D01*
X-528680Y-1088800D01*
X-524790Y-1082240D01*
X-505320Y-1069120D01*
X-496550Y-1059930D01*
X-490710Y-1046810D01*
X-488760Y-1035000D01*
X-529660D01*
G01X-509210Y-1500000D02*
Y-1578740D01*
X-497530Y-1562990D01*
G01Y-1500000D02*
X-520890D01*
G01X-510000Y-562790D02*
X-431260D01*
Y-582260D01*
X-435200Y-590050D01*
X-440450Y-595890D01*
X-448320Y-600760D01*
X-457510Y-604660D01*
X-470630Y-605630D01*
X-483750Y-604660D01*
X-492940Y-600760D01*
X-500820Y-595890D01*
X-506060Y-590050D01*
X-510000Y-582260D01*
Y-562790D01*
G01Y-662950D02*
X-431260D01*
X-447010Y-651270D01*
G01X-510000D02*
Y-674630D01*
G01Y7210D02*
X-431260D01*
Y-12260D01*
X-435200Y-20050D01*
X-440450Y-25890D01*
X-448320Y-30760D01*
X-457510Y-34660D01*
X-470630Y-35630D01*
X-483750Y-34660D01*
X-492940Y-30760D01*
X-500820Y-25890D01*
X-506060Y-20050D01*
X-510000Y-12260D01*
Y7210D01*
G01X-444380Y-74450D02*
X-436510Y-80290D01*
X-432570Y-87110D01*
X-431260Y-94900D01*
X-433880Y-104630D01*
X-440450Y-111450D01*
X-448320Y-113400D01*
X-456200Y-112420D01*
X-462760Y-108530D01*
X-475880Y-89060D01*
X-485070Y-80290D01*
X-498190Y-74450D01*
X-510000Y-72500D01*
Y-113400D01*
G01X-487210Y1368740D02*
Y1312310D01*
X-483320Y1300500D01*
X-475530Y1292620D01*
X-465790Y1290000D01*
X-456050Y1292620D01*
X-448260Y1300500D01*
X-444370Y1312310D01*
Y1368740D01*
G01X-387050Y1290000D02*
Y1368740D01*
X-398730Y1352990D01*
G01Y1290000D02*
X-375370D01*
G01X314210Y-611260D02*
Y-690000D01*
G01X291820Y-611260D02*
X336600D01*
G01X372500Y-690000D02*
X413400Y-611260D01*
G01X372500D02*
X413400Y-690000D01*
G01X530960Y-611260D02*
Y-690000D01*
X569900D01*
G01X648640D02*
X609700D01*
Y-611260D01*
X648640D01*
G01X633060Y-649320D02*
X609700D01*
G01X686490Y-690000D02*
Y-611260D01*
X705960D01*
X713750Y-615200D01*
X719590Y-620450D01*
X724460Y-628320D01*
X728360Y-637510D01*
X729330Y-650630D01*
X728360Y-663750D01*
X724460Y-672940D01*
X719590Y-680820D01*
X713750Y-686060D01*
X705960Y-690000D01*
X686490D01*
G01X294740Y-525000D02*
Y-446260D01*
X319080D01*
X326870Y-450200D01*
X331740Y-455450D01*
X333680Y-465950D01*
X331740Y-476440D01*
X325890Y-483000D01*
X319080Y-486940D01*
X294740D01*
G01X319080D02*
X333680Y-525000D01*
G01X372500D02*
X413400Y-446260D01*
G01X372500D02*
X413400Y-525000D01*
G01X530960Y-446260D02*
Y-525000D01*
X569900D01*
G01X648640D02*
X609700D01*
Y-446260D01*
X648640D01*
G01X633060Y-484320D02*
X609700D01*
G01X686490Y-525000D02*
Y-446260D01*
X705960D01*
X713750Y-450200D01*
X719590Y-455450D01*
X724460Y-463320D01*
X728360Y-472510D01*
X729330Y-485630D01*
X728360Y-498750D01*
X724460Y-507940D01*
X719590Y-515820D01*
X713750Y-521060D01*
X705960Y-525000D01*
X686490D01*
G01X345000Y-405000D02*
Y-90000D01*
X-30000D01*
G01X285000Y-600000D02*
X-15000D01*
G01X575630Y-302820D02*
X569790Y-298880D01*
X562970Y-296260D01*
X555180D01*
X546420Y-300200D01*
X539610Y-306760D01*
X534740Y-314630D01*
X530840Y-327760D01*
X529870Y-339570D01*
X531820Y-351380D01*
X534740Y-359250D01*
X540580Y-367130D01*
X547390Y-372380D01*
X554210Y-375000D01*
X561030D01*
X567840Y-372380D01*
X573680Y-368440D01*
X578550Y-363190D01*
G01X611530Y-359250D02*
X617370Y-368440D01*
X625160Y-373690D01*
X633920Y-375000D01*
X641710Y-373690D01*
X649500Y-367130D01*
X654370Y-359250D01*
X655340Y-351380D01*
X653400Y-342190D01*
X646580Y-335630D01*
X639770Y-333000D01*
X631000D01*
G01X639770D02*
X645610Y-329070D01*
X650480Y-322510D01*
X652420Y-314630D01*
X650480Y-306760D01*
X645610Y-300200D01*
X636840Y-296260D01*
X628080Y-297570D01*
X619320Y-302820D01*
G01X-5260Y-285000D02*
Y-206260D01*
X19080D01*
X26870Y-210200D01*
X31740Y-215450D01*
X33680Y-225950D01*
X31740Y-236440D01*
X25890Y-243000D01*
X19080Y-246940D01*
X-5260D01*
G01X19080D02*
X33680Y-285000D01*
G01X92950D02*
Y-206260D01*
X81270Y-222010D01*
G01Y-285000D02*
X104630D01*
G01X150270Y-273190D02*
X156110Y-279750D01*
X162930Y-283690D01*
X171690Y-285000D01*
X180450Y-282380D01*
X187270Y-277130D01*
X192140Y-267940D01*
X193110Y-257440D01*
X191160Y-246940D01*
X186290Y-240380D01*
X179480Y-235130D01*
X172660Y-233820D01*
X165850Y-235130D01*
X157090Y-240380D01*
X160010Y-206260D01*
X186290D01*
G01X-5260Y-450000D02*
Y-371260D01*
X19080D01*
X26870Y-375200D01*
X31740Y-380450D01*
X33680Y-390950D01*
X31740Y-401440D01*
X25890Y-408000D01*
X19080Y-411940D01*
X-5260D01*
G01X19080D02*
X33680Y-450000D01*
G01X92950D02*
Y-371260D01*
X81270Y-387010D01*
G01Y-450000D02*
X104630D01*
G01X183370D02*
Y-371260D01*
X147350Y-427690D01*
X196030D01*
G01X575630Y-77820D02*
X569790Y-73880D01*
X562970Y-71260D01*
X555180D01*
X546420Y-75200D01*
X539610Y-81760D01*
X534740Y-89630D01*
X530840Y-102760D01*
X529870Y-114570D01*
X531820Y-126380D01*
X534740Y-134250D01*
X540580Y-142130D01*
X547390Y-147380D01*
X554210Y-150000D01*
X561030D01*
X567840Y-147380D01*
X573680Y-143440D01*
X578550Y-138190D01*
G01X644630Y-150000D02*
Y-71260D01*
X608610Y-127690D01*
X657290D01*
G01X519740Y315000D02*
Y393740D01*
X544080D01*
X551870Y389800D01*
X556740Y384550D01*
X558680Y374050D01*
X556740Y363560D01*
X550890Y357000D01*
X544080Y353060D01*
X519740D01*
G01X544080D02*
X558680Y315000D01*
G01X596530Y326810D02*
X602370Y320250D01*
X609190Y316310D01*
X617950Y315000D01*
X626710Y317620D01*
X633530Y322870D01*
X638400Y332060D01*
X639370Y342560D01*
X637420Y353060D01*
X632550Y359620D01*
X625740Y364870D01*
X618920Y366180D01*
X612110Y364870D01*
X603350Y359620D01*
X606270Y393740D01*
X632550D01*
G01X519740Y480000D02*
Y558740D01*
X544080D01*
X551870Y554800D01*
X556740Y549550D01*
X558680Y539050D01*
X556740Y528560D01*
X550890Y522000D01*
X544080Y518060D01*
X519740D01*
G01X544080D02*
X558680Y480000D01*
G01X629630D02*
Y558740D01*
X593610Y502310D01*
X642290D01*
G01X519740Y90000D02*
Y168740D01*
X544080D01*
X551870Y164800D01*
X556740Y159550D01*
X558680Y149050D01*
X556740Y138560D01*
X550890Y132000D01*
X544080Y128060D01*
X519740D01*
G01X544080D02*
X558680Y90000D01*
G01X596530Y105750D02*
X602370Y96560D01*
X610160Y91310D01*
X618920Y90000D01*
X626710Y91310D01*
X634500Y97870D01*
X639370Y105750D01*
X640340Y113620D01*
X638400Y122810D01*
X631580Y129370D01*
X624770Y132000D01*
X616000D01*
G01X624770D02*
X630610Y135930D01*
X635480Y142490D01*
X637420Y150370D01*
X635480Y158240D01*
X630610Y164800D01*
X621840Y168740D01*
X613080Y167430D01*
X604320Y162180D01*
G01X579740Y1275000D02*
Y1353740D01*
X604080D01*
X611870Y1349800D01*
X616740Y1344550D01*
X618680Y1334050D01*
X616740Y1323560D01*
X610890Y1317000D01*
X604080Y1313060D01*
X579740D01*
G01X604080D02*
X618680Y1275000D01*
G01X659450Y1340620D02*
X665290Y1348490D01*
X672110Y1352430D01*
X679900Y1353740D01*
X689630Y1351120D01*
X696450Y1344550D01*
X698400Y1336680D01*
X697420Y1328800D01*
X693530Y1322240D01*
X674060Y1309120D01*
X665290Y1299930D01*
X659450Y1286810D01*
X657500Y1275000D01*
X698400D01*
G01X534740Y693740D02*
Y615000D01*
X573680D01*
G01X632950D02*
Y693740D01*
X621270Y677990D01*
G01Y615000D02*
X644630D01*
G01X1319210Y1443740D02*
Y1365000D01*
G01X1296820Y1443740D02*
X1341600D01*
G01X1378480Y1365000D02*
Y1443740D01*
X1402820D01*
X1410610Y1439800D01*
X1415480Y1434550D01*
X1417420Y1424050D01*
X1415480Y1413560D01*
X1409630Y1407000D01*
X1402820Y1403060D01*
X1378480D01*
G01X1402820D02*
X1417420Y1365000D01*
G01X1465010Y1443740D02*
X1488370D01*
G01X1476690D02*
Y1365000D01*
G01X1465010D02*
X1488370D01*
G01X1055050Y1404370D02*
X1074530D01*
Y1380750D01*
X1068680Y1372870D01*
X1061870Y1367620D01*
X1052130Y1365000D01*
X1042390Y1367620D01*
X1035580Y1372870D01*
X1029740Y1380750D01*
X1025840Y1389930D01*
X1023890Y1400430D01*
Y1409620D01*
X1025840Y1417490D01*
X1029740Y1426680D01*
X1035580Y1434550D01*
X1041420Y1439800D01*
X1049210Y1443740D01*
X1056030D01*
X1063810Y1441120D01*
X1069660Y1435870D01*
G01X1105560Y1365000D02*
Y1443740D01*
X1150340Y1365000D01*
Y1443740D01*
G01X1185270Y1365000D02*
Y1443740D01*
X1204740D01*
X1212530Y1439800D01*
X1218370Y1434550D01*
X1223240Y1426680D01*
X1227140Y1417490D01*
X1228110Y1404370D01*
X1227140Y1391250D01*
X1223240Y1382060D01*
X1218370Y1374180D01*
X1212530Y1368940D01*
X1204740Y1365000D01*
X1185270D01*
G01X849740Y1350750D02*
X854610Y1342870D01*
X860450Y1337620D01*
X867260Y1335000D01*
X875050Y1337620D01*
X880890Y1342870D01*
X886740Y1350750D01*
X888680Y1361250D01*
Y1413740D01*
G01X926530Y1350750D02*
X932370Y1341560D01*
X940160Y1336310D01*
X948920Y1335000D01*
X956710Y1336310D01*
X964500Y1342870D01*
X969370Y1350750D01*
X970340Y1358620D01*
X968400Y1367810D01*
X961580Y1374370D01*
X954770Y1377000D01*
X946000D01*
G01X954770D02*
X960610Y1380930D01*
X965480Y1387490D01*
X967420Y1395370D01*
X965480Y1403240D01*
X960610Y1409800D01*
X951840Y1413740D01*
X943080Y1412430D01*
X934320Y1407180D01*
G01X995630Y1017180D02*
X989790Y1021120D01*
X982970Y1023740D01*
X975180D01*
X966420Y1019800D01*
X959610Y1013240D01*
X954740Y1005370D01*
X950840Y992240D01*
X949870Y980430D01*
X951820Y968620D01*
X954740Y960750D01*
X960580Y952870D01*
X967390Y947620D01*
X974210Y945000D01*
X981030D01*
X987840Y947620D01*
X993680Y951560D01*
X998550Y956810D01*
G01X1031530D02*
X1037370Y950250D01*
X1044190Y946310D01*
X1052950Y945000D01*
X1061710Y947620D01*
X1068530Y952870D01*
X1073400Y962060D01*
X1074370Y972560D01*
X1072420Y983060D01*
X1067550Y989620D01*
X1060740Y994870D01*
X1053920Y996180D01*
X1047110Y994870D01*
X1038350Y989620D01*
X1041270Y1023740D01*
X1067550D01*
G01X1370630Y852180D02*
X1364790Y856120D01*
X1357970Y858740D01*
X1350180D01*
X1341420Y854800D01*
X1334610Y848240D01*
X1329740Y840370D01*
X1325840Y827240D01*
X1324870Y815430D01*
X1326820Y803620D01*
X1329740Y795750D01*
X1335580Y787870D01*
X1342390Y782620D01*
X1349210Y780000D01*
X1356030D01*
X1362840Y782620D01*
X1368680Y786560D01*
X1373550Y791810D01*
G01X1427950Y780000D02*
Y858740D01*
X1416270Y842990D01*
G01Y780000D02*
X1439630D01*
G01X2084210Y-1256260D02*
Y-1335000D01*
G01X2061820Y-1256260D02*
X2106600D01*
G01X2142500Y-1335000D02*
X2183400Y-1256260D01*
G01X2142500D02*
X2183400Y-1335000D01*
G01X1717790Y-1319250D02*
X1723630Y-1328440D01*
X1731420Y-1333690D01*
X1740180Y-1335000D01*
X1747970Y-1333690D01*
X1755760Y-1327130D01*
X1760630Y-1319250D01*
X1761600Y-1311380D01*
X1759660Y-1302190D01*
X1752840Y-1295630D01*
X1746030Y-1293000D01*
X1737260D01*
G01X1746030D02*
X1751870Y-1289070D01*
X1756740Y-1282510D01*
X1758680Y-1274630D01*
X1756740Y-1266760D01*
X1751870Y-1260200D01*
X1743100Y-1256260D01*
X1734340Y-1257570D01*
X1725580Y-1262820D01*
G01X1793610Y-1256260D02*
X1817950Y-1335000D01*
X1842290Y-1256260D01*
G01X1875270Y-1319250D02*
X1881110Y-1328440D01*
X1888900Y-1333690D01*
X1897660Y-1335000D01*
X1905450Y-1333690D01*
X1913240Y-1327130D01*
X1918110Y-1319250D01*
X1919080Y-1311380D01*
X1917140Y-1302190D01*
X1910320Y-1295630D01*
X1903510Y-1293000D01*
X1894740D01*
G01X1903510D02*
X1909350Y-1289070D01*
X1914220Y-1282510D01*
X1916160Y-1274630D01*
X1914220Y-1266760D01*
X1909350Y-1260200D01*
X1900580Y-1256260D01*
X1891820Y-1257570D01*
X1883060Y-1262820D01*
G01X1374740Y-659250D02*
X1379610Y-667130D01*
X1385450Y-672380D01*
X1392260Y-675000D01*
X1400050Y-672380D01*
X1405890Y-667130D01*
X1411740Y-659250D01*
X1413680Y-648750D01*
Y-596260D01*
G01X1454450Y-609380D02*
X1460290Y-601510D01*
X1467110Y-597570D01*
X1474900Y-596260D01*
X1484630Y-598880D01*
X1491450Y-605450D01*
X1493400Y-613320D01*
X1492420Y-621200D01*
X1488530Y-627760D01*
X1469060Y-640880D01*
X1460290Y-650070D01*
X1454450Y-663190D01*
X1452500Y-675000D01*
X1493400D01*
G01X2092790Y1380750D02*
X2098630Y1371560D01*
X2106420Y1366310D01*
X2115180Y1365000D01*
X2122970Y1366310D01*
X2130760Y1372870D01*
X2135630Y1380750D01*
X2136600Y1388620D01*
X2134660Y1397810D01*
X2127840Y1404370D01*
X2121030Y1407000D01*
X2112260D01*
G01X2121030D02*
X2126870Y1410930D01*
X2131740Y1417490D01*
X2133680Y1425370D01*
X2131740Y1433240D01*
X2126870Y1439800D01*
X2118100Y1443740D01*
X2109340Y1442430D01*
X2100580Y1437180D01*
G01X2168610Y1443740D02*
X2192950Y1365000D01*
X2217290Y1443740D01*
G01X2250270Y1380750D02*
X2256110Y1371560D01*
X2263900Y1366310D01*
X2272660Y1365000D01*
X2280450Y1366310D01*
X2288240Y1372870D01*
X2293110Y1380750D01*
X2294080Y1388620D01*
X2292140Y1397810D01*
X2285320Y1404370D01*
X2278510Y1407000D01*
X2269740D01*
G01X2278510D02*
X2284350Y1410930D01*
X2289220Y1417490D01*
X2291160Y1425370D01*
X2289220Y1433240D01*
X2284350Y1439800D01*
X2275580Y1443740D01*
X2266820Y1442430D01*
X2258060Y1437180D01*
G01X1570710Y1443740D02*
X1607710D01*
X1570710Y1365000D01*
X1607710D01*
G01X1687420D02*
X1648480D01*
Y1443740D01*
X1687420D01*
G01X1671840Y1405680D02*
X1648480D01*
G01X1727220Y1365000D02*
Y1443740D01*
X1751560D01*
X1759350Y1439800D01*
X1764220Y1434550D01*
X1766160Y1424050D01*
X1764220Y1413560D01*
X1758370Y1407000D01*
X1751560Y1403060D01*
X1727220D01*
G01X1751560D02*
X1766160Y1365000D01*
G01X1839740D02*
Y1443740D01*
X1863100D01*
X1870890Y1439800D01*
X1876740Y1430620D01*
X1878680Y1420120D01*
X1876740Y1409620D01*
X1871870Y1401740D01*
X1863100Y1397810D01*
X1839740D01*
G01X1908740Y1443740D02*
X1922370Y1365000D01*
X1937950Y1443740D01*
X1953530Y1365000D01*
X1967160Y1443740D01*
G01X1991370Y1365000D02*
Y1443740D01*
X2016690Y1378120D01*
X2042010Y1443740D01*
Y1365000D01*
G01X2319740Y-1335000D02*
Y-1256260D01*
X2344080D01*
X2351870Y-1260200D01*
X2356740Y-1265450D01*
X2358680Y-1275950D01*
X2356740Y-1286440D01*
X2350890Y-1293000D01*
X2344080Y-1296940D01*
X2319740D01*
G01X2344080D02*
X2358680Y-1335000D01*
G01X2397500D02*
X2438400Y-1256260D01*
G01X2397500D02*
X2438400Y-1335000D01*
G01X2600050Y-1295630D02*
X2619530D01*
Y-1319250D01*
X2613680Y-1327130D01*
X2606870Y-1332380D01*
X2597130Y-1335000D01*
X2587390Y-1332380D01*
X2580580Y-1327130D01*
X2574740Y-1319250D01*
X2570840Y-1310070D01*
X2568890Y-1299570D01*
Y-1290380D01*
X2570840Y-1282510D01*
X2574740Y-1273320D01*
X2580580Y-1265450D01*
X2586420Y-1260200D01*
X2594210Y-1256260D01*
X2601030D01*
X2608810Y-1258880D01*
X2614660Y-1264130D01*
G01X2650560Y-1335000D02*
Y-1256260D01*
X2695340Y-1335000D01*
Y-1256260D01*
G01X2730270Y-1335000D02*
Y-1256260D01*
X2749740D01*
X2757530Y-1260200D01*
X2763370Y-1265450D01*
X2768240Y-1273320D01*
X2772140Y-1282510D01*
X2773110Y-1295630D01*
X2772140Y-1308750D01*
X2768240Y-1317940D01*
X2763370Y-1325820D01*
X2757530Y-1331060D01*
X2749740Y-1335000D01*
X2730270D01*
G01X2791160Y-1634250D02*
X2796030Y-1642130D01*
X2801870Y-1647380D01*
X2808680Y-1650000D01*
X2816470Y-1647380D01*
X2822310Y-1642130D01*
X2828160Y-1634250D01*
X2830100Y-1623750D01*
Y-1571260D01*
G01X2889370Y-1650000D02*
Y-1571260D01*
X2877690Y-1587010D01*
G01Y-1650000D02*
X2901050D01*
G01X2723760Y-994500D02*
X2731550Y-1001060D01*
X2740320Y-1005000D01*
X2748100D01*
X2755890Y-1001060D01*
X2761740Y-994500D01*
X2764660Y-985310D01*
X2762710Y-976130D01*
X2757840Y-968260D01*
X2749080Y-963000D01*
X2737390Y-960380D01*
X2730580Y-955130D01*
X2727660Y-945950D01*
X2729610Y-936760D01*
X2734470Y-930200D01*
X2741290Y-926260D01*
X2748100D01*
X2754920Y-928880D01*
X2760760Y-935450D01*
G01X2793740Y-926260D02*
X2807370Y-1005000D01*
X2822950Y-926260D01*
X2838530Y-1005000D01*
X2852160Y-926260D01*
G01X2901690Y-1005000D02*
Y-926260D01*
X2890010Y-942010D01*
G01Y-1005000D02*
X2913370D01*
G01X2122790Y-371260D02*
Y-427690D01*
X2126680Y-439500D01*
X2134470Y-447380D01*
X2144210Y-450000D01*
X2153950Y-447380D01*
X2161740Y-439500D01*
X2165630Y-427690D01*
Y-371260D01*
G01X2204450Y-384380D02*
X2210290Y-376510D01*
X2217110Y-372570D01*
X2224900Y-371260D01*
X2234630Y-373880D01*
X2241450Y-380450D01*
X2243400Y-388320D01*
X2242420Y-396200D01*
X2238530Y-402760D01*
X2219060Y-415880D01*
X2210290Y-425070D01*
X2204450Y-438190D01*
X2202500Y-450000D01*
X2243400D01*
G01X2372820Y-54370D02*
X2368880Y-60210D01*
X2366260Y-67030D01*
Y-74820D01*
X2370200Y-83580D01*
X2376760Y-90390D01*
X2384630Y-95260D01*
X2397760Y-99160D01*
X2409570Y-100130D01*
X2421380Y-98180D01*
X2429250Y-95260D01*
X2437130Y-89420D01*
X2442380Y-82610D01*
X2445000Y-75790D01*
Y-68970D01*
X2442380Y-62160D01*
X2438440Y-56320D01*
X2433190Y-51450D01*
G01X2379380Y-15550D02*
X2371510Y-9710D01*
X2367570Y-2890D01*
X2366260Y4900D01*
X2368880Y14630D01*
X2375450Y21450D01*
X2383320Y23400D01*
X2391200Y22420D01*
X2397760Y18530D01*
X2410880Y-940D01*
X2420070Y-9710D01*
X2433190Y-15550D01*
X2445000Y-17500D01*
Y23400D01*
G01X2460000Y354740D02*
X2381260D01*
Y379080D01*
X2385200Y386870D01*
X2390450Y391740D01*
X2400950Y393680D01*
X2411440Y391740D01*
X2418000Y385890D01*
X2421940Y379080D01*
Y354740D01*
G01Y379080D02*
X2460000Y393680D01*
G01Y452950D02*
X2381260D01*
X2397010Y441270D01*
G01X2460000D02*
Y464630D01*
G01X2377790Y1376810D02*
X2383630Y1370250D01*
X2390450Y1366310D01*
X2399210Y1365000D01*
X2407970Y1367620D01*
X2414790Y1372870D01*
X2419660Y1382060D01*
X2420630Y1392560D01*
X2418680Y1403060D01*
X2413810Y1409620D01*
X2407000Y1414870D01*
X2400180Y1416180D01*
X2393370Y1414870D01*
X2384610Y1409620D01*
X2387530Y1443740D01*
X2413810D01*
G01X2453610D02*
X2477950Y1365000D01*
X2502290Y1443740D01*
G01X2190000Y877790D02*
X2111260D01*
Y897260D01*
X2115200Y905050D01*
X2120450Y910890D01*
X2128320Y915760D01*
X2137510Y919660D01*
X2150630Y920630D01*
X2163750Y919660D01*
X2172940Y915760D01*
X2180820Y910890D01*
X2186060Y905050D01*
X2190000Y897260D01*
Y877790D01*
G01X2178190Y956530D02*
X2184750Y962370D01*
X2188690Y969190D01*
X2190000Y977950D01*
X2187380Y986710D01*
X2182130Y993530D01*
X2172940Y998400D01*
X2162440Y999370D01*
X2151940Y997420D01*
X2145380Y992550D01*
X2140130Y985740D01*
X2138820Y978920D01*
X2140130Y972110D01*
X2145380Y963350D01*
X2111260Y966270D01*
Y992550D01*
G01X2745000Y1385260D02*
X2823740D01*
Y1360920D01*
X2819800Y1353130D01*
X2814550Y1348260D01*
X2804050Y1346320D01*
X2793560Y1348260D01*
X2787000Y1354110D01*
X2783060Y1360920D01*
Y1385260D01*
G01Y1360920D02*
X2745000Y1346320D01*
G01Y1287050D02*
X2823740D01*
X2807990Y1298730D01*
G01X2745000D02*
Y1275370D01*
G01Y1208310D02*
X2746310Y1201490D01*
X2750250Y1193710D01*
X2756810Y1188840D01*
X2766000Y1186890D01*
X2775180Y1188840D01*
X2783060Y1194680D01*
X2787000Y1203440D01*
Y1213180D01*
X2789620Y1219020D01*
X2796180Y1223890D01*
X2805370Y1225840D01*
X2814550Y1222910D01*
X2821120Y1216100D01*
X2823740Y1208310D01*
X2821120Y1200520D01*
X2814550Y1193710D01*
X2805370Y1190780D01*
X2796180Y1192730D01*
X2789620Y1197600D01*
X2787000Y1203440D01*
Y1213180D01*
X2783060Y1221940D01*
X2775180Y1227780D01*
X2766000Y1229730D01*
X2756810Y1227780D01*
X2750250Y1222910D01*
X2746310Y1215130D01*
X2745000Y1208310D01*
G01X3693740Y-397790D02*
X3637310D01*
X3625500Y-401680D01*
X3617620Y-409470D01*
X3615000Y-419210D01*
X3617620Y-428950D01*
X3625500Y-436740D01*
X3637310Y-440630D01*
X3693740D01*
G01X3615000Y-509630D02*
X3693740D01*
X3637310Y-473610D01*
Y-522290D01*
G01X3315000Y1192210D02*
X3393740D01*
Y1172740D01*
X3389800Y1164950D01*
X3384550Y1159110D01*
X3376680Y1154240D01*
X3367490Y1150340D01*
X3354370Y1149370D01*
X3341250Y1150340D01*
X3332060Y1154240D01*
X3324180Y1159110D01*
X3318940Y1164950D01*
X3315000Y1172740D01*
Y1192210D01*
G01X3330750Y1113470D02*
X3321560Y1107630D01*
X3316310Y1099840D01*
X3315000Y1091080D01*
X3316310Y1083290D01*
X3322870Y1075500D01*
X3330750Y1070630D01*
X3338620Y1069660D01*
X3347810Y1071600D01*
X3354370Y1078420D01*
X3357000Y1085230D01*
Y1094000D01*
G01Y1085230D02*
X3360930Y1079390D01*
X3367490Y1074520D01*
X3375370Y1072580D01*
X3383240Y1074520D01*
X3389800Y1079390D01*
X3393740Y1088160D01*
X3392430Y1096920D01*
X3387180Y1105680D01*
G01X2925000Y1177210D02*
X3003740D01*
Y1157740D01*
X2999800Y1149950D01*
X2994550Y1144110D01*
X2986680Y1139240D01*
X2977490Y1135340D01*
X2964370Y1134370D01*
X2951250Y1135340D01*
X2942060Y1139240D01*
X2934180Y1144110D01*
X2928940Y1149950D01*
X2925000Y1157740D01*
Y1177210D01*
G01Y1065370D02*
X3003740D01*
X2947310Y1101390D01*
Y1052710D01*
G01X3150000Y1280260D02*
X3228740D01*
Y1255920D01*
X3224800Y1248130D01*
X3219550Y1243260D01*
X3209050Y1241320D01*
X3198560Y1243260D01*
X3192000Y1249110D01*
X3188060Y1255920D01*
Y1280260D01*
G01Y1255920D02*
X3150000Y1241320D01*
G01Y1182050D02*
X3228740D01*
X3212990Y1193730D01*
G01X3150000D02*
Y1170370D01*
G01Y1105260D02*
X3167060Y1103310D01*
X3181490Y1100390D01*
X3194620Y1096490D01*
X3209050Y1091630D01*
X3228740Y1083840D01*
Y1122780D01*
G01X3705000Y965260D02*
X3783740D01*
Y940920D01*
X3779800Y933130D01*
X3774550Y928260D01*
X3764050Y926320D01*
X3753560Y928260D01*
X3747000Y934110D01*
X3743060Y940920D01*
Y965260D01*
G01Y940920D02*
X3705000Y926320D01*
G01Y867050D02*
X3783740D01*
X3767990Y878730D01*
G01X3705000D02*
Y855370D01*
G01X3737810Y806810D02*
X3747000Y799990D01*
X3752240Y794150D01*
X3754870Y786360D01*
X3752240Y779550D01*
X3747000Y774680D01*
X3739120Y770780D01*
X3729930Y769810D01*
X3722060Y770780D01*
X3714180Y774680D01*
X3707620Y780520D01*
X3705000Y787340D01*
X3707620Y795130D01*
X3715500Y801940D01*
X3727310Y805840D01*
X3740430Y806810D01*
X3757490Y804860D01*
X3766680Y801940D01*
X3775870Y797070D01*
X3782430Y790260D01*
X3783740Y783440D01*
X3781120Y776630D01*
X3774550Y771760D01*
G54D14*
G01X2564000Y1073000D02*
X1040000D01*
Y1327000D01*
X2564000D01*
Y1073000D01*
G01X2695200Y-690000D02*
Y-504580D01*
X3304800D01*
Y-875420D01*
X2695200D01*
Y-690000D01*
M02*
