G04 ================== begin FILE IDENTIFICATION RECORD ==================*
G04 Layout Name:  C:/DATA/GIT/CADENCE/MODULES/ZM5202_PL2303/allegro/ZM5202_PL2303.brd*
G04 Film Name:    TOP*
G04 File Format:  Gerber RS274X*
G04 File Origin:  Cadence Allegro 17.2-P019*
G04 Origin Date:  Mon Mar 20 23:22:01 2017*
G04 *
G04 Layer:  ETCH/TOP*
G04 Layer:  PIN/TOP*
G04 Layer:  VIA CLASS/TOP*
G04 *
G04 Offset:    (0.0000 0.0000)*
G04 Mirror:    No*
G04 Mode:      Positive*
G04 Rotation:  0*
G04 FullContactRelief:  No*
G04 UndefLineWidth:     0.0000*
G04 ================== end FILE IDENTIFICATION RECORD ====================*
%FSLAX25Y25*MOMM*%
%IR0*IPPOS*OFA0.00000B0.00000*MIA0B0*SFA1.00000B1.00000*%
%ADD16R,2.5001X.5001*%
%ADD17R,2.2499X.43*%
%ADD11R,2.5001X2.*%
%ADD14C,1.*%
%ADD21C,3.*%
%ADD20R,1.524X1.524*%
%ADD15C,1.1999*%
%ADD18C,2.1999*%
%ADD12C,1.5999*%
%ADD10R,1.1999X1.1999*%
%ADD19R,2.1999X2.1999*%
%ADD13R,1.5999X1.5999*%
%ADD22C,.3*%
%ADD23C,2.2004*%
%ADD24C,1.8544*%
G75*
%LPD*%
G75*
G36*
G01X-480000Y-1689990D02*
Y1439990D01*
X1434040D01*
G02X1441220Y1422650I-3J-10158D01*
G01X1355980Y1337400D01*
Y1312590D01*
G03X1315660Y1276220I65007J-112602D01*
G01X1250800D01*
Y1271840D01*
G02X1233370Y1264750I-10159J4D01*
G03Y1135250I-66370J-64750D01*
G02X1250800Y1128160I7271J-7094D01*
G01Y1123780D01*
X1315660D01*
G03X1526340I105340J76220D01*
G01X1569660D01*
G03X1780340I105340J76220D01*
G01X1823660D01*
G03X1863980Y1087410I105327J76232D01*
G01Y1065370D01*
X2244370Y684980D01*
X2348290D01*
X2349570Y681790D01*
G03X2370000Y667980I20434J8213D01*
G01X2490000D01*
G03X2512020Y690000I-5J22025D01*
G01Y804980D01*
X2588290D01*
X2589570Y801790D01*
G03X2610000Y787980I20434J8213D01*
G01X2730000D01*
G03X2752020Y810000I-5J22025D01*
G01Y930000D01*
G03X2742280Y948270I-22022J-9D01*
G01X2740040Y949780D01*
Y1000220D01*
X2742280Y1001730D01*
G03X2752020Y1020000I-12282J18279D01*
G01Y1140000D01*
G03X2744900Y1156200I-22021J-14D01*
G02X2744560Y1163330I3442J3737D01*
G03X2753990Y1284300I-74562J66665D01*
G02X2762530Y1299980I8533J5518D01*
G01X2778070D01*
X2844980Y1233070D01*
Y1011710D01*
X2841790Y1010430D01*
G03X2827980Y990000I8213J-20434D01*
G01Y870000D01*
G03X2837720Y851730I22022J9D01*
G01X2839960Y850220D01*
Y799780D01*
X2837720Y798270D01*
G03X2827980Y780000I12282J-18279D01*
G01Y660000D01*
G03X2850000Y637980I22025J5D01*
G01X2970000D01*
G03X2990430Y651790I-4J22023D01*
G01X2991710Y654980D01*
X3008290D01*
X3009570Y651790D01*
G03X3030000Y637980I20434J8213D01*
G01X3150000D01*
G03X3172020Y660000I-5J22025D01*
G01Y780000D01*
G03X3162280Y798270I-22022J-9D01*
G01X3160040Y799780D01*
Y850220D01*
X3162280Y851730D01*
G03X3172020Y870000I-12282J18279D01*
G01Y990000D01*
G03X3158210Y1010430I-22023J-4D01*
G01X3155020Y1011710D01*
Y1153580D01*
X3159880Y1158440D01*
X3159900Y1158460D01*
G03X3020100I-69900J71540D01*
G01X3020120Y1158440D01*
X3024980Y1153580D01*
Y1011710D01*
X3021790Y1010430D01*
G03X3007980Y990000I8213J-20434D01*
G01Y870000D01*
G03X3017720Y851730I22022J9D01*
G01X3019960Y850220D01*
Y799780D01*
X3017720Y798270D01*
G03X3009570Y788210I12280J-18280D01*
G01X3008290Y785020D01*
X2991710D01*
X2990430Y788210D01*
G03X2982280Y798270I-20430J-8220D01*
G01X2980040Y799780D01*
Y850220D01*
X2982280Y851730D01*
G03X2992020Y870000I-12282J18279D01*
G01Y990000D01*
G03X2978210Y1010430I-22023J-4D01*
G01X2975020Y1011710D01*
Y1286930D01*
X2919320Y1342640D01*
G02X2926500Y1359980I7183J7182D01*
G01X3138070D01*
X3294980Y1203070D01*
Y1011710D01*
X3291790Y1010430D01*
G03X3277980Y990000I8213J-20434D01*
G01Y870000D01*
G03X3287720Y851730I22022J9D01*
G01X3289960Y850220D01*
Y799780D01*
X3287720Y798270D01*
G03X3277980Y780000I12282J-18279D01*
G01Y660000D01*
G03X3300000Y637980I22025J5D01*
G01X3420000D01*
G03X3440430Y651790I-4J22023D01*
G01X3441710Y654980D01*
X3518290D01*
X3519570Y651790D01*
G03X3540000Y637980I20434J8213D01*
G01X3660000D01*
G03X3682020Y660000I-5J22025D01*
G01Y780000D01*
G03X3672280Y798270I-22022J-9D01*
G01X3670040Y799780D01*
Y850220D01*
X3672280Y851730D01*
G03X3682020Y870000I-12282J18279D01*
G01Y990000D01*
G03X3668210Y1010430I-22023J-4D01*
G01X3665020Y1011710D01*
Y1153580D01*
X3669880Y1158440D01*
X3669900Y1158460D01*
G03X3530100I-69900J71540D01*
G01X3530120Y1158440D01*
X3534980Y1153580D01*
Y1011710D01*
X3531790Y1010430D01*
G03X3517980Y990000I8213J-20434D01*
G01Y870000D01*
G03X3527720Y851730I22022J9D01*
G01X3529960Y850220D01*
Y799780D01*
X3527720Y798270D01*
G03X3519570Y788210I12280J-18280D01*
G01X3518290Y785020D01*
X3441710D01*
X3440430Y788210D01*
G03X3432280Y798270I-20430J-8220D01*
G01X3430040Y799780D01*
Y850220D01*
X3432280Y851730D01*
G03X3442020Y870000I-12282J18279D01*
G01Y990000D01*
G03X3428210Y1010430I-22023J-4D01*
G01X3425020Y1011710D01*
Y1256930D01*
X3259310Y1422650D01*
G02X3266490Y1439990I7183J7182D01*
G01X3749990D01*
Y-1689990D01*
X-480000D01*
G37*
G36*
G01X2680610Y1169890D02*
X2705350Y1194650D01*
X2670000Y1233750D01*
X2634650Y1194650D01*
X2659390Y1169890D01*
G03X2680610I10610J10610D01*
G37*
G36*
G01X3610610D02*
X3635350Y1194650D01*
X3600000Y1233750D01*
X3564650Y1194650D01*
X3589390Y1169890D01*
G03X3610610I10610J10610D01*
G37*
G36*
G01X3100610D02*
X3125350Y1194650D01*
X3090000Y1233750D01*
X3054650Y1194650D01*
X3079390Y1169890D01*
G03X3100610I10610J10610D01*
G37*
%LPC*%
G75*
G36*
G01X3301080Y-766200D02*
Y-613800D01*
G02X3313800Y-601080I12720J0D01*
G01X3466200D01*
G02X3478920Y-613800I0J-12720D01*
G01Y-766200D01*
G02X3466200Y-778920I-12720J0D01*
G01X3313800D01*
G02X3301080Y-766200I0J12720D01*
G37*
G36*
G01X-467020Y970000D02*
Y1170000D01*
G02X-445000Y1192020I22020J0D01*
G01X-195000D01*
G02X-172980Y1170000I0J-22020D01*
G01Y970000D01*
G02X-195000Y947980I-22020J0D01*
G01X-445000D01*
G02X-467020Y970000I0J22020D01*
G37*
G36*
G01X3329720Y268770D02*
G03X3343660Y281740I4556J9080D01*
G02X3431740Y193660I150340J62260D01*
G03X3418770Y179720I-3890J-9384D01*
G02Y280I-178770J-89720D01*
G03X3431740Y-13660I9080J-4556D01*
G02X3343660Y-101740I62260J-150340D01*
G03X3329720Y-88770I-9384J3890D01*
G02X3150280I-89720J178770D01*
G03X3136340Y-101740I-4556J-9080D01*
G02X3048260Y-13660I-150340J-62260D01*
G03X3061230Y280I3890J9384D01*
G02Y179720I178770J89720D01*
G03X3048260Y193660I-9080J4556D01*
G02X3136340Y281740I-62260J150340D01*
G03X3150280Y268770I9384J-3890D01*
G02X3329720I89720J-178770D01*
G37*
G36*
G01X2233420Y-1606520D02*
G02X2026310Y-1633850I-119415J106521D01*
G03X2012170Y-1636890I-5570J-8498D01*
G02X1970000Y-1660020I-42178J26892D01*
G01X1750000D01*
G02X1699980Y-1610000I5J50025D01*
G01Y-1565020D01*
X213070D01*
X83060Y-1435020D01*
X-35000D01*
G02X-85020Y-1385000I5J50025D01*
G01Y-1225000D01*
G02X-35000Y-1174980I50025J-5D01*
G01X-14060D01*
Y-1166870D01*
X-16730Y-1165430D01*
G02X-78320Y-1009790I61728J114433D01*
G03X-85380Y-996750I-9635J3215D01*
G02X-35660Y-802990I25367J96750D01*
G03X-26000Y-785950I2475J9855D01*
G01X-129940Y-682020D01*
X-180000D01*
G02X-198270Y-672280I9J22022D01*
G01X-199780Y-670040D01*
X-250220D01*
X-251730Y-672280D01*
G02X-270000Y-682020I-18279J12282D01*
G01X-390000D01*
G02X-412020Y-660000I5J22025D01*
G01Y-540000D01*
G02X-398210Y-519570I22023J-4D01*
G01X-395020Y-518290D01*
Y-501710D01*
X-398210Y-500430D01*
G02X-412020Y-480000I8213J20434D01*
G01Y-360000D01*
G02X-390000Y-337980I22025J-5D01*
G01X-270000D01*
G02X-251730Y-347720I-9J-22022D01*
G01X-250220Y-349960D01*
X-230020D01*
Y-310040D01*
X-250220D01*
X-251730Y-312280D01*
G02X-270000Y-322020I-18279J12282D01*
G01X-390000D01*
G02X-412020Y-300000I5J22025D01*
G01Y-180000D01*
G02X-398210Y-159570I22023J-4D01*
G01X-395020Y-158290D01*
Y-141710D01*
X-398210Y-140430D01*
G02X-412020Y-120000I8213J20434D01*
G01Y0D01*
G02X-390000Y22020I22025J-5D01*
G01X-270000D01*
G02X-251730Y12280I-9J-22022D01*
G01X-250220Y10040D01*
X-199780D01*
X-198270Y12280D01*
G02X-188210Y20430I18280J-12280D01*
G01X-185020Y21710D01*
Y68430D01*
X-190560D01*
X-191020Y68340D01*
G02X-195000Y67980I-3966J21661D01*
G01X-445000D01*
G02X-467020Y90000I0J22020D01*
G01Y290000D01*
G02X-445000Y312020I22020J0D01*
G01X-195000D01*
G02X-172980Y290000I0J-22020D01*
G01Y198500D01*
G03X-155630Y191320I10162J3D01*
G01X-58800Y288150D01*
G03X-62940Y305030I-7184J7186D01*
G02X78330Y429210I32941J104972D01*
G01X79070Y425020D01*
X157950D01*
G03X167120Y439540I-4J10158D01*
G02X165900Y445000I11499J5436D01*
G01Y495000D01*
G02X167260Y500750I12720J27D01*
G03X165710Y507150I-4531J2290D01*
G02X156600Y525000I12909J17838D01*
G01Y815000D01*
G02X178620Y837020I22015J5D01*
G01X258720D01*
G02X303620Y855020I44907J-47017D01*
G01X353500D01*
G03X360680Y872360I-3J10158D01*
G01X285070Y947980D01*
X105000D01*
G02X82980Y970000I0J22020D01*
G01Y1170000D01*
G02X105000Y1192020I22020J0D01*
G01X355000D01*
G02X377020Y1170000I0J-22020D01*
G01Y1039930D01*
X452410Y964540D01*
X482590D01*
X517980Y999940D01*
Y1050000D01*
G02X531790Y1070430I22023J-4D01*
G01X534980Y1071710D01*
Y1088290D01*
X531790Y1089570D01*
G02X517980Y1110000I8213J20434D01*
G01Y1230000D01*
G02X540000Y1252020I22025J-5D01*
G01X660000D01*
G02X678270Y1242280I-9J-22022D01*
G01X679780Y1240040D01*
X735050D01*
Y1239720D01*
X741670D01*
X742950Y1240580D01*
G02X750000Y1242720I7062J-10582D01*
G01X870000D01*
G02X882720Y1230000I-5J-12725D01*
G01Y1110000D01*
G02X870000Y1097280I-12725J5D01*
G01X750000D01*
G02X742950Y1099420I12J12722D01*
G01X741670Y1100280D01*
X735050D01*
Y1099960D01*
X679780D01*
X678270Y1097720D01*
G02X668210Y1089570I-18280J12280D01*
G01X665020Y1088290D01*
Y1071710D01*
X668210Y1070430D01*
G02X678270Y1062280I-8220J-20430D01*
G01X679780Y1060040D01*
X735050D01*
Y1059720D01*
X741670D01*
X742950Y1060580D01*
G02X750000Y1062720I7062J-10582D01*
G01X870000D01*
G02X882720Y1050000I-5J-12725D01*
G01Y930000D01*
G02X870000Y917280I-12725J5D01*
G01X750000D01*
G02X737820Y926340I4J12723D01*
G01X736740Y929960D01*
X682410D01*
X681620Y925840D01*
G02X660000Y907980I-21626J4162D01*
G01X609940D01*
X602640Y900690D01*
G03X606230Y892020I3591J-3591D01*
G01X660000D01*
G02X678270Y882280I-9J-22022D01*
G01X679780Y880040D01*
X730220D01*
X731730Y882280D01*
G02X750000Y892020I18279J-12282D01*
G01X870000D01*
G02X890430Y878210I-4J-22023D01*
G01X891710Y875020D01*
X908290D01*
X909570Y878210D01*
G02X921790Y890430I20435J-8215D01*
G01X924980Y891710D01*
Y1003580D01*
X920120Y1008440D01*
X920100Y1008460D01*
G02X1059900I69900J71540D01*
G01X1059880Y1008440D01*
X1055020Y1003580D01*
Y891710D01*
X1058210Y890430D01*
G02X1068270Y882280I-8220J-20430D01*
G01X1069780Y880040D01*
X1125050D01*
Y879720D01*
X1131670D01*
X1132950Y880580D01*
G02X1140000Y882720I7062J-10582D01*
G01X1260000D01*
G02X1272720Y870000I-5J-12725D01*
G01Y750000D01*
G02X1260000Y737280I-12725J5D01*
G01X1140000D01*
G02X1127820Y746340I4J12723D01*
G01X1126740Y749960D01*
X1072410D01*
X1071620Y745840D01*
G02X1050000Y727980I-21626J4162D01*
G01X930000D01*
G02X909570Y741790I4J22023D01*
G01X908290Y744980D01*
X891710D01*
X890430Y741790D01*
G02X870000Y727980I-20434J8213D01*
G01X750000D01*
G02X731730Y737720I9J22022D01*
G01X730220Y739960D01*
X679780D01*
X678270Y737720D01*
G02X660000Y727980I-18279J12282D01*
G01X648490D01*
G03X641310Y710640I5J-10159D01*
G01X759940Y592020D01*
X810000D01*
G02X828270Y582280I-9J-22022D01*
G01X829780Y580040D01*
X880220D01*
X881730Y582280D01*
G02X900000Y592020I18279J-12282D01*
G01X950060D01*
X1083070Y725020D01*
X1586930D01*
X1655020Y656930D01*
Y500100D01*
X1599900Y444980D01*
X1564520D01*
Y423500D01*
G02X1554680Y405160I-22011J0D01*
G02X1555220Y401500I-12184J-3667D01*
G01Y358500D01*
G02X1554680Y354840I-12724J7D01*
G02X1564520Y336500I-12171J-18340D01*
G01Y315020D01*
X1731030D01*
X1731830Y319130D01*
G02X1830000Y199980I98170J-19133D01*
G01X1821930D01*
X1806930Y184980D01*
X1564520D01*
Y163500D01*
G02X1561570Y152500I-22022J10D01*
G02X1564520Y141500I-19072J-11010D01*
G01Y98500D01*
G02X1561570Y87500I-22022J10D01*
G02X1564520Y76500I-19072J-11010D01*
G01Y33500D01*
G02X1561570Y22500I-22022J10D01*
G02X1564520Y11500I-19072J-11010D01*
G01Y-31500D01*
G02X1554680Y-49840I-22011J0D01*
G02X1555220Y-53500I-12184J-3667D01*
G01Y-161500D01*
G02X1554680Y-165160I-12724J7D01*
G02X1564520Y-183500I-12171J-18340D01*
G01Y-226500D01*
G02X1561570Y-237500I-22022J10D01*
G02X1564520Y-248500I-19072J-11010D01*
G01Y-291500D01*
G02X1542500Y-313520I-22020J0D01*
G01X1317500D01*
G02X1295480Y-291500I0J22020D01*
G01Y-248500D01*
G02X1298430Y-237500I22022J-10D01*
G02X1295480Y-226500I19072J11010D01*
G01Y-183500D01*
G02X1305320Y-165160I22011J0D01*
G02X1304780Y-161500I12184J3667D01*
G01Y-53500D01*
G02X1305320Y-49840I12724J-7D01*
G02X1295480Y-31500I12171J18340D01*
G01Y11500D01*
G02X1298430Y22500I22022J-10D01*
G02X1295480Y33500I19072J11010D01*
G01Y76500D01*
G02X1298430Y87500I22022J-10D01*
G02X1295480Y98500I19072J11010D01*
G01Y141500D01*
G02X1298430Y152500I22022J-10D01*
G02X1295480Y163500I19072J11010D01*
G01Y184980D01*
X1240020D01*
Y-141930D01*
X1042020Y-339940D01*
Y-390000D01*
G02X1020000Y-412020I-22025J5D01*
G01X900000D01*
G02X878380Y-394160I6J22022D01*
G01X877590Y-390040D01*
X823260D01*
X822180Y-393660D01*
G02X810000Y-402720I-12184J3663D01*
G01X690000D01*
G02X677280Y-390000I5J12725D01*
G01Y-270000D01*
G02X690000Y-257280I12725J-5D01*
G01X810000D01*
G02X817090Y-259450I-16J-12721D01*
G01X818370Y-260310D01*
X825000D01*
Y-259960D01*
X880220D01*
X881730Y-257720D01*
G02X900000Y-247980I18279J-12282D01*
G01X950060D01*
X978690Y-219360D01*
G03X971510Y-202020I-7185J7181D01*
G01X900000D01*
G02X878380Y-184160I6J22022D01*
G01X877590Y-180040D01*
X823260D01*
X822180Y-183660D01*
G02X810000Y-192720I-12184J3663D01*
G01X690000D01*
G02X677280Y-180000I5J12725D01*
G01Y-60000D01*
G02X690000Y-47280I12725J-5D01*
G01X810000D01*
G02X817090Y-49450I-16J-12721D01*
G01X818370Y-50310D01*
X825000D01*
Y-49960D01*
X880220D01*
X881730Y-47720D01*
G02X891790Y-39570I18280J-12280D01*
G01X894980Y-38290D01*
Y38290D01*
X891790Y39570D01*
G02X881730Y47720I8220J20430D01*
G01X880220Y49960D01*
X829780D01*
X828270Y47720D01*
G02X810000Y37980I-18279J12282D01*
G01X690000D01*
G02X667980Y60000I5J22025D01*
G01Y180000D01*
G02X681790Y200430I22023J-4D01*
G01X684980Y201710D01*
Y248290D01*
X681790Y249570D01*
G02X667980Y270000I8213J20434D01*
G01Y320060D01*
X459320Y528730D01*
G03X450640Y525140I-3598J-3589D01*
G01Y525000D01*
G02X441530Y507150I-22019J-12D01*
G03X439980Y500750I2981J-4110D01*
G02X441340Y495000I-11360J-5723D01*
G01Y445000D01*
G02X428620Y432280I-12715J-5D01*
G01X421940D01*
G03X418350Y423600I-1J-5082D01*
G01X471930Y370020D01*
X480000D01*
G02X549900Y198460I0J-100020D01*
G01X549880Y198440D01*
X545020Y193580D01*
Y-393070D01*
X626930Y-474980D01*
X1043850D01*
X1163850Y-354980D01*
X1563070D01*
X1614980Y-303070D01*
Y26930D01*
X1713070Y125020D01*
X1993960D01*
X2041630Y77360D01*
X2046100Y81840D01*
X2046480Y83030D01*
G02X2048430Y87500I21032J-6515D01*
G02X2045480Y98500I19072J11010D01*
G01Y141500D01*
G02X2048430Y152500I22022J-10D01*
G02X2045480Y163500I19072J11010D01*
G01Y206500D01*
G02X2048430Y217500I22022J-10D01*
G02X2045480Y228500I19072J11010D01*
G01Y271500D01*
G02X2048430Y282500I22022J-10D01*
G02X2045480Y293500I19072J11010D01*
G01Y401500D01*
G02X2048430Y412500I22022J-10D01*
G02X2045480Y423500I19072J11010D01*
G01Y466500D01*
G02X2048430Y477500I22022J-10D01*
G02X2045480Y488500I19072J11010D01*
G01Y531500D01*
G02X2048430Y542500I22022J-10D01*
G02X2045480Y553500I19072J11010D01*
G01Y596500D01*
G02X2067500Y618520I22020J0D01*
G01X2292500D01*
G02X2314520Y596500I0J-22020D01*
G01Y553500D01*
G02X2311570Y542500I-22022J10D01*
G02X2314520Y531500I-19072J-11010D01*
G01Y488500D01*
G02X2311570Y477500I-22022J10D01*
G02X2314520Y466500I-19072J-11010D01*
G01Y423500D01*
G02X2311570Y412500I-22022J10D01*
G02X2314520Y401500I-19072J-11010D01*
G01Y380020D01*
X2328070D01*
X2334980Y386930D01*
Y506930D01*
X2433070Y605020D01*
X2498290D01*
X2499570Y608210D01*
G02X2520000Y622020I20434J-8213D01*
G01X2640000D01*
G02X2662020Y600000I-5J-22025D01*
G01Y573790D01*
G03X2677510Y565140I10158J-4D01*
G02X2799900Y408460I52490J-85140D01*
G01X2799880Y408440D01*
X2795020Y403580D01*
Y365370D01*
X2715800Y286150D01*
X2772730Y229220D01*
Y-49690D01*
X2697400Y-125020D01*
X2661710D01*
X2660430Y-128210D01*
G02X2648210Y-140430I-20435J8215D01*
G01X2645020Y-141710D01*
Y-193580D01*
X2649880Y-198440D01*
X2649900Y-198460D01*
G02X2680020Y-270000I-69900J-71540D01*
G01Y-278070D01*
X3185020Y-783070D01*
Y-1183580D01*
X3189880Y-1188440D01*
X3189900Y-1188460D01*
G02X3050100I-69900J-71540D01*
G01X3050120Y-1188440D01*
X3054980Y-1183580D01*
Y-836930D01*
X2588070Y-370020D01*
X2580000D01*
G02X2544190Y-363390I0J100024D01*
G03X2530390Y-372870I-3640J-9485D01*
G01Y-591780D01*
X2686200D01*
G02X2708220Y-613800I0J-22020D01*
G01Y-766200D01*
G02X2686200Y-788220I-22020J0D01*
G01X2675020D01*
Y-963070D01*
X2871930Y-1159980D01*
X2880000D01*
G02X2779980Y-1260000I0J-100020D01*
G01Y-1251930D01*
X2544980Y-1016930D01*
Y-788220D01*
X2530390D01*
Y-1289090D01*
X2462860Y-1356620D01*
G03X2463950Y-1371940I7182J-7188D01*
G02X2508340Y-1423120I-95950J-128061D01*
G03X2525260Y-1424490I8911J4881D01*
G02Y-1575510I96740J-75510D01*
G03X2508340Y-1576880I-8009J-6251D01*
G02X2248580Y-1606520I-140343J76879D01*
G03X2233420I-7580J-6759D01*
G37*
G54D23*
X-30000Y850000D03*
%LPD*%
G75*
G36*
G01X185000Y-610000D02*
X150000D01*
X147350Y-662650D01*
X200000Y-660000D01*
Y-625000D01*
G03X185000Y-610000I-15000J0D01*
G37*
G36*
G01X110Y-889390D02*
X-24650Y-864650D01*
X-63750Y-900000D01*
X-24650Y-935350D01*
X110Y-910610D01*
G03Y-889390I-10610J10610D01*
G37*
G36*
G01X-47280Y-480000D02*
Y-360000D01*
G03X-60000Y-347280I-12725J-5D01*
G01X-180000D01*
Y-312720D01*
X-60000D01*
G03X-47280Y-300000I-5J12725D01*
G01Y-180000D01*
X0D01*
X60000Y-120000D01*
Y-75000D01*
X75000Y-60000D01*
X210000D01*
X240000Y-90000D01*
Y-375000D01*
X135000Y-480000D01*
X-47280D01*
G37*
G36*
G01X340610Y-90110D02*
X365350Y-65350D01*
X330000Y-26250D01*
X294650Y-65350D01*
X319390Y-90110D01*
G03X340610I10610J10610D01*
G37*
G36*
G01X430000Y305000D02*
Y270000D01*
X482650Y267350D01*
X480000Y320000D01*
X445000D01*
G03X430000Y305000I0J-15000D01*
G37*
G36*
G01X490610Y209890D02*
X515350Y234650D01*
X480000Y273750D01*
X444650Y234650D01*
X469390Y209890D01*
G03X490610I10610J10610D01*
G37*
G36*
G01X1081070Y-680020D02*
X1301930D01*
X1406930Y-575020D01*
X1469770D01*
G02X1477630Y-591620I-1J-10161D01*
G03X1485100Y-726540I77371J-63383D01*
G01X1485120Y-726560D01*
X1489980Y-731420D01*
Y-908580D01*
X1485120Y-913440D01*
X1485100Y-913460D01*
G03X1624900I69900J-71540D01*
G01X1624880Y-913440D01*
X1620020Y-908580D01*
Y-731420D01*
X1624880Y-726560D01*
X1624900Y-726540D01*
G03X1632370Y-591620I-69901J71537D01*
G02X1640230Y-575020I7861J6439D01*
G01X1788070D01*
X1848070Y-635020D01*
X2110630D01*
X2114980Y-639370D01*
Y-1339980D01*
G03X2026310Y-1366150I-970J-160017D01*
G02X2012170Y-1363110I-5570J8498D01*
G03X1970000Y-1339980I-42178J-26892D01*
G01X1750000D01*
G03X1699980Y-1390000I5J-50025D01*
G01Y-1434980D01*
X625760D01*
G02X620480Y-1416140I-3J10159D01*
G03X608040Y-1187200I-67478J111141D01*
G02Y-1168800I4301J9200D01*
G03X670800Y-1106040I-55040J117800D01*
G02X689200I9200J-4301D01*
G03X924800I117800J55040D01*
G02X943200I9200J-4301D01*
G03Y-995960I117800J55040D01*
G02X924800I-9200J4301D01*
G03X868810Y-936610I-117796J-55042D01*
G02X866460Y-920490I4834J8936D01*
G01X966930Y-820020D01*
X975000D01*
G03X1071290Y-692930I0J100022D01*
G02X1081070Y-680020I9779J2751D01*
G37*
G36*
G01X940000Y-770000D02*
X975000D01*
X977650Y-717350D01*
X925000Y-720000D01*
Y-755000D01*
G03X940000Y-770000I15000J0D01*
G37*
G36*
G01X1219390Y368040D02*
X1176960Y325610D01*
X1215000Y311250D01*
X1245000D01*
X1283040Y325610D01*
X1240610Y368040D01*
G03X1219390I-10610J-10610D01*
G37*
G36*
G01X1064450Y210110D02*
X1039710Y185350D01*
X1075060Y146250D01*
X1110410Y185350D01*
X1085670Y210110D01*
G03X1064450I-10610J-10610D01*
G37*
G36*
G01X1000610Y1019890D02*
X1025350Y1044650D01*
X990000Y1083750D01*
X954650Y1044650D01*
X979390Y1019890D01*
G03X1000610I10610J10610D01*
G37*
G36*
G01X1544390Y-924890D02*
X1519650Y-949650D01*
X1555000Y-988750D01*
X1590350Y-949650D01*
X1565610Y-924890D01*
G03X1544390I-10610J-10610D01*
G37*
G36*
G01X1565610Y-715110D02*
X1590350Y-690350D01*
X1555000Y-651250D01*
X1519650Y-690350D01*
X1544390Y-715110D01*
G03X1565610I10610J10610D01*
G37*
G36*
G01X1850000Y-95000D02*
Y-60000D01*
X1797350Y-57350D01*
X1800000Y-110000D01*
X1835000D01*
G03X1850000Y-95000I0J15000D01*
G37*
G36*
G01X1795000Y250000D02*
X1830000D01*
X1832650Y302650D01*
X1780000Y300000D01*
Y265000D01*
G03X1795000Y250000I15000J0D01*
G37*
G36*
G01X1980000Y805000D02*
Y840000D01*
X1927350Y842650D01*
X1930000Y790000D01*
X1965000D01*
G03X1980000Y805000I0J15000D01*
G37*
G36*
G01X1869890Y829390D02*
X1894650Y804650D01*
X1933750Y840000D01*
X1894650Y875350D01*
X1869890Y850610D01*
G03Y829390I10610J-10610D01*
G37*
G36*
G01X2830000Y-1225000D02*
Y-1260000D01*
X2882650Y-1262650D01*
X2880000Y-1210000D01*
X2845000D01*
G03X2830000Y-1225000I0J-15000D01*
G37*
G36*
G01X2126960Y-580610D02*
X2169390Y-623040D01*
X2183750Y-585000D01*
Y-555000D01*
X2169390Y-516960D01*
X2126960Y-559390D01*
G03Y-580610I10610J-10610D01*
G37*
G36*
G01X2359390Y-419890D02*
X2334650Y-444650D01*
X2370000Y-483750D01*
X2405350Y-444650D01*
X2380610Y-419890D01*
G03X2359390I-10610J-10610D01*
G37*
G36*
G01X2630000Y-305000D02*
Y-270000D01*
X2577350Y-267350D01*
X2580000Y-320000D01*
X2615000D01*
G03X2630000Y-305000I0J15000D01*
G37*
G36*
G01X2569390Y-209890D02*
X2544650Y-234650D01*
X2580000Y-273750D01*
X2615350Y-234650D01*
X2590610Y-209890D01*
G03X2569390I-10610J-10610D01*
G37*
G36*
G01X2740610Y419890D02*
X2765350Y444650D01*
X2730000Y483750D01*
X2694650Y444650D01*
X2719390Y419890D01*
G03X2740610I10610J10610D01*
G37*
G36*
G01X3109390Y-1199890D02*
X3084650Y-1224650D01*
X3120000Y-1263750D01*
X3155350Y-1224650D01*
X3130610Y-1199890D01*
G03X3109390I-10610J-10610D01*
G37*
%LPC*%
G75*
G54D24*
X807000Y-1305000D03*
X1061000D03*
%LPD*%
G75*
G36*
G01X145000Y-186000D02*
X180000D01*
X182650Y-133350D01*
X130000Y-136000D01*
Y-171000D01*
G03X145000Y-186000I15000J0D01*
G37*
G54D10*
X-330000Y-600000D03*
X-120000D03*
X-330000Y-240000D03*
X-120000D03*
X-330000Y-420000D03*
X-120000D03*
X-330000Y-60000D03*
X-120000D03*
X600000Y990000D03*
Y1170000D03*
Y810000D03*
X960000Y-120000D03*
X750000D03*
X960000Y-330000D03*
X750000D03*
Y330000D03*
X960000D03*
X750000Y510000D03*
X960000D03*
Y120000D03*
X750000D03*
X810000Y990000D03*
X1200000Y810000D03*
X990000D03*
X810000Y1170000D03*
Y810000D03*
X2580000Y150000D03*
Y-60000D03*
Y540000D03*
Y330000D03*
X2430000Y960000D03*
Y750000D03*
X2910000Y720000D03*
Y930000D03*
X2670000Y870000D03*
Y1080000D03*
X3360000Y720000D03*
Y930000D03*
X3090000Y720000D03*
Y930000D03*
X3600000Y720000D03*
Y930000D03*
G54D20*
X2610000Y-690000D03*
X3390000D03*
G54D11*
X-320000Y190000D03*
Y1070000D03*
X230000Y190000D03*
Y1070000D03*
G54D12*
X553000Y-1051000D03*
Y-1305000D03*
X299000Y-1051000D03*
Y-1305000D03*
X45000Y-1051000D03*
X1061000D03*
Y-1305000D03*
X807000Y-1051000D03*
Y-1305000D03*
X1167000Y1200000D03*
X1421000D03*
X1675000D03*
X1929000D03*
X2183000D03*
G54D21*
X2986000Y-164000D03*
Y344000D03*
X3494000Y-164000D03*
Y344000D03*
X3240000Y90000D03*
G54D22*
G01X-330000Y-420000D02*
Y-600000D01*
G01Y-60000D02*
Y-240000D01*
G01X45000Y-1305000D02*
X240000Y-1500000D01*
X1860000D01*
G01X330000Y-30000D02*
Y-480000D01*
X150000Y-660000D01*
G01X-120000Y-600000D02*
X60000Y-780000D01*
X465000D01*
X630000Y-615000D01*
X1275000D01*
X1380000Y-510000D01*
X1815000D01*
X1875000Y-570000D01*
X2180000D01*
G01X480000Y270000D02*
Y-420000D01*
X600000Y-540000D01*
X1070780D01*
X1190780Y-420000D01*
X1590000D01*
X1680000Y-330000D01*
Y0D01*
X1740000Y60000D01*
X1967030D01*
X2037030Y-10000D01*
X2180000D01*
G01X975000Y-720000D02*
X795000Y-900000D01*
X-60000D01*
G01X-120000Y-420000D02*
Y-240000D01*
G01D02*
X76000D01*
G01D02*
X180000Y-136000D01*
G01X303620Y630000D02*
X450000D01*
X750000Y330000D01*
G01X-120000Y-60000D02*
Y135000D01*
X105000Y360000D01*
X390000D01*
X480000Y270000D01*
G01X303620Y470000D02*
X148140D01*
G01X303620D02*
X456330D01*
G01X148140D02*
X90000Y528140D01*
Y900000D01*
X60000Y930000D01*
Y1260000D01*
X90000Y1290000D01*
X780470D01*
X810000Y1260470D01*
G01X456330Y470000D02*
X600000Y326330D01*
Y-270470D01*
X659530Y-330000D01*
G01X303620Y790000D02*
X580000D01*
X600000Y810000D01*
G01X303620Y710000D02*
X550000D01*
X750000Y510000D01*
G01X230000Y1070000D02*
X255000D01*
X425480Y899520D01*
X509520D01*
X600000Y990000D01*
G01X1061000Y-1402800D02*
Y-1305000D01*
G01X807000D02*
X1061000D01*
G01D02*
Y-1207200D01*
G01Y-1305000D02*
X1158800D01*
G01X807000Y-1402800D02*
Y-1305000D01*
G01D02*
Y-1207200D01*
G01X709200Y-1305000D02*
X807000D01*
G01X750000Y-120000D02*
Y-330000D01*
G01D02*
Y-420470D01*
G01X659530Y-330000D02*
X750000D01*
G01Y-420470D02*
X779530Y-450000D01*
X1016560D01*
X1060000Y-406560D01*
Y-369800D01*
X1289800Y-140000D01*
G01X960000Y-330000D02*
X1175000Y-115000D01*
Y215000D01*
X1210000Y250000D01*
X1430000D01*
G01X750000Y120000D02*
Y330000D01*
G01X960000Y510000D02*
X1110000Y660000D01*
X1560000D01*
X1590000Y630000D01*
Y527030D01*
X1572970Y510000D01*
X1430000D01*
G01X960000Y330000D02*
X1205000Y575000D01*
X1430000D01*
G01X1289800Y-140000D02*
X1430000D01*
G01X750000Y-120000D02*
Y-42200D01*
G01X672200Y-120000D02*
X750000D01*
G01X960000D02*
Y120000D01*
G01X1430000Y445000D02*
X1255000D01*
X1230000Y420000D01*
Y315000D01*
G01X1075060Y150000D02*
Y250060D01*
X1140000Y315000D01*
X1230000D01*
G01D02*
X1430000D01*
G01X960000Y120000D02*
X1045060D01*
X1075060Y150000D01*
G01X810000Y1170000D02*
Y990000D01*
G01X1200000Y810000D02*
X1740000D01*
G01X1167000Y1200000D02*
X840000D01*
X810000Y1170000D01*
G01X1167000Y1200000D02*
Y843000D01*
X1200000Y810000D01*
G01X810000Y1260470D02*
Y1170000D01*
G01Y912200D02*
Y990000D01*
G01D02*
X887800D01*
G01X1200000Y732200D02*
Y810000D01*
G01D02*
Y887800D01*
G01X810000Y810000D02*
X990000D01*
G01D02*
Y1080000D01*
G01X600000Y1170000D02*
Y990000D01*
G01X2114000Y-1500000D02*
X2180000Y-1434000D01*
Y-570000D01*
G01X1555000Y-655000D02*
Y-985000D01*
G01X2180000Y-270000D02*
X2010000D01*
X1800000Y-60000D01*
G01X1430000Y-75000D02*
Y-140000D01*
G01Y380000D02*
X1640000D01*
G01X1740000Y810000D02*
X1830000Y720000D01*
Y453780D01*
G01D02*
X1965000Y318780D01*
Y288780D01*
G01X1640000Y380000D02*
X1713780Y453780D01*
X1830000D01*
G01X1575000Y-75000D02*
X1430000D01*
G01X1620000Y90000D02*
Y-30000D01*
X1575000Y-75000D01*
G01X1650000Y120000D02*
X1620000Y90000D01*
G01X1965000Y288780D02*
X1796220Y120000D01*
X1650000D01*
G01X1830000Y300000D02*
X1780000Y250000D01*
X1430000D01*
G01X2430000Y750000D02*
X2271300D01*
X1929000Y1092300D01*
Y1200000D01*
G01X1930000Y840000D02*
X2130000Y640000D01*
X2720000D01*
G01X1740000Y810000D02*
X1770000Y840000D01*
X1930000D01*
G01X3360000Y930000D02*
Y1230000D01*
X3165000Y1425000D01*
X1535530D01*
X1421000Y1310470D01*
Y1200000D01*
G01X2910000Y930000D02*
Y1260000D01*
X2805000Y1365000D01*
X1729530D01*
X1675000Y1310470D01*
Y1200000D01*
G01X2180000Y-10000D02*
X2409990D01*
X2465370Y-65380D01*
Y-1262160D01*
X2368000Y-1359530D01*
Y-1500000D01*
G01X3209990D02*
X2622000D01*
G01Y-1627800D02*
Y-1500000D01*
G01D02*
Y-1372200D01*
G01X2610000Y-690000D02*
Y-990000D01*
X2880000Y-1260000D01*
G01X2180000Y-570000D02*
Y-270000D01*
G01Y-75000D02*
X2369990D01*
X2370000Y-75010D01*
Y-480000D01*
G01X2580000Y-270000D02*
X3120000Y-810000D01*
Y-1260000D01*
G01X2580000Y-60000D02*
Y-270000D01*
G01Y150000D02*
X2550000Y120000D01*
X2180000D01*
G01X2580000Y540000D02*
X2460000D01*
X2400000Y480000D01*
Y360000D01*
X2355000Y315000D01*
X2180000D01*
G01X2720000Y640000D02*
X2986000Y374000D01*
Y344000D01*
G01X2818200D02*
X2986000D01*
G01X2818200Y-164000D02*
X2986000D01*
G01X2580000Y-60000D02*
X2670470D01*
X2707710Y-22760D01*
Y202290D01*
X2580000Y330000D01*
G01D02*
X2667700D01*
X2730000Y392300D01*
Y480000D01*
G01X2670000Y870000D02*
X2536270D01*
X2446270Y960000D01*
X2430000D01*
G01X2670000Y1230000D02*
Y1080000D01*
G01D02*
X2665000Y1075000D01*
X2197530D01*
X2183000Y1089530D01*
Y1200000D01*
G01X3390000Y-690000D02*
Y-1319990D01*
G01D02*
X3209990Y-1500000D01*
G01X3494000Y-164000D02*
X3621630Y-291630D01*
G01Y-458370D02*
X3390000Y-690000D01*
G01X3621630Y-291630D02*
Y-458370D01*
G01X3390000Y-690000D02*
Y-596000D01*
G01X3296000Y-690000D02*
X3390000D01*
G01D02*
X3484000D01*
G01X3494000Y-331800D02*
Y-164000D01*
G01X2986000Y-331800D02*
Y-164000D01*
G01X3494000Y176200D02*
Y344000D01*
G01D02*
Y511800D01*
G01X3326200Y344000D02*
X3494000D01*
G01D02*
X3661800D01*
G01X3494000Y-164000D02*
Y3800D01*
G01X3326200Y-164000D02*
X3494000D01*
G01D02*
X3661800D01*
G01X2986000Y176200D02*
Y344000D01*
G01D02*
X3153800D01*
G01X2986000Y-164000D02*
Y3800D01*
G01Y-164000D02*
X3153800D01*
G01X3360000Y720000D02*
X3600000D01*
G01X2910000D02*
X3090000D01*
G01Y930000D02*
Y1230000D01*
G01X3600000Y930000D02*
Y1230000D01*
G54D13*
X45000Y-1305000D03*
X2437000Y1200000D03*
G54D14*
X-60000Y-900000D03*
X150000Y-660000D03*
X180000Y-136000D03*
X330000Y-30000D03*
X480000Y270000D03*
X975000Y-720000D03*
X1075060Y150000D03*
X990000Y1080000D03*
X1555000Y-985000D03*
Y-655000D03*
X1800000Y-60000D03*
X1830000Y300000D03*
X1930000Y840000D03*
X2880000Y-1260000D03*
X2580000Y-270000D03*
X2370000Y-480000D03*
X2730000Y480000D03*
X2670000Y1230000D03*
X3120000Y-1260000D03*
X3090000Y1230000D03*
X3600000D03*
G54D15*
X-30000Y410000D03*
Y850000D03*
G54D16*
X303620Y470000D03*
Y550000D03*
Y630000D03*
Y710000D03*
Y790000D03*
G54D17*
X1430000Y-270000D03*
Y-205000D03*
Y-140000D03*
Y-75000D03*
Y-10000D03*
Y55000D03*
Y120000D03*
Y185000D03*
Y250000D03*
Y315000D03*
Y380000D03*
Y445000D03*
Y510000D03*
Y575000D03*
X2180000Y-205000D03*
Y-270000D03*
Y575000D03*
Y510000D03*
Y445000D03*
Y380000D03*
Y315000D03*
Y250000D03*
Y185000D03*
Y120000D03*
Y55000D03*
Y-10000D03*
Y-75000D03*
Y-140000D03*
G54D18*
X2114000Y-1500000D03*
X2622000D03*
X2368000D03*
G54D19*
X1860000D03*
M02*
