G04 ================== begin FILE IDENTIFICATION RECORD ==================*
G04 Layout Name:  C:/DATA/GIT/CADENCE/MODULES/WIFI_SWITCH/allegro/ESP8266_SWITCH.brd*
G04 Film Name:    BOTTOM*
G04 File Format:  Gerber RS274X*
G04 File Origin:  Cadence Allegro 17.2-P019*
G04 Origin Date:  Fri Jun 02 14:37:03 2017*
G04 *
G04 Layer:  ETCH/BOTTOM*
G04 Layer:  PIN/BOTTOM*
G04 Layer:  VIA CLASS/BOTTOM*
G04 *
G04 Offset:    (0.0000 0.0000)*
G04 Mirror:    No*
G04 Mode:      Positive*
G04 Rotation:  0*
G04 FullContactRelief:  No*
G04 UndefLineWidth:     0.0000*
G04 ================== end FILE IDENTIFICATION RECORD ====================*
%FSLAX25Y25*MOMM*%
%IR0*IPPOS*OFA0.00000B0.00000*MIA0B0*SFA1.00000B1.00000*%
%ADD11C,1.*%
%ADD14C,3.*%
%ADD10C,3.5*%
%ADD15R,3.X3.*%
%ADD13C,1.5999*%
%ADD12R,1.5999X1.5999*%
%ADD16C,.3*%
%ADD17C,.5*%
%ADD18C,.7*%
%ADD19R,16.5004X5.1004*%
%ADD21C,5.0004*%
%ADD20C,3.2544*%
G75*
%LPD*%
G75*
G36*
G01X-4230Y-60530D02*
G03X-441640Y272820I-215766J170531D01*
G02X-459990Y278840I-8189J6014D01*
G01Y2266030D01*
G02X-442560Y2273130I10160J4D01*
G03X-371000Y2242980I71570J69872D01*
G01X-211000D01*
G03X-139590Y2272980I-13J100021D01*
G01X514860D01*
X769980Y2017860D01*
Y350010D01*
G03X781820Y-58360I150021J-200007D01*
G02X776200Y-76990I-5615J-8469D01*
G01X3740D01*
G02X-4230Y-60530I-1J10159D01*
G37*
G36*
G01X1058180Y-58360D02*
G03X1070020Y350010I-138181J208363D01*
G01Y2142140D01*
X639140Y2573020D01*
X-139590D01*
G03X-211000Y2603020I-71423J-70021D01*
G01X-371000D01*
G03X-442560Y2572870I10J-100022D01*
G02X-459990Y2579970I-7270J7096D01*
G01Y2826400D01*
G02X-441350Y2831990I10159J-2D01*
G03X-191500Y2780980I150346J99011D01*
G01X1376860D01*
X1619980Y2537860D01*
Y350010D01*
G03X1631820Y-58360I150021J-200007D01*
G02X1626200Y-76990I-5615J-8469D01*
G01X1063800D01*
G02X1058180Y-58360I-5J10161D01*
G37*
G36*
G01X2014070Y3614980D02*
X2054980Y3574070D01*
Y3137230D01*
G02X2041660Y3127580I-10159J5D01*
G03X2026230Y3131730I-46624J-142590D01*
G01X2024760Y3132050D01*
X1925020Y3231780D01*
Y3261780D01*
X1791780Y3395020D01*
X951780D01*
X945090Y3401710D01*
Y3437000D01*
X945910Y3438270D01*
G03X695050Y3437020I-125840J81671D01*
G01Y3298150D01*
X848220Y3144980D01*
X1674980D01*
Y3128220D01*
X1847950Y2955240D01*
X1848270Y2953770D01*
G03X1869980Y2902080I146733J31224D01*
G01Y2736710D01*
G02X1852640Y2729520I-10160J-2D01*
G01X1501140Y3081020D01*
X-191500D01*
G03X-441350Y3030010I-99504J-150021D01*
G02X-459990Y3035600I-8481J5592D01*
G01Y3478340D01*
G02X-442000Y3484810I10160J-4D01*
G03X-9070Y3823780I211999J175189D01*
G02X-900Y3839990I8164J6049D01*
G01X1721130D01*
G02X1729940Y3824770I1J-10160D01*
G03X1925390Y3614980I130060J-74771D01*
G01X2014070D01*
G37*
G36*
G01X1913800Y-76990D02*
G02X1908180Y-58360I-5J10161D01*
G03X1920020Y350010I-138181J208363D01*
G01Y908650D01*
G02X1937360Y915830I10159J-5D01*
G01X2138220Y714980D01*
X3187080D01*
G03Y965020I82920J125020D01*
G01X2241780D01*
X2120020Y1086780D01*
Y1284510D01*
G02X2137360Y1291690I10159J-6D01*
G01X2164070Y1264980D01*
X2304930D01*
G03X2339920Y1559180I119069J135020D01*
G02X2325020Y1568160I-4741J8985D01*
G01Y1739840D01*
G02X2339920Y1748820I10159J-5D01*
G03Y2067180I84080J159180D01*
G02X2325020Y2076160I-4741J8985D01*
G01Y2364080D01*
G02X2343950Y2369210I10159J4D01*
G03Y2462790I80050J46790D01*
G02X2325020Y2467920I-8771J5126D01*
G01Y3685930D01*
X2188300Y3822650D01*
G02X2195480Y3839990I7186J7181D01*
G01X6048670D01*
G02X6056550Y3823420I-3J-10160D01*
G03X6443420Y3436550I213450J-173420D01*
G02X6459990Y3428670I6410J-7883D01*
G01Y332820D01*
G02X6443070Y325240I-10158J1D01*
G03X6052220Y-60170I-183067J-205238D01*
G02X6044540Y-76990I-7675J-6659D01*
G01X5407600D01*
G02X5399520Y-60670I-2J10159D01*
G03X5420020Y0I-79527J60670D01*
G01Y46440D01*
X5830020Y456440D01*
Y2980000D01*
G03X5360800Y3100250I-250019J0D01*
G02X5344710Y3097960I-8904J4891D01*
G01X5200640Y3242020D01*
X4813680D01*
G03X4720000Y3307020I-93690J-35021D01*
G01X4560000D01*
G03X4459980Y3207000I5J-100025D01*
G01Y3047000D01*
G03X4491240Y2974380I100020J17D01*
G03X4512410Y2746000I148759J-101382D01*
G03Y2492000I127590J-127000D01*
G03X4560930Y2203270I127588J-127001D01*
G01X4563780Y2201880D01*
Y2199880D01*
X4568280D01*
X4569240Y2199470D01*
G03X4575030Y2197110I70833J165500D01*
G02X4578140Y2180070I-3667J-9473D01*
G03X4701860I61860J-69070D01*
G02X4704970Y2197110I6777J7567D01*
G03X4710760Y2199470I-65043J167860D01*
G01X4711720Y2199880D01*
X4716220D01*
Y2201880D01*
X4719070Y2203270D01*
G03X4767590Y2492000I-79068J161729D01*
G03X4814350Y2574170I-127591J126997D01*
G02X4830270Y2579770I9837J-2536D01*
G03X5119170Y2572290I149731J200229D01*
G02X5134980Y2563850I5651J-8441D01*
G01Y2027640D01*
X4992360Y1885020D01*
X4572360D01*
X4422360Y1735020D01*
X3846310D01*
G03X3634980Y1523690I-96310J-115020D01*
G01Y996310D01*
G03X3865020I115020J-96310D01*
G01Y1144980D01*
X4624170D01*
G02X4631350Y1127640I-3J-10158D01*
G01X4069980Y566260D01*
Y150000D01*
G03X4181820Y-58360I250009J0D01*
G02X4176200Y-76990I-5615J-8469D01*
G01X2763800D01*
G02X2758180Y-58360I-5J10161D01*
G03X2481820I-138180J208360D01*
G02X2476200Y-76990I-5615J-8469D01*
G01X1913800D01*
G37*
G36*
G01X2835110Y985610D02*
X2810350Y1010350D01*
X2771250Y975000D01*
X2810350Y939650D01*
X2835110Y964390D01*
G03Y985610I-10610J10610D01*
G37*
G36*
G01X4458180Y-58360D02*
G03X4570020Y150000I-138169J208360D01*
G01Y359140D01*
X5230020Y1019140D01*
Y1560000D01*
G03X5166250Y1726800I-250030J0D01*
G01X5163040Y1730380D01*
X5312640Y1879970D01*
G02X5329980Y1872790I7182J-7184D01*
G01Y663560D01*
X5066440Y400020D01*
X5020000D01*
G03X4919980Y300000I0J-100020D01*
G01Y0D01*
G03X4940480Y-60670I100027J0D01*
G02X4932400Y-76990I-8078J-6161D01*
G01X4463800D01*
G02X4458180Y-58360I-5J10161D01*
G37*
G36*
G01X3865020Y1504980D02*
X4517640D01*
X4667640Y1654980D01*
X4734030D01*
G02X4743640Y1641510I5J-10160D01*
G03X4729980Y1560000I236357J-81510D01*
G01Y1409690D01*
G03X4643690Y1375020I10031J-149685D01*
G01X3865020D01*
Y1504980D01*
G37*
%LPC*%
G75*
G54D19*
X3555000Y3465000D03*
G54D21*
X6180000Y1560000D03*
Y2780000D03*
G54D20*
X3470000Y150000D03*
%LPD*%
G75*
G36*
G01X3839890Y1819390D02*
X3864650Y1794650D01*
X3903750Y1830000D01*
X3864650Y1865350D01*
X3839890Y1840610D01*
G03Y1819390I10610J-10610D01*
G37*
G54D10*
X-220000Y110000D03*
X-230000Y3660000D03*
X6260000Y120000D03*
X6270000Y3650000D03*
G54D11*
G01X920000Y150000D02*
Y2080000D01*
X577000Y2423000D01*
X-291000D01*
G01X1770000Y150000D02*
Y2600000D01*
X1439000Y2931000D01*
X-291000D01*
X-360000Y1020000D03*
Y810000D03*
Y630000D03*
X-300000Y480000D03*
X-90000D03*
X-360000Y1770000D03*
Y1590000D03*
Y1410000D03*
X-150000Y1740000D03*
X-360000Y1200000D03*
X-60000Y2190000D03*
X-360000Y2130000D03*
Y1950000D03*
X-120000Y2700000D03*
X-300000Y3270000D03*
X-60000Y3180000D03*
X210000Y240000D03*
X180000Y60000D03*
X360000Y0D03*
X540000D03*
Y180000D03*
X630000Y330000D03*
X60000Y390000D03*
X270000Y1830000D03*
X60000D03*
X600000Y1350000D03*
X300000D03*
Y2190000D03*
X120000D03*
X300000Y2010000D03*
X780000Y2700000D03*
X300000D03*
X90000Y2670000D03*
X1260000Y30000D03*
X1440000D03*
X1260000Y240000D03*
X1470000Y270000D03*
X1530000Y450000D03*
X1170000Y390000D03*
X1320000Y510000D03*
X1530000Y1710000D03*
X1500000Y1500000D03*
Y1320000D03*
X1290000Y1260000D03*
X1170000Y1410000D03*
Y1620000D03*
Y1830000D03*
X1440000Y2580000D03*
X1530000Y2430000D03*
Y2250000D03*
Y2070000D03*
Y1890000D03*
X1170000Y2040000D03*
X1140000Y2250000D03*
X990000Y2370000D03*
X870000Y2520000D03*
X960000Y2700000D03*
X1140000D03*
X1320000D03*
X820070Y3519940D03*
X1560000Y3540000D03*
X2280000Y180000D03*
X2070000Y330000D03*
X2100000Y150000D03*
X2190000Y0D03*
X2010000Y510000D03*
X2190000D03*
X2250000Y1110000D03*
X1995000Y2985000D03*
X1860000Y3750000D03*
X2340000Y360000D03*
X2910000D03*
X2970000Y210000D03*
Y60000D03*
X2775000Y975000D03*
X2370000Y510000D03*
X2970000Y630000D03*
X2880000Y510000D03*
X2425000Y3295000D03*
X2670000Y3390000D03*
X2370000Y3720000D03*
X3150000Y0D03*
X3210000Y180000D03*
X3300000Y360000D03*
X3750000Y30000D03*
Y900000D03*
X3270000Y840000D03*
X3180000Y630000D03*
X3420000D03*
X3630000Y660000D03*
X3720000Y390000D03*
X3750000Y1620000D03*
X3450000Y2580000D03*
Y2400000D03*
Y2220000D03*
X3630000Y2190000D03*
X3780000Y2580000D03*
Y2400000D03*
X3450000Y3150000D03*
X3630000D03*
X3810000D03*
X3450000Y2970000D03*
Y2790000D03*
X3780000D03*
Y2970000D03*
X3960000Y210000D03*
Y30000D03*
X3870000Y690000D03*
X3990000Y570000D03*
Y390000D03*
X3900000Y1830000D03*
Y2280000D03*
X4050000Y2250000D03*
Y2040000D03*
X4650000Y0D03*
X4710000Y180000D03*
X4680000Y390000D03*
X4860000Y450000D03*
X4740000Y1260000D03*
X5040000Y2160000D03*
X4980000Y3240000D03*
X5940000Y1860000D03*
Y2430000D03*
Y2250000D03*
Y2040000D03*
X6240000Y510000D03*
X6390000Y2520000D03*
X6360000Y2340000D03*
Y2160000D03*
Y1980000D03*
G54D12*
X-291000Y2423000D03*
X4640000Y3127000D03*
G54D13*
X-291000Y2931000D03*
X2424000Y1400000D03*
Y2416000D03*
Y1908000D03*
X4640000Y2111000D03*
Y2365000D03*
Y2619000D03*
Y2873000D03*
G54D14*
G01X4980000Y1560000D02*
Y1122700D01*
X4320000Y462700D01*
Y150000D01*
G01X5580000Y2980000D02*
Y560000D01*
X5170000Y150000D01*
X920000D03*
X1770000D03*
X2620000D03*
X3470000D03*
X4320000D03*
X4980000Y1560000D03*
Y2780000D03*
X6180000Y1560000D03*
X5580000Y2980000D03*
X6180000Y2780000D03*
G54D15*
X5170000Y150000D03*
G54D16*
G01X3480000Y930000D02*
X3435000Y975000D01*
X2775000D01*
G01X3480000Y1380000D02*
X3030000D01*
X2820000Y1590000D01*
Y2340000D01*
X2744000Y2416000D01*
G01X2424000D02*
Y3084000D01*
G01X2744000Y2416000D02*
X2424000D01*
G01Y2318200D02*
Y2416000D01*
G01X2425000Y3295000D02*
Y3665000D01*
X2370000Y3720000D01*
G01X2424000Y3084000D02*
X2520000Y3180000D01*
X4410000D01*
X4440000Y3210000D01*
Y3270000D01*
X4470000Y3300000D01*
X4920000D01*
G01X3470000Y150000D02*
Y327700D01*
G01Y-17800D02*
Y150000D01*
G01X3302200D02*
X3470000D01*
G01D02*
X3637800D01*
G01X3750000Y1230000D02*
Y900000D01*
G01X3480000Y1380000D02*
Y930000D01*
G01X3470000Y327700D02*
X3480000Y337700D01*
Y930000D01*
G01X4640000Y3127000D02*
X5153000D01*
X5250000Y3030000D01*
Y1980000D01*
X5040000Y1770000D01*
X4620000D01*
X4470000Y1620000D01*
X3750000D01*
G01D02*
Y1230000D01*
G01X4740000Y1260000D02*
X3780000D01*
X3750000Y1230000D01*
G01X3900000Y1830000D02*
X3690000D01*
X3480000Y1620000D01*
Y1380000D01*
G01X3900000Y1830000D02*
X3960000Y1890000D01*
X4920000D01*
X5040000Y2010000D01*
Y2160000D01*
G01X4640000Y2111000D02*
X3971000D01*
G01D02*
X3900000Y2040000D01*
Y1830000D01*
G01X4640000Y2013200D02*
Y2111000D01*
G01D02*
X4737800D01*
G01X4980000Y3240000D02*
X6390000D01*
G01X4920000Y3300000D02*
X4980000Y3240000D01*
G01X6390000D02*
X6420000Y3210000D01*
Y540000D01*
X6390000Y510000D01*
X6240000D01*
G54D17*
G01X1995000Y2985000D02*
X1800000Y3180000D01*
Y3210000D01*
X1740000Y3270000D01*
X900000D01*
X820070Y3349930D01*
Y3519940D01*
G01X3270000Y840000D02*
X2190000D01*
X1995000Y1035000D01*
Y2985000D01*
G54D18*
G01X2424000Y1400000D02*
X2220000D01*
X2190000Y1430000D01*
Y3630000D01*
X2070000Y3750000D01*
X1860000D01*
M02*
