G04 ================== begin FILE IDENTIFICATION RECORD ==================*
G04 Layout Name:  C:/DATA/GIT/CADENCE/MODULES/WIFI_SWITCH/allegro/ESP8266_SWITCH.brd*
G04 Film Name:    TOP*
G04 File Format:  Gerber RS274X*
G04 File Origin:  Cadence Allegro 17.2-P019*
G04 Origin Date:  Fri Jun 02 14:37:03 2017*
G04 *
G04 Layer:  ETCH/TOP*
G04 Layer:  PIN/TOP*
G04 Layer:  VIA CLASS/TOP*
G04 *
G04 Offset:    (0.0000 0.0000)*
G04 Mirror:    No*
G04 Mode:      Positive*
G04 Rotation:  0*
G04 FullContactRelief:  No*
G04 UndefLineWidth:     0.0000*
G04 ================== end FILE IDENTIFICATION RECORD ====================*
%FSLAX25Y25*MOMM*%
%IR0*IPPOS*OFA0.00000B0.00000*MIA0B0*SFA1.00000B1.00000*%
%ADD18R,1.02X.74*%
%ADD11R,.74X1.02*%
%ADD15R,2.1501X.95*%
%AMMACRO19*
4,1,44,-.5999,.95,
-.5999,-.95,
-.595401,-1.002095,
-.581875,-1.052609,
-.559783,-1.100007,
-.529795,-1.142848,
-.492825,-1.179831,
-.449993,-1.209833,
-.402603,-1.231941,
-.352094,-1.245484,
-.3,-1.25005,
-.2999,-1.25,
.2999,-1.25,
.351995,-1.245501,
.402509,-1.231975,
.449907,-1.209883,
.492748,-1.179895,
.529731,-1.142925,
.559733,-1.100093,
.581841,-1.052703,
.595384,-1.002194,
.59995,-.9501,
.5999,-.95,
.5999,.95,
.595401,1.002095,
.581875,1.052609,
.559783,1.100007,
.529795,1.142848,
.492825,1.179831,
.449993,1.209833,
.402603,1.231941,
.352094,1.245484,
.3,1.25005,
.2999,1.25,
-.2999,1.25,
-.351995,1.245501,
-.402509,1.231975,
-.449907,1.209883,
-.492748,1.179895,
-.529731,1.142925,
-.559733,1.100093,
-.581841,1.052703,
-.595384,1.002194,
-.59995,.9501,
-.5999,.95,
0.0*
%
%ADD19MACRO19*%
%AMMACRO20*
4,1,44,.95,.5999,
-.95,.5999,
-1.002095,.595401,
-1.052609,.581875,
-1.100007,.559783,
-1.142848,.529795,
-1.179831,.492825,
-1.209833,.449993,
-1.231941,.402603,
-1.245484,.352094,
-1.25005,.3,
-1.25,.2999,
-1.25,-.2999,
-1.245501,-.351995,
-1.231975,-.402509,
-1.209883,-.449907,
-1.179895,-.492748,
-1.142925,-.529731,
-1.100093,-.559733,
-1.052703,-.581841,
-1.002194,-.595384,
-.9501,-.59995,
-.95,-.5999,
.95,-.5999,
1.002095,-.595401,
1.052609,-.581875,
1.100007,-.559783,
1.142848,-.529795,
1.179831,-.492825,
1.209833,-.449993,
1.231941,-.402603,
1.245484,-.352094,
1.25005,-.3,
1.25,-.2999,
1.25,.2999,
1.245501,.351995,
1.231975,.402509,
1.209883,.449907,
1.179895,.492748,
1.142925,.529731,
1.100093,.559733,
1.052703,.581841,
1.002194,.595384,
.9501,.59995,
.95,.5999,
0.0*
%
%ADD20MACRO20*%
%ADD12C,1.*%
%ADD17C,3.*%
%ADD10C,3.5*%
%ADD21R,3.X3.*%
%ADD23R,1.524X1.524*%
%ADD16R,2.1501X3.2499*%
%ADD24R,2.1001X1.5999*%
%ADD14C,1.5999*%
%ADD22R,.8999X.8001*%
%ADD13R,1.5999X1.5999*%
%ADD25C,.3*%
%ADD26C,.5*%
%ADD28C,5.0004*%
%ADD27C,3.2544*%
G75*
%LPD*%
G75*
G36*
G01X-212020Y1101000D02*
Y1090640D01*
X-231330Y1071330D01*
G03X-265020Y990000I81323J-81330D01*
G01Y930000D01*
G03X-231330Y848670I115013J0D01*
G01X-201330Y818670D01*
G03X-180330Y802070I81343J81320D01*
G03X-92000Y748980I88330J46936D01*
G01X109980D01*
Y687360D01*
X222360Y574980D01*
X2442360D01*
X2504980Y512360D01*
Y371990D01*
G03X2481820Y-58360I115022J-221988D01*
G02X2476200Y-76990I-5615J-8469D01*
G01X1913800D01*
G02X1908180Y-58360I-5J10161D01*
G03X1631820I-138180J208360D01*
G02X1626200Y-76990I-5615J-8469D01*
G01X1063800D01*
G02X1058180Y-58360I-5J10161D01*
G03X781820I-138180J208360D01*
G02X776200Y-76990I-5615J-8469D01*
G01X3740D01*
G02X-4230Y-60530I-1J10159D01*
G03X-441640Y272820I-215766J170531D01*
G02X-459990Y278840I-8189J6014D01*
G01Y2266030D01*
G02X-442560Y2273130I10160J4D01*
G03X-371000Y2242980I71570J69872D01*
G01X-211000D01*
G03X-110980Y2343000I-5J100025D01*
G01Y2503000D01*
G03X-211000Y2603020I-100025J-5D01*
G01X-371000D01*
G03X-442560Y2572870I10J-100022D01*
G02X-459990Y2579970I-7270J7096D01*
G01Y2826400D01*
G02X-441350Y2831990I10159J-2D01*
G03Y3030010I150350J99010D01*
G02X-459990Y3035600I-8481J5592D01*
G01Y3478340D01*
G02X-442000Y3484810I10160J-4D01*
G03X3680Y3514990I211998J175191D01*
G02X22480Y3509630I8638J-5354D01*
G01Y3357500D01*
G03X122500Y3257480I100020J0D01*
G01X337500D01*
G03X398610Y3278320I-1J100022D01*
G02X414980Y3270280I6210J-8040D01*
G01Y1821780D01*
X338220Y1745020D01*
X8220D01*
X-200020Y1536780D01*
Y1148500D01*
G03X-212020Y1101000I88010J-47500D01*
G37*
G36*
G01X2625000Y717660D02*
X2537640Y805020D01*
X366860D01*
G02X357190Y818300I0J10160D01*
G03X360580Y832060I-95179J30746D01*
G01X361300Y836280D01*
X412000D01*
G03X424720Y849000I0J12720D01*
G01Y904480D01*
G03X468850Y934980I-32721J94518D01*
G01X1617640D01*
X1825020Y1142360D01*
Y1492360D01*
X1867640Y1534980D01*
X2280510D01*
G02X2288180Y1518150I5J-10160D01*
G03X2307200Y1263020I135821J-118148D01*
G01X2308980Y1261500D01*
Y1244660D01*
X2317470Y1236170D01*
X2317790Y1234740D01*
G03X2348670Y1178670I112211J25260D01*
G01X2422360Y1104980D01*
X2511150D01*
G03X2588000Y1068980I76850J64027D01*
G01X2662000D01*
G03X2760580Y1152060I0J100026D01*
G01X2761300Y1156280D01*
X2812000D01*
G03X2824720Y1169000I0J12720D01*
G01Y1271000D01*
G03X2823730Y1275910I-12718J-10D01*
G02X2833110Y1289990I9375J3919D01*
G01X2845020D01*
G03X2877310Y1294070I-25J130014D01*
G02X2889990Y1284230I2519J-9843D01*
G01Y1204980D01*
G03X2934980Y1106640I130014J19D01*
G01Y1027640D01*
X2625000Y717660D01*
G37*
G36*
G01X468850Y1165020D02*
G03X392000Y1201020I-76850J-64027D01*
G01X168000D01*
G03X150000Y1199390I-16J-100021D01*
G03X132000Y1201020I-17984J-98391D01*
G01X50020D01*
Y1433220D01*
X111780Y1494980D01*
X441780D01*
X665020Y1718220D01*
Y3368800D01*
G02X678630Y3378350I10159J-5D01*
G03X710080Y3372450I33930J94090D01*
G02X715030Y3367370I-130J-5078D01*
G01Y3350670D01*
X710700Y3350020D01*
G03X699840Y3337440I1856J-12580D01*
G01Y3242440D01*
G03X712560Y3229720I12720J0D01*
G01X927580D01*
G03X940300Y3242440I0J12720D01*
G01Y3289090D01*
G02X954930Y3298210I10157J0D01*
G03X982060Y3289420I44079J89786D01*
G01X986280Y3288700D01*
Y3238000D01*
G03X999000Y3225280I12720J0D01*
G01X1101000D01*
G03X1113720Y3238000I0J12720D01*
G01Y3251110D01*
G02X1126520Y3260920I10161J-2D01*
G03X1152500Y3257480I26006J96581D01*
G01X1367500D01*
G03X1467520Y3357500I0J100020D01*
G01Y3624920D01*
X1643060D01*
G02X1652240Y3610400I4J-10159D01*
G03X1642540Y3567440I90323J-42969D01*
G01Y3472440D01*
G03X1740080Y3372450I100021J0D01*
G02X1745030Y3367370I-130J-5078D01*
G01Y3350670D01*
X1740700Y3350020D01*
G03X1729840Y3337440I1856J-12580D01*
G01Y3242440D01*
G03X1742560Y3229720I12720J0D01*
G01X1957580D01*
G03X1970300Y3242440I0J12720D01*
G01Y3321740D01*
G02X1986780Y3329690I10158J-2D01*
G03X2032060Y3309420I62231J78304D01*
G01X2036280Y3308700D01*
Y3258000D01*
G03X2049000Y3245280I12720J0D01*
G01X2068090D01*
G02X2075270Y3227940I-4J-10158D01*
G01X1981780Y3134450D01*
X1979980Y3134270D01*
G03X2144270Y2969980I15020J-149270D01*
G01X2144450Y2971780D01*
X2242640Y3069980D01*
X2509100D01*
G02X2519230Y3059100I-3J-10159D01*
G03X2518980Y3052000I99771J-7067D01*
G01Y2978000D01*
G03X2533460Y2926170I100019J5D01*
G03X2524980Y2880010I121534J-46186D01*
G01Y2819990D01*
G03X2545440Y2750000I130014J21D01*
G03X2524980Y2680010I109554J-70011D01*
G01Y2619990D01*
G03X2545440Y2550000I130014J21D01*
G03X2524980Y2480010I109554J-70011D01*
G01Y2464330D01*
G02X2505850Y2459560I-10160J1D01*
G03X2511000Y2383930I-81849J-43564D01*
G02X2530270Y2383280I9527J-3522D01*
G03X2545440Y2350000I124713J36750D01*
G03X2524980Y2280010I109554J-70011D01*
G01Y2219990D01*
G03X2545440Y2150000I130014J21D01*
G03X2524980Y2080010I109554J-70011D01*
G01Y2075090D01*
G02X2509970Y2066170I-10158J5D01*
G03X2295160Y1782280I-85966J-158167D01*
G02X2287890Y1765020I-7271J-7099D01*
G01X1772360D01*
X1594980Y1587640D01*
Y1237640D01*
X1522360Y1165020D01*
X468850D01*
G37*
G36*
G01X2250250Y3394920D02*
X2581720D01*
X2712640Y3525830D01*
G02X2729980Y3518650I7181J-7185D01*
G01Y3327030D01*
G02X2724710Y3321950I-5080J-3D01*
G03X2721000Y3322020I-3741J-99949D01*
G01X2619000D01*
G03X2556420Y3300020I4J-100018D01*
G01X2201700D01*
G02X2197030Y3319200I3J10159D01*
G03X2249520Y3390720I-46027J88802D01*
G01X2250250Y3394920D01*
G37*
G36*
G01X2163750Y3659170D02*
G03X2170580Y3682060I-91746J39839D01*
G01X2171300Y3686280D01*
X2222000D01*
G03X2234720Y3699000I0J12720D01*
G01Y3801000D01*
G03X2222000Y3813720I-12720J0D01*
G01X2171300D01*
X2170580Y3817940D01*
G03X2168540Y3827170I-98577J-16947D01*
G02X2178340Y3839990I9803J2662D01*
G01X2488660D01*
G02X2495840Y3822650I-5J-10159D01*
G01X2484980Y3811780D01*
Y3651780D01*
X2478160Y3644960D01*
X2173060D01*
G02X2163750Y3659170I6J10159D01*
G37*
G36*
G01X4487720Y1480000D02*
G03X4486110Y1491600I-42714J-17D01*
G02X4489270Y1497760I4890J1382D01*
G03X4514400Y1510060I-44260J122248D01*
G02X4529980Y1501470I5420J-8594D01*
G01Y873000D01*
X4534980Y868000D01*
Y672360D01*
X4672360Y534980D01*
X5724980D01*
Y438380D01*
G03X5663780Y346200I38821J-92180D01*
G01Y193800D01*
G03X5763800Y93780I100020J0D01*
G01X5916200D01*
G03X5970000Y109480I0J100030D01*
G02X5985600Y101590I5462J-8567D01*
G03X6052220Y-60170I274401J18412D01*
G02X6044540Y-76990I-7675J-6659D01*
G01X5407600D01*
G02X5399520Y-60670I-2J10159D01*
G03X5420020Y0I-79527J60670D01*
G01Y300000D01*
G03X5320000Y400020I-100020J0D01*
G01X5020000D01*
G03X4919980Y300000I0J-100020D01*
G01Y0D01*
G03X4940480Y-60670I100027J0D01*
G02X4932400Y-76990I-8078J-6161D01*
G01X4463800D01*
G02X4458180Y-58360I-5J10161D01*
G03X4181820I-138180J208360D01*
G02X4176200Y-76990I-5615J-8469D01*
G01X2763800D01*
G02X2758180Y-58360I-5J10161D01*
G03X2735020Y371990I-138182J208362D01*
G01Y502360D01*
X3104550Y871890D01*
G02X3121780Y863140I7190J-7181D01*
G03X3366310Y724980I148223J-23138D01*
G01X3737640D01*
X3763220Y750550D01*
X3765020Y750730D01*
G03X3846310Y784980I-15030J149266D01*
G01X4247640D01*
X4360020Y897360D01*
Y1116420D01*
G03X4380580Y1162060I-78013J62595D01*
G01X4381300Y1166280D01*
X4432000D01*
G03X4444720Y1179000I0J12720D01*
G01Y1281000D01*
G03X4432000Y1293720I-12720J0D01*
G01X4381300D01*
X4380580Y1297940D01*
G03X4344370Y1359190I-98575J-16947D01*
G02X4350710Y1377290I6339J7940D01*
G01X4445010D01*
G03X4487720Y1420000I-5J42715D01*
G01Y1480000D01*
G37*
G36*
G01X4193270Y1458820D02*
G03X4080010Y1525020I-113276J-63815D01*
G01X4019990D01*
G03X3950000Y1504560I21J-130014D01*
G03X3880010Y1525020I-70011J-109554D01*
G01X3871310D01*
Y1531720D01*
X3872250Y1533040D01*
G03X3655070Y1736170I-122244J86967D01*
G01X3653670Y1735020D01*
X3634980D01*
Y1864980D01*
X3385020D01*
Y1842360D01*
X3312360Y1769700D01*
G02X3295020Y1776890I-7180J7188D01*
G01Y1902360D01*
X3385020Y1992360D01*
Y3137640D01*
X3330030Y3192640D01*
G02X3337210Y3209980I7184J7182D01*
G01X4294980D01*
Y3175020D01*
X3942360D01*
X3844980Y3077640D01*
Y2442360D01*
X3952360Y2334980D01*
X4122180D01*
G02X4131810Y2321570I3J-10161D01*
G03X4124980Y2280010I123184J-41585D01*
G01Y2219990D01*
G03X4145440Y2150000I130014J21D01*
G03X4124980Y2080010I109554J-70011D01*
G01Y2019990D01*
G03X4145440Y1950000I130014J21D01*
G03X4124980Y1880010I109554J-70011D01*
G01Y1819990D01*
G03X4145440Y1750000I130014J21D01*
G03X4124980Y1680010I109554J-70011D01*
G01Y1619990D01*
G03X4210730Y1497760I130014J17D01*
G02X4213890Y1491600I-1730J-4778D01*
G03X4212280Y1480000I41104J-11617D01*
G01Y1463810D01*
G02X4193270Y1458820I-10160J1D01*
G37*
G36*
G01X6034700Y277720D02*
G02X6016220Y283550I-8320J5831D01*
G01Y346200D01*
G03X5955020Y438380I-100021J0D01*
G01Y534980D01*
X6100000D01*
G03X6181330Y568670I0J115013D01*
G01X6240640Y627980D01*
X6321000D01*
G03X6421020Y728000I0J100020D01*
G01Y802000D01*
G03X6337940Y900580I-100026J0D01*
G01X6333720Y901300D01*
Y952000D01*
G03X6321000Y964720I-12720J0D01*
G01X6281020D01*
Y972000D01*
G03X6181000Y1072020I-100020J0D01*
G01X6079000D01*
G03X6017760Y1051080I0J-100020D01*
G01X6016390Y1050020D01*
X5987360D01*
X5946260Y1008930D01*
G02X5928920Y1016110I-7182J7184D01*
G01Y1126200D01*
G03X5916200Y1138920I-12720J0D01*
G01X5763800D01*
G03X5751080Y1126200I0J-12720D01*
G01Y973800D01*
G03X5763800Y961080I12720J0D01*
G01X5873890D01*
G02X5881070Y943740I-4J-10158D01*
G01X5802360Y865020D01*
X4907640D01*
X4855020Y917640D01*
Y1163690D01*
G03X4880610Y1312290I-115021J96311D01*
G02X4893640Y1325370I9523J3544D01*
G03X4996020Y1809510I86358J234633D01*
G02X4989490Y1826830I655J10138D01*
G01X5005020Y1842360D01*
Y2387640D01*
X4912640Y2480020D01*
X4778480D01*
G03X4767590Y2492000I-138519J-114977D01*
G03X4814350Y2574170I-127591J126997D01*
G02X4830270Y2579770I9837J-2536D01*
G03X5222230Y2841910I149727J200229D01*
G01X5221520Y2844710D01*
X5290020Y2913220D01*
Y3182550D01*
G02X5302430Y3192460I10160J3D01*
G03X5324540Y3189980I22135J97542D01*
G01X5413380D01*
G02X5419880Y3172020I-5J-10158D01*
G03X5727510Y3181870I160121J-192020D01*
G02X5731230Y3191000I2994J4103D01*
G03X5745440Y3189980I14248J99003D01*
G01X5955460D01*
G03X6031990Y3225610I-8J100022D01*
G02X6046940Y3226250I7769J-6544D01*
G01X6054980Y3218220D01*
Y2996520D01*
G03X6305020I125020J-216520D01*
G01Y3321780D01*
X6269100Y3357710D01*
G02X6276060Y3375050I7185J7183D01*
G03X6443420Y3436550I-6057J274952D01*
G02X6459990Y3428670I6410J-7883D01*
G01Y332820D01*
G02X6443070Y325240I-10158J1D01*
G03X6034700Y277720I-183067J-205239D01*
G37*
G36*
G01X4810020Y2963350D02*
G02X4794390Y2965570I-6915J7445D01*
G03X4788760Y2974380I-154441J-92491D01*
G03X4820020Y3047000I-68760J72637D01*
G01Y3207000D01*
G03X4720000Y3307020I-100025J-5D01*
G01X4710460D01*
Y3313260D01*
X4710970Y3314310D01*
G03X4719580Y3341060I-89961J43716D01*
G01X4720300Y3345280D01*
X4761000D01*
G03X4773720Y3358000I0J12720D01*
G01Y3428700D01*
X4777940Y3429420D01*
G03X4822240Y3448920I-16949J98575D01*
G01X4823610Y3449980D01*
X4832970D01*
Y3444190D01*
X4832780Y3443500D01*
G03X4832280Y3440000I12220J-3531D01*
G01Y3360000D01*
G03X4845000Y3347280I12720J0D01*
G01X4935000D01*
G03X4947720Y3360000I0J12720D01*
G01Y3440000D01*
G03X4946910Y3444450I-12721J-17D01*
G02X4950870Y3451240I4760J1774D01*
G03X4952590Y3451530I-15769J98773D01*
G01X4953030Y3451610D01*
X4958560D01*
Y3369000D01*
X5039980D01*
Y3035370D01*
G02X5027870Y3025390I-10161J-7D01*
G03X4810020Y2963350I-47875J-245392D01*
G37*
%LPC*%
G75*
G54D28*
X6180000Y1560000D03*
G54D27*
X3470000Y150000D03*
%LPD*%
G75*
G36*
G01X2779390Y1050110D02*
X2739650Y1010350D01*
X2774150Y971350D01*
X2814310Y1003320D01*
X2804570Y1043070D01*
G03X2779390Y1050110I-14572J-3568D01*
G37*
G36*
G01X6431390Y2139760D02*
X6405990Y2169380D01*
X6356650Y2161680D01*
X6365000Y2115010D01*
X6420000Y2115000D01*
G03X6431390Y2139760I0J15000D01*
G37*
G54D10*
X-220000Y110000D03*
X-230000Y3660000D03*
X6260000Y120000D03*
X6270000Y3650000D03*
G54D20*
X2750000Y1850000D03*
Y1650000D03*
Y1450000D03*
Y2450000D03*
Y2250000D03*
Y2050000D03*
Y2850000D03*
Y2650000D03*
X4350000Y1450000D03*
Y1650000D03*
Y1850000D03*
Y2050000D03*
Y2250000D03*
Y2450000D03*
Y2650000D03*
Y2850000D03*
G54D11*
X-55000Y900000D03*
X-75000Y1050000D03*
X115000Y900000D03*
X95000Y1050000D03*
X375000Y900000D03*
X225000D03*
X205000Y1050000D03*
X355000D03*
X2185000Y3750000D03*
X2035000D03*
X2775000Y1220000D03*
X2625000D03*
X4565000Y1860000D03*
X4245000Y1230000D03*
X4395000D03*
X4735000Y1860000D03*
X5685000Y3630000D03*
X5855000D03*
X5585000D03*
X5435000D03*
G54D21*
X5170000Y150000D03*
G54D12*
X-360000Y1020000D03*
Y810000D03*
Y630000D03*
X-300000Y480000D03*
X-90000D03*
X-360000Y1770000D03*
Y1590000D03*
Y1410000D03*
X-150000Y1740000D03*
X-360000Y1200000D03*
X-60000Y2190000D03*
X-360000Y2130000D03*
Y1950000D03*
X-120000Y2700000D03*
X-300000Y3270000D03*
X-60000Y3180000D03*
X210000Y240000D03*
X180000Y60000D03*
X360000Y0D03*
X540000D03*
Y180000D03*
X630000Y330000D03*
X60000Y390000D03*
X270000Y1830000D03*
X60000D03*
X600000Y1350000D03*
X300000D03*
Y2190000D03*
X120000D03*
X300000Y2010000D03*
X780000Y2700000D03*
X300000D03*
X90000Y2670000D03*
X1260000Y30000D03*
X1440000D03*
X1260000Y240000D03*
X1470000Y270000D03*
X1530000Y450000D03*
X1170000Y390000D03*
X1320000Y510000D03*
X1530000Y1710000D03*
X1500000Y1500000D03*
Y1320000D03*
X1290000Y1260000D03*
X1170000Y1410000D03*
Y1620000D03*
Y1830000D03*
X1440000Y2580000D03*
X1530000Y2430000D03*
Y2250000D03*
Y2070000D03*
Y1890000D03*
X1170000Y2040000D03*
X1140000Y2250000D03*
X990000Y2370000D03*
X870000Y2520000D03*
X960000Y2700000D03*
X1140000D03*
X1320000D03*
X820070Y3519940D03*
X1560000Y3540000D03*
X2280000Y180000D03*
X2070000Y330000D03*
X2100000Y150000D03*
X2190000Y0D03*
X2010000Y510000D03*
X2190000D03*
X2250000Y1110000D03*
X1995000Y2985000D03*
X1860000Y3750000D03*
X2340000Y360000D03*
X2910000D03*
X2970000Y210000D03*
Y60000D03*
X2775000Y975000D03*
X2370000Y510000D03*
X2970000Y630000D03*
X2880000Y510000D03*
X2425000Y3295000D03*
X2670000Y3390000D03*
X2370000Y3720000D03*
X3150000Y0D03*
X3210000Y180000D03*
X3300000Y360000D03*
X3750000Y30000D03*
Y900000D03*
X3270000Y840000D03*
X3180000Y630000D03*
X3420000D03*
X3630000Y660000D03*
X3720000Y390000D03*
X3750000Y1620000D03*
X3450000Y2580000D03*
Y2400000D03*
Y2220000D03*
X3630000Y2190000D03*
X3780000Y2580000D03*
Y2400000D03*
X3450000Y3150000D03*
X3630000D03*
X3810000D03*
X3450000Y2970000D03*
Y2790000D03*
X3780000D03*
Y2970000D03*
X3960000Y210000D03*
Y30000D03*
X3870000Y690000D03*
X3990000Y570000D03*
Y390000D03*
X3900000Y1830000D03*
Y2280000D03*
X4050000Y2250000D03*
Y2040000D03*
X4650000Y0D03*
X4710000Y180000D03*
X4680000Y390000D03*
X4860000Y450000D03*
X4740000Y1260000D03*
X5040000Y2160000D03*
X4980000Y3240000D03*
X5940000Y1860000D03*
Y2430000D03*
Y2250000D03*
Y2040000D03*
X6240000Y510000D03*
X6390000Y2520000D03*
X6360000Y2340000D03*
Y2160000D03*
Y1980000D03*
G54D13*
X-291000Y2423000D03*
X4640000Y3127000D03*
G54D22*
X5165000Y3495000D03*
X4890000Y3400000D03*
Y3590000D03*
G54D14*
X-291000Y2931000D03*
X2424000Y1400000D03*
Y2416000D03*
Y1908000D03*
X4640000Y2111000D03*
Y2365000D03*
Y2619000D03*
Y2873000D03*
G54D23*
X5840000Y270000D03*
Y1050000D03*
G54D24*
X5429550Y3370000D03*
X5850450D03*
G54D15*
X820070Y3289940D03*
Y3749940D03*
Y3519940D03*
X1850070Y3289940D03*
Y3749940D03*
Y3519940D03*
G54D25*
G01X-55000Y900000D02*
X-120000D01*
X-150000Y930000D01*
Y990000D01*
X-90000Y1050000D01*
X-75000D01*
G01X375000Y900000D02*
X2700000D01*
G01X95000Y1050000D02*
X205000D01*
G01X2750000Y1650000D02*
X1820000D01*
X1710000Y1540000D01*
Y1190000D01*
X1570000Y1050000D01*
X355000D01*
G01X115000Y900000D02*
X225000D01*
G01D02*
Y735000D01*
X270000Y690000D01*
X2490000D01*
X2620000Y560000D01*
Y550000D01*
G01X694760Y3289940D02*
X820070D01*
G01X1050000Y3275000D02*
X971300D01*
G01X1050000D02*
X1699920D01*
G01X971300D02*
X956360Y3289940D01*
G01D02*
X820070D01*
G01Y3224640D02*
Y3289940D01*
G01Y3519940D02*
X1010060D01*
X1050000Y3480000D01*
Y3425000D01*
G01X1995000Y2985000D02*
X2195000Y3185000D01*
X2670000D01*
G01X2100000Y3295000D02*
X2425000D01*
G01X2100000D02*
X2021300D01*
G01X1699920Y3275000D02*
X1714860Y3289940D01*
G01X2021300Y3295000D02*
X2016240Y3289940D01*
G01X1714860D02*
X1850070D01*
G01X2016240D02*
X1850070D01*
G01X2185000Y3750000D02*
X2340000D01*
G01X2185000Y3681200D02*
Y3750000D01*
G01D02*
Y3818800D01*
G01X1850070Y3749940D02*
X2034940D01*
X2035000Y3750000D01*
G01X2100000Y3445000D02*
X2086000D01*
X2011060Y3519940D01*
G01X2620000Y150000D02*
Y550000D01*
G01X2775000Y975000D02*
Y1141300D01*
G01D02*
X2790000Y1126300D01*
Y990000D01*
X2775000Y975000D01*
G01X2700000Y900000D02*
X2775000Y975000D01*
G01X3050000Y1300000D02*
Y980000D01*
X2620000Y550000D01*
G01X2750000Y1450000D02*
X2902710D01*
X3180000Y1727290D01*
G01X2775000Y1220000D02*
Y1141300D01*
G01X2424000Y1400000D02*
Y1292300D01*
X2430000Y1286300D01*
Y1260000D01*
X2470000Y1220000D01*
X2625000D01*
G01X2424000Y2318200D02*
Y2416000D01*
G01D02*
Y2513800D01*
G01X2750000Y2450000D02*
X3050000D01*
X3120000Y2520000D01*
Y2940000D01*
X3045000Y3015000D01*
X2670000D01*
G01Y3185000D02*
X3175000D01*
X3270000Y3090000D01*
Y2040000D01*
X3180000Y1950000D01*
Y1727290D01*
G01X2340000Y3750000D02*
X2370000Y3720000D01*
G01X3470000Y530000D02*
Y150000D01*
G01Y-17800D02*
Y150000D01*
G01X3302200D02*
X3470000D01*
G01D02*
X3637800D01*
G01X3270000Y840000D02*
X3690000D01*
X3750000Y900000D01*
G01X4245000Y1230000D02*
Y945000D01*
X4200000Y900000D01*
X3750000D01*
G01X4395000Y765000D02*
X4260000Y630000D01*
X3854360D01*
X3849360Y625000D01*
X3590640D01*
X3585640Y630000D01*
X3570000D01*
X3470000Y530000D01*
G01X3180000Y1727290D02*
Y1680000D01*
X3240000Y1620000D01*
X3750000D01*
G01X4395000Y1230000D02*
Y765000D01*
G01X4350000Y1450000D02*
X4197290D01*
X3960000Y1687290D01*
G01X4395000Y1230000D02*
X4500000D01*
G01X3960000Y1687290D02*
Y1770000D01*
X3900000Y1830000D01*
G01X4500000Y1230000D02*
X4530000Y1260000D01*
Y1422710D01*
X4502710Y1450000D01*
G01D02*
X4350000D01*
G01X5840000Y650000D02*
X4720000D01*
X4650000Y720000D01*
Y915640D01*
X4645000Y920640D01*
Y1565000D01*
X4560000Y1650000D01*
X4350000D01*
G01Y2450000D02*
X4000000D01*
X3960000Y2490000D01*
Y3030000D01*
X3990000Y3060000D01*
X4365000D01*
X4410000Y3105000D01*
Y3330000D01*
X4475000Y3395000D01*
X4570000D01*
G01X4350000Y2050000D02*
X4502710D01*
X4596710Y1956000D01*
X4620640D01*
X4626640Y1950000D01*
X4705000D01*
X4735000Y1920000D01*
Y1860000D01*
G01X4350000Y2850000D02*
X4502710D01*
X4525710Y2873000D01*
X4640000D01*
G01X4350000Y2650000D02*
X4609000D01*
X4640000Y2619000D01*
G01X4740000Y1260000D02*
Y870000D01*
X4860000Y750000D01*
X5850000D01*
X6035000Y935000D01*
X6130000D01*
G01X4565000Y1860000D02*
Y1781300D01*
X4636300Y1710000D01*
X4650000D01*
X4740000Y1620000D01*
Y1260000D01*
G01X6360000Y2160000D02*
X5040000D01*
G01X4640000Y2365000D02*
X4865000D01*
X4890000Y2340000D01*
Y1890000D01*
X4860000Y1860000D01*
X4735000D01*
G01X4890000Y3400000D02*
Y3330000D01*
G01D02*
X4980000Y3240000D01*
G01X4710000Y3395000D02*
X4788700D01*
G01D02*
X4793700Y3400000D01*
G01D02*
X4890000D01*
G01X4570000Y3565000D02*
X4710000D01*
G01X4890000Y3590000D02*
X4813700D01*
X4788700Y3565000D01*
X4710000D01*
G01X5840000Y270000D02*
Y650000D01*
G01Y1050000D02*
Y1100000D01*
X5910000Y1170000D01*
G01X5840000Y956000D02*
Y1050000D01*
G01X5746000D02*
X5840000D01*
G01D02*
X5934000D01*
G01X5840000Y650000D02*
X6100000D01*
X6130000Y680000D01*
Y765000D01*
G01X5910000Y1170000D02*
X6240000D01*
X6270000Y1140000D01*
G01X6240000Y510000D02*
X6366000Y636000D01*
G01X6360000Y2160000D02*
X6390000D01*
X6420000Y2130000D01*
Y1050000D01*
X6349700Y979700D01*
G01X6366000Y636000D02*
X6390000Y660000D01*
Y873700D01*
X6348700Y915000D01*
G01X6349700Y979700D02*
X6226000D01*
Y885000D01*
X6326220D01*
X6335000Y876220D01*
Y851640D01*
X6366000Y820640D01*
Y636000D01*
G01X6348700Y915000D02*
X6270000D01*
G01Y1140000D02*
Y915000D01*
G01X6130000Y765000D02*
X6270000D01*
G54D16*
X230000Y3520000D03*
X1260000D03*
G54D26*
G01X820070Y3519940D02*
X810130Y3510000D01*
X590000D01*
X540000Y3460000D01*
Y1770000D01*
X390000Y1620000D01*
X60000D01*
X-75000Y1485000D01*
Y1050000D01*
G01X820070Y3749940D02*
X1850070D01*
G01X1964000Y2416000D02*
X2424000D01*
G01X1850070Y3204740D02*
X1800000Y3154670D01*
Y2580000D01*
X1964000Y2416000D01*
G01X1850070Y3289940D02*
Y3204740D01*
G01Y3519940D02*
X2011060D01*
G01X5855000Y3630000D02*
X5850000Y3635000D01*
Y3720000D01*
X5760000Y3810000D01*
X2660000D01*
X2610000Y3760000D01*
Y3600000D01*
X2529940Y3519940D01*
X2011060D01*
G01X4980000Y2780000D02*
X5165000Y2965000D01*
Y3495000D01*
G01D02*
X5279540D01*
X5404540Y3370000D01*
X5429550D01*
G01X6180000Y2780000D02*
Y3270000D01*
X6080000Y3370000D01*
X5850450D01*
G01D02*
Y3487700D01*
X5855000Y3492250D01*
Y3630000D01*
G01X5585000D02*
X5685000D01*
G01X5435000D02*
Y3493150D01*
X5429550Y3487700D01*
Y3370000D01*
G54D17*
X920000Y150000D03*
X1770000D03*
X2620000D03*
X3470000D03*
X4320000D03*
X4980000Y1560000D03*
Y2780000D03*
X6180000Y1560000D03*
X5580000Y2980000D03*
X6180000Y2780000D03*
G54D18*
X1050000Y3275000D03*
Y3425000D03*
X2100000Y3295000D03*
Y3445000D03*
X2670000Y3015000D03*
Y3185000D03*
X4570000Y3395000D03*
Y3565000D03*
X4710000Y3395000D03*
Y3565000D03*
X6130000Y935000D03*
Y765000D03*
X6270000Y915000D03*
Y765000D03*
G54D19*
X3050000Y1300000D03*
X3850000D03*
X3650000D03*
X3450000D03*
X3250000D03*
X4050000D03*
M02*
