G04 ================== begin FILE IDENTIFICATION RECORD ==================*
G04 Layout Name:  ZWAVE_SWITCH.brd*
G04 Film Name:    BOTTOM*
G04 File Format:  Gerber RS274X*
G04 File Origin:  Cadence Allegro 17.2-P019*
G04 Origin Date:  Sun May 21 20:44:41 2017*
G04 *
G04 Layer:  ETCH/BOTTOM*
G04 Layer:  PIN/BOTTOM*
G04 Layer:  VIA CLASS/BOTTOM*
G04 *
G04 Offset:    (0.0000 0.0000)*
G04 Mirror:    No*
G04 Mode:      Positive*
G04 Rotation:  0*
G04 FullContactRelief:  No*
G04 UndefLineWidth:     0.0000*
G04 ================== end FILE IDENTIFICATION RECORD ====================*
%FSLAX25Y25*MOMM*%
%IR0*IPPOS*OFA0.00000B0.00000*MIA0B0*SFA1.00000B1.00000*%
%ADD14C,1.*%
%ADD12C,3.*%
%ADD11C,3.2*%
%ADD10C,3.5*%
%ADD13C,1.5999*%
%ADD15R,1.5999X1.5999*%
%ADD16C,.3*%
%ADD17C,.5*%
G75*
%LPD*%
G75*
G54D10*
X-5190000Y-2160000D03*
Y2070000D03*
X1440000Y-2160000D03*
Y2070000D03*
G54D11*
X-4555000Y-1080000D03*
Y-80000D03*
X785000Y-1290000D03*
Y-290000D03*
G54D12*
G01X880000Y1830000D02*
X480000D01*
X270000Y1620000D01*
Y-480000D01*
X60000Y-690000D01*
X-1080000D01*
X-1470000Y-1080000D01*
Y-1770000D01*
X-1770000Y-2070000D01*
X-3810000D01*
X-4022140Y-1857860D01*
Y-422140D01*
X-4364280Y-80000D01*
X-4555000D01*
X-4636000Y1484000D03*
Y976000D03*
X-5144000D03*
Y1484000D03*
X-4890000Y1230000D03*
X-340000Y630000D03*
X-540000Y1230000D03*
X-340000Y1830000D03*
X880000Y630000D03*
Y1830000D03*
G54D13*
X-3274000Y-1546000D03*
Y-1038000D03*
Y-530000D03*
X-1710000Y2040000D03*
Y1786000D03*
X-1964000Y2040000D03*
X-1456000D03*
Y1786000D03*
X-559000Y-2061000D03*
G54D14*
X-3450000Y210000D03*
X-3660000Y750000D03*
X-2310000Y-180000D03*
X-2910000Y30000D03*
X-2370000Y300000D03*
Y480000D03*
X-2790000Y770000D03*
X-2490000Y1860000D03*
X-1650000Y630000D03*
X-1880070Y280060D03*
X-2160000Y510000D03*
X-870000Y630000D03*
X-1080000Y1760000D03*
G54D15*
X-1964000Y1786000D03*
X-559000Y-1553000D03*
G54D16*
G01X-2790000Y770000D02*
X-2844950Y824950D01*
X-3585050D01*
X-3660000Y750000D01*
G01X-2310000Y-180000D02*
X-2510000D01*
X-2640000Y-50000D01*
Y390000D01*
X-2550000Y480000D01*
X-2370000D01*
G01X-2910000Y30000D02*
Y350000D01*
X-2575050Y684950D01*
X-1704950D01*
X-1650000Y630000D01*
G01X-870000D02*
X-1060000Y820000D01*
X-2662300D01*
X-2712300Y770000D01*
X-2790000D01*
G01X-2160000Y510000D02*
X-1910070D01*
X-1880070Y480000D01*
Y280060D01*
G01X-1456000Y2040000D02*
X-1290000D01*
X-1260000Y2010000D01*
Y1800000D01*
X-1220000Y1760000D01*
X-1080000D01*
G54D17*
G01X-3450000Y210000D02*
X-3760000D01*
X-3900000Y350000D01*
Y960000D01*
X-3840000Y1020000D01*
X-2030000D01*
X-1980000Y1070000D01*
Y1652300D01*
X-1964000Y1668300D01*
Y1786000D01*
G01X-2490000Y1860000D02*
X-2416000Y1786000D01*
X-1964000D01*
M02*
