G04 ================== begin FILE IDENTIFICATION RECORD ==================*
G04 Layout Name:  ZWAVE_SWITCH.brd*
G04 Film Name:    SM_BOT*
G04 File Format:  Gerber RS274X*
G04 File Origin:  Cadence Allegro 17.2-P019*
G04 Origin Date:  Sun May 21 20:44:41 2017*
G04 *
G04 Layer:  VIA CLASS/SOLDERMASK_BOTTOM*
G04 Layer:  PIN/SOLDERMASK_BOTTOM*
G04 Layer:  PACKAGE GEOMETRY/SOLDERMASK_BOTTOM*
G04 Layer:  BOARD GEOMETRY/SOLDERMASK_BOTTOM*
G04 Layer:  BOARD GEOMETRY/OUTLINE*
G04 Layer:  BOARD GEOMETRY/DESIGN_OUTLINE*
G04 *
G04 Offset:    (0.0000 0.0000)*
G04 Mirror:    No*
G04 Mode:      Positive*
G04 Rotation:  0*
G04 FullContactRelief:  No*
G04 UndefLineWidth:     0.0000*
G04 ================== end FILE IDENTIFICATION RECORD ====================*
%FSLAX25Y25*MOMM*%
%IR0*IPPOS*OFA0.00000B0.00000*MIA0B0*SFA1.00000B1.00000*%
%ADD13C,1.5*%
%ADD10C,3.7*%
%ADD14R,1.8001X1.8001*%
%ADD11C,3.5999*%
%ADD12C,1.8999*%
%ADD15C,.1*%
G75*
%LPD*%
G75*
G36*
G01X-4150000Y-480000D02*
Y-1900000D01*
X-3850000Y-2200000D01*
X-1740000D01*
X-1340000Y-1800000D01*
Y-1120000D01*
X-1040000Y-820000D01*
X90000D01*
X390000Y-520000D01*
Y1580000D01*
X510000Y1700000D01*
X930000D01*
X1000000Y1770000D01*
Y1890000D01*
X930000Y1960000D01*
X440000D01*
X150000Y1670000D01*
Y-430000D01*
X20000Y-560000D01*
X-1110000D01*
X-1570000Y-1020000D01*
Y-1710000D01*
X-1820000Y-1960000D01*
X-3740000D01*
X-3900000Y-1800000D01*
Y-380000D01*
X-4320000Y40000D01*
X-4620000D01*
X-4690000Y-30000D01*
Y-120000D01*
X-4600000Y-210000D01*
X-4420000D01*
X-4150000Y-480000D01*
G37*
G54D10*
X-4555000Y-1080000D03*
Y-80000D03*
X785000Y-1290000D03*
Y-290000D03*
G54D11*
X-4636000Y1484000D03*
Y976000D03*
X-5144000D03*
Y1484000D03*
X-4890000Y1230000D03*
X-340000Y630000D03*
X-540000Y1230000D03*
X-340000Y1830000D03*
X880000Y630000D03*
Y1830000D03*
G54D12*
X-3274000Y-1546000D03*
Y-1038000D03*
Y-530000D03*
X-1710000Y2040000D03*
Y1786000D03*
X-1964000Y2040000D03*
X-1456000D03*
Y1786000D03*
X-559000Y-2061000D03*
G54D13*
X-3450000Y210000D03*
X-3660000Y750000D03*
X-2310000Y-180000D03*
X-2910000Y30000D03*
X-2370000Y300000D03*
Y480000D03*
X-2790000Y770000D03*
X-2490000Y1860000D03*
X-1650000Y630000D03*
X-1880070Y280060D03*
X-2160000Y510000D03*
X-870000Y630000D03*
X-1080000Y1760000D03*
G54D14*
X-1964000Y1786000D03*
X-559000Y-1553000D03*
G54D15*
G01X-5430000Y-2410000D02*
X1700000D01*
Y2310000D01*
X-5430000D01*
Y-2410000D01*
M02*
