G04 ================== begin FILE IDENTIFICATION RECORD ==================*
G04 Layout Name:  ZWAVE_SWITCH.brd*
G04 Film Name:    SP_TOP*
G04 File Format:  Gerber RS274X*
G04 File Origin:  Cadence Allegro 17.2-P019*
G04 Origin Date:  Sun May 21 20:44:41 2017*
G04 *
G04 Layer:  VIA CLASS/PASTEMASK_TOP*
G04 Layer:  PIN/PASTEMASK_TOP*
G04 Layer:  PACKAGE GEOMETRY/PASTEMASK_TOP*
G04 *
G04 Offset:    (0.0000 0.0000)*
G04 Mirror:    No*
G04 Mode:      Positive*
G04 Rotation:  0*
G04 FullContactRelief:  No*
G04 UndefLineWidth:     0.0000*
G04 ================== end FILE IDENTIFICATION RECORD ====================*
%FSLAX25Y25*MOMM*%
%IR0*IPPOS*OFA0.00000B0.00000*MIA0B0*SFA1.00000B1.00000*%
%ADD15R,2.1501X.95*%
%ADD18R,1.6X2.1*%
%ADD14R,1.4X2.1501*%
%ADD11R,2.1501X1.4*%
%ADD13R,1.1001X1.95*%
%ADD10R,1.95X1.1001*%
%ADD17R,2.1501X3.2499*%
%ADD16R,1.4732X1.4732*%
%ADD19R,.8999X.8001*%
%ADD12R,1.1999X1.1999*%
G75*
%LPD*%
G75*
G36*
G01X-4660000Y-1050000D02*
Y-1850000D01*
X-4340000Y-2170000D01*
X530000D01*
X880000Y-1820000D01*
Y-1220000D01*
X840000Y-1180000D01*
X720000D01*
X670000Y-1230000D01*
Y-1730000D01*
X430000Y-1970000D01*
X-4250000D01*
X-4460000Y-1760000D01*
Y-1010000D01*
X-4500000Y-970000D01*
X-4580000D01*
X-4660000Y-1050000D01*
G37*
G36*
G01X-670000Y-1600000D02*
Y-930000D01*
X-410000Y-670000D01*
X240000D01*
X610000Y-300000D01*
Y-260000D01*
X230000Y120000D01*
Y1070000D01*
X170000Y1130000D01*
X-610000D01*
X-650000Y1170000D01*
Y1290000D01*
X-600000Y1340000D01*
X260000D01*
X430000Y1170000D01*
Y210000D01*
X890000Y-250000D01*
Y-350000D01*
X350000Y-890000D01*
X-310000D01*
X-430000Y-1010000D01*
Y-1590000D01*
X-490000Y-1650000D01*
X-620000D01*
X-670000Y-1600000D01*
G37*
G54D10*
X-3900000Y1235000D03*
X-2550000Y1385000D03*
Y1235000D03*
Y1085000D03*
Y1685000D03*
Y1535000D03*
G54D11*
X-3910000Y1410000D03*
G54D12*
X-4350000Y1230000D03*
X-4140000D03*
X-4290000Y1470000D03*
Y1680000D03*
X-3540000Y-960000D03*
Y-1170000D03*
X-3120000Y-180000D03*
X-3540000Y-720000D03*
Y-510000D03*
X-3600000Y-180000D03*
X-3390000D03*
X-3120000Y30000D03*
X-3390000Y0D03*
X-3600000D03*
X-2640000Y-180000D03*
X-2910000D03*
X-2640000Y30000D03*
X-2910000D03*
X-2760000Y300000D03*
X-2550000D03*
X-2760000Y480000D03*
X-2550000D03*
X-2370000Y300000D03*
Y480000D03*
X-2310000Y-180000D03*
Y30000D03*
X-2160000Y300000D03*
Y480000D03*
X-2280000Y2130000D03*
Y1920000D03*
X-1050000Y270000D03*
Y60000D03*
G54D13*
X-3115000Y760000D03*
X-3265000D03*
X-3415000D03*
Y2010000D03*
X-3265000D03*
X-3115000D03*
X-2965000Y760000D03*
Y2010000D03*
G54D14*
X-3640000Y760000D03*
Y2010000D03*
X-2815000Y760000D03*
Y2010000D03*
G54D15*
X-1880070Y-179940D03*
Y50060D03*
Y280060D03*
X-800070Y-179940D03*
Y50060D03*
Y280060D03*
G54D16*
X-1650000Y630000D03*
X-870000D03*
G54D17*
X-1290000Y50000D03*
X-210000D03*
G54D18*
X-960000Y1470450D03*
Y1049550D03*
G54D19*
X-805000Y1855000D03*
X-1080000Y1760000D03*
Y1950000D03*
M02*
