G04 ================== begin FILE IDENTIFICATION RECORD ==================*
G04 Layout Name:  PIC1823-RCSERVO-USB2SERIAL.brd*
G04 Film Name:    TOP*
G04 File Format:  Gerber RS274X*
G04 File Origin:  Cadence Allegro 16.6-2015-S051*
G04 Origin Date:  Fri Apr 15 00:59:32 2016*
G04 *
G04 Layer:  ETCH/TOP*
G04 Layer:  PIN/TOP*
G04 Layer:  VIA CLASS/TOP*
G04 *
G04 Offset:    (0.000 0.000)*
G04 Mirror:    No*
G04 Mode:      Positive*
G04 Rotation:  0*
G04 FullContactRelief:  No*
G04 UndefLineWidth:     0.000*
G04 ================== end FILE IDENTIFICATION RECORD ====================*
%FSLAX25Y25*MOIN*%
%IR0*IPPOS*OFA0.00000B0.00000*MIA0B0*SFA1.00000B1.00000*%
%ADD16R,.098429X.07874*%
%ADD15R,.016929X.088579*%
%ADD17R,.098429X.019689*%
%ADD13R,.06X.06*%
%ADD18C,.04724*%
%ADD12R,.04724X.04724*%
%ADD10C,.062988*%
%ADD14R,.023618X.059059*%
%ADD11R,.062988X.062988*%
%ADD19C,.015*%
G75*
%LPD*%
G75*
G36*
G01X1528202Y559343D02*
G03X1534613Y556482I2798J-2343D01*
G02X1535292Y556708I396J-57D01*
G01X1542000Y550000D01*
X1586000D01*
Y549000D01*
X1434000D01*
X1430000Y553000D01*
Y596000D01*
X1431000Y597000D01*
X1443895D01*
G02X1444202Y596343I0J-400D01*
G03X1443647Y592558I2798J-2343D01*
G02X1443280Y592000I-367J-158D01*
G01X1440000D01*
X1439000Y591000D01*
Y559000D01*
X1441000Y557000D01*
X1493000D01*
X1493688Y557688D01*
G02X1494369Y557365I283J-283D01*
G03X1500798Y559343I3631J-365D01*
G02X1501105Y560000I307J257D01*
G01X1511895D01*
G02X1512202Y559343I0J-400D01*
G03X1517798I2798J-2343D01*
G02X1518105Y560000I307J257D01*
G01X1527895D01*
G02X1528202Y559343I0J-400D01*
G37*
G36*
G01X1450924Y574530D02*
X1449227Y576227D01*
X1446812Y574000D01*
X1449227Y571773D01*
X1450924Y573470D01*
G03Y574530I-530J530D01*
G37*
G36*
G01Y604530D02*
X1449227Y606227D01*
X1446812Y604000D01*
X1449227Y601773D01*
X1450924Y603470D01*
G03Y604530I-530J530D01*
G37*
G36*
G01X1443076Y603470D02*
X1444773Y601773D01*
X1447188Y604000D01*
X1444773Y606227D01*
X1443076Y604530D01*
G03Y603470I530J-530D01*
G37*
G36*
G01X1450650Y611000D02*
Y617650D01*
X1444000D01*
Y621000D01*
X1441000Y624000D01*
Y646500D01*
X1448146D01*
Y651888D01*
G02X1448829Y652171I400J0D01*
G01X1457000Y644000D01*
Y642000D01*
X1460000Y639000D01*
X1504000D01*
X1506000Y637000D01*
Y630197D01*
X1504000D01*
Y631000D01*
X1503000Y632000D01*
X1475000D01*
X1473000Y630000D01*
Y627130D01*
X1468138D01*
Y622000D01*
X1462000D01*
X1451000Y611000D01*
X1450650D01*
G37*
G36*
G01X1446546Y620145D02*
X1443851Y617149D01*
X1447000Y613812D01*
X1450149Y617149D01*
X1447454Y620145D01*
G03X1446546I-455J-597D01*
G37*
G36*
G01X1440855Y669546D02*
X1443851Y666851D01*
X1447188Y670000D01*
X1443851Y673149D01*
X1440855Y670454D01*
G03Y669546I597J-455D01*
G37*
G36*
G01X1457530Y666076D02*
X1459227Y667773D01*
X1457000Y670188D01*
X1454773Y667773D01*
X1456470Y666076D01*
G03X1457530I530J530D01*
G37*
G36*
G01X1501924Y557530D02*
X1500227Y559227D01*
X1497812Y557000D01*
X1500227Y554773D01*
X1501924Y556470D01*
G03Y557530I-530J530D01*
G37*
G36*
G01Y567530D02*
X1500227Y569227D01*
X1497812Y567000D01*
X1500227Y564773D01*
X1501924Y566470D01*
G03Y567530I-530J530D01*
G37*
G36*
G01X1495257Y622656D02*
X1496181Y623791D01*
X1495000Y626932D01*
X1493819Y623791D01*
X1494743Y622656D01*
G03X1495257I257J705D01*
G37*
G36*
G01X1490257D02*
X1491181Y623791D01*
X1490000Y626932D01*
X1488819Y623791D01*
X1489743Y622656D01*
G03X1490257I257J705D01*
G37*
G36*
G01X1500257Y603168D02*
X1501181Y604303D01*
X1500000Y607444D01*
X1498819Y604303D01*
X1499743Y603168D01*
G03X1500257I257J705D01*
G37*
G36*
G01X1495257D02*
X1496181Y604303D01*
X1495000Y607444D01*
X1493819Y604303D01*
X1494743Y603168D01*
G03X1495257I257J705D01*
G37*
G36*
G01X1490257D02*
X1491181Y604303D01*
X1490000Y607444D01*
X1488819Y604303D01*
X1489743Y603168D01*
G03X1490257I257J705D01*
G37*
G36*
G01X1568000Y635520D02*
Y664000D01*
X1563000Y669000D01*
X1531005D01*
G02X1530609Y669459I0J400D01*
G03X1524657Y672798I-3609J541D01*
G02X1524000Y673105I-257J307D01*
G01Y675000D01*
X1519000Y680000D01*
X1490000D01*
X1483000Y673000D01*
X1481000D01*
X1478000Y676000D01*
Y681000D01*
X1480000Y683000D01*
X1564000D01*
X1574000Y673000D01*
Y661000D01*
X1573000Y660000D01*
Y654000D01*
X1572000Y653000D01*
Y637000D01*
X1571000Y636000D01*
Y635520D01*
X1568000D01*
G37*
G36*
G01X1500149Y667601D02*
Y670000D01*
X1496867Y670133D01*
X1497000Y666851D01*
X1499399D01*
G03X1500149Y667601I0J750D01*
G37*
G36*
G01X1518924Y557530D02*
X1517227Y559227D01*
X1514812Y557000D01*
X1517227Y554773D01*
X1518924Y556470D01*
G03Y557530I-530J530D01*
G37*
G36*
G01X1511076Y556470D02*
X1512773Y554773D01*
X1515188Y557000D01*
X1512773Y559227D01*
X1511076Y557530D01*
G03Y556470I530J-530D01*
G37*
G36*
G01X1527076D02*
X1528773Y554773D01*
X1531188Y557000D01*
X1528773Y559227D01*
X1527076Y557530D01*
G03Y556470I530J-530D01*
G37*
G36*
G01X1518924Y567530D02*
X1517227Y569227D01*
X1514812Y567000D01*
X1517227Y564773D01*
X1518924Y566470D01*
G03Y567530I-530J530D01*
G37*
G36*
G01X1511076Y566470D02*
X1512773Y564773D01*
X1515188Y567000D01*
X1512773Y569227D01*
X1511076Y567530D01*
G03Y566470I530J-530D01*
G37*
G36*
G01X1527076D02*
X1528773Y564773D01*
X1531188Y567000D01*
X1528773Y569227D01*
X1527076Y567530D01*
G03Y566470I530J-530D01*
G37*
G36*
G01X1517798Y564657D02*
G03X1518353Y568442I-2798J2343D01*
G02X1518720Y569000I367J158D01*
G01X1527280D01*
G02X1527647Y568442I0J-400D01*
G03X1528202Y564657I3353J-1442D01*
G02X1527895Y564000I-307J-257D01*
G01X1518105D01*
G02X1517798Y564657I0J400D01*
G37*
G36*
G01X1500798D02*
G03Y569343I-2798J2343D01*
G02X1501105Y570000I307J257D01*
G01X1511895D01*
G02X1512202Y569343I0J-400D01*
G03Y564657I2798J-2343D01*
G02X1511895Y564000I-307J-257D01*
G01X1501105D01*
G02X1500798Y564657I0J400D01*
G37*
G36*
G01X1573798D02*
G03X1567756Y568671I-2798J2343D01*
G02X1567000Y568854I-356J183D01*
G01Y572000D01*
X1565000Y574000D01*
X1551000D01*
X1549000Y572000D01*
Y570862D01*
X1544138D01*
Y566828D01*
G02X1543455Y566545I-400J0D01*
G01X1542000Y568000D01*
Y591000D01*
X1533000Y600000D01*
X1522000D01*
X1519000Y603000D01*
Y603803D01*
X1521681D01*
Y610709D01*
X1519000D01*
Y611000D01*
X1520000Y612000D01*
X1533000D01*
X1556000Y589000D01*
X1605000D01*
X1624000Y570000D01*
X1628000D01*
X1628138Y569862D01*
Y564138D01*
X1628000Y564000D01*
X1620105D01*
G02X1619798Y564657I0J400D01*
G03X1613647Y565558I-2798J2343D01*
G02X1613280Y565000I-367J-158D01*
G01X1601000D01*
X1600000Y564000D01*
X1574105D01*
G02X1573798Y564657I0J400D01*
G37*
G36*
G01X1519000Y664000D02*
X1517292Y665708D01*
G02X1517518Y666387I283J283D01*
G03X1519769Y667622I-518J3613D01*
G02X1520355Y667645I303J-261D01*
G01X1523000Y665000D01*
X1538000D01*
X1539000Y666000D01*
X1539870D01*
Y661138D01*
X1544172D01*
G02X1544455Y660455I0J-400D01*
G01X1536000Y652000D01*
Y645000D01*
X1538000Y643000D01*
X1543000D01*
X1547000Y639000D01*
Y627000D01*
X1556000Y618000D01*
X1569000D01*
X1571000Y616000D01*
Y609929D01*
X1570000D01*
Y611000D01*
X1569000Y612000D01*
X1558000D01*
X1546000Y624000D01*
X1521681D01*
Y630197D01*
X1519000D01*
Y664000D01*
G37*
G36*
G01X1519743Y630832D02*
X1518819Y629697D01*
X1520000Y626556D01*
X1521181Y629697D01*
X1520257Y630832D01*
G03X1519743I-257J-705D01*
G37*
G36*
G01X1510257Y603168D02*
X1511181Y604303D01*
X1510000Y607444D01*
X1508819Y604303D01*
X1509743Y603168D01*
G03X1510257I257J705D01*
G37*
G36*
G01X1504743Y630832D02*
X1503819Y629697D01*
X1505000Y626556D01*
X1506181Y629697D01*
X1505257Y630832D01*
G03X1504743I-257J-705D01*
G37*
G36*
G01X1514743Y611344D02*
X1513819Y610209D01*
X1515000Y607068D01*
X1516181Y610209D01*
X1515257Y611344D01*
G03X1514743I-257J-705D01*
G37*
G36*
G01X1504743D02*
X1503819Y610209D01*
X1505000Y607068D01*
X1506181Y610209D01*
X1505257Y611344D01*
G03X1504743I-257J-705D01*
G37*
G36*
G01X1509743Y630832D02*
X1508819Y629697D01*
X1510000Y626556D01*
X1511181Y629697D01*
X1510257Y630832D01*
G03X1509743I-257J-705D01*
G37*
G36*
G01X1514743D02*
X1513819Y629697D01*
X1515000Y626556D01*
X1516181Y629697D01*
X1515257Y630832D01*
G03X1514743I-257J-705D01*
G37*
G36*
G01X1530924Y670530D02*
X1529227Y672227D01*
X1526812Y670000D01*
X1529227Y667773D01*
X1530924Y669470D01*
G03Y670530I-530J530D01*
G37*
G36*
G01X1510149Y667601D02*
Y670000D01*
X1506867Y670133D01*
X1507000Y666851D01*
X1509399D01*
G03X1510149Y667601I0J750D01*
G37*
G36*
G01X1545000Y553000D02*
X1534000Y564000D01*
X1533442D01*
Y564286D01*
X1533505Y564346D01*
G03X1534631Y567365I-2505J2655D01*
G02X1535312Y567688I398J40D01*
G01X1542000Y561000D01*
X1543870D01*
Y556138D01*
X1549000D01*
Y555000D01*
X1550000Y554000D01*
X1560000D01*
X1566000Y560000D01*
X1567350D01*
Y553000D01*
X1545000D01*
G37*
G36*
G01X1534149Y564601D02*
Y567000D01*
X1530867Y567133D01*
X1531000Y563851D01*
X1533399D01*
G03X1534149Y564601I0J750D01*
G37*
G36*
G01X1559040Y604569D02*
X1562154Y601439D01*
X1563188Y605000D01*
X1562154Y608561D01*
X1559040Y605431D01*
G03Y604569I614J-431D01*
G37*
G36*
G01X1538139Y663577D02*
X1540370Y661638D01*
X1542920Y664000D01*
X1540370Y666362D01*
X1538139Y664423D01*
G03Y663577I619J-423D01*
G37*
G36*
G01X1577145Y557454D02*
X1574149Y560149D01*
X1570812Y557000D01*
X1574149Y553851D01*
X1577145Y556546D01*
G03Y557454I-597J455D01*
G37*
G36*
G01X1583076Y556470D02*
X1584773Y554773D01*
X1587188Y557000D01*
X1584773Y559227D01*
X1583076Y557530D01*
G03Y556470I530J-530D01*
G37*
G36*
G01X1574650Y553000D02*
Y560000D01*
X1583895D01*
G02X1584202Y559343I0J-400D01*
G03X1586052Y553476I2798J-2343D01*
G01X1586103Y553462D01*
X1586283Y553283D01*
X1586000Y553000D01*
X1574650D01*
G37*
G36*
G01X1647000Y574000D02*
X1645000Y572000D01*
X1630000D01*
X1611000Y591000D01*
Y603000D01*
X1600000Y614000D01*
X1590000D01*
X1588000Y616000D01*
Y620000D01*
X1589000Y621000D01*
X1641000D01*
X1647000Y615000D01*
Y574000D01*
G37*
G36*
G01X1579412Y658461D02*
X1581362Y660638D01*
X1579000Y663188D01*
X1576638Y660638D01*
X1578588Y658461D01*
G03X1579412I412J627D01*
G37*
G36*
G01X1585874Y652458D02*
X1583906Y650362D01*
X1586268Y647812D01*
X1588630Y650362D01*
X1586662Y652458D01*
G03X1585874I-394J-638D01*
G37*
G36*
G01X1578879Y643136D02*
X1580362Y645638D01*
X1577985Y648187D01*
X1575638Y645638D01*
X1577915Y643064D01*
G03X1578879Y643136I440J608D01*
G37*
G36*
G01X1586845Y667593D02*
X1584906Y665362D01*
X1587268Y662812D01*
X1589630Y665362D01*
X1587690Y667593D01*
G03X1586845I-423J-620D01*
G37*
G36*
G01X1594153Y675021D02*
X1594975Y678407D01*
X1591952Y681181D01*
X1589919Y677851D01*
X1593049Y674737D01*
G03X1594153Y675021I431J614D01*
G37*
G36*
G01X1620924Y567530D02*
X1619227Y569227D01*
X1616812Y567000D01*
X1619227Y564773D01*
X1620924Y566470D01*
G03Y567530I-530J530D01*
G37*
G36*
G01X1613076Y566470D02*
X1614773Y564773D01*
X1617188Y567000D01*
X1614773Y569227D01*
X1613076Y567530D01*
G03Y566470I530J-530D01*
G37*
G36*
G01X1597000Y549000D02*
X1594000Y552000D01*
Y553350D01*
X1600650D01*
Y560000D01*
X1613350D01*
Y553350D01*
X1620650D01*
Y560000D01*
X1623000D01*
X1625000Y558000D01*
X1628870D01*
Y553138D01*
X1634000D01*
Y552000D01*
X1635000Y551000D01*
X1644000D01*
X1645000Y552000D01*
Y572000D01*
X1646317Y573317D01*
G02X1647000Y573034I283J-283D01*
G01Y552000D01*
X1644000Y549000D01*
X1597000D01*
G37*
G36*
G01X1593000Y623000D02*
Y625661D01*
X1594000D01*
Y625000D01*
X1595000Y624000D01*
X1602000D01*
X1604000Y626000D01*
Y654000D01*
X1611000Y661000D01*
X1614342D01*
Y659000D01*
X1613000D01*
X1609000Y655000D01*
Y624000D01*
X1608000Y623000D01*
X1593000D01*
G37*
G36*
G01X1597614Y627000D02*
Y635520D01*
X1596000D01*
Y662000D01*
X1598000Y664000D01*
X1614342D01*
Y663000D01*
X1610000D01*
X1600000Y653000D01*
Y628000D01*
X1599000Y627000D01*
X1597614D01*
G37*
G36*
G01X1613878Y656527D02*
X1614842Y655716D01*
X1619951Y656701D01*
X1614842Y657685D01*
X1613878Y656874D01*
G03Y656527I730J-174D01*
G37*
G36*
G01Y659677D02*
X1614842Y658866D01*
X1619951Y659850D01*
X1614842Y660835D01*
X1613878Y660024D01*
G03Y659677I730J-174D01*
G37*
G36*
G01X1600000Y666000D02*
X1598000Y668000D01*
Y679146D01*
G02X1598756Y679329I400J0D01*
G03Y682671I3244J1671D01*
G02X1598000Y682854I-356J183D01*
G01Y686000D01*
X1608000D01*
X1611000Y683000D01*
Y677000D01*
X1615000Y673000D01*
X1622000D01*
X1623533Y671467D01*
G02X1623250Y670784I-283J-283D01*
G01X1614342D01*
Y669000D01*
X1610000D01*
X1607000Y666000D01*
X1600000D01*
G37*
G36*
G01X1613878Y669126D02*
X1614842Y668315D01*
X1619951Y669299D01*
X1614842Y670284D01*
X1613878Y669473D01*
G03Y669126I730J-174D01*
G37*
G36*
G01X1626407Y566577D02*
X1628638Y564638D01*
X1631188Y567000D01*
X1628638Y569362D01*
X1626407Y567423D01*
G03Y566577I620J-423D01*
G37*
G54D10*
X1447000Y564000D03*
Y574000D03*
Y584000D03*
Y594000D03*
Y604000D03*
X1467000Y670000D03*
X1457000D03*
X1498000Y557000D03*
Y567000D03*
X1497000Y670000D03*
X1487000D03*
X1477000D03*
X1531000Y557000D03*
Y567000D03*
X1515000Y557000D03*
Y567000D03*
X1527000Y670000D03*
X1517000D03*
X1507000D03*
X1571000Y567000D03*
X1587000Y557000D03*
X1617000Y567000D03*
X1602000Y681000D03*
G54D11*
X1447000Y614000D03*
Y670000D03*
X1498000Y577000D03*
X1531000D03*
X1515000D03*
X1571000Y557000D03*
X1592000Y681000D03*
X1617000Y557000D03*
X1597000D03*
G54D12*
X1471000Y624268D03*
Y616000D03*
X1555268Y568000D03*
X1547000D03*
X1546732Y559000D03*
X1555000D03*
X1542732Y648000D03*
X1551000D03*
X1542732Y664000D03*
X1551000D03*
X1586268Y648000D03*
X1578000D03*
X1587268Y663000D03*
X1579000D03*
X1639268Y567000D03*
X1631000D03*
X1631732Y556000D03*
X1640000D03*
G54D13*
X1444646Y650000D03*
X1475354D03*
G54D14*
X1500000Y607256D03*
X1495000D03*
X1490000D03*
Y626744D03*
X1495000D03*
X1500000D03*
X1520000Y607256D03*
X1515000D03*
X1510000D03*
X1505000D03*
Y626744D03*
X1510000D03*
X1515000D03*
X1520000D03*
G54D15*
X1563000Y630591D03*
X1565559D03*
X1568118D03*
X1570677D03*
X1573236D03*
X1575795D03*
X1578354D03*
X1580913D03*
X1583472D03*
X1586032D03*
X1588591D03*
X1591150D03*
Y605000D03*
X1588591D03*
X1586032D03*
X1583472D03*
X1580913D03*
X1578354D03*
X1575795D03*
X1573236D03*
X1570677D03*
X1568118D03*
X1565559D03*
X1563000D03*
X1593709Y630591D03*
X1596268D03*
Y605000D03*
X1593709D03*
G54D16*
X1619764Y645677D03*
Y680323D03*
X1641417Y645677D03*
Y680323D03*
G54D17*
X1619764Y659850D03*
Y656701D03*
Y669299D03*
Y666150D03*
Y663000D03*
G54D18*
X1630000Y654339D03*
Y671661D03*
G54D19*
G01X1440000Y557000D02*
X1498000D01*
G01X1440000Y594000D02*
X1439000Y593000D01*
Y558000D01*
X1440000Y557000D01*
G01X1447000Y594000D02*
X1440000D01*
G01X1447000Y670000D02*
X1436000D01*
X1430000Y664000D01*
Y603000D01*
X1434000Y599000D01*
X1451499D01*
X1452999Y597500D01*
Y590999D01*
X1451000Y589000D01*
X1443601D01*
X1442301Y587699D01*
Y580699D01*
X1444000Y579000D01*
X1454738D01*
X1487738Y612000D01*
X1504409D01*
X1505000Y611409D01*
Y607256D01*
G01X1462301Y674699D02*
X1454301D01*
X1452000Y672399D01*
Y663000D01*
X1450450Y661450D01*
X1438450D01*
X1434000Y657000D01*
Y608000D01*
X1438000Y604000D01*
X1447000D01*
G01X1457000Y670000D02*
Y660000D01*
X1453850Y656850D01*
X1440850D01*
X1438000Y654000D01*
Y612000D01*
X1440850Y609150D01*
X1456449D01*
X1467433Y620134D01*
X1483390D01*
X1490000Y626744D01*
G01X1447000Y574000D02*
X1449000Y572000D01*
X1536500D01*
X1538000Y573500D01*
Y587000D01*
X1530000Y595000D01*
X1513000D01*
X1510000Y598000D01*
Y607256D01*
G01X1447000Y584000D02*
X1453000D01*
X1484000Y615000D01*
X1511409D01*
X1515000Y611409D01*
Y607256D01*
G01X1471000Y616000D02*
X1459000Y604000D01*
X1447000D01*
G01X1449196Y631247D02*
X1447000Y629051D01*
G01D02*
Y614000D01*
G01X1462301Y674699D02*
Y673751D01*
X1462000Y673450D01*
Y647000D01*
X1465850Y643150D01*
X1488150D01*
X1492000Y647000D01*
Y672300D01*
X1497700Y678000D01*
X1513399D01*
X1517000Y674399D01*
Y670000D01*
G01X1444646Y650000D02*
X1449196Y645450D01*
G01X1471000Y631247D02*
X1472753Y633000D01*
X1502897D01*
X1505000Y630897D01*
G01X1449196Y631247D02*
X1471000D01*
G01X1449196Y645450D02*
Y631247D01*
G01X1444646Y646300D02*
Y650000D01*
G01D02*
X1448346D01*
G01X1462301Y674699D02*
X1472601Y685000D01*
X1577655D01*
X1583356Y679299D01*
G01X1515000Y557000D02*
X1498000D01*
G01Y567000D02*
X1515000D01*
G01X1500000Y607256D02*
Y598000D01*
X1507000Y591000D01*
X1517000D01*
X1531000Y577000D01*
G01X1515000D02*
X1495000Y597000D01*
Y607256D01*
G01X1490000D02*
Y585000D01*
X1498000Y577000D01*
G01X1471000Y624268D02*
Y631247D01*
G01X1495000Y626744D02*
Y622591D01*
X1499591Y618000D01*
X1535000D01*
X1558000Y595000D01*
X1569000D01*
X1573236Y599236D01*
Y605000D01*
G01X1500000Y626744D02*
Y624972D01*
X1503972Y621000D01*
X1541000D01*
X1557000Y605000D01*
X1563000D01*
G01X1475354Y650000D02*
X1482000Y656646D01*
Y672646D01*
X1490354Y681000D01*
G01D02*
X1521000D01*
X1527000Y675000D01*
G01X1510000Y626744D02*
Y657000D01*
X1497000Y670000D01*
G01X1515000Y557000D02*
X1531000D01*
G01D02*
X1539000Y549000D01*
G01X1515000Y567000D02*
X1531000D01*
G01X1542000Y556000D02*
X1531000Y567000D01*
G01X1520000Y607256D02*
X1532744D01*
G01X1520000Y603603D02*
Y607256D01*
G01D02*
Y610909D01*
G01Y664000D02*
Y626744D01*
G01D02*
X1545256D01*
G01X1505000Y630897D02*
Y626744D01*
G01X1515000D02*
Y662000D01*
X1507000Y670000D01*
G01X1527000Y675000D02*
Y670000D01*
G01X1567589D02*
X1527000D01*
G01X1542732Y664000D02*
X1520000D01*
G01D02*
X1517000Y667000D01*
Y670000D01*
G01X1547000Y571612D02*
Y568000D01*
G01X1539000Y549000D02*
X1585699D01*
G01X1555268Y568000D02*
X1555000Y567732D01*
Y559000D01*
G01X1546732Y556000D02*
Y559000D01*
G01X1571000Y557000D02*
X1568000Y554000D01*
X1546732D01*
G01Y556000D02*
X1542000D01*
G01X1546732Y554000D02*
Y556000D01*
G01X1547000Y571612D02*
Y573000D01*
X1551000Y577000D01*
X1567000D01*
X1571000Y573000D01*
G01X1532744Y607256D02*
X1539000Y601000D01*
Y600000D01*
X1546000Y593000D01*
Y572612D01*
X1547000Y571612D01*
G01X1545256Y626744D02*
X1555000Y617000D01*
X1564356D01*
X1570677Y610679D01*
G01X1575795Y630591D02*
Y624962D01*
X1572834Y622000D01*
X1560000D01*
X1551000Y631000D01*
Y648000D01*
G01Y664000D02*
Y661000D01*
X1542732Y652732D01*
Y648000D01*
G01X1571000Y567000D02*
X1578354D01*
G01X1591699D02*
X1578354D01*
G01X1591699D02*
Y555000D01*
X1585699Y549000D01*
G01X1578354Y567000D02*
Y605000D01*
G01X1571000Y573000D02*
Y567000D01*
G01X1587000Y557000D02*
X1571000D01*
G01X1570677Y630591D02*
Y636570D01*
G01X1578354Y605000D02*
Y622052D01*
X1580913Y624612D01*
Y630591D01*
G01X1582020Y638673D02*
X1587091D01*
X1588591Y637173D01*
Y630591D01*
G01X1582020Y638673D02*
X1580913Y637566D01*
Y630591D01*
G01X1568118Y636570D02*
Y630591D01*
G01X1570677Y610679D02*
Y605000D01*
G01X1591434Y617000D02*
X1583472Y624962D01*
Y630591D01*
G01X1578354D02*
Y647646D01*
X1578000Y648000D01*
G01X1570677Y666912D02*
Y653500D01*
G01D02*
Y636570D01*
G01X1602000Y681000D02*
X1597301Y685699D01*
X1588208D01*
X1585656Y683147D01*
Y676245D01*
X1591180Y670721D01*
Y659188D01*
X1588992Y657000D01*
X1586000D01*
X1583134Y659866D01*
Y666590D01*
X1582812Y666912D01*
X1570677D01*
G01Y636570D02*
X1568118D01*
G01X1570677Y653500D02*
X1572177Y655000D01*
G01D02*
X1578610D01*
X1582020Y651590D01*
Y638673D01*
G01X1586268Y648000D02*
Y651820D01*
X1579000Y659088D01*
Y663000D01*
G01X1570677Y666912D02*
X1567589Y670000D01*
G01X1633912Y622312D02*
Y680088D01*
X1634000Y680176D01*
Y684000D01*
X1630001Y687999D01*
X1586855D01*
X1583356Y684500D01*
Y679299D01*
G01D02*
X1582700Y678643D01*
Y675948D01*
X1583356Y675292D01*
Y672300D01*
X1587268Y668388D01*
Y663000D01*
G01X1617000Y567000D02*
X1591699D01*
G01X1631000D02*
X1617000D01*
G01X1597000Y557000D02*
X1617000D01*
G01X1621732Y552268D02*
X1617000Y557000D01*
G01Y553150D02*
Y557000D01*
G01D02*
X1620850D01*
G01X1619764Y656701D02*
X1613642D01*
X1613292Y656351D01*
Y622312D01*
G01D02*
X1607981Y617000D01*
G01X1618604D02*
X1613292Y622312D01*
G01X1607981Y617000D02*
X1591434D01*
G01X1628600D02*
X1618604D01*
G01X1593709Y623000D02*
Y630591D01*
G01X1612764Y659850D02*
X1605564Y652651D01*
Y626564D01*
X1602000Y623000D01*
X1593709D01*
G01X1596268Y630591D02*
Y651268D01*
G01X1591150Y630591D02*
Y638840D01*
X1593480Y641170D01*
Y679520D01*
X1592000Y681000D01*
G01X1619764Y659850D02*
X1612764D01*
G01X1596268Y651268D02*
X1608000Y663000D01*
G01X1619764Y669299D02*
X1613701D01*
G01D02*
X1602000Y681000D01*
G01Y677150D02*
Y681000D01*
G01D02*
Y684850D01*
G01Y681000D02*
X1605850D01*
G01X1608000Y663000D02*
X1619764D01*
G01X1639268Y567000D02*
Y563388D01*
X1640000Y562656D01*
Y556000D01*
G01X1631732Y552268D02*
X1621732D01*
G01X1631732D02*
Y556000D01*
G01X1646000Y552000D02*
X1644000Y550000D01*
X1634000D01*
X1631732Y552268D01*
G01X1646000Y610224D02*
Y552000D01*
G01X1633912Y622312D02*
X1646000Y610224D01*
G01X1633912Y622312D02*
X1628600Y617000D01*
M02*
