G04 ================== begin FILE IDENTIFICATION RECORD ==================*
G04 Layout Name:  C:/DATA/GIT/CADENCE/MODULES/WIFI_SWITCH/allegro/ESP8266_SWITCH.brd*
G04 Film Name:    SC_TOP*
G04 File Format:  Gerber RS274X*
G04 File Origin:  Cadence Allegro 17.2-P019*
G04 Origin Date:  Wed May 24 20:33:27 2017*
G04 *
G04 Layer:  REF DES/SILKSCREEN_TOP*
G04 Layer:  PACKAGE GEOMETRY/SILKSCREEN_TOP*
G04 Layer:  BOARD GEOMETRY/SILKSCREEN_TOP*
G04 Layer:  BOARD GEOMETRY/DESIGN_OUTLINE*
G04 *
G04 Offset:    (0.0000 0.0000)*
G04 Mirror:    No*
G04 Mode:      Positive*
G04 Rotation:  0*
G04 FullContactRelief:  No*
G04 UndefLineWidth:     0.0000*
G04 ================== end FILE IDENTIFICATION RECORD ====================*
%FSLAX25Y25*MOMM*%
%IR0*IPPOS*OFA0.00000B0.00000*MIA0B0*SFA1.00000B1.00000*%
%ADD10C,.1*%
%ADD11C,.2*%
%ADD12C,.15*%
%ADD13C,.254*%
G75*
%LPD*%
G75*
G36*
G01X476060Y1050000D02*
G03I-36060J0D01*
G37*
G36*
G01X5970450Y3240000D02*
G02I-15000J0D01*
G37*
G36*
G01X5386060Y3630000D02*
G03I-36060J0D01*
G37*
G54D10*
G01X690000Y3200000D02*
Y3830000D01*
X360000D01*
Y3200000D01*
X690000D01*
G01X1720000D02*
Y3830000D01*
X1390000D01*
Y3200000D01*
X1720000D01*
G01X2750000Y1300000D02*
X4350000D01*
Y3700000D01*
X2750000D01*
Y1300000D01*
G54D11*
G01X5640000Y3514800D02*
Y3225200D01*
G54D12*
G01X-230260Y850000D02*
Y928740D01*
X-205920D01*
X-198130Y924800D01*
X-193260Y919550D01*
X-191320Y909050D01*
X-193260Y898560D01*
X-199110Y892000D01*
X-205920Y888060D01*
X-230260D01*
G01X-205920D02*
X-191320Y850000D01*
G01X-132050D02*
X-125230Y851310D01*
X-117450Y855250D01*
X-112580Y861810D01*
X-110630Y871000D01*
X-112580Y880180D01*
X-118420Y888060D01*
X-127180Y892000D01*
X-136920D01*
X-142760Y894620D01*
X-147630Y901180D01*
X-149580Y910370D01*
X-146650Y919550D01*
X-139840Y926120D01*
X-132050Y928740D01*
X-124260Y926120D01*
X-117450Y919550D01*
X-114520Y910370D01*
X-116470Y901180D01*
X-121340Y894620D01*
X-127180Y892000D01*
X-136920D01*
X-145680Y888060D01*
X-151520Y880180D01*
X-153470Y871000D01*
X-151520Y861810D01*
X-146650Y855250D01*
X-138870Y851310D01*
X-132050Y850000D01*
G01X140000D02*
X-80000D01*
Y950000D01*
X140000D01*
Y850000D01*
G01X-250260Y1010000D02*
Y1088740D01*
X-225920D01*
X-218130Y1084800D01*
X-213260Y1079550D01*
X-211320Y1069050D01*
X-213260Y1058560D01*
X-219110Y1052000D01*
X-225920Y1048060D01*
X-250260D01*
G01X-225920D02*
X-211320Y1010000D01*
G01X-152050D02*
Y1088740D01*
X-163730Y1072990D01*
G01Y1010000D02*
X-140370D01*
G01X-100000Y1100000D02*
X120000D01*
Y1000000D01*
X-100000D01*
Y1100000D01*
G01X2570000Y1170000D02*
X-437000D01*
Y3170000D01*
X2570000D01*
Y1170000D01*
G01X-380000Y3213890D02*
X-458740D01*
X-393120Y3239210D01*
X-458740Y3264530D01*
X-380000D01*
G01Y3317950D02*
X-458740D01*
X-442990Y3306270D01*
G01X-380000D02*
Y3329630D01*
G01X424250Y109740D02*
X432130Y114610D01*
X437380Y120450D01*
X440000Y127260D01*
X437380Y135050D01*
X432130Y140890D01*
X424250Y146740D01*
X413750Y148680D01*
X361260D01*
G01X440000Y219630D02*
X361260D01*
X417690Y183610D01*
Y232290D01*
G01X5594000Y-50000D02*
X494000D01*
Y1150000D01*
X5594000D01*
Y-50000D01*
G01X260630Y802180D02*
X254790Y806120D01*
X247970Y808740D01*
X240180D01*
X231420Y804800D01*
X224610Y798240D01*
X219740Y790370D01*
X215840Y777240D01*
X214870Y765430D01*
X216820Y753620D01*
X219740Y745750D01*
X225580Y737870D01*
X232390Y732620D01*
X239210Y730000D01*
X246030D01*
X252840Y732620D01*
X258680Y736560D01*
X263550Y741810D01*
G01X316000Y730000D02*
X317950Y747060D01*
X320870Y761490D01*
X324770Y774620D01*
X329630Y789050D01*
X337420Y808740D01*
X298480D01*
G01X190000Y950000D02*
X410000D01*
Y850000D01*
X190000D01*
Y950000D01*
G01X547790Y1010000D02*
Y1088740D01*
X567260D01*
X575050Y1084800D01*
X580890Y1079550D01*
X585760Y1071680D01*
X589660Y1062490D01*
X590630Y1049370D01*
X589660Y1036250D01*
X585760Y1027060D01*
X580890Y1019180D01*
X575050Y1013940D01*
X567260Y1010000D01*
X547790D01*
G01X647950D02*
Y1088740D01*
X636270Y1072990D01*
G01Y1010000D02*
X659630D01*
G01X390000Y1000000D02*
X170000D01*
Y1100000D01*
X390000D01*
Y1000000D01*
G01X241260Y3737790D02*
X297690D01*
X309500Y3741680D01*
X317380Y3749470D01*
X320000Y3759210D01*
X317380Y3768950D01*
X309500Y3776740D01*
X297690Y3780630D01*
X241260D01*
G01X320000Y3837950D02*
X241260D01*
X257010Y3826270D01*
G01X320000D02*
Y3849630D01*
G01X3895000Y-50000D02*
Y1150000D01*
X3045000D01*
Y-50000D01*
X2195000D01*
Y1150000D01*
X1345000D01*
Y-50000D01*
G01X1100000Y3460000D02*
Y3240000D01*
X1000000D01*
Y3460000D01*
X1100000D01*
G01X1092180Y3589370D02*
X1096120Y3595210D01*
X1098740Y3602030D01*
Y3609820D01*
X1094800Y3618580D01*
X1088240Y3625390D01*
X1080370Y3630260D01*
X1067240Y3634160D01*
X1055430Y3635130D01*
X1043620Y3633180D01*
X1035750Y3630260D01*
X1027870Y3624420D01*
X1022620Y3617610D01*
X1020000Y3610790D01*
Y3603970D01*
X1022620Y3597160D01*
X1026560Y3591320D01*
X1031810Y3586450D01*
G01X1035750Y3553470D02*
X1026560Y3547630D01*
X1021310Y3539840D01*
X1020000Y3531080D01*
X1021310Y3523290D01*
X1027870Y3515500D01*
X1035750Y3510630D01*
X1043620Y3509660D01*
X1052810Y3511600D01*
X1059370Y3518420D01*
X1062000Y3525230D01*
Y3534000D01*
G01Y3525230D02*
X1065930Y3519390D01*
X1072490Y3514520D01*
X1080370Y3512580D01*
X1088240Y3514520D01*
X1094800Y3519390D01*
X1098740Y3528160D01*
X1097430Y3536920D01*
X1092180Y3545680D01*
G01X1266260Y3732790D02*
X1322690D01*
X1334500Y3736680D01*
X1342380Y3744470D01*
X1345000Y3754210D01*
X1342380Y3763950D01*
X1334500Y3771740D01*
X1322690Y3775630D01*
X1266260D01*
G01X1279380Y3814450D02*
X1271510Y3820290D01*
X1267570Y3827110D01*
X1266260Y3834900D01*
X1268880Y3844630D01*
X1275450Y3851450D01*
X1283320Y3853400D01*
X1291200Y3852420D01*
X1297760Y3848530D01*
X1310880Y3829060D01*
X1320070Y3820290D01*
X1333190Y3814450D01*
X1345000Y3812500D01*
Y3853400D01*
G01X2272180Y3379370D02*
X2276120Y3385210D01*
X2278740Y3392030D01*
Y3399820D01*
X2274800Y3408580D01*
X2268240Y3415390D01*
X2260370Y3420260D01*
X2247240Y3424160D01*
X2235430Y3425130D01*
X2223620Y3423180D01*
X2215750Y3420260D01*
X2207870Y3414420D01*
X2202620Y3407610D01*
X2200000Y3400790D01*
Y3393970D01*
X2202620Y3387160D01*
X2206560Y3381320D01*
X2211810Y3376450D01*
G01X2200000Y3310370D02*
X2278740D01*
X2222310Y3346390D01*
Y3297710D01*
G01X2150000Y3480000D02*
Y3260000D01*
X2050000D01*
Y3480000D01*
X2150000D01*
G01X2310630Y3882180D02*
X2304790Y3886120D01*
X2297970Y3888740D01*
X2290180D01*
X2281420Y3884800D01*
X2274610Y3878240D01*
X2269740Y3870370D01*
X2265840Y3857240D01*
X2264870Y3845430D01*
X2266820Y3833620D01*
X2269740Y3825750D01*
X2275580Y3817870D01*
X2282390Y3812620D01*
X2289210Y3810000D01*
X2296030D01*
X2302840Y3812620D01*
X2308680Y3816560D01*
X2313550Y3821810D01*
G01X2367950Y3810000D02*
Y3888740D01*
X2356270Y3872990D01*
G01Y3810000D02*
X2379630D01*
G01X2000000Y3800000D02*
X2220000D01*
Y3700000D01*
X2000000D01*
Y3800000D01*
G01X2880630Y1252180D02*
X2874790Y1256120D01*
X2867970Y1258740D01*
X2860180D01*
X2851420Y1254800D01*
X2844610Y1248240D01*
X2839740Y1240370D01*
X2835840Y1227240D01*
X2834870Y1215430D01*
X2836820Y1203620D01*
X2839740Y1195750D01*
X2845580Y1187870D01*
X2852390Y1182620D01*
X2859210Y1180000D01*
X2866030D01*
X2872840Y1182620D01*
X2878680Y1186560D01*
X2883550Y1191810D01*
G01X2919450Y1245620D02*
X2925290Y1253490D01*
X2932110Y1257430D01*
X2939900Y1258740D01*
X2949630Y1256120D01*
X2956450Y1249550D01*
X2958400Y1241680D01*
X2957420Y1233800D01*
X2953530Y1227240D01*
X2934060Y1214120D01*
X2925290Y1204930D01*
X2919450Y1191810D01*
X2917500Y1180000D01*
X2958400D01*
G01X2590000Y1270000D02*
X2810000D01*
Y1170000D01*
X2590000D01*
Y1270000D01*
G01X2530000Y3350260D02*
X2608740D01*
Y3325920D01*
X2604800Y3318130D01*
X2599550Y3313260D01*
X2589050Y3311320D01*
X2578560Y3313260D01*
X2572000Y3319110D01*
X2568060Y3325920D01*
Y3350260D01*
G01Y3325920D02*
X2530000Y3311320D01*
G01X2562810Y3270550D02*
X2572000Y3263730D01*
X2577240Y3257890D01*
X2579870Y3250100D01*
X2577240Y3243290D01*
X2572000Y3238420D01*
X2564120Y3234520D01*
X2554930Y3233550D01*
X2547060Y3234520D01*
X2539180Y3238420D01*
X2532620Y3244260D01*
X2530000Y3251080D01*
X2532620Y3258870D01*
X2540500Y3265680D01*
X2552310Y3269580D01*
X2565430Y3270550D01*
X2582490Y3268600D01*
X2591680Y3265680D01*
X2600870Y3260810D01*
X2607430Y3254000D01*
X2608740Y3247180D01*
X2606120Y3240370D01*
X2599550Y3235500D01*
G01X2720000Y3210000D02*
Y2990000D01*
X2620000D01*
Y3210000D01*
X2720000D01*
G01X2737790Y3838740D02*
Y3782310D01*
X2741680Y3770500D01*
X2749470Y3762620D01*
X2759210Y3760000D01*
X2768950Y3762620D01*
X2776740Y3770500D01*
X2780630Y3782310D01*
Y3838740D01*
G01X2816530Y3775750D02*
X2822370Y3766560D01*
X2830160Y3761310D01*
X2838920Y3760000D01*
X2846710Y3761310D01*
X2854500Y3767870D01*
X2859370Y3775750D01*
X2860340Y3783620D01*
X2858400Y3792810D01*
X2851580Y3799370D01*
X2844770Y3802000D01*
X2836000D01*
G01X2844770D02*
X2850610Y3805930D01*
X2855480Y3812490D01*
X2857420Y3820370D01*
X2855480Y3828240D01*
X2850610Y3834800D01*
X2841840Y3838740D01*
X2833080Y3837430D01*
X2824320Y3832180D01*
G01X4760000Y1810000D02*
X4540000D01*
Y1910000D01*
X4760000D01*
Y1810000D01*
G01X4500630Y1262180D02*
X4494790Y1266120D01*
X4487970Y1268740D01*
X4480180D01*
X4471420Y1264800D01*
X4464610Y1258240D01*
X4459740Y1250370D01*
X4455840Y1237240D01*
X4454870Y1225430D01*
X4456820Y1213620D01*
X4459740Y1205750D01*
X4465580Y1197870D01*
X4472390Y1192620D01*
X4479210Y1190000D01*
X4486030D01*
X4492840Y1192620D01*
X4498680Y1196560D01*
X4503550Y1201810D01*
G01X4539450Y1222810D02*
X4546270Y1232000D01*
X4552110Y1237240D01*
X4559900Y1239870D01*
X4566710Y1237240D01*
X4571580Y1232000D01*
X4575480Y1224120D01*
X4576450Y1214930D01*
X4575480Y1207060D01*
X4571580Y1199180D01*
X4565740Y1192620D01*
X4558920Y1190000D01*
X4551130Y1192620D01*
X4544320Y1200500D01*
X4540420Y1212310D01*
X4539450Y1225430D01*
X4541400Y1242490D01*
X4544320Y1251680D01*
X4549190Y1260870D01*
X4556000Y1267430D01*
X4562820Y1268740D01*
X4569630Y1266120D01*
X4574500Y1259550D01*
G01X4430000Y1180000D02*
X4210000D01*
Y1280000D01*
X4430000D01*
Y1180000D01*
G01X4464250Y3139740D02*
X4472130Y3144610D01*
X4477380Y3150450D01*
X4480000Y3157260D01*
X4477380Y3165050D01*
X4472130Y3170890D01*
X4464250Y3176740D01*
X4453750Y3178680D01*
X4401260D01*
G01X4464250Y3216530D02*
X4473440Y3222370D01*
X4478690Y3230160D01*
X4480000Y3238920D01*
X4478690Y3246710D01*
X4472130Y3254500D01*
X4464250Y3259370D01*
X4456380Y3260340D01*
X4447190Y3258400D01*
X4440630Y3251580D01*
X4438000Y3244770D01*
Y3236000D01*
G01Y3244770D02*
X4434070Y3250610D01*
X4427510Y3255480D01*
X4419630Y3257420D01*
X4411760Y3255480D01*
X4405200Y3250610D01*
X4401260Y3241840D01*
X4402570Y3233080D01*
X4407820Y3224320D01*
G01X4520000Y3780260D02*
X4598740D01*
Y3755920D01*
X4594800Y3748130D01*
X4589550Y3743260D01*
X4579050Y3741320D01*
X4568560Y3743260D01*
X4562000Y3749110D01*
X4558060Y3755920D01*
Y3780260D01*
G01Y3755920D02*
X4520000Y3741320D01*
G01X4535750Y3703470D02*
X4526560Y3697630D01*
X4521310Y3689840D01*
X4520000Y3681080D01*
X4521310Y3673290D01*
X4527870Y3665500D01*
X4535750Y3660630D01*
X4543620Y3659660D01*
X4552810Y3661600D01*
X4559370Y3668420D01*
X4562000Y3675230D01*
Y3684000D01*
G01Y3675230D02*
X4565930Y3669390D01*
X4572490Y3664520D01*
X4580370Y3662580D01*
X4588240Y3664520D01*
X4594800Y3669390D01*
X4598740Y3678160D01*
X4597430Y3686920D01*
X4592180Y3695680D01*
G01X4620000Y3590000D02*
Y3370000D01*
X4520000D01*
Y3590000D01*
X4620000D01*
G01X4745000Y-50000D02*
Y1150000D01*
G01X4809740Y1820000D02*
Y1898740D01*
X4834080D01*
X4841870Y1894800D01*
X4846740Y1889550D01*
X4848680Y1879050D01*
X4846740Y1868560D01*
X4840890Y1862000D01*
X4834080Y1858060D01*
X4809740D01*
G01X4834080D02*
X4848680Y1820000D01*
G01X4906000D02*
X4907950Y1837060D01*
X4910870Y1851490D01*
X4914770Y1864620D01*
X4919630Y1879050D01*
X4927420Y1898740D01*
X4888480D01*
G01X4800000Y1380000D02*
Y1210000D01*
X4980000D01*
G01X4800000Y2960000D02*
Y3120000D01*
X4970000D01*
G01X4680000Y3780260D02*
X4758740D01*
Y3755920D01*
X4754800Y3748130D01*
X4749550Y3743260D01*
X4739050Y3741320D01*
X4728560Y3743260D01*
X4722000Y3749110D01*
X4718060Y3755920D01*
Y3780260D01*
G01Y3755920D02*
X4680000Y3741320D01*
G01Y3670370D02*
X4758740D01*
X4702310Y3706390D01*
Y3657710D01*
G01X4760000Y3590000D02*
Y3370000D01*
X4660000D01*
Y3590000D01*
X4760000D01*
G01X5139210Y3700000D02*
X5131420Y3701310D01*
X5124610Y3706560D01*
X5118760Y3714430D01*
X5114870Y3723620D01*
X5112920Y3734120D01*
Y3744620D01*
X5114870Y3755120D01*
X5118760Y3764310D01*
X5124610Y3772180D01*
X5131420Y3777430D01*
X5139210Y3778740D01*
X5147000Y3777430D01*
X5153810Y3772180D01*
X5159660Y3764310D01*
X5163550Y3755120D01*
X5165500Y3744620D01*
Y3734120D01*
X5163550Y3723620D01*
X5159660Y3714430D01*
X5153810Y3706560D01*
X5147000Y3701310D01*
X5139210Y3700000D01*
G01X5147000Y3721000D02*
X5158680Y3700000D01*
G01X5217950D02*
Y3778740D01*
X5206270Y3762990D01*
G01Y3700000D02*
X5229630D01*
G01X5719500Y108760D02*
X5726060Y116550D01*
X5730000Y125320D01*
Y133100D01*
X5726060Y140890D01*
X5719500Y146740D01*
X5710310Y149660D01*
X5701130Y147710D01*
X5693260Y142840D01*
X5688000Y134080D01*
X5685380Y122390D01*
X5680130Y115580D01*
X5670950Y112660D01*
X5661760Y114610D01*
X5655200Y119470D01*
X5651260Y126290D01*
Y133100D01*
X5653880Y139920D01*
X5660450Y145760D01*
G01X5651260Y178740D02*
X5730000Y192370D01*
X5651260Y207950D01*
X5730000Y223530D01*
X5651260Y237160D01*
G01X5730000Y286690D02*
X5651260D01*
X5667010Y275010D01*
G01X5730000D02*
Y298370D01*
G01X6150000Y999740D02*
X6071260D01*
Y1024080D01*
X6075200Y1031870D01*
X6080450Y1036740D01*
X6090950Y1038680D01*
X6101440Y1036740D01*
X6108000Y1030890D01*
X6111940Y1024080D01*
Y999740D01*
G01Y1024080D02*
X6150000Y1038680D01*
G01X6138190Y1076530D02*
X6144750Y1082370D01*
X6148690Y1089190D01*
X6150000Y1097950D01*
X6147380Y1106710D01*
X6142130Y1113530D01*
X6132940Y1118400D01*
X6122440Y1119370D01*
X6111940Y1117420D01*
X6105380Y1112550D01*
X6100130Y1105740D01*
X6098820Y1098920D01*
X6100130Y1092110D01*
X6105380Y1083350D01*
X6071260Y1086270D01*
Y1112550D01*
G01X5989210Y3340000D02*
Y3418740D01*
X6008680D01*
X6016470Y3414800D01*
X6022310Y3409550D01*
X6027180Y3401680D01*
X6031080Y3392490D01*
X6032050Y3379370D01*
X6031080Y3366250D01*
X6027180Y3357060D01*
X6022310Y3349180D01*
X6016470Y3343940D01*
X6008680Y3340000D01*
X5989210D01*
G01X6070870Y3405620D02*
X6076710Y3413490D01*
X6083530Y3417430D01*
X6091320Y3418740D01*
X6101050Y3416120D01*
X6107870Y3409550D01*
X6109820Y3401680D01*
X6108840Y3393800D01*
X6104950Y3387240D01*
X6085480Y3374120D01*
X6076710Y3364930D01*
X6070870Y3351810D01*
X6068920Y3340000D01*
X6109820D01*
G01X5739740Y3710000D02*
Y3788740D01*
X5764080D01*
X5771870Y3784800D01*
X5776740Y3779550D01*
X5778680Y3769050D01*
X5776740Y3758560D01*
X5770890Y3752000D01*
X5764080Y3748060D01*
X5739740D01*
G01X5764080D02*
X5778680Y3710000D01*
G01X5819450Y3775620D02*
X5825290Y3783490D01*
X5832110Y3787430D01*
X5839900Y3788740D01*
X5849630Y3786120D01*
X5856450Y3779550D01*
X5858400Y3771680D01*
X5857420Y3763800D01*
X5853530Y3757240D01*
X5834060Y3744120D01*
X5825290Y3734930D01*
X5819450Y3721810D01*
X5817500Y3710000D01*
X5858400D01*
G01X5880000Y3580000D02*
X5660000D01*
Y3680000D01*
X5880000D01*
Y3580000D01*
G01X5417790Y3710000D02*
Y3788740D01*
X5437260D01*
X5445050Y3784800D01*
X5450890Y3779550D01*
X5455760Y3771680D01*
X5459660Y3762490D01*
X5460630Y3749370D01*
X5459660Y3736250D01*
X5455760Y3727060D01*
X5450890Y3719180D01*
X5445050Y3713940D01*
X5437260Y3710000D01*
X5417790D01*
G01X5496530Y3725750D02*
X5502370Y3716560D01*
X5510160Y3711310D01*
X5518920Y3710000D01*
X5526710Y3711310D01*
X5534500Y3717870D01*
X5539370Y3725750D01*
X5540340Y3733620D01*
X5538400Y3742810D01*
X5531580Y3749370D01*
X5524770Y3752000D01*
X5516000D01*
G01X5524770D02*
X5530610Y3755930D01*
X5535480Y3762490D01*
X5537420Y3770370D01*
X5535480Y3778240D01*
X5530610Y3784800D01*
X5521840Y3788740D01*
X5513080Y3787430D01*
X5504320Y3782180D01*
G01X5400000Y3680000D02*
X5620000D01*
Y3580000D01*
X5400000D01*
Y3680000D01*
G01X6080000Y740000D02*
Y960000D01*
X6180000D01*
Y740000D01*
X6080000D01*
G01X6247820Y1040630D02*
X6243880Y1034790D01*
X6241260Y1027970D01*
Y1020180D01*
X6245200Y1011420D01*
X6251760Y1004610D01*
X6259630Y999740D01*
X6272760Y995840D01*
X6284570Y994870D01*
X6296380Y996820D01*
X6304250Y999740D01*
X6312130Y1005580D01*
X6317380Y1012390D01*
X6320000Y1019210D01*
Y1026030D01*
X6317380Y1032840D01*
X6313440Y1038680D01*
X6308190Y1043550D01*
G01Y1076530D02*
X6314750Y1082370D01*
X6318690Y1089190D01*
X6320000Y1097950D01*
X6317380Y1106710D01*
X6312130Y1113530D01*
X6302940Y1118400D01*
X6292440Y1119370D01*
X6281940Y1117420D01*
X6275380Y1112550D01*
X6270130Y1105740D01*
X6268820Y1098920D01*
X6270130Y1092110D01*
X6275380Y1083350D01*
X6241260Y1086270D01*
Y1112550D01*
G01X6220000Y730000D02*
Y950000D01*
X6320000D01*
Y730000D01*
X6220000D01*
G01X6360000Y1460000D02*
Y1210000D01*
X6110000D01*
G01X6478740Y3100260D02*
X6400000D01*
Y3061320D01*
G01X6410500Y3022500D02*
X6403940Y3014710D01*
X6400000Y3005940D01*
Y2998160D01*
X6403940Y2990370D01*
X6410500Y2984520D01*
X6419690Y2981600D01*
X6428870Y2983550D01*
X6436740Y2988420D01*
X6442000Y2997180D01*
X6444620Y3008870D01*
X6449870Y3015680D01*
X6459050Y3018600D01*
X6468240Y3016650D01*
X6474800Y3011790D01*
X6478740Y3004970D01*
Y2998160D01*
X6476120Y2991340D01*
X6469550Y2985500D01*
G01X6400000Y2923310D02*
X6478740D01*
X6462990Y2934990D01*
G01X6400000D02*
Y2911630D01*
G01X6360000Y2930000D02*
Y3120000D01*
X6180000D01*
G54D13*
G01X4513000Y1984000D02*
Y3254000D01*
X4767000D01*
Y1984000D01*
X4513000D01*
G01X4813800Y3330920D02*
Y3658580D01*
X5240520D01*
Y3330920D01*
X4813800D01*
G01X5840000Y355200D02*
X5654580D01*
Y964800D01*
X6025420D01*
Y355200D01*
X5840000D01*
M02*
