G04 ================== begin FILE IDENTIFICATION RECORD ==================*
G04 Layout Name:  C:/DATA/GIT/CADENCE/MODULES/WIFI_SWITCH/allegro/ESP8266_SWITCH.brd*
G04 Film Name:    SM_TOP*
G04 File Format:  Gerber RS274X*
G04 File Origin:  Cadence Allegro 17.2-P019*
G04 Origin Date:  Wed May 24 20:33:27 2017*
G04 *
G04 Layer:  PIN/SOLDERMASK_TOP*
G04 Layer:  PACKAGE GEOMETRY/SOLDERMASK_TOP*
G04 Layer:  BOARD GEOMETRY/SOLDERMASK_TOP*
G04 *
G04 Offset:    (0.0000 0.0000)*
G04 Mirror:    No*
G04 Mode:      Positive*
G04 Rotation:  0*
G04 FullContactRelief:  No*
G04 UndefLineWidth:     0.0000*
G04 ================== end FILE IDENTIFICATION RECORD ====================*
%FSLAX25Y25*MOMM*%
%IR0*IPPOS*OFA0.00000B0.00000*MIA0B0*SFA1.00000B1.00000*%
%AMMACRO17*
4,1,44,-.75,1.1,
-.75,-1.1,
-.745501,-1.152095,
-.731975,-1.202609,
-.709883,-1.250007,
-.679895,-1.292848,
-.642925,-1.329831,
-.600093,-1.359833,
-.552703,-1.381941,
-.502194,-1.395484,
-.4501,-1.40005,
-.45,-1.4,
.45,-1.4,
.502095,-1.395501,
.552609,-1.381975,
.600007,-1.359883,
.642848,-1.329895,
.679831,-1.292925,
.709833,-1.250093,
.731941,-1.202703,
.745484,-1.152194,
.75005,-1.1001,
.75,-1.1,
.75,1.1,
.745501,1.152095,
.731975,1.202609,
.709883,1.250007,
.679895,1.292848,
.642925,1.329831,
.600093,1.359833,
.552703,1.381941,
.502194,1.395484,
.4501,1.40005,
.45,1.4,
-.45,1.4,
-.502095,1.395501,
-.552609,1.381975,
-.600007,1.359883,
-.642848,1.329895,
-.679831,1.292925,
-.709833,1.250093,
-.731941,1.202703,
-.745484,1.152194,
-.75005,1.1001,
-.75,1.1,
0.0*
%
%ADD17MACRO17*%
%AMMACRO18*
4,1,44,1.1,.75,
-1.1,.75,
-1.152095,.745501,
-1.202609,.731975,
-1.250007,.709883,
-1.292848,.679895,
-1.329831,.642925,
-1.359833,.600093,
-1.381941,.552703,
-1.395484,.502194,
-1.40005,.4501,
-1.4,.45,
-1.4,-.45,
-1.395501,-.502095,
-1.381975,-.552609,
-1.359883,-.600007,
-1.329895,-.642848,
-1.292925,-.679831,
-1.250093,-.709833,
-1.202703,-.731941,
-1.152194,-.745484,
-1.1001,-.75005,
-1.1,-.75,
1.1,-.75,
1.152095,-.745501,
1.202609,-.731975,
1.250007,-.709883,
1.292848,-.679895,
1.329831,-.642925,
1.359833,-.600093,
1.381941,-.552703,
1.395484,-.502194,
1.40005,-.4501,
1.4,-.45,
1.4,.45,
1.395501,.502095,
1.381975,.552609,
1.359883,.600007,
1.329895,.642848,
1.292925,.679831,
1.250093,.709833,
1.202703,.731941,
1.152194,.745484,
1.1001,.75005,
1.1,.75,
0.0*
%
%ADD18MACRO18*%
%ADD16R,1.02X.74*%
%ADD10R,.74X1.02*%
%ADD21R,1.1001X1.*%
%ADD13R,2.35X1.1501*%
%ADD15C,3.5*%
%ADD14R,2.35X3.4501*%
%ADD11R,2.X2.*%
%ADD19R,3.5X3.5*%
%ADD22R,1.651X1.651*%
%ADD23R,2.1001X1.5999*%
%ADD20C,3.5999*%
%ADD12C,1.8999*%
%LPD*%
G75*
G54D10*
X-55000Y900000D03*
X-75000Y1050000D03*
X115000Y900000D03*
X95000Y1050000D03*
X375000Y900000D03*
X225000D03*
X205000Y1050000D03*
X355000D03*
X2185000Y3750000D03*
X2035000D03*
X2775000Y1220000D03*
X2625000D03*
X4565000Y1860000D03*
X4245000Y1230000D03*
X4395000D03*
X4735000Y1860000D03*
X5685000Y3630000D03*
X5855000D03*
X5585000D03*
X5435000D03*
G54D20*
X4980000Y1560000D03*
Y2780000D03*
X6180000Y1560000D03*
X5580000Y2980000D03*
X6180000Y2780000D03*
G54D11*
X-291000Y2423000D03*
X4640000Y3127000D03*
G54D12*
X-291000Y2931000D03*
X2424000Y1400000D03*
Y2416000D03*
Y1908000D03*
X4640000Y2111000D03*
Y2365000D03*
Y2619000D03*
Y2873000D03*
G54D21*
X5165000Y3495000D03*
X4890000Y3400000D03*
Y3590000D03*
G54D22*
X5840000Y270000D03*
Y1050000D03*
G54D13*
X820070Y3289940D03*
Y3749940D03*
Y3519940D03*
X1850070Y3289940D03*
Y3749940D03*
Y3519940D03*
G54D23*
X5429550Y3370000D03*
X5850450D03*
G54D14*
X230000Y3520000D03*
X1260000D03*
G54D15*
X920000Y150000D03*
X1770000D03*
X2620000D03*
X3470000D03*
X4320000D03*
G54D16*
X1050000Y3275000D03*
Y3425000D03*
X2100000Y3295000D03*
Y3445000D03*
X2670000Y3015000D03*
Y3185000D03*
X4570000Y3395000D03*
Y3565000D03*
X4710000Y3395000D03*
Y3565000D03*
X6130000Y935000D03*
Y765000D03*
X6270000Y915000D03*
Y765000D03*
G54D17*
X3050000Y1300000D03*
X3850000D03*
X3650000D03*
X3450000D03*
X3250000D03*
X4050000D03*
G54D18*
X2750000Y1850000D03*
Y1650000D03*
Y1450000D03*
Y2450000D03*
Y2250000D03*
Y2050000D03*
Y2850000D03*
Y2650000D03*
X4350000Y1450000D03*
Y1650000D03*
Y1850000D03*
Y2050000D03*
Y2250000D03*
Y2450000D03*
Y2650000D03*
Y2850000D03*
G54D19*
X5170000Y150000D03*
M02*
