G04 ================== begin FILE IDENTIFICATION RECORD ==================*
G04 Layout Name:  C:/DATA/GIT/CADENCE/MODULES/WIFI_SWITCH/allegro/ESP8266_SWITCH.brd*
G04 Film Name:    BOTTOM*
G04 File Format:  Gerber RS274X*
G04 File Origin:  Cadence Allegro 17.2-P019*
G04 Origin Date:  Mon May 22 01:33:04 2017*
G04 *
G04 Layer:  ETCH/BOTTOM*
G04 Layer:  PIN/BOTTOM*
G04 Layer:  VIA CLASS/BOTTOM*
G04 *
G04 Offset:    (0.0000 0.0000)*
G04 Mirror:    No*
G04 Mode:      Positive*
G04 Rotation:  0*
G04 FullContactRelief:  No*
G04 UndefLineWidth:     0.0000*
G04 ================== end FILE IDENTIFICATION RECORD ====================*
%FSLAX25Y25*MOMM*%
%IR0*IPPOS*OFA0.00000B0.00000*MIA0B0*SFA1.00000B1.00000*%
%ADD12C,1.*%
%ADD15C,3.*%
%ADD11C,3.2*%
%ADD10C,3.5*%
%ADD13C,1.5999*%
%ADD14R,1.5999X1.5999*%
%ADD16C,.3*%
G75*
%LPD*%
G75*
G36*
G01X1383500Y3775000D02*
Y3810000D01*
X1330850Y3812650D01*
X1333500Y3760000D01*
X1368500D01*
G03X1383500Y3775000I0J15000D01*
G37*
G36*
G01X3594750Y3717670D02*
X3670000Y3647000D01*
X3753750Y3727000D01*
X3670000Y3807000D01*
X3594750Y3736330D01*
G03Y3717670I11750J-9330D01*
G37*
G36*
G01X4460180Y2100550D02*
X4435420Y2125290D01*
X4396320Y2089940D01*
X4435420Y2054590D01*
X4460180Y2079330D01*
G03Y2100550I-10610J10610D01*
G37*
G36*
G01X4789830Y2079330D02*
X4814590Y2054590D01*
X4853690Y2089940D01*
X4814590Y2125290D01*
X4789830Y2100550D01*
G03Y2079330I10610J-10610D01*
G37*
G54D10*
X254000Y254000D03*
Y3746500D03*
X6731000Y254000D03*
Y3746500D03*
G54D11*
X876000Y1108000D03*
Y2108000D03*
X5765500Y600000D03*
Y1600000D03*
G54D12*
X390000Y2550000D03*
X460000Y3069990D03*
X810000Y2850000D03*
X1008930Y3070000D03*
X1333500Y3810000D03*
X1410000Y3630000D03*
X4400070Y2089940D03*
X4380000Y2549940D03*
X4849940Y2089940D03*
G54D13*
X1987500Y722500D03*
Y1230500D03*
Y1738500D03*
X3750000Y2711000D03*
Y2965000D03*
Y3219000D03*
Y3473000D03*
X4702500Y207500D03*
G54D14*
X3750000Y3727000D03*
X4702500Y715500D03*
G54D15*
G01Y207500D02*
X1776500D01*
X876000Y1108000D01*
G01X6134500Y3648000D02*
X5520000Y3033500D01*
Y2160000D01*
X4950000Y1590000D01*
X3300000D01*
X2782000Y2108000D01*
X876000D01*
X4714500Y3048000D03*
X4914500Y2448000D03*
Y3648000D03*
X6134500Y2448000D03*
Y3648000D03*
G54D16*
G01X810000Y2850000D02*
Y2640000D01*
X720000Y2550000D01*
X390000D01*
G01X460000Y3069990D02*
X1020010Y3630000D01*
X1410000D01*
G01X4380000Y2549940D02*
X1200060D01*
X1038930Y2711070D01*
Y3040000D01*
X1008930Y3070000D01*
G01X1333500Y3810000D02*
X1416500Y3727000D01*
X3750000D01*
G01X4400070Y2089940D02*
X4849940D01*
M02*
