G04 ================== begin FILE IDENTIFICATION RECORD ==================*
G04 Layout Name:  C:/DATA/GIT/CADENCE/MODULES/WIFI_SWITCH/allegro/ESP8266_SWITCH.brd*
G04 Film Name:    SC_BOT*
G04 File Format:  Gerber RS274X*
G04 File Origin:  Cadence Allegro 17.2-P019*
G04 Origin Date:  Mon May 22 01:33:04 2017*
G04 *
G04 Layer:  REF DES/SILKSCREEN_BOTTOM*
G04 Layer:  PACKAGE GEOMETRY/SILKSCREEN_BOTTOM*
G04 Layer:  BOARD GEOMETRY/SILKSCREEN_BOTTOM*
G04 Layer:  BOARD GEOMETRY/DESIGN_OUTLINE*
G04 *
G04 Offset:    (0.0000 0.0000)*
G04 Mirror:    No*
G04 Mode:      Positive*
G04 Rotation:  0*
G04 FullContactRelief:  No*
G04 UndefLineWidth:     0.0000*
G04 ================== end FILE IDENTIFICATION RECORD ====================*
%FSLAX25Y25*MOMM*%
%IR0*IPPOS*OFA0.00000B0.00000*MIA0B0*SFA1.00000B1.00000*%
%ADD10C,.15*%
%ADD11C,.254*%
G75*
%LPD*%
G75*
G54D10*
G01X340000Y1785130D02*
X261260Y1760790D01*
X340000Y1736450D01*
G01X312440Y1745210D02*
Y1776370D01*
G01X267820Y1660630D02*
X263880Y1666470D01*
X261260Y1673290D01*
Y1681080D01*
X265200Y1689840D01*
X271760Y1696650D01*
X279630Y1701520D01*
X292760Y1705420D01*
X304570Y1706390D01*
X316380Y1704440D01*
X324250Y1701520D01*
X332130Y1695680D01*
X337380Y1688870D01*
X340000Y1682050D01*
Y1675230D01*
X337380Y1668420D01*
X333440Y1662580D01*
X328190Y1657710D01*
G01X340000Y1524570D02*
X338690Y1532360D01*
X333440Y1539170D01*
X325570Y1545020D01*
X316380Y1548910D01*
X305880Y1550860D01*
X295380D01*
X284880Y1548910D01*
X275690Y1545020D01*
X267820Y1539170D01*
X262570Y1532360D01*
X261260Y1524570D01*
X262570Y1516780D01*
X267820Y1509970D01*
X275690Y1504120D01*
X284880Y1500230D01*
X295380Y1498280D01*
X305880D01*
X316380Y1500230D01*
X325570Y1504120D01*
X333440Y1509970D01*
X338690Y1516780D01*
X340000Y1524570D01*
G01X261260Y1467250D02*
X317690D01*
X329500Y1463360D01*
X337380Y1455570D01*
X340000Y1445830D01*
X337380Y1436090D01*
X329500Y1428300D01*
X317690Y1424410D01*
X261260D01*
G01Y1367090D02*
X340000D01*
G01X261260Y1389480D02*
Y1344700D01*
G01X6650000Y1255130D02*
X6571260Y1230790D01*
X6650000Y1206450D01*
G01X6622440Y1215210D02*
Y1246370D01*
G01X6577820Y1130630D02*
X6573880Y1136470D01*
X6571260Y1143290D01*
Y1151080D01*
X6575200Y1159840D01*
X6581760Y1166650D01*
X6589630Y1171520D01*
X6602760Y1175420D01*
X6614570Y1176390D01*
X6626380Y1174440D01*
X6634250Y1171520D01*
X6642130Y1165680D01*
X6647380Y1158870D01*
X6650000Y1152050D01*
Y1145230D01*
X6647380Y1138420D01*
X6643440Y1132580D01*
X6638190Y1127710D01*
G01X6571260Y1006250D02*
Y982890D01*
G01Y994570D02*
X6650000D01*
G01Y1006250D02*
Y982890D01*
G01Y938220D02*
X6571260D01*
X6650000Y893440D01*
X6571260D01*
G54D11*
G01X3877000Y3854000D02*
Y2584000D01*
X3623000D01*
Y3854000D01*
X3877000D01*
M02*
