G04 ================== begin FILE IDENTIFICATION RECORD ==================*
G04 Layout Name:  C:/DATA/GIT/CADENCE/MODULES/WIFI_SWITCH/allegro/ESP8266_SWITCH.brd*
G04 Film Name:    SM_BOT*
G04 File Format:  Gerber RS274X*
G04 File Origin:  Cadence Allegro 17.2-P019*
G04 Origin Date:  Mon May 22 01:33:04 2017*
G04 *
G04 Layer:  VIA CLASS/SOLDERMASK_BOTTOM*
G04 Layer:  PIN/SOLDERMASK_BOTTOM*
G04 Layer:  PACKAGE GEOMETRY/SOLDERMASK_BOTTOM*
G04 Layer:  BOARD GEOMETRY/SOLDERMASK_BOTTOM*
G04 *
G04 Offset:    (0.0000 0.0000)*
G04 Mirror:    No*
G04 Mode:      Positive*
G04 Rotation:  0*
G04 FullContactRelief:  No*
G04 UndefLineWidth:     0.0000*
G04 ================== end FILE IDENTIFICATION RECORD ====================*
%FSLAX25Y25*MOMM*%
%IR0*IPPOS*OFA0.00000B0.00000*MIA0B0*SFA1.00000B1.00000*%
%ADD11C,1.5*%
%ADD10C,3.7*%
%ADD13R,1.8001X1.8001*%
%ADD14C,3.5999*%
%ADD12C,1.8999*%
G75*
%LPD*%
G75*
G36*
G01X1720000Y80000D02*
X4750000D01*
X4830000Y160000D01*
Y260000D01*
X4760000Y330000D01*
X1830000D01*
X950000Y1210000D01*
Y1220000D01*
X930000Y1240000D01*
X820000D01*
X750000Y1170000D01*
Y1050000D01*
X1720000Y80000D01*
G37*
G36*
G01X830000Y2240000D02*
X2830000D01*
X3360000Y1710000D01*
X4910000D01*
X5400000Y2200000D01*
Y3090000D01*
X6080000Y3770000D01*
X6190000D01*
X6260000Y3700000D01*
Y3590000D01*
X5640000Y2970000D01*
Y2120000D01*
X4990000Y1470000D01*
X3260000D01*
X2740000Y1990000D01*
X800000D01*
X750000Y2040000D01*
Y2160000D01*
X830000Y2240000D01*
G37*
G54D10*
X876000Y1108000D03*
Y2108000D03*
X5765500Y600000D03*
Y1600000D03*
G54D11*
X390000Y2550000D03*
X460000Y3069990D03*
X810000Y2850000D03*
X1008930Y3070000D03*
X1333500Y3810000D03*
X1410000Y3630000D03*
X4400070Y2089940D03*
X4380000Y2549940D03*
X4849940Y2089940D03*
G54D12*
X1987500Y722500D03*
Y1230500D03*
Y1738500D03*
X3750000Y2711000D03*
Y2965000D03*
Y3219000D03*
Y3473000D03*
X4702500Y207500D03*
G54D13*
X3750000Y3727000D03*
X4702500Y715500D03*
G54D14*
X4714500Y3048000D03*
X4914500Y2448000D03*
Y3648000D03*
X6134500Y2448000D03*
Y3648000D03*
M02*
