G04 ================== begin FILE IDENTIFICATION RECORD ==================*
G04 Layout Name:  C:/DATA/GIT/CADENCE/MODULES/WIFI_SWITCH/allegro/ESP8266_SWITCH.brd*
G04 Film Name:    SM_TOP*
G04 File Format:  Gerber RS274X*
G04 File Origin:  Cadence Allegro 17.2-P019*
G04 Origin Date:  Mon May 22 01:33:04 2017*
G04 *
G04 Layer:  VIA CLASS/SOLDERMASK_TOP*
G04 Layer:  PIN/SOLDERMASK_TOP*
G04 Layer:  PACKAGE GEOMETRY/SOLDERMASK_TOP*
G04 Layer:  BOARD GEOMETRY/SOLDERMASK_TOP*
G04 *
G04 Offset:    (0.0000 0.0000)*
G04 Mirror:    No*
G04 Mode:      Positive*
G04 Rotation:  0*
G04 FullContactRelief:  No*
G04 UndefLineWidth:     0.0000*
G04 ================== end FILE IDENTIFICATION RECORD ====================*
%FSLAX25Y25*MOMM*%
%IR0*IPPOS*OFA0.00000B0.00000*MIA0B0*SFA1.00000B1.00000*%
%AMMACRO17*
4,1,44,-.75,1.1,
-.75,-1.1,
-.745501,-1.152095,
-.731975,-1.202609,
-.709883,-1.250007,
-.679895,-1.292848,
-.642925,-1.329831,
-.600093,-1.359833,
-.552703,-1.381941,
-.502194,-1.395484,
-.4501,-1.40005,
-.45,-1.4,
.45,-1.4,
.502095,-1.395501,
.552609,-1.381975,
.600007,-1.359883,
.642848,-1.329895,
.679831,-1.292925,
.709833,-1.250093,
.731941,-1.202703,
.745484,-1.152194,
.75005,-1.1001,
.75,-1.1,
.75,1.1,
.745501,1.152095,
.731975,1.202609,
.709883,1.250007,
.679895,1.292848,
.642925,1.329831,
.600093,1.359833,
.552703,1.381941,
.502194,1.395484,
.4501,1.40005,
.45,1.4,
-.45,1.4,
-.502095,1.395501,
-.552609,1.381975,
-.600007,1.359883,
-.642848,1.329895,
-.679831,1.292925,
-.709833,1.250093,
-.731941,1.202703,
-.745484,1.152194,
-.75005,1.1001,
-.75,1.1,
0.0*
%
%ADD17MACRO17*%
%AMMACRO18*
4,1,44,1.1,.75,
-1.1,.75,
-1.152095,.745501,
-1.202609,.731975,
-1.250007,.709883,
-1.292848,.679895,
-1.329831,.642925,
-1.359833,.600093,
-1.381941,.552703,
-1.395484,.502194,
-1.40005,.4501,
-1.4,.45,
-1.4,-.45,
-1.395501,-.502095,
-1.381975,-.552609,
-1.359883,-.600007,
-1.329895,-.642848,
-1.292925,-.679831,
-1.250093,-.709833,
-1.202703,-.731941,
-1.152194,-.745484,
-1.1001,-.75005,
-1.1,-.75,
1.1,-.75,
1.152095,-.745501,
1.202609,-.731975,
1.250007,-.709883,
1.292848,-.679895,
1.329831,-.642925,
1.359833,-.600093,
1.381941,-.552703,
1.395484,-.502194,
1.40005,-.4501,
1.4,-.45,
1.4,.45,
1.395501,.502095,
1.381975,.552609,
1.359883,.600007,
1.329895,.642848,
1.292925,.679831,
1.250093,.709833,
1.202703,.731941,
1.152194,.745484,
1.1001,.75005,
1.1,.75,
0.0*
%
%ADD18MACRO18*%
%ADD24R,1.X1.1001*%
%ADD21R,2.35X1.1501*%
%ADD12R,1.1501X2.35*%
%ADD11C,1.5*%
%ADD20R,2.X2.*%
%ADD19R,2.35X3.4501*%
%ADD14R,3.4501X2.35*%
%ADD10C,3.7*%
%ADD13R,1.4X1.4*%
%ADD15R,1.651X1.651*%
%ADD23R,1.5999X2.1001*%
%ADD22C,3.5999*%
%ADD16C,1.8999*%
G75*
%LPD*%
G75*
G36*
G01X4650000Y340000D02*
X5320000D01*
X5710000Y730000D01*
X5820000D01*
X5900000Y650000D01*
Y560000D01*
X5420000Y80000D01*
X4650000D01*
X4570000Y160000D01*
Y260000D01*
X4650000Y340000D01*
G37*
G36*
G01X4580000Y890000D02*
X5420000Y1730000D01*
X5640000D01*
Y2140000D01*
X4850000Y2930000D01*
X4660000D01*
X4610000Y2980000D01*
Y3110000D01*
X4680000Y3180000D01*
X4940000D01*
X5880000Y2240000D01*
Y1540000D01*
X5820000Y1480000D01*
X5530000D01*
X4840000Y790000D01*
X4830000D01*
Y680000D01*
X4760000Y610000D01*
X4630000D01*
X4580000Y660000D01*
Y890000D01*
G37*
G54D10*
X876000Y1108000D03*
Y2108000D03*
X5765500Y600000D03*
Y1600000D03*
G54D20*
X3750000Y3727000D03*
X4702500Y715500D03*
G54D11*
X390000Y2550000D03*
X460000Y3069990D03*
X810000Y2850000D03*
X1008930Y3070000D03*
X1333500Y3810000D03*
X1410000Y3630000D03*
X4400070Y2089940D03*
X4380000Y2549940D03*
X4849940Y2089940D03*
G54D12*
X689940Y3079930D03*
X459940D03*
X919940D03*
G54D21*
X4400070Y2549940D03*
Y2319940D03*
Y2089940D03*
G54D22*
X4714500Y3048000D03*
X4914500Y2448000D03*
Y3648000D03*
X6134500Y2448000D03*
Y3648000D03*
G54D13*
X180000Y2850000D03*
X390000D03*
X180000Y3060000D03*
Y3270000D03*
X600000Y2850000D03*
X1162500Y127000D03*
X952500D03*
X1162500Y317500D03*
X952500D03*
X810000Y2850000D03*
X1543500Y3810000D03*
X1333500D03*
X1162500D03*
X952500D03*
X1714500Y2115000D03*
Y1905000D03*
X4050000Y3030000D03*
X4260000D03*
X4050000Y2850000D03*
X4260000D03*
X4845500Y2095500D03*
X4635500D03*
X6794500Y1607000D03*
Y1397000D03*
Y1885500D03*
Y2095500D03*
X6648000Y3175000D03*
X6858000D03*
X6648000Y2921000D03*
X6858000D03*
G54D23*
X4381500Y3282050D03*
Y3702950D03*
G54D14*
X690000Y3670000D03*
G54D15*
X1397000Y2848500D03*
Y3628500D03*
G54D24*
X6763000Y2392000D03*
X6668000Y2667000D03*
X6858000D03*
G54D16*
X1987500Y722500D03*
Y1230500D03*
Y1738500D03*
X3750000Y2711000D03*
Y2965000D03*
Y3219000D03*
Y3473000D03*
X4702500Y207500D03*
G54D17*
X2141500Y2159000D03*
X2941500D03*
X2741500D03*
X2541500D03*
X2341500D03*
X3141500D03*
G54D18*
X1841500Y2509000D03*
Y2309000D03*
Y3309000D03*
Y3109000D03*
Y2909000D03*
Y2709000D03*
Y3709000D03*
Y3509000D03*
X3441500Y2309000D03*
Y2509000D03*
Y2709000D03*
Y2909000D03*
Y3109000D03*
Y3309000D03*
Y3509000D03*
Y3709000D03*
G54D19*
X3810000Y2320000D03*
M02*
