G04 ================== begin FILE IDENTIFICATION RECORD ==================*
G04 Layout Name:  C:/DATA/GIT/CADENCE/MODULES/WIFI_SWITCH/allegro/ESP8266_SWITCH.brd*
G04 Film Name:    TOP*
G04 File Format:  Gerber RS274X*
G04 File Origin:  Cadence Allegro 17.2-P019*
G04 Origin Date:  Mon May 22 01:33:04 2017*
G04 *
G04 Layer:  ETCH/TOP*
G04 Layer:  PIN/TOP*
G04 Layer:  VIA CLASS/TOP*
G04 *
G04 Offset:    (0.0000 0.0000)*
G04 Mirror:    No*
G04 Mode:      Positive*
G04 Rotation:  0*
G04 FullContactRelief:  No*
G04 UndefLineWidth:     0.0000*
G04 ================== end FILE IDENTIFICATION RECORD ====================*
%FSLAX25Y25*MOMM*%
%IR0*IPPOS*OFA0.00000B0.00000*MIA0B0*SFA1.00000B1.00000*%
%ADD22R,2.1501X.95*%
%ADD13R,.95X2.1501*%
%AMMACRO18*
4,1,44,-.5999,.95,
-.5999,-.95,
-.595401,-1.002095,
-.581875,-1.052609,
-.559783,-1.100007,
-.529795,-1.142848,
-.492825,-1.179831,
-.449993,-1.209833,
-.402603,-1.231941,
-.352094,-1.245484,
-.3,-1.25005,
-.2999,-1.25,
.2999,-1.25,
.351995,-1.245501,
.402509,-1.231975,
.449907,-1.209883,
.492748,-1.179895,
.529731,-1.142925,
.559733,-1.100093,
.581841,-1.052703,
.595384,-1.002194,
.59995,-.9501,
.5999,-.95,
.5999,.95,
.595401,1.002095,
.581875,1.052609,
.559783,1.100007,
.529795,1.142848,
.492825,1.179831,
.449993,1.209833,
.402603,1.231941,
.352094,1.245484,
.3,1.25005,
.2999,1.25,
-.2999,1.25,
-.351995,1.245501,
-.402509,1.231975,
-.449907,1.209883,
-.492748,1.179895,
-.529731,1.142925,
-.559733,1.100093,
-.581841,1.052703,
-.595384,1.002194,
-.59995,.9501,
-.5999,.95,
0.0*
%
%ADD18MACRO18*%
%AMMACRO19*
4,1,44,.95,.5999,
-.95,.5999,
-1.002095,.595401,
-1.052609,.581875,
-1.100007,.559783,
-1.142848,.529795,
-1.179831,.492825,
-1.209833,.449993,
-1.231941,.402603,
-1.245484,.352094,
-1.25005,.3,
-1.25,.2999,
-1.25,-.2999,
-1.245501,-.351995,
-1.231975,-.402509,
-1.209883,-.449907,
-1.179895,-.492748,
-1.142925,-.529731,
-1.100093,-.559733,
-1.052703,-.581841,
-1.002194,-.595384,
-.9501,-.59995,
-.95,-.5999,
.95,-.5999,
1.002095,-.595401,
1.052609,-.581875,
1.100007,-.559783,
1.142848,-.529795,
1.179831,-.492825,
1.209833,-.449993,
1.231941,-.402603,
1.245484,-.352094,
1.25005,-.3,
1.25,-.2999,
1.25,.2999,
1.245501,.351995,
1.231975,.402509,
1.209883,.449907,
1.179895,.492748,
1.142925,.529731,
1.100093,.559733,
1.052703,.581841,
1.002194,.595384,
.9501,.59995,
.95,.5999,
0.0*
%
%ADD19MACRO19*%
%ADD12C,1.*%
%ADD23C,3.*%
%ADD11C,3.2*%
%ADD10C,3.5*%
%ADD16R,1.524X1.524*%
%ADD20R,2.1501X3.2499*%
%ADD24R,1.5999X2.1001*%
%ADD15R,3.2499X2.1501*%
%ADD17C,1.5999*%
%ADD25R,.8001X.8999*%
%ADD14R,1.1999X1.1999*%
%ADD21R,1.5999X1.5999*%
%ADD26C,.3*%
G75*
%LPD*%
G75*
G36*
G01X189000Y2733020D02*
X240000Y2790000D01*
X180000Y2853750D01*
X120000Y2790000D01*
X171000Y2733020D01*
G03X189000I9000J12000D01*
G37*
G36*
G01X171000Y2966980D02*
X120000Y2910000D01*
X180000Y2846250D01*
X240000Y2910000D01*
X189000Y2966980D01*
G03X171000I-9000J-12000D01*
G37*
G36*
G01X189000Y2943020D02*
X240000Y3000000D01*
X180000Y3063750D01*
X120000Y3000000D01*
X171000Y2943020D01*
G03X189000I9000J12000D01*
G37*
G36*
G01X506980Y2859000D02*
X450000Y2910000D01*
X386250Y2850000D01*
X450000Y2790000D01*
X506980Y2841000D01*
G03Y2859000I-12000J9000D01*
G37*
G36*
G01X607620Y2746610D02*
X651690Y2790020D01*
X600000Y2853750D01*
X548310Y2790020D01*
X592380Y2746610D01*
G03X607620I7620J12920D01*
G37*
G36*
G01X483020Y2841000D02*
X540000Y2790000D01*
X603750Y2850000D01*
X540000Y2910000D01*
X483020Y2859000D01*
G03Y2841000I12000J-9000D01*
G37*
G36*
G01X1171500Y200520D02*
X1222500Y257500D01*
X1162500Y321250D01*
X1102500Y257500D01*
X1153500Y200520D01*
G03X1171500I9000J12000D01*
G37*
G36*
G01X1153500Y243980D02*
X1102500Y187000D01*
X1162500Y123250D01*
X1222500Y187000D01*
X1171500Y243980D01*
G03X1153500I-9000J-12000D01*
G37*
G36*
G01X1279480Y3819000D02*
X1222500Y3870000D01*
X1158750Y3810000D01*
X1222500Y3750000D01*
X1279480Y3801000D01*
G03Y3819000I-12000J9000D01*
G37*
G36*
G01X1216520Y3801000D02*
X1273500Y3750000D01*
X1337250Y3810000D01*
X1273500Y3870000D01*
X1216520Y3819000D01*
G03Y3801000I12000J-9000D01*
G37*
G36*
G01X944880Y3913390D02*
X900810Y3869980D01*
X952500Y3806250D01*
X1004190Y3869980D01*
X960120Y3913390D01*
G03X944880I-7620J-12920D01*
G37*
G36*
G01X1831480Y1914000D02*
X1774500Y1965000D01*
X1710750Y1905000D01*
X1774500Y1845000D01*
X1831480Y1896000D01*
G03Y1914000I-12000J9000D01*
G37*
G36*
G01X1646890Y3817620D02*
X1603480Y3861690D01*
X1539750Y3810000D01*
X1603480Y3758310D01*
X1646890Y3802380D01*
G03Y3817620I-12920J7620D01*
G37*
G36*
G01X3852530Y2721610D02*
X3806560Y2767560D01*
X3746250Y2711000D01*
X3806560Y2654440D01*
X3852530Y2700390D01*
G03Y2721610I-10610J10610D01*
G37*
G36*
G01X3685000Y2631000D02*
X3750000Y2631010D01*
X3752650Y2713650D01*
X3670010Y2711000D01*
X3670000Y2646000D01*
G03X3685000Y2631000I15000J0D01*
G37*
G36*
G01X3647470Y3208390D02*
X3693440Y3162440D01*
X3753750Y3219000D01*
X3693440Y3275560D01*
X3647470Y3229610D01*
G03Y3208390I10610J-10610D01*
G37*
G36*
G01Y2954390D02*
X3693440Y2908440D01*
X3753750Y2965000D01*
X3693440Y3021560D01*
X3647470Y2975610D01*
G03Y2954390I10610J-10610D01*
G37*
G36*
G01Y3462390D02*
X3693440Y3416440D01*
X3753750Y3473000D01*
X3693440Y3529560D01*
X3647470Y3483610D01*
G03Y3462390I10610J-10610D01*
G37*
G36*
G01X4319890Y2539330D02*
X4344650Y2514590D01*
X4383750Y2549940D01*
X4344650Y2585290D01*
X4319890Y2560550D01*
G03Y2539330I10610J-10610D01*
G37*
G36*
G01X4552440Y2328410D02*
X4507580Y2367440D01*
X4396320Y2319940D01*
X4507580Y2272440D01*
X4552440Y2311470D01*
G03Y2328410I-12380J8470D01*
G37*
G36*
G01X4013040Y3040610D02*
X3970610Y3083040D01*
X3956250Y3045000D01*
Y3015000D01*
X3970610Y2976960D01*
X4013040Y3019390D01*
G03Y3040610I-10610J10610D01*
G37*
G36*
G01X3947060Y3022420D02*
X3990020Y2978780D01*
X4053750Y3030000D01*
X3990020Y3081220D01*
X3947060Y3037580D01*
G03Y3022420I12940J-7580D01*
G37*
G36*
G01X4059000Y2913020D02*
X4110000Y2970000D01*
X4050000Y3033750D01*
X3990000Y2970000D01*
X4041000Y2913020D01*
G03X4059000I9000J12000D01*
G37*
G36*
G01X4041000Y2966980D02*
X3990000Y2910000D01*
X4050000Y2846250D01*
X4110000Y2910000D01*
X4059000Y2966980D01*
G03X4041000I-9000J-12000D01*
G37*
G36*
G01X4269000Y2913020D02*
X4320000Y2970000D01*
X4260000Y3033750D01*
X4200000Y2970000D01*
X4251000Y2913020D01*
G03X4269000I9000J12000D01*
G37*
G36*
G01Y2733020D02*
X4320000Y2790000D01*
X4260000Y2853750D01*
X4200000Y2790000D01*
X4251000Y2733020D01*
G03X4269000I9000J12000D01*
G37*
G36*
G01X4251000Y2966980D02*
X4200000Y2910000D01*
X4260000Y2846250D01*
X4320000Y2910000D01*
X4269000Y2966980D01*
G03X4251000I-9000J-12000D01*
G37*
G36*
G01X4390830Y3101790D02*
X4461500Y3177040D01*
X4381500Y3285800D01*
X4301500Y3177040D01*
X4372170Y3101790D01*
G03X4390830I9330J11750D01*
G37*
G36*
G01X4646110Y2266900D02*
X4688540Y2309330D01*
X4650500Y2323690D01*
X4620500D01*
X4582460Y2309330D01*
X4624890Y2266900D01*
G03X4646110I10610J10610D01*
G37*
G36*
G01X4626500Y2212480D02*
X4575500Y2155500D01*
X4635500Y2091750D01*
X4695500Y2155500D01*
X4644500Y2212480D01*
G03X4626500I-9000J-12000D01*
G37*
G36*
G01X6785500Y1723980D02*
X6734500Y1667000D01*
X6794500Y1603250D01*
X6854500Y1667000D01*
X6803500Y1723980D01*
G03X6785500I-9000J-12000D01*
G37*
G36*
G01X6803500Y1768520D02*
X6854500Y1825500D01*
X6794500Y1889250D01*
X6734500Y1825500D01*
X6785500Y1768520D01*
G03X6803500I9000J12000D01*
G37*
G36*
G01X6680530Y2383680D02*
X6723000Y2347000D01*
X6766750Y2392000D01*
X6723000Y2437000D01*
X6680530Y2400320D01*
G03Y2383680I12480J-8320D01*
G37*
G36*
G01X6660050Y2749710D02*
X6628000Y2712000D01*
X6668000Y2663250D01*
X6708000Y2712000D01*
X6675950Y2749710D01*
G03X6660050I-7950J-12720D01*
G37*
G36*
G01X6544610Y2913380D02*
X6588020Y2869310D01*
X6651750Y2921000D01*
X6588020Y2972690D01*
X6544610Y2928620D01*
G03Y2913380I12920J-7620D01*
G37*
G36*
G01X6680690Y2789510D02*
X6708000Y2861000D01*
X6647400Y2924700D01*
X6588000Y2861000D01*
X6658670Y2785750D01*
G03X6680690Y2789510I9325J11749D01*
G37*
G36*
G01X6850050Y2749710D02*
X6818000Y2712000D01*
X6858000Y2663250D01*
X6898000Y2712000D01*
X6865950Y2749710D01*
G03X6850050I-7950J-12720D01*
G37*
G36*
G01X6867000Y3058020D02*
X6918000Y3115000D01*
X6858000Y3178750D01*
X6798000Y3115000D01*
X6849000Y3058020D01*
G03X6867000I9000J12000D01*
G37*
G36*
G01Y2804020D02*
X6918000Y2861000D01*
X6858000Y2924750D01*
X6798000Y2861000D01*
X6849000Y2804020D01*
G03X6867000I9000J12000D01*
G37*
G36*
G01X6849000Y3037980D02*
X6798000Y2981000D01*
X6858000Y2917250D01*
X6918000Y2981000D01*
X6867000Y3037980D01*
G03X6849000I-9000J-12000D01*
G37*
G54D10*
X254000Y254000D03*
Y3746500D03*
X6731000Y254000D03*
Y3746500D03*
G54D20*
X3810000Y2320000D03*
G54D11*
X876000Y1108000D03*
Y2108000D03*
X5765500Y600000D03*
Y1600000D03*
G54D21*
X3750000Y3727000D03*
X4702500Y715500D03*
G54D12*
X390000Y2550000D03*
X460000Y3069990D03*
X810000Y2850000D03*
X1008930Y3070000D03*
X1333500Y3810000D03*
X1410000Y3630000D03*
X4400070Y2089940D03*
X4380000Y2549940D03*
X4849940Y2089940D03*
G54D13*
X689940Y3079930D03*
X459940D03*
X919940D03*
G54D22*
X4400070Y2549940D03*
Y2319940D03*
Y2089940D03*
G54D14*
X180000Y2850000D03*
X390000D03*
X180000Y3060000D03*
Y3270000D03*
X600000Y2850000D03*
X1162500Y127000D03*
X952500D03*
X1162500Y317500D03*
X952500D03*
X810000Y2850000D03*
X1543500Y3810000D03*
X1333500D03*
X1162500D03*
X952500D03*
X1714500Y2115000D03*
Y1905000D03*
X4050000Y3030000D03*
X4260000D03*
X4050000Y2850000D03*
X4260000D03*
X4845500Y2095500D03*
X4635500D03*
X6794500Y1607000D03*
Y1397000D03*
Y1885500D03*
Y2095500D03*
X6648000Y3175000D03*
X6858000D03*
X6648000Y2921000D03*
X6858000D03*
G54D23*
G01X4702500Y715500D02*
Y825970D01*
X5476530Y1600000D01*
X5765500D01*
G01Y600000D02*
X5373000Y207500D01*
X4702500D01*
G01X5765500Y1600000D02*
Y2177480D01*
X4894980Y3048000D01*
X4714500D01*
D03*
X4914500Y2448000D03*
Y3648000D03*
X6134500Y2448000D03*
Y3648000D03*
G54D15*
X690000Y3670000D03*
G54D24*
X4381500Y3282050D03*
Y3702950D03*
G54D25*
X6763000Y2392000D03*
X6668000Y2667000D03*
X6858000D03*
G54D16*
X1397000Y2848500D03*
Y3628500D03*
G54D26*
G01X1987500Y722500D02*
Y67500D01*
X1890000Y-30000D01*
X869990D01*
X180000Y659990D01*
Y2850000D01*
G01X1841500Y2509000D02*
X1776490D01*
X1620490Y2665000D01*
X275000D01*
X240000Y2630000D01*
Y839500D01*
X952500Y127000D01*
G01X390000Y2550000D02*
X1360010D01*
X1601010Y2309000D01*
X1841500D01*
G01X689940Y3079930D02*
X680000Y3089870D01*
Y3340000D01*
G01D02*
X650000Y3370000D01*
X210000D01*
X180000Y3340000D01*
Y3270000D01*
G01X680000Y3340000D02*
X730000Y3390000D01*
X1090000D01*
X1162500Y3462500D01*
Y3810000D01*
G01X810000Y2850000D02*
Y2959870D01*
X809970Y2959900D01*
X748800D01*
X689940Y3018760D01*
Y3079930D01*
G01X180000Y3060000D02*
Y2850000D01*
G01Y3060000D02*
X372310D01*
X382300Y3069990D01*
X460000D01*
G01X390000Y2850000D02*
X600000D01*
G01X1397000Y2848500D02*
X1278500Y2730000D01*
X629530D01*
X600000Y2759530D01*
Y2850000D01*
G01X1162500Y317500D02*
Y127000D01*
G01X952500Y317500D02*
X1012520Y377520D01*
Y393740D01*
X1021300Y402520D01*
X1063890D01*
X1083870Y422500D01*
X1232500D01*
X1490000Y680000D01*
Y2085000D01*
X1520000Y2115000D01*
X1714500D01*
G01X1008930Y3070000D02*
X929870D01*
X919940Y3079930D01*
G01X1397000Y2848500D02*
Y3047000D01*
X1459000Y3109000D01*
X1841500D01*
G01X1333500Y3810000D02*
X1162500D01*
G01X3441500Y2909000D02*
X2460990D01*
X2370000Y2999990D01*
Y3840040D01*
X2280080Y3930000D01*
X982030D01*
X952500Y3900470D01*
Y3810000D01*
G01X1714500Y1905000D02*
Y805500D01*
X1797500Y722500D01*
X1987500D01*
G01X4400070Y2089940D02*
Y1370060D01*
X3752510Y722500D01*
X1987500D01*
G01Y1738500D02*
X4018510D01*
X4110000Y1829990D01*
Y2460000D01*
X4199940Y2549940D01*
X4380000D01*
G01X1841500Y2309000D02*
Y2242000D01*
X1714500Y2115000D01*
G01X3441500Y2309000D02*
Y2001500D01*
X3345000Y1905000D01*
X1714500D01*
G01X1841500Y3309000D02*
X2160000D01*
X2230180Y3379180D01*
Y3600000D01*
X2230220Y3799780D01*
X2171230Y3858800D01*
X1682770D01*
X1633970Y3810000D01*
X1543500D01*
G01X3441500Y3309000D02*
X2961000D01*
X2886220Y3383780D01*
Y3900000D01*
X2916220Y3930000D01*
X6270000D01*
X6480000Y3720000D01*
Y3343000D01*
X6648000Y3175000D01*
G01X3441500Y2309000D02*
X3594210D01*
X3657490Y2372280D01*
Y2618490D01*
X3750000Y2711000D01*
G01X3960000Y3030000D02*
Y2810530D01*
X3860470Y2711000D01*
X3750000D01*
G01X3441500Y3509000D02*
X3506510D01*
X3625000Y3390510D01*
Y3233530D01*
X3639530Y3219000D01*
X3750000D01*
G01Y2965000D02*
X3497500D01*
X3441500Y2909000D01*
G01X3750000Y3473000D02*
X3639530D01*
X3611520Y3501010D01*
Y3603990D01*
X3506510Y3709000D01*
X3441500D01*
G01X4260000Y2850000D02*
Y2630010D01*
X4340070Y2549940D01*
X4400070D01*
G01X4380000D02*
X4400070D01*
G01Y2319940D02*
X4635500D01*
G01X4050000Y3030000D02*
Y2850000D01*
G01Y3030000D02*
X3960000D01*
G01X6648000Y2921000D02*
X6557530D01*
X5608530Y3870000D01*
X4140000D01*
X3960000Y3690000D01*
Y3030000D01*
G01X4260000D02*
Y2850000D01*
G01X4914500Y2448000D02*
X4381500Y2981000D01*
Y3282050D01*
G01D02*
X5807950D01*
X6480000Y2610000D01*
Y1427000D01*
X6510000Y1397000D01*
X6794500D01*
G01X4381500Y3702950D02*
X4489200D01*
X4544150Y3648000D01*
X4914500D01*
G01X4635500Y2319940D02*
X4786440D01*
X4914500Y2448000D01*
G01X4635500Y2095500D02*
Y2319940D01*
G01X6763000Y2392000D02*
X6677440D01*
X6570000Y2499440D01*
Y2699990D01*
X5621990Y3648000D01*
X4914500D01*
G01X6794500Y1607000D02*
Y1885500D01*
G01Y2095500D02*
X6692510Y2197490D01*
Y2316520D01*
X6763000Y2387010D01*
Y2392000D01*
G01X6668000Y2667000D02*
Y2901000D01*
X6648000Y2921000D01*
G01X6858000Y3175000D02*
Y2921000D01*
G01Y2667000D02*
Y2921000D01*
G54D17*
X1987500Y722500D03*
Y1230500D03*
Y1738500D03*
X3750000Y2711000D03*
Y2965000D03*
Y3219000D03*
Y3473000D03*
X4702500Y207500D03*
G54D18*
X2141500Y2159000D03*
X2941500D03*
X2741500D03*
X2541500D03*
X2341500D03*
X3141500D03*
G54D19*
X1841500Y2509000D03*
Y2309000D03*
Y3309000D03*
Y3109000D03*
Y2909000D03*
Y2709000D03*
Y3709000D03*
Y3509000D03*
X3441500Y2309000D03*
Y2509000D03*
Y2709000D03*
Y2909000D03*
Y3109000D03*
Y3309000D03*
Y3509000D03*
Y3709000D03*
M02*
