G04 ================== begin FILE IDENTIFICATION RECORD ==================*
G04 Layout Name:  ZWAVE_SWITCH.brd*
G04 Film Name:    SC_TOP*
G04 File Format:  Gerber RS274X*
G04 File Origin:  Cadence Allegro 17.2-P019*
G04 Origin Date:  Sun May 21 20:44:41 2017*
G04 *
G04 Layer:  REF DES/SILKSCREEN_TOP*
G04 Layer:  PACKAGE GEOMETRY/SILKSCREEN_TOP*
G04 Layer:  BOARD GEOMETRY/SILKSCREEN_TOP*
G04 Layer:  BOARD GEOMETRY/OUTLINE*
G04 Layer:  BOARD GEOMETRY/DESIGN_OUTLINE*
G04 *
G04 Offset:    (0.0000 0.0000)*
G04 Mirror:    No*
G04 Mode:      Positive*
G04 Rotation:  0*
G04 FullContactRelief:  No*
G04 UndefLineWidth:     0.0000*
G04 ================== end FILE IDENTIFICATION RECORD ====================*
%FSLAX25Y25*MOMM*%
%IR0*IPPOS*OFA0.00000B0.00000*MIA0B0*SFA1.00000B1.00000*%
%ADD10C,.1*%
%ADD11C,.2*%
%ADD12C,.5*%
%ADD13C,.15*%
%ADD14C,.254*%
G75*
%LPD*%
G75*
G36*
G01X-2125400Y1786200D02*
G03I-50000J0D01*
G37*
G36*
G01X-1075000Y944550D02*
G02I-15000J0D01*
G37*
G54D10*
G01X-5430000Y-2410000D02*
X1700000D01*
Y2310000D01*
X-5430000D01*
Y-2410000D01*
G01X-4440000Y1680000D02*
Y780000D01*
X-5340000D01*
Y1680000D01*
X-4440000D01*
G01X-4060000Y1150000D02*
X-4430000D01*
Y1310000D01*
X-4060000D01*
Y1150000D01*
G01X-4220000Y1230000D02*
X-4225000D01*
Y1210000D01*
X-4240000Y1250000D01*
Y1210000D01*
X-4255000Y1250000D01*
Y1210000D01*
X-4265000Y1230000D01*
X-4270000D01*
G01X-4370000Y1390000D02*
Y1760000D01*
X-4210000D01*
Y1390000D01*
X-4370000D01*
G01X-4285000Y1585000D02*
Y1600000D01*
G01Y1565000D02*
Y1550000D01*
G01X-4340000Y1585000D02*
X-4235000D01*
G01X-4340000Y1565000D02*
X-4235000D01*
G01X-3620000Y-1250000D02*
Y-880000D01*
X-3460000D01*
Y-1250000D01*
X-3620000D01*
G01X-3535000Y-1055000D02*
Y-1040000D01*
G01Y-1075000D02*
Y-1090000D01*
G01X-3590000Y-1055000D02*
X-3485000D01*
G01X-3590000Y-1075000D02*
X-3485000D01*
G01X-3200000Y-100000D02*
X-2830000D01*
Y-260000D01*
X-3200000D01*
Y-100000D01*
G01X-3460000Y-430000D02*
Y-800000D01*
X-3620000D01*
Y-430000D01*
X-3460000D01*
G01X-3545000Y-625000D02*
Y-640000D01*
G01Y-605000D02*
Y-590000D01*
G01X-3490000Y-625000D02*
X-3595000D01*
G01X-3490000Y-605000D02*
X-3595000D01*
G01X-3310000Y-260000D02*
X-3680000D01*
Y-100000D01*
X-3310000D01*
Y-260000D01*
G01X-3505000Y-175000D02*
X-3520000D01*
G01X-3485000D02*
X-3470000D01*
G01X-3505000Y-230000D02*
Y-125000D01*
G01X-3485000Y-230000D02*
Y-125000D01*
G01X-2830000Y-50000D02*
X-3200000D01*
Y110000D01*
X-2830000D01*
Y-50000D01*
G01X-3680000Y80000D02*
X-3310000D01*
Y-80000D01*
X-3680000D01*
Y80000D01*
G01X-3520000Y0D02*
X-3515000D01*
Y20000D01*
X-3500000Y-20000D01*
Y20000D01*
X-3485000Y-20000D01*
Y20000D01*
X-3475000Y0D01*
X-3470000D01*
G01X-2560000Y-260000D02*
X-2720000D01*
Y110000D01*
X-2560000D01*
Y-260000D01*
G01X-2460000Y-115000D02*
Y-95000D01*
G01X-2490000Y-85000D02*
X-2460000Y-115000D01*
X-2480000D01*
G01X-2500000Y-65000D02*
Y-160000D01*
G01X-3040000Y-180000D02*
X-3035000D01*
Y-160000D01*
X-3020000Y-200000D01*
Y-160000D01*
X-3005000Y-200000D01*
Y-160000D01*
X-2995000Y-180000D01*
X-2990000D01*
G01X-2390000Y-260000D02*
Y110000D01*
X-2230000D01*
Y-260000D01*
X-2390000D01*
G01X-2450000Y-70000D02*
X-2550000D01*
G01X-2500000Y75000D02*
Y-25000D01*
X-2550000D01*
X-2500000Y-65000D01*
X-2450000Y-25000D01*
X-2500000D01*
G01X-2990000Y30000D02*
X-2995000D01*
Y10000D01*
X-3010000Y50000D01*
Y10000D01*
X-3025000Y50000D01*
Y10000D01*
X-3035000Y30000D01*
X-3040000D01*
G01X-2470000Y220000D02*
X-2840000D01*
Y380000D01*
X-2470000D01*
Y220000D01*
G01X-2630000Y300000D02*
X-2635000D01*
Y280000D01*
X-2650000Y320000D01*
Y280000D01*
X-2665000Y320000D01*
Y280000D01*
X-2675000Y300000D01*
X-2680000D01*
G01X-2470000Y400000D02*
X-2840000D01*
Y560000D01*
X-2470000D01*
Y400000D01*
G01X-2630000Y480000D02*
X-2635000D01*
Y460000D01*
X-2650000Y500000D01*
Y460000D01*
X-2665000Y500000D01*
Y460000D01*
X-2675000Y480000D01*
X-2680000D01*
G01X-2450000Y380000D02*
X-2080000D01*
Y220000D01*
X-2450000D01*
Y380000D01*
G01Y560000D02*
X-2080000D01*
Y400000D01*
X-2450000D01*
Y560000D01*
G01X-1750000Y370000D02*
Y-260000D01*
X-1420000D01*
Y370000D01*
X-1750000D01*
G01X-2310000Y-100000D02*
Y-95000D01*
X-2330000D01*
X-2290000Y-80000D01*
X-2330000D01*
X-2290000Y-65000D01*
X-2330000D01*
X-2310000Y-55000D01*
Y-50000D01*
G01X-2290000Y300000D02*
X-2285000D01*
Y320000D01*
X-2270000Y280000D01*
Y320000D01*
X-2255000Y280000D01*
Y320000D01*
X-2245000Y300000D01*
X-2240000D01*
G01X-2255000Y475000D02*
X-2240000D01*
G01X-2275000D02*
X-2290000D01*
G01X-2255000Y530000D02*
Y425000D01*
G01X-2275000Y530000D02*
Y425000D01*
G01X-1320000Y2180000D02*
Y1650000D01*
X-2100000D01*
Y2180000D01*
X-1320000D01*
G01X-2360000Y1840000D02*
Y2210000D01*
X-2200000D01*
Y1840000D01*
X-2360000D01*
G01X-2275000Y2035000D02*
Y2050000D01*
G01Y2015000D02*
Y2000000D01*
G01X-2330000Y2035000D02*
X-2225000D01*
G01X-2330000Y2015000D02*
X-2225000D01*
G01X-1130000Y-20000D02*
Y350000D01*
X-970000D01*
Y-20000D01*
X-1130000D01*
G01X-1045000Y175000D02*
Y190000D01*
G01Y155000D02*
Y140000D01*
G01X-1100000Y175000D02*
X-995000D01*
G01X-1100000Y155000D02*
X-995000D01*
G01X-670000Y370000D02*
Y-260000D01*
X-340000D01*
Y370000D01*
X-670000D01*
G54D11*
G01X-815200Y1260000D02*
X-1104800D01*
G54D12*
G01X-5144000Y1310000D02*
Y1150000D01*
G01X-4810000Y976000D02*
X-4970000D01*
G01Y1484000D02*
X-4810000D01*
G01X-3835000Y685000D02*
X-3985000D01*
Y835000D01*
G01X-4636000Y1310000D02*
Y1150000D01*
G01X-3860000Y2085000D02*
X-3985000D01*
Y1960000D01*
G01X-2475000Y835000D02*
Y685000D01*
X-2625000D01*
G01Y2085000D02*
X-2475000D01*
Y1935000D01*
G54D13*
G01X-5255750Y-1880260D02*
X-5247870Y-1875390D01*
X-5242620Y-1869550D01*
X-5240000Y-1862740D01*
X-5242620Y-1854950D01*
X-5247870Y-1849110D01*
X-5255750Y-1843260D01*
X-5266250Y-1841320D01*
X-5318740D01*
G01X-5305620Y-1800550D02*
X-5313490Y-1794710D01*
X-5317430Y-1787890D01*
X-5318740Y-1780100D01*
X-5316120Y-1770370D01*
X-5309550Y-1763550D01*
X-5301680Y-1761600D01*
X-5293800Y-1762580D01*
X-5287240Y-1766470D01*
X-5274120Y-1785940D01*
X-5264930Y-1794710D01*
X-5251810Y-1800550D01*
X-5240000Y-1802500D01*
Y-1761600D01*
G01X-3780000Y-1680000D02*
Y-1530000D01*
X-3830000D01*
Y-650000D01*
X-3780000D01*
Y-510000D01*
X-3830000D01*
Y370000D01*
X-3780000D01*
Y520000D01*
X-5330000D01*
Y370000D01*
X-5280000D01*
Y-510000D01*
X-5330000D01*
Y-650000D01*
X-5280000D01*
Y-1530000D01*
X-5330000D01*
Y-1680000D01*
X-3780000D01*
G01X-5295130Y540000D02*
X-5270790Y618740D01*
X-5246450Y540000D01*
G01X-5255210Y567560D02*
X-5286370D01*
G01X-5170630Y612180D02*
X-5176470Y616120D01*
X-5183290Y618740D01*
X-5191080D01*
X-5199840Y614800D01*
X-5206650Y608240D01*
X-5211520Y600370D01*
X-5215420Y587240D01*
X-5216390Y575430D01*
X-5214440Y563620D01*
X-5211520Y555750D01*
X-5205680Y547870D01*
X-5198870Y542620D01*
X-5192050Y540000D01*
X-5185230D01*
X-5178420Y542620D01*
X-5172580Y546560D01*
X-5167710Y551810D01*
G01X-5034570Y540000D02*
X-5042360Y541310D01*
X-5049170Y546560D01*
X-5055020Y554430D01*
X-5058910Y563620D01*
X-5060860Y574120D01*
Y584620D01*
X-5058910Y595120D01*
X-5055020Y604310D01*
X-5049170Y612180D01*
X-5042360Y617430D01*
X-5034570Y618740D01*
X-5026780Y617430D01*
X-5019970Y612180D01*
X-5014120Y604310D01*
X-5010230Y595120D01*
X-5008280Y584620D01*
Y574120D01*
X-5010230Y563620D01*
X-5014120Y554430D01*
X-5019970Y546560D01*
X-5026780Y541310D01*
X-5034570Y540000D01*
G01X-4977250Y618740D02*
Y562310D01*
X-4973360Y550500D01*
X-4965570Y542620D01*
X-4955830Y540000D01*
X-4946090Y542620D01*
X-4938300Y550500D01*
X-4934410Y562310D01*
Y618740D01*
G01X-4877090D02*
Y540000D01*
G01X-4899480Y618740D02*
X-4854700D01*
G01X-5312210Y1828740D02*
Y1772310D01*
X-5308320Y1760500D01*
X-5300530Y1752620D01*
X-5290790Y1750000D01*
X-5281050Y1752620D01*
X-5273260Y1760500D01*
X-5269370Y1772310D01*
Y1828740D01*
G01X-5200370Y1750000D02*
Y1828740D01*
X-5236390Y1772310D01*
X-5187710D01*
G01X-4400260Y1010000D02*
Y1088740D01*
X-4375920D01*
X-4368130Y1084800D01*
X-4363260Y1079550D01*
X-4361320Y1069050D01*
X-4363260Y1058560D01*
X-4369110Y1052000D01*
X-4375920Y1048060D01*
X-4400260D01*
G01X-4375920D02*
X-4361320Y1010000D01*
G01X-4302050D02*
X-4295230Y1011310D01*
X-4287450Y1015250D01*
X-4282580Y1021810D01*
X-4280630Y1031000D01*
X-4282580Y1040180D01*
X-4288420Y1048060D01*
X-4297180Y1052000D01*
X-4306920D01*
X-4312760Y1054620D01*
X-4317630Y1061180D01*
X-4319580Y1070370D01*
X-4316650Y1079550D01*
X-4309840Y1086120D01*
X-4302050Y1088740D01*
X-4294260Y1086120D01*
X-4287450Y1079550D01*
X-4284520Y1070370D01*
X-4286470Y1061180D01*
X-4291340Y1054620D01*
X-4297180Y1052000D01*
X-4306920D01*
X-4315680Y1048060D01*
X-4321520Y1040180D01*
X-4323470Y1031000D01*
X-4321520Y1021810D01*
X-4316650Y1015250D01*
X-4308870Y1011310D01*
X-4302050Y1010000D01*
G01X-4319370Y1882180D02*
X-4325210Y1886120D01*
X-4332030Y1888740D01*
X-4339820D01*
X-4348580Y1884800D01*
X-4355390Y1878240D01*
X-4360260Y1870370D01*
X-4364160Y1857240D01*
X-4365130Y1845430D01*
X-4363180Y1833620D01*
X-4360260Y1825750D01*
X-4354420Y1817870D01*
X-4347610Y1812620D01*
X-4340790Y1810000D01*
X-4333970D01*
X-4327160Y1812620D01*
X-4321320Y1816560D01*
X-4316450Y1821810D01*
G01X-4283470D02*
X-4277630Y1815250D01*
X-4270810Y1811310D01*
X-4262050Y1810000D01*
X-4253290Y1812620D01*
X-4246470Y1817870D01*
X-4241600Y1827060D01*
X-4240630Y1837560D01*
X-4242580Y1848060D01*
X-4247450Y1854620D01*
X-4254260Y1859870D01*
X-4261080Y1861180D01*
X-4267890Y1859870D01*
X-4276650Y1854620D01*
X-4273730Y1888740D01*
X-4247450D01*
G01X-3420000Y-300000D02*
X-413000D01*
Y-2300000D01*
X-3420000D01*
Y-300000D01*
G01X-3727180Y-1189370D02*
X-3731120Y-1195210D01*
X-3733740Y-1202030D01*
Y-1209820D01*
X-3729800Y-1218580D01*
X-3723240Y-1225390D01*
X-3715370Y-1230260D01*
X-3702240Y-1234160D01*
X-3690430Y-1235130D01*
X-3678620Y-1233180D01*
X-3670750Y-1230260D01*
X-3662870Y-1224420D01*
X-3657620Y-1217610D01*
X-3655000Y-1210790D01*
Y-1203970D01*
X-3657620Y-1197160D01*
X-3661560Y-1191320D01*
X-3666810Y-1186450D01*
G01X-3655000Y-1132050D02*
X-3733740D01*
X-3717990Y-1143730D01*
G01X-3655000D02*
Y-1120370D01*
G01X-3170260Y-410000D02*
Y-331260D01*
X-3145920D01*
X-3138130Y-335200D01*
X-3133260Y-340450D01*
X-3131320Y-350950D01*
X-3133260Y-361440D01*
X-3139110Y-368000D01*
X-3145920Y-371940D01*
X-3170260D01*
G01X-3145920D02*
X-3131320Y-410000D01*
G01X-3093470Y-394250D02*
X-3087630Y-403440D01*
X-3079840Y-408690D01*
X-3071080Y-410000D01*
X-3063290Y-408690D01*
X-3055500Y-402130D01*
X-3050630Y-394250D01*
X-3049660Y-386380D01*
X-3051600Y-377190D01*
X-3058420Y-370630D01*
X-3065230Y-368000D01*
X-3074000D01*
G01X-3065230D02*
X-3059390Y-364070D01*
X-3054520Y-357510D01*
X-3052580Y-349630D01*
X-3054520Y-341760D01*
X-3059390Y-335200D01*
X-3068160Y-331260D01*
X-3076920Y-332570D01*
X-3085680Y-337820D01*
G01X-3732180Y-759370D02*
X-3736120Y-765210D01*
X-3738740Y-772030D01*
Y-779820D01*
X-3734800Y-788580D01*
X-3728240Y-795390D01*
X-3720370Y-800260D01*
X-3707240Y-804160D01*
X-3695430Y-805130D01*
X-3683620Y-803180D01*
X-3675750Y-800260D01*
X-3667870Y-794420D01*
X-3662620Y-787610D01*
X-3660000Y-780790D01*
Y-773970D01*
X-3662620Y-767160D01*
X-3666560Y-761320D01*
X-3671810Y-756450D01*
G01X-3725620Y-720550D02*
X-3733490Y-714710D01*
X-3737430Y-707890D01*
X-3738740Y-700100D01*
X-3736120Y-690370D01*
X-3729550Y-683550D01*
X-3721680Y-681600D01*
X-3713800Y-682580D01*
X-3707240Y-686470D01*
X-3694120Y-705940D01*
X-3684930Y-714710D01*
X-3671810Y-720550D01*
X-3660000Y-722500D01*
Y-681600D01*
G01X-3729370Y-297820D02*
X-3735210Y-293880D01*
X-3742030Y-291260D01*
X-3749820D01*
X-3758580Y-295200D01*
X-3765390Y-301760D01*
X-3770260Y-309630D01*
X-3774160Y-322760D01*
X-3775130Y-334570D01*
X-3773180Y-346380D01*
X-3770260Y-354250D01*
X-3764420Y-362130D01*
X-3757610Y-367380D01*
X-3750790Y-370000D01*
X-3743970D01*
X-3737160Y-367380D01*
X-3731320Y-363440D01*
X-3726450Y-358190D01*
G01X-3674000Y-370000D02*
X-3672050Y-352940D01*
X-3669130Y-338510D01*
X-3665230Y-325380D01*
X-3660370Y-310950D01*
X-3652580Y-291260D01*
X-3691520D01*
G01X-3780260Y110000D02*
Y188740D01*
X-3755920D01*
X-3748130Y184800D01*
X-3743260Y179550D01*
X-3741320Y169050D01*
X-3743260Y158560D01*
X-3749110Y152000D01*
X-3755920Y148060D01*
X-3780260D01*
G01X-3755920D02*
X-3741320Y110000D01*
G01X-3700550Y142810D02*
X-3693730Y152000D01*
X-3687890Y157240D01*
X-3680100Y159870D01*
X-3673290Y157240D01*
X-3668420Y152000D01*
X-3664520Y144120D01*
X-3663550Y134930D01*
X-3664520Y127060D01*
X-3668420Y119180D01*
X-3674260Y112620D01*
X-3681080Y110000D01*
X-3688870Y112620D01*
X-3695680Y120500D01*
X-3699580Y132310D01*
X-3700550Y145430D01*
X-3698600Y162490D01*
X-3695680Y171680D01*
X-3690810Y180870D01*
X-3684000Y187430D01*
X-3677180Y188740D01*
X-3670370Y186120D01*
X-3665500Y179550D01*
G01X-2610000Y-452210D02*
X-2688740D01*
Y-432740D01*
X-2684800Y-424950D01*
X-2679550Y-419110D01*
X-2671680Y-414240D01*
X-2662490Y-410340D01*
X-2649370Y-409370D01*
X-2636250Y-410340D01*
X-2627060Y-414240D01*
X-2619180Y-419110D01*
X-2613940Y-424950D01*
X-2610000Y-432740D01*
Y-452210D01*
G01Y-352050D02*
X-2688740D01*
X-2672990Y-363730D01*
G01X-2610000D02*
Y-340370D01*
G01X-2779740Y140000D02*
Y61260D01*
X-2804080D01*
X-2811870Y65200D01*
X-2816740Y70450D01*
X-2818680Y80950D01*
X-2816740Y91440D01*
X-2810890Y98000D01*
X-2804080Y101940D01*
X-2779740D01*
G01X-2804080D02*
X-2818680Y140000D01*
G01X-2889630D02*
Y61260D01*
X-2853610Y117690D01*
X-2902290D01*
G01X-2990260Y270000D02*
Y348740D01*
X-2965920D01*
X-2958130Y344800D01*
X-2953260Y339550D01*
X-2951320Y329050D01*
X-2953260Y318560D01*
X-2959110Y312000D01*
X-2965920Y308060D01*
X-2990260D01*
G01X-2965920D02*
X-2951320Y270000D01*
G01X-2892050D02*
Y348740D01*
X-2903730Y332990D01*
G01Y270000D02*
X-2880370D01*
G01X-2990260Y440000D02*
Y518740D01*
X-2965920D01*
X-2958130Y514800D01*
X-2953260Y509550D01*
X-2951320Y499050D01*
X-2953260Y488560D01*
X-2959110Y482000D01*
X-2965920Y478060D01*
X-2990260D01*
G01X-2965920D02*
X-2951320Y440000D01*
G01X-2913470Y451810D02*
X-2907630Y445250D01*
X-2900810Y441310D01*
X-2892050Y440000D01*
X-2883290Y442620D01*
X-2876470Y447870D01*
X-2871600Y457060D01*
X-2870630Y467560D01*
X-2872580Y478060D01*
X-2877450Y484620D01*
X-2884260Y489870D01*
X-2891080Y491180D01*
X-2897890Y489870D01*
X-2906650Y484620D01*
X-2903730Y518740D01*
X-2877450D01*
G01X-2349370Y662180D02*
X-2355210Y666120D01*
X-2362030Y668740D01*
X-2369820D01*
X-2378580Y664800D01*
X-2385390Y658240D01*
X-2390260Y650370D01*
X-2394160Y637240D01*
X-2395130Y625430D01*
X-2393180Y613620D01*
X-2390260Y605750D01*
X-2384420Y597870D01*
X-2377610Y592620D01*
X-2370790Y590000D01*
X-2363970D01*
X-2357160Y592620D01*
X-2351320Y596560D01*
X-2346450Y601810D01*
G01X-2310550Y622810D02*
X-2303730Y632000D01*
X-2297890Y637240D01*
X-2290100Y639870D01*
X-2283290Y637240D01*
X-2278420Y632000D01*
X-2274520Y624120D01*
X-2273550Y614930D01*
X-2274520Y607060D01*
X-2278420Y599180D01*
X-2284260Y592620D01*
X-2291080Y590000D01*
X-2298870Y592620D01*
X-2305680Y600500D01*
X-2309580Y612310D01*
X-2310550Y625430D01*
X-2308600Y642490D01*
X-2305680Y651680D01*
X-2300810Y660870D01*
X-2294000Y667430D01*
X-2287180Y668740D01*
X-2280370Y666120D01*
X-2275500Y659550D01*
G01X-2392210Y888740D02*
Y832310D01*
X-2388320Y820500D01*
X-2380530Y812620D01*
X-2370790Y810000D01*
X-2361050Y812620D01*
X-2353260Y820500D01*
X-2349370Y832310D01*
Y888740D01*
G01X-2313470Y825750D02*
X-2307630Y816560D01*
X-2299840Y811310D01*
X-2291080Y810000D01*
X-2283290Y811310D01*
X-2275500Y817870D01*
X-2270630Y825750D01*
X-2269660Y833620D01*
X-2271600Y842810D01*
X-2278420Y849370D01*
X-2285230Y852000D01*
X-2294000D01*
G01X-2285230D02*
X-2279390Y855930D01*
X-2274520Y862490D01*
X-2272580Y870370D01*
X-2274520Y878240D01*
X-2279390Y884800D01*
X-2288160Y888740D01*
X-2296920Y887430D01*
X-2305680Y882180D01*
G01X-2270000Y-460260D02*
X-2348740D01*
Y-435920D01*
X-2344800Y-428130D01*
X-2339550Y-423260D01*
X-2329050Y-421320D01*
X-2318560Y-423260D01*
X-2312000Y-429110D01*
X-2308060Y-435920D01*
Y-460260D01*
G01Y-435920D02*
X-2270000Y-421320D01*
G01Y-364000D02*
X-2287060Y-362050D01*
X-2301490Y-359130D01*
X-2314620Y-355230D01*
X-2329050Y-350370D01*
X-2348740Y-342580D01*
Y-381520D01*
G01X-2180260Y110000D02*
Y188740D01*
X-2155920D01*
X-2148130Y184800D01*
X-2143260Y179550D01*
X-2141320Y169050D01*
X-2143260Y158560D01*
X-2149110Y152000D01*
X-2155920Y148060D01*
X-2180260D01*
G01X-2155920D02*
X-2141320Y110000D01*
G01X-2100550Y175620D02*
X-2094710Y183490D01*
X-2087890Y187430D01*
X-2080100Y188740D01*
X-2070370Y186120D01*
X-2063550Y179550D01*
X-2061600Y171680D01*
X-2062580Y163800D01*
X-2066470Y157240D01*
X-2085940Y144120D01*
X-2094710Y134930D01*
X-2100550Y121810D01*
X-2102500Y110000D01*
X-2061600D01*
G01X-1691240Y880500D02*
X-1683450Y873940D01*
X-1674680Y870000D01*
X-1666900D01*
X-1659110Y873940D01*
X-1653260Y880500D01*
X-1650340Y889690D01*
X-1652290Y898870D01*
X-1657160Y906740D01*
X-1665920Y912000D01*
X-1677610Y914620D01*
X-1684420Y919870D01*
X-1687340Y929050D01*
X-1685390Y938240D01*
X-1680530Y944800D01*
X-1673710Y948740D01*
X-1666900D01*
X-1660080Y946120D01*
X-1654240Y939550D01*
G01X-1621260Y948740D02*
X-1607630Y870000D01*
X-1592050Y948740D01*
X-1576470Y870000D01*
X-1562840Y948740D01*
G01X-1513310Y870000D02*
Y948740D01*
X-1524990Y932990D01*
G01Y870000D02*
X-1501630D01*
G01X-1694250Y1590260D02*
X-1702130Y1585390D01*
X-1707380Y1579550D01*
X-1710000Y1572740D01*
X-1707380Y1564950D01*
X-1702130Y1559110D01*
X-1694250Y1553260D01*
X-1683750Y1551320D01*
X-1631260D01*
G01X-1694250Y1513470D02*
X-1703440Y1507630D01*
X-1708690Y1499840D01*
X-1710000Y1491080D01*
X-1708690Y1483290D01*
X-1702130Y1475500D01*
X-1694250Y1470630D01*
X-1686380Y1469660D01*
X-1677190Y1471600D01*
X-1670630Y1478420D01*
X-1668000Y1485230D01*
Y1494000D01*
G01Y1485230D02*
X-1664070Y1479390D01*
X-1657510Y1474520D01*
X-1649630Y1472580D01*
X-1641760Y1474520D01*
X-1635200Y1479390D01*
X-1631260Y1488160D01*
X-1632570Y1496920D01*
X-1637820Y1505680D01*
G01X-2332180Y1680630D02*
X-2336120Y1674790D01*
X-2338740Y1667970D01*
Y1660180D01*
X-2334800Y1651420D01*
X-2328240Y1644610D01*
X-2320370Y1639740D01*
X-2307240Y1635840D01*
X-2295430Y1634870D01*
X-2283620Y1636820D01*
X-2275750Y1639740D01*
X-2267870Y1645580D01*
X-2262620Y1652390D01*
X-2260000Y1659210D01*
Y1666030D01*
X-2262620Y1672840D01*
X-2266560Y1678680D01*
X-2271810Y1683550D01*
G01X-2275750Y1716530D02*
X-2266560Y1722370D01*
X-2261310Y1730160D01*
X-2260000Y1738920D01*
X-2261310Y1746710D01*
X-2267870Y1754500D01*
X-2275750Y1759370D01*
X-2283620Y1760340D01*
X-2292810Y1758400D01*
X-2299370Y1751580D01*
X-2302000Y1744770D01*
Y1736000D01*
G01Y1744770D02*
X-2305930Y1750610D01*
X-2312490Y1755480D01*
X-2320370Y1757420D01*
X-2328240Y1755480D01*
X-2334800Y1750610D01*
X-2338740Y1741840D01*
X-2337430Y1733080D01*
X-2332180Y1724320D01*
G01X-1296260Y-162790D02*
X-1352690D01*
X-1364500Y-166680D01*
X-1372380Y-174470D01*
X-1375000Y-184210D01*
X-1372380Y-193950D01*
X-1364500Y-201740D01*
X-1352690Y-205630D01*
X-1296260D01*
G01X-1375000Y-262950D02*
X-1296260D01*
X-1312010Y-251270D01*
G01X-1375000D02*
Y-274630D01*
G01X-1102180Y-159370D02*
X-1106120Y-165210D01*
X-1108740Y-172030D01*
Y-179820D01*
X-1104800Y-188580D01*
X-1098240Y-195390D01*
X-1090370Y-200260D01*
X-1077240Y-204160D01*
X-1065430Y-205130D01*
X-1053620Y-203180D01*
X-1045750Y-200260D01*
X-1037870Y-194420D01*
X-1032620Y-187610D01*
X-1030000Y-180790D01*
Y-173970D01*
X-1032620Y-167160D01*
X-1036560Y-161320D01*
X-1041810Y-156450D01*
G01X-1030000Y-90370D02*
X-1108740D01*
X-1052310Y-126390D01*
Y-77710D01*
G01X-1210000Y1229210D02*
X-1288740D01*
Y1248680D01*
X-1284800Y1256470D01*
X-1279550Y1262310D01*
X-1271680Y1267180D01*
X-1262490Y1271080D01*
X-1249370Y1272050D01*
X-1236250Y1271080D01*
X-1227060Y1267180D01*
X-1219180Y1262310D01*
X-1213940Y1256470D01*
X-1210000Y1248680D01*
Y1229210D01*
G01X-1275620Y1310870D02*
X-1283490Y1316710D01*
X-1287430Y1323530D01*
X-1288740Y1331320D01*
X-1286120Y1341050D01*
X-1279550Y1347870D01*
X-1271680Y1349820D01*
X-1263800Y1348840D01*
X-1257240Y1344950D01*
X-1244120Y1325480D01*
X-1234930Y1316710D01*
X-1221810Y1310870D01*
X-1210000Y1308920D01*
Y1349820D01*
G01X-942840Y2093510D02*
X-944150Y2085720D01*
X-949400Y2078910D01*
X-957270Y2073060D01*
X-966460Y2069170D01*
X-976960Y2067220D01*
X-987460D01*
X-997960Y2069170D01*
X-1007150Y2073060D01*
X-1015020Y2078910D01*
X-1020270Y2085720D01*
X-1021580Y2093510D01*
X-1020270Y2101300D01*
X-1015020Y2108110D01*
X-1007150Y2113960D01*
X-997960Y2117850D01*
X-987460Y2119800D01*
X-976960D01*
X-966460Y2117850D01*
X-957270Y2113960D01*
X-949400Y2108110D01*
X-944150Y2101300D01*
X-942840Y2093510D01*
G01X-963840Y2101300D02*
X-942840Y2112980D01*
G01Y2172250D02*
X-1021580D01*
X-1005830Y2160570D01*
G01X-942840D02*
Y2183930D01*
G01X-356110Y-2270000D02*
Y-2191260D01*
X-330790Y-2256880D01*
X-305470Y-2191260D01*
Y-2270000D01*
G01X-252050D02*
Y-2191260D01*
X-263730Y-2207010D01*
G01Y-2270000D02*
X-240370D01*
G01X-106750Y-1880260D02*
X-98870Y-1875390D01*
X-93620Y-1869550D01*
X-91000Y-1862740D01*
X-93620Y-1854950D01*
X-98870Y-1849110D01*
X-106750Y-1843260D01*
X-117250Y-1841320D01*
X-169740D01*
G01X-91000Y-1782050D02*
X-169740D01*
X-153990Y-1793730D01*
G01X-91000D02*
Y-1770370D01*
G01X-216260Y-162790D02*
X-272690D01*
X-284500Y-166680D01*
X-292380Y-174470D01*
X-295000Y-184210D01*
X-292380Y-193950D01*
X-284500Y-201740D01*
X-272690Y-205630D01*
X-216260D01*
G01X-229380Y-244450D02*
X-221510Y-250290D01*
X-217570Y-257110D01*
X-216260Y-264900D01*
X-218880Y-274630D01*
X-225450Y-281450D01*
X-233320Y-283400D01*
X-241200Y-282420D01*
X-247760Y-278530D01*
X-260880Y-259060D01*
X-270070Y-250290D01*
X-283190Y-244450D01*
X-295000Y-242500D01*
Y-283400D01*
G01X-520000Y450000D02*
X-680000D01*
Y620000D01*
G01X-598740Y2049740D02*
X-520000D01*
Y2088680D01*
G01X-530500Y2127500D02*
X-523940Y2135290D01*
X-520000Y2144060D01*
Y2151840D01*
X-523940Y2159630D01*
X-530500Y2165480D01*
X-539690Y2168400D01*
X-548870Y2166450D01*
X-556740Y2161580D01*
X-562000Y2152820D01*
X-564620Y2141130D01*
X-569870Y2134320D01*
X-579050Y2131400D01*
X-588240Y2133350D01*
X-594800Y2138210D01*
X-598740Y2145030D01*
Y2151840D01*
X-596120Y2158660D01*
X-589550Y2164500D01*
G01X-520000Y2226690D02*
X-598740D01*
X-582990Y2215010D01*
G01X-520000D02*
Y2238370D01*
G01X-490000Y2010000D02*
X-680000D01*
Y1830000D01*
G01X1560000Y-1890000D02*
Y-1740000D01*
X1510000D01*
Y-860000D01*
X1560000D01*
Y-720000D01*
X1510000D01*
Y160000D01*
X1560000D01*
Y310000D01*
X10000D01*
Y160000D01*
X60000D01*
Y-720000D01*
X10000D01*
Y-860000D01*
X60000D01*
Y-1740000D01*
X10000D01*
Y-1890000D01*
X1560000D01*
G01X1060000Y450000D02*
X1230000D01*
Y630000D01*
G01X980000Y2010000D02*
X1230000D01*
Y1760000D01*
G01X1530000Y484870D02*
X1451260Y509210D01*
X1530000Y533550D01*
G01X1502440Y524790D02*
Y493630D01*
G01X1457820Y609370D02*
X1453880Y603530D01*
X1451260Y596710D01*
Y588920D01*
X1455200Y580160D01*
X1461760Y573350D01*
X1469630Y568480D01*
X1482760Y564580D01*
X1494570Y563610D01*
X1506380Y565560D01*
X1514250Y568480D01*
X1522130Y574320D01*
X1527380Y581130D01*
X1530000Y587950D01*
Y594770D01*
X1527380Y601580D01*
X1523440Y607420D01*
X1518190Y612290D01*
G01X1451260Y733750D02*
Y757110D01*
G01Y745430D02*
X1530000D01*
G01Y733750D02*
Y757110D01*
G01Y801780D02*
X1451260D01*
X1530000Y846560D01*
X1451260D01*
G01X1497190Y963150D02*
X1488000Y969970D01*
X1482760Y975810D01*
X1480130Y983600D01*
X1482760Y990410D01*
X1488000Y995280D01*
X1495880Y999180D01*
X1505070Y1000150D01*
X1512940Y999180D01*
X1520820Y995280D01*
X1527380Y989440D01*
X1530000Y982620D01*
X1527380Y974830D01*
X1519500Y968020D01*
X1507690Y964120D01*
X1494570Y963150D01*
X1477510Y965100D01*
X1468320Y968020D01*
X1459130Y972890D01*
X1452570Y979700D01*
X1451260Y986520D01*
X1453880Y993330D01*
X1460450Y998200D01*
G01X1451260Y1060390D02*
X1453880Y1052600D01*
X1460450Y1046760D01*
X1468320Y1042860D01*
X1478820Y1039940D01*
X1490630Y1038970D01*
X1502440Y1039940D01*
X1512940Y1042860D01*
X1520820Y1046760D01*
X1527380Y1052600D01*
X1530000Y1060390D01*
X1527380Y1068180D01*
X1520820Y1074020D01*
X1512940Y1077920D01*
X1502440Y1080840D01*
X1490630Y1081810D01*
X1478820Y1080840D01*
X1468320Y1077920D01*
X1460450Y1074020D01*
X1453880Y1068180D01*
X1451260Y1060390D01*
G01X1464380Y1199370D02*
X1456510Y1205210D01*
X1452570Y1212030D01*
X1451260Y1219820D01*
X1453880Y1229550D01*
X1460450Y1236370D01*
X1468320Y1238320D01*
X1476200Y1237340D01*
X1482760Y1233450D01*
X1495880Y1213980D01*
X1505070Y1205210D01*
X1518190Y1199370D01*
X1530000Y1197420D01*
Y1238320D01*
G01X1464380Y1278110D02*
X1456510Y1283950D01*
X1452570Y1290770D01*
X1451260Y1298560D01*
X1453880Y1308290D01*
X1460450Y1315110D01*
X1468320Y1317060D01*
X1476200Y1316080D01*
X1482760Y1312190D01*
X1495880Y1292720D01*
X1505070Y1283950D01*
X1518190Y1278110D01*
X1530000Y1276160D01*
Y1317060D01*
G01X1451260Y1375350D02*
X1453880Y1367560D01*
X1460450Y1361720D01*
X1468320Y1357820D01*
X1478820Y1354900D01*
X1490630Y1353930D01*
X1502440Y1354900D01*
X1512940Y1357820D01*
X1520820Y1361720D01*
X1527380Y1367560D01*
X1530000Y1375350D01*
X1527380Y1383140D01*
X1520820Y1388980D01*
X1512940Y1392880D01*
X1502440Y1395800D01*
X1490630Y1396770D01*
X1478820Y1395800D01*
X1468320Y1392880D01*
X1460450Y1388980D01*
X1453880Y1383140D01*
X1451260Y1375350D01*
G01Y1429750D02*
X1530000Y1454090D01*
X1451260Y1478430D01*
G54D14*
G01X-1564800Y630000D02*
Y815420D01*
X-955200D01*
Y444580D01*
X-1564800D01*
Y630000D01*
G01X-1156200Y1690920D02*
Y2018580D01*
X-729480D01*
Y1690920D01*
X-1156200D01*
M02*
