G04 ================== begin FILE IDENTIFICATION RECORD ==================*
G04 Layout Name:  MPU6050_STM8.brd*
G04 Film Name:    BOTTOM*
G04 File Format:  Gerber RS274X*
G04 File Origin:  Cadence Allegro 17.2-P019*
G04 Origin Date:  Mon Aug 01 11:25:47 2016*
G04 *
G04 Layer:  BOARD GEOMETRY/DESIGN_OUTLINE*
G04 Layer:  ETCH/BOTTOM*
G04 Layer:  PIN/BOTTOM*
G04 Layer:  VIA CLASS/BOTTOM*
G04 *
G04 Offset:    (0.0000 0.0000)*
G04 Mirror:    No*
G04 Mode:      Positive*
G04 Rotation:  0*
G04 FullContactRelief:  No*
G04 UndefLineWidth:     0.0000*
G04 ================== end FILE IDENTIFICATION RECORD ====================*
%FSLAX25Y25*MOMM*%
%IR0*IPPOS*OFA0.00000B0.00000*MIA0B0*SFA1.00000B1.00000*%
%AMMACRO10*
4,1,44,.95,.7999,
-.95,.7999,
-1.002095,.795401,
-1.052609,.781875,
-1.100007,.759783,
-1.142848,.729795,
-1.179831,.692825,
-1.209833,.649993,
-1.231941,.602603,
-1.245484,.552094,
-1.25005,.5,
-1.25,.4999,
-1.25,-.4999,
-1.245501,-.551995,
-1.231975,-.602509,
-1.209883,-.649907,
-1.179895,-.692748,
-1.142925,-.729731,
-1.100093,-.759733,
-1.052703,-.781841,
-1.002194,-.795384,
-.9501,-.79995,
-.95,-.7999,
.95,-.7999,
1.002095,-.795401,
1.052609,-.781875,
1.100007,-.759783,
1.142848,-.729795,
1.179831,-.692825,
1.209833,-.649993,
1.231941,-.602603,
1.245484,-.552094,
1.25005,-.5,
1.25,-.4999,
1.25,.4999,
1.245501,.551995,
1.231975,.602509,
1.209883,.649907,
1.179895,.692748,
1.142925,.729731,
1.100093,.759733,
1.052703,.781841,
1.002194,.795384,
.9501,.79995,
.95,.7999,
0.0*
%
%ADD10MACRO10*%
%ADD11C,1.*%
%ADD12R,1.1999X1.1999*%
%ADD13C,.2*%
%ADD14C,.3*%
G75*
%LPD*%
G75*
G36*
G01X-1205000Y490000D02*
X-1130000D01*
X-1040000Y400000D01*
Y70000D01*
X-1105000Y5000D01*
X-1200000D01*
X-1250000Y55000D01*
Y405000D01*
X-1295000Y450000D01*
X-1362370D01*
Y455240D01*
X-1362360Y455390D01*
G03X-1362280Y458000I-42635J2613D01*
G01Y558000D01*
G03X-1362310Y559490I-42714J-115D01*
G02X-1352150Y570000I10155J349D01*
G01X-1285000D01*
X-1205000Y490000D01*
G37*
G36*
G01X-1180000Y595000D02*
X-1290000Y705000D01*
X-1362320D01*
Y710180D01*
X-1362310Y710280D01*
G03X-1362280Y712000I-42687J1605D01*
G01Y812000D01*
G03X-1404990Y854710I-42715J-5D01*
G01X-1420000D01*
Y870000D01*
X-1355000Y935000D01*
X-510000D01*
X-435000Y860000D01*
Y625000D01*
X-465000Y595000D01*
X-1180000D01*
G37*
G36*
G01X-31760Y587070D02*
X-60050Y615340D01*
X-97900Y580000D01*
X-60050Y544660D01*
X-31760Y572930D01*
G03Y587070I-7070J7070D01*
G37*
G36*
G01X430000Y750000D02*
Y510000D01*
X670000D01*
Y750000D01*
X430000D01*
G37*
G36*
G01X1380000Y-700000D02*
X1355000Y-675000D01*
Y-592760D01*
G02X1372810Y-586080I10159J-4D01*
G03X1404990Y-600710I32184J28085D01*
G01X1485000D01*
Y-635000D01*
X1420000Y-700000D01*
X1380000D01*
G37*
G36*
G01X1300000Y-330000D02*
X1245000Y-275000D01*
Y-245000D01*
X1315000Y-175000D01*
X1355590D01*
G02X1365090Y-188780I5J-10161D01*
G03X1362280Y-204000I39904J-15237D01*
G01Y-304000D01*
G03X1364240Y-316800I42717J-9D01*
G02X1354550Y-330000I-9692J-3042D01*
G01X1300000D01*
G37*
G36*
G01X1310000Y-75000D02*
X1265000Y-30000D01*
Y0D01*
X1340000Y75000D01*
X1354250D01*
G02X1364000Y61990I-2J-10160D01*
G03X1362280Y50000I40995J-11999D01*
G01Y-50000D01*
G03X1364000Y-61990I42715J9D01*
G02X1354250Y-75000I-9752J-2850D01*
G01X1310000D01*
G37*
G36*
G01X1315000Y185000D02*
X1285000Y215000D01*
Y240000D01*
X1344940Y299940D01*
G02X1362280Y292750I7180J-7188D01*
G01Y207000D01*
G03X1363370Y197440I42713J28D01*
G02X1353460Y185000I-9903J-2279D01*
G01X1315000D01*
G37*
G36*
G01X1340000Y440000D02*
X1310000Y470000D01*
X1315000Y475000D01*
Y515000D01*
X1344940Y544940D01*
G02X1362280Y537750I7180J-7188D01*
G01Y458000D01*
G03X1362750Y451670I42716J-11D01*
G02X1352710Y440000I-10046J-1511D01*
G01X1340000D01*
G37*
G54D10*
X-1500000Y-508000D03*
Y-254000D03*
Y0D03*
Y254000D03*
Y508000D03*
Y762000D03*
X1500000Y-508000D03*
Y257000D03*
Y0D03*
Y-254000D03*
Y762000D03*
Y508000D03*
G54D11*
X-1196900Y100620D03*
X-910000Y-695000D03*
X-645000Y-525000D03*
X-430000Y-535000D03*
X-595000Y-205000D03*
X-405000Y80000D03*
X-692100Y31050D03*
X-643500Y747440D03*
X-120000Y80000D03*
X200000Y-280000D03*
X65000Y-115000D03*
X345000Y-80000D03*
X-90000Y697300D03*
X-86460Y350000D03*
X336200Y415000D03*
X-95400Y580000D03*
X289800Y852700D03*
X552600Y-482800D03*
X845010Y-377400D03*
X753710Y245000D03*
X970000Y-155000D03*
X1135000Y-426360D03*
X600000Y-80000D03*
X1098710Y762000D03*
X1090000Y480000D03*
X605000Y575000D03*
X492700Y572700D03*
X605370Y684630D03*
X492700Y687300D03*
X1287800Y-535000D03*
X1215100Y627990D03*
G54D12*
X60000Y180000D03*
Y380000D03*
Y580000D03*
Y780000D03*
G54D13*
G01X-1500000Y508000D02*
X-1357200Y556900D01*
G01X-1500000Y508000D02*
X-1357200Y459100D01*
G01X-1500000Y762000D02*
X-1357200Y859800D01*
G01X-1500000Y762000D02*
X-1357200Y810900D01*
G01X-95400Y580000D02*
X60000D01*
G01X1454990Y-508000D02*
X1500000D01*
G01X1357200Y-605800D02*
X1500000Y-508000D01*
G01X1428600Y-605800D02*
X1500000Y-508000D01*
G01X1352290Y-254000D02*
X1500000D01*
G01X1341290Y-265000D02*
X1352290Y-254000D01*
G01X1357200Y-302900D02*
X1500000Y-254000D01*
G01X1357200Y-205100D02*
X1500000Y-254000D01*
G01Y0D02*
X1280000D01*
G01X1357200Y-48900D02*
X1500000Y0D01*
G01X1357200Y48900D02*
X1500000Y0D01*
G01Y257000D02*
X1317000D01*
G01X1500000Y508000D02*
X1352290D01*
G54D14*
G01X-1273000D02*
X-1196900Y431900D01*
Y100620D01*
G01X-1500000Y508000D02*
X-1273000D01*
G01X-643500Y747440D02*
X-1337730D01*
X-1352290Y762000D01*
G01D02*
X-1500000D01*
G01X-910000Y-695000D02*
X-832300D01*
X-782300Y-745000D01*
X1330000D01*
X1367730Y-707270D01*
Y-595260D01*
G01X-595000Y-205000D02*
X-638680D01*
X-696410Y-262730D01*
Y-473590D01*
X-645000Y-525000D01*
G01X552600Y-482800D02*
X484800Y-415000D01*
X-512700D01*
X-540000Y-442300D01*
Y-655000D01*
X-520000Y-675000D01*
X1230000D01*
X1287800Y-617200D01*
Y-535000D01*
G01X-430000D02*
X-357300D01*
X-292300Y-600000D01*
X1050040D01*
X1080050Y-569990D01*
Y-481310D01*
X1135000Y-426360D01*
G01X970000Y-155000D02*
X819920D01*
X792620Y-182300D01*
X169880D01*
X147180Y-205000D01*
X-595000D01*
G01X60000Y180000D02*
X-230000D01*
X-265000Y145000D01*
Y-34990D01*
X-295010Y-65000D01*
X-596050D01*
X-692100Y31050D01*
G01X-405000Y80000D02*
Y450000D01*
X-275000Y580000D01*
X-95400D01*
G01X1352290Y442280D02*
X1015010Y105000D01*
X230000D01*
X150000Y25000D01*
X-65000D01*
X-120000Y80000D01*
G01X1280000Y0D02*
X1000000Y-280000D01*
X200000D01*
G01X1317000Y257000D02*
X1088000Y28000D01*
X288000D01*
X145000Y-115000D01*
X65000D01*
G01X753710Y245000D02*
X277700D01*
X142700Y380000D01*
X60000D01*
G01X600000Y-80000D02*
X345000D01*
G01X1098710Y762000D02*
Y866280D01*
X974990Y990000D01*
X-10000D01*
X-90000Y910000D01*
Y697300D01*
G01X60000Y380000D02*
X-56460D01*
X-86460Y350000D01*
G01X336200Y415000D02*
X1025000D01*
X1090000Y480000D01*
G01X60000Y780000D02*
X160000D01*
X336200Y603800D01*
Y415000D01*
G01X289800Y852700D02*
X752300D01*
X977010Y627990D01*
X1215100D01*
G01X845010Y-377400D02*
X1012610D01*
X1125010Y-265000D01*
X1341290D01*
G01X753710Y245000D02*
X985000D01*
X1320000Y580000D01*
Y756410D01*
G01D02*
X1314410Y762000D01*
X1098710D01*
G01X1367730Y-595260D02*
X1454990Y-508000D01*
G01X1352290Y508000D02*
Y442280D01*
G01X1500000Y762000D02*
X1325590D01*
X1320000Y756410D01*
M02*
