G04 ================== begin FILE IDENTIFICATION RECORD ==================*
G04 Layout Name:  MPU6050_STM8.brd*
G04 Film Name:    SMBOT*
G04 File Format:  Gerber RS274X*
G04 File Origin:  Cadence Allegro 17.2-P019*
G04 Origin Date:  Mon Aug 01 11:25:47 2016*
G04 *
G04 Layer:  VIA CLASS/SOLDERMASK_BOTTOM*
G04 Layer:  PIN/SOLDERMASK_BOTTOM*
G04 Layer:  PACKAGE GEOMETRY/SOLDERMASK_BOTTOM*
G04 Layer:  BOARD GEOMETRY/SOLDERMASK_BOTTOM*
G04 *
G04 Offset:    (0.0000 0.0000)*
G04 Mirror:    No*
G04 Mode:      Positive*
G04 Rotation:  0*
G04 FullContactRelief:  No*
G04 UndefLineWidth:     0.0000*
G04 ================== end FILE IDENTIFICATION RECORD ====================*
%FSLAX25Y25*MOMM*%
%IR0*IPPOS*OFA0.00000B0.00000*MIA0B0*SFA1.00000B1.00000*%
%AMMACRO10*
4,1,44,1.05,.9,
-1.05,.9,
-1.102094,.895492,
-1.152606,.881958,
-1.2,.859858,
-1.242836,.829863,
-1.279813,.792886,
-1.309808,.75005,
-1.331908,.702656,
-1.345442,.652144,
-1.35,.60005,
-1.35,.6,
-1.35,-.6,
-1.345451,-.652095,
-1.331925,-.702609,
-1.309833,-.750007,
-1.279845,-.792848,
-1.242875,-.829831,
-1.200043,-.859833,
-1.152653,-.881941,
-1.102144,-.895484,
-1.05005,-.90005,
-1.05,-.9,
1.05,-.9,
1.102094,-.895492,
1.152606,-.881958,
1.2,-.859858,
1.242836,-.829863,
1.279813,-.792886,
1.309808,-.75005,
1.331908,-.702656,
1.345442,-.652144,
1.35,-.60005,
1.35,-.6,
1.35,.6,
1.345451,.652095,
1.331925,.702609,
1.309833,.750007,
1.279845,.792848,
1.242875,.829831,
1.200043,.859833,
1.152653,.881941,
1.102144,.895484,
1.05005,.90005,
1.05,.9,
0.0*
%
%ADD10MACRO10*%
%ADD12R,1.4X1.4*%
%ADD11C,1.1176*%
%LPD*%
G75*
G54D10*
X-1500000Y-508000D03*
Y-254000D03*
Y0D03*
Y254000D03*
Y508000D03*
Y762000D03*
X1500000Y-508000D03*
Y257000D03*
Y0D03*
Y-254000D03*
Y762000D03*
Y508000D03*
G54D11*
X-1196900Y100620D03*
X-910000Y-695000D03*
X-645000Y-525000D03*
X-430000Y-535000D03*
X-595000Y-205000D03*
X-405000Y80000D03*
X-692100Y31050D03*
X-643500Y747440D03*
X-120000Y80000D03*
X200000Y-280000D03*
X65000Y-115000D03*
X345000Y-80000D03*
X-90000Y697300D03*
X-86460Y350000D03*
X336200Y415000D03*
X-95400Y580000D03*
X289800Y852700D03*
X552600Y-482800D03*
X845010Y-377400D03*
X753710Y245000D03*
X970000Y-155000D03*
X1135000Y-426360D03*
X600000Y-80000D03*
X1098710Y762000D03*
X1090000Y480000D03*
X605000Y575000D03*
X492700Y572700D03*
X605370Y684630D03*
X492700Y687300D03*
X1287800Y-535000D03*
X1215100Y627990D03*
G54D12*
X60000Y180000D03*
Y380000D03*
Y580000D03*
Y780000D03*
M02*
