G04 ================== begin FILE IDENTIFICATION RECORD ==================*
G04 Layout Name:  MPU6050_STM8.brd*
G04 Film Name:    SMTOP*
G04 File Format:  Gerber RS274X*
G04 File Origin:  Cadence Allegro 17.2-P019*
G04 Origin Date:  Mon Aug 01 11:25:47 2016*
G04 *
G04 Layer:  VIA CLASS/SOLDERMASK_TOP*
G04 Layer:  PIN/SOLDERMASK_TOP*
G04 Layer:  PACKAGE GEOMETRY/SOLDERMASK_TOP*
G04 Layer:  BOARD GEOMETRY/SOLDERMASK_TOP*
G04 *
G04 Offset:    (0.0000 0.0000)*
G04 Mirror:    No*
G04 Mode:      Positive*
G04 Rotation:  0*
G04 FullContactRelief:  No*
G04 UndefLineWidth:     0.0000*
G04 ================== end FILE IDENTIFICATION RECORD ====================*
%FSLAX25Y25*MOMM*%
%IR0*IPPOS*OFA0.00000B0.00000*MIA0B0*SFA1.00000B1.00000*%
%ADD13R,1.3X.4*%
%AMMACRO10*
4,1,44,1.05,.9,
-1.05,.9,
-1.102094,.895492,
-1.152606,.881958,
-1.2,.859858,
-1.242836,.829863,
-1.279813,.792886,
-1.309808,.75005,
-1.331908,.702656,
-1.345442,.652144,
-1.35,.60005,
-1.35,.6,
-1.35,-.6,
-1.345451,-.652095,
-1.331925,-.702609,
-1.309833,-.750007,
-1.279845,-.792848,
-1.242875,-.829831,
-1.200043,-.859833,
-1.152653,-.881941,
-1.102144,-.895484,
-1.05005,-.90005,
-1.05,-.9,
1.05,-.9,
1.102094,-.895492,
1.152606,-.881958,
1.2,-.859858,
1.242836,-.829863,
1.279813,-.792886,
1.309808,-.75005,
1.331908,-.702656,
1.345442,-.652144,
1.35,-.60005,
1.35,-.6,
1.35,.6,
1.345451,.652095,
1.331925,.702609,
1.309833,.750007,
1.279845,.792848,
1.242875,.829831,
1.200043,.859833,
1.152653,.881941,
1.102144,.895484,
1.05005,.90005,
1.05,.9,
0.0*
%
%ADD10MACRO10*%
%ADD14R,1.0201X.7399*%
%ADD12R,.7399X1.0201*%
%ADD15R,2.35X1.1501*%
%ADD17R,.3X.825*%
%ADD16R,.825X.3*%
%ADD11C,1.1176*%
G75*
%LPD*%
G75*
G36*
G01X-1035000Y310000D02*
X-805000D01*
Y650000D01*
X-1035000D01*
Y310000D01*
G37*
G54D10*
X-1500000Y-508000D03*
Y-254000D03*
Y0D03*
Y254000D03*
Y508000D03*
Y762000D03*
X1500000Y-508000D03*
Y257000D03*
Y0D03*
Y-254000D03*
Y762000D03*
Y508000D03*
G54D11*
X-1196900Y100620D03*
X-910000Y-695000D03*
X-645000Y-525000D03*
X-430000Y-535000D03*
X-595000Y-205000D03*
X-405000Y80000D03*
X-692100Y31050D03*
X-643500Y747440D03*
X-120000Y80000D03*
X200000Y-280000D03*
X65000Y-115000D03*
X345000Y-80000D03*
X-90000Y697300D03*
X-86460Y350000D03*
X336200Y415000D03*
X-95400Y580000D03*
X289800Y852700D03*
X552600Y-482800D03*
X845010Y-377400D03*
X753710Y245000D03*
X970000Y-155000D03*
X1135000Y-426360D03*
X600000Y-80000D03*
X1098710Y762000D03*
X1090000Y480000D03*
X605000Y575000D03*
X492700Y572700D03*
X605370Y684630D03*
X492700Y687300D03*
X1287800Y-535000D03*
X1215100Y627990D03*
G54D12*
X-1170000Y930000D03*
X-650000D03*
X-820000D03*
X-1000000D03*
X-445000D03*
X-295000D03*
X10000D03*
X160000D03*
X1095000Y-540000D03*
X925000D03*
X645000D03*
X815000D03*
X1090000Y210000D03*
X920000D03*
X1090000Y370000D03*
X920000D03*
G54D13*
X-847500Y-562500D03*
Y-497500D03*
Y-432500D03*
Y-367500D03*
Y-302500D03*
Y-237500D03*
Y-172500D03*
Y-107500D03*
Y-42500D03*
Y22500D03*
X-272500Y-497500D03*
Y-562500D03*
Y22500D03*
Y-42500D03*
Y-107500D03*
Y-172500D03*
Y-237500D03*
Y-302500D03*
Y-367500D03*
Y-432500D03*
G54D14*
X-1085000Y-625000D03*
Y-475000D03*
X300000Y55000D03*
Y205000D03*
X60000Y585000D03*
Y415000D03*
X440000Y215000D03*
Y45000D03*
X640000Y55000D03*
Y205000D03*
X985000Y630000D03*
Y480000D03*
Y920000D03*
Y770000D03*
G54D15*
X-339930Y249940D03*
Y709940D03*
Y479940D03*
G54D16*
X353750Y505000D03*
Y555000D03*
Y605000D03*
Y655000D03*
Y705000D03*
Y755000D03*
X746250D03*
Y705000D03*
Y655000D03*
Y605000D03*
Y555000D03*
Y505000D03*
G54D17*
X425000Y826250D03*
X475000D03*
X525000D03*
X575000D03*
X625000D03*
X675000D03*
Y433750D03*
X625000D03*
X575000D03*
X525000D03*
X475000D03*
X425000D03*
M02*
