G04 ================== begin FILE IDENTIFICATION RECORD ==================*
G04 Layout Name:  MPU6050_STM8.brd*
G04 Film Name:    TOP*
G04 File Format:  Gerber RS274X*
G04 File Origin:  Cadence Allegro 17.2-P019*
G04 Origin Date:  Mon Aug 01 11:25:47 2016*
G04 *
G04 Layer:  BOARD GEOMETRY/DESIGN_OUTLINE*
G04 Layer:  ETCH/TOP*
G04 Layer:  PIN/TOP*
G04 Layer:  VIA CLASS/TOP*
G04 *
G04 Offset:    (0.0000 0.0000)*
G04 Mirror:    No*
G04 Mode:      Positive*
G04 Rotation:  0*
G04 FullContactRelief:  No*
G04 UndefLineWidth:     0.0000*
G04 ================== end FILE IDENTIFICATION RECORD ====================*
%FSLAX25Y25*MOMM*%
%IR0*IPPOS*OFA0.00000B0.00000*MIA0B0*SFA1.00000B1.00000*%
%ADD15R,2.1501X.95*%
%AMMACRO10*
4,1,44,.95,.7999,
-.95,.7999,
-1.002095,.795401,
-1.052609,.781875,
-1.100007,.759783,
-1.142848,.729795,
-1.179831,.692825,
-1.209833,.649993,
-1.231941,.602603,
-1.245484,.552094,
-1.25005,.5,
-1.25,.4999,
-1.25,-.4999,
-1.245501,-.551995,
-1.231975,-.602509,
-1.209883,-.649907,
-1.179895,-.692748,
-1.142925,-.729731,
-1.100093,-.759733,
-1.052703,-.781841,
-1.002194,-.795384,
-.9501,-.79995,
-.95,-.7999,
.95,-.7999,
1.002095,-.795401,
1.052609,-.781875,
1.100007,-.759783,
1.142848,-.729795,
1.179831,-.692825,
1.209833,-.649993,
1.231941,-.602603,
1.245484,-.552094,
1.25005,-.5,
1.25,-.4999,
1.25,.4999,
1.245501,.551995,
1.231975,.602509,
1.209883,.649907,
1.179895,.692748,
1.142925,.729731,
1.100093,.759733,
1.052703,.781841,
1.002194,.795384,
.9501,.79995,
.95,.7999,
0.0*
%
%ADD10MACRO10*%
%ADD14R,1.0201X.7399*%
%ADD13R,1.1999X.3*%
%ADD12R,.7399X1.0201*%
%ADD11C,1.*%
%ADD17R,.3X.825*%
%ADD16R,.825X.3*%
%ADD18C,.2*%
%ADD19C,.3*%
G75*
%LPD*%
G75*
G36*
G01X-1366100Y-575640D02*
G03X-1362280Y-558000I-38893J17656D01*
G01Y-458000D01*
G03X-1364790Y-443590I-42714J-16D01*
G02X-1355220Y-430000I9565J3429D01*
G01X-1270000D01*
X-1265000Y-425000D01*
X-1255000Y-435000D01*
Y-575000D01*
X-1270000Y-590000D01*
X-1356840D01*
G02X-1366100Y-575640I-7J10161D01*
G37*
G36*
G01X-1358930Y323930D02*
X-1295000Y260000D01*
Y95000D01*
X-1320000D01*
X-1379920Y154920D01*
G02X-1378940Y170160I7179J7190D01*
G03X-1362280Y204000I-26054J33848D01*
G01Y304000D01*
G03X-1363830Y315390I-42714J-12D01*
G01X-1364620Y318250D01*
X-1358930Y323930D01*
G37*
G36*
G01X-1345010Y60010D02*
X-1310000Y25000D01*
Y-105000D01*
X-1320000Y-115000D01*
X-1485000D01*
X-1500000Y-100000D01*
Y-92710D01*
X-1404990D01*
G03X-1362280Y-50000I-5J42715D01*
G01Y50000D01*
G03X-1362340Y52280I-42715J17D01*
G02X-1345010Y60010I10145J548D01*
G37*
G36*
G01X-1270000Y-220000D02*
Y-295000D01*
X-1300000Y-325000D01*
X-1353240D01*
G02X-1363190Y-312760I-5J10160D01*
G03X-1362280Y-304000I-41805J8770D01*
G01Y-204000D01*
G03X-1365090Y-188780I-42714J-17D01*
G02X-1355590Y-175000I9495J3619D01*
G01X-1315000D01*
X-1270000Y-220000D01*
G37*
G36*
G01X-1025000Y320000D02*
X-815000D01*
Y640000D01*
X-1025000D01*
Y320000D01*
G37*
G36*
G01X1026360Y472930D02*
X1054650Y444660D01*
X1092500Y480000D01*
X1054650Y515340D01*
X1026360Y487070D01*
G03Y472930I7070J-7070D01*
G37*
G36*
G01X430000Y750000D02*
Y510000D01*
X670000D01*
Y750000D01*
X430000D01*
G37*
G54D10*
X-1500000Y-508000D03*
Y-254000D03*
Y0D03*
Y254000D03*
Y508000D03*
Y762000D03*
X1500000Y-508000D03*
Y257000D03*
Y0D03*
Y-254000D03*
Y762000D03*
Y508000D03*
G54D11*
X-1196900Y100620D03*
X-910000Y-695000D03*
X-645000Y-525000D03*
X-430000Y-535000D03*
X-595000Y-205000D03*
X-405000Y80000D03*
X-692100Y31050D03*
X-643500Y747440D03*
X-120000Y80000D03*
X200000Y-280000D03*
X65000Y-115000D03*
X345000Y-80000D03*
X-90000Y697300D03*
X-86460Y350000D03*
X336200Y415000D03*
X-95400Y580000D03*
X289800Y852700D03*
X552600Y-482800D03*
X845010Y-377400D03*
X753710Y245000D03*
X970000Y-155000D03*
X1135000Y-426360D03*
X600000Y-80000D03*
X1098710Y762000D03*
X1090000Y480000D03*
X605000Y575000D03*
X492700Y572700D03*
X605370Y684630D03*
X492700Y687300D03*
X1287800Y-535000D03*
X1215100Y627990D03*
G54D12*
X-1170000Y930000D03*
X-650000D03*
X-820000D03*
X-1000000D03*
X-445000D03*
X-295000D03*
X10000D03*
X160000D03*
X1095000Y-540000D03*
X925000D03*
X645000D03*
X815000D03*
X1090000Y210000D03*
X920000D03*
X1090000Y370000D03*
X920000D03*
G54D13*
X-847500Y-562500D03*
Y-497500D03*
Y-432500D03*
Y-367500D03*
Y-302500D03*
Y-237500D03*
Y-172500D03*
Y-107500D03*
Y-42500D03*
Y22500D03*
X-272500Y-497500D03*
Y-562500D03*
Y22500D03*
Y-42500D03*
Y-107500D03*
Y-172500D03*
Y-237500D03*
Y-302500D03*
Y-367500D03*
Y-432500D03*
G54D14*
X-1085000Y-625000D03*
Y-475000D03*
X300000Y55000D03*
Y205000D03*
X60000Y585000D03*
Y415000D03*
X440000Y215000D03*
Y45000D03*
X640000Y55000D03*
Y205000D03*
X985000Y630000D03*
Y480000D03*
Y920000D03*
Y770000D03*
G54D15*
X-339930Y249940D03*
Y709940D03*
Y479940D03*
G54D16*
X353750Y505000D03*
Y555000D03*
Y605000D03*
Y655000D03*
Y705000D03*
Y755000D03*
X746250D03*
Y705000D03*
Y655000D03*
Y605000D03*
Y555000D03*
Y505000D03*
G54D17*
X425000Y826250D03*
X475000D03*
X525000D03*
X575000D03*
X625000D03*
X675000D03*
Y433750D03*
X625000D03*
X575000D03*
X525000D03*
X475000D03*
X425000D03*
G54D18*
G01X-1500000Y-508000D02*
X-1357200Y-459100D01*
G01X-1500000Y-508000D02*
X-1357200Y-556900D01*
G01X-1500000Y254000D02*
X-1357200Y156200D01*
G01X-1500000Y254000D02*
X-1357200Y302900D01*
G01X-1500000Y-97800D02*
Y0D01*
G01D02*
X-1357200D01*
G01X-1500000Y-254000D02*
X-1357200D01*
G01X-1500000D02*
X-1357200Y-205100D01*
G01X-62700Y930000D02*
X10000D01*
G01X60000Y355300D02*
Y415000D01*
G01X925000Y-540000D02*
X815000D01*
G01X645000D02*
X587800Y-482800D01*
X552600D01*
G01X985000Y630000D02*
Y770000D01*
G01D02*
X1090710D01*
X1098710Y762000D01*
G01X985000Y770000D02*
X911290D01*
X896290Y755000D01*
X746250D01*
G01X985000Y480000D02*
X1090000D01*
G01X905000Y355000D02*
X920000Y370000D01*
G54D19*
G01X-1500000Y-508000D02*
X-1336900D01*
G01D02*
X-1131400Y-302500D01*
X-847500D01*
G01X-1500000Y254000D02*
X-1466100D01*
X-1169600Y-42500D01*
X-847500D01*
G01Y-107500D02*
X-1392500D01*
G01D02*
X-1500000Y0D01*
G01Y-254000D02*
X-1483500Y-237500D01*
X-847500D01*
G01Y22500D02*
X-1118780D01*
X-1196900Y100620D01*
G01X-692100Y31050D02*
Y103750D01*
X-733350Y145000D01*
X-1055000D01*
X-1170000Y260000D01*
Y930000D01*
G01X160000D02*
Y950000D01*
X130000Y980000D01*
Y986220D01*
X121220Y995000D01*
X115000D01*
X95000Y1015000D01*
X-1095000D01*
X-1115000Y995000D01*
X-1121220D01*
X-1130000Y986220D01*
Y980000D01*
X-1170000Y940000D01*
Y930000D01*
G01X-847500Y-562500D02*
Y-632500D01*
X-910000Y-695000D01*
G01X-847500Y-497500D02*
X-745200D01*
X-717700Y-525000D01*
X-645000D01*
G01X-1085000Y-625000D02*
X-1003520D01*
X-978590Y-600070D01*
Y-473120D01*
X-937970Y-432500D01*
X-847500D01*
G01X-272500Y-302500D02*
X-362970D01*
X-430000Y-369530D01*
Y-535000D01*
G01X-1085000Y-475000D02*
Y-407530D01*
X-1044970Y-367500D01*
X-847500D01*
G01X-339930Y249940D02*
X-477910D01*
X-488590Y239260D01*
Y116300D01*
X-497700Y107190D01*
Y42810D01*
X-488590Y33700D01*
Y-267500D01*
X-588590Y-367500D01*
X-847500D01*
G01X-561290Y479940D02*
X-595000Y446230D01*
Y-205000D01*
G01X-272500Y-107500D02*
X-375000D01*
X-405000Y-77500D01*
Y80000D01*
G01X-847500Y-172500D02*
X-757030D01*
X-692100Y-107570D01*
Y31050D01*
G01X-1000000Y930000D02*
X-879700D01*
G01D02*
X-820000D01*
G01X-879700D02*
Y838350D01*
X-561290Y519940D01*
Y479940D01*
G01D02*
X-339930D01*
G01Y709940D02*
X-533300D01*
X-570800Y747440D01*
X-643500D01*
G01X-445000Y930000D02*
X-650000D01*
G01X1095000Y-540000D02*
Y-599700D01*
X1014700Y-680000D01*
X268890D01*
X151390Y-562500D01*
X-272500D01*
G01Y-497500D02*
X537900D01*
X552600Y-482800D01*
G01X-272500Y22500D02*
Y54580D01*
X-247080Y80000D01*
X-120000D01*
G01X-272500Y-432500D02*
X417600D01*
X472700Y-377400D01*
X845010D01*
G01X-272500Y-237500D02*
X79800D01*
X122300Y-280000D01*
X200000D01*
G01X-272500Y-172500D02*
X-70200D01*
X-12700Y-115000D01*
X65000D01*
G01X-86460Y249940D02*
X-339930D01*
G01X-86460D02*
Y350000D01*
G01X300000Y55000D02*
X155940D01*
X-39000Y249940D01*
X-86460D01*
G01X300000Y205000D02*
Y274700D01*
G01X-272500Y-42500D02*
X27610D01*
X32810Y-37300D01*
X97190D01*
X102190Y-42300D01*
X117190D01*
X117390Y-42500D01*
X315000D01*
X345000Y-72500D01*
Y-80000D01*
G01X440000Y45000D02*
Y-280000D01*
X352500Y-367500D01*
X-272500D01*
G01X-295000Y930000D02*
X-62700D01*
G01D02*
Y797300D01*
X-90000Y770000D01*
Y697300D01*
G01X353750Y755000D02*
X75480D01*
X17780Y697300D01*
X-90000D01*
G01X336200Y415000D02*
Y274700D01*
G01D02*
X300000D01*
G01D02*
X140600D01*
X60000Y355300D01*
G01X336200Y274700D02*
X440000D01*
G01X-339930Y479940D02*
X-74640D01*
X50000Y355300D01*
X60000D01*
G01Y585000D02*
X45990D01*
X40990Y580000D01*
X-95400D01*
G01X425000Y826250D02*
X379470D01*
X353020Y852700D01*
X289800D01*
G01X970000Y-155000D02*
Y-227700D01*
X925000Y-272700D01*
Y-540000D01*
G01X1215100Y627990D02*
Y555290D01*
X1240000Y530390D01*
Y-462470D01*
X1162470Y-540000D01*
X1095000D01*
G01X640000Y55000D02*
X721480D01*
X753710Y87230D01*
Y245000D01*
G01X1090000Y210000D02*
Y-35000D01*
X970000Y-155000D01*
G01X440000Y274700D02*
Y215000D01*
G01X640000Y205000D02*
Y272470D01*
X575000Y337470D01*
Y433750D01*
G01X600000Y-80000D02*
X785000D01*
X845000Y-20000D01*
Y210000D01*
G01D02*
X920000D01*
G01X625000Y433750D02*
Y355730D01*
X640730Y340000D01*
X811510D01*
X845000Y306510D01*
Y210000D01*
G01X525000Y433750D02*
Y48520D01*
X521480Y45000D01*
X440000D01*
G01X1090000Y480000D02*
Y370000D01*
G01X746250Y505000D02*
X1065000D01*
X1090000Y480000D01*
G01X475000Y433750D02*
Y274700D01*
X440000D01*
G01X475000Y826250D02*
Y897980D01*
X577020Y1000000D01*
X1210000D01*
X1310000Y900000D01*
Y-440100D01*
X1287800Y-462300D01*
Y-535000D01*
G01X985000Y920000D02*
X647020D01*
X625000Y897980D01*
Y826250D01*
G01X675000Y433750D02*
X851250D01*
X905000Y380000D01*
Y355000D01*
G01X1135000Y-426360D02*
Y-307300D01*
X1170000Y-272300D01*
Y256110D01*
X1154700Y271410D01*
Y272480D01*
X1135890Y291290D01*
X938810D01*
X905000Y325100D01*
Y355000D01*
M02*
