G04 ================== begin FILE IDENTIFICATION RECORD ==================*
G04 Layout Name:  C:/DATA/GIT/CADENCE/MODULES/ZW_FLASH/allegro/Z_FLASH.brd*
G04 Film Name:    BOTTOM*
G04 File Format:  Gerber RS274X*
G04 File Origin:  Cadence Allegro 17.2-P019*
G04 Origin Date:  Mon Jul 03 14:22:33 2017*
G04 *
G04 Layer:  ETCH/BOTTOM*
G04 Layer:  PIN/BOTTOM*
G04 Layer:  VIA CLASS/BOTTOM*
G04 *
G04 Offset:    (0.0000 0.0000)*
G04 Mirror:    No*
G04 Mode:      Positive*
G04 Rotation:  0*
G04 FullContactRelief:  No*
G04 UndefLineWidth:     0.0000*
G04 ================== end FILE IDENTIFICATION RECORD ====================*
%FSLAX25Y25*MOMM*%
%IR0*IPPOS*OFA0.00000B0.00000*MIA0B0*SFA1.00000B1.00000*%
%ADD10C,1.4*%
%ADD11R,1.4X1.4*%
%ADD12C,1.5999*%
%ADD13R,1.5999X1.5999*%
%ADD14C,.3*%
G75*
%LPD*%
G75*
G36*
G01X4921610Y9069390D02*
X4960510Y9030510D01*
X5013750Y9080000D01*
X4960510Y9129490D01*
X4921610Y9090610D01*
G03Y9069390I10610J-10610D01*
G37*
G36*
G01Y9269390D02*
X4960510Y9230510D01*
X5013750Y9280000D01*
X4960510Y9329490D01*
X4921610Y9290610D01*
G03Y9269390I10610J-10610D01*
G37*
G36*
G01X4940000Y9535000D02*
Y9480000D01*
X5012650Y9477350D01*
X5010000Y9550000D01*
X4955000D01*
G03X4940000Y9535000I0J-15000D01*
G37*
G36*
G01X5757470Y9114390D02*
X5803440Y9068440D01*
X5863750Y9125000D01*
X5803440Y9181560D01*
X5757470Y9135610D01*
G03Y9114390I10610J-10610D01*
G37*
G36*
G01X5962530Y9135610D02*
X5916560Y9181560D01*
X5856250Y9125000D01*
X5916560Y9068440D01*
X5962530Y9114390D01*
G03Y9135610I-10610J10610D01*
G37*
G36*
G01Y9389610D02*
X5916560Y9435560D01*
X5856250Y9379000D01*
X5916560Y9322440D01*
X5962530Y9368390D01*
G03Y9389610I-10610J10610D01*
G37*
G36*
G01X5757470Y9622390D02*
X5803440Y9576440D01*
X5863750Y9633000D01*
X5803440Y9689560D01*
X5757470Y9643610D01*
G03Y9622390I10610J-10610D01*
G37*
G36*
G01X6219470Y9127380D02*
X6265440Y9081430D01*
X6325750Y9137990D01*
X6265440Y9194550D01*
X6219470Y9148600D01*
G03Y9127380I10610J-10610D01*
G37*
G36*
G01X6424530Y8640600D02*
X6378560Y8686550D01*
X6318250Y8629990D01*
X6378560Y8573430D01*
X6424530Y8619380D01*
G03Y8640600I-10610J10610D01*
G37*
G36*
G01Y9148600D02*
X6378560Y9194550D01*
X6318250Y9137990D01*
X6378560Y9081430D01*
X6424530Y9127380D01*
G03Y9148600I-10610J10610D01*
G37*
G36*
G01X7025000Y8644000D02*
X7090000Y8644010D01*
X7092650Y8726650D01*
X7010010Y8724000D01*
X7010000Y8659000D01*
G03X7025000Y8644000I15000J0D01*
G37*
G36*
G01X7279000Y9152000D02*
X7344000Y9152010D01*
X7346650Y9234650D01*
X7264010Y9232000D01*
X7264000Y9167000D01*
G03X7279000Y9152000I15000J0D01*
G37*
G54D10*
X5010000Y8280000D03*
Y8480000D03*
Y8680000D03*
Y8880000D03*
Y9080000D03*
Y9280000D03*
Y9480000D03*
Y9680000D03*
Y9880000D03*
Y10080000D03*
X5210000Y8480000D03*
Y8680000D03*
Y8880000D03*
Y9080000D03*
Y9280000D03*
Y9480000D03*
Y9680000D03*
Y9880000D03*
Y10080000D03*
G54D11*
Y8280000D03*
G54D12*
X5860000Y8617000D03*
Y8871000D03*
Y9125000D03*
Y9379000D03*
Y9633000D03*
X6322000Y8376000D03*
Y8629990D03*
Y8883990D03*
Y9137990D03*
Y9391990D03*
Y9645990D03*
X7090000Y8724000D03*
Y8978000D03*
Y9232000D03*
Y9486000D03*
X7344000Y8724000D03*
Y8978000D03*
Y9232000D03*
Y9486000D03*
Y9740000D03*
G54D13*
X5860000Y9887000D03*
X6322000Y9899990D03*
X7090000Y9740000D03*
G54D14*
G01X5010000Y9080000D02*
X4909520D01*
X4830000Y9000480D01*
Y8220010D01*
X4920010Y8130000D01*
X5550000D01*
X5640000Y8220000D01*
Y9030000D01*
X5735000Y9125000D01*
X5860000D01*
G01X5010000Y9280000D02*
X4909520D01*
X4830000Y9359520D01*
Y10259970D01*
X4890000Y10320000D01*
X5940000D01*
X6120000Y10140000D01*
Y9480000D01*
X6019000Y9379000D01*
X5860000D01*
G01X5010000Y9480000D02*
X4895000Y9595000D01*
Y10205010D01*
X4949990Y10260000D01*
X5370000D01*
X5490000Y10140000D01*
Y9720000D01*
X5577000Y9633000D01*
X5860000D01*
G01Y9125000D02*
X6201310D01*
X6214300Y9137990D01*
X6322000D01*
G01Y8629990D02*
X6995990D01*
X7090000Y8724000D01*
G01X7344000Y9232000D02*
X7219000Y9107000D01*
X6643000D01*
X6612010Y9137990D01*
X6322000D01*
M02*
