G04 ================== begin FILE IDENTIFICATION RECORD ==================*
G04 Layout Name:  C:/DATA/GIT/CADENCE/MODULES/ZW_FLASH/allegro/Z_FLASH.brd*
G04 Film Name:    SC_TOP*
G04 File Format:  Gerber RS274X*
G04 File Origin:  Cadence Allegro 17.2-P019*
G04 Origin Date:  Mon Jul 03 14:22:33 2017*
G04 *
G04 Layer:  PACKAGE GEOMETRY/ASSEMBLY_TOP*
G04 Layer:  PACKAGE GEOMETRY/SILKSCREEN_TOP*
G04 Layer:  BOARD GEOMETRY/SILKSCREEN_TOP*
G04 *
G04 Offset:    (0.0000 0.0000)*
G04 Mirror:    No*
G04 Mode:      Positive*
G04 Rotation:  0*
G04 FullContactRelief:  No*
G04 UndefLineWidth:     0.0000*
G04 ================== end FILE IDENTIFICATION RECORD ====================*
%FSLAX25Y25*MOMM*%
%IR0*IPPOS*OFA0.00000B0.00000*MIA0B0*SFA1.00000B1.00000*%
%ADD10C,.1*%
%ADD11C,.2*%
%ADD12C,.15*%
G75*
%LPD*%
G75*
G54D10*
G01X5340000Y8210000D02*
Y8350000D01*
X5270000Y8280000D01*
X5340000Y8210000D01*
G54D11*
G01X7670000D02*
X6730000D01*
Y9100000D01*
X6890000D01*
Y9360000D01*
X6730000D01*
Y10250000D01*
X7670000D01*
Y8210000D01*
G54D12*
G01X4830000Y8150000D02*
Y10260000D01*
X5390000D01*
Y8150000D01*
X4830000D01*
G01X5495050Y8649370D02*
X5514530D01*
Y8625750D01*
X5508680Y8617870D01*
X5501870Y8612620D01*
X5492130Y8610000D01*
X5482390Y8612620D01*
X5475580Y8617870D01*
X5469740Y8625750D01*
X5465840Y8634930D01*
X5463890Y8645430D01*
Y8654620D01*
X5465840Y8662490D01*
X5469740Y8671680D01*
X5475580Y8679550D01*
X5481420Y8684800D01*
X5489210Y8688740D01*
X5496030D01*
X5503810Y8686120D01*
X5509660Y8680870D01*
G01X5545560Y8610000D02*
Y8688740D01*
X5590340Y8610000D01*
Y8688740D01*
G01X5625270Y8610000D02*
Y8688740D01*
X5644740D01*
X5652530Y8684800D01*
X5658370Y8679550D01*
X5663240Y8671680D01*
X5667140Y8662490D01*
X5668110Y8649370D01*
X5667140Y8636250D01*
X5663240Y8627060D01*
X5658370Y8619180D01*
X5652530Y8613940D01*
X5644740Y8610000D01*
X5625270D01*
G01X5379740Y8820000D02*
Y8898740D01*
X5404080D01*
X5411870Y8894800D01*
X5416740Y8889550D01*
X5418680Y8879050D01*
X5416740Y8868560D01*
X5410890Y8862000D01*
X5404080Y8858060D01*
X5379740D01*
G01X5404080D02*
X5418680Y8820000D01*
G01X5497420D02*
X5458480D01*
Y8898740D01*
X5497420D01*
G01X5481840Y8860680D02*
X5458480D01*
G01X5536240Y8830500D02*
X5544030Y8823940D01*
X5552800Y8820000D01*
X5560580D01*
X5568370Y8823940D01*
X5574220Y8830500D01*
X5577140Y8839690D01*
X5575190Y8848870D01*
X5570320Y8856740D01*
X5561560Y8862000D01*
X5549870Y8864620D01*
X5543060Y8869870D01*
X5540140Y8879050D01*
X5542090Y8888240D01*
X5546950Y8894800D01*
X5553770Y8898740D01*
X5560580D01*
X5567400Y8896120D01*
X5573240Y8889550D01*
G01X5654900Y8820000D02*
X5615960D01*
Y8898740D01*
X5654900D01*
G01X5639320Y8860680D02*
X5615960D01*
G01X5714170Y8898740D02*
Y8820000D01*
G01X5691780Y8898740D02*
X5736560D01*
G01X5473890Y9120000D02*
Y9198740D01*
X5499210Y9133120D01*
X5524530Y9198740D01*
Y9120000D01*
G01X5566270Y9198740D02*
X5589630D01*
G01X5577950D02*
Y9120000D01*
G01X5566270D02*
X5589630D01*
G01X5636240Y9130500D02*
X5644030Y9123940D01*
X5652800Y9120000D01*
X5660580D01*
X5668370Y9123940D01*
X5674220Y9130500D01*
X5677140Y9139690D01*
X5675190Y9148870D01*
X5670320Y9156740D01*
X5661560Y9162000D01*
X5649870Y9164620D01*
X5643060Y9169870D01*
X5640140Y9179050D01*
X5642090Y9188240D01*
X5646950Y9194800D01*
X5653770Y9198740D01*
X5660580D01*
X5667400Y9196120D01*
X5673240Y9189550D01*
G01X5735430Y9120000D02*
X5727640Y9121310D01*
X5720830Y9126560D01*
X5714980Y9134430D01*
X5711090Y9143620D01*
X5709140Y9154120D01*
Y9164620D01*
X5711090Y9175120D01*
X5714980Y9184310D01*
X5720830Y9192180D01*
X5727640Y9197430D01*
X5735430Y9198740D01*
X5743220Y9197430D01*
X5750030Y9192180D01*
X5755880Y9184310D01*
X5759770Y9175120D01*
X5761720Y9164620D01*
Y9154120D01*
X5759770Y9143620D01*
X5755880Y9134430D01*
X5750030Y9126560D01*
X5743220Y9121310D01*
X5735430Y9120000D01*
G01X5468760Y9370500D02*
X5476550Y9363940D01*
X5485320Y9360000D01*
X5493100D01*
X5500890Y9363940D01*
X5506740Y9370500D01*
X5509660Y9379690D01*
X5507710Y9388870D01*
X5502840Y9396740D01*
X5494080Y9402000D01*
X5482390Y9404620D01*
X5475580Y9409870D01*
X5472660Y9419050D01*
X5474610Y9428240D01*
X5479470Y9434800D01*
X5486290Y9438740D01*
X5493100D01*
X5499920Y9436120D01*
X5505760Y9429550D01*
G01X5589370Y9432180D02*
X5583530Y9436120D01*
X5576710Y9438740D01*
X5568920D01*
X5560160Y9434800D01*
X5553350Y9428240D01*
X5548480Y9420370D01*
X5544580Y9407240D01*
X5543610Y9395430D01*
X5545560Y9383620D01*
X5548480Y9375750D01*
X5554320Y9367870D01*
X5561130Y9362620D01*
X5567950Y9360000D01*
X5574770D01*
X5581580Y9362620D01*
X5587420Y9366560D01*
X5592290Y9371810D01*
G01X5625270Y9360000D02*
Y9438740D01*
G01X5662270D02*
X5625270Y9390180D01*
G01X5668110Y9360000D02*
X5641820Y9412490D01*
G01X5403890Y9600000D02*
Y9678740D01*
X5429210Y9613120D01*
X5454530Y9678740D01*
Y9600000D01*
G01X5507950D02*
X5500160Y9601310D01*
X5493350Y9606560D01*
X5487500Y9614430D01*
X5483610Y9623620D01*
X5481660Y9634120D01*
Y9644620D01*
X5483610Y9655120D01*
X5487500Y9664310D01*
X5493350Y9672180D01*
X5500160Y9677430D01*
X5507950Y9678740D01*
X5515740Y9677430D01*
X5522550Y9672180D01*
X5528400Y9664310D01*
X5532290Y9655120D01*
X5534240Y9644620D01*
Y9634120D01*
X5532290Y9623620D01*
X5528400Y9614430D01*
X5522550Y9606560D01*
X5515740Y9601310D01*
X5507950Y9600000D01*
G01X5566240Y9610500D02*
X5574030Y9603940D01*
X5582800Y9600000D01*
X5590580D01*
X5598370Y9603940D01*
X5604220Y9610500D01*
X5607140Y9619690D01*
X5605190Y9628870D01*
X5600320Y9636740D01*
X5591560Y9642000D01*
X5579870Y9644620D01*
X5573060Y9649870D01*
X5570140Y9659050D01*
X5572090Y9668240D01*
X5576950Y9674800D01*
X5583770Y9678740D01*
X5590580D01*
X5597400Y9676120D01*
X5603240Y9669550D01*
G01X5653750Y9678740D02*
X5677110D01*
G01X5665430D02*
Y9600000D01*
G01X5653750D02*
X5677110D01*
G01X5699210Y10020000D02*
Y10098740D01*
X5687530Y10082990D01*
G01Y10020000D02*
X5710890D01*
G01X5889740Y8310000D02*
Y8388740D01*
X5913100D01*
X5920890Y8384800D01*
X5926740Y8375620D01*
X5928680Y8365120D01*
X5926740Y8354620D01*
X5921870Y8346740D01*
X5913100Y8342810D01*
X5889740D01*
G01X5987950Y8310000D02*
Y8388740D01*
X5976270Y8372990D01*
G01Y8310000D02*
X5999630D01*
G01X6066690Y8307380D02*
X6064740Y8308690D01*
Y8311310D01*
X6066690Y8312620D01*
X6068640Y8311310D01*
Y8308690D01*
X6066690Y8307380D01*
G01X6124010Y8321810D02*
X6129850Y8315250D01*
X6136670Y8311310D01*
X6145430Y8310000D01*
X6154190Y8312620D01*
X6161010Y8317870D01*
X6165880Y8327060D01*
X6166850Y8337560D01*
X6164900Y8348060D01*
X6160030Y8354620D01*
X6153220Y8359870D01*
X6146400Y8361180D01*
X6139590Y8359870D01*
X6130830Y8354620D01*
X6133750Y8388740D01*
X6160030D01*
G01X6149210Y10020000D02*
Y10098740D01*
X6137530Y10082990D01*
G01Y10020000D02*
X6160890D01*
G01X6450000Y10030000D02*
Y8220000D01*
X6190000D01*
Y10030000D01*
X6450000D01*
G01X6430000Y10310000D02*
X6650000D01*
Y10210000D01*
X6430000D01*
Y10310000D01*
M02*
