G04 ================== begin FILE IDENTIFICATION RECORD ==================*
G04 Layout Name:  C:/DATA/GIT/CADENCE/MODULES/ZW_FLASH/allegro/Z_FLASH.brd*
G04 Film Name:    TOP*
G04 File Format:  Gerber RS274X*
G04 File Origin:  Cadence Allegro 17.2-P019*
G04 Origin Date:  Mon Jul 03 14:22:33 2017*
G04 *
G04 Layer:  ETCH/TOP*
G04 Layer:  PIN/TOP*
G04 Layer:  VIA CLASS/TOP*
G04 *
G04 Offset:    (0.0000 0.0000)*
G04 Mirror:    No*
G04 Mode:      Positive*
G04 Rotation:  0*
G04 FullContactRelief:  No*
G04 UndefLineWidth:     0.0000*
G04 ================== end FILE IDENTIFICATION RECORD ====================*
%FSLAX25Y25*MOMM*%
%IR0*IPPOS*OFA0.00000B0.00000*MIA0B0*SFA1.00000B1.00000*%
%ADD14R,.7399X1.0201*%
%ADD10C,1.4*%
%ADD11R,1.4X1.4*%
%ADD12C,1.5999*%
%ADD13R,1.5999X1.5999*%
%ADD15C,.3*%
G75*
%LPD*%
G75*
G36*
G01X4921610Y8869390D02*
X4960510Y8830510D01*
X5013750Y8880000D01*
X4960510Y8929490D01*
X4921610Y8890610D01*
G03Y8869390I10610J-10610D01*
G37*
G36*
G01X5298390Y9490610D02*
X5259490Y9529490D01*
X5206250Y9480000D01*
X5259490Y9430510D01*
X5298390Y9469390D01*
G03Y9490610I-10610J10610D01*
G37*
G36*
G01Y9690610D02*
X5259490Y9729490D01*
X5206250Y9680000D01*
X5259490Y9630510D01*
X5298390Y9669390D01*
G03Y9690610I-10610J10610D01*
G37*
G36*
G01Y9890610D02*
X5259490Y9929490D01*
X5206250Y9880000D01*
X5259490Y9830510D01*
X5298390Y9869390D01*
G03Y9890610I-10610J10610D01*
G37*
G36*
G01X5757470Y8606390D02*
X5803440Y8560440D01*
X5863750Y8617000D01*
X5803440Y8673560D01*
X5757470Y8627610D01*
G03Y8606390I10610J-10610D01*
G37*
G36*
G01X5962530Y8627610D02*
X5916560Y8673560D01*
X5856250Y8617000D01*
X5916560Y8560440D01*
X5962530Y8606390D01*
G03Y8627610I-10610J10610D01*
G37*
G36*
G01X5757470Y8860390D02*
X5803440Y8814440D01*
X5863750Y8871000D01*
X5803440Y8927560D01*
X5757470Y8881610D01*
G03Y8860390I10610J-10610D01*
G37*
G36*
G01X5962530Y8881610D02*
X5916560Y8927560D01*
X5856250Y8871000D01*
X5916560Y8814440D01*
X5962530Y8860390D01*
G03Y8881610I-10610J10610D01*
G37*
G36*
G01Y9389610D02*
X5916560Y9435560D01*
X5856250Y9379000D01*
X5916560Y9322440D01*
X5962530Y9368390D01*
G03Y9389610I-10610J10610D01*
G37*
G36*
G01Y9643610D02*
X5916560Y9689560D01*
X5856250Y9633000D01*
X5916560Y9576440D01*
X5962530Y9622390D01*
G03Y9643610I-10610J10610D01*
G37*
G36*
G01X5739250Y9879610D02*
X5780020Y9838080D01*
X5863750Y9887000D01*
X5780020Y9935920D01*
X5739250Y9894390D01*
G03Y9879610I13050J-7390D01*
G37*
G36*
G01X6015250Y9896330D02*
X5940000Y9967000D01*
X5856250Y9887000D01*
X5940000Y9807000D01*
X6015250Y9877670D01*
G03Y9896330I-11750J9330D01*
G37*
G36*
G01X6332610Y8273470D02*
X6378560Y8319440D01*
X6322000Y8379750D01*
X6265440Y8319440D01*
X6311390Y8273470D01*
G03X6332610I10610J10610D01*
G37*
G36*
G01X6219470Y8619380D02*
X6265440Y8573430D01*
X6325750Y8629990D01*
X6265440Y8686550D01*
X6219470Y8640600D01*
G03Y8619380I10610J-10610D01*
G37*
G36*
G01Y8873380D02*
X6265440Y8827430D01*
X6325750Y8883990D01*
X6265440Y8940550D01*
X6219470Y8894600D01*
G03Y8873380I10610J-10610D01*
G37*
G36*
G01Y9381380D02*
X6265440Y9335430D01*
X6325750Y9391990D01*
X6265440Y9448550D01*
X6219470Y9402600D01*
G03Y9381380I10610J-10610D01*
G37*
G36*
G01Y9635380D02*
X6265440Y9589430D01*
X6325750Y9645990D01*
X6265440Y9702550D01*
X6219470Y9656600D01*
G03Y9635380I10610J-10610D01*
G37*
G36*
G01X6201250Y9892600D02*
X6242020Y9851070D01*
X6325750Y9899990D01*
X6242020Y9948910D01*
X6201250Y9907380D01*
G03Y9892600I13050J-7390D01*
G37*
G36*
G01X6312670Y10055230D02*
X6242000Y9979980D01*
X6322000Y9896240D01*
X6402000Y9979980D01*
X6331330Y10055230D01*
G03X6312670I-9330J-11750D01*
G37*
G36*
G01X6402000Y9327000D02*
X6401990Y9391990D01*
X6319350Y9394640D01*
X6322000Y9312010D01*
X6387000Y9312000D01*
G03X6402000Y9327000I0J15000D01*
G37*
G36*
G01X6424530Y9656600D02*
X6378560Y9702550D01*
X6318250Y9645990D01*
X6378560Y9589430D01*
X6424530Y9635380D01*
G03Y9656600I-10610J10610D01*
G37*
G36*
G01X6477250Y9909320D02*
X6402000Y9979980D01*
X6318250Y9899990D01*
X6402000Y9820000D01*
X6477250Y9890660D01*
G03Y9909320I-11750J9330D01*
G37*
G36*
G01X6384650Y10252310D02*
X6428000Y10209000D01*
X6468750Y10260000D01*
X6428000Y10311000D01*
X6384650Y10267690D01*
G03Y10252310I12880J-7690D01*
G37*
G36*
G01X6700250Y10268650D02*
X6652000Y10311000D01*
X6611250Y10260000D01*
X6652000Y10209000D01*
X6700250Y10251350D01*
G03Y10268650I-12260J8650D01*
G37*
G36*
G01X7010000Y8789000D02*
X7010010Y8724000D01*
X7092650Y8721350D01*
X7090000Y8803990D01*
X7025000Y8804000D01*
G03X7010000Y8789000I0J-15000D01*
G37*
G36*
G01X7025000Y8898000D02*
X7090000Y8898010D01*
X7092650Y8980650D01*
X7010010Y8978000D01*
X7010000Y8913000D01*
G03X7025000Y8898000I15000J0D01*
G37*
G36*
G01X7170000Y8913000D02*
X7169990Y8978000D01*
X7087350Y8980650D01*
X7090000Y8898010D01*
X7155000Y8898000D01*
G03X7170000Y8913000I0J15000D01*
G37*
G36*
G01X7279000Y8644000D02*
X7344000Y8644010D01*
X7346650Y8726650D01*
X7264010Y8724000D01*
X7264000Y8659000D01*
G03X7279000Y8644000I15000J0D01*
G37*
G36*
G01X7264000Y9043000D02*
X7264010Y8978000D01*
X7346650Y8975350D01*
X7344000Y9057990D01*
X7279000Y9058000D01*
G03X7264000Y9043000I0J-15000D01*
G37*
G36*
G01X7333390Y9588530D02*
X7287440Y9542560D01*
X7344000Y9482250D01*
X7400560Y9542560D01*
X7354610Y9588530D01*
G03X7333390I-10610J-10610D01*
G37*
G54D10*
X5010000Y8280000D03*
Y8480000D03*
Y8680000D03*
Y8880000D03*
Y9080000D03*
Y9280000D03*
Y9480000D03*
Y9680000D03*
Y9880000D03*
Y10080000D03*
X5210000Y8480000D03*
Y8680000D03*
Y8880000D03*
Y9080000D03*
Y9280000D03*
Y9480000D03*
Y9680000D03*
Y9880000D03*
Y10080000D03*
G54D11*
Y8280000D03*
G54D12*
X5860000Y8617000D03*
Y8871000D03*
Y9125000D03*
Y9379000D03*
Y9633000D03*
X6322000Y8376000D03*
Y8629990D03*
Y8883990D03*
Y9137990D03*
Y9391990D03*
Y9645990D03*
X7090000Y8724000D03*
Y8978000D03*
Y9232000D03*
Y9486000D03*
X7344000Y8724000D03*
Y8978000D03*
Y9232000D03*
Y9486000D03*
Y9740000D03*
G54D13*
X5860000Y9887000D03*
X6322000Y9899990D03*
X7090000Y9740000D03*
G54D14*
X6465000Y10260000D03*
X6615000D03*
G54D15*
G01X6322000Y8376000D02*
Y8265530D01*
X6186470Y8130000D01*
X4920000D01*
X4860000Y8190000D01*
Y8850000D01*
X4890000Y8880000D01*
X5010000D01*
G01X5210000Y9480000D02*
X5460000D01*
X5550000Y9390000D01*
Y8670000D01*
X5603000Y8617000D01*
X5860000D01*
G01Y8871000D02*
X5749530D01*
X5640000Y8980530D01*
Y9570000D01*
X5530000Y9680000D01*
X5210000D01*
G01Y9880000D02*
X5745300D01*
X5752300Y9887000D01*
X5860000D01*
G01Y8617000D02*
X6201310D01*
X6214300Y8629990D01*
X6322000D01*
G01X5860000Y8871000D02*
X6201310D01*
X6214300Y8883990D01*
X6322000D01*
G01X5860000Y9379000D02*
X6201310D01*
X6214300Y9391990D01*
X6322000D01*
G01X5860000Y9633000D02*
X6201310D01*
X6214300Y9645990D01*
X6322000D01*
G01X5860000Y9887000D02*
X6201310D01*
X6214300Y9899990D01*
X6322000D01*
G01Y8883990D02*
X6506010D01*
X6795160Y8594840D01*
X7214840D01*
X7344000Y8724000D01*
G01Y8978000D02*
X7219000Y9103000D01*
X6610990D01*
X6322000Y9391990D01*
G01Y9645990D02*
X6432470D01*
X6467460Y9611000D01*
X7329470D01*
X7344000Y9596470D01*
Y9486000D01*
G01X6322000Y9899990D02*
X6930010D01*
X7090000Y9740000D01*
G01X6322000Y9899990D02*
Y10184470D01*
X6397530Y10260000D01*
X6465000D01*
G01X7090000Y8978000D02*
X7219000Y8849000D01*
X7499000D01*
X7560000Y8910000D01*
Y10050000D01*
X7350000Y10260000D01*
X6615000D01*
G01X7090000Y8978000D02*
X7011880Y8899880D01*
Y8802120D01*
X7090000Y8724000D01*
M02*
