G04 ================== begin FILE IDENTIFICATION RECORD ==================*
G04 Layout Name:  ARDUINO_STM8_LCD_NRF24.brd*
G04 Film Name:    BOTTOM*
G04 File Format:  Gerber RS274X*
G04 File Origin:  Cadence Allegro 17.2-P019*
G04 Origin Date:  Thu Mar 16 14:33:32 2017*
G04 *
G04 Layer:  ETCH/BOTTOM*
G04 Layer:  PIN/BOTTOM*
G04 Layer:  VIA CLASS/BOTTOM*
G04 *
G04 Offset:    (0.0000 0.0000)*
G04 Mirror:    No*
G04 Mode:      Positive*
G04 Rotation:  0*
G04 FullContactRelief:  No*
G04 UndefLineWidth:     0.0000*
G04 ================== end FILE IDENTIFICATION RECORD ====================*
%FSLAX25Y25*MOMM*%
%IR0*IPPOS*OFA0.00000B0.00000*MIA0B0*SFA1.00000B1.00000*%
%ADD14C,1.*%
%ADD12C,2.1999*%
%ADD15C,3.1999*%
%ADD10C,1.5999*%
%ADD13R,2.1999X2.1999*%
%ADD11R,1.5999X1.5999*%
%ADD16C,.3*%
%ADD19C,4.2004*%
%ADD17C,2.6004*%
%ADD18C,1.8544*%
G75*
%LPD*%
G75*
G36*
G01X1005180Y1581070D02*
Y1826930D01*
X937090Y1895020D01*
X-631930D01*
X-693940Y1833020D01*
X-730880Y1833010D01*
X-730900D01*
G03X-787030Y1585200I-1104J-130012D01*
G02Y1566800I-4299J-9200D01*
G03X-862010Y1447900I55032J-117796D01*
G01Y1447880D01*
X-862020Y1410940D01*
X-942650Y1330310D01*
G02X-959990Y1337490I-7182J7183D01*
G01Y1919990D01*
X4814990D01*
Y-6149990D01*
X-959990D01*
Y-4907490D01*
G02X-942650Y-4900310I10158J-3D01*
G01X-925010Y-4917950D01*
X-925000Y-4954040D01*
Y-4954080D01*
G03X-739970Y-4838200I130002J-1917D01*
G02Y-4819800I4299J9200D01*
G03X-702150Y-4793010I-55040J117792D01*
G01X-702130Y-4792990D01*
X-676150Y-4767020D01*
X1474930D01*
X1717640Y-4524320D01*
G02X1734980Y-4531500I7182J-7183D01*
G01Y-4713070D01*
X1593070Y-4854980D01*
X274640D01*
X269780Y-4850120D01*
X269760Y-4850100D01*
G03Y-4989900I-71540J-69900D01*
G01X269780Y-4989880D01*
X274640Y-4985020D01*
X1646930D01*
X1865020Y-4766930D01*
Y-3363070D01*
X725020Y-2223070D01*
Y-1983020D01*
X872000D01*
G03X922020Y-1933000I-5J50025D01*
G01Y-1773000D01*
G03X872000Y-1722980I-50025J-5D01*
G01X851060D01*
Y-1714870D01*
X853730Y-1713430D01*
G03X847040Y-1481200I-61729J114433D01*
G02Y-1462800I4301J9200D01*
G03Y-1227200I-55040J117800D01*
G02Y-1208800I4301J9200D01*
G03X921820Y-1083850I-55043J117794D01*
G02X939150Y-1076100I10146J564D01*
G01X2145070Y-2282020D01*
X4413150D01*
X4439130Y-2307990D01*
X4439150Y-2308010D01*
G03X4476970Y-2334790I92840J91018D01*
G02Y-2353200I-4303J-9205D01*
G03X4587030I55030J-117800D01*
G02Y-2334790I4303J9205D01*
G03Y-2099200I-55030J117795D01*
G02Y-2080800I4299J9200D01*
G03Y-1845200I-55030J117800D01*
G02Y-1826800I4299J9200D01*
G03Y-1591200I-55030J117800D01*
G02Y-1572800I4299J9200D01*
G03Y-1337210I-55030J117795D01*
G02Y-1318800I4303J9205D01*
G03X4587040Y-1083200I-55029J117802D01*
G02Y-1064800I4301J9200D01*
G03Y-829200I-55040J117800D01*
G02Y-810800I4301J9200D01*
G03Y-575200I-55040J117800D01*
G02Y-556800I4301J9200D01*
G03X4587030Y-321200I-55039J117798D01*
G02Y-302790I4303J9205D01*
G03Y-67200I-55030J117795D01*
G02Y-48800I4299J9200D01*
G03Y186800I-55030J117800D01*
G02Y205200I4299J9200D01*
G03Y440790I-55030J117795D01*
G02Y459200I4303J9205D01*
G03X4623990Y668890I-55029J117802D01*
G02Y683250I7186J7180D01*
G01X4670020Y729280D01*
Y920720D01*
X4610720Y980020D01*
X4400720D01*
X3530720Y1850020D01*
X2049280D01*
X1984590Y1785320D01*
G03X1955000Y1795020I-29603J-40322D01*
G01X1735000D01*
G03X1684980Y1745000I5J-50025D01*
G01Y1525000D01*
G03X1735000Y1474980I50025J5D01*
G01X1959980D01*
Y1179280D01*
X2259280Y879980D01*
X3129280D01*
X3603900Y405360D01*
G02X3596710Y388020I-7187J-7181D01*
G01X3273930D01*
X2909930Y752020D01*
X910850D01*
X884870Y777990D01*
X884850Y778010D01*
G03X847030Y804800I-92860J-91002D01*
G02Y823200I4299J9200D01*
G03Y1058790I-55030J117795D01*
G02Y1077200I4303J9205D01*
G03Y1312800I-55030J117800D01*
G02Y1331210I4303J9205D01*
G03X912050Y1498920I-55030J117793D01*
G02X921430Y1512980I9381J3900D01*
G01X937090D01*
X1005180Y1581070D01*
G37*
G36*
G01X-583110Y-3482170D02*
G03X-570000Y-3470020I-26899J42172D01*
G01X-380720D01*
X596900Y-4447640D01*
G02X589710Y-4464980I-7187J-7181D01*
G01X-575600D01*
X-657600Y-4382980D01*
X-657940D01*
X-664980Y-4375830D01*
Y-4368000D01*
G03X-715000Y-4317980I-50025J-5D01*
G01X-864980D01*
Y-4195850D01*
G02X-846770Y-4189650I10160J2D01*
G03X-643120Y-3951660I126771J97648D01*
G02X-644490Y-3934740I4881J8911D01*
G03Y-3741260I-75510J96740D01*
G02X-643120Y-3724340I6251J8009D01*
G03X-586150Y-3496310I-76881J140339D01*
G02X-583110Y-3482170I8498J5570D01*
G37*
G36*
G01X-874990Y-4891000D02*
X-874980Y-4956000D01*
X-792350Y-4958650D01*
X-795000Y-4876010D01*
X-859990Y-4876000D01*
G03X-874990Y-4891000I0J-15000D01*
G37*
G36*
G01X-671610Y-4440380D02*
X-715020Y-4396310D01*
X-798750Y-4448000D01*
X-715020Y-4499690D01*
X-671610Y-4455620D01*
G03Y-4440380I-12920J7620D01*
G37*
G36*
G01X-692470Y-4691390D02*
X-738440Y-4645440D01*
X-798750Y-4702000D01*
X-738440Y-4758560D01*
X-692470Y-4712610D01*
G03Y-4691390I-10610J10610D01*
G37*
G36*
G01X-795510Y-3741260D02*
G03Y-3934740I75510J-96740D01*
G02X-796880Y-3951660I-6251J-8009D01*
G03X-846770Y-3994350I76879J-140342D01*
G02X-864980Y-3988150I-8050J6198D01*
G01Y-3687850D01*
G02X-846770Y-3681650I10160J2D01*
G03X-796880Y-3724340I126769J97652D01*
G02X-795510Y-3741260I-4881J-8911D01*
G37*
G36*
G01X-578070Y1764980D02*
X358500D01*
G02X365680Y1747640I-3J-10158D01*
G01X-20Y1381930D01*
Y-521620D01*
G02X-12010Y-531610I-10159J3D01*
G03X-98080Y-556730I-17985J-98389D01*
G02X-111920I-6920J7443D01*
G03X-280020Y-630000I-68082J-73270D01*
G01Y-638070D01*
X-545020Y-903070D01*
Y-2996930D01*
X-370020Y-3171930D01*
Y-3180000D01*
G03X-353990Y-3234300I100017J10D01*
G02X-362530Y-3249980I-8533J-5518D01*
G01X-459280D01*
X-639280Y-3069980D01*
X-747600D01*
X-791980Y-3025600D01*
Y-1984030D01*
G02X-778210Y-1974530I10160J3D01*
G03Y-1731470I46210J121530D01*
G02X-791980Y-1721970I-3610J9497D01*
G01Y-1689010D01*
G02X-776900Y-1680120I10161J0D01*
G03Y-1517880I44900J81120D01*
G02X-791980Y-1508990I-4919J8890D01*
G01Y-1476030D01*
G02X-778210Y-1466530I10160J3D01*
G03X-676970Y-1227200I46204J121533D01*
G02Y-1208790I4303J9205D01*
G03Y-973200I-55030J117795D01*
G02Y-954800I4299J9200D01*
G03X-601990Y-835900I-55032J117796D01*
G01Y-835880D01*
X-601980Y-798940D01*
X-234980Y-431930D01*
Y373580D01*
X-230120Y378440D01*
X-230100Y378460D01*
G03X-367920Y523420I-69899J71539D01*
G02X-384980Y530880I-6900J7458D01*
G01Y573070D01*
X-308070Y649980D01*
X-300000D01*
G03X-400020Y750000I0J100020D01*
G01Y741930D01*
X-515020Y626930D01*
Y-274070D01*
X-584850Y-343900D01*
G02X-602180Y-336150I-7184J7186D01*
G03X-676960Y-211200I-129823J7156D01*
G02Y-192800I4301J9200D01*
G03Y42800I-55040J117800D01*
G02Y61200I4301J9200D01*
G03Y296800I-55040J117800D01*
G02Y315200I4301J9200D01*
G03Y550800I-55040J117800D01*
G02Y569200I4301J9200D01*
G03Y804800I-55040J117800D01*
G02Y823200I4301J9200D01*
G03Y1058800I-55040J117800D01*
G02Y1077200I4301J9200D01*
G03X-676970Y1312800I-55039J117798D01*
G02Y1331210I4303J9205D01*
G03Y1566800I-55030J117795D01*
G02Y1585200I4299J9200D01*
G03X-601990Y1704100I-55032J117796D01*
G01Y1704120D01*
X-601980Y1741060D01*
X-578070Y1764980D01*
G37*
G36*
G01X-534500Y-3321000D02*
X-610020Y-3245280D01*
X-723750Y-3330000D01*
X-610020Y-3414720D01*
X-534500Y-3339000D01*
G03Y-3321000I-12000J9000D01*
G37*
G36*
G01X684980Y-4464980D02*
X-360000Y-3420000D01*
X-597280D01*
Y-3220000D01*
G03X-610000Y-3207280I-12725J-5D01*
G01X-830000D01*
G03X-833510Y-3207780I22J-12723D01*
G01X-834200Y-3207980D01*
X-840000D01*
Y-3150000D01*
X-810000Y-3120000D01*
X-660000D01*
X-480000Y-3300000D01*
X-103630D01*
G03X-16370I43630J90000D01*
G01X630000D01*
X1230000Y-3900000D01*
Y-4410000D01*
X1175020Y-4464980D01*
X684980D01*
G37*
G36*
G01X-796990Y-1171000D02*
X-732000Y-1170990D01*
X-729350Y-1088350D01*
X-811980Y-1091000D01*
X-811990Y-1156000D01*
G03X-796990Y-1171000I15000J0D01*
G37*
G36*
G01X-667000Y-503000D02*
X-732000Y-503010D01*
X-734650Y-585650D01*
X-652010Y-583000D01*
X-652000Y-518000D01*
G03X-667000Y-503000I-15000J0D01*
G37*
G36*
G01Y-757010D02*
X-732000Y-757020D01*
X-734650Y-839650D01*
X-652010Y-837000D01*
X-652000Y-772010D01*
G03X-667000Y-757010I-15000J0D01*
G37*
G36*
G01Y1783000D02*
X-732000Y1782990D01*
X-734650Y1700350D01*
X-652010Y1703000D01*
X-652000Y1768000D01*
G03X-667000Y1783000I-15000J0D01*
G37*
G36*
G01X-797000Y1369000D02*
X-732000Y1369010D01*
X-729350Y1451650D01*
X-811990Y1449000D01*
X-812000Y1384000D01*
G03X-797000Y1369000I15000J0D01*
G37*
G36*
G01X258330Y-4909390D02*
X233570Y-4884650D01*
X194470Y-4920000D01*
X233570Y-4955350D01*
X258330Y-4930610D01*
G03Y-4909390I-10610J10610D01*
G37*
G36*
G01X-110000Y-3175000D02*
Y-3210000D01*
X-57350Y-3212650D01*
X-60000Y-3160000D01*
X-95000D01*
G03X-110000Y-3175000I0J-15000D01*
G37*
G36*
G01X-320000Y-3145000D02*
Y-3180000D01*
X-267350Y-3182650D01*
X-270000Y-3130000D01*
X-305000D01*
G03X-320000Y-3145000I0J-15000D01*
G37*
G36*
G01X213990Y-2680000D02*
X149000Y-2680010D01*
X146350Y-2762650D01*
X228980Y-2760000D01*
X228990Y-2695000D01*
G03X213990Y-2680000I-15000J0D01*
G37*
G36*
G01X-40000Y-2426000D02*
X-105000Y-2426010D01*
X-107650Y-2508650D01*
X-25010Y-2506000D01*
X-25000Y-2441000D01*
G03X-40000Y-2426000I-15000J0D01*
G37*
G36*
G01X138390Y-2403470D02*
X92440Y-2449440D01*
X149000Y-2509750D01*
X205560Y-2449440D01*
X159610Y-2403470D01*
G03X138390I-10610J-10610D01*
G37*
G36*
G01X-65000Y-680000D02*
X-30000D01*
X-27350Y-627350D01*
X-80000Y-630000D01*
Y-665000D01*
G03X-65000Y-680000I15000J0D01*
G37*
G36*
G01X-215000D02*
X-180000D01*
X-177350Y-627350D01*
X-230000Y-630000D01*
Y-665000D01*
G03X-215000Y-680000I15000J0D01*
G37*
G36*
G01X-335000Y700000D02*
X-300000D01*
X-297350Y752650D01*
X-350000Y750000D01*
Y715000D01*
G03X-335000Y700000I15000J0D01*
G37*
G36*
G01X-289390Y389890D02*
X-264650Y414650D01*
X-300000Y453750D01*
X-335350Y414650D01*
X-310610Y389890D01*
G03X-289390I10610J10610D01*
G37*
G36*
G01X339020Y-2376560D02*
Y904070D01*
X644850Y1209900D01*
G02X662180Y1202150I7184J-7186D01*
G03X736970Y1077200I129822J-7152D01*
G02Y1058790I-4303J-9205D01*
G03X662000Y939080I55029J-117793D01*
G01Y939040D01*
X661990Y902950D01*
X594980Y835930D01*
Y-2276930D01*
X713990Y-2395940D01*
G02X706810Y-2413280I-7185J-7181D01*
G01X577000D01*
G03X564280Y-2426000I5J-12725D01*
G01Y-2586000D01*
G03X577000Y-2598720I12725J5D01*
G01X737000D01*
G03X749720Y-2586000I-5J12725D01*
G01Y-2456190D01*
G02X767060Y-2449010I10159J-5D01*
G01X1734980Y-3416930D01*
Y-3721500D01*
G02X1717640Y-3728680I-10158J3D01*
G01X787010Y-2798050D01*
X787000Y-2761960D01*
Y-2761920D01*
G03X539210Y-2704970I-129999J1916D01*
G02X520800I-9205J4303D01*
G03X458040Y-2642200I-117804J-55025D01*
G02Y-2623800I4301J9200D01*
G03X353080Y-2385940I-55040J117800D01*
G02X339020Y-2376560I-3902J9379D01*
G37*
G36*
G01X736990Y-2825000D02*
X736980Y-2760000D01*
X654350Y-2757350D01*
X657000Y-2839990D01*
X721990Y-2840000D01*
G03X736990Y-2825000I0J15000D01*
G37*
G36*
G01X872000Y-901990D02*
X871990Y-837000D01*
X789350Y-834350D01*
X792000Y-916980D01*
X857000Y-916990D01*
G03X872000Y-901990I0J15000D01*
G37*
G36*
G01Y-648000D02*
X871990Y-583000D01*
X789350Y-580350D01*
X792000Y-662990D01*
X857000Y-663000D01*
G03X872000Y-648000I0J15000D01*
G37*
G36*
G01Y-394000D02*
X871990Y-329000D01*
X789350Y-326350D01*
X792000Y-408990D01*
X857000Y-409000D01*
G03X872000Y-394000I0J15000D01*
G37*
G36*
G01X894530Y-64390D02*
X848560Y-18440D01*
X788250Y-75000D01*
X848560Y-131560D01*
X894530Y-85610D01*
G03Y-64390I-10610J10610D01*
G37*
G36*
G01Y189610D02*
X848560Y235560D01*
X788250Y179000D01*
X848560Y122440D01*
X894530Y168390D01*
G03Y189610I-10610J10610D01*
G37*
G36*
G01Y443610D02*
X848560Y489560D01*
X788250Y433000D01*
X848560Y376440D01*
X894530Y422390D01*
G03Y443610I-10610J10610D01*
G37*
G36*
G01Y697610D02*
X848560Y743560D01*
X788250Y687000D01*
X848560Y630440D01*
X894530Y676390D01*
G03Y697610I-10610J10610D01*
G37*
G36*
G01X727010Y861000D02*
X792000Y861010D01*
X794650Y943650D01*
X712020Y941000D01*
X712010Y876000D01*
G03X727010Y861000I15000J0D01*
G37*
G36*
G01X727000Y1369000D02*
X792000Y1369010D01*
X794650Y1451650D01*
X712010Y1449000D01*
X712000Y1384000D01*
G03X727000Y1369000I15000J0D01*
G37*
G36*
G01X689470Y1692390D02*
X735440Y1646440D01*
X795750Y1703000D01*
X735440Y1759560D01*
X689470Y1713610D01*
G03Y1692390I10610J-10610D01*
G37*
G36*
G01X1375000Y-4490000D02*
X1410000D01*
X1412650Y-4437350D01*
X1360000Y-4440000D01*
Y-4475000D01*
G03X1375000Y-4490000I15000J0D01*
G37*
G36*
G01X3690000Y390000D02*
X3150000Y930000D01*
X2280000D01*
X2010000Y1200000D01*
Y1528040D01*
G02X2026190Y1536210I10159J-5D01*
G03X2018420Y1727550I72811J98785D01*
G01X2016980Y1726310D01*
X2010000D01*
Y1740000D01*
X2070000Y1800000D01*
X3510000D01*
X4380000Y930000D01*
X4480120D01*
G02X4485240Y911070I-4J-10158D01*
G03X4602150Y770370I46762J-80066D01*
G02X4620000Y763730I7690J-6639D01*
G01Y750000D01*
X4590000Y720000D01*
X4290000D01*
X4140000Y570000D01*
Y420000D01*
X4110000Y390000D01*
X3690000D01*
G37*
G36*
G01X2209000Y1540000D02*
X2208990Y1635000D01*
X2096350Y1637650D01*
X2099000Y1525010D01*
X2194000Y1525000D01*
G03X2209000Y1540000I0J15000D01*
G37*
G36*
G01X2830000Y-775000D02*
Y-810000D01*
X2882650Y-812650D01*
X2880000Y-760000D01*
X2845000D01*
G03X2830000Y-775000I0J-15000D01*
G37*
G36*
G01X2590610Y-180110D02*
X2615350Y-155350D01*
X2580000Y-116250D01*
X2544650Y-155350D01*
X2569390Y-180110D01*
G03X2590610I10610J10610D01*
G37*
G36*
G01X4429470Y-2227610D02*
X4475440Y-2273560D01*
X4535750Y-2217000D01*
X4475440Y-2160440D01*
X4429470Y-2206390D01*
G03Y-2227610I10610J-10610D01*
G37*
G36*
G01Y-1973610D02*
X4475440Y-2019560D01*
X4535750Y-1963000D01*
X4475440Y-1906440D01*
X4429470Y-1952390D01*
G03Y-1973610I10610J-10610D01*
G37*
G36*
G01Y-1719610D02*
X4475440Y-1765560D01*
X4535750Y-1709000D01*
X4475440Y-1652440D01*
X4429470Y-1698390D01*
G03Y-1719610I10610J-10610D01*
G37*
G36*
G01Y-1465610D02*
X4475440Y-1511560D01*
X4535750Y-1455000D01*
X4475440Y-1398440D01*
X4429470Y-1444390D01*
G03Y-1465610I10610J-10610D01*
G37*
G36*
G01Y-195610D02*
X4475440Y-241560D01*
X4535750Y-185000D01*
X4475440Y-128440D01*
X4429470Y-174390D01*
G03Y-195610I10610J-10610D01*
G37*
G36*
G01Y58390D02*
X4475440Y12440D01*
X4535750Y69000D01*
X4475440Y125560D01*
X4429470Y79610D01*
G03Y58390I10610J-10610D01*
G37*
G36*
G01Y820390D02*
X4475440Y774440D01*
X4535750Y831000D01*
X4475440Y887560D01*
X4429470Y841610D01*
G03Y820390I10610J-10610D01*
G37*
G36*
G01Y312390D02*
X4475440Y266440D01*
X4535750Y323000D01*
X4475440Y379560D01*
X4429470Y333610D01*
G03Y312390I10610J-10610D01*
G37*
%LPC*%
G75*
G36*
G01X4439280Y1005000D02*
Y1165000D01*
G02X4452000Y1177720I12725J-5D01*
G01X4612000D01*
G02X4624720Y1165000I-5J-12725D01*
G01Y1005000D01*
G02X4612000Y992280I-12725J5D01*
G01X4452000D01*
G02X4439280Y1005000I5J12725D01*
G37*
G36*
G01X3970020Y-5945000D02*
G02X3920000Y-5995020I-50025J5D01*
G01X3700000D01*
G02X3649980Y-5945000I5J50025D01*
G01Y-5725000D01*
G02X3700000Y-5674980I50025J-5D01*
G01X3920000D01*
G02X3970020Y-5725000I-5J-50025D01*
G01Y-5731900D01*
G03X3986580Y-5739780I10157J5D01*
G02Y-5930220I77420J-95220D01*
G03X3970020Y-5938100I-6403J-7885D01*
G01Y-5945000D01*
G37*
G36*
G01X3385020D02*
G02X3335000Y-5995020I-50025J5D01*
G01X3115000D01*
G02X3064980Y-5945000I5J50025D01*
G01Y-5725000D01*
G02X3115000Y-5674980I50025J-5D01*
G01X3335000D01*
G02X3385020Y-5725000I-5J-50025D01*
G01Y-5731900D01*
G03X3401580Y-5739780I10157J5D01*
G02Y-5930220I77420J-95220D01*
G03X3385020Y-5938100I-6403J-7885D01*
G01Y-5945000D01*
G37*
G36*
G01X2570000Y-5689980D02*
G02X2620020Y-5740000I-5J-50025D01*
G01Y-5746900D01*
G03X2636580Y-5754780I10157J5D01*
G02Y-5945220I77420J-95220D01*
G03X2620020Y-5953100I-6403J-7885D01*
G01Y-5960000D01*
G02X2570000Y-6010020I-50025J5D01*
G01X2350000D01*
G02X2299980Y-5960000I5J50025D01*
G01Y-5740000D01*
G02X2350000Y-5689980I50025J-5D01*
G01X2570000D01*
G37*
G36*
G01X1955000D02*
G02X2005020Y-5740000I-5J-50025D01*
G01Y-5746900D01*
G03X2021580Y-5754780I10157J5D01*
G02Y-5945220I77420J-95220D01*
G03X2005020Y-5953100I-6403J-7885D01*
G01Y-5960000D01*
G02X1955000Y-6010020I-50025J5D01*
G01X1735000D01*
G02X1684980Y-5960000I5J50025D01*
G01Y-5740000D01*
G02X1735000Y-5689980I50025J-5D01*
G01X1955000D01*
G37*
G54D19*
X1435000Y-5865000D03*
Y1635000D03*
X4535000Y-5865000D03*
Y1635000D03*
G54D17*
X470000Y-5980000D03*
X720000Y-5480000D03*
G54D18*
X970000Y-5980000D03*
X4532000Y-2725000D03*
%LPD*%
G75*
G36*
G01X700000Y-4165000D02*
Y-4200000D01*
X752650Y-4202650D01*
X750000Y-4150000D01*
X715000D01*
G03X700000Y-4165000I0J-15000D01*
G37*
G36*
G01X800000Y-4235000D02*
Y-4200000D01*
X747350Y-4197350D01*
X750000Y-4250000D01*
X785000D01*
G03X800000Y-4235000I0J15000D01*
G37*
G36*
G01X1049890Y-4390610D02*
X1074650Y-4415350D01*
X1113750Y-4380000D01*
X1074650Y-4344650D01*
X1049890Y-4369390D01*
G03Y-4390610I10610J-10610D01*
G37*
G36*
G01X4069390Y510110D02*
X4044650Y485350D01*
X4080000Y446250D01*
X4115350Y485350D01*
X4090610Y510110D01*
G03X4069390I-10610J-10610D01*
G37*
G54D10*
X-795000Y-4956000D03*
Y-4702000D03*
X-732000Y-1853000D03*
Y-1599000D03*
Y-1345000D03*
Y-1091000D03*
Y-837000D03*
Y-583000D03*
Y-329000D03*
Y-75000D03*
Y179000D03*
Y433000D03*
Y687000D03*
Y941000D03*
Y1195000D03*
Y1449000D03*
Y1703000D03*
X149000Y-2760000D03*
X-105000D03*
Y-2506000D03*
X149000D03*
X970000Y-5980000D03*
X470000D03*
X720000Y-5480000D03*
X657000Y-2760000D03*
X403000D03*
Y-2506000D03*
X792000Y-1345000D03*
Y-1599000D03*
Y-583000D03*
Y-837000D03*
Y-1091000D03*
Y179000D03*
Y-75000D03*
Y-329000D03*
Y941000D03*
Y687000D03*
Y433000D03*
Y1703000D03*
Y1449000D03*
Y1195000D03*
X4532000Y-2725000D03*
Y-2471000D03*
Y-2217000D03*
Y-1963000D03*
Y-1709000D03*
Y-1455000D03*
Y-1201000D03*
Y-947000D03*
Y-693000D03*
Y-439000D03*
Y-185000D03*
Y69000D03*
Y323000D03*
Y577000D03*
Y831000D03*
G54D11*
X-795000Y-4448000D03*
X657000Y-2506000D03*
X792000Y-1853000D03*
X4532000Y1085000D03*
G54D12*
X-720000Y-4092000D03*
Y-3838000D03*
Y-3584000D03*
X2099000Y-5850000D03*
Y1635000D03*
X2714000Y-5850000D03*
X3479000Y-5835000D03*
X4064000D03*
G54D13*
X-720000Y-3330000D03*
X1845000Y-5850000D03*
Y1635000D03*
X2460000Y-5850000D03*
X3225000Y-5835000D03*
X3810000D03*
G54D14*
X198220Y-4920000D03*
X-60000Y-3210000D03*
X-270000Y-3180000D03*
X-30000Y-630000D03*
X-180000D03*
X-300000Y750000D03*
Y450000D03*
X750000Y-4200000D03*
X1110000Y-4380000D03*
X1410000Y-4440000D03*
X2580000Y-120000D03*
X2880000Y-810000D03*
X4080000Y450000D03*
G54D15*
X1435000Y-5865000D03*
Y1635000D03*
X4535000Y-5865000D03*
Y1635000D03*
G54D16*
G01X-732000Y1449000D02*
X-930000Y1251000D01*
Y-4821000D01*
X-795000Y-4956000D01*
G01Y-4448000D02*
X-684530D01*
X-602530Y-4530000D01*
X1320000D01*
X1410000Y-4440000D01*
G01X657000Y-2760000D02*
X1680000Y-3783000D01*
Y-4470000D01*
X1448000Y-4702000D01*
X-795000D01*
G01X-847800Y-3838000D02*
X-720000D01*
G01D02*
X-592200D01*
G01X-732000Y-1091000D02*
X-857000Y-1216000D01*
Y-3052530D01*
X-720000Y-3189530D01*
G01D02*
Y-3330000D01*
G01X-120000D02*
X-720000D01*
G01X-732000Y-1696800D02*
Y-1599000D01*
G01D02*
Y-1501200D01*
G01Y-1599000D02*
X-634200D01*
G01X-732000Y-583000D02*
X-450000Y-301000D01*
Y600000D01*
X-300000Y750000D01*
G01Y450000D02*
Y-405000D01*
X-732000Y-837000D01*
G01X149000Y-2506000D02*
Y1229000D01*
X498000Y1578000D01*
X910160D01*
X940160Y1608000D01*
Y1800000D01*
X910160Y1830000D01*
X-605000D01*
X-732000Y1703000D01*
G01X198220Y-4920000D02*
X1620000D01*
X1800000Y-4740000D01*
Y-3390000D01*
X660000Y-2250000D01*
Y809000D01*
X792000Y941000D01*
G01X750000Y-4200000D02*
X-120000Y-3330000D01*
G01X-30000Y-630000D02*
X-240000Y-840000D01*
Y-3030000D01*
X-60000Y-3210000D01*
G01X-270000Y-3180000D02*
X-480000Y-2970000D01*
Y-930000D01*
X-180000Y-630000D01*
G01X792000Y1449000D02*
X274000Y931000D01*
Y-2635000D01*
X149000Y-2760000D01*
G01X792000Y1703000D02*
X413000D01*
X65000Y1355000D01*
Y-2336000D01*
X-105000Y-2506000D01*
G01X970000Y-6077800D02*
Y-5980000D01*
G01D02*
Y-5882200D01*
G01X872200Y-5980000D02*
X970000D01*
G01D02*
X1067800D01*
G01X1110000Y-4380000D02*
X930000D01*
X750000Y-4200000D01*
G01X657000Y-2603800D02*
Y-2506000D01*
G01D02*
Y-2408200D01*
G01X559200Y-2506000D02*
X657000D01*
G01D02*
X754800D01*
G01X792000Y-837000D02*
X2172000Y-2217000D01*
X4532000D01*
G01X792000Y-583000D02*
X2172000Y-1963000D01*
X4532000D01*
G01X792000Y-329000D02*
X2172000Y-1709000D01*
X4532000D01*
G01Y-1455000D02*
X2505000D01*
X1125000Y-75000D01*
X792000D01*
G01Y179000D02*
X2581000D01*
X2945000Y-185000D01*
X4532000D01*
G01X792000Y433000D02*
X2702000D01*
X3066000Y69000D01*
X4532000D01*
G01X792000Y687000D02*
X2883000D01*
X3247000Y323000D01*
X4532000D01*
G01X2099000Y-5977800D02*
Y-5850000D01*
G01D02*
Y-5722200D01*
G01Y-5850000D02*
X2226800D01*
G01X2684000Y1050000D02*
X2099000Y1635000D01*
G01Y1507200D02*
Y1635000D01*
G01D02*
Y1762800D01*
G01Y1635000D02*
X2226800D01*
G01X2714000Y-5977800D02*
Y-5850000D01*
G01D02*
Y-5722200D01*
G01Y-5850000D02*
X2841800D01*
G01X2580000Y-120000D02*
Y-510000D01*
X2880000Y-810000D01*
G01X4080000Y810000D02*
X3840000D01*
X3600000Y1050000D01*
X2684000D01*
G01X3479000Y-5962800D02*
Y-5835000D01*
G01X4064000Y-5962800D02*
Y-5835000D01*
G01X3479000D02*
Y-5707200D01*
G01Y-5835000D02*
X3606800D01*
G01X4064000D02*
Y-5707200D01*
G01Y-5835000D02*
X4191800D01*
G01X4532000Y-2822800D02*
Y-2725000D01*
G01D02*
Y-2627200D01*
G01X4434200Y-2725000D02*
X4532000D01*
G01D02*
X4629800D01*
G01X4532000Y987200D02*
Y1085000D01*
G01Y831000D02*
X4101000D01*
G01X4080000Y810000D02*
Y450000D01*
G01X4101000Y831000D02*
X4080000Y810000D01*
G01X4532000Y1085000D02*
Y1182800D01*
G01X4434200Y1085000D02*
X4532000D01*
G01D02*
X4629800D01*
M02*
