G04 ================== begin FILE IDENTIFICATION RECORD ==================*
G04 Layout Name:  ARDUINO_STM8_LCD_NRF24.brd*
G04 Film Name:    BOTTOM*
G04 File Format:  Gerber RS274X*
G04 File Origin:  Cadence Allegro 17.2-P019*
G04 Origin Date:  Wed Mar 22 13:58:16 2017*
G04 *
G04 Layer:  ETCH/BOTTOM*
G04 Layer:  PIN/BOTTOM*
G04 Layer:  VIA CLASS/BOTTOM*
G04 *
G04 Offset:    (0.0000 0.0000)*
G04 Mirror:    No*
G04 Mode:      Positive*
G04 Rotation:  0*
G04 FullContactRelief:  No*
G04 UndefLineWidth:     0.0000*
G04 ================== end FILE IDENTIFICATION RECORD ====================*
%FSLAX25Y25*MOMM*%
%IR0*IPPOS*OFA0.00000B0.00000*MIA0B0*SFA1.00000B1.00000*%
%ADD14C,1.*%
%ADD12C,2.1999*%
%ADD15C,3.1999*%
%ADD10C,1.5999*%
%ADD13R,2.1999X2.1999*%
%ADD11R,1.5999X1.5999*%
%ADD16C,.3*%
%ADD18C,4.2004*%
%ADD17C,2.6004*%
G75*
%LPD*%
G75*
G36*
G01X1005180Y1581070D02*
Y1826930D01*
X937090Y1895020D01*
X-631930D01*
X-693940Y1833020D01*
X-730880Y1833010D01*
X-730900D01*
G03X-787030Y1585200I-1104J-130012D01*
G02Y1566800I-4299J-9200D01*
G03X-862010Y1447900I55032J-117796D01*
G01Y1447880D01*
X-862020Y1410940D01*
X-942650Y1330310D01*
G02X-959990Y1337490I-7182J7183D01*
G01Y1919990D01*
X4814990D01*
Y-6149990D01*
X-959990D01*
Y-4907490D01*
G02X-942650Y-4900310I10158J-3D01*
G01X-925010Y-4917950D01*
X-925000Y-4954040D01*
Y-4954080D01*
G03X-739970Y-4838200I130002J-1917D01*
G02Y-4819800I4299J9200D01*
G03X-702150Y-4793010I-55040J117792D01*
G01X-702130Y-4792990D01*
X-676150Y-4767020D01*
X1474930D01*
X1717640Y-4524320D01*
G02X1734980Y-4531500I7182J-7183D01*
G01Y-4713070D01*
X1593070Y-4854980D01*
X274640D01*
X269780Y-4850120D01*
X269760Y-4850100D01*
G03Y-4989900I-71540J-69900D01*
G01X269780Y-4989880D01*
X274640Y-4985020D01*
X1646930D01*
X1865020Y-4766930D01*
Y-3363070D01*
X725020Y-2223070D01*
Y-1983020D01*
X872000D01*
G03X922020Y-1933000I-5J50025D01*
G01Y-1773000D01*
G03X872000Y-1722980I-50025J-5D01*
G01X851060D01*
Y-1714870D01*
X853730Y-1713430D01*
G03X847040Y-1481200I-61729J114433D01*
G02Y-1462800I4301J9200D01*
G03Y-1227200I-55040J117800D01*
G02Y-1208800I4301J9200D01*
G03X921820Y-1083850I-55043J117794D01*
G02X939150Y-1076100I10146J564D01*
G01X2145070Y-2282020D01*
X4413150D01*
X4439130Y-2307990D01*
X4439150Y-2308010D01*
G03X4476970Y-2334790I92840J91018D01*
G02Y-2353200I-4303J-9205D01*
G03X4476960Y-2588800I55029J-117802D01*
G02Y-2607200I-4301J-9200D01*
G03X4587040I55040J-117800D01*
G02Y-2588800I4301J9200D01*
G03X4587030Y-2353200I-55039J117798D01*
G02Y-2334790I4303J9205D01*
G03Y-2099200I-55030J117795D01*
G02Y-2080800I4299J9200D01*
G03Y-1845200I-55030J117800D01*
G02Y-1826800I4299J9200D01*
G03Y-1591200I-55030J117800D01*
G02Y-1572800I4299J9200D01*
G03Y-1337210I-55030J117795D01*
G02Y-1318800I4303J9205D01*
G03X4587040Y-1083200I-55029J117802D01*
G02Y-1064800I4301J9200D01*
G03Y-829200I-55040J117800D01*
G02Y-810800I4301J9200D01*
G03Y-575200I-55040J117800D01*
G02Y-556800I4301J9200D01*
G03X4587030Y-321200I-55039J117798D01*
G02Y-302790I4303J9205D01*
G03Y-67200I-55030J117795D01*
G02Y-48800I4299J9200D01*
G03Y186800I-55030J117800D01*
G02Y205200I4299J9200D01*
G03Y440790I-55030J117795D01*
G02Y459200I4303J9205D01*
G03X4587040Y694800I-55029J117802D01*
G02Y713200I4301J9200D01*
G03X4612490Y728890I-55056J117789D01*
G01X4613870Y729980D01*
X4640720D01*
X4730020Y819280D01*
Y920720D01*
X4660020Y990720D01*
X4660670Y993480D01*
G03X4662020Y1005000I-48673J11543D01*
G01Y1165000D01*
G03X4612000Y1215020I-50025J-5D01*
G01X4452000D01*
G03X4401980Y1165000I5J-50025D01*
G01Y1010020D01*
X3699280D01*
X3549980Y860720D01*
Y459280D01*
X3603900Y405360D01*
G02X3596710Y388020I-7187J-7181D01*
G01X3273930D01*
X2909930Y752020D01*
X910850D01*
X884870Y777990D01*
X884850Y778010D01*
G03X847030Y804800I-92860J-91002D01*
G02Y823200I4299J9200D01*
G03Y1058790I-55030J117795D01*
G02Y1077200I4303J9205D01*
G03Y1312800I-55030J117800D01*
G02Y1331210I4303J9205D01*
G03X912050Y1498920I-55030J117793D01*
G02X921430Y1512980I9381J3900D01*
G01X937090D01*
X1005180Y1581070D01*
G37*
G36*
G01X-676150Y-4636980D02*
X-702130Y-4611010D01*
X-702150Y-4610990D01*
G03X-733280Y-4587570I-92846J-91013D01*
G01X-735950Y-4586130D01*
Y-4578020D01*
X-715000D01*
G03X-677950Y-4561600I-6J50023D01*
G02X-663240Y-4561240I7526J-6823D01*
G01X-629460Y-4595020D01*
X1346930D01*
X1401930Y-4540020D01*
X1410000D01*
G03X1328460Y-4382070I0J100022D01*
G02X1310020Y-4376190I-8281J5883D01*
G01Y-4059280D01*
X1220720Y-3969980D01*
X920720D01*
X710020Y-3759280D01*
Y-3339280D01*
X560720Y-3189980D01*
X159280D01*
X114280Y-3234980D01*
X49180D01*
G02X39110Y-3223450I-3J10160D01*
G03X-60000Y-3109980I-99110J13451D01*
G01X-68070D01*
X-174980Y-3003070D01*
Y-2886770D01*
G02X-160480Y-2877590I10159J-5D01*
G03X12800Y-2815030I55479J117590D01*
G02X31210I9205J-4303D01*
G03X266790I117790J55030D01*
G02X285200I9205J-4303D01*
G03X520800I117800J55030D01*
G02X539210I9205J-4303D01*
G03X656100Y-2890010I117793J55030D01*
G03X657000Y-2890020I1006J50009D01*
G01X695070D01*
X1614980Y-3809930D01*
Y-4443070D01*
X1421070Y-4636980D01*
X-676150D01*
G37*
G36*
G01X-874990Y-4891000D02*
X-874980Y-4956000D01*
X-792350Y-4958650D01*
X-795000Y-4876010D01*
X-859990Y-4876000D01*
G03X-874990Y-4891000I0J-15000D01*
G37*
G36*
G01X-671610Y-4440380D02*
X-715020Y-4396310D01*
X-798750Y-4448000D01*
X-715020Y-4499690D01*
X-671610Y-4455620D01*
G03Y-4440380I-12920J7620D01*
G37*
G36*
G01X-692470Y-4691390D02*
X-738440Y-4645440D01*
X-798750Y-4702000D01*
X-738440Y-4758560D01*
X-692470Y-4712610D01*
G03Y-4691390I-10610J10610D01*
G37*
G36*
G01X-578070Y1764980D02*
X358500D01*
G02X365680Y1747640I-3J-10158D01*
G01X-20Y1381930D01*
Y-521620D01*
G02X-12010Y-531610I-10159J3D01*
G03X-98080Y-556730I-17985J-98389D01*
G02X-111920I-6920J7443D01*
G03X-280020Y-630000I-68082J-73270D01*
G01Y-638070D01*
X-545020Y-903070D01*
Y-2996930D01*
X-370020Y-3171930D01*
Y-3180000D01*
G03X-353990Y-3234300I100017J10D01*
G02X-362530Y-3249980I-8533J-5518D01*
G01X-399280D01*
X-459280Y-3189980D01*
X-570000D01*
G03X-610000Y-3169980I-40011J-30021D01*
G01X-788060D01*
X-796800Y-3161250D01*
Y-1982090D01*
G02X-782680Y-1972740I10158J-4D01*
G03X-676960Y-1735200I50680J119740D01*
G02Y-1716800I4301J9200D01*
G03Y-1481200I-55040J117800D01*
G02Y-1462800I4301J9200D01*
G03Y-1227200I-55040J117800D01*
G02Y-1208800I4301J9200D01*
G03X-676970Y-973200I-55039J117798D01*
G02Y-954790I4303J9205D01*
G03X-601990Y-835900I-55029J117794D01*
G01Y-835880D01*
X-601980Y-798940D01*
X-234980Y-431930D01*
Y373580D01*
X-230120Y378440D01*
X-230100Y378460D01*
G03X-367920Y523420I-69899J71539D01*
G02X-384980Y530880I-6900J7458D01*
G01Y573070D01*
X-308070Y649980D01*
X-300000D01*
G03X-400020Y750000I0J100020D01*
G01Y741930D01*
X-515020Y626930D01*
Y-274070D01*
X-584850Y-343900D01*
G02X-602180Y-336150I-7184J7186D01*
G03X-676960Y-211200I-129823J7156D01*
G02Y-192800I4301J9200D01*
G03Y42800I-55040J117800D01*
G02Y61200I4301J9200D01*
G03Y296800I-55040J117800D01*
G02Y315200I4301J9200D01*
G03Y550800I-55040J117800D01*
G02Y569200I4301J9200D01*
G03Y804800I-55040J117800D01*
G02Y823200I4301J9200D01*
G03Y1058800I-55040J117800D01*
G02Y1077200I4301J9200D01*
G03X-676970Y1312800I-55039J117798D01*
G02Y1331210I4303J9205D01*
G03Y1566800I-55030J117795D01*
G02Y1585200I4299J9200D01*
G03X-601990Y1704100I-55032J117796D01*
G01Y1704120D01*
X-601980Y1741060D01*
X-578070Y1764980D01*
G37*
G36*
G01X-534500Y-3321000D02*
X-610020Y-3245280D01*
X-723750Y-3330000D01*
X-610020Y-3414720D01*
X-534500Y-3339000D01*
G03Y-3321000I-12000J9000D01*
G37*
G36*
G01X660000Y-3519960D02*
G03Y-3680020I59990J-80030D01*
G01Y-3780000D01*
X900000Y-4020000D01*
X1200000D01*
X1260000Y-4080000D01*
Y-4380000D01*
X1200000Y-4440000D01*
X300000D01*
X-180000Y-3960000D01*
Y-3480000D01*
X-240000Y-3420000D01*
X-559980D01*
Y-3240000D01*
X-480000D01*
X-420000Y-3300000D01*
X-103630D01*
G03X-16370I43630J90000D01*
G01X120000D01*
X180000Y-3240000D01*
X540000D01*
X660000Y-3360000D01*
Y-3519960D01*
G37*
G36*
G01X-667000Y-503000D02*
X-732000Y-503010D01*
X-734650Y-585650D01*
X-652010Y-583000D01*
X-652000Y-518000D01*
G03X-667000Y-503000I-15000J0D01*
G37*
G36*
G01Y-757010D02*
X-732000Y-757020D01*
X-734650Y-839650D01*
X-652010Y-837000D01*
X-652000Y-772010D01*
G03X-667000Y-757010I-15000J0D01*
G37*
G36*
G01Y1783000D02*
X-732000Y1782990D01*
X-734650Y1700350D01*
X-652010Y1703000D01*
X-652000Y1768000D01*
G03X-667000Y1783000I-15000J0D01*
G37*
G36*
G01X-797000Y1369000D02*
X-732000Y1369010D01*
X-729350Y1451650D01*
X-811990Y1449000D01*
X-812000Y1384000D01*
G03X-797000Y1369000I15000J0D01*
G37*
G36*
G01X258330Y-4909390D02*
X233570Y-4884650D01*
X194470Y-4920000D01*
X233570Y-4955350D01*
X258330Y-4930610D01*
G03Y-4909390I-10610J10610D01*
G37*
G36*
G01X-110000Y-3175000D02*
Y-3210000D01*
X-57350Y-3212650D01*
X-60000Y-3160000D01*
X-95000D01*
G03X-110000Y-3175000I0J-15000D01*
G37*
G36*
G01X-320000Y-3145000D02*
Y-3180000D01*
X-267350Y-3182650D01*
X-270000Y-3130000D01*
X-305000D01*
G03X-320000Y-3145000I0J-15000D01*
G37*
G36*
G01X213990Y-2680000D02*
X149000Y-2680010D01*
X146350Y-2762650D01*
X228980Y-2760000D01*
X228990Y-2695000D01*
G03X213990Y-2680000I-15000J0D01*
G37*
G36*
G01X-40000Y-2426000D02*
X-105000Y-2426010D01*
X-107650Y-2508650D01*
X-25010Y-2506000D01*
X-25000Y-2441000D01*
G03X-40000Y-2426000I-15000J0D01*
G37*
G36*
G01X138390Y-2403470D02*
X92440Y-2449440D01*
X149000Y-2509750D01*
X205560Y-2449440D01*
X159610Y-2403470D01*
G03X138390I-10610J-10610D01*
G37*
G36*
G01X-65000Y-680000D02*
X-30000D01*
X-27350Y-627350D01*
X-80000Y-630000D01*
Y-665000D01*
G03X-65000Y-680000I15000J0D01*
G37*
G36*
G01X-215000D02*
X-180000D01*
X-177350Y-627350D01*
X-230000Y-630000D01*
Y-665000D01*
G03X-215000Y-680000I15000J0D01*
G37*
G36*
G01X661990Y1447880D02*
X661980Y1410940D01*
X231360Y980320D01*
G02X214020Y987500I-7182J7183D01*
G01Y1202070D01*
X524930Y1512980D01*
X662570D01*
G02X671950Y1498920I-1J-10160D01*
G03X661990Y1447900I120050J-49918D01*
G01Y1447880D01*
G37*
G36*
G01X-335000Y700000D02*
X-300000D01*
X-297350Y752650D01*
X-350000Y750000D01*
Y715000D01*
G03X-335000Y700000I15000J0D01*
G37*
G36*
G01X-289390Y389890D02*
X-264650Y414650D01*
X-300000Y453750D01*
X-335350Y414650D01*
X-310610Y389890D01*
G03X-289390I10610J10610D01*
G37*
G36*
G01X1734980Y-3416930D02*
Y-3721500D01*
G02X1717640Y-3728680I-10158J3D01*
G01X787010Y-2798050D01*
X787000Y-2761960D01*
Y-2761920D01*
G03X718720Y-2645570I-130000J1919D01*
G01X716050Y-2644130D01*
Y-2636020D01*
X737000D01*
G03X787020Y-2586000I-5J50025D01*
G01Y-2493490D01*
G02X804360Y-2486310I10159J-5D01*
G01X1734980Y-3416930D01*
G37*
G36*
G01X736990Y-2825000D02*
X736980Y-2760000D01*
X654350Y-2757350D01*
X657000Y-2839990D01*
X721990Y-2840000D01*
G03X736990Y-2825000I0J15000D01*
G37*
G36*
G01X339020Y-2376560D02*
Y904070D01*
X644850Y1209900D01*
G02X662180Y1202150I7184J-7186D01*
G03X736970Y1077200I129822J-7152D01*
G02Y1058790I-4303J-9205D01*
G03X662000Y939080I55029J-117793D01*
G01Y939040D01*
X661990Y902950D01*
X594980Y835930D01*
Y-2276930D01*
X676690Y-2358640D01*
G02X669510Y-2375980I-7185J-7181D01*
G01X577000D01*
G03X526980Y-2426000I5J-50025D01*
G01Y-2446940D01*
X518870D01*
X517430Y-2444270D01*
G03X353080Y-2385940I-114434J-61728D01*
G02X339020Y-2376560I-3902J9379D01*
G37*
G36*
G01X872000Y-901990D02*
X871990Y-837000D01*
X789350Y-834350D01*
X792000Y-916980D01*
X857000Y-916990D01*
G03X872000Y-901990I0J15000D01*
G37*
G36*
G01Y-648000D02*
X871990Y-583000D01*
X789350Y-580350D01*
X792000Y-662990D01*
X857000Y-663000D01*
G03X872000Y-648000I0J15000D01*
G37*
G36*
G01Y-394000D02*
X871990Y-329000D01*
X789350Y-326350D01*
X792000Y-408990D01*
X857000Y-409000D01*
G03X872000Y-394000I0J15000D01*
G37*
G36*
G01X894530Y-64390D02*
X848560Y-18440D01*
X788250Y-75000D01*
X848560Y-131560D01*
X894530Y-85610D01*
G03Y-64390I-10610J10610D01*
G37*
G36*
G01Y189610D02*
X848560Y235560D01*
X788250Y179000D01*
X848560Y122440D01*
X894530Y168390D01*
G03Y189610I-10610J10610D01*
G37*
G36*
G01Y443610D02*
X848560Y489560D01*
X788250Y433000D01*
X848560Y376440D01*
X894530Y422390D01*
G03Y443610I-10610J10610D01*
G37*
G36*
G01Y697610D02*
X848560Y743560D01*
X788250Y687000D01*
X848560Y630440D01*
X894530Y676390D01*
G03Y697610I-10610J10610D01*
G37*
G36*
G01X727010Y861000D02*
X792000Y861010D01*
X794650Y943650D01*
X712020Y941000D01*
X712010Y876000D01*
G03X727010Y861000I15000J0D01*
G37*
G36*
G01X727000Y1369000D02*
X792000Y1369010D01*
X794650Y1451650D01*
X712010Y1449000D01*
X712000Y1384000D01*
G03X727000Y1369000I15000J0D01*
G37*
G36*
G01X689470Y1692390D02*
X735440Y1646440D01*
X795750Y1703000D01*
X735440Y1759560D01*
X689470Y1713610D01*
G03Y1692390I10610J-10610D01*
G37*
G36*
G01X1375000Y-4490000D02*
X1410000D01*
X1412650Y-4437350D01*
X1360000Y-4440000D01*
Y-4475000D01*
G03X1375000Y-4490000I15000J0D01*
G37*
G36*
G01X2830000Y-775000D02*
Y-810000D01*
X2882650Y-812650D01*
X2880000Y-760000D01*
X2845000D01*
G03X2830000Y-775000I0J-15000D01*
G37*
G36*
G01X2590610Y-180110D02*
X2615350Y-155350D01*
X2580000Y-116250D01*
X2544650Y-155350D01*
X2569390Y-180110D01*
G03X2590610I10610J10610D01*
G37*
G36*
G01X3691980Y388020D02*
X3600000Y480000D01*
Y840000D01*
X3720000Y960000D01*
X4430150D01*
X4431160Y959540D01*
G03X4452000Y954980I20866J45460D01*
G01X4472940D01*
Y946870D01*
X4470270Y945430D01*
G03X4407620Y793120I61730J-114431D01*
G02X4397900Y780000I-9719J-2960D01*
G01X4200000D01*
X4140000Y720000D01*
Y420000D01*
X4108020Y388020D01*
X3691980D01*
G37*
G36*
G01X4429470Y-2227610D02*
X4475440Y-2273560D01*
X4535750Y-2217000D01*
X4475440Y-2160440D01*
X4429470Y-2206390D01*
G03Y-2227610I10610J-10610D01*
G37*
G36*
G01Y-1973610D02*
X4475440Y-2019560D01*
X4535750Y-1963000D01*
X4475440Y-1906440D01*
X4429470Y-1952390D01*
G03Y-1973610I10610J-10610D01*
G37*
G36*
G01Y-1719610D02*
X4475440Y-1765560D01*
X4535750Y-1709000D01*
X4475440Y-1652440D01*
X4429470Y-1698390D01*
G03Y-1719610I10610J-10610D01*
G37*
G36*
G01Y-1465610D02*
X4475440Y-1511560D01*
X4535750Y-1455000D01*
X4475440Y-1398440D01*
X4429470Y-1444390D01*
G03Y-1465610I10610J-10610D01*
G37*
G36*
G01Y-195610D02*
X4475440Y-241560D01*
X4535750Y-185000D01*
X4475440Y-128440D01*
X4429470Y-174390D01*
G03Y-195610I10610J-10610D01*
G37*
G36*
G01Y58390D02*
X4475440Y12440D01*
X4535750Y69000D01*
X4475440Y125560D01*
X4429470Y79610D01*
G03Y58390I10610J-10610D01*
G37*
G36*
G01Y312390D02*
X4475440Y266440D01*
X4535750Y323000D01*
X4475440Y379560D01*
X4429470Y333610D01*
G03Y312390I10610J-10610D01*
G37*
%LPC*%
G75*
G36*
G01X1997170Y1771890D02*
G03X2011310Y1768850I8570J5458D01*
G02Y1501150I87690J-133850D01*
G03X1997170Y1498110I-5570J-8498D01*
G02X1955000Y1474980I-42178J26892D01*
G01X1735000D01*
G02X1684980Y1525000I5J50025D01*
G01Y1745000D01*
G02X1735000Y1795020I50025J-5D01*
G01X1955000D01*
G02X1997170Y1771890I-8J-50022D01*
G37*
G36*
G01X3962170Y-5698110D02*
G03X3976310Y-5701150I8570J5458D01*
G02Y-5968850I87690J-133850D01*
G03X3962170Y-5971890I-5570J-8498D01*
G02X3920000Y-5995020I-42178J26892D01*
G01X3700000D01*
G02X3649980Y-5945000I5J50025D01*
G01Y-5725000D01*
G02X3700000Y-5674980I50025J-5D01*
G01X3920000D01*
G02X3962170Y-5698110I-8J-50022D01*
G37*
G36*
G01X3377170D02*
G03X3391310Y-5701150I8570J5458D01*
G02Y-5968850I87690J-133850D01*
G03X3377170Y-5971890I-5570J-8498D01*
G02X3335000Y-5995020I-42178J26892D01*
G01X3115000D01*
G02X3064980Y-5945000I5J50025D01*
G01Y-5725000D01*
G02X3115000Y-5674980I50025J-5D01*
G01X3335000D01*
G02X3377170Y-5698110I-8J-50022D01*
G37*
G36*
G01X2612170Y-5713110D02*
G03X2626310Y-5716150I8570J5458D01*
G02Y-5983850I87690J-133850D01*
G03X2612170Y-5986890I-5570J-8498D01*
G02X2570000Y-6010020I-42178J26892D01*
G01X2350000D01*
G02X2299980Y-5960000I5J50025D01*
G01Y-5740000D01*
G02X2350000Y-5689980I50025J-5D01*
G01X2570000D01*
G02X2612170Y-5713110I-8J-50022D01*
G37*
G36*
G01X1997170D02*
G03X2011310Y-5716150I8570J5458D01*
G02Y-5983850I87690J-133850D01*
G03X1997170Y-5986890I-5570J-8498D01*
G02X1955000Y-6010020I-42178J26892D01*
G01X1735000D01*
G02X1684980Y-5960000I5J50025D01*
G01Y-5740000D01*
G02X1735000Y-5689980I50025J-5D01*
G01X1955000D01*
G02X1997170Y-5713110I-8J-50022D01*
G37*
G54D18*
X1435000Y-5865000D03*
Y1635000D03*
X4535000Y-5865000D03*
Y1635000D03*
G54D17*
X970000Y-5980000D03*
X470000D03*
X720000Y-5480000D03*
%LPD*%
G75*
G36*
G01X1049890Y-4390610D02*
X1074650Y-4415350D01*
X1113750Y-4380000D01*
X1074650Y-4344650D01*
X1049890Y-4369390D01*
G03Y-4390610I10610J-10610D01*
G37*
G54D10*
X-795000Y-4956000D03*
Y-4702000D03*
X-732000Y-1853000D03*
Y-1599000D03*
Y-1345000D03*
Y-1091000D03*
Y-837000D03*
Y-583000D03*
Y-329000D03*
Y-75000D03*
Y179000D03*
Y433000D03*
Y687000D03*
Y941000D03*
Y1195000D03*
Y1449000D03*
Y1703000D03*
X149000Y-2760000D03*
X-105000D03*
Y-2506000D03*
X149000D03*
X970000Y-5980000D03*
X470000D03*
X720000Y-5480000D03*
X657000Y-2760000D03*
X403000D03*
Y-2506000D03*
X792000Y-1345000D03*
Y-1599000D03*
Y-583000D03*
Y-837000D03*
Y-1091000D03*
Y179000D03*
Y-75000D03*
Y-329000D03*
Y941000D03*
Y687000D03*
Y433000D03*
Y1703000D03*
Y1449000D03*
Y1195000D03*
X4532000Y-2725000D03*
Y-2471000D03*
Y-2217000D03*
Y-1963000D03*
Y-1709000D03*
Y-1455000D03*
Y-1201000D03*
Y-947000D03*
Y-693000D03*
Y-439000D03*
Y-185000D03*
Y69000D03*
Y323000D03*
Y577000D03*
Y831000D03*
G54D11*
X-795000Y-4448000D03*
X657000Y-2506000D03*
X792000Y-1853000D03*
X4532000Y1085000D03*
G54D12*
X-720000Y-4092000D03*
Y-3838000D03*
Y-3584000D03*
X2099000Y-5850000D03*
Y1635000D03*
X2714000Y-5850000D03*
X3479000Y-5835000D03*
X4064000D03*
G54D13*
X-720000Y-3330000D03*
X1845000Y-5850000D03*
Y1635000D03*
X2460000Y-5850000D03*
X3225000Y-5835000D03*
X3810000D03*
G54D14*
X198220Y-4920000D03*
X-60000Y-3210000D03*
X-270000Y-3180000D03*
X-30000Y-630000D03*
X-180000D03*
X-300000Y750000D03*
Y450000D03*
X-240000Y1680000D03*
X719990Y-3599990D03*
X600000Y-3780000D03*
X420000Y1320000D03*
X1110000Y-4380000D03*
X1410000Y-4440000D03*
X1079990Y-3599990D03*
X2580000Y-120000D03*
X2880000Y-810000D03*
X4080000Y450000D03*
G54D15*
X1435000Y-5865000D03*
Y1635000D03*
X4535000Y-5865000D03*
Y1635000D03*
G54D16*
G01X-732000Y1449000D02*
X-930000Y1251000D01*
Y-4821000D01*
X-795000Y-4956000D01*
G01Y-4448000D02*
X-684530D01*
X-602530Y-4530000D01*
X1320000D01*
X1410000Y-4440000D01*
G01X657000Y-2760000D02*
X1680000Y-3783000D01*
Y-4470000D01*
X1448000Y-4702000D01*
X-795000D01*
G01X-732000Y-1091000D02*
X-861820Y-1220820D01*
Y-3188180D01*
X-720000Y-3330000D01*
G01X-120000D02*
X-720000D01*
G01X-732000Y-1599000D02*
X-607000Y-1474000D01*
G01D02*
Y-847000D01*
X-120000Y-360000D01*
G01X-732000Y-583000D02*
X-450000Y-301000D01*
Y600000D01*
X-300000Y750000D01*
G01Y450000D02*
Y-405000D01*
X-732000Y-837000D01*
G01X149000Y-2506000D02*
Y1229000D01*
X498000Y1578000D01*
X910160D01*
X940160Y1608000D01*
Y1800000D01*
X910160Y1830000D01*
X-605000D01*
X-732000Y1703000D01*
G01X198220Y-4920000D02*
X1620000D01*
X1800000Y-4740000D01*
Y-3390000D01*
X660000Y-2250000D01*
Y809000D01*
X792000Y941000D01*
G01X-105000Y-3345000D02*
X930000Y-4380000D01*
X1110000D01*
G01X-30000Y-630000D02*
X-240000Y-840000D01*
Y-3030000D01*
X-60000Y-3210000D01*
G01X-270000Y-3180000D02*
X-480000Y-2970000D01*
Y-930000D01*
X-180000Y-630000D01*
G01X600000Y-3780000D02*
Y-3480000D01*
X638790Y-3441210D01*
Y-3398790D01*
X540000Y-3300000D01*
X-15640D01*
X-20640Y-3305000D01*
G01X-105000Y-3345000D02*
X-120000Y-3330000D01*
G01X-20640Y-3305000D02*
X-65000D01*
X-105000Y-3345000D01*
G01X792000Y1449000D02*
X274000Y931000D01*
Y-2635000D01*
X149000Y-2760000D01*
G01X792000Y1703000D02*
X413000D01*
X65000Y1355000D01*
Y-2336000D01*
X-105000Y-2506000D01*
G01X-120000Y-360000D02*
Y1590000D01*
X-150000Y1620000D01*
X-180000D01*
X-240000Y1680000D01*
G01X970000Y-6115100D02*
Y-5980000D01*
G01D02*
Y-5844900D01*
G01X834900Y-5980000D02*
X970000D01*
G01D02*
X1105100D01*
G01X719990Y-3599990D02*
X1079990D01*
G01X657000Y-2506000D02*
Y-2370900D01*
G01Y-2506000D02*
X792100D01*
G01X792000Y-837000D02*
X2172000Y-2217000D01*
X4532000D01*
G01X792000Y-583000D02*
X2172000Y-1963000D01*
X4532000D01*
G01X792000Y-329000D02*
X2172000Y-1709000D01*
X4532000D01*
G01Y-1455000D02*
X2505000D01*
X1125000Y-75000D01*
X792000D01*
G01Y179000D02*
X2581000D01*
X2945000Y-185000D01*
X4532000D01*
G01X792000Y433000D02*
X2702000D01*
X3066000Y69000D01*
X4532000D01*
G01X792000Y687000D02*
X2883000D01*
X3247000Y323000D01*
X4532000D01*
G01X2099000Y-6015100D02*
Y-5850000D01*
G01D02*
Y-5684900D01*
G01Y-5850000D02*
X2264100D01*
G01X2714000Y-6015100D02*
Y-5850000D01*
G01D02*
Y-5684900D01*
G01Y-5850000D02*
X2879100D01*
G01X2580000Y-120000D02*
Y-510000D01*
X2880000Y-810000D01*
G01X4064000Y-6000100D02*
Y-5835000D01*
G01X3479000Y-6000100D02*
Y-5835000D01*
G01X4064000D02*
Y-5669900D01*
G01Y-5835000D02*
X4229100D01*
G01X3479000D02*
Y-5669900D01*
G01Y-5835000D02*
X3644100D01*
G01X4532000Y-2860100D02*
Y-2725000D01*
G01X4396900D02*
X4532000D01*
G01D02*
X4667100D01*
G01X4080000Y450000D02*
Y780000D01*
X4131000Y831000D01*
G01D02*
X4532000D01*
G01Y1085000D02*
Y1220100D01*
G01X4396900Y1085000D02*
X4532000D01*
G01D02*
X4667100D01*
M02*
