G04 ================== begin FILE IDENTIFICATION RECORD ==================*
G04 Layout Name:  ARDUINO_STM8_LCD_NRF24.brd*
G04 Film Name:    SC_TOP*
G04 File Format:  Gerber RS274X*
G04 File Origin:  Cadence Allegro 17.2-P019*
G04 Origin Date:  Wed Mar 22 13:58:16 2017*
G04 *
G04 Layer:  REF DES/SILKSCREEN_TOP*
G04 Layer:  PACKAGE GEOMETRY/SILKSCREEN_TOP*
G04 Layer:  BOARD GEOMETRY/SILKSCREEN_TOP*
G04 Layer:  BOARD GEOMETRY/DESIGN_OUTLINE*
G04 *
G04 Offset:    (0.0000 0.0000)*
G04 Mirror:    No*
G04 Mode:      Positive*
G04 Rotation:  0*
G04 FullContactRelief:  No*
G04 UndefLineWidth:     0.0000*
G04 ================== end FILE IDENTIFICATION RECORD ====================*
%FSLAX25Y25*MOMM*%
%IR0*IPPOS*OFA0.00000B0.00000*MIA0B0*SFA1.00000B1.00000*%
%ADD10C,.1*%
%ADD11C,.2*%
%ADD12C,.15*%
%ADD13C,.254*%
G75*
%LPD*%
G75*
G36*
G01X-867000Y-3330000D02*
G02I-30000J0D01*
G37*
G36*
G01X-75000Y-2918000D02*
G02I-30000J0D01*
G37*
G36*
G01X442360Y-410000D02*
G03I-22360J0D01*
G37*
G36*
G01X2490000Y-6027000D02*
G02I-30000J0D01*
G37*
G36*
G01X1875000D02*
G02I-30000J0D01*
G37*
G36*
G01Y1458000D02*
G02I-30000J0D01*
G37*
G36*
G01X3255000Y-6012000D02*
G02I-30000J0D01*
G37*
G36*
G01X3840000D02*
G02I-30000J0D01*
G37*
G54D10*
G01X-520000Y-2840000D02*
X-890000D01*
Y-2680000D01*
X-520000D01*
Y-2840000D01*
G01Y-2950000D02*
Y-3110000D01*
X-890000D01*
Y-2950000D01*
X-520000D01*
G01X-665000Y-2850000D02*
X-685000D01*
G01X-695000Y-2880000D02*
X-665000Y-2850000D01*
Y-2870000D01*
G01X-715000Y-2890000D02*
X-620000D01*
G01X-710000Y-2840000D02*
Y-2940000D01*
G01X-855000Y-2890000D02*
X-755000D01*
Y-2940000D01*
X-715000Y-2890000D01*
X-755000Y-2840000D01*
Y-2890000D01*
G01X-680000Y-2760000D02*
X-685000D01*
Y-2780000D01*
X-700000Y-2740000D01*
Y-2780000D01*
X-715000Y-2740000D01*
Y-2780000D01*
X-725000Y-2760000D01*
X-730000D01*
G01X-170000Y-4840000D02*
X200000D01*
Y-5000000D01*
X-170000D01*
Y-4840000D01*
G01X-10000Y-4920000D02*
X-5000D01*
Y-4900000D01*
X10000Y-4940000D01*
Y-4900000D01*
X25000Y-4940000D01*
Y-4900000D01*
X35000Y-4920000D01*
X40000D01*
G01X410000Y-3860000D02*
X40000D01*
Y-3700000D01*
X410000D01*
Y-3860000D01*
G01X250000Y-3780000D02*
X245000D01*
Y-3800000D01*
X230000Y-3760000D01*
Y-3800000D01*
X215000Y-3760000D01*
Y-3800000D01*
X205000Y-3780000D01*
X200000D01*
G01X-50000Y-3140000D02*
Y-2980000D01*
X320000D01*
Y-3140000D01*
X-50000D01*
G01X95000Y-3240000D02*
X115000D01*
G01X125000Y-3210000D02*
X95000Y-3240000D01*
Y-3220000D01*
G01X145000Y-3200000D02*
X50000D01*
G01X140000Y-3250000D02*
Y-3150000D01*
G01X285000Y-3200000D02*
X185000D01*
Y-3150000D01*
X145000Y-3200000D01*
X185000Y-3250000D01*
Y-3200000D01*
G01X-370000Y-450000D02*
Y210000D01*
X370000D01*
Y-450000D01*
X-370000D01*
G01X370000Y-2980000D02*
X740000D01*
Y-3140000D01*
X370000D01*
Y-2980000D01*
G01X530000Y-3060000D02*
X535000D01*
Y-3040000D01*
X550000Y-3080000D01*
Y-3040000D01*
X565000Y-3080000D01*
Y-3040000D01*
X575000Y-3060000D01*
X580000D01*
G01X2030000Y-3470000D02*
Y-4100000D01*
X2360000D01*
Y-3470000D01*
X2030000D01*
G01X2210000Y1400000D02*
Y1030000D01*
X2050000D01*
Y1400000D01*
X2210000D01*
G01X2130000Y1240000D02*
Y1235000D01*
X2150000D01*
X2110000Y1220000D01*
X2150000D01*
X2110000Y1205000D01*
X2150000D01*
X2130000Y1195000D01*
Y1190000D01*
G01X2540000Y1420000D02*
X2380000D01*
Y1790000D01*
X2540000D01*
Y1420000D01*
G01X2870000Y1790000D02*
Y1420000D01*
X2710000D01*
Y1790000D01*
X2870000D01*
G01X2790000Y1630000D02*
Y1625000D01*
X2810000D01*
X2770000Y1610000D01*
X2810000D01*
X2770000Y1595000D01*
X2810000D01*
X2790000Y1585000D01*
Y1580000D01*
G01X2640000Y1565000D02*
Y1585000D01*
G01X2610000Y1595000D02*
X2640000Y1565000D01*
X2620000D01*
G01X2600000Y1615000D02*
Y1520000D01*
G01X2650000Y1610000D02*
X2550000D01*
G01X2600000Y1755000D02*
Y1655000D01*
X2550000D01*
X2600000Y1615000D01*
X2650000Y1655000D01*
X2600000D01*
G01X4000000Y-2410000D02*
X4370000D01*
Y-2570000D01*
X4000000D01*
Y-2410000D01*
G01X4160000Y-2490000D02*
X4165000D01*
Y-2470000D01*
X4180000Y-2510000D01*
Y-2470000D01*
X4195000Y-2510000D01*
Y-2470000D01*
X4205000Y-2490000D01*
X4210000D01*
G54D11*
G01X-847000Y-3203000D02*
X-593000D01*
Y-4219000D01*
X-847000D01*
Y-3203000D01*
G01X340000Y-5350000D02*
X1100000D01*
Y-6090000D01*
X340000D01*
Y-5350000D01*
G01X1718000Y-5977000D02*
Y-5723000D01*
X2226000D01*
Y-5977000D01*
X1718000D01*
G01X4785000Y1885000D02*
Y-6115000D01*
X1185000D01*
Y1885000D01*
X4785000D01*
G01X1718000Y1508000D02*
Y1762000D01*
X2226000D01*
Y1508000D01*
X1718000D01*
G01X2333000Y-5977000D02*
Y-5723000D01*
X2841000D01*
Y-5977000D01*
X2333000D01*
G01X3098000Y-5962000D02*
Y-5708000D01*
X3606000D01*
Y-5962000D01*
X3098000D01*
G01X3683000D02*
Y-5708000D01*
X4191000D01*
Y-5962000D01*
X3683000D01*
G54D12*
G01X865000Y-2340000D02*
X-655000D01*
Y-5240000D01*
X865000D01*
Y-2340000D01*
G01X-580500Y-5151240D02*
X-573940Y-5143450D01*
X-570000Y-5134680D01*
Y-5126900D01*
X-573940Y-5119110D01*
X-580500Y-5113260D01*
X-589690Y-5110340D01*
X-598870Y-5112290D01*
X-606740Y-5117160D01*
X-612000Y-5125920D01*
X-614620Y-5137610D01*
X-619870Y-5144420D01*
X-629050Y-5147340D01*
X-638240Y-5145390D01*
X-644800Y-5140530D01*
X-648740Y-5133710D01*
Y-5126900D01*
X-646120Y-5120080D01*
X-639550Y-5114240D01*
G01X-648740Y-5052050D02*
X-570000D01*
G01X-648740Y-5074440D02*
Y-5029660D01*
G01X-570000Y-4998630D02*
X-648740D01*
X-583120Y-4973310D01*
X-648740Y-4947990D01*
X-570000D01*
G01X-612000Y-4808040D02*
X-615930Y-4804150D01*
X-622490Y-4801230D01*
X-631680Y-4799280D01*
X-639550Y-4801230D01*
X-644800Y-4805120D01*
X-648740Y-4811940D01*
Y-4838220D01*
X-570000D01*
Y-4806090D01*
X-575250Y-4799280D01*
X-583120Y-4795380D01*
X-592310Y-4793440D01*
X-601490Y-4795380D01*
X-609370Y-4801230D01*
X-612000Y-4808040D01*
Y-4838220D01*
G01X-648740Y-4758510D02*
X-592310D01*
X-580500Y-4754620D01*
X-572620Y-4746830D01*
X-570000Y-4737090D01*
X-572620Y-4727350D01*
X-580500Y-4719560D01*
X-592310Y-4715670D01*
X-648740D01*
G01Y-4658350D02*
X-570000D01*
G01X-648740Y-4680740D02*
Y-4635960D01*
G01X-938510Y-4403550D02*
Y-4324810D01*
X-950190Y-4340560D01*
G01Y-4403550D02*
X-926830D01*
G01X-554250Y-4389740D02*
X-562130Y-4394610D01*
X-567380Y-4400450D01*
X-570000Y-4407260D01*
X-567380Y-4415050D01*
X-562130Y-4420890D01*
X-554250Y-4426740D01*
X-543750Y-4428680D01*
X-491260D01*
G01X-570000Y-4486000D02*
X-552940Y-4487950D01*
X-538510Y-4490870D01*
X-525380Y-4494770D01*
X-510950Y-4499630D01*
X-491260Y-4507420D01*
Y-4468480D01*
G01X-660000Y-3309740D02*
X-581260D01*
Y-3334080D01*
X-585200Y-3341870D01*
X-590450Y-3346740D01*
X-600950Y-3348680D01*
X-611440Y-3346740D01*
X-618000Y-3340890D01*
X-621940Y-3334080D01*
Y-3309740D01*
G01Y-3334080D02*
X-660000Y-3348680D01*
G01Y-3419630D02*
X-581260D01*
X-637690Y-3383610D01*
Y-3432290D01*
G01X-494250Y-3211160D02*
X-502130Y-3216030D01*
X-507380Y-3221870D01*
X-510000Y-3228680D01*
X-507380Y-3236470D01*
X-502130Y-3242310D01*
X-494250Y-3248160D01*
X-483750Y-3250100D01*
X-431260D01*
G01X-477190Y-3290870D02*
X-468000Y-3297690D01*
X-462760Y-3303530D01*
X-460130Y-3311320D01*
X-462760Y-3318130D01*
X-468000Y-3323000D01*
X-475880Y-3326900D01*
X-485070Y-3327870D01*
X-492940Y-3326900D01*
X-500820Y-3323000D01*
X-507380Y-3317160D01*
X-510000Y-3310340D01*
X-507380Y-3302550D01*
X-499500Y-3295740D01*
X-487690Y-3291840D01*
X-474570Y-3290870D01*
X-457510Y-3292820D01*
X-448320Y-3295740D01*
X-439130Y-3300610D01*
X-432570Y-3307420D01*
X-431260Y-3314240D01*
X-433880Y-3321050D01*
X-440450Y-3325920D01*
G01X-890260Y-2640000D02*
Y-2561260D01*
X-865920D01*
X-858130Y-2565200D01*
X-853260Y-2570450D01*
X-851320Y-2580950D01*
X-853260Y-2591440D01*
X-859110Y-2598000D01*
X-865920Y-2601940D01*
X-890260D01*
G01X-865920D02*
X-851320Y-2640000D01*
G01X-792050D02*
Y-2561260D01*
X-803730Y-2577010D01*
G01Y-2640000D02*
X-780370D01*
G01X950000Y-2005000D02*
X-900000D01*
Y1865000D01*
X950000D01*
Y-2005000D01*
G01X-360000Y-5120260D02*
X-438740D01*
Y-5095920D01*
X-434800Y-5088130D01*
X-429550Y-5083260D01*
X-419050Y-5081320D01*
X-408560Y-5083260D01*
X-402000Y-5089110D01*
X-398060Y-5095920D01*
Y-5120260D01*
G01Y-5095920D02*
X-360000Y-5081320D01*
G01Y-5002580D02*
Y-5041520D01*
X-438740D01*
Y-5002580D01*
G01X-400680Y-5018160D02*
Y-5041520D01*
G01X-370500Y-4963760D02*
X-363940Y-4955970D01*
X-360000Y-4947200D01*
Y-4939420D01*
X-363940Y-4931630D01*
X-370500Y-4925780D01*
X-379690Y-4922860D01*
X-388870Y-4924810D01*
X-396740Y-4929680D01*
X-402000Y-4938440D01*
X-404620Y-4950130D01*
X-409870Y-4956940D01*
X-419050Y-4959860D01*
X-428240Y-4957910D01*
X-434800Y-4953050D01*
X-438740Y-4946230D01*
Y-4939420D01*
X-436120Y-4932600D01*
X-429550Y-4926760D01*
G01X-360000Y-4845100D02*
Y-4884040D01*
X-438740D01*
Y-4845100D01*
G01X-400680Y-4860680D02*
Y-4884040D01*
G01X-438740Y-4785830D02*
X-360000D01*
G01X-438740Y-4808220D02*
Y-4763440D01*
G01X-140260Y-4800000D02*
Y-4721260D01*
X-115920D01*
X-108130Y-4725200D01*
X-103260Y-4730450D01*
X-101320Y-4740950D01*
X-103260Y-4751440D01*
X-109110Y-4758000D01*
X-115920Y-4761940D01*
X-140260D01*
G01X-115920D02*
X-101320Y-4800000D01*
G01X-60550Y-4734380D02*
X-54710Y-4726510D01*
X-47890Y-4722570D01*
X-40100Y-4721260D01*
X-30370Y-4723880D01*
X-23550Y-4730450D01*
X-21600Y-4738320D01*
X-22580Y-4746200D01*
X-26470Y-4752760D01*
X-45940Y-4765880D01*
X-54710Y-4775070D01*
X-60550Y-4788190D01*
X-62500Y-4800000D01*
X-21600D01*
G01X-370000Y-3280000D02*
Y-3500000D01*
X-470000D01*
Y-3280000D01*
X-370000D01*
G01X-442210Y-3090000D02*
Y-3011260D01*
X-422740D01*
X-414950Y-3015200D01*
X-409110Y-3020450D01*
X-404240Y-3028320D01*
X-400340Y-3037510D01*
X-399370Y-3050630D01*
X-400340Y-3063750D01*
X-404240Y-3072940D01*
X-409110Y-3080820D01*
X-414950Y-3086060D01*
X-422740Y-3090000D01*
X-442210D01*
G01X-342050D02*
Y-3011260D01*
X-353730Y-3027010D01*
G01Y-3090000D02*
X-330370D01*
G01X-27210Y-2955000D02*
Y-2876260D01*
X-7740D01*
X50Y-2880200D01*
X5890Y-2885450D01*
X10760Y-2893320D01*
X14660Y-2902510D01*
X15630Y-2915630D01*
X14660Y-2928750D01*
X10760Y-2937940D01*
X5890Y-2945820D01*
X50Y-2951060D01*
X-7740Y-2955000D01*
X-27210D01*
G01X51530Y-2939250D02*
X57370Y-2948440D01*
X65160Y-2953690D01*
X73920Y-2955000D01*
X81710Y-2953690D01*
X89500Y-2947130D01*
X94370Y-2939250D01*
X95340Y-2931380D01*
X93400Y-2922190D01*
X86580Y-2915630D01*
X79770Y-2913000D01*
X71000D01*
G01X79770D02*
X85610Y-2909070D01*
X90480Y-2902510D01*
X92420Y-2894630D01*
X90480Y-2886760D01*
X85610Y-2880200D01*
X76840Y-2876260D01*
X68080Y-2877570D01*
X59320Y-2882820D01*
G01X170630Y-3367820D02*
X164790Y-3363880D01*
X157970Y-3361260D01*
X150180D01*
X141420Y-3365200D01*
X134610Y-3371760D01*
X129740Y-3379630D01*
X125840Y-3392760D01*
X124870Y-3404570D01*
X126820Y-3416380D01*
X129740Y-3424250D01*
X135580Y-3432130D01*
X142390Y-3437380D01*
X149210Y-3440000D01*
X156030D01*
X162840Y-3437380D01*
X168680Y-3433440D01*
X173550Y-3428190D01*
G01X227950Y-3440000D02*
Y-3361260D01*
X216270Y-3377010D01*
G01Y-3440000D02*
X239630D01*
G01X-275000Y-2390000D02*
X815000D01*
Y-2870000D01*
X-275000D01*
Y-2390000D01*
G01X-97210Y-2173260D02*
Y-2229690D01*
X-93320Y-2241500D01*
X-85530Y-2249380D01*
X-75790Y-2252000D01*
X-66050Y-2249380D01*
X-58260Y-2241500D01*
X-54370Y-2229690D01*
Y-2173260D01*
G01X-18470Y-2240190D02*
X-12630Y-2246750D01*
X-5810Y-2250690D01*
X2950Y-2252000D01*
X11710Y-2249380D01*
X18530Y-2244130D01*
X23400Y-2234940D01*
X24370Y-2224440D01*
X22420Y-2213940D01*
X17550Y-2207380D01*
X10740Y-2202130D01*
X3920Y-2200820D01*
X-2890Y-2202130D01*
X-11650Y-2207380D01*
X-8730Y-2173260D01*
X17550D01*
G01X262210Y-568740D02*
Y-512310D01*
X258320Y-500500D01*
X250530Y-492620D01*
X240790Y-490000D01*
X231050Y-492620D01*
X223260Y-500500D01*
X219370Y-512310D01*
Y-568740D01*
G01X183470Y-505750D02*
X177630Y-496560D01*
X169840Y-491310D01*
X161080Y-490000D01*
X153290Y-491310D01*
X145500Y-497870D01*
X140630Y-505750D01*
X139660Y-513620D01*
X141600Y-522810D01*
X148420Y-529370D01*
X155230Y-532000D01*
X164000D01*
G01X155230D02*
X149390Y-535930D01*
X144520Y-542490D01*
X142580Y-550370D01*
X144520Y-558240D01*
X149390Y-564800D01*
X158160Y-568740D01*
X166920Y-567430D01*
X175680Y-562180D01*
G01X127820Y1010630D02*
X123880Y1004790D01*
X121260Y997970D01*
Y990180D01*
X125200Y981420D01*
X131760Y974610D01*
X139630Y969740D01*
X152760Y965840D01*
X164570Y964870D01*
X176380Y966820D01*
X184250Y969740D01*
X192130Y975580D01*
X197380Y982390D01*
X200000Y989210D01*
Y996030D01*
X197380Y1002840D01*
X193440Y1008680D01*
X188190Y1013550D01*
G01X134380Y1049450D02*
X126510Y1055290D01*
X122570Y1062110D01*
X121260Y1069900D01*
X123880Y1079630D01*
X130450Y1086450D01*
X138320Y1088400D01*
X146200Y1087420D01*
X152760Y1083530D01*
X165880Y1064060D01*
X175070Y1055290D01*
X188190Y1049450D01*
X200000Y1047500D01*
Y1088400D01*
G01X429740Y-5850000D02*
Y-5771260D01*
X454080D01*
X461870Y-5775200D01*
X466740Y-5780450D01*
X468680Y-5790950D01*
X466740Y-5801440D01*
X460890Y-5808000D01*
X454080Y-5811940D01*
X429740D01*
G01X454080D02*
X468680Y-5850000D01*
G01X506530Y-5838190D02*
X512370Y-5844750D01*
X519190Y-5848690D01*
X527950Y-5850000D01*
X536710Y-5847380D01*
X543530Y-5842130D01*
X548400Y-5832940D01*
X549370Y-5822440D01*
X547420Y-5811940D01*
X542550Y-5805380D01*
X535740Y-5800130D01*
X528920Y-5798820D01*
X522110Y-5800130D01*
X513350Y-5805380D01*
X516270Y-5771260D01*
X542550D01*
G01X424870Y-5621260D02*
X449210Y-5700000D01*
X473550Y-5621260D01*
G01X508480Y-5700000D02*
Y-5621260D01*
X532820D01*
X540610Y-5625200D01*
X545480Y-5630450D01*
X547420Y-5640950D01*
X545480Y-5651440D01*
X539630Y-5658000D01*
X532820Y-5661940D01*
X508480D01*
G01X532820D02*
X547420Y-5700000D01*
G01X585270Y-5702620D02*
X628110Y-5644880D01*
G01X606690Y-5634380D02*
Y-5713120D01*
G01X628110Y-5702620D02*
X585270Y-5644880D01*
G01X577480Y-5673750D02*
X635900D01*
G01X360000Y-5155130D02*
X281260Y-5130790D01*
X360000Y-5106450D01*
G01X332440Y-5115210D02*
Y-5146370D01*
G01X360000Y-5071520D02*
X281260D01*
Y-5047180D01*
X285200Y-5039390D01*
X290450Y-5034520D01*
X300950Y-5032580D01*
X311440Y-5034520D01*
X318000Y-5040370D01*
X321940Y-5047180D01*
Y-5071520D01*
G01Y-5047180D02*
X360000Y-5032580D01*
G01Y-4994730D02*
X281260D01*
Y-4975260D01*
X285200Y-4967470D01*
X290450Y-4961630D01*
X298320Y-4956760D01*
X307510Y-4952860D01*
X320630Y-4951890D01*
X333750Y-4952860D01*
X342940Y-4956760D01*
X350820Y-4961630D01*
X356060Y-4967470D01*
X360000Y-4975260D01*
Y-4994730D01*
G01X318000Y-4808040D02*
X314070Y-4804150D01*
X307510Y-4801230D01*
X298320Y-4799280D01*
X290450Y-4801230D01*
X285200Y-4805120D01*
X281260Y-4811940D01*
Y-4838220D01*
X360000D01*
Y-4806090D01*
X354750Y-4799280D01*
X346880Y-4795380D01*
X337690Y-4793440D01*
X328510Y-4795380D01*
X320630Y-4801230D01*
X318000Y-4808040D01*
Y-4838220D01*
G01X281260Y-4758510D02*
X337690D01*
X349500Y-4754620D01*
X357380Y-4746830D01*
X360000Y-4737090D01*
X357380Y-4727350D01*
X349500Y-4719560D01*
X337690Y-4715670D01*
X281260D01*
G01Y-4658350D02*
X360000D01*
G01X281260Y-4680740D02*
Y-4635960D01*
G01X459740Y-3810000D02*
Y-3731260D01*
X484080D01*
X491870Y-3735200D01*
X496740Y-3740450D01*
X498680Y-3750950D01*
X496740Y-3761440D01*
X490890Y-3768000D01*
X484080Y-3771940D01*
X459740D01*
G01X484080D02*
X498680Y-3810000D01*
G01X536530Y-3794250D02*
X542370Y-3803440D01*
X550160Y-3808690D01*
X558920Y-3810000D01*
X566710Y-3808690D01*
X574500Y-3802130D01*
X579370Y-3794250D01*
X580340Y-3786380D01*
X578400Y-3777190D01*
X571580Y-3770630D01*
X564770Y-3768000D01*
X556000D01*
G01X564770D02*
X570610Y-3764070D01*
X575480Y-3757510D01*
X577420Y-3749630D01*
X575480Y-3741760D01*
X570610Y-3735200D01*
X561840Y-3731260D01*
X553080Y-3732570D01*
X544320Y-3737820D01*
G01X374740Y-2955000D02*
Y-2876260D01*
X399080D01*
X406870Y-2880200D01*
X411740Y-2885450D01*
X413680Y-2895950D01*
X411740Y-2906440D01*
X405890Y-2913000D01*
X399080Y-2916940D01*
X374740D01*
G01X399080D02*
X413680Y-2955000D01*
G01X456400Y-2945820D02*
X463210Y-2952380D01*
X471000Y-2955000D01*
X478790Y-2952380D01*
X485610Y-2944500D01*
X490480Y-2932690D01*
X492420Y-2920880D01*
Y-2906440D01*
X490480Y-2894630D01*
X485610Y-2884130D01*
X479770Y-2878880D01*
X472950Y-2876260D01*
X465160Y-2878880D01*
X459320Y-2884130D01*
X455420Y-2892010D01*
X453480Y-2902510D01*
X455420Y-2911690D01*
X460290Y-2920880D01*
X466130Y-2926130D01*
X472950Y-2927440D01*
X480740Y-2924820D01*
X486580Y-2918260D01*
X492420Y-2906440D01*
G01X922210Y-2163740D02*
Y-2107310D01*
X918320Y-2095500D01*
X910530Y-2087620D01*
X900790Y-2085000D01*
X891050Y-2087620D01*
X883260Y-2095500D01*
X879370Y-2107310D01*
Y-2163740D01*
G01X822050Y-2085000D02*
Y-2163740D01*
X833730Y-2147990D01*
G01Y-2085000D02*
X810370D01*
G01X250000Y970000D02*
Y1190000D01*
X350000D01*
Y970000D01*
X250000D01*
G01X1758500Y-6033750D02*
X1781870D01*
G01X1769210Y-6016690D02*
Y-6050820D01*
G01X1150790Y-1893740D02*
Y-1815000D01*
G01X1173180Y-1893740D02*
X1128400D01*
G01X1092500Y-1815000D02*
X1051600Y-1893740D01*
G01X1092500D02*
X1051600Y-1815000D01*
G01X1591160Y1395750D02*
X1596030Y1387870D01*
X1601870Y1382620D01*
X1608680Y1380000D01*
X1616470Y1382620D01*
X1622310Y1387870D01*
X1628160Y1395750D01*
X1630100Y1406250D01*
Y1458740D01*
G01X1689370Y1380000D02*
Y1458740D01*
X1677690Y1442990D01*
G01Y1380000D02*
X1701050D01*
G01X2527790Y-6078190D02*
X2533630Y-6084750D01*
X2540450Y-6088690D01*
X2549210Y-6090000D01*
X2557970Y-6087380D01*
X2564790Y-6082130D01*
X2569660Y-6072940D01*
X2570630Y-6062440D01*
X2568680Y-6051940D01*
X2563810Y-6045380D01*
X2557000Y-6040130D01*
X2550180Y-6038820D01*
X2543370Y-6040130D01*
X2534610Y-6045380D01*
X2537530Y-6011260D01*
X2563810D01*
G01X2603610D02*
X2627950Y-6090000D01*
X2652290Y-6011260D01*
G01X1927790Y-6078190D02*
X1933630Y-6084750D01*
X1940450Y-6088690D01*
X1949210Y-6090000D01*
X1957970Y-6087380D01*
X1964790Y-6082130D01*
X1969660Y-6072940D01*
X1970630Y-6062440D01*
X1968680Y-6051940D01*
X1963810Y-6045380D01*
X1957000Y-6040130D01*
X1950180Y-6038820D01*
X1943370Y-6040130D01*
X1934610Y-6045380D01*
X1937530Y-6011260D01*
X1963810D01*
G01X2003610D02*
X2027950Y-6090000D01*
X2052290Y-6011260D01*
G01X2358500Y-6033750D02*
X2381870D01*
G01X2369210Y-6016690D02*
Y-6050820D01*
G01X2176550Y-6033750D02*
X2201870D01*
G01X2528160Y-5679750D02*
X2533030Y-5687630D01*
X2538870Y-5692880D01*
X2545680Y-5695500D01*
X2553470Y-5692880D01*
X2559310Y-5687630D01*
X2565160Y-5679750D01*
X2567100Y-5669250D01*
Y-5616760D01*
G01X2607870Y-5629880D02*
X2613710Y-5622010D01*
X2620530Y-5618070D01*
X2628320Y-5616760D01*
X2638050Y-5619380D01*
X2644870Y-5625950D01*
X2646820Y-5633820D01*
X2645840Y-5641700D01*
X2641950Y-5648260D01*
X2622480Y-5661380D01*
X2613710Y-5670570D01*
X2607870Y-5683690D01*
X2605920Y-5695500D01*
X2646820D01*
G01X1913160Y-5679750D02*
X1918030Y-5687630D01*
X1923870Y-5692880D01*
X1930680Y-5695500D01*
X1938470Y-5692880D01*
X1944310Y-5687630D01*
X1950160Y-5679750D01*
X1952100Y-5669250D01*
Y-5616760D01*
G01X1989950Y-5679750D02*
X1995790Y-5688940D01*
X2003580Y-5694190D01*
X2012340Y-5695500D01*
X2020130Y-5694190D01*
X2027920Y-5687630D01*
X2032790Y-5679750D01*
X2033760Y-5671880D01*
X2031820Y-5662690D01*
X2025000Y-5656130D01*
X2018190Y-5653500D01*
X2009420D01*
G01X2018190D02*
X2024030Y-5649570D01*
X2028900Y-5643010D01*
X2030840Y-5635130D01*
X2028900Y-5627260D01*
X2024030Y-5620700D01*
X2015260Y-5616760D01*
X2006500Y-5618070D01*
X1997740Y-5623320D01*
G01X2568740Y-4147790D02*
X2512310D01*
X2500500Y-4151680D01*
X2492620Y-4159470D01*
X2490000Y-4169210D01*
X2492620Y-4178950D01*
X2500500Y-4186740D01*
X2512310Y-4190630D01*
X2568740D01*
G01X2555620Y-4229450D02*
X2563490Y-4235290D01*
X2567430Y-4242110D01*
X2568740Y-4249900D01*
X2566120Y-4259630D01*
X2559550Y-4266450D01*
X2551680Y-4268400D01*
X2543800Y-4267420D01*
X2537240Y-4263530D01*
X2524120Y-4244060D01*
X2514930Y-4235290D01*
X2501810Y-4229450D01*
X2490000Y-4227500D01*
Y-4268400D01*
G01X2010000Y1059740D02*
X1931260D01*
Y1084080D01*
X1935200Y1091870D01*
X1940450Y1096740D01*
X1950950Y1098680D01*
X1961440Y1096740D01*
X1968000Y1090890D01*
X1971940Y1084080D01*
Y1059740D01*
G01Y1084080D02*
X2010000Y1098680D01*
G01Y1156000D02*
X1992940Y1157950D01*
X1978510Y1160870D01*
X1965380Y1164770D01*
X1950950Y1169630D01*
X1931260Y1177420D01*
Y1138480D01*
G01X2490000Y1237790D02*
X2411260D01*
Y1257260D01*
X2415200Y1265050D01*
X2420450Y1270890D01*
X2428320Y1275760D01*
X2437510Y1279660D01*
X2450630Y1280630D01*
X2463750Y1279660D01*
X2472940Y1275760D01*
X2480820Y1270890D01*
X2486060Y1265050D01*
X2490000Y1257260D01*
Y1237790D01*
G01X2424380Y1319450D02*
X2416510Y1325290D01*
X2412570Y1332110D01*
X2411260Y1339900D01*
X2413880Y1349630D01*
X2420450Y1356450D01*
X2428320Y1358400D01*
X2436200Y1357420D01*
X2442760Y1353530D01*
X2455880Y1334060D01*
X2465070Y1325290D01*
X2478190Y1319450D01*
X2490000Y1317500D01*
Y1358400D01*
G01X3138500Y-6033750D02*
X3161870D01*
G01X3149210Y-6016690D02*
Y-6050820D01*
G01X2776550Y-6033750D02*
X2801870D01*
G01X3277790Y-6044250D02*
X3283630Y-6053440D01*
X3291420Y-6058690D01*
X3300180Y-6060000D01*
X3307970Y-6058690D01*
X3315760Y-6052130D01*
X3320630Y-6044250D01*
X3321600Y-6036380D01*
X3319660Y-6027190D01*
X3312840Y-6020630D01*
X3306030Y-6018000D01*
X3297260D01*
G01X3306030D02*
X3311870Y-6014070D01*
X3316740Y-6007510D01*
X3318680Y-5999630D01*
X3316740Y-5991760D01*
X3311870Y-5985200D01*
X3303100Y-5981260D01*
X3294340Y-5982570D01*
X3285580Y-5987820D01*
G01X3353610Y-5981260D02*
X3377950Y-6060000D01*
X3402290Y-5981260D01*
G01X3435270Y-6044250D02*
X3441110Y-6053440D01*
X3448900Y-6058690D01*
X3457660Y-6060000D01*
X3465450Y-6058690D01*
X3473240Y-6052130D01*
X3478110Y-6044250D01*
X3479080Y-6036380D01*
X3477140Y-6027190D01*
X3470320Y-6020630D01*
X3463510Y-6018000D01*
X3454740D01*
G01X3463510D02*
X3469350Y-6014070D01*
X3474220Y-6007510D01*
X3476160Y-5999630D01*
X3474220Y-5991760D01*
X3469350Y-5985200D01*
X3460580Y-5981260D01*
X3451820Y-5982570D01*
X3443060Y-5987820D01*
G01X3293160Y-5664750D02*
X3298030Y-5672630D01*
X3303870Y-5677880D01*
X3310680Y-5680500D01*
X3318470Y-5677880D01*
X3324310Y-5672630D01*
X3330160Y-5664750D01*
X3332100Y-5654250D01*
Y-5601760D01*
G01X3369950Y-5668690D02*
X3375790Y-5675250D01*
X3382610Y-5679190D01*
X3391370Y-5680500D01*
X3400130Y-5677880D01*
X3406950Y-5672630D01*
X3411820Y-5663440D01*
X3412790Y-5652940D01*
X3410840Y-5642440D01*
X3405970Y-5635880D01*
X3399160Y-5630630D01*
X3392340Y-5629320D01*
X3385530Y-5630630D01*
X3376770Y-5635880D01*
X3379690Y-5601760D01*
X3405970D01*
G01X2820000Y1239740D02*
X2741260D01*
Y1264080D01*
X2745200Y1271870D01*
X2750450Y1276740D01*
X2760950Y1278680D01*
X2771440Y1276740D01*
X2778000Y1270890D01*
X2781940Y1264080D01*
Y1239740D01*
G01Y1264080D02*
X2820000Y1278680D01*
G01X2787190Y1319450D02*
X2778000Y1326270D01*
X2772760Y1332110D01*
X2770130Y1339900D01*
X2772760Y1346710D01*
X2778000Y1351580D01*
X2785880Y1355480D01*
X2795070Y1356450D01*
X2802940Y1355480D01*
X2810820Y1351580D01*
X2817380Y1345740D01*
X2820000Y1338920D01*
X2817380Y1331130D01*
X2809500Y1324320D01*
X2797690Y1320420D01*
X2784570Y1319450D01*
X2767510Y1321400D01*
X2758320Y1324320D01*
X2749130Y1329190D01*
X2742570Y1336000D01*
X2741260Y1342820D01*
X2743880Y1349630D01*
X2750450Y1354500D01*
G01X3847790Y-6044250D02*
X3853630Y-6053440D01*
X3861420Y-6058690D01*
X3870180Y-6060000D01*
X3877970Y-6058690D01*
X3885760Y-6052130D01*
X3890630Y-6044250D01*
X3891600Y-6036380D01*
X3889660Y-6027190D01*
X3882840Y-6020630D01*
X3876030Y-6018000D01*
X3867260D01*
G01X3876030D02*
X3881870Y-6014070D01*
X3886740Y-6007510D01*
X3888680Y-5999630D01*
X3886740Y-5991760D01*
X3881870Y-5985200D01*
X3873100Y-5981260D01*
X3864340Y-5982570D01*
X3855580Y-5987820D01*
G01X3923610Y-5981260D02*
X3947950Y-6060000D01*
X3972290Y-5981260D01*
G01X4005270Y-6044250D02*
X4011110Y-6053440D01*
X4018900Y-6058690D01*
X4027660Y-6060000D01*
X4035450Y-6058690D01*
X4043240Y-6052130D01*
X4048110Y-6044250D01*
X4049080Y-6036380D01*
X4047140Y-6027190D01*
X4040320Y-6020630D01*
X4033510Y-6018000D01*
X4024740D01*
G01X4033510D02*
X4039350Y-6014070D01*
X4044220Y-6007510D01*
X4046160Y-5999630D01*
X4044220Y-5991760D01*
X4039350Y-5985200D01*
X4030580Y-5981260D01*
X4021820Y-5982570D01*
X4013060Y-5987820D01*
G01X3738500Y-6033750D02*
X3761870D01*
G01X3749210Y-6016690D02*
Y-6050820D01*
G01X3556550Y-6033750D02*
X3581870D01*
G01X3878160Y-5664750D02*
X3883030Y-5672630D01*
X3888870Y-5677880D01*
X3895680Y-5680500D01*
X3903470Y-5677880D01*
X3909310Y-5672630D01*
X3915160Y-5664750D01*
X3917100Y-5654250D01*
Y-5601760D01*
G01X3988050Y-5680500D02*
Y-5601760D01*
X3952030Y-5658190D01*
X4000710D01*
G01X4004740Y-2385000D02*
Y-2306260D01*
X4029080D01*
X4036870Y-2310200D01*
X4041740Y-2315450D01*
X4043680Y-2325950D01*
X4041740Y-2336440D01*
X4035890Y-2343000D01*
X4029080Y-2346940D01*
X4004740D01*
G01X4029080D02*
X4043680Y-2385000D01*
G01X4102950D02*
X4109770Y-2383690D01*
X4117550Y-2379750D01*
X4122420Y-2373190D01*
X4124370Y-2364000D01*
X4122420Y-2354820D01*
X4116580Y-2346940D01*
X4107820Y-2343000D01*
X4098080D01*
X4092240Y-2340380D01*
X4087370Y-2333820D01*
X4085420Y-2324630D01*
X4088350Y-2315450D01*
X4095160Y-2308880D01*
X4102950Y-2306260D01*
X4110740Y-2308880D01*
X4117550Y-2315450D01*
X4120480Y-2324630D01*
X4118530Y-2333820D01*
X4113660Y-2340380D01*
X4107820Y-2343000D01*
X4098080D01*
X4089320Y-2346940D01*
X4083480Y-2354820D01*
X4081530Y-2364000D01*
X4083480Y-2373190D01*
X4088350Y-2379750D01*
X4096130Y-2383690D01*
X4102950Y-2385000D01*
G01X4158740Y1612210D02*
X4102310D01*
X4090500Y1608320D01*
X4082620Y1600530D01*
X4080000Y1590790D01*
X4082620Y1581050D01*
X4090500Y1573260D01*
X4102310Y1569370D01*
X4158740D01*
G01X4080000Y1500370D02*
X4158740D01*
X4102310Y1536390D01*
Y1487710D01*
G01X4096550Y-6033750D02*
X4121870D01*
G01X4308740Y1730260D02*
X4230000D01*
Y1691320D01*
G01X4302180Y1610630D02*
X4306120Y1616470D01*
X4308740Y1623290D01*
Y1631080D01*
X4304800Y1639840D01*
X4298240Y1646650D01*
X4290370Y1651520D01*
X4277240Y1655420D01*
X4265430Y1656390D01*
X4253620Y1654440D01*
X4245750Y1651520D01*
X4237870Y1645680D01*
X4232620Y1638870D01*
X4230000Y1632050D01*
Y1625230D01*
X4232620Y1618420D01*
X4236560Y1612580D01*
X4241810Y1607710D01*
G01X4230000Y1574730D02*
X4308740D01*
Y1555260D01*
X4304800Y1547470D01*
X4299550Y1541630D01*
X4291680Y1536760D01*
X4282490Y1532860D01*
X4269370Y1531890D01*
X4256250Y1532860D01*
X4247060Y1536760D01*
X4239180Y1541630D01*
X4233940Y1547470D01*
X4230000Y1555260D01*
Y1574730D01*
G01X4227380Y1495990D02*
X4285120Y1453150D01*
G01X4295620Y1474570D02*
X4216880D01*
G01X4227380Y1453150D02*
X4285120Y1495990D01*
G01X4256250Y1503780D02*
Y1445360D01*
G54D13*
G01X-750000Y-5959800D02*
X-935420D01*
Y-5350200D01*
X-564580D01*
Y-5959800D01*
X-750000D01*
G01X-668000Y-4321000D02*
Y-5083000D01*
X-922000D01*
Y-4321000D01*
X-668000D01*
G01X105000Y-5959800D02*
X-80420D01*
Y-5350200D01*
X290420D01*
Y-5959800D01*
X105000D01*
G01X-315000Y-5350200D02*
X-129580D01*
Y-5959800D01*
X-500420D01*
Y-5350200D01*
X-315000D01*
M02*
