G04 ================== begin FILE IDENTIFICATION RECORD ==================*
G04 Layout Name:  ARDUINO_STM8_LCD_NRF24.brd*
G04 Film Name:    SM_TOP*
G04 File Format:  Gerber RS274X*
G04 File Origin:  Cadence Allegro 17.2-P019*
G04 Origin Date:  Wed Mar 22 13:58:16 2017*
G04 *
G04 Layer:  VIA CLASS/SOLDERMASK_TOP*
G04 Layer:  PIN/SOLDERMASK_TOP*
G04 Layer:  PACKAGE GEOMETRY/SOLDERMASK_TOP*
G04 Layer:  BOARD GEOMETRY/SOLDERMASK_TOP*
G04 *
G04 Offset:    (0.0000 0.0000)*
G04 Mirror:    No*
G04 Mode:      Positive*
G04 Rotation:  0*
G04 FullContactRelief:  No*
G04 UndefLineWidth:     0.0000*
G04 ================== end FILE IDENTIFICATION RECORD ====================*
%FSLAX25Y25*MOMM*%
%IR0*IPPOS*OFA0.00000B0.00000*MIA0B0*SFA1.00000B1.00000*%
%ADD19R,1.3X.4*%
%ADD18R,1.0201X.7399*%
%ADD17R,.7399X1.0201*%
%ADD21R,2.35X1.1501*%
%ADD16C,1.5*%
%ADD20R,2.35X3.4501*%
%ADD12R,2.X2.*%
%ADD14R,1.4X1.4*%
%ADD10R,1.651X1.651*%
%ADD13C,2.1999*%
%ADD11C,1.8999*%
%ADD15R,2.1999X2.1999*%
%LPD*%
G75*
G54D10*
X-750000Y-6045000D03*
Y-5265000D03*
X105000Y-6045000D03*
X-315000D03*
X105000Y-5265000D03*
X-315000D03*
G54D11*
X-795000Y-4956000D03*
Y-4702000D03*
X-732000Y-1853000D03*
Y-1599000D03*
Y-1345000D03*
Y-1091000D03*
Y-837000D03*
Y-583000D03*
Y-329000D03*
Y-75000D03*
Y179000D03*
Y433000D03*
Y687000D03*
Y941000D03*
Y1195000D03*
Y1449000D03*
Y1703000D03*
X149000Y-2760000D03*
X-105000D03*
Y-2506000D03*
X149000D03*
X970000Y-5980000D03*
X470000D03*
X720000Y-5480000D03*
X657000Y-2760000D03*
X403000D03*
Y-2506000D03*
X792000Y-1345000D03*
Y-1599000D03*
Y-583000D03*
Y-837000D03*
Y-1091000D03*
Y179000D03*
Y-75000D03*
Y-329000D03*
Y941000D03*
Y687000D03*
Y433000D03*
Y1703000D03*
Y1449000D03*
Y1195000D03*
X4532000Y-2725000D03*
Y-2471000D03*
Y-2217000D03*
Y-1963000D03*
Y-1709000D03*
Y-1455000D03*
Y-1201000D03*
Y-947000D03*
Y-693000D03*
Y-439000D03*
Y-185000D03*
Y69000D03*
Y323000D03*
Y577000D03*
Y831000D03*
G54D20*
X2490000Y-3790000D03*
G54D12*
X-795000Y-4448000D03*
X657000Y-2506000D03*
X792000Y-1853000D03*
X4532000Y1085000D03*
G54D21*
X1899930Y-4019940D03*
Y-3789940D03*
Y-3559940D03*
G54D13*
X-720000Y-4092000D03*
Y-3838000D03*
Y-3584000D03*
X2099000Y-5850000D03*
Y1635000D03*
X2714000Y-5850000D03*
X3479000Y-5835000D03*
X4064000D03*
G54D14*
X-810000Y-2760000D03*
X-600000D03*
X-810000Y-3030000D03*
X-600000D03*
X120000Y-4920000D03*
X-90000D03*
X120000Y-3780000D03*
X240000Y-3060000D03*
X30000D03*
X330000Y-3780000D03*
X660000Y-3060000D03*
X450000D03*
X2130000Y1110000D03*
Y1320000D03*
X2460000Y1710000D03*
Y1500000D03*
X2790000D03*
Y1710000D03*
X4080000Y-2490000D03*
X4290000D03*
G54D15*
X-720000Y-3330000D03*
X1845000Y-5850000D03*
Y1635000D03*
X2460000Y-5850000D03*
X3225000Y-5835000D03*
X3810000D03*
G54D16*
X198220Y-4920000D03*
X-60000Y-3210000D03*
X-270000Y-3180000D03*
X-30000Y-630000D03*
X-180000D03*
X-300000Y750000D03*
Y450000D03*
X-240000Y1680000D03*
X719990Y-3599990D03*
X600000Y-3780000D03*
X420000Y1320000D03*
X1110000Y-4380000D03*
X1410000Y-4440000D03*
X1079990Y-3599990D03*
X2580000Y-120000D03*
X2880000Y-810000D03*
X4080000Y450000D03*
G54D17*
X165000Y-3540000D03*
X315000D03*
G54D18*
X-420000Y-3475000D03*
Y-3305000D03*
X300000Y1005000D03*
Y1155000D03*
G54D19*
X-287500Y-412500D03*
Y-347500D03*
Y-282500D03*
Y-217500D03*
Y-152500D03*
Y-87500D03*
Y-22500D03*
Y42500D03*
Y107500D03*
Y172500D03*
X287500D03*
Y107500D03*
Y42500D03*
Y-22500D03*
Y-87500D03*
Y-152500D03*
Y-217500D03*
Y-282500D03*
Y-347500D03*
Y-412500D03*
M02*
