G04 ================== begin FILE IDENTIFICATION RECORD ==================*
G04 Layout Name:  ARDUINO_STM8_LCD_NRF24.brd*
G04 Film Name:    TOP*
G04 File Format:  Gerber RS274X*
G04 File Origin:  Cadence Allegro 17.2-P019*
G04 Origin Date:  Thu Mar 16 14:33:32 2017*
G04 *
G04 Layer:  ETCH/TOP*
G04 Layer:  PIN/TOP*
G04 Layer:  VIA CLASS/TOP*
G04 *
G04 Offset:    (0.0000 0.0000)*
G04 Mirror:    No*
G04 Mode:      Positive*
G04 Rotation:  0*
G04 FullContactRelief:  No*
G04 UndefLineWidth:     0.0000*
G04 ================== end FILE IDENTIFICATION RECORD ====================*
%FSLAX25Y25*MOMM*%
%IR0*IPPOS*OFA0.00000B0.00000*MIA0B0*SFA1.00000B1.00000*%
%ADD22R,2.1501X.95*%
%ADD19R,1.1999X.3*%
%ADD18R,1.0201X.7399*%
%ADD17R,.7399X1.0201*%
%ADD16C,1.*%
%ADD10R,1.524X1.524*%
%ADD21R,2.1501X3.2499*%
%ADD13C,2.1999*%
%ADD20C,3.1999*%
%ADD11C,1.5999*%
%ADD14R,1.1999X1.1999*%
%ADD15R,2.1999X2.1999*%
%ADD12R,1.5999X1.5999*%
%ADD23C,.3*%
%ADD25C,4.2004*%
%ADD24C,1.8544*%
G75*
%LPD*%
G75*
G36*
G01X-959990Y-6149990D02*
Y-3206490D01*
G02X-942650Y-3199310I10158J-3D01*
G01X-880020Y-3261940D01*
Y-3440000D01*
G03X-856880Y-3482170I50020J14D01*
G02X-853850Y-3496310I-5465J-8566D01*
G03X-796880Y-3724340I133849J-87691D01*
G02X-795510Y-3741260I-4878J-8910D01*
G03Y-3934740I75510J-96740D01*
G02X-796880Y-3951660I-6248J-8010D01*
G03X-605530Y-4203810I76882J-140336D01*
G01X-605510Y-4203790D01*
X-558730Y-4157020D01*
X-384370D01*
X-380020Y-4161370D01*
Y-5102570D01*
X-428070Y-5155000D01*
G03X-441220Y-5188800I36864J-33800D01*
G01Y-5341200D01*
G03X-439920Y-5352520I50019J10D01*
G02X-449820Y-5364980I-9897J-2300D01*
G01X-558070D01*
X-623780Y-5299270D01*
Y-5188800D01*
G03X-673800Y-5138780I-50020J0D01*
G01X-826200D01*
G03X-876220Y-5188800I0J-50020D01*
G01Y-5341200D01*
G03X-826200Y-5391220I50020J0D01*
G01X-715730D01*
X-611930Y-5495020D01*
X196930D01*
X515020Y-5176930D01*
Y-4976930D01*
X995020Y-4496930D01*
Y-2589370D01*
X999370Y-2585020D01*
X1196930D01*
X2871930Y-910020D01*
X2880000D01*
G03X2779980Y-810000I0J100020D01*
G01Y-818070D01*
X1143070Y-2454980D01*
X999370D01*
X995020Y-2450630D01*
Y-2283070D01*
X699820Y-1987870D01*
X705090Y-1982590D01*
X707460Y-1982810D01*
G03X712000Y-1983020I4579J49812D01*
G01X872000D01*
G03X922020Y-1933000I-5J50025D01*
G01Y-1773000D01*
G03X872000Y-1722980I-50025J-5D01*
G01X851060D01*
Y-1714870D01*
X853730Y-1713430D01*
G03X847040Y-1481200I-61729J114433D01*
G02Y-1462800I4301J9200D01*
G03Y-1227200I-55040J117800D01*
G02Y-1208800I4301J9200D01*
G03X847030Y-973200I-55039J117798D01*
G02Y-954790I4303J9205D01*
G03X913530Y-790790I-55028J117796D01*
G02X923020Y-777020I9495J3612D01*
G01X2284930D01*
X2855020Y-206930D01*
Y1370610D01*
X2887270Y1406640D01*
G03X2900020Y1440670I-37267J33366D01*
G01Y1560000D01*
G03X2883200Y1597400I-50021J-14D01*
G02Y1612600I6747J7600D01*
G03X2900020Y1650000I-33201J37414D01*
G01Y1770000D01*
G03X2850000Y1820020I-50025J-5D01*
G01X2730000D01*
G03X2682420Y1785410I8J-50022D01*
G01X2682050Y1784270D01*
X2672940Y1775020D01*
X2672600D01*
X2587360Y1689780D01*
G02X2570020Y1696960I-7181J7185D01*
G01Y1770000D01*
G03X2520000Y1820020I-50025J-5D01*
G01X2400670D01*
G03X2366640Y1807270I-664J-50017D01*
G01X2330610Y1775020D01*
X2176450D01*
G03X2011310Y1768850I-77454J-140020D01*
G02X1997170Y1771880I-5574J8495D01*
G03X1955000Y1795020I-42184J-26880D01*
G01X1735000D01*
G03X1684980Y1745000I5J-50025D01*
G01Y1525000D01*
G03X1716800Y1478420I50020J12D01*
G02X1720290Y1461770I-3696J-9466D01*
G01X939350Y680840D01*
G02X922010Y687950I-7182J7184D01*
G03X847030Y804790I-130010J-953D01*
G02Y823200I4303J9205D01*
G03X847040Y1058800I-55029J117802D01*
G02Y1077200I4301J9200D01*
G03X847030Y1312800I-55039J117798D01*
G02Y1331210I4303J9205D01*
G03Y1566800I-55030J117795D01*
G02Y1585200I4299J9200D01*
G03X699150Y1794010I-55032J117795D01*
G01X699130Y1793990D01*
X673150Y1768020D01*
X116070D01*
X-155020Y1496930D01*
Y1242500D01*
G02X-172360Y1235320I-10158J3D01*
G01X-601980Y1664940D01*
X-601990Y1701880D01*
Y1701900D01*
G03X-787030Y1585210I-130009J1102D01*
G02Y1566800I-4303J-9205D01*
G03X-787040Y1331200I55029J-117802D01*
G02Y1312800I-4301J-9200D01*
G03Y1077200I55040J-117800D01*
G02Y1058800I-4301J-9200D01*
G03Y823200I55040J-117800D01*
G02Y804800I-4301J-9200D01*
G03Y569200I55040J-117800D01*
G02Y550800I-4301J-9200D01*
G03X-787030Y315200I55039J-117798D01*
G02Y296790I-4303J-9205D01*
G03X-862010Y177900I55029J-117794D01*
G01Y177880D01*
X-862020Y140940D01*
X-922020Y80930D01*
Y-2649460D01*
X-906240Y-2665240D01*
X-909080Y-2668790D01*
G03X-920020Y-2700000I39082J-31222D01*
G01Y-2820000D01*
G03X-870000Y-2870020I50025J5D01*
G01X-750000D01*
G03X-712600Y-2853210I-6J50023D01*
G02X-697410I7595J-6744D01*
G03X-697270Y-2853360I36629J34047D01*
G01X-665020Y-2889390D01*
Y-2900610D01*
X-697270Y-2936640D01*
G03X-697410Y-2936790I36489J-34197D01*
G02X-712600I-7595J6744D01*
G03X-750000Y-2919980I-37406J-33213D01*
G01X-870000D01*
G03X-920020Y-2970000I5J-50025D01*
G01Y-3048060D01*
X-942650Y-3070690D01*
G02X-959990Y-3063510I-7182J7183D01*
G01Y1919990D01*
X4800000D01*
Y-6149990D01*
X-959990D01*
G37*
G36*
G01X-575050Y-4081390D02*
X-642230Y-4014230D01*
X-723750Y-4092000D01*
X-642230Y-4169770D01*
X-575050Y-4102610D01*
G03Y-4081390I-10610J10610D01*
G37*
G36*
G01Y-3573390D02*
X-642230Y-3506230D01*
X-723750Y-3584000D01*
X-642230Y-3661770D01*
X-575050Y-3594610D01*
G03Y-3573390I-10610J10610D01*
G37*
G36*
G01X-815000Y-3948000D02*
X-720000Y-3947990D01*
X-717350Y-3835350D01*
X-829990Y-3838000D01*
X-830000Y-3933000D01*
G03X-815000Y-3948000I15000J0D01*
G37*
G36*
G01X-575050Y-3827390D02*
X-642230Y-3760230D01*
X-723750Y-3838000D01*
X-642230Y-3915770D01*
X-575050Y-3848610D01*
G03Y-3827390I-10610J10610D01*
G37*
G36*
G01X-558730Y-4026980D02*
X-605510Y-3980210D01*
X-605530Y-3980190D01*
G03X-643120Y-3951660I-114478J-111803D01*
G02X-644490Y-3934740I4878J8910D01*
G03Y-3741260I-75510J96740D01*
G02X-643120Y-3724340I6248J8010D01*
G03X-605530Y-3695810I-76888J140333D01*
G01X-605510Y-3695790D01*
X-558730Y-3649020D01*
X-434600D01*
X-354980Y-3569400D01*
Y-3568740D01*
X-335140Y-3548880D01*
X-324610Y-3540020D01*
X-298070D01*
X-204980Y-3446930D01*
Y-3256420D01*
X-200120Y-3251560D01*
X-200100Y-3251540D01*
G03X-366780Y-3205260I-69901J71540D01*
G02X-376610Y-3217980I-9829J-2563D01*
G01X-429070D01*
X-506000Y-3141060D01*
G02X-505770Y-3126460I7181J7189D01*
G03X-489990Y-3090000I-34237J36463D01*
G01Y-2970710D01*
X-489980Y-2970670D01*
G03X-502730Y-2936640I-50017J664D01*
G01X-534980Y-2900610D01*
Y-2889390D01*
X-502730Y-2853360D01*
G03X-489980Y-2819330I-37267J33366D01*
G01Y-2700000D01*
G03X-540000Y-2649980I-50025J-5D01*
G01X-660000D01*
G03X-697400Y-2666800I14J-50021D01*
G02X-712600I-7600J6747D01*
G03X-734590Y-2652420I-37409J-33203D01*
G01X-735730Y-2652050D01*
X-744980Y-2642940D01*
Y-2642600D01*
X-791980Y-2595600D01*
Y-1984030D01*
G02X-778210Y-1974530I10160J3D01*
G03Y-1731470I46210J121530D01*
G02X-791980Y-1721970I-3610J9497D01*
G01Y-1689010D01*
G02X-776900Y-1680120I10161J0D01*
G03Y-1517880I44900J81120D01*
G02X-791980Y-1508990I-4919J8890D01*
G01Y-1476030D01*
G02X-778210Y-1466530I10160J3D01*
G03X-676960Y-1227200I46223J121527D01*
G02Y-1208800I4301J9200D01*
G03X-602180Y-1083850I-55043J117794D01*
G02X-584850Y-1076100I10146J564D01*
G01X-485020Y-1175930D01*
Y-2471930D01*
X-235010Y-2721950D01*
X-235000Y-2758040D01*
Y-2758080D01*
G03X12790Y-2815030I129999J-1916D01*
G02X31200I9205J-4303D01*
G03X266800I117800J55030D01*
G02X285210I9205J-4303D01*
G03X520800I117795J55030D01*
G02X539200I9200J-4299D01*
G03X565990Y-2852850I117792J55040D01*
G01X566010Y-2852870D01*
X594980Y-2881850D01*
Y-2930610D01*
X562730Y-2966640D01*
G03X562590Y-2966790I36498J-34205D01*
G02X547400I-7595J6744D01*
G03X510000Y-2949980I-37406J-33213D01*
G01X390670D01*
G03X356640Y-2962730I-664J-50017D01*
G01X345000Y-2973150D01*
X333360Y-2962730D01*
G03X299330Y-2949980I-33366J-37267D01*
G01X180000D01*
G03X131910Y-2986270I9J-50021D01*
G01X130850Y-2989960D01*
X105000D01*
Y-2990310D01*
X98370D01*
X97090Y-2989450D01*
G03X90000Y-2987280I-7106J-10551D01*
G01X-30000D01*
G03X-42720Y-3000000I5J-12725D01*
G01Y-3100050D01*
G02X-53530Y-3110190I-10158J-3D01*
G03X-129900Y-3281540I-6470J-99810D01*
G01X-129880Y-3281560D01*
X-125020Y-3286420D01*
Y-3810070D01*
X-341930Y-4026980D01*
X-558730D01*
G37*
G36*
G01X-609000Y-2913020D02*
X-660000Y-2970000D01*
X-600000Y-3033750D01*
X-540000Y-2970000D01*
X-591000Y-2913020D01*
G03X-609000I-9000J-12000D01*
G37*
G36*
G01X-591000Y-2876980D02*
X-540000Y-2820000D01*
X-600000Y-2756250D01*
X-660000Y-2820000D01*
X-609000Y-2876980D01*
G03X-591000I9000J12000D01*
G37*
G36*
G01X-817620Y-2656610D02*
X-861690Y-2700020D01*
X-810000Y-2763750D01*
X-758310Y-2700020D01*
X-802380Y-2656610D01*
G03X-817620I-7620J-12920D01*
G37*
G36*
G01X-652000Y-1664000D02*
X-652010Y-1599000D01*
X-734650Y-1596350D01*
X-732000Y-1678990D01*
X-667000Y-1679000D01*
G03X-652000Y-1664000I0J15000D01*
G37*
G36*
G01Y-648000D02*
X-652010Y-583000D01*
X-734650Y-580350D01*
X-732000Y-662990D01*
X-667000Y-663000D01*
G03X-652000Y-648000I0J15000D01*
G37*
G36*
G01Y-901990D02*
X-652010Y-837000D01*
X-734650Y-834350D01*
X-732000Y-916980D01*
X-667000Y-916990D01*
G03X-652000Y-901990I0J15000D01*
G37*
G36*
G01X-629470Y-318390D02*
X-675440Y-272440D01*
X-735750Y-329000D01*
X-675440Y-385560D01*
X-629470Y-339610D01*
G03Y-318390I-10610J10610D01*
G37*
G36*
G01X-797000Y99010D02*
X-732000Y99020D01*
X-729350Y181650D01*
X-811990Y179000D01*
X-812000Y114010D01*
G03X-797000Y99010I15000J0D01*
G37*
G36*
G01X-652000Y1638000D02*
X-652010Y1703000D01*
X-734650Y1705650D01*
X-732000Y1623010D01*
X-667000Y1623000D01*
G03X-652000Y1638000I0J15000D01*
G37*
G36*
G01X-324390Y-5115910D02*
X-391200Y-5188800D01*
X-315000Y-5268750D01*
X-238800Y-5188800D01*
X-305610Y-5115910D01*
G03X-324390I-9390J-11700D01*
G37*
G36*
G01X95610D02*
X28800Y-5188800D01*
X105000Y-5268750D01*
X181200Y-5188800D01*
X114390Y-5115910D01*
G03X95610I-9390J-11700D01*
G37*
G36*
G01X-150000Y-4847280D02*
Y-4260000D01*
X90000Y-4020000D01*
X240000D01*
X270000Y-3990000D01*
Y-3852720D01*
X390000D01*
G03X402720Y-3840000I-5J12725D01*
G01Y-3720000D01*
G03X390000Y-3707280I-12725J-5D01*
G01X324980D01*
G02X321390Y-3698610I0J5078D01*
G01X330000Y-3690000D01*
X630000D01*
X810000Y-3870000D01*
Y-4320000D01*
X330000Y-4800000D01*
X0D01*
X-47280Y-4847280D01*
X-150000D01*
G37*
G36*
G01X211830Y-4913700D02*
X179980Y-4880560D01*
X116250Y-4920000D01*
X179980Y-4959440D01*
X211830Y-4926300D01*
G03Y-4913700I-13610J6300D01*
G37*
G36*
G01X114370Y-5051690D02*
X180000Y-4980000D01*
X120470Y-4916280D01*
X60000Y-4980000D01*
X93000Y-5048980D01*
G03X114370Y-5051690I11998J9001D01*
G37*
G36*
G01X138110Y-4930610D02*
X162870Y-4955350D01*
X201970Y-4920000D01*
X162870Y-4884650D01*
X138110Y-4909390D01*
G03Y-4930610I10610J-10610D01*
G37*
G36*
G01X-368040Y-4102610D02*
X-325610Y-4145040D01*
X-315000Y-4092000D01*
X-357430D01*
X-368040Y-4102610D01*
G37*
G36*
G01X-9900Y-3823560D02*
X60000Y-3840000D01*
X123640Y-3779110D01*
X60020Y-3725280D01*
X-15490Y-3801000D01*
G03X-9900Y-3823560I12000J-8999D01*
G37*
G36*
G01X847640Y-3836900D02*
X650720Y-3639980D01*
X309280D01*
X279280Y-3669980D01*
X270000D01*
G03X232600Y-3686800I14J-50021D01*
G02X217400I-7600J6747D01*
G03X180000Y-3669980I-37414J-33201D01*
G01X165500D01*
G02X158320Y-3652640I5J10159D01*
G01X169940Y-3641020D01*
X202000D01*
G03X251880Y-3594720I-1J50019D01*
G01X252230Y-3590020D01*
X264700D01*
X265630Y-3593930D01*
G03X278000Y-3603720I12376J2927D01*
G01X352000D01*
G03X364720Y-3591000I0J12720D01*
G01Y-3489000D01*
G03X352000Y-3476280I-12720J0D01*
G01X278000D01*
G03X265630Y-3486070I6J-12717D01*
G01X264700Y-3489980D01*
X252230D01*
X251880Y-3485280D01*
G03X202000Y-3438980I-49881J-3719D01*
G01X128000D01*
G03X77980Y-3489000I0J-50020D01*
G01Y-3549070D01*
X22360Y-3604690D01*
G02X5020Y-3597510I-7182J7183D01*
G01Y-3286420D01*
X9880Y-3281560D01*
X9900Y-3281540D01*
G03X19310Y-3149060I-69900J71539D01*
G02X27370Y-3132720I8061J6182D01*
G01X90000D01*
G03X97090Y-3130550I-16J12721D01*
G01X98370Y-3129690D01*
X105000D01*
Y-3130040D01*
X130850D01*
X131910Y-3133730D01*
G03X180000Y-3170020I48099J13731D01*
G01X299330D01*
G03X333360Y-3157270I664J50017D01*
G01X345000Y-3146850D01*
X356640Y-3157270D01*
G03X390670Y-3170020I33366J37267D01*
G01X510000D01*
G03X547400Y-3153200I-14J50021D01*
G02X562600I7600J-6747D01*
G03X600000Y-3170020I37414J33201D01*
G01X720000D01*
G03X770020Y-3120000I-5J50025D01*
G01Y-3000670D01*
G03X757270Y-2966640I-50017J664D01*
G01X725020Y-2930610D01*
Y-2879390D01*
X750620Y-2850220D01*
X750700Y-2850130D01*
G03X539200Y-2704970I-93704J90131D01*
G02X520800I-9200J4299D01*
G03X458030Y-2642200I-117800J-55030D01*
G02Y-2623800I4299J9200D01*
G03X494010Y-2413150I-55029J117797D01*
G01X493990Y-2413130D01*
X468020Y-2387150D01*
Y-1964500D01*
G02X485360Y-1957320I10158J-3D01*
G01X864980Y-2336930D01*
Y-3829710D01*
G02X847640Y-3836900I-10159J-3D01*
G37*
G36*
G01X-49390Y-3270110D02*
X-24650Y-3245350D01*
X-60000Y-3206250D01*
X-95350Y-3245350D01*
X-70610Y-3270110D01*
G03X-49390I10610J10610D01*
G37*
G36*
G01X-259390Y-3240110D02*
X-234650Y-3215350D01*
X-270000Y-3176250D01*
X-305350Y-3215350D01*
X-280610Y-3240110D01*
G03X-259390I10610J10610D01*
G37*
G36*
G01X-412310Y-3555350D02*
X-369000Y-3512000D01*
X-420000Y-3471250D01*
X-471000Y-3512000D01*
X-427690Y-3555350D01*
G03X-412310I7690J12880D01*
G37*
G36*
G01X-334120Y-3467340D02*
X-369000Y-3438000D01*
X-423750Y-3475000D01*
X-369000Y-3512000D01*
X-334120Y-3482660D01*
G03Y-3467340I-12890J7660D01*
G37*
G36*
G01X356980Y-3051000D02*
X300000Y-3000000D01*
X236250Y-3060000D01*
X300000Y-3120000D01*
X356980Y-3069000D01*
G03Y-3051000I-12000J9000D01*
G37*
G36*
G01X-184990Y-2695000D02*
X-184980Y-2760000D01*
X-102350Y-2762650D01*
X-105000Y-2680010D01*
X-169990Y-2680000D01*
G03X-184990Y-2695000I0J-15000D01*
G37*
G36*
G01X-40610Y-569890D02*
X-65350Y-594650D01*
X-30000Y-633750D01*
X5350Y-594650D01*
X-19390Y-569890D01*
G03X-40610I-10610J-10610D01*
G37*
G36*
G01X-145000Y-580000D02*
X-180000D01*
X-182650Y-632650D01*
X-130000Y-630000D01*
Y-595000D01*
G03X-145000Y-580000I-15000J0D01*
G37*
G36*
G01X35020Y-178500D02*
Y1143070D01*
X275930Y1383980D01*
X673150D01*
X699130Y1358010D01*
X699150Y1357990D01*
G03X736970Y1331210I92840J91018D01*
G02Y1312800I-4303J-9205D01*
G03X736960Y1077200I55029J-117802D01*
G02Y1058800I-4301J-9200D01*
G03X736970Y823200I55039J-117798D01*
G02Y804790I-4303J-9205D01*
G03X699150Y778010I55020J-117798D01*
G01X699130Y777990D01*
X673150Y752020D01*
X390070D01*
X249860Y611820D01*
G02X232520Y619000I-7182J7183D01*
G01Y908150D01*
G02X243750Y918260I10161J5D01*
G03X249670Y917980I5319J49737D01*
G01X351000D01*
G03X401020Y968000I0J50020D01*
G01Y1042000D01*
G03X354720Y1091880I-50019J-1D01*
G02X350020Y1096940I379J5065D01*
G01Y1104700D01*
X353930Y1105630D01*
G03X363720Y1118000I-2927J12376D01*
G01Y1192000D01*
G03X351000Y1204720I-12720J0D01*
G01X249000D01*
G03X236280Y1192000I0J-12720D01*
G01Y1118000D01*
G03X246070Y1105630I12717J6D01*
G01X249980Y1104700D01*
Y1096950D01*
G02X245280Y1091880I-5080J-4D01*
G03X216800Y1080280I3715J-49882D01*
G01X204610Y1070020D01*
X191590D01*
X102480Y980910D01*
Y45100D01*
X170100Y-22520D01*
X182380D01*
G02X190000Y-39400I2J-10159D01*
G03X177480Y-72500I37494J-33100D01*
G01Y-102500D01*
G03X180650Y-120000I50021J24D01*
G03X177480Y-137500I46851J-17524D01*
G01Y-152480D01*
X85570D01*
X52360Y-185680D01*
G02X35020Y-178500I-7182J7183D01*
G37*
G36*
G01X214120Y997340D02*
X249000Y968000D01*
X303750Y1005000D01*
X249000Y1042000D01*
X214120Y1012660D01*
G03Y997340I12890J-7660D01*
G37*
G36*
G01X-335000Y700000D02*
X-300000D01*
X-297350Y752650D01*
X-350000Y750000D01*
Y715000D01*
G03X-335000Y700000I15000J0D01*
G37*
G36*
G01X-273250Y383310D02*
X-261010Y420570D01*
X-300740Y453680D01*
X-335350Y414650D01*
X-298110Y377390D01*
G03X-273250Y383310I10609J10608D01*
G37*
G36*
G01X214120Y1147340D02*
X249000Y1118000D01*
X303750Y1155000D01*
X249000Y1192000D01*
X214120Y1162660D01*
G03Y1147340I12890J-7660D01*
G37*
G36*
G01X339000Y-3896980D02*
X390000Y-3840000D01*
X330000Y-3776250D01*
X270000Y-3840000D01*
X321000Y-3896980D01*
G03X339000I9000J12000D01*
G37*
G36*
G01X671270Y-2864810D02*
X714230Y-2815850D01*
X656880Y-2756250D01*
X600440Y-2816560D01*
X649390Y-2865530D01*
G03X671270Y-2864810I10603J10610D01*
G37*
G36*
G01X651000Y-2943020D02*
X600000Y-3000000D01*
X660000Y-3063750D01*
X720000Y-3000000D01*
X669000Y-2943020D01*
G03X651000I-9000J-12000D01*
G37*
G36*
G01X333020Y-3069000D02*
X390000Y-3120000D01*
X453750Y-3060000D01*
X390000Y-3000000D01*
X333020Y-3051000D01*
G03Y-3069000I12000J-9000D01*
G37*
G36*
G01X983040Y-2509390D02*
X940610Y-2466960D01*
X926250Y-2505000D01*
Y-2535000D01*
X940610Y-2573040D01*
X983040Y-2530610D01*
G03Y-2509390I-10610J10610D01*
G37*
G36*
G01X392390Y-2403470D02*
X346440Y-2449440D01*
X403000Y-2509750D01*
X459560Y-2449440D01*
X413610Y-2403470D01*
G03X392390I-10610J-10610D01*
G37*
G36*
G01X323010Y-2695000D02*
X323020Y-2760000D01*
X405650Y-2762650D01*
X403000Y-2680010D01*
X338010Y-2680000D01*
G03X323010Y-2695000I0J-15000D01*
G37*
G36*
G01X689470Y-847610D02*
X735440Y-893560D01*
X795750Y-837000D01*
X735440Y-780440D01*
X689470Y-826390D01*
G03Y-847610I10610J-10610D01*
G37*
G36*
G01Y-593610D02*
X735440Y-639560D01*
X795750Y-583000D01*
X735440Y-526440D01*
X689470Y-572390D01*
G03Y-593610I10610J-10610D01*
G37*
G36*
G01X675700Y-361300D02*
X740170Y-388750D01*
X795700Y-328380D01*
X735440Y-272440D01*
X670970Y-336890D01*
G03X675700Y-361300I10608J-10608D01*
G37*
G36*
G01X727000Y-154990D02*
X792000Y-154980D01*
X794650Y-72350D01*
X712010Y-75000D01*
X712000Y-139990D01*
G03X727000Y-154990I15000J0D01*
G37*
G36*
G01Y99000D02*
X792000Y99010D01*
X794650Y181650D01*
X712010Y179000D01*
X712000Y114000D01*
G03X727000Y99000I15000J0D01*
G37*
G36*
G01Y353000D02*
X792000Y353010D01*
X794650Y435650D01*
X712010Y433000D01*
X712000Y368000D01*
G03X727000Y353000I15000J0D01*
G37*
G36*
G01X689470Y676390D02*
X735440Y630440D01*
X795750Y687000D01*
X735440Y743560D01*
X689470Y697610D01*
G03Y676390I10610J-10610D01*
G37*
G36*
G01Y1438390D02*
X735440Y1392440D01*
X795750Y1449000D01*
X735440Y1505560D01*
X689470Y1459610D01*
G03Y1438390I10610J-10610D01*
G37*
G36*
G01Y1692390D02*
X735440Y1646440D01*
X795750Y1703000D01*
X735440Y1759560D01*
X689470Y1713610D01*
G03Y1692390I10610J-10610D01*
G37*
G36*
G01X385880Y1162660D02*
X351000Y1192000D01*
X296250Y1155000D01*
X351000Y1118000D01*
X385880Y1147340D01*
G03Y1162660I-12890J7660D01*
G37*
G36*
G01X2139000Y993020D02*
X2190000Y1050000D01*
X2130000Y1113750D01*
X2070000Y1050000D01*
X2121000Y993020D01*
G03X2139000I9000J12000D01*
G37*
G36*
G01X2242960Y1710000D02*
X2174000D01*
X2095670Y1633270D01*
X2176770Y1622610D01*
X2253570Y1699390D01*
X2242960Y1710000D01*
G37*
G36*
G01X2209000Y1540000D02*
X2208990Y1635000D01*
X2096350Y1637650D01*
X2099000Y1525010D01*
X2194000Y1525000D01*
G03X2209000Y1540000I0J15000D01*
G37*
G36*
G01X2343020Y1701000D02*
X2400000Y1650000D01*
X2463750Y1710000D01*
X2400000Y1770000D01*
X2343020Y1719000D01*
G03Y1701000I12000J-9000D01*
G37*
G36*
G01X2549520Y1574990D02*
X2400000Y1559990D01*
X2456880Y1497910D01*
X2520000Y1440000D01*
X2564090Y1556410D01*
G03X2549520Y1574990I-14570J3577D01*
G37*
G36*
G01X1852620Y1481610D02*
X1896690Y1525020D01*
X1845000Y1638750D01*
X1793310Y1525020D01*
X1837380Y1481610D01*
G03X1852620I7620J12920D01*
G37*
G36*
G01X2845000Y-860000D02*
X2880000D01*
X2882650Y-807350D01*
X2830000Y-810000D01*
Y-845000D01*
G03X2845000Y-860000I15000J0D01*
G37*
G36*
G01X2530000Y-85000D02*
Y-120000D01*
X2582650Y-122650D01*
X2580000Y-70000D01*
X2545000D01*
G03X2530000Y-85000I0J-15000D01*
G37*
G36*
G01X2686610Y1702380D02*
X2730020Y1658310D01*
X2793750Y1710000D01*
X2730020Y1761690D01*
X2686610Y1717620D01*
G03Y1702380I12920J-7620D01*
G37*
G36*
G01X2799000Y1383020D02*
X2850000Y1440000D01*
X2790000Y1503750D01*
X2730000Y1440000D01*
X2781000Y1383020D01*
G03X2799000I9000J12000D01*
G37*
%LPC*%
G75*
G36*
G01X4439280Y1005000D02*
Y1165000D01*
G02X4452000Y1177720I12725J-5D01*
G01X4612000D01*
G02X4624720Y1165000I-5J-12725D01*
G01Y1005000D01*
G02X4612000Y992280I-12725J5D01*
G01X4452000D01*
G02X4439280Y1005000I5J12725D01*
G37*
G36*
G01X-403920Y-6121200D02*
Y-5968800D01*
G02X-391200Y-5956080I12720J0D01*
G01X-238800D01*
G02X-226080Y-5968800I0J-12720D01*
G01Y-6121200D01*
G02X-238800Y-6133920I-12720J0D01*
G01X-391200D01*
G02X-403920Y-6121200I0J12720D01*
G37*
G36*
G01X16080D02*
Y-5968800D01*
G02X28800Y-5956080I12720J0D01*
G01X181200D01*
G02X193920Y-5968800I0J-12720D01*
G01Y-6121200D01*
G02X181200Y-6133920I-12720J0D01*
G01X28800D01*
G02X16080Y-6121200I0J12720D01*
G37*
G36*
G01X-838920D02*
Y-5968800D01*
G02X-826200Y-5956080I12720J0D01*
G01X-673800D01*
G02X-661080Y-5968800I0J-12720D01*
G01Y-6121200D01*
G02X-673800Y-6133920I-12720J0D01*
G01X-826200D01*
G02X-838920Y-6121200I0J12720D01*
G37*
G36*
G01X-739960Y-4819800D02*
G03Y-4838200I4301J-9200D01*
G02X-850040I-55040J-117800D01*
G03Y-4819800I-4301J9200D01*
G02X-856730Y-4587570I55039J117797D01*
G01X-854060Y-4586130D01*
Y-4578020D01*
X-875000D01*
G02X-925020Y-4528000I5J50025D01*
G01Y-4368000D01*
G02X-875000Y-4317980I50025J-5D01*
G01X-715000D01*
G02X-664980Y-4368000I-5J-50025D01*
G01Y-4528000D01*
G02X-715000Y-4578020I-50025J5D01*
G01X-735940D01*
Y-4586130D01*
X-733270Y-4587570D01*
G02X-739960Y-4819800I-61729J-114433D01*
G37*
G36*
G01X3385020Y-5945000D02*
G02X3335000Y-5995020I-50025J5D01*
G01X3115000D01*
G02X3064980Y-5945000I5J50025D01*
G01Y-5725000D01*
G02X3115000Y-5674980I50025J-5D01*
G01X3293060D01*
X3373070Y-5594980D01*
X3661930D01*
X3741940Y-5674980D01*
X3920000D01*
G02X3970020Y-5725000I-5J-50025D01*
G01Y-5731900D01*
G03X3986580Y-5739780I10157J5D01*
G02Y-5930220I77420J-95220D01*
G03X3970020Y-5938100I-6403J-7885D01*
G01Y-5945000D01*
G02X3920000Y-5995020I-50025J5D01*
G01X3700000D01*
G02X3649980Y-5945000I5J50025D01*
G01Y-5766940D01*
X3608070Y-5725020D01*
X3566710D01*
G03X3560000Y-5742810I-1J-10160D01*
G02X3401580Y-5930220I-80993J-92198D01*
G03X3385020Y-5938100I-6403J-7885D01*
G01Y-5945000D01*
G37*
G36*
G01X600010Y-5978880D02*
Y-5978900D01*
G02X339990I-130010J-1100D01*
G01Y-5978880D01*
X339980Y-5941940D01*
X326860Y-5928810D01*
Y-5431190D01*
X1044980Y-4713070D01*
Y-4456420D01*
X1040120Y-4451560D01*
X1040100Y-4451540D01*
G02X1210020Y-4380000I69900J71540D01*
G01Y-4388070D01*
X1222640Y-4400680D01*
G03X1239980Y-4393500I7182J7183D01*
G01Y-3819280D01*
X1389280Y-3669980D01*
X1794880D01*
Y-3620670D01*
X1790550Y-3620020D01*
G02X1779700Y-3607440I1868J12580D01*
G01Y-3512440D01*
G02X1792420Y-3499720I12720J0D01*
G01X2007440D01*
G02X2020160Y-3512440I0J-12720D01*
G01Y-3607440D01*
G02X2009300Y-3620020I-12716J0D01*
G01X2004970Y-3620670D01*
Y-3674230D01*
X2027240Y-3696500D01*
X2028080Y-3696880D01*
G02X2053000Y-3721800I-20642J-45562D01*
G01X2053380Y-3722640D01*
X2056280Y-3725540D01*
G03X2064950Y-3721950I3590J3593D01*
G01Y-3499910D01*
X2325050D01*
Y-3590280D01*
G03X2343190Y-3596560I10158J3D01*
G02X2382500Y-3577480I39304J-30943D01*
G01X2597500D01*
G02X2647520Y-3627500I0J-50020D01*
G01Y-3952500D01*
G02X2597500Y-4002520I-50020J0D01*
G01X2382500D01*
G02X2343190Y-3983440I-6J50023D01*
G03X2325050Y-3989720I-7982J-6283D01*
G01Y-4080100D01*
X2064950D01*
Y-4079290D01*
X2056170D01*
X2055040Y-4082810D01*
G02X2007440Y-4117460I-47601J15372D01*
G01X1972110D01*
X1964950Y-4124510D01*
Y-4124850D01*
X1434780Y-4655020D01*
X1293070D01*
X1192360Y-4554320D01*
G03X1175020Y-4561500I-7182J-7183D01*
G01Y-4766930D01*
X456900Y-5485050D01*
Y-5849980D01*
X470000D01*
G02X470900Y-5849990I-106J-50019D01*
G01X471120D01*
X508060Y-5849980D01*
X730730Y-5627310D01*
G03X723290Y-5609970I-7183J7184D01*
G02X721100Y-5349990I-3290J129972D01*
G01X721120D01*
X758060Y-5349980D01*
X1253070Y-4854980D01*
X3633070D01*
X3714980Y-4773070D01*
Y315060D01*
X4041940Y642020D01*
X4413150D01*
X4439130Y667990D01*
X4439150Y668010D01*
G02X4476970Y694790I92840J-91018D01*
G03Y713200I-4303J9205D01*
G02X4587030I55030J117800D01*
G03Y694790I4303J-9205D01*
G02Y459210I-55030J-117790D01*
G03Y440800I4303J-9205D01*
G02X4587040Y205200I-55029J-117802D01*
G03Y186800I4301J-9200D01*
G02Y-48800I-55040J-117800D01*
G03Y-67200I4301J-9200D01*
G02Y-302800I-55040J-117800D01*
G03Y-321200I4301J-9200D01*
G02Y-556800I-55040J-117800D01*
G03Y-575200I4301J-9200D01*
G02Y-810800I-55040J-117800D01*
G03Y-829200I4301J-9200D01*
G02Y-1064800I-55040J-117800D01*
G03Y-1083200I4301J-9200D01*
G02Y-1318800I-55040J-117800D01*
G03Y-1337200I4301J-9200D01*
G02Y-1572800I-55040J-117800D01*
G03Y-1591200I4301J-9200D01*
G02Y-1826800I-55040J-117800D01*
G03Y-1845200I4301J-9200D01*
G02Y-2080800I-55040J-117800D01*
G03Y-2099200I4301J-9200D01*
G02X4587030Y-2334800I-55039J-117798D01*
G03Y-2353210I4303J-9205D01*
G02X4419000Y-2535310I-55032J-117793D01*
G03X4400020Y-2540340I-8823J-5031D01*
G01Y-2550000D01*
G02X4350000Y-2600020I-50025J5D01*
G01X4230000D01*
G02X4192600Y-2583200I14J50021D01*
G03X4177400I-7600J-6747D01*
G02X4140000Y-2600020I-37414J33201D01*
G01X4061940D01*
X3995020Y-2666930D01*
Y-5036930D01*
X3866930Y-5165020D01*
X3236930D01*
X2691080Y-5710870D01*
G03X2699470Y-5728140I7185J-7183D01*
G02X2636580Y-5945220I14528J-121859D01*
G03X2620020Y-5953100I-6403J-7885D01*
G01Y-5960000D01*
G02X2570000Y-6010020I-50025J5D01*
G01X2350000D01*
G02X2299980Y-5960000I5J50025D01*
G01Y-5781940D01*
X2133070Y-5615020D01*
X1914370D01*
X1910020Y-5619370D01*
Y-5649730D01*
X1950390Y-5689980D01*
X1955000D01*
G02X2005020Y-5740000I-5J-50025D01*
G01Y-5746900D01*
G03X2021580Y-5754780I10157J5D01*
G02Y-5945220I77420J-95220D01*
G03X2005020Y-5953100I-6403J-7885D01*
G01Y-5960000D01*
G02X1955000Y-6010020I-50025J5D01*
G01X1735000D01*
G02X1684980Y-5960000I5J50025D01*
G01Y-5740000D01*
G02X1735000Y-5689980I50025J-5D01*
G01X1739610D01*
X1779980Y-5649730D01*
Y-5619370D01*
X1775630Y-5615020D01*
X926930D01*
X600020Y-5941940D01*
X600010Y-5978880D01*
G37*
G36*
G01X564280Y-2586000D02*
Y-2426000D01*
G02X577000Y-2413280I12725J-5D01*
G01X737000D01*
G02X749720Y-2426000I-5J-12725D01*
G01Y-2586000D01*
G02X737000Y-2598720I-12725J5D01*
G01X577000D01*
G02X564280Y-2586000I5J12725D01*
G37*
G54D25*
X1435000Y-5865000D03*
Y1635000D03*
X4535000Y-5865000D03*
Y1635000D03*
G54D24*
X970000Y-5980000D03*
X4532000Y-2725000D03*
%LPD*%
G75*
G36*
G01X-600910Y-6035610D02*
X-673800Y-5968800D01*
X-753750Y-6045000D01*
X-673800Y-6121200D01*
X-600910Y-6054390D01*
G03Y-6035610I-11700J9390D01*
G37*
G36*
G01X-44090Y-6054390D02*
X28800Y-6121200D01*
X108750Y-6045000D01*
X28800Y-5968800D01*
X-44090Y-6035610D01*
G03Y-6054390I11700J-9390D01*
G37*
G36*
G01X-165910Y-6035610D02*
X-238800Y-5968800D01*
X-318750Y-6045000D01*
X-238800Y-6121200D01*
X-165910Y-6054390D01*
G03Y-6035610I-11700J9390D01*
G37*
G36*
G01X-464090Y-6054390D02*
X-391200Y-6121200D01*
X-311250Y-6045000D01*
X-391200Y-5968800D01*
X-464090Y-6035610D01*
G03Y-6054390I11700J-9390D01*
G37*
G36*
G01X905000Y-6060000D02*
X970000Y-6059990D01*
X972650Y-5977350D01*
X890010Y-5980000D01*
X890000Y-6045000D01*
G03X905000Y-6060000I15000J0D01*
G37*
G36*
G01X1050000Y-6045000D02*
X1049990Y-5980000D01*
X967350Y-5977350D01*
X970000Y-6059990D01*
X1035000Y-6060000D01*
G03X1050000Y-6045000I0J15000D01*
G37*
G36*
G01X390000Y-5915000D02*
X390010Y-5980000D01*
X472650Y-5982650D01*
X470000Y-5900010D01*
X405000Y-5900000D01*
G03X390000Y-5915000I0J-15000D01*
G37*
G36*
G01X535000Y-5900000D02*
X470000Y-5900010D01*
X467350Y-5982650D01*
X549990Y-5980000D01*
X550000Y-5915000D01*
G03X535000Y-5900000I-15000J0D01*
G37*
G36*
G01X785000Y-5400000D02*
X720000Y-5400010D01*
X717350Y-5482650D01*
X799990Y-5480000D01*
X800000Y-5415000D01*
G03X785000Y-5400000I-15000J0D01*
G37*
G36*
G01X689890Y-4210610D02*
X714650Y-4235350D01*
X753750Y-4200000D01*
X714650Y-4164650D01*
X689890Y-4189390D01*
G03Y-4210610I10610J-10610D01*
G37*
G36*
G01X1836000Y-5664500D02*
X1760280Y-5740020D01*
X1845000Y-5853750D01*
X1929720Y-5740020D01*
X1854000Y-5664500D01*
G03X1836000I-9000J-12000D01*
G37*
G36*
G01X1120610Y-4440110D02*
X1145350Y-4415350D01*
X1110000Y-4376250D01*
X1074650Y-4415350D01*
X1099390Y-4440110D01*
G03X1120610I10610J10610D01*
G37*
G36*
G01X1160000Y-4415000D02*
Y-4380000D01*
X1107350Y-4377350D01*
X1110000Y-4430000D01*
X1145000D01*
G03X1160000Y-4415000I0J15000D01*
G37*
G36*
G01X1321950Y-4500000D02*
X1290000Y-4468050D01*
Y-3840000D01*
X1410000Y-3720000D01*
X1773120D01*
G02X1781690Y-3735610I-2J-10158D01*
G03X1779700Y-3742440I10726J-6830D01*
G01Y-3840000D01*
X1650000D01*
X1530000Y-3960000D01*
Y-4375900D01*
X1405900Y-4500000D01*
X1321950D01*
G37*
G36*
G01X1747560Y-3798410D02*
X1792420Y-3837440D01*
X1903680Y-3789940D01*
X1792420Y-3742440D01*
X1747560Y-3781470D01*
G03Y-3798410I12380J-8470D01*
G37*
G36*
G01X2109610Y-5994950D02*
X2176770Y-5927770D01*
X2099000Y-5846250D01*
X2021230Y-5927770D01*
X2088390Y-5994950D01*
G03X2109610I10610J10610D01*
G37*
G36*
G01X1855610Y-5603040D02*
X1898040Y-5560610D01*
X1860000Y-5546250D01*
X1830000D01*
X1791960Y-5560610D01*
X1834390Y-5603040D01*
G03X1855610I10610J10610D01*
G37*
G36*
G01X1907550Y-4110840D02*
X1951620Y-4067430D01*
X1899930Y-4016190D01*
X1848240Y-4067430D01*
X1892310Y-4110840D01*
G03X1907550I7620J12920D01*
G37*
G36*
G01X2724610Y-5994950D02*
X2791770Y-5927770D01*
X2714000Y-5846250D01*
X2636230Y-5927770D01*
X2703390Y-5994950D01*
G03X2724610I10610J10610D01*
G37*
G36*
G01X4074610Y-5979950D02*
X4141770Y-5912770D01*
X4064000Y-5831250D01*
X3986230Y-5912770D01*
X4053390Y-5979950D01*
G03X4074610I10610J10610D01*
G37*
G36*
G01X3489610D02*
X3556770Y-5912770D01*
X3479000Y-5831250D01*
X3401230Y-5912770D01*
X3468390Y-5979950D01*
G03X3489610I10610J10610D01*
G37*
G36*
G01X4053390Y-5690050D02*
X3986230Y-5757230D01*
X4064000Y-5838750D01*
X4141770Y-5757230D01*
X4074610Y-5690050D01*
G03X4053390I-10610J-10610D01*
G37*
G36*
G01X4071000Y-2373020D02*
X4020000Y-2430000D01*
X4080000Y-2493750D01*
X4140000Y-2430000D01*
X4089000Y-2373020D01*
G03X4071000I-9000J-12000D01*
G37*
G36*
G01X4090610Y389890D02*
X4115350Y414650D01*
X4080000Y453750D01*
X4044650Y414650D01*
X4069390Y389890D01*
G03X4090610I10610J10610D01*
G37*
G36*
G01X4452000Y-2406000D02*
X4452010Y-2471000D01*
X4534650Y-2473650D01*
X4532000Y-2391010D01*
X4467000Y-2391000D01*
G03X4452000Y-2406000I0J-15000D01*
G37*
G36*
G01X4467000Y-2805000D02*
X4532000Y-2804990D01*
X4534650Y-2722350D01*
X4452010Y-2725000D01*
X4452000Y-2790000D01*
G03X4467000Y-2805000I15000J0D01*
G37*
G36*
G01X4429470Y566390D02*
X4475440Y520440D01*
X4535750Y577000D01*
X4475440Y633560D01*
X4429470Y587610D01*
G03Y566390I10610J-10610D01*
G37*
G36*
G01X4376750Y1075670D02*
X4452000Y1005000D01*
X4535750Y1085000D01*
X4452000Y1165000D01*
X4376750Y1094330D01*
G03Y1075670I11750J-9330D01*
G37*
G36*
G01X1399390Y-4379890D02*
X1374650Y-4404650D01*
X1410000Y-4443750D01*
X1445350Y-4404650D01*
X1420610Y-4379890D01*
G03X1399390I-10610J-10610D01*
G37*
G54D10*
X-750000Y-6045000D03*
Y-5265000D03*
X-315000Y-6045000D03*
X105000D03*
X-315000Y-5265000D03*
X105000D03*
G54D11*
X-795000Y-4956000D03*
Y-4702000D03*
X-732000Y-1853000D03*
Y-1599000D03*
Y-1345000D03*
Y-1091000D03*
Y-837000D03*
Y-583000D03*
Y-329000D03*
Y-75000D03*
Y179000D03*
Y433000D03*
Y687000D03*
Y941000D03*
Y1195000D03*
Y1449000D03*
Y1703000D03*
X149000Y-2760000D03*
X-105000D03*
Y-2506000D03*
X149000D03*
X970000Y-5980000D03*
X470000D03*
X720000Y-5480000D03*
X657000Y-2760000D03*
X403000D03*
Y-2506000D03*
X792000Y-1345000D03*
Y-1599000D03*
Y-583000D03*
Y-837000D03*
Y-1091000D03*
Y179000D03*
Y-75000D03*
Y-329000D03*
Y941000D03*
Y687000D03*
Y433000D03*
Y1703000D03*
Y1449000D03*
Y1195000D03*
X4532000Y-2725000D03*
Y-2471000D03*
Y-2217000D03*
Y-1963000D03*
Y-1709000D03*
Y-1455000D03*
Y-1201000D03*
Y-947000D03*
Y-693000D03*
Y-439000D03*
Y-185000D03*
Y69000D03*
Y323000D03*
Y577000D03*
Y831000D03*
G54D20*
X1435000Y-5865000D03*
Y1635000D03*
X4535000Y-5865000D03*
Y1635000D03*
G54D12*
X-795000Y-4448000D03*
X657000Y-2506000D03*
X792000Y-1853000D03*
X4532000Y1085000D03*
G54D21*
X2490000Y-3790000D03*
G54D13*
X-720000Y-4092000D03*
Y-3838000D03*
Y-3584000D03*
X2099000Y-5850000D03*
Y1635000D03*
X2714000Y-5850000D03*
X3479000Y-5835000D03*
X4064000D03*
G54D22*
X1899930Y-4019940D03*
Y-3789940D03*
Y-3559940D03*
G54D23*
G01X-750000Y-6045000D02*
X-315000D01*
G01X-920000Y-5875000D02*
X-750000Y-6045000D01*
G01X-920000Y-4038000D02*
Y-5875000D01*
G01X-750000Y-6045000D02*
Y-5951000D01*
G01X-844000Y-6045000D02*
X-750000D01*
G01Y-5265000D02*
X-585000Y-5430000D01*
X170000D01*
X450000Y-5150000D01*
Y-4950000D01*
X930000Y-4470000D01*
Y-2520000D01*
G01X-315000Y-4092000D02*
X-720000D01*
G01Y-3584000D02*
X-461530D01*
X-420000Y-3542470D01*
Y-3475000D01*
G01X-720000Y-3838000D02*
X-920000Y-4038000D01*
G01X-242000Y-3838000D02*
X-720000D01*
G01X-600000Y-3030000D02*
Y-2760000D01*
G01X-720000Y-3330000D02*
X-900480Y-3149520D01*
Y-3120480D01*
X-810000Y-3030000D01*
G01X-420000Y-3305000D02*
X-434010D01*
X-549490Y-3189520D01*
X-579520D01*
X-720000Y-3330000D01*
G01X-732000Y179000D02*
X-857000Y54000D01*
Y-2622530D01*
X-810000Y-2669530D01*
Y-2760000D01*
G01X-480000Y-2635000D02*
Y-1851000D01*
X-732000Y-1599000D01*
G01Y-1696800D02*
Y-1599000D01*
G01D02*
Y-1501200D01*
G01Y-1599000D02*
X-634200D01*
G01X-732000Y-583000D02*
X-510000Y-805000D01*
Y-900000D01*
X278000Y-1688000D01*
Y-2635000D01*
X403000Y-2760000D01*
G01X-732000Y-837000D02*
X-420000Y-1149000D01*
Y-2445000D01*
X-105000Y-2760000D01*
G01X-287500Y42500D02*
X-437500D01*
X-480000Y0D01*
Y-270000D01*
X-539000Y-329000D01*
G01D02*
X-732000D01*
G01X403000Y-2506000D02*
Y-1693000D01*
X-462700Y-827300D01*
Y-407300D01*
X-539000Y-331000D01*
Y-329000D01*
G01X-732000Y1703000D02*
X-180000Y1151000D01*
Y-70470D01*
X-197030Y-87500D01*
X-287500D01*
G01X-315000Y-6045000D02*
X105000D01*
G01X211680D02*
X105000D01*
G01X830000Y-6120000D02*
X286680D01*
X211680Y-6045000D01*
G01X-315000Y-5265000D02*
Y-4092000D01*
G01X120000Y-4920000D02*
X105000Y-4935000D01*
Y-5265000D01*
G01X330000Y-4200000D02*
Y-4409530D01*
X-90000Y-4829530D01*
G01D02*
Y-4920000D01*
G01X198220D02*
X120000D01*
G01X-60000Y-3810000D02*
Y-3210000D01*
G01Y-3810000D02*
Y-3837000D01*
X-315000Y-4092000D01*
G01X120000Y-3780000D02*
X90000Y-3810000D01*
X-60000D01*
G01X165000Y-3540000D02*
Y-3554010D01*
X29530Y-3689480D01*
Y-3689530D01*
X120000Y-3780000D01*
G01X-55000Y-3060000D02*
X-175000Y-3180000D01*
Y-3771000D01*
G01D02*
X-242000Y-3838000D01*
G01X-420000Y-3475000D02*
X-325000D01*
X-270000Y-3420000D01*
Y-3180000D01*
G01X30000Y-3060000D02*
X-55000D01*
G01X315000Y-3469400D02*
Y-3435470D01*
X30000Y-3150470D01*
G01X-55000Y-3060000D02*
X-480000Y-2635000D01*
G01X30000Y-3150470D02*
Y-3060000D01*
G01X240000D02*
X450000D01*
G01X-287500Y-22500D02*
X-382500D01*
X-420000Y-60000D01*
Y-750000D01*
X540000Y-1710000D01*
Y-1920000D01*
X930000Y-2310000D01*
Y-2520000D01*
G01X287500Y-217500D02*
X112500D01*
X-30000Y-360000D01*
Y-630000D01*
G01X-287500Y-282500D02*
X-167500D01*
X-137500Y-312500D01*
Y-587500D01*
X-180000Y-630000D01*
G01X792000Y-837000D02*
X-213000D01*
X-317700Y-732300D01*
Y-572950D01*
X-287500Y-542750D01*
Y-412500D01*
G01Y-347500D02*
X-197030D01*
X-182500Y-362030D01*
Y-498140D01*
X-275000Y-590640D01*
Y-669360D01*
X-219360Y-725000D01*
X9360D01*
X22360Y-712000D01*
X2258000D01*
X2790000Y-180000D01*
Y1500000D01*
G01X287500Y42500D02*
X197030D01*
X167500Y72030D01*
Y953980D01*
X218520Y1005000D01*
X300000D01*
G01X792000Y1449000D02*
X249000D01*
X-30000Y1170000D01*
Y-180000D01*
X-67500Y-217500D01*
X-287500D01*
G01X792000Y1703000D02*
X143000D01*
X-90000Y1470000D01*
Y-122500D01*
X-120000Y-152500D01*
X-287500D01*
G01X142500Y-22500D02*
X287500D01*
G01X195000Y1155000D02*
X112500Y1072500D01*
Y7500D01*
X142500Y-22500D01*
G01X-287500Y107500D02*
X-377970D01*
X-407500Y137030D01*
Y642500D01*
X-300000Y750000D01*
G01X-287500Y172500D02*
Y437500D01*
X-300000Y450000D01*
G01X300000Y1155000D02*
X195000D01*
G01X970000Y-5980000D02*
X830000Y-6120000D01*
G01X1110000D02*
X970000Y-5980000D01*
G01Y-6077800D02*
Y-5980000D01*
G01D02*
Y-5882200D01*
G01X872200Y-5980000D02*
X970000D01*
G01D02*
X1067800D01*
G01X470000D02*
X900000Y-5550000D01*
X1845000D01*
G01X1110000Y-4380000D02*
Y-4740000D01*
X391880Y-5458120D01*
Y-5901880D01*
X470000Y-5980000D01*
G01X4532000Y577000D02*
X4068870D01*
X3780000Y288130D01*
Y-4800000D01*
X3660000Y-4920000D01*
X1280000D01*
X720000Y-5480000D01*
G01X315000Y-3608810D02*
Y-3540000D01*
G01X750000Y-4200000D02*
X330000D01*
G01D02*
Y-3780000D01*
G01X315000Y-3540000D02*
Y-3469400D01*
G01D02*
X700600D01*
X840000Y-3330000D01*
Y-2689000D01*
G01X315000Y-3540000D02*
X369800D01*
G01X657000Y-2760000D02*
X660000Y-2763000D01*
Y-3060000D01*
G01X840000Y-2689000D02*
X657000Y-2506000D01*
G01Y-2603800D02*
Y-2506000D01*
G01D02*
Y-2408200D01*
G01X559200Y-2506000D02*
X657000D01*
G01D02*
X754800D01*
G01X2880000Y-810000D02*
X1170000Y-2520000D01*
X930000D01*
G01X792000Y-583000D02*
X412520D01*
X287500Y-457980D01*
Y-412500D01*
G01X792000Y-329000D02*
X773500Y-347500D01*
X287500D01*
G01Y107500D02*
X377970D01*
X450000Y179530D01*
Y450000D01*
X562000Y562000D01*
X912470D01*
X1845000Y1494530D01*
Y1635000D01*
G01X792000Y-75000D02*
X584500Y-282500D01*
X287500D01*
G01X792000Y179000D02*
X460500Y-152500D01*
X287500D01*
G01X792000Y433000D02*
X510000Y151000D01*
Y-30000D01*
X452500Y-87500D01*
X287500D01*
G01X792000Y687000D02*
X417000D01*
X287500Y557500D01*
Y172500D01*
G01X300000Y1155000D02*
X405000D01*
G01D02*
X570000Y1320000D01*
G01D02*
X1080000D01*
G01X2099000Y-6120000D02*
X1110000D01*
G01X1899930Y-4019940D02*
Y-4097920D01*
X1407850Y-4590000D01*
X1320000D01*
X1110000Y-4380000D01*
G01X1410000Y-4440000D02*
Y-3870000D01*
X1490060Y-3789940D01*
G01X1774620Y-3559940D02*
X1899930D01*
G01X1490060Y-3789940D02*
X1899930D01*
G01X1080000Y1320000D02*
X1200000Y1440000D01*
Y1740000D01*
X1300000Y1840000D01*
X3777000D01*
G01X2099000Y-5850000D02*
Y-6120000D01*
G01D02*
X2638000D01*
X2668000Y-6090000D01*
X2714000D01*
G01X2099000Y-5850000D02*
Y-5722200D01*
G01Y-5850000D02*
X2226800D01*
G01X4080000Y-2490000D02*
X3930000Y-2640000D01*
Y-5010000D01*
X3840000Y-5100000D01*
X3210000D01*
X2460000Y-5850000D01*
G01X1845000D02*
Y-5550000D01*
G01X2460000Y-5850000D02*
X2160000Y-5550000D01*
X1845000D01*
G01X3330000Y-2189870D02*
X1959930Y-3559940D01*
X1899930D01*
G01D02*
Y-3494640D01*
G01X2130000Y1110000D02*
Y330000D01*
X2580000Y-120000D01*
G01X2099000Y1635000D02*
X2220480Y1513520D01*
Y1410480D01*
X2130000Y1320000D01*
G01X2460000Y1710000D02*
X2174000D01*
X2099000Y1635000D01*
G01X2460000Y1500000D02*
X2489530D01*
X2699530Y1710000D01*
X2790000D01*
G01X2714000Y-5850000D02*
Y-6090000D01*
G01D02*
X3479000D01*
G01X2714000Y-5850000D02*
Y-5722200D01*
G01Y-5850000D02*
X2841800D01*
G01X3810000Y-5835000D02*
X3635000Y-5660000D01*
X3400000D01*
X3225000Y-5835000D01*
G01X3479000D02*
Y-6090000D01*
G01D02*
X4050000D01*
X4064000Y-6076000D01*
G01D02*
Y-5835000D01*
G01D02*
Y-3193000D01*
G01D02*
X4532000Y-2725000D01*
G01X3785000Y1085000D02*
X3330000Y630000D01*
Y-2189870D01*
G01X4532000Y1085000D02*
X3785000D01*
G01X3777000Y1840000D02*
X4532000Y1085000D01*
G01Y-2822800D02*
Y-2725000D01*
G01Y-2471000D02*
X4453880Y-2392880D01*
X4387120D01*
X4290000Y-2490000D01*
G01X4532000Y-2725000D02*
Y-2627200D01*
G01X4434200Y-2725000D02*
X4532000D01*
G01D02*
X4629800D01*
G01X4080000Y450000D02*
Y-2490000D01*
G01X4532000Y987200D02*
Y1085000D01*
G01D02*
Y1182800D01*
G01Y1085000D02*
X4629800D01*
G54D14*
X-810000Y-2760000D03*
X-600000D03*
X-810000Y-3030000D03*
X-600000D03*
X120000Y-4920000D03*
X-90000D03*
X120000Y-3780000D03*
X240000Y-3060000D03*
X30000D03*
X330000Y-3780000D03*
X660000Y-3060000D03*
X450000D03*
X2130000Y1110000D03*
Y1320000D03*
X2460000Y1710000D03*
Y1500000D03*
X2790000D03*
Y1710000D03*
X4080000Y-2490000D03*
X4290000D03*
G54D15*
X-720000Y-3330000D03*
X1845000Y-5850000D03*
Y1635000D03*
X2460000Y-5850000D03*
X3225000Y-5835000D03*
X3810000D03*
G54D16*
X198220Y-4920000D03*
X-60000Y-3210000D03*
X-270000Y-3180000D03*
X-30000Y-630000D03*
X-180000D03*
X-300000Y750000D03*
Y450000D03*
X750000Y-4200000D03*
X1110000Y-4380000D03*
X1410000Y-4440000D03*
X2580000Y-120000D03*
X2880000Y-810000D03*
X4080000Y450000D03*
G54D17*
X165000Y-3540000D03*
X315000D03*
G54D18*
X-420000Y-3475000D03*
Y-3305000D03*
X300000Y1005000D03*
Y1155000D03*
G54D19*
X-287500Y-412500D03*
Y-347500D03*
Y-282500D03*
Y-217500D03*
Y-152500D03*
Y-87500D03*
Y-22500D03*
Y42500D03*
Y107500D03*
Y172500D03*
X287500D03*
Y107500D03*
Y42500D03*
Y-22500D03*
Y-87500D03*
Y-152500D03*
Y-217500D03*
Y-282500D03*
Y-347500D03*
Y-412500D03*
M02*
