G04 ================== begin FILE IDENTIFICATION RECORD ==================*
G04 Layout Name:  ARDUINO_STM8_LCD_NRF24.brd*
G04 Film Name:    TOP*
G04 File Format:  Gerber RS274X*
G04 File Origin:  Cadence Allegro 17.2-P019*
G04 Origin Date:  Wed Mar 22 13:58:16 2017*
G04 *
G04 Layer:  ETCH/TOP*
G04 Layer:  PIN/TOP*
G04 Layer:  VIA CLASS/TOP*
G04 *
G04 Offset:    (0.0000 0.0000)*
G04 Mirror:    No*
G04 Mode:      Positive*
G04 Rotation:  0*
G04 FullContactRelief:  No*
G04 UndefLineWidth:     0.0000*
G04 ================== end FILE IDENTIFICATION RECORD ====================*
%FSLAX25Y25*MOMM*%
%IR0*IPPOS*OFA0.00000B0.00000*MIA0B0*SFA1.00000B1.00000*%
%ADD22R,2.1501X.95*%
%ADD19R,1.1999X.3*%
%ADD18R,1.0201X.7399*%
%ADD17R,.7399X1.0201*%
%ADD16C,1.*%
%ADD10R,1.524X1.524*%
%ADD21R,2.1501X3.2499*%
%ADD13C,2.1999*%
%ADD20C,3.1999*%
%ADD11C,1.5999*%
%ADD14R,1.1999X1.1999*%
%ADD15R,2.1999X2.1999*%
%ADD12R,1.5999X1.5999*%
%ADD23C,.3*%
%ADD24C,4.2004*%
G75*
%LPD*%
G75*
G36*
G01X339980Y-5941940D02*
X339990Y-5978880D01*
Y-5978900D01*
G03X582590Y-6045020I130010J-1100D01*
G01X706930D01*
X833690Y-5918270D01*
G02X850230Y-5929400I7179J-7186D01*
G03X919400Y-5860230I119770J-50600D01*
G02X908270Y-5843690I-3944J9361D01*
G01X1136930Y-5615020D01*
X1779980D01*
Y-5649730D01*
X1739610Y-5689980D01*
X1735000D01*
G03X1684980Y-5740000I5J-50025D01*
G01Y-5960000D01*
G03X1735000Y-6010020I50025J5D01*
G01X1955000D01*
G03X1997170Y-5986890I-8J50022D01*
G02X2011310Y-5983850I8570J-5458D01*
G03Y-5716150I87690J133850D01*
G02X1997170Y-5713110I-5570J8498D01*
G03X1955000Y-5689980I-42178J-26892D01*
G01X1950390D01*
X1910020Y-5649730D01*
Y-5615020D01*
X2133070D01*
X2299980Y-5781940D01*
Y-5960000D01*
G03X2350000Y-6010020I50025J5D01*
G01X2570000D01*
G03X2612170Y-5986890I-8J50022D01*
G02X2626310Y-5983850I8570J-5458D01*
G03X2733910Y-5691220I87691J133853D01*
G02X2727990Y-5673960I1267J10080D01*
G01X3236930Y-5165020D01*
X3866930D01*
X3995020Y-5036930D01*
Y-2666930D01*
X4061940Y-2600020D01*
X4140000D01*
G03X4177400Y-2583200I-14J50021D01*
G02X4192600I7600J-6747D01*
G03X4230000Y-2600020I37414J33201D01*
G01X4350000D01*
G03X4400020Y-2550000I-5J50025D01*
G01Y-2540340D01*
G02X4419000Y-2535310I10157J-1D01*
G03X4476970Y-2588790I112991J64319D01*
G02Y-2607200I-4303J-9205D01*
G03X4587030I55030J-117800D01*
G02Y-2588790I4303J9205D01*
G03Y-2353210I-55030J117790D01*
G02Y-2334800I4303J9205D01*
G03X4587040Y-2099200I-55029J117802D01*
G02Y-2080800I4301J9200D01*
G03Y-1845200I-55040J117800D01*
G02Y-1826800I4301J9200D01*
G03Y-1591200I-55040J117800D01*
G02Y-1572800I4301J9200D01*
G03Y-1337200I-55040J117800D01*
G02Y-1318800I4301J9200D01*
G03Y-1083200I-55040J117800D01*
G02Y-1064800I4301J9200D01*
G03Y-829200I-55040J117800D01*
G02Y-810800I4301J9200D01*
G03Y-575200I-55040J117800D01*
G02Y-556800I4301J9200D01*
G03Y-321200I-55040J117800D01*
G02Y-302800I4301J9200D01*
G03Y-67200I-55040J117800D01*
G02Y-48800I4301J9200D01*
G03Y186800I-55040J117800D01*
G02Y205200I4301J9200D01*
G03X4587030Y440800I-55039J117798D01*
G02Y459210I4303J9205D01*
G03Y694790I-55030J117790D01*
G02Y713200I4303J9205D01*
G03X4644590Y765980I-55035J117796D01*
G01X4697930D01*
X4797650Y865690D01*
G02X4814990Y858510I7182J-7183D01*
G01Y-6149990D01*
X238420D01*
G02X228760Y-6136690I3J10160D01*
G03X231220Y-6121200I-47559J15493D01*
G01Y-5968800D01*
G03X181200Y-5918780I-50020J0D01*
G01X28800D01*
G03X-21220Y-5968800I0J-50020D01*
G01Y-6121200D01*
G03X-18760Y-6136690I50019J3D01*
G02X-28420Y-6149990I-9663J-3140D01*
G01X-181580D01*
G02X-191240Y-6136690I3J10160D01*
G03X-188780Y-6121200I-47559J15493D01*
G01Y-5968800D01*
G03X-238800Y-5918780I-50020J0D01*
G01X-391200D01*
G03X-441220Y-5968800I0J-50020D01*
G01Y-6121200D01*
G03X-438760Y-6136690I50019J3D01*
G02X-448420Y-6149990I-9663J-3140D01*
G01X-616580D01*
G02X-626240Y-6136690I3J10160D01*
G03X-623780Y-6121200I-47559J15493D01*
G01Y-5968800D01*
G03X-673800Y-5918780I-50020J0D01*
G01X-826200D01*
G03X-876220Y-5968800I0J-50020D01*
G01Y-6121200D01*
G03X-873760Y-6136690I50019J3D01*
G02X-883420Y-6149990I-9663J-3140D01*
G01X-959990D01*
Y-3206490D01*
G02X-942650Y-3199310I10158J-3D01*
G01X-880020Y-3261940D01*
Y-3440000D01*
G03X-856880Y-3482170I50020J14D01*
G02X-853850Y-3496310I-5465J-8566D01*
G03X-826510Y-3703410I133850J-87685D01*
G02Y-3718580I-6763J-7585D01*
G03Y-3957420I106510J-119420D01*
G02Y-3972590I-6763J-7585D01*
G03X-605530Y-4203810I106512J-119412D01*
G01X-605510Y-4203790D01*
X-558730Y-4157020D01*
X-384370D01*
X-380020Y-4161370D01*
Y-5138780D01*
X-391200D01*
G03X-441220Y-5188800I0J-50020D01*
G01Y-5341200D01*
G03X-391200Y-5391220I50020J0D01*
G01X-238800D01*
G03X-188780Y-5341200I0J50020D01*
G01Y-5188800D01*
G03X-238800Y-5138780I-50020J0D01*
G01X-249980D01*
Y-4118930D01*
X-6740Y-3875690D01*
X48550Y-3888690D01*
G03X60670Y-3890020I11476J48687D01*
G01X180000D01*
G03X217400Y-3873200I-14J50021D01*
G02X232600I7600J-6747D01*
G03X260830Y-3889170I37414J33200D01*
G01X264980Y-3889940D01*
Y-4233070D01*
X183070Y-4314980D01*
X-26930D01*
X-155020Y-4443070D01*
Y-4810060D01*
X-159170Y-4810830D01*
G03X-200020Y-4860000I9173J-49175D01*
G01Y-4980000D01*
G03X-150000Y-5030020I50025J5D01*
G01X-30000D01*
G03X7400Y-5013200I-14J50021D01*
G02X22600I7600J-6747D01*
G03X39980Y-5025830I37408J33204D01*
G01Y-5138780D01*
X28800D01*
G03X-21220Y-5188800I0J-50020D01*
G01Y-5341200D01*
G03X28800Y-5391220I50020J0D01*
G01X92300D01*
G02X99480Y-5408560I-3J-10158D01*
G01X-66930Y-5574980D01*
X-633070D01*
X-684980Y-5523070D01*
Y-5391220D01*
X-673800D01*
G03X-623780Y-5341200I0J50020D01*
G01Y-5188800D01*
G03X-673800Y-5138780I-50020J0D01*
G01X-826200D01*
G03X-876220Y-5188800I0J-50020D01*
G01Y-5341200D01*
G03X-826200Y-5391220I50020J0D01*
G01X-815020D01*
Y-5576930D01*
X-686930Y-5705020D01*
X-13070D01*
X515020Y-5176930D01*
Y-4976930D01*
X995020Y-4496930D01*
Y-2585020D01*
X2786930D01*
X2945020Y-2426930D01*
Y-886000D01*
G03X2814980I-65020J76000D01*
G01Y-2373070D01*
X2733070Y-2454980D01*
X995020D01*
Y-2283070D01*
X699820Y-1987870D01*
X705090Y-1982590D01*
X707460Y-1982810D01*
G03X712000Y-1983020I4579J49812D01*
G01X872000D01*
G03X922020Y-1933000I-5J50025D01*
G01Y-1773000D01*
G03X872000Y-1722980I-50025J-5D01*
G01X851060D01*
Y-1714870D01*
X853730Y-1713430D01*
G03X847040Y-1481200I-61729J114433D01*
G02Y-1462800I4301J9200D01*
G03Y-1227200I-55040J117800D01*
G02Y-1208800I4301J9200D01*
G03Y-973200I-55040J117800D01*
G02Y-954800I4301J9200D01*
G03X913530Y-790790I-55041J117796D01*
G02X923030Y-777020I9497J3610D01*
G01X2674930D01*
X2855020Y-596930D01*
Y1390060D01*
X2859170Y1390830D01*
G03X2900020Y1440000I-9173J49175D01*
G01Y1560000D01*
G03X2883200Y1597400I-50021J-14D01*
G02Y1612600I6747J7600D01*
G03X2900020Y1650000I-33201J37414D01*
G01Y1770000D01*
G03X2898470Y1782320I-50021J-36D01*
G02X2908320Y1794980I9848J2499D01*
G01X3333070D01*
X3393070Y1734980D01*
X3414980D01*
Y1413070D01*
X3573070Y1254980D01*
X4653070D01*
X4674980Y1233070D01*
Y926930D01*
X4653290Y905240D01*
G02X4637840Y906520I-7183J7186D01*
G03X4593730Y945430I-105837J-75523D01*
G01X4591060Y946870D01*
Y954980D01*
X4612000D01*
G03X4662020Y1005000I-5J50025D01*
G01Y1165000D01*
G03X4612000Y1215020I-50025J-5D01*
G01X4452000D01*
G03X4401980Y1165000I5J-50025D01*
G01Y1005000D01*
G03X4452000Y954980I50025J5D01*
G01X4472940D01*
Y946870D01*
X4470270Y945430D01*
G03X4476970Y713200I61731J-114431D01*
G02Y694790I-4303J-9205D01*
G03X4439150Y668010I55020J-117798D01*
G01X4439130Y667990D01*
X4413150Y642020D01*
X4041940D01*
X3714980Y315060D01*
Y-4773070D01*
X3633070Y-4854980D01*
X1253070D01*
X758060Y-5349980D01*
X721120Y-5349990D01*
X721100D01*
G03X850010Y-5478900I-1100J-130010D01*
G01Y-5478880D01*
X850020Y-5441940D01*
X1306930Y-4985020D01*
X3686930D01*
X3845020Y-4826930D01*
Y261200D01*
X3980640Y396820D01*
G02X3996330Y395200I7187J-7182D01*
G03X4010100Y378460I83674J54795D01*
G01X4010120Y378440D01*
X4014980Y373580D01*
Y-2360610D01*
X3982730Y-2396640D01*
G03X3969980Y-2430670I37267J-33366D01*
G01Y-2508060D01*
X3864980Y-2613070D01*
Y-4983070D01*
X3813070Y-5034980D01*
X3183070D01*
X2528060Y-5689980D01*
X2391940D01*
X2186930Y-5484980D01*
X1083070D01*
X653070Y-5914980D01*
X582590D01*
G03X470900Y-5849990I-112588J-65022D01*
G03X470000Y-5849980I-1006J-50009D01*
G01X456900D01*
Y-5485050D01*
X1175020Y-4766930D01*
Y-4561500D01*
G02X1192360Y-4554320I10158J-3D01*
G01X1293070Y-4655020D01*
X1896860D01*
X1964950Y-4586930D01*
Y-4117460D01*
X2007440D01*
G03X2055040Y-4082810I-1J50022D01*
G01X2056170Y-4079290D01*
X2064950D01*
Y-4080100D01*
X2325050D01*
Y-3989720D01*
G02X2343190Y-3983440I10158J-3D01*
G03X2382500Y-4002520I39304J30943D01*
G01X2597500D01*
G03X2647520Y-3952500I0J50020D01*
G01Y-3627500D01*
G03X2597500Y-3577480I-50020J0D01*
G01X2382500D01*
G03X2343190Y-3596560I-6J-50023D01*
G02X2325050Y-3590280I-7982J6283D01*
G01Y-3499910D01*
X2064950D01*
Y-3500590D01*
X2056170D01*
X2055040Y-3497070D01*
G03X2007440Y-3462420I-47601J-15372D01*
G01X1792420D01*
G03X1742400Y-3512440I0J-50020D01*
G01Y-3607440D01*
G03X1790040Y-3657400I50016J0D01*
G02X1794880Y-3662480I-241J-5075D01*
G01Y-3687400D01*
G02X1790040Y-3692480I-5081J-5D01*
G03X1759590Y-3704700I2374J-49963D01*
G01X1736350Y-3724920D01*
X1463130D01*
X1344980Y-3843070D01*
Y-4363580D01*
X1340120Y-4368440D01*
X1340100Y-4368460D01*
G03X1312990Y-4464340I69901J-71537D01*
G02X1295950Y-4474000I-9855J-2475D01*
G01X1210020Y-4388070D01*
Y-4380000D01*
G03X1040100Y-4451540I-100020J0D01*
G01X1040120Y-4451560D01*
X1044980Y-4456420D01*
Y-4713070D01*
X326860Y-5431190D01*
Y-5928810D01*
X339980Y-5941940D01*
G37*
G36*
G01X-575050Y-4081390D02*
X-642230Y-4014230D01*
X-723750Y-4092000D01*
X-642230Y-4169770D01*
X-575050Y-4102610D01*
G03Y-4081390I-10610J10610D01*
G37*
G36*
G01Y-3573390D02*
X-642230Y-3506230D01*
X-723750Y-3584000D01*
X-642230Y-3661770D01*
X-575050Y-3594610D01*
G03Y-3573390I-10610J10610D01*
G37*
G36*
G01X594980Y-2881850D02*
Y-2930610D01*
X562730Y-2966640D01*
G03X562590Y-2966790I36498J-34205D01*
G02X547400I-7595J6744D01*
G03X510000Y-2949980I-37406J-33213D01*
G01X390670D01*
G03X356640Y-2962730I-664J-50017D01*
G01X345000Y-2973150D01*
X333360Y-2962730D01*
G03X299330Y-2949980I-33366J-37267D01*
G01X180000D01*
G03X142600Y-2966800I14J-50021D01*
G02X127400I-7600J6747D01*
G03X90000Y-2949980I-37414J-33201D01*
G01X-30000D01*
G03X-80020Y-3000000I5J-50025D01*
G01Y-3111920D01*
X-83880Y-3112870D01*
G03X-129900Y-3281540I23880J-97128D01*
G01X-129880Y-3281560D01*
X-125020Y-3286420D01*
Y-3810070D01*
X-341930Y-4026980D01*
X-558730D01*
X-605510Y-3980210D01*
X-605530Y-3980190D01*
G03X-613490Y-3972590I-114414J-111865D01*
G02Y-3957420I6763J7585D01*
G03Y-3718580I-106510J119420D01*
G02Y-3703410I6763J7585D01*
G03X-605530Y-3695810I-106454J119465D01*
G01X-605510Y-3695790D01*
X-558730Y-3649020D01*
X-434600D01*
X-354980Y-3569400D01*
Y-3568740D01*
X-335140Y-3548880D01*
X-324610Y-3540020D01*
X-298070D01*
X-204980Y-3446930D01*
Y-3256420D01*
X-200120Y-3251560D01*
X-200100Y-3251540D01*
G03X-366780Y-3205260I-69901J71540D01*
G02X-376610Y-3217980I-9829J-2563D01*
G01X-429070D01*
X-506000Y-3141060D01*
G02X-505770Y-3126460I7181J7189D01*
G03X-489990Y-3090000I-34237J36463D01*
G01Y-2970710D01*
X-489980Y-2970670D01*
G03X-502730Y-2936640I-50017J664D01*
G01X-534980Y-2900610D01*
Y-2889390D01*
X-502730Y-2853360D01*
G03X-489980Y-2819330I-37267J33366D01*
G01Y-2700000D01*
G03X-540000Y-2649980I-50025J-5D01*
G01X-660000D01*
G03X-697400Y-2666800I14J-50021D01*
G02X-712600I-7600J6747D01*
G03X-740830Y-2650830I-37414J-33200D01*
G01X-744980Y-2650060D01*
Y-2642600D01*
X-834980Y-2552600D01*
Y-1958050D01*
G02X-818090Y-1950430I10161J6D01*
G03X-676960Y-1735200I86093J97433D01*
G02Y-1716800I4301J9200D01*
G03Y-1481200I-55040J117800D01*
G02Y-1462800I4301J9200D01*
G03Y-1227200I-55040J117800D01*
G02Y-1208800I4301J9200D01*
G03X-602180Y-1083850I-55043J117794D01*
G02X-584850Y-1076100I10146J564D01*
G01X-545020Y-1115930D01*
Y-1406930D01*
X-425020Y-1526930D01*
Y-2531930D01*
X-230620Y-2726330D01*
X-231300Y-2729110D01*
G03X12800Y-2815040I126297J-30901D01*
G02X31200I9200J-4301D01*
G03X266800Y-2815030I117798J55039D01*
G02X285210I9205J-4303D01*
G03X520800I117795J55030D01*
G02X539200I9200J-4299D01*
G03X565990Y-2852850I117792J55040D01*
G01X566010Y-2852870D01*
X594980Y-2881850D01*
G37*
G36*
G01X-609000Y-2913020D02*
X-660000Y-2970000D01*
X-600000Y-3033750D01*
X-540000Y-2970000D01*
X-591000Y-2913020D01*
G03X-609000I-9000J-12000D01*
G37*
G36*
G01X-591000Y-2876980D02*
X-540000Y-2820000D01*
X-600000Y-2756250D01*
X-660000Y-2820000D01*
X-609000Y-2876980D01*
G03X-591000I9000J12000D01*
G37*
G36*
G01X1779980Y1474980D02*
Y701940D01*
X1705060Y627020D01*
X923030D01*
G02X913530Y640790I-3J10160D01*
G03X847040Y804800I-121531J46214D01*
G02Y823200I4301J9200D01*
G03Y1058800I-55040J117800D01*
G02Y1077200I4301J9200D01*
G03X847030Y1312800I-55039J117798D01*
G02Y1331210I4303J9205D01*
G03Y1566800I-55030J117795D01*
G02Y1585200I4299J9200D01*
G03X699150Y1794010I-55032J117795D01*
G01X699130Y1793990D01*
X673150Y1768020D01*
X116070D01*
X-125020Y1526930D01*
Y1212500D01*
G02X-142360Y1205320I-10158J3D01*
G01X-606380Y1669330D01*
X-605700Y1672110D01*
G03X-787040Y1585200I-126300J30888D01*
G02Y1566800I-4301J-9200D01*
G03Y1331200I55040J-117800D01*
G02Y1312800I-4301J-9200D01*
G03Y1077200I55040J-117800D01*
G02Y1058800I-4301J-9200D01*
G03Y823200I55040J-117800D01*
G02Y804800I-4301J-9200D01*
G03Y569200I55040J-117800D01*
G02Y550800I-4301J-9200D01*
G03Y315200I55040J-117800D01*
G02Y296800I-4301J-9200D01*
G03X-858300Y148110I55039J-117798D01*
G01X-857620Y145330D01*
X-942650Y60310D01*
G02X-959990Y67490I-7182J7183D01*
G01Y1919990D01*
X2553510D01*
G02X2560690Y1902650I-3J-10158D01*
G01X2478060Y1820020D01*
X2400670D01*
G03X2366640Y1807270I-664J-50017D01*
G01X2330610Y1775020D01*
X2176450D01*
G03X2011310Y1768850I-77454J-140020D01*
G02X1997170Y1771880I-5574J8495D01*
G03X1955000Y1795020I-42184J-26880D01*
G01X1735000D01*
G03X1684980Y1745000I5J-50025D01*
G01Y1525000D01*
G03X1735000Y1474980I50025J5D01*
G01X1779980D01*
G37*
G36*
G01X-629470Y-318390D02*
X-675440Y-272440D01*
X-735750Y-329000D01*
X-675440Y-385560D01*
X-629470Y-339610D01*
G03Y-318390I-10610J10610D01*
G37*
G36*
G01X180000Y-3669980D02*
X165500D01*
G02X158320Y-3652640I5J10159D01*
G01X169940Y-3641020D01*
X352000D01*
G03X402020Y-3591000I0J50020D01*
G01Y-3489000D01*
G03X352000Y-3438980I-50020J0D01*
G01X128000D01*
G03X77980Y-3489000I0J-50020D01*
G01Y-3549070D01*
X22360Y-3604690D01*
G02X5020Y-3597510I-7182J7183D01*
G01Y-3286420D01*
X9880Y-3281560D01*
X9900Y-3281540D01*
G03X36290Y-3182920I-69898J71545D01*
G02X46070Y-3170020I9779J2744D01*
G01X90000D01*
G03X127400Y-3153200I-14J50021D01*
G02X142600I7600J-6747D01*
G03X180000Y-3170020I37414J33201D01*
G01X299330D01*
G03X333360Y-3157270I664J50017D01*
G01X345000Y-3146850D01*
X356640Y-3157270D01*
G03X390670Y-3170020I33366J37267D01*
G01X510000D01*
G03X547400Y-3153200I-14J50021D01*
G02X562600I7600J-6747D01*
G03X600000Y-3170020I37414J33201D01*
G01X720000D01*
G03X770020Y-3120000I-5J50025D01*
G01Y-3000670D01*
G03X757270Y-2966640I-50017J664D01*
G01X725020Y-2930610D01*
Y-2879390D01*
X750620Y-2850220D01*
X750700Y-2850130D01*
G03X718720Y-2645570I-93701J90131D01*
G01X716050Y-2644130D01*
Y-2636020D01*
X737000D01*
G03X787020Y-2586000I-5J50025D01*
G01Y-2426000D01*
G03X737000Y-2375980I-50025J-5D01*
G01X577000D01*
G03X526980Y-2426000I5J-50025D01*
G01Y-2446950D01*
X518870D01*
X517430Y-2444280D01*
G03X494010Y-2413150I-114433J-61716D01*
G01X493990Y-2413130D01*
X468020Y-2387150D01*
Y-1964500D01*
G02X485360Y-1957320I10158J-3D01*
G01X864980Y-2336930D01*
Y-4443070D01*
X384980Y-4923070D01*
Y-5123070D01*
X248560Y-5259480D01*
G02X231220Y-5252300I-7182J7183D01*
G01Y-5188800D01*
G03X181200Y-5138780I-50020J0D01*
G01X170020D01*
Y-5030020D01*
X180000D01*
G03X211070Y-5019190I-13J50021D01*
G03Y-4820810I-12850J99190D01*
G03X180000Y-4809980I-31083J-39191D01*
G01X60000D01*
G03X22600Y-4826800I14J-50021D01*
G02X7400I-7600J6747D01*
G03X-20830Y-4810830I-37414J-33200D01*
G01X-24980Y-4810060D01*
Y-4496930D01*
X26930Y-4445020D01*
X236930D01*
X395020Y-4286930D01*
Y-3889940D01*
X399170Y-3889170D01*
G03X439170Y-3849170I-9175J49175D01*
G01X439940Y-3845020D01*
X524000D01*
G03Y-3714980I76000J65020D01*
G01X439940D01*
X439170Y-3710830D01*
G03X390000Y-3669980I-49175J-9173D01*
G01X270000D01*
G03X232600Y-3686800I14J-50021D01*
G02X217400I-7600J6747D01*
G03X180000Y-3669980I-37414J-33201D01*
G37*
G36*
G01X211830Y-4913700D02*
X179980Y-4880560D01*
X116250Y-4920000D01*
X179980Y-4959440D01*
X211830Y-4926300D01*
G03Y-4913700I-13610J6300D01*
G37*
G36*
G01X138110Y-4930610D02*
X162870Y-4955350D01*
X201970Y-4920000D01*
X162870Y-4884650D01*
X138110Y-4909390D01*
G03Y-4930610I10610J-10610D01*
G37*
G36*
G01X-368040Y-4102610D02*
X-325610Y-4145040D01*
X-315000Y-4092000D01*
X-357430D01*
X-368040Y-4102610D01*
G37*
G36*
G01X-9900Y-3823560D02*
X60000Y-3840000D01*
X123640Y-3779110D01*
X60020Y-3725280D01*
X-15490Y-3801000D01*
G03X-9900Y-3823560I12000J-8999D01*
G37*
G36*
G01X-49390Y-3270110D02*
X-24650Y-3245350D01*
X-60000Y-3206250D01*
X-95350Y-3245350D01*
X-70610Y-3270110D01*
G03X-49390I10610J10610D01*
G37*
G36*
G01X-259390Y-3240110D02*
X-234650Y-3215350D01*
X-270000Y-3176250D01*
X-305350Y-3215350D01*
X-280610Y-3240110D01*
G03X-259390I10610J10610D01*
G37*
G36*
G01X-412310Y-3555350D02*
X-369000Y-3512000D01*
X-420000Y-3471250D01*
X-471000Y-3512000D01*
X-427690Y-3555350D01*
G03X-412310I7690J12880D01*
G37*
G36*
G01X-334120Y-3467340D02*
X-369000Y-3438000D01*
X-423750Y-3475000D01*
X-369000Y-3512000D01*
X-334120Y-3482660D01*
G03Y-3467340I-12890J7660D01*
G37*
G36*
G01X356980Y-3051000D02*
X300000Y-3000000D01*
X236250Y-3060000D01*
X300000Y-3120000D01*
X356980Y-3069000D01*
G03Y-3051000I-12000J9000D01*
G37*
G36*
G01X65020Y-156000D02*
Y71000D01*
G02X82360Y78180I10158J-3D01*
G01X177480Y-16940D01*
Y-37500D01*
G03X180650Y-55000I50021J24D01*
G03X177480Y-72500I46851J-17524D01*
G01Y-102500D01*
G03X180650Y-120000I50021J24D01*
G03X177480Y-137500I46851J-17524D01*
G01Y-152480D01*
X93070D01*
X82360Y-163180D01*
G02X65020Y-156000I-7182J7183D01*
G37*
G36*
G01Y967980D02*
Y1173070D01*
X275930Y1383980D01*
X673150D01*
X699130Y1358010D01*
X699150Y1357990D01*
G03X736970Y1331210I92840J91018D01*
G02Y1312800I-4303J-9205D01*
G03X736960Y1077200I55029J-117802D01*
G02Y1058800I-4301J-9200D01*
G03Y823200I55040J-117800D01*
G02Y804800I-4301J-9200D01*
G03X679410Y752020I55050J-117791D01*
G01X300070D01*
X222480Y674430D01*
Y237450D01*
X218330Y236670D01*
G03X200640Y229690I9179J-49169D01*
G02X185020Y238260I-5459J8569D01*
G01Y879550D01*
X227970Y922500D01*
X231050Y921310D01*
G03X249000Y917980I17946J46693D01*
G01X351000D01*
G03X401020Y968000I0J50020D01*
G01Y1192000D01*
G03X351000Y1242020I-50020J0D01*
G01X249000D01*
G03X198980Y1192000I0J-50020D01*
G01Y1070020D01*
X191590D01*
X82360Y960800D01*
G02X65020Y967980I-7182J7183D01*
G37*
G36*
G01X-273250Y383310D02*
X-261010Y420570D01*
X-300740Y453680D01*
X-335350Y414650D01*
X-298110Y377390D01*
G03X-273250Y383310I10609J10608D01*
G37*
G36*
G01X390000Y-5915000D02*
X390010Y-5980000D01*
X472650Y-5982650D01*
X470000Y-5900010D01*
X405000Y-5900000D01*
G03X390000Y-5915000I0J-15000D01*
G37*
G36*
G01X785000Y-5400000D02*
X720000Y-5400010D01*
X717350Y-5482650D01*
X799990Y-5480000D01*
X800000Y-5415000D01*
G03X785000Y-5400000I-15000J0D01*
G37*
G36*
G01X671270Y-2864810D02*
X714230Y-2815850D01*
X656880Y-2756250D01*
X600440Y-2816560D01*
X649390Y-2865530D01*
G03X671270Y-2864810I10603J10610D01*
G37*
G36*
G01X651000Y-2943020D02*
X600000Y-3000000D01*
X660000Y-3063750D01*
X720000Y-3000000D01*
X669000Y-2943020D01*
G03X651000I-9000J-12000D01*
G37*
G36*
G01X333020Y-3069000D02*
X390000Y-3120000D01*
X453750Y-3060000D01*
X390000Y-3000000D01*
X333020Y-3051000D01*
G03Y-3069000I12000J-9000D01*
G37*
G36*
G01X392390Y-2403470D02*
X346440Y-2449440D01*
X403000Y-2509750D01*
X459560Y-2449440D01*
X413610Y-2403470D01*
G03X392390I-10610J-10610D01*
G37*
G36*
G01X323010Y-2695000D02*
X323020Y-2760000D01*
X405650Y-2762650D01*
X403000Y-2680010D01*
X338010Y-2680000D01*
G03X323010Y-2695000I0J-15000D01*
G37*
G36*
G01X675700Y-361300D02*
X740170Y-388750D01*
X795700Y-328380D01*
X735440Y-272440D01*
X670970Y-336890D01*
G03X675700Y-361300I10608J-10608D01*
G37*
G36*
G01X727000Y-154990D02*
X792000Y-154980D01*
X794650Y-72350D01*
X712010Y-75000D01*
X712000Y-139990D01*
G03X727000Y-154990I15000J0D01*
G37*
G36*
G01X689470Y1438390D02*
X735440Y1392440D01*
X795750Y1449000D01*
X735440Y1505560D01*
X689470Y1459610D01*
G03Y1438390I10610J-10610D01*
G37*
G36*
G01Y1692390D02*
X735440Y1646440D01*
X795750Y1703000D01*
X735440Y1759560D01*
X689470Y1713610D01*
G03Y1692390I10610J-10610D01*
G37*
G36*
G01X1836000Y-5664500D02*
X1760280Y-5740020D01*
X1845000Y-5853750D01*
X1929720Y-5740020D01*
X1854000Y-5664500D01*
G03X1836000I-9000J-12000D01*
G37*
G36*
G01X1120610Y-4440110D02*
X1145350Y-4415350D01*
X1110000Y-4376250D01*
X1074650Y-4415350D01*
X1099390Y-4440110D01*
G03X1120610I10610J10610D01*
G37*
G36*
G01X1160000Y-4415000D02*
Y-4380000D01*
X1107350Y-4377350D01*
X1110000Y-4430000D01*
X1145000D01*
G03X1160000Y-4415000I0J15000D01*
G37*
G36*
G01X1399390Y-4379890D02*
X1374650Y-4404650D01*
X1410000Y-4443750D01*
X1445350Y-4404650D01*
X1420610Y-4379890D01*
G03X1399390I-10610J-10610D01*
G37*
G36*
G01X1747560Y-3798410D02*
X1792420Y-3837440D01*
X1903680Y-3789940D01*
X1792420Y-3742440D01*
X1747560Y-3781470D01*
G03Y-3798410I12380J-8470D01*
G37*
G36*
G01X2343020Y1701000D02*
X2400000Y1650000D01*
X2463750Y1710000D01*
X2400000Y1770000D01*
X2343020Y1719000D01*
G03Y1701000I12000J-9000D01*
G37*
G36*
G01X2209000Y1540000D02*
X2208990Y1635000D01*
X2096350Y1637650D01*
X2099000Y1525010D01*
X2194000Y1525000D01*
G03X2209000Y1540000I0J15000D01*
G37*
G36*
G01X2242960Y1710000D02*
X2174000D01*
X2095670Y1633270D01*
X2176770Y1622610D01*
X2253570Y1699390D01*
X2242960Y1710000D01*
G37*
G36*
G01X2549520Y1574990D02*
X2400000Y1559990D01*
X2456880Y1497910D01*
X2520000Y1440000D01*
X2564090Y1556410D01*
G03X2549520Y1574990I-14570J3577D01*
G37*
G36*
G01X2570020Y1696960D02*
Y1728060D01*
X2636930Y1794980D01*
X2683710D01*
Y1788950D01*
X2683360Y1788070D01*
G03X2682420Y1785410I46674J-17990D01*
G01X2682050Y1784270D01*
X2672940Y1775020D01*
X2672600D01*
X2587360Y1689780D01*
G02X2570020Y1696960I-7181J7185D01*
G37*
G36*
G01X2686610Y1702380D02*
X2730020Y1658310D01*
X2793750Y1710000D01*
X2730020Y1761690D01*
X2686610Y1717620D01*
G03Y1702380I12920J-7620D01*
G37*
G36*
G01X4071000Y-2373020D02*
X4020000Y-2430000D01*
X4080000Y-2493750D01*
X4140000Y-2430000D01*
X4089000Y-2373020D01*
G03X4071000I-9000J-12000D01*
G37*
G36*
G01X4090610Y389890D02*
X4115350Y414650D01*
X4080000Y453750D01*
X4044650Y414650D01*
X4069390Y389890D01*
G03X4090610I10610J10610D01*
G37*
G36*
G01X4452000Y-2406000D02*
X4452010Y-2471000D01*
X4534650Y-2473650D01*
X4532000Y-2391010D01*
X4467000Y-2391000D01*
G03X4452000Y-2406000I0J-15000D01*
G37*
G36*
G01X4429470Y566390D02*
X4475440Y520440D01*
X4535750Y577000D01*
X4475440Y633560D01*
X4429470Y587610D01*
G03Y566390I10610J-10610D01*
G37*
%LPC*%
G75*
G36*
G01X-739960Y-4819800D02*
G03Y-4838200I4301J-9200D01*
G02X-850040I-55040J-117800D01*
G03Y-4819800I-4301J9200D01*
G02X-856730Y-4587570I55039J117797D01*
G01X-854060Y-4586130D01*
Y-4578020D01*
X-875000D01*
G02X-925020Y-4528000I5J50025D01*
G01Y-4368000D01*
G02X-875000Y-4317980I50025J-5D01*
G01X-715000D01*
G02X-664980Y-4368000I-5J-50025D01*
G01Y-4528000D01*
G02X-715000Y-4578020I-50025J5D01*
G01X-735940D01*
Y-4586130D01*
X-733270Y-4587570D01*
G02X-739960Y-4819800I-61729J-114433D01*
G37*
G36*
G01X3641660Y-5758610D02*
G03X3625190Y-5769920I-7187J-7180D01*
G02X3391310Y-5968850I-146189J-65078D01*
G03X3377170Y-5971890I-5570J-8498D01*
G02X3335000Y-5995020I-42178J26892D01*
G01X3115000D01*
G02X3064980Y-5945000I5J50025D01*
G01Y-5725000D01*
G02X3115000Y-5674980I50025J-5D01*
G01X3293060D01*
X3373070Y-5594980D01*
X3661930D01*
X3741940Y-5674980D01*
X3920000D01*
G02X3962170Y-5698110I-8J-50022D01*
G03X3976310Y-5701150I8570J5458D01*
G02Y-5968850I87690J-133850D01*
G03X3962170Y-5971890I-5570J-8498D01*
G02X3920000Y-5995020I-42178J26892D01*
G01X3700000D01*
G02X3649980Y-5945000I5J50025D01*
G01Y-5766940D01*
X3641660Y-5758610D01*
G37*
G54D24*
X1435000Y-5865000D03*
X4535000D03*
X1435000Y1635000D03*
%LPD*%
G75*
G54D10*
X-750000Y-6045000D03*
Y-5265000D03*
X105000Y-6045000D03*
X-315000D03*
X105000Y-5265000D03*
X-315000D03*
G54D11*
X-795000Y-4956000D03*
Y-4702000D03*
X-732000Y-1853000D03*
Y-1599000D03*
Y-1345000D03*
Y-1091000D03*
Y-837000D03*
Y-583000D03*
Y-329000D03*
Y-75000D03*
Y179000D03*
Y433000D03*
Y687000D03*
Y941000D03*
Y1195000D03*
Y1449000D03*
Y1703000D03*
X149000Y-2760000D03*
X-105000D03*
Y-2506000D03*
X149000D03*
X970000Y-5980000D03*
X470000D03*
X720000Y-5480000D03*
X657000Y-2760000D03*
X403000D03*
Y-2506000D03*
X792000Y-1345000D03*
Y-1599000D03*
Y-583000D03*
Y-837000D03*
Y-1091000D03*
Y179000D03*
Y-75000D03*
Y-329000D03*
Y941000D03*
Y687000D03*
Y433000D03*
Y1703000D03*
Y1449000D03*
Y1195000D03*
X4532000Y-2725000D03*
Y-2471000D03*
Y-2217000D03*
Y-1963000D03*
Y-1709000D03*
Y-1455000D03*
Y-1201000D03*
Y-947000D03*
Y-693000D03*
Y-439000D03*
Y-185000D03*
Y69000D03*
Y323000D03*
Y577000D03*
Y831000D03*
G54D20*
X1435000Y-5865000D03*
Y1635000D03*
X4535000Y-5865000D03*
Y1635000D03*
G54D12*
X-795000Y-4448000D03*
X657000Y-2506000D03*
X792000Y-1853000D03*
X4532000Y1085000D03*
G54D21*
X2490000Y-3790000D03*
G54D13*
X-720000Y-4092000D03*
Y-3838000D03*
Y-3584000D03*
X2099000Y-5850000D03*
Y1635000D03*
X2714000Y-5850000D03*
X3479000Y-5835000D03*
X4064000D03*
G54D22*
X1899930Y-4019940D03*
Y-3789940D03*
Y-3559940D03*
G54D23*
G01X-750000Y-6045000D02*
X-315000D01*
G01X-920000Y-5875000D02*
X-750000Y-6045000D01*
G01X-920000Y-4038000D02*
Y-5875000D01*
G01X-750000Y-6045000D02*
Y-5913700D01*
G01X-881300Y-6045000D02*
X-750000D01*
G01Y-5265000D02*
Y-5550000D01*
X-660000Y-5640000D01*
X-40000D01*
X450000Y-5150000D01*
Y-4950000D01*
X930000Y-4470000D01*
Y-2520000D01*
G01X-315000Y-4092000D02*
X-720000D01*
G01Y-3584000D02*
X-461530D01*
X-420000Y-3542470D01*
Y-3475000D01*
G01X-720000Y-3838000D02*
X-920000Y-4038000D01*
G01X-720000Y-3838000D02*
X-418000D01*
G01X-600000Y-3030000D02*
Y-2760000D01*
G01X-720000Y-3330000D02*
X-900480Y-3149520D01*
Y-3120480D01*
X-810000Y-3030000D01*
G01X-420000Y-3305000D02*
X-434010D01*
X-549490Y-3189520D01*
X-579520D01*
X-720000Y-3330000D01*
G01X-732000Y179000D02*
X-900000Y11000D01*
Y-2579530D01*
X-810000Y-2669530D01*
Y-2760000D01*
G01X-732000Y-1599000D02*
X-607000D01*
X-480000Y-1726000D01*
G01X403000Y-2506000D02*
Y-1693000D01*
X-510000Y-780000D01*
Y-360000D01*
X-539000Y-331000D01*
Y-329000D01*
G01X-732000Y-583000D02*
X-570000Y-745000D01*
Y-840000D01*
X278000Y-1688000D01*
Y-2635000D01*
X403000Y-2760000D01*
G01X-732000Y-837000D02*
X-480000Y-1089000D01*
Y-1380000D01*
X-360000Y-1500000D01*
Y-2505000D01*
X-105000Y-2760000D01*
G01X-539000Y-329000D02*
X-732000D01*
G01X-539000D02*
Y-59000D01*
X-437500Y42500D01*
X-287500D01*
G01X-732000Y1703000D02*
X-120000Y1091000D01*
Y-10470D01*
X-197030Y-87500D01*
X-287500D01*
G01X-315000Y-6045000D02*
X105000D01*
G01D02*
X285000D01*
G01X-315000Y-5265000D02*
Y-4092000D01*
G01X105000Y-5265000D02*
Y-4935000D01*
X120000Y-4920000D01*
G01X330000Y-3780000D02*
Y-4260000D01*
X210000Y-4380000D01*
X0D01*
X-90000Y-4470000D01*
Y-4920000D01*
G01X198220D02*
X120000D01*
G01X-60000Y-3810000D02*
Y-3210000D01*
G01Y-3810000D02*
Y-3837000D01*
X-315000Y-4092000D01*
G01X120000Y-3780000D02*
X90000Y-3810000D01*
X-60000D01*
G01X165000Y-3540000D02*
Y-3554010D01*
X29530Y-3689480D01*
Y-3689530D01*
X120000Y-3780000D01*
G01X-418000Y-3838000D02*
X-175000Y-3595000D01*
Y-3140640D01*
X-180000Y-3135640D01*
Y-3060000D01*
G01X-420000Y-3475000D02*
X-325000D01*
X-270000Y-3420000D01*
Y-3180000D01*
G01X30000Y-3060000D02*
Y-3165000D01*
X165000Y-3300000D01*
G01X-180000Y-3060000D02*
X30000D01*
G01X-480000Y-1726000D02*
Y-2940000D01*
X-360000Y-3060000D01*
X-180000D01*
G01X165000Y-3300000D02*
X270000D01*
X300000Y-3330000D01*
Y-3428990D01*
G01X240000Y-3060000D02*
X450000D01*
G01X-287500Y-22500D02*
X-382500D01*
X-450000Y-90000D01*
Y-720000D01*
X540000Y-1710000D01*
Y-1920000D01*
X930000Y-2310000D01*
Y-2520000D01*
G01X-30000Y-630000D02*
X65000D01*
X90000Y-605000D01*
Y-247500D01*
X120000Y-217500D01*
X287500D01*
G01X-287500Y-282500D02*
X-120000D01*
X-90000Y-312500D01*
Y-540000D01*
X-180000Y-630000D01*
G01X-287500Y-412500D02*
Y-497500D01*
X-360000Y-570000D01*
Y-690000D01*
X-124610Y-925390D01*
X703610D01*
X792000Y-837000D01*
G01X2790000Y1500000D02*
Y-570000D01*
X2648000Y-712000D01*
X248000D01*
X180000Y-780000D01*
X-164360D01*
X-275000Y-669360D01*
Y-590640D01*
X-182500Y-498140D01*
Y-362030D01*
X-197030Y-347500D01*
X-287500D01*
G01X300000Y1005000D02*
X218520D01*
X120000Y906480D01*
Y132500D01*
X210000Y42500D01*
X287500D01*
G01X792000Y1449000D02*
X249000D01*
X0Y1200000D01*
Y-150000D01*
X-67500Y-217500D01*
X-287500D01*
G01X792000Y1703000D02*
X143000D01*
X-60000Y1500000D01*
Y-92500D01*
X-120000Y-152500D01*
X-287500D01*
G01X82500Y-22500D02*
X287500D01*
G01X135000Y1155000D02*
X60000Y1080000D01*
Y0D01*
X82500Y-22500D01*
G01X-300000Y750000D02*
X-480000Y570000D01*
Y209530D01*
X-377970Y107500D01*
X-287500D01*
G01Y172500D02*
Y437500D01*
X-300000Y450000D01*
G01X300000Y1155000D02*
X135000D01*
G01X1050000Y1320000D02*
X1080000Y1350000D01*
Y1830000D01*
X1050000Y1860000D01*
X-60000D01*
X-240000Y1680000D01*
G01X970000Y-5980000D02*
X1110000Y-6120000D01*
G01X285000Y-6045000D02*
X360000Y-6120000D01*
X870000D01*
X900000Y-6090000D01*
G01D02*
Y-6050000D01*
X970000Y-5980000D01*
G01Y-6115100D02*
Y-5980000D01*
G01D02*
Y-5844900D01*
G01X834900Y-5980000D02*
X970000D01*
G01D02*
X1105100D01*
G01X1110000Y-4380000D02*
Y-4740000D01*
X391880Y-5458120D01*
Y-5901880D01*
X470000Y-5980000D01*
G01D02*
X680000D01*
X1110000Y-5550000D01*
X1845000D01*
G01X4532000Y577000D02*
X4068870D01*
X3780000Y288130D01*
Y-4800000D01*
X3660000Y-4920000D01*
X1280000D01*
X720000Y-5480000D01*
G01X719990Y-3480010D02*
Y-3599990D01*
G01X330000Y-3780000D02*
X600000D01*
G01X315000Y-3540000D02*
X660000D01*
G01X719990Y-3480010D02*
X782000Y-3418000D01*
G01X660000Y-3540000D02*
X719990Y-3480010D01*
G01X782000Y-3418000D02*
Y-2582000D01*
X706000Y-2506000D01*
X657000D01*
G01X300000Y-3428990D02*
X315000Y-3443990D01*
Y-3540000D01*
G01X657000Y-2760000D02*
X660000Y-2763000D01*
Y-3060000D01*
G01X2880000Y-810000D02*
Y-2400000D01*
X2760000Y-2520000D01*
X930000D01*
G01X792000Y-583000D02*
X343000D01*
X287500Y-527500D01*
Y-412500D01*
G01X792000Y-329000D02*
X773500Y-347500D01*
X287500D01*
G01Y107500D02*
X377970D01*
X420000Y149530D01*
Y420000D01*
X562000Y562000D01*
X1731990D01*
X1845000Y675010D01*
Y1635000D01*
G01X792000Y-75000D02*
X584500Y-282500D01*
X287500D01*
G01X792000Y179000D02*
X600000Y-13000D01*
Y-120000D01*
X567500Y-152500D01*
X287500D01*
G01X792000Y433000D02*
X667000D01*
X510000Y276000D01*
Y-30000D01*
X452500Y-87500D01*
X287500D01*
G01X792000Y687000D02*
X327000D01*
X287500Y647500D01*
Y172500D01*
G01X420000Y1320000D02*
X383000D01*
G01X420000D02*
X1050000D01*
G01X383000D02*
X300000Y1237000D01*
Y1155000D01*
G01X1110000Y-6120000D02*
X2070000D01*
G01X1899930Y-4019940D02*
Y-4560000D01*
X1869930Y-4590000D01*
X1320000D01*
X1110000Y-4380000D01*
G01X1410000Y-4440000D02*
Y-3870000D01*
X1490060Y-3789940D01*
X1899930D01*
G01X1500000Y-3312520D02*
X1747420Y-3559940D01*
X1839920D01*
G01X1760600Y-3420610D02*
X1399990Y-3060000D01*
X1200000D01*
X1079990Y-3180010D01*
Y-3599990D01*
G01X1839920Y-3559940D02*
X1760600Y-3480620D01*
Y-3420610D01*
G01X3780000Y1080000D02*
X3540000Y840000D01*
Y480000D01*
X3420000Y360000D01*
Y-2940000D01*
X3240000Y-3120000D01*
X1620000D01*
X1500000Y-3240000D01*
Y-3312520D01*
G01X2640000Y-6120000D02*
X2070000D01*
G01D02*
X2100000Y-6090000D01*
G01D02*
Y-6006000D01*
X2099000Y-6005000D01*
Y-5850000D01*
G01D02*
Y-5684900D01*
G01Y-5850000D02*
X2264100D01*
G01X4080000Y-2490000D02*
X3930000Y-2640000D01*
Y-5010000D01*
X3840000Y-5100000D01*
X3210000D01*
X2460000Y-5850000D01*
G01X1845000D02*
Y-5550000D01*
G01D02*
X2160000D01*
X2460000Y-5850000D01*
G01X1839920Y-3559940D02*
X1899930D01*
G01X2130000Y1110000D02*
Y-30000D01*
X2220000Y-120000D01*
X2580000D01*
G01X2460000Y1710000D02*
X2174000D01*
X2099000Y1635000D01*
G01D02*
X2220480Y1513520D01*
Y1410480D01*
X2130000Y1320000D01*
G01X2460000Y1710000D02*
X2610000Y1860000D01*
X3360000D01*
X3420000Y1800000D01*
X3450000D01*
X3480000Y1770000D01*
Y1440000D01*
X3600000Y1320000D01*
X4680000D01*
X4740000Y1260000D01*
Y900000D01*
X4671000Y831000D01*
X4532000D01*
G01X2460000Y1500000D02*
X2489530D01*
X2699530Y1710000D01*
X2790000D01*
G01X3478000Y-6060000D02*
X3418000Y-6120000D01*
X2640000D01*
G01D02*
X2714000Y-6046000D01*
G01D02*
Y-5850000D01*
G01X3810000Y-5835000D02*
X3635000Y-5660000D01*
X3400000D01*
X3225000Y-5835000D01*
G01X4064000D02*
Y-6016000D01*
G01X3478000Y-6060000D02*
X3479000Y-6059000D01*
G01X4064000Y-6016000D02*
X4020000Y-6060000D01*
X3478000D01*
G01X3479000Y-6059000D02*
Y-5835000D01*
G01X4064000Y-4936000D02*
Y-5835000D01*
G01X4532000Y-4468000D02*
X4064000Y-4936000D01*
G01X4532000Y1085000D02*
X4407000D01*
X4402000Y1080000D01*
X3780000D01*
G01X4532000Y-2725000D02*
Y-4468000D01*
G01Y-2471000D02*
X4453880Y-2392880D01*
X4387120D01*
X4290000Y-2490000D01*
G01X4396900Y-2725000D02*
X4532000D01*
G01D02*
X4667100D01*
G01X4080000Y450000D02*
Y-2490000D01*
G01X4532000Y1085000D02*
Y1220100D01*
G01Y1085000D02*
X4667100D01*
G54D14*
X-810000Y-2760000D03*
X-600000D03*
X-810000Y-3030000D03*
X-600000D03*
X120000Y-4920000D03*
X-90000D03*
X120000Y-3780000D03*
X240000Y-3060000D03*
X30000D03*
X330000Y-3780000D03*
X660000Y-3060000D03*
X450000D03*
X2130000Y1110000D03*
Y1320000D03*
X2460000Y1710000D03*
Y1500000D03*
X2790000D03*
Y1710000D03*
X4080000Y-2490000D03*
X4290000D03*
G54D15*
X-720000Y-3330000D03*
X1845000Y-5850000D03*
Y1635000D03*
X2460000Y-5850000D03*
X3225000Y-5835000D03*
X3810000D03*
G54D16*
X198220Y-4920000D03*
X-60000Y-3210000D03*
X-270000Y-3180000D03*
X-30000Y-630000D03*
X-180000D03*
X-300000Y750000D03*
Y450000D03*
X-240000Y1680000D03*
X719990Y-3599990D03*
X600000Y-3780000D03*
X420000Y1320000D03*
X1110000Y-4380000D03*
X1410000Y-4440000D03*
X1079990Y-3599990D03*
X2580000Y-120000D03*
X2880000Y-810000D03*
X4080000Y450000D03*
G54D17*
X165000Y-3540000D03*
X315000D03*
G54D18*
X-420000Y-3475000D03*
Y-3305000D03*
X300000Y1005000D03*
Y1155000D03*
G54D19*
X-287500Y-412500D03*
Y-347500D03*
Y-282500D03*
Y-217500D03*
Y-152500D03*
Y-87500D03*
Y-22500D03*
Y42500D03*
Y107500D03*
Y172500D03*
X287500D03*
Y107500D03*
Y42500D03*
Y-22500D03*
Y-87500D03*
Y-152500D03*
Y-217500D03*
Y-282500D03*
Y-347500D03*
Y-412500D03*
M02*
