G04 ================== begin FILE IDENTIFICATION RECORD ==================*
G04 Layout Name:  RPI_NRF24L01MODULE_FT232.brd*
G04 Film Name:    BOTTOM*
G04 File Format:  Gerber RS274X*
G04 File Origin:  Cadence Allegro 17.2-P019*
G04 Origin Date:  Wed Apr 05 14:08:42 2017*
G04 *
G04 Layer:  ETCH/BOTTOM*
G04 Layer:  PIN/BOTTOM*
G04 Layer:  VIA CLASS/BOTTOM*
G04 *
G04 Offset:    (0.0000 0.0000)*
G04 Mirror:    No*
G04 Mode:      Positive*
G04 Rotation:  0*
G04 FullContactRelief:  No*
G04 UndefLineWidth:     0.0000*
G04 ================== end FILE IDENTIFICATION RECORD ====================*
%FSLAX25Y25*MOMM*%
%IR0*IPPOS*OFA0.00000B0.00000*MIA0B0*SFA1.00000B1.00000*%
%ADD14C,1.*%
%ADD11C,1.2*%
%ADD12C,1.6*%
%ADD10C,3.5*%
%ADD13R,1.5999X1.5999*%
%ADD15C,.3*%
%ADD16C,.5*%
%ADD19C,2.2004*%
%ADD17C,4.1004*%
%ADD18C,1.8004*%
%ADD20C,1.8544*%
G75*
%LPD*%
G75*
G36*
G01X-2955000Y-1454990D02*
G02X-3194990Y-1200000I17033J256462D01*
G01Y462640D01*
G02X-3177650Y469830I10160J2D01*
G01X-3072800Y364980D01*
X-1778140D01*
X-1777320Y364170D01*
G03X-1675330Y486390I57327J55826D01*
G02X-1669660Y504980I5671J8430D01*
G01X-1642790D01*
X-1575020Y437210D01*
Y92790D01*
X-1622790Y45020D01*
X-2152790D01*
X-2465020Y-267210D01*
Y-1172790D01*
X-2302790Y-1335020D01*
X-1828140D01*
X-1827320Y-1335830D01*
G03X-1689980Y-1280000I57322J55830D01*
G01Y-1277790D01*
X-1658060Y-1245870D01*
Y-944130D01*
X-1709980Y-892210D01*
Y-890000D01*
G03X-1790000Y-970020I-80020J0D01*
G01X-1787790D01*
X-1768100Y-989710D01*
Y-1194960D01*
G02X-1772990Y-1200040I-5081J-2D01*
G03X-1827320Y-1224170I2990J-79961D01*
G01X-1828140Y-1224980D01*
X-2257210D01*
X-2354980Y-1127210D01*
Y-312790D01*
X-2107210Y-65020D01*
X-1577210D01*
X-1464980Y47210D01*
Y482790D01*
X-1597210Y615020D01*
X-2489980D01*
Y846400D01*
G02X-2472160Y853080I10160J5D01*
G01X-2470020Y850620D01*
Y782210D01*
X-2342790Y654980D01*
X-2128140D01*
X-2127320Y654170D01*
G03Y765830I57320J55830D01*
G01X-2128140Y765020D01*
X-2297210D01*
X-2359980Y827790D01*
Y850620D01*
X-2312360Y905280D01*
G03X-2304980Y925510I-22638J19720D01*
G01Y1085000D01*
G03X-2311400Y1103540I-30021J-14D01*
G02X-2303410Y1119980I7987J6280D01*
G01X-2219790D01*
G02X-2214820Y1100960I2J-10159D01*
G03X-2107180I53820J-95960D01*
G02X-2102210Y1119980I4968J8861D01*
G01X-2047570D01*
X-2019980Y1147570D01*
Y1196780D01*
G02X-2001130Y1202040I10159J0D01*
G03X-1871320Y1363070I94129J56957D01*
G01X-1874760Y1364250D01*
Y1372960D01*
X-1844770D01*
X-1763020Y1291210D01*
Y1259000D01*
G03X-1653000Y1369020I110020J0D01*
G01X-1685210D01*
X-1753840Y1437650D01*
G02X-1746650Y1454990I7188J7180D01*
G01X2955000D01*
G02X3194990Y1200000I-16293J-255766D01*
G01Y827350D01*
G02X3177650Y820160I-10160J-2D01*
G01X3092790Y905020D01*
X2490850D01*
G02X2484100Y922770I-1J10158D01*
G03X2337900I-73100J82230D01*
G02X2331150Y905020I-6749J-7592D01*
G01X2237120D01*
G02X2229940Y922360I6J10159D01*
G01X2233650Y926080D01*
X2233680Y926100D01*
G03X2080320I-76680J78900D01*
G01X2080350Y926080D01*
X2101980Y904430D01*
Y864510D01*
X2171510Y794980D01*
X3047210D01*
X3074980Y767210D01*
Y618790D01*
G02X3057640Y611600I-10160J-2D01*
G01X2894220Y775020D01*
X2093090D01*
X1960850Y907260D01*
X1979650Y926080D01*
X1979680Y926100D01*
G03X1826320I-76680J78900D01*
G01X1826350Y926080D01*
X1847980Y904430D01*
Y864510D01*
X2047510Y664980D01*
X2848640D01*
X2964980Y548640D01*
Y517360D01*
G02X2947640Y510170I-10160J-2D01*
G01X2812790Y645020D01*
X512790D01*
X434020Y723790D01*
Y904430D01*
X455650Y926080D01*
X455680Y926100D01*
G03X302320I-76680J78900D01*
G01X302350Y926080D01*
X323980Y904430D01*
Y678210D01*
X467210Y534980D01*
X2767210D01*
X2854980Y447210D01*
Y92790D01*
X2833210Y71020D01*
X2814570D01*
X2792920Y92650D01*
X2792900Y92680D01*
G03Y-60680I-78900J-76680D01*
G01X2792920Y-60650D01*
X2814570Y-39020D01*
X2878790D01*
X2947640Y29830D01*
G02X2964980Y22640I7180J-7188D01*
G01Y-75670D01*
X2857670Y-182980D01*
X2814570D01*
X2792920Y-161350D01*
X2792900Y-161320D01*
G03Y-314680I-78900J-76680D01*
G01X2792920Y-314650D01*
X2814570Y-293020D01*
X2903250D01*
X3057640Y-138630D01*
G02X3074980Y-145820I7180J-7188D01*
G01Y-557210D01*
X2947210Y-684980D01*
X2202790D01*
X2155020Y-637210D01*
Y-322790D01*
X2184790Y-293020D01*
X2359430D01*
X2381080Y-314650D01*
X2381100Y-314680D01*
G03Y-161320I78900J76680D01*
G01X2381080Y-161350D01*
X2359430Y-182980D01*
X2139210D01*
X2044980Y-277210D01*
Y-682790D01*
X2157210Y-795020D01*
X2992790D01*
X3177650Y-610160D01*
G02X3194990Y-617350I7180J-7188D01*
G01Y-1215000D01*
G02X2955000Y-1454990I-247490J7500D01*
G01X-2955000D01*
G37*
G36*
G01X-2940000Y480000D02*
X-3010000Y550000D01*
Y930000D01*
X-2979150Y960850D01*
X-2976040Y959600D01*
G03X-2709600Y1226040I76040J190400D01*
G01X-2710850Y1229150D01*
X-2580000Y1360000D01*
X-2463290D01*
G02X-2458520Y1340870I-2J-10160D01*
G03X-2371480I43520J-81870D01*
G02X-2366710Y1360000I4772J8970D01*
G01X-2209290D01*
G02X-2204520Y1340870I-2J-10160D01*
G03X-2117480I43520J-81870D01*
G02X-2112710Y1360000I4772J8970D01*
G01X-2060000D01*
X-2050000Y1350000D01*
Y1160000D01*
X-2060000Y1150000D01*
X-2490000D01*
X-2520000Y1120000D01*
Y1101670D01*
X-2520730Y1100460D01*
G03X-2525020Y1085000I25733J-15466D01*
G01Y925510D01*
G03X-2520730Y909530I30018J-507D01*
G01X-2520000Y908320D01*
Y560000D01*
X-2600000Y480000D01*
X-2940000D01*
G37*
G36*
G01X-2400840Y849420D02*
X-2335000Y925000D01*
X-2415000Y1011250D01*
X-2495000Y925000D01*
X-2429160Y849420D01*
G03X-2400840I14160J20600D01*
G37*
G36*
G01X-2510460Y1241320D02*
X-2471560Y1202440D01*
X-2408750Y1259000D01*
X-2471560Y1315560D01*
X-2510460Y1276680D01*
G03Y1241320I17680J-17680D01*
G37*
G36*
G01X-1823040Y-1297680D02*
X-1805350Y-1315350D01*
X-1763750Y-1280000D01*
X-1805350Y-1244650D01*
X-1823040Y-1262320D01*
G03Y-1297680I17680J-17680D01*
G37*
G36*
G01X-1745000Y-1230000D02*
X-1770000D01*
X-1774420Y-1284420D01*
X-1720000Y-1280000D01*
Y-1255000D01*
G03X-1745000Y-1230000I-25000J0D01*
G37*
G36*
G01X-1740000Y-915000D02*
Y-890000D01*
X-1794420Y-885580D01*
X-1790000Y-940000D01*
X-1765000D01*
G03X-1740000Y-915000I0J25000D01*
G37*
G36*
G01X-1773040Y402320D02*
X-1755350Y384650D01*
X-1713750Y420000D01*
X-1755350Y455350D01*
X-1773040Y437680D01*
G03Y402320I17680J-17680D01*
G37*
G36*
G01X-2123040Y692320D02*
X-2105350Y674650D01*
X-2063750Y710000D01*
X-2105350Y745350D01*
X-2123040Y727680D01*
G03Y692320I17680J-17680D01*
G37*
G36*
G01X-2319540Y1276680D02*
X-2358440Y1315560D01*
X-2421250Y1259000D01*
X-2358440Y1202440D01*
X-2319540Y1241320D01*
G03Y1276680I-17680J17680D01*
G37*
G36*
G01X-2256460Y1241320D02*
X-2217560Y1202440D01*
X-2154750Y1259000D01*
X-2217560Y1315560D01*
X-2256460Y1276680D01*
G03Y1241320I17680J-17680D01*
G37*
G36*
G01X-1733000Y1314000D02*
Y1259000D01*
X-1648580Y1254580D01*
X-1653000Y1339000D01*
X-1708000D01*
G03X-1733000Y1314000I0J-25000D01*
G37*
G36*
G01X396680Y909540D02*
X435560Y948440D01*
X379000Y1011250D01*
X322440Y948440D01*
X361320Y909540D01*
G03X396680I17680J17680D01*
G37*
G36*
G01X1920680D02*
X1959560Y948440D01*
X1903000Y1011250D01*
X1846440Y948440D01*
X1885320Y909540D01*
G03X1920680I17680J17680D01*
G37*
G36*
G01X2809460Y-220320D02*
X2770560Y-181440D01*
X2707750Y-238000D01*
X2770560Y-294560D01*
X2809460Y-255680D01*
G03Y-220320I-17680J17680D01*
G37*
G36*
G01X2364540Y-255680D02*
X2403440Y-294560D01*
X2466250Y-238000D01*
X2403440Y-181440D01*
X2364540Y-220320D01*
G03Y-255680I17680J-17680D01*
G37*
G36*
G01X2809460Y33680D02*
X2770560Y72560D01*
X2707750Y16000D01*
X2770560Y-40560D01*
X2809460Y-1680D01*
G03Y33680I-17680J17680D01*
G37*
G36*
G01X2174680Y909540D02*
X2213560Y948440D01*
X2157000Y1011250D01*
X2100440Y948440D01*
X2139320Y909540D01*
G03X2174680I17680J17680D01*
G37*
%LPC*%
G75*
G36*
G01X2621280Y-572000D02*
Y-412000D01*
G02X2634000Y-399280I12725J-5D01*
G01X2794000D01*
G02X2806720Y-412000I-5J-12725D01*
G01Y-572000D01*
G02X2794000Y-584720I-12725J5D01*
G01X2634000D01*
G02X2621280Y-572000I5J12725D01*
G37*
G36*
G01X-73980Y621790D02*
X42790Y505020D01*
X2674490D01*
X2769020Y410490D01*
Y370570D01*
X2790650Y348920D01*
X2790680Y348900D01*
G02X2637320I-76680J-78900D01*
G01X2637350Y348920D01*
X2656150Y367740D01*
X2628910Y394980D01*
X-2790D01*
X-184020Y576210D01*
Y904430D01*
X-205650Y926080D01*
X-205680Y926100D01*
G02X-52320I76680J78900D01*
G01X-52350Y926080D01*
X-73980Y904430D01*
Y621790D01*
G37*
G36*
G01X1445020Y191860D02*
Y-91860D01*
X1445830Y-92680D01*
G02X1334170I-55830J-57320D01*
G01X1334980Y-91860D01*
Y191860D01*
X1334170Y192680D01*
G02X1445830I55830J57320D01*
G01X1445020Y191860D01*
G37*
G36*
G01X1195020Y181860D02*
Y-101860D01*
X1195830Y-102680D01*
G02X1084170I-55830J-57320D01*
G01X1084980Y-101860D01*
Y181860D01*
X1084170Y182680D01*
G02X1195830I55830J57320D01*
G01X1195020Y181860D01*
G37*
G36*
G01X1740020Y257790D02*
X1811940Y185870D01*
Y-165870D01*
X1780020Y-197790D01*
Y-200000D01*
G02X1697010Y-120040I-80016J0D01*
G03X1701900Y-114960I-191J5078D01*
G01Y140290D01*
X1662210Y179980D01*
X1660000D01*
G02X1740020Y260000I0J80020D01*
G01Y257790D01*
G37*
G36*
G01X685020Y-1138140D02*
Y-1282790D01*
X572790Y-1395020D01*
X-1052790D01*
X-1200020Y-1247790D01*
Y-323140D01*
X-1200830Y-322320D01*
G02X-1089170I55830J57320D01*
G01X-1089980Y-323140D01*
Y-1202210D01*
X-1007210Y-1284980D01*
X527210D01*
X574980Y-1237210D01*
Y-1138140D01*
X574170Y-1137320D01*
G02X685830I55830J57320D01*
G01X685020Y-1138140D01*
G37*
G54D19*
X-1653000Y1005000D03*
X-1907000D03*
X-891000Y1259000D03*
Y1005000D03*
X-1145000Y1259000D03*
Y1005000D03*
X-1399000Y1259000D03*
X-129000D03*
X-383000D03*
Y1005000D03*
X-637000Y1259000D03*
Y1005000D03*
X633000Y1259000D03*
Y1005000D03*
X379000Y1259000D03*
X125000D03*
Y1005000D03*
X1395000Y1259000D03*
Y1005000D03*
X1141000Y1259000D03*
Y1005000D03*
X887000Y1259000D03*
Y1005000D03*
X2157000Y1259000D03*
X1903000D03*
X1649000D03*
Y1005000D03*
X2460000Y-492000D03*
Y16000D03*
Y270000D03*
X2411000Y1259000D03*
G54D17*
X-2900000Y-1150000D03*
X2900000D03*
Y1150000D03*
G54D18*
X-2710000Y-230000D03*
Y210000D03*
G54D20*
X-1399000Y1005000D03*
%LPD*%
G75*
G36*
G01X-2855000Y810000D02*
X-2880000D01*
X-2884420Y755580D01*
X-2830000Y760000D01*
Y785000D01*
G03X-2855000Y810000I-25000J0D01*
G37*
G36*
G01X-2830000Y735000D02*
Y760000D01*
X-2884420Y764420D01*
X-2880000Y710000D01*
X-2855000D01*
G03X-2830000Y735000I0J25000D01*
G37*
G36*
G01X-2187680Y-896960D02*
X-2205350Y-914650D01*
X-2170000Y-956250D01*
X-2134650Y-914650D01*
X-2152320Y-896960D01*
G03X-2187680I-17680J-17680D01*
G37*
G36*
G01X-1127320Y-318040D02*
X-1109650Y-300350D01*
X-1145000Y-258750D01*
X-1180350Y-300350D01*
X-1162680Y-318040D01*
G03X-1127320I17680J17680D01*
G37*
G36*
G01X-1436960Y-252320D02*
X-1454650Y-234650D01*
X-1496250Y-270000D01*
X-1454650Y-305350D01*
X-1436960Y-287680D01*
G03Y-252320I-17680J17680D01*
G37*
G36*
G01X-1543040Y-287680D02*
X-1525350Y-305350D01*
X-1483750Y-270000D01*
X-1525350Y-234650D01*
X-1543040Y-252320D01*
G03Y-287680I17680J-17680D01*
G37*
G36*
G01X-1322320Y236960D02*
X-1304650Y254650D01*
X-1340000Y296250D01*
X-1375350Y254650D01*
X-1357680Y236960D01*
G03X-1322320I17680J17680D01*
G37*
G36*
G01X-1357680Y343040D02*
X-1375350Y325350D01*
X-1340000Y283750D01*
X-1304650Y325350D01*
X-1322320Y343040D01*
G03X-1357680I-17680J-17680D01*
G37*
G36*
G01X-1319000Y950000D02*
Y1005000D01*
X-1403420Y1009420D01*
X-1399000Y925000D01*
X-1344000D01*
G03X-1319000Y950000I0J25000D01*
G37*
G36*
G01X-1176960Y657680D02*
X-1194650Y675350D01*
X-1236250Y640000D01*
X-1194650Y604650D01*
X-1176960Y622320D01*
G03Y657680I-17680J17680D01*
G37*
G36*
G01X-1247680Y693040D02*
X-1265350Y675350D01*
X-1230000Y633750D01*
X-1194650Y675350D01*
X-1212320Y693040D01*
G03X-1247680I-17680J-17680D01*
G37*
G36*
G01X-1255000Y590000D02*
X-1230000D01*
X-1225580Y644420D01*
X-1280000Y640000D01*
Y615000D01*
G03X-1255000Y590000I25000J0D01*
G37*
G36*
G01X-677680Y33040D02*
X-695350Y15350D01*
X-660000Y-26250D01*
X-624650Y15350D01*
X-642320Y33040D01*
G03X-677680I-17680J-17680D01*
G37*
G36*
G01X-642320Y-73040D02*
X-624650Y-55350D01*
X-660000Y-13750D01*
X-695350Y-55350D01*
X-677680Y-73040D01*
G03X-642320I17680J17680D01*
G37*
G36*
G01X-111320Y909540D02*
X-72440Y948440D01*
X-129000Y1011250D01*
X-185560Y948440D01*
X-146680Y909540D01*
G03X-111320I17680J17680D01*
G37*
G36*
G01X647680Y-1133040D02*
X665350Y-1115350D01*
X630000Y-1073750D01*
X594650Y-1115350D01*
X612320Y-1133040D01*
G03X647680I17680J17680D01*
G37*
G36*
G01X743040Y-482320D02*
X725350Y-464650D01*
X683750Y-500000D01*
X725350Y-535350D01*
X743040Y-517680D01*
G03Y-482320I-17680J17680D01*
G37*
G36*
G01X636960Y-517680D02*
X654650Y-535350D01*
X696250Y-500000D01*
X654650Y-464650D01*
X636960Y-482320D01*
G03Y-517680I17680J-17680D01*
G37*
G36*
G01X1157680Y186960D02*
X1175350Y204650D01*
X1140000Y246250D01*
X1104650Y204650D01*
X1122320Y186960D01*
G03X1157680I17680J17680D01*
G37*
G36*
G01X1122320Y-106960D02*
X1104650Y-124650D01*
X1140000Y-166250D01*
X1175350Y-124650D01*
X1157680Y-106960D01*
G03X1122320I-17680J-17680D01*
G37*
G36*
G01X1725000Y-150000D02*
X1700000D01*
X1695580Y-204420D01*
X1750000Y-200000D01*
Y-175000D01*
G03X1725000Y-150000I-25000J0D01*
G37*
G36*
G01X1407680Y196960D02*
X1425350Y214650D01*
X1390000Y256250D01*
X1354650Y214650D01*
X1372320Y196960D01*
G03X1407680I17680J17680D01*
G37*
G36*
G01X1372320Y-96960D02*
X1354650Y-114650D01*
X1390000Y-156250D01*
X1425350Y-114650D01*
X1407680Y-96960D01*
G03X1372320I-17680J-17680D01*
G37*
G36*
G01X1710000Y235000D02*
Y260000D01*
X1655580Y264420D01*
X1660000Y210000D01*
X1685000D01*
G03X1710000Y235000I0J25000D01*
G37*
G36*
G01X2665000Y-950000D02*
X2690000D01*
X2694420Y-895580D01*
X2640000Y-900000D01*
Y-925000D01*
G03X2665000Y-950000I25000J0D01*
G37*
G36*
G01X2696320Y365460D02*
X2657440Y326560D01*
X2714000Y263750D01*
X2770560Y326560D01*
X2731680Y365460D01*
G03X2696320I-17680J-17680D01*
G37*
G54D10*
X-2900000Y-1150000D03*
Y1150000D03*
X2900000Y-1150000D03*
Y1150000D03*
G54D11*
X-2710000Y-230000D03*
Y210000D03*
G54D12*
X-2415000Y1259000D03*
X-1653000D03*
Y1005000D03*
X-1907000Y1259000D03*
Y1005000D03*
X-2161000Y1259000D03*
Y1005000D03*
X-891000Y1259000D03*
Y1005000D03*
X-1145000Y1259000D03*
Y1005000D03*
X-1399000Y1259000D03*
Y1005000D03*
X-129000Y1259000D03*
Y1005000D03*
X-383000Y1259000D03*
Y1005000D03*
X-637000Y1259000D03*
Y1005000D03*
X633000Y1259000D03*
Y1005000D03*
X379000Y1259000D03*
Y1005000D03*
X125000Y1259000D03*
Y1005000D03*
X1395000Y1259000D03*
Y1005000D03*
X1141000Y1259000D03*
Y1005000D03*
X887000Y1259000D03*
Y1005000D03*
X2157000Y1259000D03*
Y1005000D03*
X1903000Y1259000D03*
Y1005000D03*
X1649000Y1259000D03*
Y1005000D03*
X2460000Y-492000D03*
X2714000Y-238000D03*
X2460000D03*
X2714000Y270000D03*
Y16000D03*
X2460000D03*
Y270000D03*
X2411000Y1259000D03*
Y1005000D03*
G54D13*
X-2415000D03*
X2714000Y-492000D03*
G54D14*
X-2880000Y760000D03*
X-2170000Y-950000D03*
X-1790000Y-890000D03*
X-1770000Y-1280000D03*
X-1720000Y420000D03*
X-2070000Y710000D03*
X-1145000Y-265000D03*
X-1490000Y-270000D03*
X-1340000Y290000D03*
X-1230000Y640000D03*
X-660000Y-20000D03*
X630000Y-1080000D03*
X690000Y-500000D03*
X1140000Y-160000D03*
X1390000Y-150000D03*
X1140000Y240000D03*
X1390000Y250000D03*
X1700000Y-200000D03*
X1660000Y260000D03*
X2690000Y-900000D03*
G54D15*
G01X-2161000Y1161200D02*
Y1259000D01*
G01D02*
X-2063200D01*
G01X-1399000Y907200D02*
Y1005000D01*
G01D02*
Y1102800D01*
G01X-1496800Y1005000D02*
X-1399000D01*
G01D02*
X-1301200D01*
G01X2714000Y-589800D02*
Y-492000D01*
G01D02*
Y-394200D01*
G01X2616200Y-492000D02*
X2714000D01*
G01D02*
X2811800D01*
G54D16*
G01X-2880000Y760000D02*
X-2740000Y620000D01*
Y590000D01*
X-2710000Y560000D01*
G01D02*
X-1620000D01*
X-1520000Y460000D01*
Y70000D01*
X-1600000Y-10000D01*
X-2130000D01*
X-2410000Y-290000D01*
Y-1150000D01*
X-2280000Y-1280000D01*
X-1770000D01*
G01X-1720000Y420000D02*
X-3050010D01*
X-3150000Y519990D01*
Y1253570D01*
X-3003570Y1400000D01*
X-2940010D01*
X-2912030Y1427980D01*
X-1821980D01*
X-1653000Y1259000D01*
G01X-2415000D02*
X-2611000D01*
G01D02*
X-2640000Y1230000D01*
Y1000000D01*
X-2880000Y760000D01*
G01X-2170000Y-950000D02*
Y-869520D01*
X-1570480Y-270000D01*
X-1490000D01*
G01X-1790000Y-890000D02*
X-1713080Y-966920D01*
Y-1223080D01*
X-1770000Y-1280000D01*
G01X-2070000Y710000D02*
X-2320000D01*
X-2415000Y805000D01*
Y1005000D01*
G01X-2161000Y1259000D02*
X-2415000D01*
G01X-1145000Y-265000D02*
Y-1225000D01*
X-1030000Y-1340000D01*
X550000D01*
X630000Y-1260000D01*
Y-1080000D01*
G01X-1490000Y-270000D02*
X-1409520D01*
X-1340000Y-200480D01*
Y290000D01*
G01D02*
Y530000D01*
X-1230000Y640000D01*
G01D02*
X-760000D01*
X-660000Y540000D01*
Y-20000D01*
G01X-1399000Y1005000D02*
X-1230000Y836000D01*
G01D02*
Y640000D01*
G01X-660000Y-20000D02*
Y-310000D01*
X-470000Y-500000D01*
X690000D01*
G01X-129000Y1005000D02*
Y599000D01*
X20000Y450000D01*
X2651700D01*
X2714000Y387700D01*
Y270000D01*
G01X379000Y1005000D02*
Y701000D01*
X490000Y590000D01*
X2790000D01*
X2910000Y470000D01*
Y70000D01*
X2856000Y16000D01*
X2714000D01*
G01X690000Y-500000D02*
X990000D01*
X1600000Y-1110000D01*
X2480000D01*
X2690000Y-900000D01*
G01X1140000Y-160000D02*
Y240000D01*
G01X2157000Y1005000D02*
Y887300D01*
X2194300Y850000D01*
X3070000D01*
X3130000Y790000D01*
Y-580000D01*
X2970000Y-740000D01*
X2180000D01*
X2100000Y-660000D01*
Y-300000D01*
X2162000Y-238000D01*
X2460000D01*
G01X1700000Y-200000D02*
X1756920Y-143080D01*
Y163080D01*
X1660000Y260000D01*
G01X1390000Y-150000D02*
Y250000D01*
G01X1903000Y1005000D02*
Y887300D01*
X2070300Y720000D01*
X2871430D01*
X3020000Y571430D01*
Y-98460D01*
X2880460Y-238000D01*
X2714000D01*
M02*
