G04 ================== begin FILE IDENTIFICATION RECORD ==================*
G04 Layout Name:  RPI_NRF24L01MODULE_FT232.brd*
G04 Film Name:    SM_BOT*
G04 File Format:  Gerber RS274X*
G04 File Origin:  Cadence Allegro 17.2-P019*
G04 Origin Date:  Wed Apr 05 14:08:42 2017*
G04 *
G04 Layer:  VIA CLASS/SOLDERMASK_BOTTOM*
G04 Layer:  PIN/SOLDERMASK_BOTTOM*
G04 Layer:  PACKAGE GEOMETRY/SOLDERMASK_BOTTOM*
G04 Layer:  BOARD GEOMETRY/DESIGN_OUTLINE*
G04 *
G04 Offset:    (0.0000 0.0000)*
G04 Mirror:    No*
G04 Mode:      Positive*
G04 Rotation:  0*
G04 FullContactRelief:  No*
G04 UndefLineWidth:     0.0000*
G04 ================== end FILE IDENTIFICATION RECORD ====================*
%FSLAX25Y25*MOMM*%
%IR0*IPPOS*OFA0.00000B0.00000*MIA0B0*SFA1.00000B1.00000*%
%ADD12C,1.5*%
%ADD10C,1.9*%
%ADD11R,1.8001X1.8001*%
%LPD*%
G75*
G54D10*
X-2415000Y1259000D03*
X-1653000D03*
Y1005000D03*
X-1907000Y1259000D03*
Y1005000D03*
X-2161000Y1259000D03*
Y1005000D03*
X-891000Y1259000D03*
Y1005000D03*
X-1145000Y1259000D03*
Y1005000D03*
X-1399000Y1259000D03*
Y1005000D03*
X-129000Y1259000D03*
Y1005000D03*
X-383000Y1259000D03*
Y1005000D03*
X-637000Y1259000D03*
Y1005000D03*
X633000Y1259000D03*
Y1005000D03*
X379000Y1259000D03*
Y1005000D03*
X125000Y1259000D03*
Y1005000D03*
X1395000Y1259000D03*
Y1005000D03*
X1141000Y1259000D03*
Y1005000D03*
X887000Y1259000D03*
Y1005000D03*
X2157000Y1259000D03*
Y1005000D03*
X1903000Y1259000D03*
Y1005000D03*
X1649000Y1259000D03*
Y1005000D03*
X2460000Y-492000D03*
X2714000Y-238000D03*
X2460000D03*
X2714000Y270000D03*
Y16000D03*
X2460000D03*
Y270000D03*
X2411000Y1259000D03*
Y1005000D03*
G54D11*
X-2415000D03*
X2714000Y-492000D03*
G54D12*
X-2880000Y760000D03*
X-2170000Y-950000D03*
X-1790000Y-890000D03*
X-1770000Y-1280000D03*
X-1720000Y420000D03*
X-2070000Y710000D03*
X-1145000Y-265000D03*
X-1490000Y-270000D03*
X-1340000Y290000D03*
X-1230000Y640000D03*
X-660000Y-20000D03*
X630000Y-1080000D03*
X690000Y-500000D03*
X1140000Y-160000D03*
X1390000Y-150000D03*
X1140000Y240000D03*
X1390000Y250000D03*
X1700000Y-200000D03*
X1660000Y260000D03*
X2690000Y-900000D03*
M02*
