G04 ================== begin FILE IDENTIFICATION RECORD ==================*
G04 Layout Name:  RPI_NRF24L01MODULE_FT232.brd*
G04 Film Name:    SM_TOP*
G04 File Format:  Gerber RS274X*
G04 File Origin:  Cadence Allegro 17.2-P019*
G04 Origin Date:  Wed Apr 05 14:08:42 2017*
G04 *
G04 Layer:  VIA CLASS/SOLDERMASK_TOP*
G04 Layer:  ROUTE KEEPIN/ALL*
G04 Layer:  PIN/SOLDERMASK_TOP*
G04 Layer:  PACKAGE GEOMETRY/SOLDERMASK_TOP*
G04 Layer:  BOARD GEOMETRY/SOLDERMASK_TOP*
G04 Layer:  BOARD GEOMETRY/DESIGN_OUTLINE*
G04 *
G04 Offset:    (0.0000 0.0000)*
G04 Mirror:    No*
G04 Mode:      Positive*
G04 Rotation:  0*
G04 FullContactRelief:  No*
G04 UndefLineWidth:     0.0000*
G04 ================== end FILE IDENTIFICATION RECORD ====================*
%FSLAX25Y25*MOMM*%
%IR0*IPPOS*OFA0.00000B0.00000*MIA0B0*SFA1.00000B1.00000*%
%ADD13R,2.7X.7*%
%ADD17R,.63X2.45*%
%ADD12R,2.7X2.2*%
%ADD11C,1.4*%
%ADD16C,1.5*%
%ADD15R,2.X2.*%
%ADD14C,1.9*%
%ADD10R,1.4X1.4*%
%ADD18R,1.651X1.651*%
%LPD*%
G75*
G54D10*
X-2550000Y-1290000D03*
Y-960000D03*
X-2710000Y-700000D03*
X-2500000D03*
X-2880000D03*
X-3090000D03*
X-1960000Y-1290000D03*
X-2170000D03*
X-2340000D03*
X-1770000D03*
X-2340000Y-960000D03*
X-2130000Y440000D03*
Y230000D03*
X-2045000Y710000D03*
X-1835000D03*
X-1180000Y-1290000D03*
X-1390000D03*
X-1560000D03*
X-1630000Y710000D03*
X-1420000D03*
X-560000Y-360000D03*
Y-570000D03*
X330000Y-1080000D03*
X615000D03*
X330000Y-870000D03*
X615000D03*
X470000Y-500000D03*
Y-290000D03*
X90000Y-510000D03*
Y-300000D03*
X1035000Y-1080000D03*
X1305000D03*
X1035000Y-870000D03*
X1305000D03*
X1815000Y-1080000D03*
X2115000D03*
X1815000Y-870000D03*
X2115000D03*
G54D11*
X-2710000Y-230000D03*
Y210000D03*
G54D12*
X-3000000Y-450000D03*
X-2450000D03*
X-3000000Y430000D03*
X-2450000D03*
G54D13*
X-2376380Y-170000D03*
Y-90000D03*
Y-10000D03*
Y70000D03*
Y150000D03*
G54D14*
X-2415000Y1259000D03*
X-1653000D03*
Y1005000D03*
X-1907000Y1259000D03*
Y1005000D03*
X-2161000Y1259000D03*
Y1005000D03*
X-891000Y1259000D03*
Y1005000D03*
X-1145000Y1259000D03*
Y1005000D03*
X-1399000Y1259000D03*
Y1005000D03*
X-129000Y1259000D03*
Y1005000D03*
X-383000Y1259000D03*
Y1005000D03*
X-637000Y1259000D03*
Y1005000D03*
X633000Y1259000D03*
Y1005000D03*
X379000Y1259000D03*
Y1005000D03*
X125000Y1259000D03*
Y1005000D03*
X1395000Y1259000D03*
Y1005000D03*
X1141000Y1259000D03*
Y1005000D03*
X887000Y1259000D03*
Y1005000D03*
X2157000Y1259000D03*
Y1005000D03*
X1903000Y1259000D03*
Y1005000D03*
X1649000Y1259000D03*
Y1005000D03*
X2460000Y-492000D03*
X2714000Y-238000D03*
X2460000D03*
X2714000Y270000D03*
Y16000D03*
X2460000D03*
Y270000D03*
X2411000Y1259000D03*
Y1005000D03*
G54D15*
X-2415000D03*
X2714000Y-492000D03*
G54D16*
X-2880000Y760000D03*
X-2170000Y-950000D03*
X-1790000Y-890000D03*
X-1770000Y-1280000D03*
X-1720000Y420000D03*
X-2070000Y710000D03*
X-1145000Y-265000D03*
X-1490000Y-270000D03*
X-1340000Y290000D03*
X-1230000Y640000D03*
X-660000Y-20000D03*
X630000Y-1080000D03*
X690000Y-500000D03*
X1140000Y-160000D03*
X1390000Y-150000D03*
X1140000Y240000D03*
X1390000Y250000D03*
X1700000Y-200000D03*
X1660000Y260000D03*
X2690000Y-900000D03*
G54D17*
X-1730000Y-690000D03*
X-1795000D03*
Y60000D03*
X-1730000D03*
X-950000Y-690000D03*
X-1015000D03*
X-1080000D03*
X-1145000D03*
X-1210000D03*
X-1275000D03*
X-1340000D03*
X-1405000D03*
X-1470000D03*
X-1535000D03*
X-1600000D03*
X-1665000D03*
Y60000D03*
X-1600000D03*
X-1535000D03*
X-1470000D03*
X-1405000D03*
X-1340000D03*
X-1275000D03*
X-1210000D03*
X-1145000D03*
X-1080000D03*
X-1015000D03*
X-950000D03*
G54D18*
X-240000Y-1030000D03*
Y-250000D03*
Y-50000D03*
X-660000D03*
X-240000Y730000D03*
X-660000D03*
M02*
