G04 ================== begin FILE IDENTIFICATION RECORD ==================*
G04 Layout Name:  RPI_NRF24L01MODULE_FT232.brd*
G04 Film Name:    TOP*
G04 File Format:  Gerber RS274X*
G04 File Origin:  Cadence Allegro 17.2-P019*
G04 Origin Date:  Wed Apr 05 14:08:42 2017*
G04 *
G04 Layer:  ETCH/TOP*
G04 Layer:  PIN/TOP*
G04 Layer:  VIA CLASS/TOP*
G04 *
G04 Offset:    (0.0000 0.0000)*
G04 Mirror:    No*
G04 Mode:      Positive*
G04 Rotation:  0*
G04 FullContactRelief:  No*
G04 UndefLineWidth:     0.0000*
G04 ================== end FILE IDENTIFICATION RECORD ====================*
%FSLAX25Y25*MOMM*%
%IR0*IPPOS*OFA0.00000B0.00000*MIA0B0*SFA1.00000B1.00000*%
%ADD14R,2.5X.5*%
%ADD18R,.43X2.25*%
%ADD13R,2.5X2.*%
%ADD17C,1.*%
%ADD12C,1.2*%
%ADD15C,1.6*%
%ADD11C,3.5*%
%ADD10R,1.2X1.2*%
%ADD19R,1.524X1.524*%
%ADD16R,1.5999X1.5999*%
%ADD20C,.3*%
%ADD21C,.5*%
%ADD24C,2.2004*%
%ADD22C,4.1004*%
%ADD23C,1.8004*%
%ADD25C,1.8544*%
G75*
%LPD*%
G75*
G36*
G01X-2955000Y-1454990D02*
G02X-3194990Y-1200000I17033J256462D01*
G01Y1200000D01*
G02X-2955000Y1454990I272167J-15726D01*
G01X-2641350D01*
G02X-2634160Y1437650I2J-10160D01*
G01X-2695020Y1376790D01*
Y1241360D01*
G02X-2714380Y1237050I-10160J2D01*
G03X-2976070Y959610I-185621J-87053D01*
G02X-2979840Y940020I-3772J-9432D01*
G01X-3072430D01*
X-3180020Y832430D01*
Y647570D01*
X-3108320Y575860D01*
G02X-3115500Y558520I-7185J-7182D01*
G01X-3125000D01*
G03X-3153520Y530000I0J-28520D01*
G01Y330000D01*
G03X-3125000Y301480I28520J0D01*
G01X-2875000D01*
G03X-2846480Y330000I0J28520D01*
G01Y519980D01*
X-2603520D01*
Y330000D01*
G03X-2575000Y301480I28520J0D01*
G01X-2525500D01*
G02X-2518320Y284140I-5J-10158D01*
G01X-2580020Y222430D01*
Y157570D01*
X-2528030Y105580D01*
X-2528840Y102710D01*
G03X-2529900Y95000I27461J-7703D01*
G01Y45000D01*
G03X-2525640Y30000I28521J-5D01*
G03X-2529900Y15000I24261J-14995D01*
G01Y-35000D01*
G03X-2525640Y-50000I28521J-5D01*
G03X-2529900Y-65000I24261J-14995D01*
G01Y-115000D01*
G03X-2513410Y-140860I28522J0D01*
G03X-2514100Y-145000I12031J-4133D01*
G01Y-195000D01*
G03X-2501380Y-207720I12720J0D01*
G01X-2251380D01*
G03X-2238660Y-195000I0J12720D01*
G01Y-145000D01*
G03X-2239350Y-140860I-12721J7D01*
G03X-2222860Y-115000I-12032J25860D01*
G01Y-65000D01*
G03X-2223160Y-60840I-28522J34D01*
G01X-2223220Y-60470D01*
Y-55020D01*
X-2088650D01*
X-2085020Y-58650D01*
Y-328650D01*
X-1968650Y-445020D01*
X-1848650D01*
X-1840020Y-453650D01*
Y-561310D01*
X-1840780Y-562530D01*
G03X-1845020Y-577500I24282J-14963D01*
G01Y-802500D01*
G03X-1838890Y-820170I28532J0D01*
G02X-1839720Y-827300I-3984J-3150D01*
G03X-1847320Y-834170I49749J-62674D01*
G01X-1848140Y-834980D01*
X-1893270D01*
X-2093270Y-1034980D01*
X-2257630D01*
G02X-2267570Y-1022680I-7J10161D01*
G03X-2267280Y-1020000I-12428J2700D01*
G01Y-900000D01*
G03X-2280000Y-887280I-12720J0D01*
G01X-2400000D01*
G03X-2407050Y-889410I0J-12732D01*
G01X-2408330Y-890270D01*
X-2414950D01*
Y-889960D01*
X-2463120D01*
X-2464530Y-887170D01*
G03X-2490000Y-871480I-25470J-12828D01*
G01X-2610000D01*
G03X-2638520Y-900000I0J-28520D01*
G01Y-1020000D01*
G03X-2631860Y-1038320I28527J0D01*
G01X-2605020Y-1070350D01*
Y-1179650D01*
X-2631860Y-1211680D01*
G03X-2638520Y-1230000I21867J-18320D01*
G01Y-1350000D01*
G03X-2630960Y-1369340I28518J0D01*
G01X-2605020Y-1397460D01*
Y-1403270D01*
X-2570640Y-1437650D01*
G02X-2577830Y-1454990I-7188J-7180D01*
G01X-2955000D01*
G37*
G36*
G01X-2468820Y-1072320D02*
X-2532320Y-1008820D01*
X-2556250Y-1065000D01*
Y-1115000D01*
X-2532320Y-1171180D01*
X-2468820Y-1107680D01*
G03Y-1072320I-17680J17680D01*
G37*
G36*
G01X-2538680Y-1402770D02*
X-2490000Y-1350000D01*
X-2550000Y-1283750D01*
X-2610000Y-1350000D01*
X-2561320Y-1402770D01*
G03X-2538680I11320J22290D01*
G37*
G36*
G01X-2562590Y-1173410D02*
X-2610000Y-1230000D01*
X-2550000Y-1296250D01*
X-2490000Y-1230000D01*
X-2537410Y-1173410D01*
G03X-2562590I-12590J-21600D01*
G37*
G36*
G01X-2537410Y-1076590D02*
X-2490000Y-1020000D01*
X-2550000Y-953750D01*
X-2610000Y-1020000D01*
X-2562590Y-1076590D01*
G03X-2537410I12590J21600D01*
G37*
G36*
G01X-2230000Y390000D02*
X-2296480Y456480D01*
Y530000D01*
G03X-2325000Y558520I-28520J0D01*
G01X-2575000D01*
G03X-2595330Y550000I0J-28515D01*
G01X-2854670D01*
G03X-2875000Y558520I-20330J-19995D01*
G01X-3048520D01*
X-3150000Y660000D01*
Y820000D01*
X-3060000Y910000D01*
X-2800000D01*
X-2750000Y860000D01*
Y790000D01*
X-2650000Y690000D01*
X-2210000D01*
X-2030000Y510000D01*
Y390000D01*
X-2057280D01*
Y500000D01*
G03X-2070000Y512720I-12720J0D01*
G01X-2190000D01*
G03X-2202720Y500000I0J-12720D01*
G01Y390000D01*
X-2230000D01*
G37*
G36*
G01X-2238660Y130000D02*
Y175000D01*
G03X-2251380Y187720I-12720J0D01*
G01X-2501380D01*
G03X-2514100Y175000I0J-12720D01*
G01Y158630D01*
G02X-2531440Y151440I-10160J-2D01*
G01X-2550000Y170000D01*
Y210000D01*
X-2490000Y270000D01*
X-2240000D01*
X-2220000Y290000D01*
X-2202720D01*
Y170000D01*
G03X-2190000Y157280I12720J0D01*
G01X-2070000D01*
G03X-2057280Y170000I0J12720D01*
G01Y290000D01*
X-2000000D01*
Y160000D01*
X-2030000Y130000D01*
X-2238660D01*
G37*
G36*
G01X-1742170Y-1454990D02*
G02X-1749360Y-1437650I-2J10160D01*
G01X-1714980Y-1403270D01*
Y-1397460D01*
X-1689040Y-1369340D01*
G03X-1684530Y-1362830I-20961J19339D01*
G01X-1683120Y-1360040D01*
X-1646880D01*
X-1645470Y-1362830D01*
G03X-1620000Y-1378520I25470J12828D01*
G01X-1500000D01*
G03X-1481680Y-1371860I0J28527D01*
G01X-1475000Y-1366260D01*
X-1468320Y-1371860D01*
G03X-1450000Y-1378520I18320J21867D01*
G01X-1330000D01*
G03X-1304530Y-1362830I0J28518D01*
G01X-1303120Y-1360040D01*
X-1266880D01*
X-1265470Y-1362830D01*
G03X-1240000Y-1378520I25470J12828D01*
G01X-1120000D01*
G03X-1091480Y-1350000I0J28520D01*
G01Y-1230000D01*
G03X-1114890Y-1201940I-28522J0D01*
G01X-1116430Y-1201660D01*
X-1134980Y-1183400D01*
Y-1180870D01*
X-1229980Y-1085870D01*
Y-831020D01*
X-1188500D01*
G03X-1162970Y-815220I0J28526D01*
G01X-1062030D01*
G03X-1036500Y-831020I25530J12726D01*
G01X-928500D01*
G03X-899980Y-802500I0J28520D01*
G01Y-577500D01*
G03X-928500Y-548980I-28520J0D01*
G01X-1036500D01*
G03X-1062030Y-564780I0J-28526D01*
G01X-1162970D01*
G03X-1188500Y-548980I-25530J-12726D01*
G01X-1361500D01*
G03X-1387030Y-564780I0J-28526D01*
G01X-1422970D01*
G03X-1448500Y-548980I-25530J-12726D01*
G01X-1556500D01*
G03X-1582030Y-564780I0J-28526D01*
G01X-1617970D01*
G03X-1643500Y-548980I-25530J-12726D01*
G01X-1684980D01*
Y-351350D01*
X-1741350Y-294980D01*
X-1871350D01*
X-1914980Y-251350D01*
Y28650D01*
X-2001940Y115610D01*
X-1969980Y147570D01*
Y320020D01*
X-2059960D01*
Y353120D01*
X-2057170Y354530D01*
G03X-2049690Y359980I-12832J25469D01*
G01X-1999980D01*
Y489090D01*
G02X-1982640Y496270I10159J-6D01*
G01X-1961350Y474980D01*
X-1798250D01*
G02X-1789440Y459770I-4J-10159D01*
G03X-1662420Y364430I69437J-39774D01*
G01X-1662380Y364470D01*
X-1651860Y374980D01*
X-1308650D01*
X-1255020Y321350D01*
Y201020D01*
X-1296500D01*
G03X-1322030Y185220I0J-28526D01*
G01X-1357970D01*
G03X-1383500Y201020I-25530J-12726D01*
G01X-1816500D01*
G03X-1845020Y172500I0J-28520D01*
G01Y-52500D01*
G03X-1816500Y-81020I28520J0D01*
G01X-1383500D01*
G03X-1357970Y-65220I0J28526D01*
G01X-1322030D01*
G03X-1296500Y-81020I25530J12726D01*
G01X-1190020D01*
Y-196860D01*
X-1200530Y-207380D01*
X-1200570Y-207420D01*
G03X-1089430I55570J-57580D01*
G01X-1089470Y-207380D01*
X-1099980Y-196860D01*
Y-81020D01*
X-928500D01*
G03X-899980Y-52500I0J28520D01*
G01Y37070D01*
X-899560Y38040D01*
G03X-895160Y55490I-50431J21996D01*
G01X-894780Y60150D01*
X-885020D01*
Y-569470D01*
X-369470Y-1085020D01*
X-366150D01*
X-344750Y-1107290D01*
X-344580Y-1109030D01*
G03X-316200Y-1134720I28380J2831D01*
G01X-163800D01*
G03X-135280Y-1106200I0J28520D01*
G01Y-953800D01*
G03X-142230Y-935140I-28525J0D01*
G01X-184980Y-885750D01*
Y-776730D01*
X-446730Y-514980D01*
X-452540D01*
X-480660Y-489040D01*
G03X-487170Y-484530I-19339J-20961D01*
G01X-489930Y-483140D01*
Y-434920D01*
X-490260D01*
Y-428330D01*
X-489410Y-427060D01*
G03X-487280Y-420020I-10605J7051D01*
G01Y-300000D01*
G03X-500000Y-287280I-12720J0D01*
G01X-620000D01*
G03X-632720Y-300000I0J-12720D01*
G01Y-420000D01*
G03X-630590Y-427050I12732J0D01*
G01X-629730Y-428330D01*
Y-434920D01*
X-630070D01*
Y-483140D01*
X-632830Y-484530D01*
G03X-648520Y-510000I12828J-25470D01*
G01Y-630000D01*
G03X-647370Y-638010I28519J7D01*
G01X-646530Y-640900D01*
X-652250Y-646620D01*
X-774980Y-523890D01*
Y712790D01*
X-1034980Y972790D01*
Y1005000D01*
G03X-1145000Y894980I-110020J0D01*
G01X-1112790D01*
X-885020Y667210D01*
Y657360D01*
G02X-902360Y650170I-10160J-2D01*
G01X-1130710Y878520D01*
X-2567210D01*
X-2584980Y896290D01*
Y1331210D01*
X-2561210Y1354980D01*
X-2550020D01*
Y1177570D01*
X-2502160Y1129710D01*
G02X-2505720Y1113030I-7185J-7186D01*
G03X-2525020Y1085000I10720J-28041D01*
G01Y925000D01*
G03X-2495000Y894980I30025J5D01*
G01X-2335000D01*
G03X-2304980Y925000I-5J30025D01*
G01Y1085000D01*
G03X-2311400Y1103540I-30021J-14D01*
G02X-2303420Y1119980I7987J6280D01*
G01X-2219790D01*
G02X-2214820Y1100960I2J-10159D01*
G03X-2128310Y1110050I53816J-95960D01*
G01X-2131880Y1111160D01*
Y1119980D01*
X-2107570D01*
X-2049980Y1177570D01*
Y1312430D01*
X-2069980Y1332430D01*
Y1342540D01*
G02X-2062000Y1358980I7984J6281D01*
G01X-1986850D01*
G02X-1980100Y1341230I1J-10158D01*
G03X-1833900I73100J-82230D01*
G02X-1827150Y1358980I6749J7592D01*
G01X-1732850D01*
G02X-1726100Y1341230I1J-10158D01*
G03X-1575980Y1337570I73100J-82228D01*
G02X-1568870Y1354980I7114J7252D01*
G01X-1470860D01*
G02X-1467270Y1346310I-4J-5080D01*
G01X-1475380Y1338190D01*
X-1475410Y1338160D01*
G03X-1322590I76410J-79160D01*
G01X-1322630Y1338200D01*
X-1343980Y1359570D01*
Y1395490D01*
X-1386140Y1437650D01*
G02X-1378950Y1454990I7188J7180D01*
G01X595650D01*
G02X602840Y1437650I2J-10160D01*
G01X577980Y1412790D01*
Y1359570D01*
X556630Y1338200D01*
X556590Y1338160D01*
G03X709410I76410J-79160D01*
G01X709370Y1338200D01*
X699940Y1347640D01*
G02X707130Y1364980I7188J7180D01*
G01X814470D01*
G02X820600Y1346720I-5J-10161D01*
G03X953400I66400J-87720D01*
G02X959530Y1364980I6135J8099D01*
G01X1068470D01*
G02X1074600Y1346720I-5J-10161D01*
G03X1207400I66400J-87720D01*
G02X1213530Y1364980I6135J8099D01*
G01X1322470D01*
G02X1328600Y1346720I-5J-10161D01*
G03X1461400I66400J-87720D01*
G02X1467530Y1364980I6135J8099D01*
G01X1576470D01*
G02X1582600Y1346720I-5J-10161D01*
G03X1715400I66400J-87720D01*
G02X1721530Y1364980I6135J8099D01*
G01X1830470D01*
G02X1836600Y1346720I-5J-10161D01*
G03X1969400I66400J-87720D01*
G02X1975530Y1364980I6135J8099D01*
G01X2084470D01*
G02X2090600Y1346720I-5J-10161D01*
G03X2223400I66400J-87720D01*
G02X2229530Y1364980I6135J8099D01*
G01X2338470D01*
G02X2344600Y1346720I-5J-10161D01*
G03X2477400I66400J-87720D01*
G02X2483530Y1364980I6135J8099D01*
G01X2584980D01*
Y612790D01*
X2404980Y432790D01*
Y370570D01*
X2383630Y349200D01*
X2383590Y349160D01*
G03X2536410I76410J-79160D01*
G01X2536370Y349200D01*
X2515020Y370570D01*
Y387210D01*
X2695020Y567210D01*
Y1058640D01*
G02X2714380Y1062950I10160J-2D01*
G03Y1237050I185620J87050D01*
G02X2695020Y1241360I-9200J4312D01*
G01Y1412790D01*
X2670160Y1437650D01*
G02X2677350Y1454990I7188J7180D01*
G01X2955000D01*
G02X3194990Y1200000I-16293J-255766D01*
G01Y-1215000D01*
G02X2955000Y-1454990I-247490J7500D01*
G01X-1742170D01*
G37*
G36*
G01X-2480000Y1150000D02*
X-2520000Y1190000D01*
Y1340000D01*
X-2510000Y1350000D01*
X-2478630D01*
G02X-2472350Y1331860I-4J-10159D01*
G03X-2357650I57350J-72860D01*
G02X-2351370Y1350000I6284J7981D01*
G01X-2224630D01*
G02X-2218350Y1331860I-4J-10159D01*
G03X-2089020Y1200550I57356J-72853D01*
G01X-2087500Y1202430D01*
X-2080000D01*
Y1190000D01*
X-2120000Y1150000D01*
X-2480000D01*
G37*
G36*
G01X-2223410Y-1277410D02*
X-2280000Y-1230000D01*
X-2346250Y-1290000D01*
X-2280000Y-1350000D01*
X-2223410Y-1302590D01*
G03Y-1277410I-21600J12590D01*
G37*
G36*
G01X-2286590Y-1302590D02*
X-2230000Y-1350000D01*
X-2163750Y-1290000D01*
X-2230000Y-1230000D01*
X-2286590Y-1277410D01*
G03Y-1302590I21600J-12590D01*
G37*
G36*
G01X-1969000Y-1173010D02*
X-2020000Y-1230000D01*
X-1960000Y-1293750D01*
X-1900000Y-1230000D01*
X-1951000Y-1173010D01*
G03X-1969000I-9000J-12000D01*
G37*
G36*
G01X-1758680Y-1402770D02*
X-1710000Y-1350000D01*
X-1770000Y-1283750D01*
X-1830000Y-1350000D01*
X-1781320Y-1402770D01*
G03X-1758680I11320J22290D01*
G37*
G36*
G01X-1729890Y-879390D02*
X-1754650Y-854650D01*
X-1793750Y-890000D01*
X-1754650Y-925350D01*
X-1729890Y-900610D01*
G03Y-879390I-10610J10610D01*
G37*
G36*
G01X-1843040Y-907680D02*
X-1825350Y-925350D01*
X-1783750Y-890000D01*
X-1825350Y-854650D01*
X-1843040Y-872320D01*
G03Y-907680I17680J-17680D01*
G37*
G36*
G01X-1022360Y476030D02*
X-1111350Y565020D01*
X-1924050D01*
X-1970100Y611060D01*
G02X-1968710Y626590I7187J7184D01*
G03X-1959530Y637170I-16292J23408D01*
G01X-1958120Y639960D01*
X-1921880D01*
X-1920470Y637170D01*
G03X-1895000Y621480I25470J12828D01*
G01X-1775000D01*
G03X-1756680Y628140I0J28527D01*
G01X-1732500Y648400D01*
X-1708320Y628140D01*
G03X-1690000Y621480I18320J21867D01*
G01X-1570000D01*
G03X-1544530Y637170I0J28518D01*
G01X-1543120Y639960D01*
X-1495000D01*
Y640300D01*
X-1488370D01*
X-1487090Y639440D01*
G03X-1480000Y637280I7090J10556D01*
G01X-1360000D01*
G03X-1347280Y650000I0J12720D01*
G01Y768480D01*
X-1176290D01*
X-1005020Y597210D01*
Y483220D01*
G02X-1022360Y476030I-10159J-4D01*
G37*
G36*
G01X-1659890Y430610D02*
X-1684650Y455350D01*
X-1723750Y420000D01*
X-1684650Y384650D01*
X-1659890Y409390D01*
G03Y430610I-10610J10610D01*
G37*
G36*
G01X-2227460Y75570D02*
X-2251380Y95000D01*
X-2380130Y70000D01*
X-2251380Y45000D01*
X-2227460Y64430D01*
G03Y75570I-13930J5570D01*
G37*
G36*
G01Y-4430D02*
X-2251380Y15000D01*
X-2380130Y-10000D01*
X-2251380Y-35000D01*
X-2227460Y-15570D01*
G03Y-4430I-13930J5570D01*
G37*
G36*
G01X-1718410Y722590D02*
X-1775000Y770000D01*
X-1841250Y710000D01*
X-1775000Y650000D01*
X-1718410Y697410D01*
G03Y722590I-21600J12590D01*
G37*
G36*
G01X-1746590Y697410D02*
X-1690000Y650000D01*
X-1623750Y710000D01*
X-1690000Y770000D01*
X-1746590Y722590D01*
G03Y697410I21600J-12590D01*
G37*
G36*
G01X-2037610Y609250D02*
X-1996080Y650000D01*
X-2045000Y713750D01*
X-2093920Y650000D01*
X-2052390Y609250D01*
G03X-2037610I7390J13050D01*
G37*
G36*
G01X-1443410Y-1277410D02*
X-1500000Y-1230000D01*
X-1566250Y-1290000D01*
X-1500000Y-1350000D01*
X-1443410Y-1302590D01*
G03Y-1277410I-21600J12590D01*
G37*
G36*
G01X-1506590Y-1302590D02*
X-1450000Y-1350000D01*
X-1383750Y-1290000D01*
X-1450000Y-1230000D01*
X-1506590Y-1277410D01*
G03Y-1302590I21600J-12590D01*
G37*
G36*
G01X-1187620Y-1186600D02*
X-1231700Y-1230000D01*
X-1180000Y-1293750D01*
X-1128300Y-1230000D01*
X-1172380Y-1186600D01*
G03X-1187620I-7620J-12920D01*
G37*
G36*
G01X-1155610Y-204890D02*
X-1180350Y-229650D01*
X-1145000Y-268750D01*
X-1109650Y-229650D01*
X-1134390Y-204890D01*
G03X-1155610I-10610J-10610D01*
G37*
G36*
G01X-1303410Y722590D02*
X-1360000Y770000D01*
X-1426250Y710000D01*
X-1360000Y650000D01*
X-1303410Y697410D01*
G03Y722590I-21600J12590D01*
G37*
G36*
G01X-1065000Y950000D02*
Y1005000D01*
X-1149420Y1009420D01*
X-1145000Y925000D01*
X-1090000D01*
G03X-1065000Y950000I0J25000D01*
G37*
G36*
G01X-1416680Y1354460D02*
X-1455560Y1315560D01*
X-1399000Y1252750D01*
X-1342440Y1315560D01*
X-1381320Y1354460D01*
G03X-1416680I-17680J-17680D01*
G37*
G36*
G01X-253940Y-881860D02*
X-316200Y-953800D01*
X-240000Y-1036250D01*
X-163800Y-953800D01*
X-226060Y-881860D01*
G03X-253940I-13940J-20750D01*
G37*
G36*
G01X-369370Y-1040500D02*
X-316200Y-1095840D01*
X-233750Y-1030000D01*
X-316200Y-964160D01*
X-369370Y-1019500D01*
G03Y-1040500I22690J-10500D01*
G37*
G36*
G01X-447230Y-558680D02*
X-500000Y-510000D01*
X-566250Y-570000D01*
X-500000Y-630000D01*
X-447230Y-581320D01*
G03Y-558680I-22290J11320D01*
G37*
G36*
G01X615320Y1354460D02*
X576440Y1315560D01*
X633000Y1252750D01*
X689560Y1315560D01*
X650680Y1354460D01*
G03X615320I-17680J-17680D01*
G37*
G36*
G01X2442320Y365460D02*
X2403440Y326560D01*
X2460000Y263750D01*
X2516560Y326560D01*
X2477680Y365460D01*
G03X2442320I-17680J-17680D01*
G37*
%LPC*%
G75*
G36*
G01X-2440000Y-788520D02*
X-2560000D01*
G02X-2585470Y-772830I0J28518D01*
G01X-2586880Y-770040D01*
X-2635050D01*
Y-769730D01*
X-2641670D01*
X-2642950Y-770590D01*
G02X-2650000Y-772720I-7050J10602D01*
G01X-2770000D01*
G02X-2782720Y-760000I0J12720D01*
G01Y-640000D01*
G02X-2770000Y-627280I12720J0D01*
G01X-2650000D01*
G02X-2642950Y-629410I0J-12732D01*
G01X-2641670Y-630270D01*
X-2635050D01*
Y-629960D01*
X-2586880D01*
X-2585470Y-627170D01*
G02X-2562340Y-611580I25468J-12832D01*
G01X-2560490Y-611420D01*
X-2543950Y-595000D01*
X-2560590Y-578520D01*
X-2575000D01*
G02X-2603520Y-550000I0J28520D01*
G01Y-350000D01*
G02X-2575000Y-321480I28520J0D01*
G01X-2325000D01*
G02X-2296480Y-350000I0J-28520D01*
G01Y-550000D01*
G02X-2325000Y-578520I-28520J0D01*
G01X-2339410D01*
X-2394980Y-633560D01*
Y-672790D01*
X-2405150Y-682960D01*
X-2411570Y-762300D01*
G02X-2440000Y-788520I-28430J2303D01*
G37*
G36*
G01X-3030000D02*
X-3150000D01*
G02X-3178520Y-760000I0J28520D01*
G01Y-640000D01*
G02X-3171860Y-621680I28527J0D01*
G01X-3145020Y-589650D01*
Y-577150D01*
X-3145470Y-569930D01*
X-3146590Y-568640D01*
G02X-3153520Y-550000I21604J18640D01*
G01Y-350000D01*
G02X-3125000Y-321480I28520J0D01*
G01X-2875000D01*
G02X-2846480Y-350000I0J-28520D01*
G01Y-550000D01*
G02X-2875000Y-578520I-28520J0D01*
G01X-2979420D01*
X-3014880Y-613640D01*
X-3008140Y-621680D01*
G02X-3004530Y-627170I-21866J-18310D01*
G01X-3003120Y-629960D01*
X-2954950D01*
Y-630270D01*
X-2948330D01*
X-2947050Y-629410D01*
G02X-2940000Y-627280I7050J-10602D01*
G01X-2820000D01*
G02X-2807280Y-640000I0J-12720D01*
G01Y-760000D01*
G02X-2820000Y-772720I-12720J0D01*
G01X-2940000D01*
G02X-2952180Y-763660I0J12717D01*
G01X-2953270Y-760040D01*
X-3001150D01*
X-3001810Y-764350D01*
G02X-3030000Y-788520I-28190J4354D01*
G37*
G36*
G01X530000Y-572720D02*
X410000D01*
G02X397280Y-560000I0J12720D01*
G01Y-440000D01*
G02X399410Y-432950I12732J0D01*
G01X400270Y-431670D01*
Y-425080D01*
X399930D01*
Y-376860D01*
X397170Y-375470D01*
G02X381480Y-350000I12828J25470D01*
G01Y-230000D01*
G02X388140Y-211680I28527J0D01*
G01X414980Y-179650D01*
Y7210D01*
X217210Y204980D01*
X-2790D01*
X-295020Y497210D01*
Y585750D01*
X-337770Y635140D01*
G02X-342370Y642460I21570J18660D01*
G01X-342740Y643320D01*
X-373540Y674980D01*
X-376690D01*
X-404690Y702980D01*
X-412790D01*
X-604790Y894980D01*
X-637000D01*
G02X-526980Y1005000I0J110020D01*
G01Y972790D01*
X-367210Y813020D01*
X-359110D01*
X-352620Y806530D01*
X-342740Y816680D01*
X-342370Y817540D01*
G02X-316200Y834720I26170J-11342D01*
G01X-163800D01*
G02X-135280Y806200I0J-28520D01*
G01Y653800D01*
G02X-142230Y635140I-28525J0D01*
G01X-184980Y585750D01*
Y542790D01*
X42790Y315020D01*
X262790D01*
X525020Y52790D01*
Y-179650D01*
X551860Y-211680D01*
G02X558520Y-230000I-21867J-18320D01*
G01Y-350000D01*
G02X542830Y-375470I-28518J0D01*
G01X540070Y-376860D01*
Y-425080D01*
X539740D01*
Y-431670D01*
X540590Y-432940D01*
G02X542720Y-439980I-10605J-7051D01*
G01Y-560000D01*
G02X539970Y-567900I-12722J0D01*
G01X539060Y-569060D01*
X537900Y-569970D01*
G02X530000Y-572720I-7900J9972D01*
G37*
G36*
G01X418520Y-859290D02*
Y-873660D01*
G03X435860Y-880850I10160J-2D01*
G01X501730Y-814980D01*
X507540D01*
X535660Y-789040D01*
G02X555000Y-781480I19340J-20958D01*
G01X675000D01*
G02X703520Y-810000I0J-28520D01*
G01Y-930000D01*
G02X687830Y-955470I-28518J0D01*
G01X685040Y-956880D01*
Y-993120D01*
X687830Y-994530D01*
G02X703520Y-1020000I-12828J-25470D01*
G01Y-1047380D01*
X703910Y-1049320D01*
Y-1049330D01*
G02Y-1110670I-73910J-30670D01*
G01X703520Y-1111610D01*
Y-1140000D01*
G02X696860Y-1158320I-28527J0D01*
G01X673730Y-1185920D01*
X742790Y-1254980D01*
X1052210D01*
X1216480Y-1090710D01*
Y-1083590D01*
G03X1207810Y-1080000I-5080J-4D01*
G01X1152790Y-1135020D01*
X1145350D01*
X1113320Y-1161860D01*
G02X1095000Y-1168520I-18320J21867D01*
G01X975000D01*
G02X946480Y-1140000I0J28520D01*
G01Y-1020000D01*
G02X962170Y-994530I28518J0D01*
G01X964960Y-993120D01*
Y-956880D01*
X962170Y-955470D01*
G02X946480Y-930000I12828J25470D01*
G01Y-810000D01*
G02X975000Y-781480I28520J0D01*
G01X1045710D01*
X1214980Y-612210D01*
Y-247210D01*
X1309980Y-152210D01*
Y-150000D01*
G02X1390000Y-230020I80020J0D01*
G01X1387790D01*
X1325020Y-292790D01*
Y-657790D01*
X1123520Y-859290D01*
Y-870930D01*
G03X1132190Y-874520I5080J4D01*
G01X1191730Y-814980D01*
X1197540D01*
X1225660Y-789040D01*
G02X1245000Y-781480I19340J-20958D01*
G01X1365000D01*
G02X1393520Y-810000I0J-28520D01*
G01Y-930000D01*
G02X1377830Y-955470I-28518J0D01*
G01X1375040Y-956880D01*
Y-993120D01*
X1377830Y-994530D01*
G02X1393520Y-1020000I-12828J-25470D01*
G01Y-1090710D01*
X1517790Y-1214980D01*
X2037210D01*
X2059960Y-1192230D01*
Y-1190320D01*
X2033140Y-1158320D01*
G02X2026480Y-1140000I21867J18320D01*
G01Y-1020000D01*
G02X2042170Y-994530I28518J0D01*
G01X2044960Y-993120D01*
Y-956880D01*
X2042170Y-955470D01*
G02X2035660Y-950960I12829J25471D01*
G01X2028230Y-944100D01*
X2015020Y-957310D01*
Y-1052790D01*
X1932790Y-1135020D01*
X1925350D01*
X1893320Y-1161860D01*
G02X1875000Y-1168520I-18320J21867D01*
G01X1755000D01*
G02X1726480Y-1140000I0J28520D01*
G01Y-1020000D01*
G02X1742170Y-994530I28518J0D01*
G01X1744960Y-993120D01*
Y-956880D01*
X1742170Y-955470D01*
G02X1726480Y-930000I12828J25470D01*
G01Y-810000D01*
G02X1733140Y-791680I28527J0D01*
G01X1759980Y-759650D01*
Y-337790D01*
X1702210Y-280020D01*
X1700000D01*
G02X1780020Y-200000I0J80020D01*
G01Y-202210D01*
X1870020Y-292210D01*
Y-759650D01*
X1896860Y-791680D01*
G02X1903520Y-810000I-21867J-18320D01*
G01Y-888660D01*
G03X1920860Y-895850I10160J-2D01*
G01X2001730Y-814980D01*
X2007540D01*
X2035660Y-789040D01*
G02X2055000Y-781480I19340J-20958D01*
G01X2175000D01*
G02X2203520Y-810000I0J-28520D01*
G01Y-930000D01*
G02X2187830Y-955470I-28518J0D01*
G01X2185040Y-956880D01*
Y-993130D01*
X2187840Y-994530D01*
G02X2193320Y-998140I-12847J-25466D01*
G01X2225350Y-1024980D01*
X2327210D01*
X2404980Y-947210D01*
Y-592570D01*
X2383630Y-571200D01*
X2383590Y-571160D01*
G02X2536410I76410J79160D01*
G01X2536370Y-571200D01*
X2515020Y-592570D01*
Y-992790D01*
X2372790Y-1135020D01*
X2225350D01*
X2195250Y-1160250D01*
X2170040Y-1190330D01*
Y-1215000D01*
G02X2170020Y-1216480I-55040J4D01*
G01Y-1237790D01*
X2154950Y-1252860D01*
G02X2152860Y-1254950I-39950J37860D01*
G01X2082790Y-1325020D01*
X1472210D01*
X1315710Y-1168520D01*
X1294290D01*
X1097790Y-1365020D01*
X697210D01*
X559980Y-1227790D01*
Y-1190350D01*
X533140Y-1158320D01*
G02X526480Y-1140000I21867J18320D01*
G01Y-1020000D01*
G02X542170Y-994530I28518J0D01*
G01X544960Y-993120D01*
Y-956880D01*
X542170Y-955470D01*
G02X535660Y-950960I12829J25471D01*
G01X528230Y-944100D01*
X515020Y-957310D01*
Y-1072790D01*
X452790Y-1135020D01*
X440350D01*
X408320Y-1161860D01*
G02X390000Y-1168520I-18320J21867D01*
G01X270000D01*
G02X241480Y-1140000I0J28520D01*
G01Y-1020000D01*
G02X257170Y-994530I28518J0D01*
G01X259960Y-993120D01*
Y-956880D01*
X257170Y-955470D01*
G02X241480Y-930000I12828J25470D01*
G01Y-810000D01*
G02X270000Y-781480I28520J0D01*
G01X340710D01*
X557210Y-564980D01*
X824980D01*
Y-497210D01*
X1084980Y-237210D01*
Y-218140D01*
X1084170Y-217320D01*
G02X1195830I55830J57320D01*
G01X1195020Y-218140D01*
Y-282790D01*
X935020Y-542790D01*
Y-612790D01*
X872790Y-675020D01*
X602790D01*
X418520Y-859290D01*
G37*
G36*
G01X2621280Y-572000D02*
Y-412000D01*
G02X2634000Y-399280I12725J-5D01*
G01X2794000D01*
G02X2806720Y-412000I-5J-12725D01*
G01Y-572000D01*
G02X2794000Y-584720I-12725J5D01*
G01X2634000D01*
G02X2621280Y-572000I5J12725D01*
G37*
G36*
G01X-328920Y-326200D02*
Y-173800D01*
G02X-316200Y-161080I12720J0D01*
G01X-163800D01*
G02X-151080Y-173800I0J-12720D01*
G01Y-326200D01*
G02X-163800Y-338920I-12720J0D01*
G01X-316200D01*
G02X-328920Y-326200I0J12720D01*
G37*
G36*
G01X1604170Y317320D02*
X1604980Y318140D01*
Y863510D01*
X1593980Y874510D01*
Y904430D01*
X1572350Y926080D01*
X1572320Y926100D01*
G02X1725680I76680J78900D01*
G01X1725650Y926080D01*
X1711850Y912260D01*
X1715020Y909090D01*
Y318140D01*
X1715830Y317320D01*
G02X1604170I-55830J-57320D01*
G37*
G36*
G01X1334170Y307320D02*
X1334980Y308140D01*
Y909440D01*
X1318350Y926080D01*
X1318320Y926100D01*
G02X1471680I76680J78900D01*
G01X1471650Y926080D01*
X1450020Y904430D01*
Y874510D01*
X1445020Y869510D01*
Y308140D01*
X1445830Y307320D01*
G02X1334170I-55830J-57320D01*
G37*
G36*
G01X1059980Y240000D02*
Y242210D01*
X1007850Y294340D01*
Y949660D01*
X1030980Y972790D01*
Y1005000D01*
G02X1141000Y894980I110020J0D01*
G01X1117890D01*
Y339920D01*
X1137790Y320020D01*
X1140000D01*
G02X1059980Y240000I0J-80020D01*
G37*
G36*
G01X2381100Y-60680D02*
X2381080Y-60650D01*
X2359430Y-39020D01*
X757230D01*
X69980Y648230D01*
Y904430D01*
X48350Y926080D01*
X48320Y926100D01*
G02X201680I76680J78900D01*
G01X201650Y926080D01*
X180020Y904430D01*
Y693810D01*
X802810Y71020D01*
X2359430D01*
X2381080Y92650D01*
X2381100Y92680D01*
G02Y-60680I78900J-76680D01*
G37*
G36*
G01X-583800Y-138920D02*
X-736200D01*
G02X-748920Y-126200I0J12720D01*
G01Y26200D01*
G02X-736200Y38920I12720J0D01*
G01X-681520D01*
X-680700Y39200D01*
G02X-639300I20700J-59200D01*
G01X-638480Y38920D01*
X-583800D01*
G02X-571080Y26200I0J-12720D01*
G01Y-126200D01*
G02X-583800Y-138920I-12720J0D01*
G37*
G36*
G01X150000Y-582720D02*
X30000D01*
G02X17280Y-570000I0J12720D01*
G01Y-450000D01*
G02X19410Y-442950I12732J0D01*
G01X20270Y-441670D01*
Y-435050D01*
X19960D01*
Y-386880D01*
X17170Y-385470D01*
G02X1480Y-360000I12828J25470D01*
G01Y-240000D01*
G02X8140Y-221680I28527J0D01*
G01X34980Y-189650D01*
Y-32790D01*
X-22790Y24980D01*
X-151080D01*
Y-126200D01*
G02X-163800Y-138920I-12720J0D01*
G01X-316200D01*
G02X-328920Y-126200I0J12720D01*
G01Y24980D01*
X-432790D01*
X-605020Y197210D01*
Y597210D01*
X-633090Y625280D01*
X-736200D01*
G02X-764720Y653800I0J28520D01*
G01Y756910D01*
X-810020Y802210D01*
Y846210D01*
X-858790Y894980D01*
X-891000D01*
G02X-780980Y1005000I0J110020D01*
G01Y972790D01*
X-699980Y891790D01*
Y847790D01*
X-686910Y834720D01*
X-583800D01*
G02X-555280Y806200I0J-28520D01*
G01Y703090D01*
X-494980Y642790D01*
Y242790D01*
X-387210Y135020D01*
X22790D01*
X145020Y12790D01*
Y-189650D01*
X171860Y-221680D01*
G02X178520Y-240000I-21867J-18320D01*
G01Y-360000D01*
G02X162830Y-385470I-28518J0D01*
G01X160040Y-386880D01*
Y-435050D01*
X159730D01*
Y-441670D01*
X160590Y-442950D01*
G02X162720Y-450000I-10602J-7050D01*
G01Y-570000D01*
G02X150000Y-582720I-12720J0D01*
G37*
G54D24*
X-1653000Y1005000D03*
X-1907000D03*
X-891000Y1259000D03*
X-1145000D03*
X-129000D03*
Y1005000D03*
X-383000Y1259000D03*
Y1005000D03*
X-637000Y1259000D03*
X633000Y1005000D03*
X379000Y1259000D03*
Y1005000D03*
X125000Y1259000D03*
X887000Y1005000D03*
X2157000D03*
X1903000D03*
X2714000Y-238000D03*
X2460000D03*
X2714000Y270000D03*
Y16000D03*
X2411000Y1005000D03*
G54D22*
X-2900000Y-1150000D03*
X2900000D03*
G54D23*
X-2710000Y-230000D03*
Y210000D03*
G54D25*
X-1399000Y1005000D03*
%LPD*%
G75*
G36*
G01X-2763410Y-687410D02*
X-2820000Y-640000D01*
X-2886250Y-700000D01*
X-2820000Y-760000D01*
X-2763410Y-712590D01*
G03Y-687410I-21600J12590D01*
G37*
G36*
G01X-2826590Y-712590D02*
X-2770000Y-760000D01*
X-2703750Y-700000D01*
X-2770000Y-640000D01*
X-2826590Y-687410D01*
G03Y-712590I21600J-12590D01*
G37*
G36*
G01X-3102590Y-583410D02*
X-3150000Y-640000D01*
X-3090000Y-706250D01*
X-3030000Y-640000D01*
X-3077410Y-583410D01*
G03X-3102590I-12590J-21600D01*
G37*
G36*
G01X-3076490Y-634530D02*
X-2991140Y-549990D01*
X-2996990Y-444520D01*
X-3119620Y-526340D01*
X-3113670Y-621540D01*
G03X-3076490Y-634530I23669J8042D01*
G37*
G36*
G01X-2436490D02*
X-2351140Y-550000D01*
X-2450000Y-443750D01*
X-2548860Y-550000D01*
X-2463510Y-634530D01*
G03X-2436490I13510J21030D01*
G37*
G36*
G01X-2464020Y-555800D02*
X-2559610Y-650750D01*
X-2502350Y-705790D01*
X-2440000Y-760000D01*
X-2425040Y-575140D01*
G03X-2464020Y-555800I-24962J-1360D01*
G37*
G36*
G01X-2830000Y735000D02*
Y760000D01*
X-2884420Y764420D01*
X-2880000Y710000D01*
X-2855000D01*
G03X-2830000Y735000I0J25000D01*
G37*
G36*
G01X-2223040Y-967680D02*
X-2205350Y-985350D01*
X-2163750Y-950000D01*
X-2205350Y-914650D01*
X-2223040Y-932320D01*
G03Y-967680I17680J-17680D01*
G37*
G36*
G01X-1329390Y229890D02*
X-1304650Y254650D01*
X-1340000Y293750D01*
X-1375350Y254650D01*
X-1350610Y229890D01*
G03X-1329390I10610J10610D01*
G37*
G36*
G01X-1280000Y665000D02*
Y640000D01*
X-1225580Y635580D01*
X-1230000Y690000D01*
X-1255000D01*
G03X-1280000Y665000I0J-25000D01*
G37*
G36*
G01X-388140Y-263940D02*
X-316200Y-326200D01*
X-233750Y-250000D01*
X-316200Y-173800D01*
X-388140Y-236060D01*
G03Y-263940I20750J-13940D01*
G37*
G36*
G01X-646060Y-198140D02*
X-583800Y-126200D01*
X-660000Y-43750D01*
X-736200Y-126200D01*
X-673940Y-198140D01*
G03X-646060I13940J20750D01*
G37*
G36*
G01X-511860Y-36060D02*
X-583800Y26200D01*
X-666250Y-50000D01*
X-583800Y-126200D01*
X-511860Y-63940D01*
G03Y-36060I-20750J13940D01*
G37*
G36*
G01X-388140Y-63940D02*
X-316200Y-126200D01*
X-233750Y-50000D01*
X-316200Y26200D01*
X-388140Y-36060D01*
G03Y-63940I20750J-13940D01*
G37*
G36*
G01X-376120Y718540D02*
X-316200Y656940D01*
X-233750Y730000D01*
X-316200Y803060D01*
X-376120Y741460D01*
G03Y718540I22220J-11460D01*
G37*
G36*
G01X-226060Y581860D02*
X-163800Y653800D01*
X-240000Y736250D01*
X-316200Y653800D01*
X-253940Y581860D01*
G03X-226060I13940J20750D01*
G37*
G36*
G01X-557000Y950000D02*
Y1005000D01*
X-641420Y1009420D01*
X-637000Y925000D01*
X-582000D01*
G03X-557000Y950000I0J25000D01*
G37*
G36*
G01X-811000D02*
Y1005000D01*
X-895420Y1009420D01*
X-891000Y925000D01*
X-836000D01*
G03X-811000Y950000I0J25000D01*
G37*
G36*
G01X627590Y-1196590D02*
X675000Y-1140000D01*
X615000Y-1073750D01*
X555000Y-1140000D01*
X602410Y-1196590D01*
G03X627590I12590J21600D01*
G37*
G36*
G01X446590Y-1067410D02*
X390000Y-1020000D01*
X323750Y-1080000D01*
X390000Y-1140000D01*
X446590Y-1092590D01*
G03Y-1067410I-21600J12590D01*
G37*
G36*
G01X586590Y-487410D02*
X530000Y-440000D01*
X463750Y-500000D01*
X530000Y-560000D01*
X586590Y-512590D01*
G03Y-487410I-21600J12590D01*
G37*
G36*
G01X206590Y-497410D02*
X150000Y-450000D01*
X83750Y-510000D01*
X150000Y-570000D01*
X206590Y-522590D01*
G03Y-497410I-21600J12590D01*
G37*
G36*
G01X-26590Y-522590D02*
X30000Y-570000D01*
X96250Y-510000D01*
X30000Y-450000D01*
X-26590Y-497410D01*
G03Y-522590I21600J-12590D01*
G37*
G36*
G01X502230Y-881320D02*
X555000Y-930000D01*
X621250Y-870000D01*
X555000Y-810000D01*
X502230Y-858680D01*
G03Y-881320I22290J-11320D01*
G37*
G36*
G01X457410Y-173410D02*
X410000Y-230000D01*
X470000Y-296250D01*
X530000Y-230000D01*
X482590Y-173410D01*
G03X457410I-12590J-21600D01*
G37*
G36*
G01X77410Y-183410D02*
X30000Y-240000D01*
X90000Y-306250D01*
X150000Y-240000D01*
X102590Y-183410D01*
G03X77410I-12590J-21600D01*
G37*
G36*
G01X142680Y909540D02*
X181560Y948440D01*
X125000Y1011250D01*
X68440Y948440D01*
X107320Y909540D01*
G03X142680I17680J17680D01*
G37*
G36*
G01X1151590Y-1067410D02*
X1095000Y-1020000D01*
X1028750Y-1080000D01*
X1095000Y-1140000D01*
X1151590Y-1092590D01*
G03Y-1067410I-21600J12590D01*
G37*
G36*
G01X636960Y-517680D02*
X654650Y-535350D01*
X696250Y-500000D01*
X654650Y-464650D01*
X636960Y-482320D01*
G03Y-517680I17680J-17680D01*
G37*
G36*
G01X1157680Y-213040D02*
X1175350Y-195350D01*
X1140000Y-153750D01*
X1104650Y-195350D01*
X1122320Y-213040D01*
G03X1157680I17680J17680D01*
G37*
G36*
G01X1192230Y-881320D02*
X1245000Y-930000D01*
X1311250Y-870000D01*
X1245000Y-810000D01*
X1192230Y-858680D01*
G03Y-881320I22290J-11320D01*
G37*
G36*
G01X1090000Y265000D02*
Y240000D01*
X1144420Y235580D01*
X1140000Y290000D01*
X1115000D01*
G03X1090000Y265000I0J-25000D01*
G37*
G36*
G01X1086000Y925000D02*
X1141000D01*
X1145420Y1009420D01*
X1061000Y1005000D01*
Y950000D01*
G03X1086000Y925000I25000J0D01*
G37*
G36*
G01X2127590Y-1196590D02*
X2175000Y-1140000D01*
X2115000Y-1073750D01*
X2055000Y-1140000D01*
X2102410Y-1196590D01*
G03X2127590I12590J21600D01*
G37*
G36*
G01X1931590Y-1067410D02*
X1875000Y-1020000D01*
X1808750Y-1080000D01*
X1875000Y-1140000D01*
X1931590Y-1092590D01*
G03Y-1067410I-21600J12590D01*
G37*
G36*
G01X2002230Y-881320D02*
X2055000Y-930000D01*
X2121250Y-870000D01*
X2055000Y-810000D01*
X2002230Y-858680D01*
G03Y-881320I22290J-11320D01*
G37*
G36*
G01X1365000Y-200000D02*
X1390000D01*
X1394420Y-145580D01*
X1340000Y-150000D01*
Y-175000D01*
G03X1365000Y-200000I25000J0D01*
G37*
G36*
G01X1750000Y-225000D02*
Y-200000D01*
X1695580Y-195580D01*
X1700000Y-250000D01*
X1725000D01*
G03X1750000Y-225000I0J25000D01*
G37*
G36*
G01X1802410Y-753410D02*
X1755000Y-810000D01*
X1815000Y-876250D01*
X1875000Y-810000D01*
X1827590Y-753410D01*
G03X1802410I-12590J-21600D01*
G37*
G36*
G01X1372320Y303040D02*
X1354650Y285350D01*
X1390000Y243750D01*
X1425350Y285350D01*
X1407680Y303040D01*
G03X1372320I-17680J-17680D01*
G37*
G36*
G01X1642320Y313040D02*
X1624650Y295350D01*
X1660000Y253750D01*
X1695350Y295350D01*
X1677680Y313040D01*
G03X1642320I-17680J-17680D01*
G37*
G36*
G01X1412680Y909540D02*
X1451560Y948440D01*
X1395000Y1011250D01*
X1338440Y948440D01*
X1377320Y909540D01*
G03X1412680I17680J17680D01*
G37*
G36*
G01X1666680D02*
X1705560Y948440D01*
X1649000Y1011250D01*
X1592440Y948440D01*
X1631320Y909540D01*
G03X1666680I17680J17680D01*
G37*
G36*
G01X2231590Y-1067410D02*
X2175000Y-1020000D01*
X2108750Y-1080000D01*
X2175000Y-1140000D01*
X2231590Y-1092590D01*
G03Y-1067410I-21600J12590D01*
G37*
G36*
G01X2477680Y-587460D02*
X2516560Y-548560D01*
X2460000Y-485750D01*
X2403440Y-548560D01*
X2442320Y-587460D01*
G03X2477680I17680J17680D01*
G37*
G36*
G01X2679390Y-839890D02*
X2654650Y-864650D01*
X2690000Y-903750D01*
X2725350Y-864650D01*
X2700610Y-839890D01*
G03X2679390I-10610J-10610D01*
G37*
G36*
G01X2364540Y-1680D02*
X2403440Y-40560D01*
X2466250Y16000D01*
X2403440Y72560D01*
X2364540Y33680D01*
G03Y-1680I17680J-17680D01*
G37*
G54D10*
X-2550000Y-1290000D03*
Y-960000D03*
X-2710000Y-700000D03*
X-2500000D03*
X-2880000D03*
X-3090000D03*
X-1960000Y-1290000D03*
X-2170000D03*
X-2340000D03*
X-1770000D03*
X-2340000Y-960000D03*
X-2130000Y440000D03*
Y230000D03*
X-2045000Y710000D03*
X-1835000D03*
X-1180000Y-1290000D03*
X-1390000D03*
X-1560000D03*
X-1630000Y710000D03*
X-1420000D03*
X-560000Y-360000D03*
Y-570000D03*
X330000Y-1080000D03*
X615000D03*
X330000Y-870000D03*
X615000D03*
X470000Y-500000D03*
Y-290000D03*
X90000Y-510000D03*
Y-300000D03*
X1035000Y-1080000D03*
X1305000D03*
X1035000Y-870000D03*
X1305000D03*
X1815000Y-1080000D03*
X2115000D03*
X1815000Y-870000D03*
X2115000D03*
G54D20*
G01X-2880000Y-777800D02*
Y-700000D01*
G01D02*
Y-622200D01*
G01X-2519180Y-170000D02*
X-2376380D01*
G01X-2340000Y-960000D02*
X-2330000Y-950000D01*
G01X-1960000Y-1290000D02*
Y-1100000D01*
X-1930000Y-1070000D01*
X-1530000D01*
X-1340000Y-880000D01*
Y-690000D01*
G01X-1770000Y-1280000D02*
Y-1290000D01*
G01X-2376380Y-212800D02*
Y-170000D01*
G01X-1470000Y-690000D02*
Y-832980D01*
X-1527020Y-890000D01*
X-1790000D01*
G01X-2376380Y70000D02*
X-2020000D01*
X-1960000Y10000D01*
Y-270000D01*
X-1890000Y-340000D01*
X-1760000D01*
X-1730000Y-370000D01*
Y-690000D01*
G01X-2376380Y-10000D02*
X-2070000D01*
X-2040000Y-40000D01*
Y-310000D01*
X-1950000Y-400000D01*
X-1830000D01*
X-1795000Y-435000D01*
Y-690000D01*
G01X-2045000Y710000D02*
Y622300D01*
X-1942700Y520000D01*
X-1130000D01*
X-1060000Y450000D01*
Y340000D01*
X-1145000Y255000D01*
Y60000D01*
G01X-2130000Y440000D02*
Y517800D01*
G01X-2207800Y440000D02*
X-2130000D01*
G01D02*
X-2052200D01*
G01X-1720000Y420000D02*
X-1290000D01*
X-1210000Y340000D01*
Y60000D01*
G01X-2130000Y152200D02*
Y230000D01*
G01X-2207800D02*
X-2130000D01*
G01D02*
X-2052200D01*
G01X-2161000Y1161200D02*
Y1259000D01*
G01X-2258800D02*
X-2161000D01*
G01X-2415000Y1161200D02*
Y1259000D01*
G01D02*
X-2317200D01*
G01X-1275000Y-690000D02*
Y-1104520D01*
X-1180000Y-1199520D01*
Y-1290000D01*
G01X-1145000Y60000D02*
Y-265000D01*
G01Y-690000D02*
X-1080000D01*
G01X-1405000D02*
Y-549800D01*
G01X-1145000Y-690000D02*
Y-495000D01*
G01X-1340000Y60000D02*
Y-270000D01*
G01X-1325200Y-470000D02*
X-1560000D01*
X-1600000Y-510000D01*
G01X-1405000Y-549800D02*
X-1325200Y-470000D01*
G01X-1600000Y-510000D02*
Y-690000D01*
G01X-1145000Y-495000D02*
X-1170010Y-469990D01*
X-1325190D01*
X-1325200Y-470000D01*
G01X-1080000Y-820300D02*
Y-690000D01*
G01D02*
Y-559700D01*
G01X-1340000Y60000D02*
Y290000D01*
G01X-1399000Y907200D02*
Y1005000D01*
G01D02*
Y1102800D01*
G01X-1496800Y1005000D02*
X-1399000D01*
G01D02*
X-1301200D01*
G01X-240000Y-250000D02*
Y-156000D01*
G01Y-250000D02*
X-146000D01*
G01X-560000Y-360000D02*
Y-282200D01*
G01X-637800Y-360000D02*
X-560000D01*
G01D02*
X-482200D01*
G01X-660000Y-50000D02*
Y-20000D01*
G01X-240000Y-144000D02*
Y-50000D01*
G01D02*
X-146000D01*
G01X2714000Y-492000D02*
Y-599700D01*
G01D02*
X2690000Y-623700D01*
Y-900000D01*
G01X2714000Y-492000D02*
Y-394200D01*
G01X2616200Y-492000D02*
X2714000D01*
G01D02*
X2811800D01*
G54D11*
X-2900000Y-1150000D03*
Y1150000D03*
X2900000Y-1150000D03*
Y1150000D03*
G54D21*
G01X-2550000Y-1290000D02*
Y-1090000D01*
G01D02*
Y-960000D01*
G01Y-1090000D02*
X-2070480D01*
X-1870480Y-890000D01*
X-1790000D01*
G01X-2550000Y-1290000D02*
Y-1380480D01*
X-2520480Y-1410000D01*
X-1799520D01*
X-1770000Y-1380480D01*
Y-1290000D01*
G01X-2880000Y-700000D02*
X-2710000D01*
G01D02*
Y-810000D01*
G01D02*
X-2680000Y-840000D01*
X-2372300D01*
X-2340000Y-872300D01*
G01X-3090000Y-700000D02*
Y-540000D01*
X-3000000Y-450000D01*
G01X-2450000D02*
Y-650000D01*
X-2500000Y-700000D01*
G01X-2310000Y620000D02*
X-2740000D01*
X-2880000Y760000D01*
G01X-950000Y60000D02*
Y620000D01*
X-1153500Y823500D01*
X-2590000D01*
X-2640000Y873500D01*
Y1354000D01*
X-2584000Y1410000D01*
X-2483220D01*
X-2479220Y1414000D01*
X-1588780D01*
X-1584780Y1410000D01*
X-1436300D01*
X-1399000Y1372700D01*
Y1259000D01*
G01X-2330000Y-950000D02*
X-2170000D01*
G01X-2120000Y-740000D02*
X-2330000Y-950000D01*
G01X-2340000Y-872300D02*
Y-960000D01*
G01Y-1290000D02*
X-2170000D01*
G01X-2376380Y-170000D02*
X-2180000D01*
G01D02*
X-2120000Y-230000D01*
Y-740000D01*
G01X-2130000Y440000D02*
X-2310000Y620000D01*
G01X-2130000Y230000D02*
X-2210000Y150000D01*
G01D02*
X-2376380D01*
G01X-1835000Y710000D02*
X-1630000D01*
G01X-2045000D02*
X-2070000D01*
G01X-1560000Y-1290000D02*
X-1390000D01*
G01X-1340000Y-270000D02*
Y-455200D01*
X-1325200Y-470000D01*
G01X-1230000Y640000D02*
X-1300000Y710000D01*
G01D02*
X-1420000D01*
G01X-1145000Y1005000D02*
X-830000Y690000D01*
Y-546680D01*
X-346680Y-1030000D01*
X-240000D01*
G01D02*
Y-799520D01*
X-469520Y-570000D01*
X-560000D01*
G01X-240000Y-250000D02*
Y-356680D01*
G01X-560000Y-360000D02*
X-450000Y-250000D01*
G01X-560000Y-360000D02*
X-660000Y-260000D01*
G01X-240000Y-356680D02*
X-86680Y-510000D01*
G01X-450000Y-250000D02*
X-240000D01*
G01X-660000Y-260000D02*
Y-50000D01*
G01D02*
X-240000D01*
G01Y730000D02*
Y520000D01*
X20000Y260000D01*
X240000D01*
X470000Y30000D01*
Y-290000D01*
G01X90000Y-300000D02*
Y-10000D01*
X0Y80000D01*
X-410000D01*
X-550000Y220000D01*
Y620000D01*
X-660000Y730000D01*
G01X-240000D02*
X-353900D01*
X-381900Y758000D01*
X-390000D01*
X-637000Y1005000D01*
G01X-660000Y730000D02*
X-755000Y825000D01*
Y869000D01*
X-891000Y1005000D01*
G01X615000Y-870000D02*
X524520D01*
X460000Y-934520D01*
Y-1050000D01*
X430000Y-1080000D01*
X330000D01*
G01X470000Y-500000D02*
X690000D01*
G01X470000D02*
X382300D01*
G01X-86680Y-510000D02*
X90000D01*
G01X382300Y-500000D02*
X372300Y-510000D01*
G01D02*
X90000D01*
G01X1140000Y-160000D02*
Y-260000D01*
X880000Y-520000D01*
Y-590000D01*
X850000Y-620000D01*
X580000D01*
X330000Y-870000D01*
G01X125000Y1005000D02*
Y671020D01*
X780020Y16000D01*
X2460000D01*
G01X1305000Y-1080000D02*
X1495000Y-1270000D01*
X2060000D01*
X2115000Y-1215000D01*
Y-1080000D01*
G01X1305000D02*
X1075000Y-1310000D01*
X720000D01*
X615000Y-1205000D01*
Y-1080000D01*
G01X1305000Y-870000D02*
X1214520D01*
X1160000Y-924520D01*
Y-1050000D01*
X1130000Y-1080000D01*
X1035000D01*
G01X1390000Y-150000D02*
X1270000Y-270000D01*
Y-635000D01*
X1035000Y-870000D01*
G01X1140000Y240000D02*
X1062870Y317130D01*
Y926870D01*
X1141000Y1005000D01*
G01X633000Y1259000D02*
Y1390000D01*
X663000Y1420000D01*
X2610000D01*
X2640000Y1390000D01*
Y590000D01*
X2460000Y410000D01*
Y270000D01*
G01X2115000Y-1080000D02*
X2350000D01*
X2460000Y-970000D01*
Y-492000D01*
G01X2115000Y-870000D02*
X2024520D01*
X1960000Y-934520D01*
Y-1030000D01*
X1910000Y-1080000D01*
X1815000D01*
G01Y-870000D02*
Y-315000D01*
X1700000Y-200000D01*
G01X1390000Y250000D02*
Y892300D01*
X1395000Y897300D01*
Y1005000D01*
G01X1660000Y260000D02*
Y886300D01*
X1649000Y897300D01*
Y1005000D01*
G54D12*
X-2710000Y-230000D03*
Y210000D03*
G54D13*
X-3000000Y-450000D03*
X-2450000D03*
X-3000000Y430000D03*
X-2450000D03*
G54D14*
X-2376380Y-170000D03*
Y-90000D03*
Y-10000D03*
Y70000D03*
Y150000D03*
G54D15*
X-2415000Y1259000D03*
X-1653000D03*
Y1005000D03*
X-1907000Y1259000D03*
Y1005000D03*
X-2161000Y1259000D03*
Y1005000D03*
X-891000Y1259000D03*
Y1005000D03*
X-1145000Y1259000D03*
Y1005000D03*
X-1399000Y1259000D03*
Y1005000D03*
X-129000Y1259000D03*
Y1005000D03*
X-383000Y1259000D03*
Y1005000D03*
X-637000Y1259000D03*
Y1005000D03*
X633000Y1259000D03*
Y1005000D03*
X379000Y1259000D03*
Y1005000D03*
X125000Y1259000D03*
Y1005000D03*
X1395000Y1259000D03*
Y1005000D03*
X1141000Y1259000D03*
Y1005000D03*
X887000Y1259000D03*
Y1005000D03*
X2157000Y1259000D03*
Y1005000D03*
X1903000Y1259000D03*
Y1005000D03*
X1649000Y1259000D03*
Y1005000D03*
X2460000Y-492000D03*
X2714000Y-238000D03*
X2460000D03*
X2714000Y270000D03*
Y16000D03*
X2460000D03*
Y270000D03*
X2411000Y1259000D03*
Y1005000D03*
G54D16*
X-2415000D03*
X2714000Y-492000D03*
G54D17*
X-2880000Y760000D03*
X-2170000Y-950000D03*
X-1790000Y-890000D03*
X-1770000Y-1280000D03*
X-1720000Y420000D03*
X-2070000Y710000D03*
X-1145000Y-265000D03*
X-1490000Y-270000D03*
X-1340000Y290000D03*
X-1230000Y640000D03*
X-660000Y-20000D03*
X630000Y-1080000D03*
X690000Y-500000D03*
X1140000Y-160000D03*
X1390000Y-150000D03*
X1140000Y240000D03*
X1390000Y250000D03*
X1700000Y-200000D03*
X1660000Y260000D03*
X2690000Y-900000D03*
G54D18*
X-1730000Y-690000D03*
X-1795000D03*
Y60000D03*
X-1730000D03*
X-950000Y-690000D03*
X-1015000D03*
X-1080000D03*
X-1145000D03*
X-1210000D03*
X-1275000D03*
X-1340000D03*
X-1405000D03*
X-1470000D03*
X-1535000D03*
X-1600000D03*
X-1665000D03*
Y60000D03*
X-1600000D03*
X-1535000D03*
X-1470000D03*
X-1405000D03*
X-1340000D03*
X-1275000D03*
X-1210000D03*
X-1145000D03*
X-1080000D03*
X-1015000D03*
X-950000D03*
G54D19*
X-240000Y-1030000D03*
Y-250000D03*
Y-50000D03*
X-660000D03*
X-240000Y730000D03*
X-660000D03*
M02*
