G04 ================== begin FILE IDENTIFICATION RECORD ==================*
G04 Layout Name:  RPI_NRF24L01MODULE.brd*
G04 Film Name:    BOTTOM*
G04 File Format:  Gerber RS274X*
G04 File Origin:  Cadence Allegro 17.2-P019*
G04 Origin Date:  Wed Mar 22 00:51:05 2017*
G04 *
G04 Layer:  ETCH/BOTTOM*
G04 Layer:  PIN/BOTTOM*
G04 Layer:  VIA CLASS/BOTTOM*
G04 *
G04 Offset:    (0.0000 0.0000)*
G04 Mirror:    No*
G04 Mode:      Positive*
G04 Rotation:  0*
G04 FullContactRelief:  No*
G04 UndefLineWidth:     0.0000*
G04 ================== end FILE IDENTIFICATION RECORD ====================*
%FSLAX25Y25*MOMM*%
%IR0*IPPOS*OFA0.00000B0.00000*MIA0B0*SFA1.00000B1.00000*%
%ADD13C,1.*%
%ADD11C,1.6*%
%ADD10C,3.5*%
%ADD12R,1.5999X1.5999*%
%ADD14C,.5*%
%ADD15C,4.5004*%
%ADD16C,1.8544*%
G75*
%LPD*%
G75*
G36*
G01X2725020Y1317760D02*
Y1381070D01*
X2668450Y1437650D01*
G02X2675630Y1454990I7184J7182D01*
G01X2955000D01*
G02X3194990Y1200000I-16293J-255766D01*
G01Y-1215000D01*
G02X2955000Y-1454990I-247490J7500D01*
G01X-2955000D01*
G02X-3194990Y-1200000I17033J256462D01*
G01Y1200000D01*
G02X-2955000Y1454990I272167J-15726D01*
G01X-2669470D01*
G02X-2660300Y1440460I-2J-10160D01*
G03X-2645020Y1331300I90300J-43009D01*
G01Y-266060D01*
X-2301070Y-610010D01*
X2194080D01*
X2312790Y-491310D01*
G02X2330120Y-498020I7183J-7184D01*
G03X2369280Y-585140I129880J6019D01*
G01X2369300Y-585160D01*
X2384980Y-600850D01*
Y-958930D01*
X2203930Y-1139980D01*
X1721150D01*
G03Y-1290020I-66150J-75020D01*
G01X2266070D01*
X2535020Y-1021070D01*
Y-600850D01*
X2550700Y-585160D01*
X2550720Y-585140D01*
G03X2515040Y-374200I-90719J93143D01*
G02Y-355800I4301J9200D01*
G03X2577800Y-293040I-55040J117800D01*
G02X2596200I9200J-4301D01*
G03X2844020Y-238000I117798J55040D01*
G01Y-214070D01*
X2944020Y-114070D01*
Y742060D01*
X2725020Y961060D01*
Y982240D01*
G02X2742300Y989490I10161J1D01*
G03Y1310510I157700J160510D01*
G02X2725020Y1317760I-7119J7249D01*
G37*
G36*
G01X-2238930Y-459970D02*
X-2494980Y-203920D01*
Y874980D01*
X-2335000D01*
G03X-2284980Y925000I-5J50025D01*
G01Y945940D01*
X-2276870D01*
X-2275430Y943270D01*
G03X-2043200Y949960I114433J61729D01*
G02X-2024800I9200J-4301D01*
G03X-1789200I117800J55040D01*
G02X-1770800I9200J-4301D01*
G03X-1597960Y1122800I117800J55040D01*
G02Y1141200I4301J9200D01*
G03X-1535200Y1203960I-55040J117800D01*
G02X-1516800I9200J-4301D01*
G03X-1281200I117800J55040D01*
G02X-1262800I9200J-4301D01*
G03X-1200040Y1141200I117800J55040D01*
G02Y1122800I-4301J-9200D01*
G03X-1275020Y1005000I55047J-117800D01*
G01Y981070D01*
X-1335020Y921070D01*
Y-38850D01*
G03X-1164680Y-135310I75023J-66149D01*
G02X-1145320I9680J-3075D01*
G03X-983850Y-180020I95318J30310D01*
G01X-718940D01*
X-561980Y-23060D01*
Y896150D01*
X-546300Y911840D01*
X-546280Y911860D01*
G03X-519200Y949960I-90713J93149D01*
G02X-500800I9200J-4301D01*
G03X-265200I117800J55040D01*
G02X-246800I9200J-4301D01*
G03X-219720Y911860I117793J55049D01*
G01X-219700Y911840D01*
X-204020Y896150D01*
Y-352070D01*
X-113470Y-442630D01*
G02X-120650Y-459970I-7184J-7182D01*
G01X-2238930D01*
G37*
G36*
G01X-2552320Y1344410D02*
X-2534650Y1362100D01*
X-2570000Y1403700D01*
X-2605350Y1362100D01*
X-2587680Y1344410D01*
G03X-2552320I17680J17680D01*
G37*
G36*
G01X-1277680Y-51960D02*
X-1295350Y-69650D01*
X-1260000Y-111250D01*
X-1224650Y-69650D01*
X-1242320Y-51960D01*
G03X-1277680I-17680J-17680D01*
G37*
G36*
G01X-996960Y-87320D02*
X-1014650Y-69650D01*
X-1056250Y-105000D01*
X-1014650Y-140350D01*
X-996960Y-122680D01*
G03Y-87320I-17680J17680D01*
G37*
G36*
G01X-1200000Y925000D02*
X-1145000D01*
X-1140580Y1009420D01*
X-1225000Y1005000D01*
Y950000D01*
G03X-1200000Y925000I25000J0D01*
G37*
G36*
G01X-882320Y900540D02*
X-834440Y948440D01*
X-890360Y1011220D01*
X-951090Y952880D01*
X-921210Y904980D01*
G03X-882320Y900540I21210J13238D01*
G37*
G36*
G01X-917680Y94240D02*
X-935350Y76550D01*
X-900000Y34950D01*
X-864650Y76550D01*
X-882320Y94240D01*
G03X-917680I-17680J-17680D01*
G37*
G36*
G01X-619320Y909540D02*
X-580440Y948440D01*
X-637000Y1011250D01*
X-693560Y948440D01*
X-654680Y909540D01*
G03X-619320I17680J17680D01*
G37*
G36*
G01X312320Y-256950D02*
X294650Y-274640D01*
X330000Y-316240D01*
X365350Y-274640D01*
X347680Y-256950D01*
G03X312320I-17680J-17680D01*
G37*
G36*
G01X-111320Y909540D02*
X-72440Y948440D01*
X-129000Y1011250D01*
X-185560Y948440D01*
X-146680Y909540D01*
G03X-111320I17680J17680D01*
G37*
G36*
G01X180000Y1339000D02*
X125000D01*
X120580Y1254580D01*
X205000Y1259000D01*
Y1314000D01*
G03X180000Y1339000I-25000J0D01*
G37*
G36*
G01X1158680Y909540D02*
X1197560Y948440D01*
X1141000Y1011250D01*
X1084440Y948440D01*
X1123320Y909540D01*
G03X1158680I17680J17680D01*
G37*
G36*
G01X1708040Y-1197320D02*
X1690350Y-1179650D01*
X1648750Y-1215000D01*
X1690350Y-1250350D01*
X1708040Y-1232680D01*
G03Y-1197320I-17680J17680D01*
G37*
G36*
G01X1377320Y-246960D02*
X1359650Y-264650D01*
X1395000Y-306250D01*
X1430350Y-264650D01*
X1412680Y-246960D01*
G03X1377320I-17680J-17680D01*
G37*
G36*
G01X1630350Y-246990D02*
X1613680Y-265680D01*
X1650170Y-306250D01*
X1685350Y-264650D01*
X1666680Y-245960D01*
G03X1630350Y-246990I-17678J-17679D01*
G37*
G36*
G01X1412680Y909540D02*
X1451560Y948440D01*
X1395000Y1011250D01*
X1338440Y948440D01*
X1377320Y909540D01*
G03X1412680I17680J17680D01*
G37*
G36*
G01X1666680D02*
X1705560Y948440D01*
X1649000Y1011250D01*
X1592440Y948440D01*
X1631320Y909540D01*
G03X1666680I17680J17680D01*
G37*
G36*
G01X2477680Y-587460D02*
X2516560Y-548560D01*
X2460000Y-485750D01*
X2403440Y-548560D01*
X2442320Y-587460D01*
G03X2477680I17680J17680D01*
G37*
G36*
G01X2769000Y-158000D02*
X2714000D01*
X2709580Y-242420D01*
X2794000Y-238000D01*
Y-183000D01*
G03X2769000Y-158000I-25000J0D01*
G37*
G36*
G01X2405000Y-318000D02*
X2460000D01*
X2464420Y-233580D01*
X2380000Y-238000D01*
Y-293000D01*
G03X2405000Y-318000I25000J0D01*
G37*
G36*
G01X2634000Y325000D02*
Y270000D01*
X2718420Y265580D01*
X2714000Y350000D01*
X2659000D01*
G03X2634000Y325000I0J-25000D01*
G37*
G36*
G01X2637960Y632350D02*
X2655650Y614680D01*
X2697250Y650030D01*
X2655650Y685380D01*
X2637960Y667710D01*
G03Y632350I17680J-17680D01*
G37*
G36*
G01X2494040Y667710D02*
X2476350Y685380D01*
X2434750Y650030D01*
X2476350Y614680D01*
X2494040Y632350D01*
G03Y667710I-17680J17680D01*
G37*
%LPC*%
G75*
G36*
G01X2621280Y-572000D02*
Y-412000D01*
G02X2634000Y-399280I12725J-5D01*
G01X2794000D01*
G02X2806720Y-412000I-5J-12725D01*
G01Y-572000D01*
G02X2794000Y-584720I-12725J5D01*
G01X2634000D01*
G02X2621280Y-572000I5J12725D01*
G37*
G54D15*
X-2900000Y-1150000D03*
Y1150000D03*
X2900000Y-1150000D03*
G54D16*
X-1399000Y1005000D03*
%LPD*%
G75*
G36*
G01X-2080760Y162680D02*
X-2098450Y180350D01*
X-2140050Y145000D01*
X-2098450Y109650D01*
X-2080760Y127320D01*
G03Y162680I-17680J17680D01*
G37*
G36*
G01X-1381320Y909540D02*
X-1342440Y948440D01*
X-1399000Y1011250D01*
X-1455560Y948440D01*
X-1416680Y909540D01*
G03X-1381320I17680J17680D01*
G37*
G36*
G01X-758040Y-251470D02*
X-740350Y-269140D01*
X-698750Y-233790D01*
X-740350Y-198440D01*
X-758040Y-216110D01*
G03Y-251470I17680J-17680D01*
G37*
G54D10*
X-2900000Y-1150000D03*
Y1150000D03*
X2900000Y-1150000D03*
Y1150000D03*
G54D11*
X-2415000Y1259000D03*
X-1653000D03*
Y1005000D03*
X-1907000Y1259000D03*
Y1005000D03*
X-2161000Y1259000D03*
Y1005000D03*
X-891000Y1259000D03*
Y1005000D03*
X-1145000Y1259000D03*
Y1005000D03*
X-1399000Y1259000D03*
Y1005000D03*
X-129000Y1259000D03*
Y1005000D03*
X-383000Y1259000D03*
Y1005000D03*
X-637000Y1259000D03*
Y1005000D03*
X633000Y1259000D03*
Y1005000D03*
X379000Y1259000D03*
Y1005000D03*
X125000Y1259000D03*
Y1005000D03*
X1395000Y1259000D03*
Y1005000D03*
X1141000Y1259000D03*
Y1005000D03*
X887000Y1259000D03*
Y1005000D03*
X2157000Y1259000D03*
Y1005000D03*
X1903000Y1259000D03*
Y1005000D03*
X1649000Y1259000D03*
Y1005000D03*
X2460000Y-492000D03*
X2714000Y-238000D03*
X2460000D03*
X2714000Y270000D03*
Y16000D03*
X2460000D03*
Y270000D03*
X2411000Y1259000D03*
Y1005000D03*
G54D12*
X-2415000D03*
X2714000Y-492000D03*
G54D13*
X-2570000Y1397450D03*
X-2133800Y145000D03*
X-1260000Y-105000D03*
X-900000Y41200D03*
X-1050000Y-105000D03*
X-705000Y-233790D03*
X330000Y-309990D03*
X1395000Y-300000D03*
X1655000Y-1215000D03*
X1650000Y-300000D03*
X2441000Y650030D03*
X2691000D03*
G54D14*
G01X-2570000Y1397450D02*
Y-234990D01*
X-2270000Y-534990D01*
X2163010D01*
X2460000Y-238000D01*
G01X-2133800Y145000D02*
X-1399000D01*
G01X-705000Y-233790D02*
X-1309000D01*
X-1399000Y-143790D01*
Y145000D01*
G01D02*
Y1005000D01*
G01X-1145000D02*
X-1260000Y890000D01*
Y-105000D01*
G01X-637000Y1005000D02*
Y8010D01*
X-750010Y-105000D01*
X-1050000D01*
G01X-1399000Y1005000D02*
Y1102800D01*
G01X-1496800Y1005000D02*
X-1399000D01*
G01D02*
X-1301200D01*
G01X-891000D02*
X-900000Y996000D01*
Y41200D01*
G01X-129000Y1005000D02*
Y-321000D01*
X-15010Y-434990D01*
X1935010D01*
X2040000Y-330000D01*
Y345000D01*
X2120000Y425000D01*
X2559000D01*
X2714000Y270000D01*
G01X1141000Y1005000D02*
Y766000D01*
X1050000Y675000D01*
X450000D01*
X330000Y555000D01*
Y-309990D01*
G01X2714000Y-238000D02*
X2869000Y-83000D01*
Y710990D01*
X2650000Y929990D01*
Y1350000D01*
X2586000Y1414000D01*
X280000D01*
X125000Y1259000D01*
G01X2460000Y-492000D02*
Y-990000D01*
X2235000Y-1215000D01*
X1655000D01*
G01X1395000Y-300000D02*
Y1005000D01*
G01X1650000Y-300000D02*
X1649000Y-299000D01*
Y1005000D01*
G01X2714000Y-589800D02*
Y-492000D01*
G01D02*
Y-394200D01*
G01X2616200Y-492000D02*
X2714000D01*
G01D02*
X2811800D01*
G01X2441000Y650030D02*
X2691000D01*
M02*
