G04 ================== begin FILE IDENTIFICATION RECORD ==================*
G04 Layout Name:  RPI_NRF24L01MODULE.brd*
G04 Film Name:    SC_TOP*
G04 File Format:  Gerber RS274X*
G04 File Origin:  Cadence Allegro 17.2-P019*
G04 Origin Date:  Wed Mar 22 00:51:05 2017*
G04 *
G04 Layer:  ROUTE KEEPIN/ALL*
G04 Layer:  REF DES/SILKSCREEN_TOP*
G04 Layer:  PACKAGE GEOMETRY/SILKSCREEN_TOP*
G04 Layer:  BOARD GEOMETRY/SILKSCREEN_TOP*
G04 Layer:  BOARD GEOMETRY/DESIGN_OUTLINE*
G04 *
G04 Offset:    (0.0000 0.0000)*
G04 Mirror:    No*
G04 Mode:      Positive*
G04 Rotation:  0*
G04 FullContactRelief:  No*
G04 UndefLineWidth:     0.0000*
G04 ================== end FILE IDENTIFICATION RECORD ====================*
%FSLAX25Y25*MOMM*%
%IR0*IPPOS*OFA0.00000B0.00000*MIA0B0*SFA1.00000B1.00000*%
%ADD10C,.1*%
%ADD11C,.2*%
%ADD12C,.15*%
%ADD13C,.254*%
G75*
%LPD*%
G75*
G36*
G01X-2385000Y832000D02*
G02I-30000J0D01*
G37*
G36*
G01X2332000Y270000D02*
G02I-30000J0D01*
G37*
G54D10*
G01X-2335000Y-5000D02*
X-2495000D01*
Y365000D01*
X-2335000D01*
Y-5000D01*
G01X-2495000Y400000D02*
Y770000D01*
X-2335000D01*
Y400000D01*
X-2495000D01*
G01X-2235000Y140000D02*
Y160000D01*
G01X-2265000Y170000D02*
X-2235000Y140000D01*
X-2255000D01*
G01X-2275000Y190000D02*
Y95000D01*
G01X-2225000Y185000D02*
X-2325000D01*
G01X-2275000Y330000D02*
Y230000D01*
X-2325000D01*
X-2275000Y190000D01*
X-2225000Y230000D01*
X-2275000D01*
G01X-2415000Y560000D02*
Y565000D01*
X-2435000D01*
X-2395000Y580000D01*
X-2435000D01*
X-2395000Y595000D01*
X-2435000D01*
X-2415000Y605000D01*
Y610000D01*
G01X-1315000Y190000D02*
X-1685000D01*
Y350000D01*
X-1315000D01*
Y190000D01*
G01X-1475000Y270000D02*
X-1480000D01*
Y250000D01*
X-1495000Y290000D01*
Y250000D01*
X-1510000Y290000D01*
Y250000D01*
X-1520000Y270000D01*
X-1525000D01*
G01X-820000Y190000D02*
X-1190000D01*
Y350000D01*
X-820000D01*
Y190000D01*
G01X-980000Y270000D02*
X-985000D01*
Y250000D01*
X-1000000Y290000D01*
Y250000D01*
X-1015000Y290000D01*
Y250000D01*
X-1025000Y270000D01*
X-1030000D01*
G01X-415000Y190000D02*
X-785000D01*
Y350000D01*
X-415000D01*
Y190000D01*
G01X-575000Y270000D02*
X-580000D01*
Y250000D01*
X-595000Y290000D01*
Y250000D01*
X-610000Y290000D01*
Y250000D01*
X-620000Y270000D01*
X-625000D01*
G01X250000Y-790000D02*
X410000D01*
Y-1160000D01*
X250000D01*
Y-790000D01*
G01X150000Y-935000D02*
Y-955000D01*
G01X180000Y-965000D02*
X150000Y-935000D01*
X170000D01*
G01X190000Y-985000D02*
Y-890000D01*
G01X140000Y-980000D02*
X240000D01*
G01X190000Y-1125000D02*
Y-1025000D01*
X240000D01*
X190000Y-985000D01*
X140000Y-1025000D01*
X190000D01*
G01X695000Y-790000D02*
Y-1160000D01*
X535000D01*
Y-790000D01*
X695000D01*
G01X955000D02*
X1115000D01*
Y-1160000D01*
X955000D01*
Y-790000D01*
G01X855000Y-935000D02*
Y-955000D01*
G01X885000Y-965000D02*
X855000Y-935000D01*
X875000D01*
G01X895000Y-985000D02*
Y-890000D01*
G01X845000Y-980000D02*
X945000D01*
G01X895000Y-1125000D02*
Y-1025000D01*
X945000D01*
X895000Y-985000D01*
X845000Y-1025000D01*
X895000D01*
G01X615000Y-950000D02*
Y-955000D01*
X635000D01*
X595000Y-970000D01*
X635000D01*
X595000Y-985000D01*
X635000D01*
X615000Y-995000D01*
Y-1000000D01*
G01X1385000Y-790000D02*
Y-1160000D01*
X1225000D01*
Y-790000D01*
X1385000D01*
G01X1305000Y-950000D02*
Y-955000D01*
X1325000D01*
X1285000Y-970000D01*
X1325000D01*
X1285000Y-985000D01*
X1325000D01*
X1305000Y-995000D01*
Y-1000000D01*
G01X1735000Y-790000D02*
X1895000D01*
Y-1160000D01*
X1735000D01*
Y-790000D01*
G01X1635000Y-935000D02*
Y-955000D01*
G01X1665000Y-965000D02*
X1635000Y-935000D01*
X1655000D01*
G01X1675000Y-985000D02*
Y-890000D01*
G01X1625000Y-980000D02*
X1725000D01*
G01X1675000Y-1125000D02*
Y-1025000D01*
X1725000D01*
X1675000Y-985000D01*
X1625000Y-1025000D01*
X1675000D01*
G01X2195000Y-790000D02*
Y-1160000D01*
X2035000D01*
Y-790000D01*
X2195000D01*
G01X2115000Y-950000D02*
Y-955000D01*
X2135000D01*
X2095000Y-970000D01*
X2135000D01*
X2095000Y-985000D01*
X2135000D01*
X2115000Y-995000D01*
Y-1000000D01*
G54D11*
G01X-2552000Y882000D02*
Y1382000D01*
X2548000D01*
Y882000D01*
X-2552000D01*
G54D12*
G01X-2672210Y80000D02*
Y158740D01*
X-2652740D01*
X-2644950Y154800D01*
X-2639110Y149550D01*
X-2634240Y141680D01*
X-2630340Y132490D01*
X-2629370Y119370D01*
X-2630340Y106250D01*
X-2634240Y97060D01*
X-2639110Y89180D01*
X-2644950Y83940D01*
X-2652740Y80000D01*
X-2672210D01*
G01X-2572050D02*
Y158740D01*
X-2583730Y142990D01*
G01Y80000D02*
X-2560370D01*
G01X-2690260Y470000D02*
Y548740D01*
X-2665920D01*
X-2658130Y544800D01*
X-2653260Y539550D01*
X-2651320Y529050D01*
X-2653260Y518560D01*
X-2659110Y512000D01*
X-2665920Y508060D01*
X-2690260D01*
G01X-2665920D02*
X-2651320Y470000D01*
G01X-2592050D02*
Y548740D01*
X-2603730Y532990D01*
G01Y470000D02*
X-2580370D01*
G01X-2730260Y895750D02*
X-2725390Y887870D01*
X-2719550Y882620D01*
X-2712740Y880000D01*
X-2704950Y882620D01*
X-2699110Y887870D01*
X-2693260Y895750D01*
X-2691320Y906250D01*
Y958740D01*
G01X-2632050Y880000D02*
Y958740D01*
X-2643730Y942990D01*
G01Y880000D02*
X-2620370D01*
G01X-2221240Y-1349500D02*
X-2213450Y-1356060D01*
X-2204680Y-1360000D01*
X-2196900D01*
X-2189110Y-1356060D01*
X-2183260Y-1349500D01*
X-2180340Y-1340310D01*
X-2182290Y-1331130D01*
X-2187160Y-1323260D01*
X-2195920Y-1318000D01*
X-2207610Y-1315380D01*
X-2214420Y-1310130D01*
X-2217340Y-1300950D01*
X-2215390Y-1291760D01*
X-2210530Y-1285200D01*
X-2203710Y-1281260D01*
X-2196900D01*
X-2190080Y-1283880D01*
X-2184240Y-1290450D01*
G01X-2151260Y-1281260D02*
X-2137630Y-1360000D01*
X-2122050Y-1281260D01*
X-2106470Y-1360000D01*
X-2092840Y-1281260D01*
G01X-2043310Y-1360000D02*
Y-1281260D01*
X-2054990Y-1297010D01*
G01Y-1360000D02*
X-2031630D01*
G01X-1651240Y-1339500D02*
X-1643450Y-1346060D01*
X-1634680Y-1350000D01*
X-1626900D01*
X-1619110Y-1346060D01*
X-1613260Y-1339500D01*
X-1610340Y-1330310D01*
X-1612290Y-1321130D01*
X-1617160Y-1313260D01*
X-1625920Y-1308000D01*
X-1637610Y-1305380D01*
X-1644420Y-1300130D01*
X-1647340Y-1290950D01*
X-1645390Y-1281760D01*
X-1640530Y-1275200D01*
X-1633710Y-1271260D01*
X-1626900D01*
X-1620080Y-1273880D01*
X-1614240Y-1280450D01*
G01X-1581260Y-1271260D02*
X-1567630Y-1350000D01*
X-1552050Y-1271260D01*
X-1536470Y-1350000D01*
X-1522840Y-1271260D01*
G01X-1491810Y-1284380D02*
X-1485970Y-1276510D01*
X-1479150Y-1272570D01*
X-1471360Y-1271260D01*
X-1461630Y-1273880D01*
X-1454810Y-1280450D01*
X-1452860Y-1288320D01*
X-1453840Y-1296200D01*
X-1457730Y-1302760D01*
X-1477200Y-1315880D01*
X-1485970Y-1325070D01*
X-1491810Y-1338190D01*
X-1493760Y-1350000D01*
X-1452860D01*
G01X-1171240Y-1339500D02*
X-1163450Y-1346060D01*
X-1154680Y-1350000D01*
X-1146900D01*
X-1139110Y-1346060D01*
X-1133260Y-1339500D01*
X-1130340Y-1330310D01*
X-1132290Y-1321130D01*
X-1137160Y-1313260D01*
X-1145920Y-1308000D01*
X-1157610Y-1305380D01*
X-1164420Y-1300130D01*
X-1167340Y-1290950D01*
X-1165390Y-1281760D01*
X-1160530Y-1275200D01*
X-1153710Y-1271260D01*
X-1146900D01*
X-1140080Y-1273880D01*
X-1134240Y-1280450D01*
G01X-1101260Y-1271260D02*
X-1087630Y-1350000D01*
X-1072050Y-1271260D01*
X-1056470Y-1350000D01*
X-1042840Y-1271260D01*
G01X-1014730Y-1334250D02*
X-1008890Y-1343440D01*
X-1001100Y-1348690D01*
X-992340Y-1350000D01*
X-984550Y-1348690D01*
X-976760Y-1342130D01*
X-971890Y-1334250D01*
X-970920Y-1326380D01*
X-972860Y-1317190D01*
X-979680Y-1310630D01*
X-986490Y-1308000D01*
X-995260D01*
G01X-986490D02*
X-980650Y-1304070D01*
X-975780Y-1297510D01*
X-973840Y-1289630D01*
X-975780Y-1281760D01*
X-980650Y-1275200D01*
X-989420Y-1271260D01*
X-998180Y-1272570D01*
X-1006940Y-1277820D01*
G01X-1690260Y390000D02*
Y468740D01*
X-1665920D01*
X-1658130Y464800D01*
X-1653260Y459550D01*
X-1651320Y449050D01*
X-1653260Y438560D01*
X-1659110Y432000D01*
X-1665920Y428060D01*
X-1690260D01*
G01X-1665920D02*
X-1651320Y390000D01*
G01X-1613470Y401810D02*
X-1607630Y395250D01*
X-1600810Y391310D01*
X-1592050Y390000D01*
X-1583290Y392620D01*
X-1576470Y397870D01*
X-1571600Y407060D01*
X-1570630Y417560D01*
X-1572580Y428060D01*
X-1577450Y434620D01*
X-1584260Y439870D01*
X-1591080Y441180D01*
X-1597890Y439870D01*
X-1606650Y434620D01*
X-1603730Y468740D01*
X-1577450D01*
G01X-1170260Y400000D02*
Y478740D01*
X-1145920D01*
X-1138130Y474800D01*
X-1133260Y469550D01*
X-1131320Y459050D01*
X-1133260Y448560D01*
X-1139110Y442000D01*
X-1145920Y438060D01*
X-1170260D01*
G01X-1145920D02*
X-1131320Y400000D01*
G01X-1090550Y432810D02*
X-1083730Y442000D01*
X-1077890Y447240D01*
X-1070100Y449870D01*
X-1063290Y447240D01*
X-1058420Y442000D01*
X-1054520Y434120D01*
X-1053550Y424930D01*
X-1054520Y417060D01*
X-1058420Y409180D01*
X-1064260Y402620D01*
X-1071080Y400000D01*
X-1078870Y402620D01*
X-1085680Y410500D01*
X-1089580Y422310D01*
X-1090550Y435430D01*
X-1088600Y452490D01*
X-1085680Y461680D01*
X-1080810Y470870D01*
X-1074000Y477430D01*
X-1067180Y478740D01*
X-1060370Y476120D01*
X-1055500Y469550D01*
G01X-780260Y400000D02*
Y478740D01*
X-755920D01*
X-748130Y474800D01*
X-743260Y469550D01*
X-741320Y459050D01*
X-743260Y448560D01*
X-749110Y442000D01*
X-755920Y438060D01*
X-780260D01*
G01X-755920D02*
X-741320Y400000D01*
G01X-684000D02*
X-682050Y417060D01*
X-679130Y431490D01*
X-675230Y444620D01*
X-670370Y459050D01*
X-662580Y478740D01*
X-701520D01*
G01X267790Y-1290000D02*
Y-1211260D01*
X287260D01*
X295050Y-1215200D01*
X300890Y-1220450D01*
X305760Y-1228320D01*
X309660Y-1237510D01*
X310630Y-1250630D01*
X309660Y-1263750D01*
X305760Y-1272940D01*
X300890Y-1280820D01*
X295050Y-1286060D01*
X287260Y-1290000D01*
X267790D01*
G01X349450Y-1224380D02*
X355290Y-1216510D01*
X362110Y-1212570D01*
X369900Y-1211260D01*
X379630Y-1213880D01*
X386450Y-1220450D01*
X388400Y-1228320D01*
X387420Y-1236200D01*
X383530Y-1242760D01*
X364060Y-1255880D01*
X355290Y-1265070D01*
X349450Y-1278190D01*
X347500Y-1290000D01*
X388400D01*
G01X549740D02*
Y-1211260D01*
X574080D01*
X581870Y-1215200D01*
X586740Y-1220450D01*
X588680Y-1230950D01*
X586740Y-1241440D01*
X580890Y-1248000D01*
X574080Y-1251940D01*
X549740D01*
G01X574080D02*
X588680Y-1290000D01*
G01X629450Y-1224380D02*
X635290Y-1216510D01*
X642110Y-1212570D01*
X649900Y-1211260D01*
X659630Y-1213880D01*
X666450Y-1220450D01*
X668400Y-1228320D01*
X667420Y-1236200D01*
X663530Y-1242760D01*
X644060Y-1255880D01*
X635290Y-1265070D01*
X629450Y-1278190D01*
X627500Y-1290000D01*
X668400D01*
G01X2880000Y-700000D02*
Y820000D01*
X-20000D01*
Y-700000D01*
X2880000D01*
G01X967790Y-1280000D02*
Y-1201260D01*
X987260D01*
X995050Y-1205200D01*
X1000890Y-1210450D01*
X1005760Y-1218320D01*
X1009660Y-1227510D01*
X1010630Y-1240630D01*
X1009660Y-1253750D01*
X1005760Y-1262940D01*
X1000890Y-1270820D01*
X995050Y-1276060D01*
X987260Y-1280000D01*
X967790D01*
G01X1046530Y-1264250D02*
X1052370Y-1273440D01*
X1060160Y-1278690D01*
X1068920Y-1280000D01*
X1076710Y-1278690D01*
X1084500Y-1272130D01*
X1089370Y-1264250D01*
X1090340Y-1256380D01*
X1088400Y-1247190D01*
X1081580Y-1240630D01*
X1074770Y-1238000D01*
X1066000D01*
G01X1074770D02*
X1080610Y-1234070D01*
X1085480Y-1227510D01*
X1087420Y-1219630D01*
X1085480Y-1211760D01*
X1080610Y-1205200D01*
X1071840Y-1201260D01*
X1063080Y-1202570D01*
X1054320Y-1207820D01*
G01X1229740Y-1280000D02*
Y-1201260D01*
X1254080D01*
X1261870Y-1205200D01*
X1266740Y-1210450D01*
X1268680Y-1220950D01*
X1266740Y-1231440D01*
X1260890Y-1238000D01*
X1254080Y-1241940D01*
X1229740D01*
G01X1254080D02*
X1268680Y-1280000D01*
G01X1306530Y-1264250D02*
X1312370Y-1273440D01*
X1320160Y-1278690D01*
X1328920Y-1280000D01*
X1336710Y-1278690D01*
X1344500Y-1272130D01*
X1349370Y-1264250D01*
X1350340Y-1256380D01*
X1348400Y-1247190D01*
X1341580Y-1240630D01*
X1334770Y-1238000D01*
X1326000D01*
G01X1334770D02*
X1340610Y-1234070D01*
X1345480Y-1227510D01*
X1347420Y-1219630D01*
X1345480Y-1211760D01*
X1340610Y-1205200D01*
X1331840Y-1201260D01*
X1323080Y-1202570D01*
X1314320Y-1207820D01*
G01X1757790Y-1280000D02*
Y-1201260D01*
X1777260D01*
X1785050Y-1205200D01*
X1790890Y-1210450D01*
X1795760Y-1218320D01*
X1799660Y-1227510D01*
X1800630Y-1240630D01*
X1799660Y-1253750D01*
X1795760Y-1262940D01*
X1790890Y-1270820D01*
X1785050Y-1276060D01*
X1777260Y-1280000D01*
X1757790D01*
G01X1869630D02*
Y-1201260D01*
X1833610Y-1257690D01*
X1882290D01*
G01X2059740Y-1280000D02*
Y-1201260D01*
X2084080D01*
X2091870Y-1205200D01*
X2096740Y-1210450D01*
X2098680Y-1220950D01*
X2096740Y-1231440D01*
X2090890Y-1238000D01*
X2084080Y-1241940D01*
X2059740D01*
G01X2084080D02*
X2098680Y-1280000D01*
G01X2169630D02*
Y-1201260D01*
X2133610Y-1257690D01*
X2182290D01*
G01X2830000Y440000D02*
Y-650000D01*
X2350000D01*
Y440000D01*
X2830000D01*
G01X2947790Y838740D02*
Y782310D01*
X2951680Y770500D01*
X2959470Y762620D01*
X2969210Y760000D01*
X2978950Y762620D01*
X2986740Y770500D01*
X2990630Y782310D01*
Y838740D01*
G01X3047950Y760000D02*
Y838740D01*
X3036270Y822990D01*
G01Y760000D02*
X3059630D01*
G54D13*
G01X-2085000Y-1054800D02*
X-2270420D01*
Y-445200D01*
X-1899580D01*
Y-1054800D01*
X-2085000D01*
G01X-1560000Y-1039800D02*
X-1745420D01*
Y-430200D01*
X-1374580D01*
Y-1039800D01*
X-1560000D01*
G01X-1080000Y-1054800D02*
X-1265420D01*
Y-445200D01*
X-894580D01*
Y-1054800D01*
X-1080000D01*
M02*
