G04 ================== begin FILE IDENTIFICATION RECORD ==================*
G04 Layout Name:  RPI_NRF24L01MODULE.brd*
G04 Film Name:    SM_TOP*
G04 File Format:  Gerber RS274X*
G04 File Origin:  Cadence Allegro 17.2-P019*
G04 Origin Date:  Wed Mar 22 00:51:05 2017*
G04 *
G04 Layer:  VIA CLASS/SOLDERMASK_TOP*
G04 Layer:  ROUTE KEEPIN/ALL*
G04 Layer:  PIN/SOLDERMASK_TOP*
G04 Layer:  PACKAGE GEOMETRY/SOLDERMASK_TOP*
G04 Layer:  BOARD GEOMETRY/SOLDERMASK_TOP*
G04 Layer:  BOARD GEOMETRY/DESIGN_OUTLINE*
G04 *
G04 Offset:    (0.0000 0.0000)*
G04 Mirror:    No*
G04 Mode:      Positive*
G04 Rotation:  0*
G04 FullContactRelief:  No*
G04 UndefLineWidth:     0.0000*
G04 ================== end FILE IDENTIFICATION RECORD ====================*
%FSLAX25Y25*MOMM*%
%IR0*IPPOS*OFA0.00000B0.00000*MIA0B0*SFA1.00000B1.00000*%
%ADD13C,1.5*%
%ADD12R,2.X2.*%
%ADD11C,1.9*%
%ADD10R,1.4X1.4*%
%ADD14R,1.651X1.651*%
%LPD*%
G75*
G54D10*
X-2415000Y285000D03*
Y75000D03*
Y480000D03*
Y690000D03*
X-1605000Y270000D03*
X-1395000D03*
X-1110000D03*
X-900000D03*
X-705000D03*
X-495000D03*
X330000Y-1080000D03*
X615000D03*
X330000Y-870000D03*
X615000D03*
X1035000Y-1080000D03*
X1305000D03*
X1035000Y-870000D03*
X1305000D03*
X1815000Y-1080000D03*
X2115000D03*
X1815000Y-870000D03*
X2115000D03*
G54D11*
X-2415000Y1259000D03*
X-1653000D03*
Y1005000D03*
X-1907000Y1259000D03*
Y1005000D03*
X-2161000Y1259000D03*
Y1005000D03*
X-891000Y1259000D03*
Y1005000D03*
X-1145000Y1259000D03*
Y1005000D03*
X-1399000Y1259000D03*
Y1005000D03*
X-129000Y1259000D03*
Y1005000D03*
X-383000Y1259000D03*
Y1005000D03*
X-637000Y1259000D03*
Y1005000D03*
X633000Y1259000D03*
Y1005000D03*
X379000Y1259000D03*
Y1005000D03*
X125000Y1259000D03*
Y1005000D03*
X1395000Y1259000D03*
Y1005000D03*
X1141000Y1259000D03*
Y1005000D03*
X887000Y1259000D03*
Y1005000D03*
X2157000Y1259000D03*
Y1005000D03*
X1903000Y1259000D03*
Y1005000D03*
X1649000Y1259000D03*
Y1005000D03*
X2460000Y-492000D03*
X2714000Y-238000D03*
X2460000D03*
X2714000Y270000D03*
Y16000D03*
X2460000D03*
Y270000D03*
X2411000Y1259000D03*
Y1005000D03*
G54D12*
X-2415000D03*
X2714000Y-492000D03*
G54D13*
X-2570000Y1397450D03*
X-2133800Y145000D03*
X-1260000Y-105000D03*
X-900000Y41200D03*
X-1050000Y-105000D03*
X-705000Y-233790D03*
X330000Y-309990D03*
X1395000Y-300000D03*
X1655000Y-1215000D03*
X1650000Y-300000D03*
X2441000Y650030D03*
X2691000D03*
G54D14*
X-2085000Y-1140000D03*
Y-360000D03*
X-1560000Y-1125000D03*
X-1080000Y-1140000D03*
X-1560000Y-345000D03*
X-1080000Y-360000D03*
M02*
