G04 ================== begin FILE IDENTIFICATION RECORD ==================*
G04 Layout Name:  ENCODER_ZPULSE_DIRECTION.brd*
G04 Film Name:    SSBOT*
G04 File Format:  Gerber RS274X*
G04 File Origin:  Cadence Allegro 17.2-P019*
G04 Origin Date:  Mon Aug 29 19:16:21 2016*
G04 *
G04 Layer:  PACKAGE GEOMETRY/SILKSCREEN_BOTTOM*
G04 Layer:  BOARD GEOMETRY/SILKSCREEN_BOTTOM*
G04 Layer:  BOARD GEOMETRY/OUTLINE*
G04 Layer:  BOARD GEOMETRY/DESIGN_OUTLINE*
G04 *
G04 Offset:    (0.0000 0.0000)*
G04 Mirror:    No*
G04 Mode:      Positive*
G04 Rotation:  0*
G04 FullContactRelief:  No*
G04 UndefLineWidth:     0.0000*
G04 ================== end FILE IDENTIFICATION RECORD ====================*
%FSLAX25Y25*MOMM*%
%IR0*IPPOS*OFA0.00000B0.00000*MIA0B0*SFA1.00000B1.00000*%
%ADD10C,.1*%
%ADD11C,.254*%
G75*
%LPD*%
G75*
G54D10*
G01X-1770000Y1852210D02*
X-1848740D01*
Y1832740D01*
X-1844800Y1824950D01*
X-1839550Y1819110D01*
X-1831680Y1814240D01*
X-1822490Y1810340D01*
X-1809370Y1809370D01*
X-1796250Y1810340D01*
X-1787060Y1814240D01*
X-1779180Y1819110D01*
X-1773940Y1824950D01*
X-1770000Y1832740D01*
Y1852210D01*
G01X-1848740Y2119290D02*
Y2082290D01*
X-1770000Y2119290D01*
Y2082290D01*
G01X-1529210Y1590000D02*
X-1521420Y1591310D01*
X-1514610Y1596560D01*
X-1508760Y1604430D01*
X-1504870Y1613620D01*
X-1502920Y1624120D01*
Y1634620D01*
X-1504870Y1645120D01*
X-1508760Y1654310D01*
X-1514610Y1662180D01*
X-1521420Y1667430D01*
X-1529210Y1668740D01*
X-1537000Y1667430D01*
X-1543810Y1662180D01*
X-1549660Y1654310D01*
X-1553550Y1645120D01*
X-1555500Y1634620D01*
Y1624120D01*
X-1553550Y1613620D01*
X-1549660Y1604430D01*
X-1543810Y1596560D01*
X-1537000Y1591310D01*
X-1529210Y1590000D01*
G01X-1586530Y1668740D02*
Y1612310D01*
X-1590420Y1600500D01*
X-1598210Y1592620D01*
X-1607950Y1590000D01*
X-1617690Y1592620D01*
X-1625480Y1600500D01*
X-1629370Y1612310D01*
Y1668740D01*
G01X-1686690D02*
Y1590000D01*
G01X-1664300Y1668740D02*
X-1709080D01*
G01X-1812000Y2333000D02*
X-1815930Y2329110D01*
X-1822490Y2326190D01*
X-1831680Y2324240D01*
X-1839550Y2326190D01*
X-1844800Y2330080D01*
X-1848740Y2336900D01*
Y2363180D01*
X-1770000D01*
Y2331050D01*
X-1775250Y2324240D01*
X-1783120Y2320340D01*
X-1792310Y2318400D01*
X-1801490Y2320340D01*
X-1809370Y2326190D01*
X-1812000Y2333000D01*
Y2363180D01*
G01X-1770000Y2635130D02*
X-1848740Y2610790D01*
X-1770000Y2586450D01*
G01X-1797560Y2595210D02*
Y2626370D01*
G01X-1809370Y2934950D02*
Y2915470D01*
X-1785750D01*
X-1777870Y2921320D01*
X-1772620Y2928130D01*
X-1770000Y2937870D01*
X-1772620Y2947610D01*
X-1777870Y2954420D01*
X-1785750Y2960260D01*
X-1794930Y2964160D01*
X-1805430Y2966110D01*
X-1814620D01*
X-1822490Y2964160D01*
X-1831680Y2960260D01*
X-1839550Y2954420D01*
X-1844800Y2948580D01*
X-1848740Y2940790D01*
Y2933970D01*
X-1846120Y2926190D01*
X-1840870Y2920340D01*
G01X-1770000Y2884440D02*
X-1848740D01*
X-1770000Y2839660D01*
X-1848740D01*
G01X-1770000Y2804730D02*
X-1848740D01*
Y2785260D01*
X-1844800Y2777470D01*
X-1839550Y2771630D01*
X-1831680Y2766760D01*
X-1822490Y2762860D01*
X-1809370Y2761890D01*
X-1796250Y2762860D01*
X-1787060Y2766760D01*
X-1779180Y2771630D01*
X-1773940Y2777470D01*
X-1770000Y2785260D01*
Y2804730D01*
G01X-1848740Y3709290D02*
Y3672290D01*
X-1770000Y3709290D01*
Y3672290D01*
G01X-1781810Y3172210D02*
X-1775250Y3166370D01*
X-1771310Y3159550D01*
X-1770000Y3150790D01*
X-1772620Y3142030D01*
X-1777870Y3135210D01*
X-1787060Y3130340D01*
X-1797560Y3129370D01*
X-1808060Y3131320D01*
X-1814620Y3136190D01*
X-1819870Y3143000D01*
X-1821180Y3149820D01*
X-1819870Y3156630D01*
X-1814620Y3165390D01*
X-1848740Y3162470D01*
Y3136190D01*
G01Y3096390D02*
X-1770000Y3072050D01*
X-1848740Y3047710D01*
G01X-1812000Y3953000D02*
X-1815930Y3949110D01*
X-1822490Y3946190D01*
X-1831680Y3944240D01*
X-1839550Y3946190D01*
X-1844800Y3950080D01*
X-1848740Y3956900D01*
Y3983180D01*
X-1770000D01*
Y3951050D01*
X-1775250Y3944240D01*
X-1783120Y3940340D01*
X-1792310Y3938400D01*
X-1801490Y3940340D01*
X-1809370Y3946190D01*
X-1812000Y3953000D01*
Y3983180D01*
G01X-1770000Y4225130D02*
X-1848740Y4200790D01*
X-1770000Y4176450D01*
G01X-1797560Y4185210D02*
Y4216370D01*
G01X-1809370Y4524950D02*
Y4505470D01*
X-1785750D01*
X-1777870Y4511320D01*
X-1772620Y4518130D01*
X-1770000Y4527870D01*
X-1772620Y4537610D01*
X-1777870Y4544420D01*
X-1785750Y4550260D01*
X-1794930Y4554160D01*
X-1805430Y4556110D01*
X-1814620D01*
X-1822490Y4554160D01*
X-1831680Y4550260D01*
X-1839550Y4544420D01*
X-1844800Y4538580D01*
X-1848740Y4530790D01*
Y4523970D01*
X-1846120Y4516190D01*
X-1840870Y4510340D01*
G01X-1770000Y4474440D02*
X-1848740D01*
X-1770000Y4429660D01*
X-1848740D01*
G01X-1770000Y4394730D02*
X-1848740D01*
Y4375260D01*
X-1844800Y4367470D01*
X-1839550Y4361630D01*
X-1831680Y4356760D01*
X-1822490Y4352860D01*
X-1809370Y4351890D01*
X-1796250Y4352860D01*
X-1787060Y4356760D01*
X-1779180Y4361630D01*
X-1773940Y4367470D01*
X-1770000Y4375260D01*
Y4394730D01*
G01X-1781810Y4762210D02*
X-1775250Y4756370D01*
X-1771310Y4749550D01*
X-1770000Y4740790D01*
X-1772620Y4732030D01*
X-1777870Y4725210D01*
X-1787060Y4720340D01*
X-1797560Y4719370D01*
X-1808060Y4721320D01*
X-1814620Y4726190D01*
X-1819870Y4733000D01*
X-1821180Y4739820D01*
X-1819870Y4746630D01*
X-1814620Y4755390D01*
X-1848740Y4752470D01*
Y4726190D01*
G01Y4686390D02*
X-1770000Y4662050D01*
X-1848740Y4637710D01*
G01X-1529210Y4890000D02*
X-1521420Y4891310D01*
X-1514610Y4896560D01*
X-1508760Y4904430D01*
X-1504870Y4913620D01*
X-1502920Y4924120D01*
Y4934620D01*
X-1504870Y4945120D01*
X-1508760Y4954310D01*
X-1514610Y4962180D01*
X-1521420Y4967430D01*
X-1529210Y4968740D01*
X-1537000Y4967430D01*
X-1543810Y4962180D01*
X-1549660Y4954310D01*
X-1553550Y4945120D01*
X-1555500Y4934620D01*
Y4924120D01*
X-1553550Y4913620D01*
X-1549660Y4904430D01*
X-1543810Y4896560D01*
X-1537000Y4891310D01*
X-1529210Y4890000D01*
G01X-1586530Y4968740D02*
Y4912310D01*
X-1590420Y4900500D01*
X-1598210Y4892620D01*
X-1607950Y4890000D01*
X-1617690Y4892620D01*
X-1625480Y4900500D01*
X-1629370Y4912310D01*
Y4968740D01*
G01X-1686690D02*
Y4890000D01*
G01X-1664300Y4968740D02*
X-1709080D01*
G01X1452470Y1668740D02*
X1429110D01*
G01X1440790D02*
Y1590000D01*
G01X1452470D02*
X1429110D01*
G01X1384440D02*
Y1668740D01*
X1339660Y1590000D01*
Y1668740D01*
G01X1452470Y4968740D02*
X1429110D01*
G01X1440790D02*
Y4890000D01*
G01X1452470D02*
X1429110D01*
G01X1384440D02*
Y4968740D01*
X1339660Y4890000D01*
Y4968740D01*
G01X1650000Y1852210D02*
X1571260D01*
Y1832740D01*
X1575200Y1824950D01*
X1580450Y1819110D01*
X1588320Y1814240D01*
X1597510Y1810340D01*
X1610630Y1809370D01*
X1623750Y1810340D01*
X1632940Y1814240D01*
X1640820Y1819110D01*
X1646060Y1824950D01*
X1650000Y1832740D01*
Y1852210D01*
G01X1571260Y2119290D02*
Y2082290D01*
X1650000Y2119290D01*
Y2082290D01*
G01X1608000Y2333000D02*
X1604070Y2329110D01*
X1597510Y2326190D01*
X1588320Y2324240D01*
X1580450Y2326190D01*
X1575200Y2330080D01*
X1571260Y2336900D01*
Y2363180D01*
X1650000D01*
Y2331050D01*
X1644750Y2324240D01*
X1636880Y2320340D01*
X1627690Y2318400D01*
X1618510Y2320340D01*
X1610630Y2326190D01*
X1608000Y2333000D01*
Y2363180D01*
G01X1650000Y2635130D02*
X1571260Y2610790D01*
X1650000Y2586450D01*
G01X1622440Y2595210D02*
Y2626370D01*
G01X1610630Y2934950D02*
Y2915470D01*
X1634250D01*
X1642130Y2921320D01*
X1647380Y2928130D01*
X1650000Y2937870D01*
X1647380Y2947610D01*
X1642130Y2954420D01*
X1634250Y2960260D01*
X1625070Y2964160D01*
X1614570Y2966110D01*
X1605380D01*
X1597510Y2964160D01*
X1588320Y2960260D01*
X1580450Y2954420D01*
X1575200Y2948580D01*
X1571260Y2940790D01*
Y2933970D01*
X1573880Y2926190D01*
X1579130Y2920340D01*
G01X1650000Y2884440D02*
X1571260D01*
X1650000Y2839660D01*
X1571260D01*
G01X1650000Y2804730D02*
X1571260D01*
Y2785260D01*
X1575200Y2777470D01*
X1580450Y2771630D01*
X1588320Y2766760D01*
X1597510Y2762860D01*
X1610630Y2761890D01*
X1623750Y2762860D01*
X1632940Y2766760D01*
X1640820Y2771630D01*
X1646060Y2777470D01*
X1650000Y2785260D01*
Y2804730D01*
G01X1571260Y3679290D02*
Y3642290D01*
X1650000Y3679290D01*
Y3642290D01*
G01X1638190Y3172210D02*
X1644750Y3166370D01*
X1648690Y3159550D01*
X1650000Y3150790D01*
X1647380Y3142030D01*
X1642130Y3135210D01*
X1632940Y3130340D01*
X1622440Y3129370D01*
X1611940Y3131320D01*
X1605380Y3136190D01*
X1600130Y3143000D01*
X1598820Y3149820D01*
X1600130Y3156630D01*
X1605380Y3165390D01*
X1571260Y3162470D01*
Y3136190D01*
G01Y3096390D02*
X1650000Y3072050D01*
X1571260Y3047710D01*
G01X1608000Y3923000D02*
X1604070Y3919110D01*
X1597510Y3916190D01*
X1588320Y3914240D01*
X1580450Y3916190D01*
X1575200Y3920080D01*
X1571260Y3926900D01*
Y3953180D01*
X1650000D01*
Y3921050D01*
X1644750Y3914240D01*
X1636880Y3910340D01*
X1627690Y3908400D01*
X1618510Y3910340D01*
X1610630Y3916190D01*
X1608000Y3923000D01*
Y3953180D01*
G01X1650000Y4195130D02*
X1571260Y4170790D01*
X1650000Y4146450D01*
G01X1622440Y4155210D02*
Y4186370D01*
G01X1610630Y4494950D02*
Y4475470D01*
X1634250D01*
X1642130Y4481320D01*
X1647380Y4488130D01*
X1650000Y4497870D01*
X1647380Y4507610D01*
X1642130Y4514420D01*
X1634250Y4520260D01*
X1625070Y4524160D01*
X1614570Y4526110D01*
X1605380D01*
X1597510Y4524160D01*
X1588320Y4520260D01*
X1580450Y4514420D01*
X1575200Y4508580D01*
X1571260Y4500790D01*
Y4493970D01*
X1573880Y4486190D01*
X1579130Y4480340D01*
G01X1650000Y4444440D02*
X1571260D01*
X1650000Y4399660D01*
X1571260D01*
G01X1650000Y4364730D02*
X1571260D01*
Y4345260D01*
X1575200Y4337470D01*
X1580450Y4331630D01*
X1588320Y4326760D01*
X1597510Y4322860D01*
X1610630Y4321890D01*
X1623750Y4322860D01*
X1632940Y4326760D01*
X1640820Y4331630D01*
X1646060Y4337470D01*
X1650000Y4345260D01*
Y4364730D01*
G01X1638190Y4732210D02*
X1644750Y4726370D01*
X1648690Y4719550D01*
X1650000Y4710790D01*
X1647380Y4702030D01*
X1642130Y4695210D01*
X1632940Y4690340D01*
X1622440Y4689370D01*
X1611940Y4691320D01*
X1605380Y4696190D01*
X1600130Y4703000D01*
X1598820Y4709820D01*
X1600130Y4716630D01*
X1605380Y4725390D01*
X1571260Y4722470D01*
Y4696190D01*
G01Y4656390D02*
X1650000Y4632050D01*
X1571260Y4607710D01*
G54D11*
G01X-1460500Y3238500D02*
Y1714500D01*
X-1714500D01*
Y3238500D01*
X-1460500D01*
G01Y4826000D02*
Y3556000D01*
X-1714500D01*
Y4826000D01*
X-1460500D01*
G01X1524000Y3238500D02*
Y1714500D01*
X1270000D01*
Y3238500D01*
X1524000D01*
G01Y4826000D02*
Y3556000D01*
X1270000D01*
Y4826000D01*
X1524000D01*
M02*
