G04 ================== begin FILE IDENTIFICATION RECORD ==================*
G04 Layout Name:  ENCODER_ZPULSE_DIRECTION.brd*
G04 Film Name:    SSTOP*
G04 File Format:  Gerber RS274X*
G04 File Origin:  Cadence Allegro 17.2-P019*
G04 Origin Date:  Wed Sep 21 14:24:05 2016*
G04 *
G04 Layer:  REF DES/SILKSCREEN_TOP*
G04 Layer:  BOARD GEOMETRY/OUTLINE*
G04 Layer:  BOARD GEOMETRY/DESIGN_OUTLINE*
G04 Layer:  PACKAGE GEOMETRY/SILKSCREEN_TOP*
G04 Layer:  BOARD GEOMETRY/SILKSCREEN_TOP*
G04 *
G04 Offset:    (0.0000 0.0000)*
G04 Mirror:    No*
G04 Mode:      Positive*
G04 Rotation:  0*
G04 FullContactRelief:  No*
G04 UndefLineWidth:     0.0000*
G04 ================== end FILE IDENTIFICATION RECORD ====================*
%FSLAX25Y25*MOMM*%
%IR0*IPPOS*OFA0.00000B0.00000*MIA0B0*SFA1.00000B1.00000*%
%ADD10C,.1*%
%ADD11C,.2*%
%ADD12C,.15*%
%ADD13C,.1016*%
%ADD14C,.254*%
G75*
%LPD*%
G75*
G36*
G01X-308250Y3504000D02*
G02I-20000J0D01*
G37*
G36*
G01Y4837500D02*
G02I-20000J0D01*
G37*
G54D10*
G01X-1781260Y2119290D02*
Y2082290D01*
X-1860000Y2119290D01*
Y2082290D01*
G01Y1852210D02*
X-1781260D01*
Y1832740D01*
X-1785200Y1824950D01*
X-1790450Y1819110D01*
X-1798320Y1814240D01*
X-1807510Y1810340D01*
X-1820630Y1809370D01*
X-1833750Y1810340D01*
X-1842940Y1814240D01*
X-1850820Y1819110D01*
X-1856060Y1824950D01*
X-1860000Y1832740D01*
Y1852210D01*
G01X-1910000Y5020000D02*
X1720000D01*
Y1580000D01*
X-1910000D01*
Y5020000D01*
G01X-1820630Y2934950D02*
Y2915470D01*
X-1844250D01*
X-1852130Y2921320D01*
X-1857380Y2928130D01*
X-1860000Y2937870D01*
X-1857380Y2947610D01*
X-1852130Y2954420D01*
X-1844250Y2960260D01*
X-1835070Y2964160D01*
X-1824570Y2966110D01*
X-1815380D01*
X-1807510Y2964160D01*
X-1798320Y2960260D01*
X-1790450Y2954420D01*
X-1785200Y2948580D01*
X-1781260Y2940790D01*
Y2933970D01*
X-1783880Y2926190D01*
X-1789130Y2920340D01*
G01X-1860000Y2884440D02*
X-1781260D01*
X-1860000Y2839660D01*
X-1781260D01*
G01X-1860000Y2804730D02*
X-1781260D01*
Y2785260D01*
X-1785200Y2777470D01*
X-1790450Y2771630D01*
X-1798320Y2766760D01*
X-1807510Y2762860D01*
X-1820630Y2761890D01*
X-1833750Y2762860D01*
X-1842940Y2766760D01*
X-1850820Y2771630D01*
X-1856060Y2777470D01*
X-1860000Y2785260D01*
Y2804730D01*
G01Y2635130D02*
X-1781260Y2610790D01*
X-1860000Y2586450D01*
G01X-1832440Y2595210D02*
Y2626370D01*
G01X-1818000Y2333000D02*
X-1814070Y2329110D01*
X-1807510Y2326190D01*
X-1798320Y2324240D01*
X-1790450Y2326190D01*
X-1785200Y2330080D01*
X-1781260Y2336900D01*
Y2363180D01*
X-1860000D01*
Y2331050D01*
X-1854750Y2324240D01*
X-1846880Y2320340D01*
X-1837690Y2318400D01*
X-1828510Y2320340D01*
X-1820630Y2326190D01*
X-1818000Y2333000D01*
Y2363180D01*
G01X-1848190Y3172210D02*
X-1854750Y3166370D01*
X-1858690Y3159550D01*
X-1860000Y3150790D01*
X-1857380Y3142030D01*
X-1852130Y3135210D01*
X-1842940Y3130340D01*
X-1832440Y3129370D01*
X-1821940Y3131320D01*
X-1815380Y3136190D01*
X-1810130Y3143000D01*
X-1808820Y3149820D01*
X-1810130Y3156630D01*
X-1815380Y3165390D01*
X-1781260Y3162470D01*
Y3136190D01*
G01Y3096390D02*
X-1860000Y3072050D01*
X-1781260Y3047710D01*
G01Y3709290D02*
Y3672290D01*
X-1860000Y3709290D01*
Y3672290D01*
G01X-1820630Y4524950D02*
Y4505470D01*
X-1844250D01*
X-1852130Y4511320D01*
X-1857380Y4518130D01*
X-1860000Y4527870D01*
X-1857380Y4537610D01*
X-1852130Y4544420D01*
X-1844250Y4550260D01*
X-1835070Y4554160D01*
X-1824570Y4556110D01*
X-1815380D01*
X-1807510Y4554160D01*
X-1798320Y4550260D01*
X-1790450Y4544420D01*
X-1785200Y4538580D01*
X-1781260Y4530790D01*
Y4523970D01*
X-1783880Y4516190D01*
X-1789130Y4510340D01*
G01X-1860000Y4474440D02*
X-1781260D01*
X-1860000Y4429660D01*
X-1781260D01*
G01X-1860000Y4394730D02*
X-1781260D01*
Y4375260D01*
X-1785200Y4367470D01*
X-1790450Y4361630D01*
X-1798320Y4356760D01*
X-1807510Y4352860D01*
X-1820630Y4351890D01*
X-1833750Y4352860D01*
X-1842940Y4356760D01*
X-1850820Y4361630D01*
X-1856060Y4367470D01*
X-1860000Y4375260D01*
Y4394730D01*
G01Y4225130D02*
X-1781260Y4200790D01*
X-1860000Y4176450D01*
G01X-1832440Y4185210D02*
Y4216370D01*
G01X-1818000Y3953000D02*
X-1814070Y3949110D01*
X-1807510Y3946190D01*
X-1798320Y3944240D01*
X-1790450Y3946190D01*
X-1785200Y3950080D01*
X-1781260Y3956900D01*
Y3983180D01*
X-1860000D01*
Y3951050D01*
X-1854750Y3944240D01*
X-1846880Y3940340D01*
X-1837690Y3938400D01*
X-1828510Y3940340D01*
X-1820630Y3946190D01*
X-1818000Y3953000D01*
Y3983180D01*
G01X-1848190Y4762210D02*
X-1854750Y4756370D01*
X-1858690Y4749550D01*
X-1860000Y4740790D01*
X-1857380Y4732030D01*
X-1852130Y4725210D01*
X-1842940Y4720340D01*
X-1832440Y4719370D01*
X-1821940Y4721320D01*
X-1815380Y4726190D01*
X-1810130Y4733000D01*
X-1808820Y4739820D01*
X-1810130Y4746630D01*
X-1815380Y4755390D01*
X-1781260Y4752470D01*
Y4726190D01*
G01Y4686390D02*
X-1860000Y4662050D01*
X-1781260Y4637710D01*
G01X-1013230Y1740000D02*
Y1803500D01*
X-996290D01*
X-990870Y1800320D01*
X-987490Y1796090D01*
X-986130Y1787620D01*
X-987490Y1779160D01*
X-991550Y1773870D01*
X-996290Y1770690D01*
X-1013230D01*
G01X-996290D02*
X-986130Y1740000D01*
G01X-955320Y1747410D02*
X-950570Y1742120D01*
X-945150Y1740000D01*
X-939740Y1742120D01*
X-934990Y1748460D01*
X-931610Y1757990D01*
X-930250Y1767520D01*
Y1779160D01*
X-931610Y1788680D01*
X-934990Y1797150D01*
X-939060Y1801380D01*
X-943800Y1803500D01*
X-949220Y1801380D01*
X-953280Y1797150D01*
X-955990Y1790800D01*
X-957350Y1782330D01*
X-955990Y1774930D01*
X-952610Y1767520D01*
X-948540Y1763280D01*
X-943800Y1762220D01*
X-938380Y1764340D01*
X-934320Y1769630D01*
X-930250Y1779160D01*
G01X-905500Y1858000D02*
X-535500D01*
Y1698000D01*
X-905500D01*
Y1858000D01*
G01X-1133230Y1980000D02*
Y2043500D01*
X-1116290D01*
X-1110870Y2040320D01*
X-1107490Y2036090D01*
X-1106130Y2027620D01*
X-1107490Y2019160D01*
X-1111550Y2013870D01*
X-1116290Y2010690D01*
X-1133230D01*
G01X-1116290D02*
X-1106130Y1980000D01*
G01X-1063800D02*
Y2043500D01*
X-1071930Y2030800D01*
G01Y1980000D02*
X-1055670D01*
G01X-1022820Y1992700D02*
X-1018760Y1985290D01*
X-1013340Y1981060D01*
X-1007240Y1980000D01*
X-1001820Y1981060D01*
X-996400Y1986350D01*
X-993020Y1992700D01*
X-992340Y1999050D01*
X-993700Y2006460D01*
X-998440Y2011750D01*
X-1003180Y2013870D01*
X-1009270D01*
G01X-1003180D02*
X-999110Y2017040D01*
X-995730Y2022330D01*
X-994370Y2028680D01*
X-995730Y2035030D01*
X-999110Y2040320D01*
X-1005210Y2043500D01*
X-1011310Y2042440D01*
X-1017400Y2038210D01*
G01X-555000Y1952000D02*
X-925000D01*
Y2112000D01*
X-555000D01*
Y1952000D01*
G01Y2366000D02*
Y2206000D01*
X-925000D01*
Y2366000D01*
X-555000D01*
G01X-890000Y2426000D02*
X-790000D01*
Y2376000D01*
X-750000Y2426000D01*
X-790000Y2476000D01*
Y2426000D01*
G01X-491500Y3699500D02*
Y3539500D01*
X-861500D01*
Y3699500D01*
X-491500D01*
G01X-1253230Y3450000D02*
Y3513500D01*
X-1236290D01*
X-1230870Y3510320D01*
X-1227490Y3506090D01*
X-1226130Y3497620D01*
X-1227490Y3489160D01*
X-1231550Y3483870D01*
X-1236290Y3480690D01*
X-1253230D01*
G01X-1236290D02*
X-1226130Y3450000D01*
G01X-1183800D02*
Y3513500D01*
X-1191930Y3500800D01*
G01Y3450000D02*
X-1175670D01*
G01X-1127920D02*
Y3513500D01*
X-1136050Y3500800D01*
G01Y3450000D02*
X-1119790D01*
G01X-1286500Y3699500D02*
X-916500D01*
Y3539500D01*
X-1286500D01*
Y3699500D01*
G01X-1126500Y3619500D02*
X-1121500D01*
Y3639500D01*
X-1106500Y3599500D01*
Y3639500D01*
X-1091500Y3599500D01*
Y3639500D01*
X-1081500Y3619500D01*
X-1076500D01*
G01X-1284730Y3216500D02*
Y3280000D01*
X-1267790D01*
X-1262370Y3276820D01*
X-1258990Y3272590D01*
X-1257630Y3264120D01*
X-1258990Y3255660D01*
X-1263050Y3250370D01*
X-1267790Y3247190D01*
X-1284730D01*
G01X-1267790D02*
X-1257630Y3216500D01*
G01X-1228170Y3269420D02*
X-1224110Y3275770D01*
X-1219360Y3278940D01*
X-1213950Y3280000D01*
X-1207170Y3277880D01*
X-1202430Y3272590D01*
X-1201080Y3266240D01*
X-1201750Y3259890D01*
X-1204460Y3254600D01*
X-1218010Y3244020D01*
X-1224110Y3236610D01*
X-1228170Y3226020D01*
X-1229520Y3216500D01*
X-1201080D01*
G01X-1286500Y3191500D02*
X-916500D01*
Y3031500D01*
X-1286500D01*
Y3191500D01*
G01X-1126500Y3111500D02*
X-1121500D01*
Y3131500D01*
X-1106500Y3091500D01*
Y3131500D01*
X-1091500Y3091500D01*
Y3131500D01*
X-1081500Y3111500D01*
X-1076500D01*
G01X-555000Y4779000D02*
Y4619000D01*
X-925000D01*
Y4779000D01*
X-555000D01*
G01X-890000Y4839000D02*
X-790000D01*
Y4789000D01*
X-750000Y4839000D01*
X-790000Y4889000D01*
Y4839000D01*
G01X-1073230Y4800000D02*
Y4863500D01*
X-1056290D01*
X-1050870Y4860320D01*
X-1047490Y4856090D01*
X-1046130Y4847620D01*
X-1047490Y4839160D01*
X-1051550Y4833870D01*
X-1056290Y4830690D01*
X-1073230D01*
G01X-1056290D02*
X-1046130Y4800000D01*
G01X-1003800D02*
Y4863500D01*
X-1011930Y4850800D01*
G01Y4800000D02*
X-995670D01*
G01X-999500Y4619000D02*
X-1369500D01*
Y4779000D01*
X-999500D01*
Y4619000D01*
G01X-1159500Y4699000D02*
X-1164500D01*
Y4679000D01*
X-1179500Y4719000D01*
Y4679000D01*
X-1194500Y4719000D01*
Y4679000D01*
X-1204500Y4699000D01*
X-1209500D01*
G01X-745500Y1778000D02*
X-740500D01*
Y1798000D01*
X-725500Y1758000D01*
Y1798000D01*
X-710500Y1758000D01*
Y1798000D01*
X-700500Y1778000D01*
X-695500D01*
G01X-715000Y2032000D02*
X-720000D01*
Y2012000D01*
X-735000Y2052000D01*
Y2012000D01*
X-750000Y2052000D01*
Y2012000D01*
X-760000Y2032000D01*
X-765000D01*
G01X-700000Y2466000D02*
X-720000D01*
G01X-730000Y2436000D02*
X-700000Y2466000D01*
Y2446000D01*
G01X-750000Y2426000D02*
X-655000D01*
G01X-745000Y2476000D02*
Y2376000D01*
G01X-443230Y2400000D02*
Y2463500D01*
X-426290D01*
X-420870Y2460320D01*
X-417490Y2456090D01*
X-416130Y2447620D01*
X-417490Y2439160D01*
X-421550Y2433870D01*
X-426290Y2430690D01*
X-443230D01*
G01X-426290D02*
X-416130Y2400000D01*
G01X-365670D02*
Y2463500D01*
X-390730Y2417990D01*
X-356870D01*
G01X-461000Y2366000D02*
X-91000D01*
Y2206000D01*
X-461000D01*
Y2366000D01*
G01X-301000Y2286000D02*
X-296000D01*
Y2306000D01*
X-281000Y2266000D01*
Y2306000D01*
X-266000Y2266000D01*
Y2306000D01*
X-256000Y2286000D01*
X-251000D01*
G01X-681500Y3809500D02*
Y3709500D01*
G01X-826500Y3759500D02*
X-726500D01*
Y3709500D01*
X-686500Y3759500D01*
X-726500Y3809500D01*
Y3759500D01*
G01X-636500Y3799500D02*
X-656500D01*
G01X-666500Y3769500D02*
X-636500Y3799500D01*
Y3779500D01*
G01X-686500Y3759500D02*
X-591500D01*
G01X-450000Y3876770D02*
X-513500D01*
Y3893710D01*
X-510320Y3899130D01*
X-506090Y3902510D01*
X-497620Y3903870D01*
X-489160Y3902510D01*
X-483870Y3898450D01*
X-480690Y3893710D01*
Y3876770D01*
G01Y3893710D02*
X-450000Y3903870D01*
G01Y3946200D02*
X-451060Y3950940D01*
X-454230Y3956360D01*
X-459520Y3959750D01*
X-466930Y3961100D01*
X-474340Y3959750D01*
X-480690Y3955680D01*
X-483870Y3949590D01*
Y3942810D01*
X-485980Y3938750D01*
X-491270Y3935360D01*
X-498680Y3934010D01*
X-506090Y3936040D01*
X-511380Y3940780D01*
X-513500Y3946200D01*
X-511380Y3951620D01*
X-506090Y3956360D01*
X-498680Y3958390D01*
X-491270Y3957040D01*
X-485980Y3953650D01*
X-483870Y3949590D01*
Y3942810D01*
X-480690Y3936720D01*
X-474340Y3932650D01*
X-466930Y3931300D01*
X-459520Y3932650D01*
X-454230Y3936040D01*
X-451060Y3941460D01*
X-450000Y3946200D01*
G01X-715000Y3857000D02*
Y4227000D01*
X-555000D01*
Y3857000D01*
X-715000D01*
G01X-635000Y4017000D02*
Y4022000D01*
X-655000D01*
X-615000Y4037000D01*
X-655000D01*
X-615000Y4052000D01*
X-655000D01*
X-635000Y4062000D01*
Y4067000D01*
G01X-700000Y4879000D02*
X-720000D01*
G01X-730000Y4849000D02*
X-700000Y4879000D01*
Y4859000D01*
G01X-750000Y4839000D02*
X-655000D01*
G01X-745000Y4889000D02*
Y4789000D01*
G01X778500Y2112000D02*
Y1952000D01*
X408500D01*
Y2112000D01*
X778500D01*
G01X603500Y2182000D02*
X633500Y2212000D01*
Y2192000D01*
G01X583500Y2172000D02*
X678500D01*
G01X588500Y2222000D02*
Y2122000D01*
G01X443500Y2172000D02*
X543500D01*
Y2122000D01*
X583500Y2172000D01*
X543500Y2222000D01*
Y2172000D01*
G01X426770Y1620000D02*
Y1683500D01*
X443710D01*
X449130Y1680320D01*
X452510Y1676090D01*
X453870Y1667620D01*
X452510Y1659160D01*
X448450Y1653870D01*
X443710Y1650690D01*
X426770D01*
G01X443710D02*
X453870Y1620000D01*
G01X494850D02*
X496200Y1633760D01*
X498230Y1645400D01*
X500940Y1655980D01*
X504330Y1667620D01*
X509750Y1683500D01*
X482650D01*
G01X428000Y1858000D02*
X798000D01*
Y1698000D01*
X428000D01*
Y1858000D01*
G01X588000Y1778000D02*
X593000D01*
Y1798000D01*
X608000Y1758000D01*
Y1798000D01*
X623000Y1758000D01*
Y1798000D01*
X633000Y1778000D01*
X638000D01*
G01X157790Y2568740D02*
Y2512310D01*
X161680Y2500500D01*
X169470Y2492620D01*
X179210Y2490000D01*
X188950Y2492620D01*
X196740Y2500500D01*
X200630Y2512310D01*
Y2568740D01*
G01X239450Y2555620D02*
X245290Y2563490D01*
X252110Y2567430D01*
X259900Y2568740D01*
X269630Y2566120D01*
X276450Y2559550D01*
X278400Y2551680D01*
X277420Y2543800D01*
X273530Y2537240D01*
X254060Y2524120D01*
X245290Y2514930D01*
X239450Y2501810D01*
X237500Y2490000D01*
X278400D01*
G01X633500Y2212000D02*
X613500D01*
G01X905500Y2841000D02*
X535500D01*
Y3001000D01*
X905500D01*
Y2841000D01*
G01Y3158500D02*
X535500D01*
Y3318500D01*
X905500D01*
Y3158500D01*
G01X493270Y4105500D02*
Y4169000D01*
X510210D01*
X515630Y4165820D01*
X519010Y4161590D01*
X520370Y4153120D01*
X519010Y4144660D01*
X514950Y4139370D01*
X510210Y4136190D01*
X493270D01*
G01X510210D02*
X520370Y4105500D01*
G01X562700D02*
Y4169000D01*
X554570Y4156300D01*
G01Y4105500D02*
X570830D01*
G01X618580Y4169000D02*
X613160Y4166880D01*
X609100Y4161590D01*
X606390Y4155240D01*
X604360Y4146770D01*
X603680Y4137250D01*
X604360Y4127720D01*
X606390Y4119260D01*
X609100Y4112910D01*
X613160Y4107620D01*
X618580Y4105500D01*
X624000Y4107620D01*
X628060Y4112910D01*
X630770Y4119260D01*
X632800Y4127720D01*
X633480Y4137250D01*
X632800Y4146770D01*
X630770Y4155240D01*
X628060Y4161590D01*
X624000Y4166880D01*
X618580Y4169000D01*
G01X491500Y4080500D02*
X861500D01*
Y3920500D01*
X491500D01*
Y4080500D01*
G01X651500Y4000500D02*
X656500D01*
Y4020500D01*
X671500Y3980500D01*
Y4020500D01*
X686500Y3980500D01*
Y4020500D01*
X696500Y4000500D01*
X701500D01*
G01X-52210Y4968740D02*
Y4912310D01*
X-48320Y4900500D01*
X-40530Y4892620D01*
X-30790Y4890000D01*
X-21050Y4892620D01*
X-13260Y4900500D01*
X-9370Y4912310D01*
Y4968740D01*
G01X47950Y4890000D02*
Y4968740D01*
X36270Y4952990D01*
G01Y4890000D02*
X59630D01*
G01X1116770Y1650000D02*
Y1713500D01*
X1133710D01*
X1139130Y1710320D01*
X1142510Y1706090D01*
X1143870Y1697620D01*
X1142510Y1689160D01*
X1138450Y1683870D01*
X1133710Y1680690D01*
X1116770D01*
G01X1133710D02*
X1143870Y1650000D01*
G01X1173330Y1676460D02*
X1178070Y1683870D01*
X1182140Y1688100D01*
X1187550Y1690220D01*
X1192300Y1688100D01*
X1195680Y1683870D01*
X1198390Y1677520D01*
X1199070Y1670110D01*
X1198390Y1663760D01*
X1195680Y1657410D01*
X1191620Y1652120D01*
X1186880Y1650000D01*
X1181460Y1652120D01*
X1176720Y1658460D01*
X1174010Y1667990D01*
X1173330Y1678570D01*
X1174680Y1692330D01*
X1176720Y1699740D01*
X1180100Y1707150D01*
X1184850Y1712440D01*
X1189590Y1713500D01*
X1194330Y1711380D01*
X1197720Y1706090D01*
G01X1223000Y1761500D02*
X853000D01*
Y1921500D01*
X1223000D01*
Y1761500D01*
G01X1063000Y1841500D02*
X1058000D01*
Y1821500D01*
X1043000Y1861500D01*
Y1821500D01*
X1028000Y1861500D01*
Y1821500D01*
X1018000Y1841500D01*
X1013000D01*
G01X966770Y2910000D02*
Y2973500D01*
X983710D01*
X989130Y2970320D01*
X992510Y2966090D01*
X993870Y2957620D01*
X992510Y2949160D01*
X988450Y2943870D01*
X983710Y2940690D01*
X966770D01*
G01X983710D02*
X993870Y2910000D01*
G01X1021300Y2919520D02*
X1025360Y2914230D01*
X1030100Y2911060D01*
X1036200Y2910000D01*
X1042300Y2912120D01*
X1047040Y2916350D01*
X1050420Y2923760D01*
X1051100Y2932220D01*
X1049750Y2940690D01*
X1046360Y2945980D01*
X1041620Y2950220D01*
X1036880Y2951270D01*
X1032140Y2950220D01*
X1026040Y2945980D01*
X1028070Y2973500D01*
X1046360D01*
G01X745500Y2921000D02*
X740500D01*
Y2901000D01*
X725500Y2941000D01*
Y2901000D01*
X710500Y2941000D01*
Y2901000D01*
X700500Y2921000D01*
X695500D01*
G01X966770Y3210000D02*
Y3273500D01*
X983710D01*
X989130Y3270320D01*
X992510Y3266090D01*
X993870Y3257620D01*
X992510Y3249160D01*
X988450Y3243870D01*
X983710Y3240690D01*
X966770D01*
G01X983710D02*
X993870Y3210000D01*
G01X1021300Y3222700D02*
X1025360Y3215290D01*
X1030780Y3211060D01*
X1036880Y3210000D01*
X1042300Y3211060D01*
X1047720Y3216350D01*
X1051100Y3222700D01*
X1051780Y3229050D01*
X1050420Y3236460D01*
X1045680Y3241750D01*
X1040940Y3243870D01*
X1034850D01*
G01X1040940D02*
X1045010Y3247040D01*
X1048390Y3252330D01*
X1049750Y3258680D01*
X1048390Y3265030D01*
X1045010Y3270320D01*
X1038910Y3273500D01*
X1032810Y3272440D01*
X1026720Y3268210D01*
G01X745500Y3238500D02*
X740500D01*
Y3218500D01*
X725500Y3258500D01*
Y3218500D01*
X710500Y3258500D01*
Y3218500D01*
X700500Y3238500D01*
X695500D01*
G01X1206770Y3390000D02*
Y3453500D01*
X1223710D01*
X1229130Y3450320D01*
X1232510Y3446090D01*
X1233870Y3437620D01*
X1232510Y3429160D01*
X1228450Y3423870D01*
X1223710Y3420690D01*
X1206770D01*
G01X1223710D02*
X1233870Y3390000D01*
G01X1276200D02*
Y3453500D01*
X1268070Y3440800D01*
G01Y3390000D02*
X1284330D01*
G01X1319210Y3442920D02*
X1323270Y3449270D01*
X1328020Y3452440D01*
X1333430Y3453500D01*
X1340210Y3451380D01*
X1344950Y3446090D01*
X1346300Y3439740D01*
X1345630Y3433390D01*
X1342920Y3428100D01*
X1329370Y3417520D01*
X1323270Y3410110D01*
X1319210Y3399520D01*
X1317860Y3390000D01*
X1346300D01*
G01X999500Y3412500D02*
Y3782500D01*
X1159500D01*
Y3412500D01*
X999500D01*
G01X1079500Y3572500D02*
Y3577500D01*
X1059500D01*
X1099500Y3592500D01*
X1059500D01*
X1099500Y3607500D01*
X1059500D01*
X1079500Y3617500D01*
Y3622500D01*
G01X999500Y4271000D02*
X1159500D01*
Y3901000D01*
X999500D01*
Y4271000D01*
G01X899500Y4126000D02*
Y4106000D01*
G01X929500Y4096000D02*
X899500Y4126000D01*
X919500D01*
G01X939500Y4076000D02*
Y4171000D01*
G01X889500Y4081000D02*
X989500D01*
G01X939500Y3936000D02*
Y4036000D01*
X989500D01*
X939500Y4076000D01*
X889500Y4036000D01*
X939500D01*
G01X1638740Y2119290D02*
Y2082290D01*
X1560000Y2119290D01*
Y2082290D01*
G01Y1852210D02*
X1638740D01*
Y1832740D01*
X1634800Y1824950D01*
X1629550Y1819110D01*
X1621680Y1814240D01*
X1612490Y1810340D01*
X1599370Y1809370D01*
X1586250Y1810340D01*
X1577060Y1814240D01*
X1569180Y1819110D01*
X1563940Y1824950D01*
X1560000Y1832740D01*
Y1852210D01*
G01X1599370Y2934950D02*
Y2915470D01*
X1575750D01*
X1567870Y2921320D01*
X1562620Y2928130D01*
X1560000Y2937870D01*
X1562620Y2947610D01*
X1567870Y2954420D01*
X1575750Y2960260D01*
X1584930Y2964160D01*
X1595430Y2966110D01*
X1604620D01*
X1612490Y2964160D01*
X1621680Y2960260D01*
X1629550Y2954420D01*
X1634800Y2948580D01*
X1638740Y2940790D01*
Y2933970D01*
X1636120Y2926190D01*
X1630870Y2920340D01*
G01X1560000Y2884440D02*
X1638740D01*
X1560000Y2839660D01*
X1638740D01*
G01X1560000Y2804730D02*
X1638740D01*
Y2785260D01*
X1634800Y2777470D01*
X1629550Y2771630D01*
X1621680Y2766760D01*
X1612490Y2762860D01*
X1599370Y2761890D01*
X1586250Y2762860D01*
X1577060Y2766760D01*
X1569180Y2771630D01*
X1563940Y2777470D01*
X1560000Y2785260D01*
Y2804730D01*
G01Y2635130D02*
X1638740Y2610790D01*
X1560000Y2586450D01*
G01X1587560Y2595210D02*
Y2626370D01*
G01X1602000Y2333000D02*
X1605930Y2329110D01*
X1612490Y2326190D01*
X1621680Y2324240D01*
X1629550Y2326190D01*
X1634800Y2330080D01*
X1638740Y2336900D01*
Y2363180D01*
X1560000D01*
Y2331050D01*
X1565250Y2324240D01*
X1573120Y2320340D01*
X1582310Y2318400D01*
X1591490Y2320340D01*
X1599370Y2326190D01*
X1602000Y2333000D01*
Y2363180D01*
G01X1571810Y3172210D02*
X1565250Y3166370D01*
X1561310Y3159550D01*
X1560000Y3150790D01*
X1562620Y3142030D01*
X1567870Y3135210D01*
X1577060Y3130340D01*
X1587560Y3129370D01*
X1598060Y3131320D01*
X1604620Y3136190D01*
X1609870Y3143000D01*
X1611180Y3149820D01*
X1609870Y3156630D01*
X1604620Y3165390D01*
X1638740Y3162470D01*
Y3136190D01*
G01Y3096390D02*
X1560000Y3072050D01*
X1638740Y3047710D01*
G01Y3709290D02*
Y3672290D01*
X1560000Y3709290D01*
Y3672290D01*
G01X1599370Y4524950D02*
Y4505470D01*
X1575750D01*
X1567870Y4511320D01*
X1562620Y4518130D01*
X1560000Y4527870D01*
X1562620Y4537610D01*
X1567870Y4544420D01*
X1575750Y4550260D01*
X1584930Y4554160D01*
X1595430Y4556110D01*
X1604620D01*
X1612490Y4554160D01*
X1621680Y4550260D01*
X1629550Y4544420D01*
X1634800Y4538580D01*
X1638740Y4530790D01*
Y4523970D01*
X1636120Y4516190D01*
X1630870Y4510340D01*
G01X1560000Y4474440D02*
X1638740D01*
X1560000Y4429660D01*
X1638740D01*
G01X1560000Y4394730D02*
X1638740D01*
Y4375260D01*
X1634800Y4367470D01*
X1629550Y4361630D01*
X1621680Y4356760D01*
X1612490Y4352860D01*
X1599370Y4351890D01*
X1586250Y4352860D01*
X1577060Y4356760D01*
X1569180Y4361630D01*
X1563940Y4367470D01*
X1560000Y4375260D01*
Y4394730D01*
G01Y4195130D02*
X1638740Y4170790D01*
X1560000Y4146450D01*
G01X1587560Y4155210D02*
Y4186370D01*
G01X1602000Y3923000D02*
X1605930Y3919110D01*
X1612490Y3916190D01*
X1621680Y3914240D01*
X1629550Y3916190D01*
X1634800Y3920080D01*
X1638740Y3926900D01*
Y3953180D01*
X1560000D01*
Y3921050D01*
X1565250Y3914240D01*
X1573120Y3910340D01*
X1582310Y3908400D01*
X1591490Y3910340D01*
X1599370Y3916190D01*
X1602000Y3923000D01*
Y3953180D01*
G01X1571810Y4762210D02*
X1565250Y4756370D01*
X1561310Y4749550D01*
X1560000Y4740790D01*
X1562620Y4732030D01*
X1567870Y4725210D01*
X1577060Y4720340D01*
X1587560Y4719370D01*
X1598060Y4721320D01*
X1604620Y4726190D01*
X1609870Y4733000D01*
X1611180Y4739820D01*
X1609870Y4746630D01*
X1604620Y4755390D01*
X1638740Y4752470D01*
Y4726190D01*
G01Y4686390D02*
X1560000Y4662050D01*
X1638740Y4637710D01*
G54D11*
G01X-113250Y2615500D02*
Y3480500D01*
X113250D01*
Y2615500D01*
X-113250D01*
G01Y3949000D02*
Y4814000D01*
X113250D01*
Y3949000D01*
X-113250D01*
G54D12*
G01X-1607300Y3383230D02*
X-1613650Y3379840D01*
X-1617880Y3375780D01*
X-1620000Y3371030D01*
X-1617880Y3365620D01*
X-1613650Y3361550D01*
X-1607300Y3357490D01*
X-1598830Y3356130D01*
X-1556500D01*
G01X-1620000Y3313800D02*
X-1556500D01*
X-1569200Y3321930D01*
G01X-1620000D02*
Y3305670D01*
G01X-1044580Y2250000D02*
Y2313500D01*
X-1031030D01*
X-1025620Y2310320D01*
X-1021550Y2306090D01*
X-1018160Y2299740D01*
X-1015460Y2292330D01*
X-1014780Y2281750D01*
X-1015460Y2271170D01*
X-1018160Y2263760D01*
X-1021550Y2257410D01*
X-1025620Y2253170D01*
X-1031030Y2250000D01*
X-1044580D01*
G01X-988700Y2259520D02*
X-984640Y2254230D01*
X-979900Y2251060D01*
X-973800Y2250000D01*
X-967700Y2252120D01*
X-962960Y2256350D01*
X-959580Y2263760D01*
X-958900Y2272220D01*
X-960250Y2280690D01*
X-963640Y2285980D01*
X-968380Y2290220D01*
X-973120Y2291270D01*
X-977860Y2290220D01*
X-983960Y2285980D01*
X-981930Y2313500D01*
X-963640D01*
G01X-1059680Y4230000D02*
X-1065100Y4231060D01*
X-1069840Y4235290D01*
X-1073900Y4241640D01*
X-1076610Y4249050D01*
X-1077970Y4257520D01*
Y4265980D01*
X-1076610Y4274450D01*
X-1073900Y4281860D01*
X-1069840Y4288210D01*
X-1065100Y4292440D01*
X-1059680Y4293500D01*
X-1054260Y4292440D01*
X-1049520Y4288210D01*
X-1045460Y4281860D01*
X-1042750Y4274450D01*
X-1041390Y4265980D01*
Y4257520D01*
X-1042750Y4249050D01*
X-1045460Y4241640D01*
X-1049520Y4235290D01*
X-1054260Y4231060D01*
X-1059680Y4230000D01*
G01X-1054260Y4246930D02*
X-1046130Y4230000D01*
G01X-1016670Y4282920D02*
X-1012610Y4289270D01*
X-1007860Y4292440D01*
X-1002450Y4293500D01*
X-995670Y4291380D01*
X-990930Y4286090D01*
X-989580Y4279740D01*
X-990250Y4273390D01*
X-992960Y4268100D01*
X-1006510Y4257520D01*
X-1012610Y4250110D01*
X-1016670Y4239520D01*
X-1018020Y4230000D01*
X-989580D01*
G01X-519680Y1620000D02*
X-525100Y1621060D01*
X-529840Y1625290D01*
X-533900Y1631640D01*
X-536610Y1639050D01*
X-537970Y1647520D01*
Y1655980D01*
X-536610Y1664450D01*
X-533900Y1671860D01*
X-529840Y1678210D01*
X-525100Y1682440D01*
X-519680Y1683500D01*
X-514260Y1682440D01*
X-509520Y1678210D01*
X-505460Y1671860D01*
X-502750Y1664450D01*
X-501390Y1655980D01*
Y1647520D01*
X-502750Y1639050D01*
X-505460Y1631640D01*
X-509520Y1625290D01*
X-514260Y1621060D01*
X-519680Y1620000D01*
G01X-514260Y1636930D02*
X-506130Y1620000D01*
G01X-478700Y1632700D02*
X-474640Y1625290D01*
X-469220Y1621060D01*
X-463120Y1620000D01*
X-457700Y1621060D01*
X-452280Y1626350D01*
X-448900Y1632700D01*
X-448220Y1639050D01*
X-449580Y1646460D01*
X-454320Y1651750D01*
X-459060Y1653870D01*
X-465150D01*
G01X-459060D02*
X-454990Y1657040D01*
X-451610Y1662330D01*
X-450250Y1668680D01*
X-451610Y1675030D01*
X-454990Y1680320D01*
X-461090Y1683500D01*
X-467190Y1682440D01*
X-473280Y1678210D01*
G01X-834580Y3450000D02*
Y3513500D01*
X-821030D01*
X-815620Y3510320D01*
X-811550Y3506090D01*
X-808160Y3499740D01*
X-805460Y3492330D01*
X-804780Y3481750D01*
X-805460Y3471170D01*
X-808160Y3463760D01*
X-811550Y3457410D01*
X-815620Y3453170D01*
X-821030Y3450000D01*
X-834580D01*
G01X-778700Y3462700D02*
X-774640Y3455290D01*
X-769220Y3451060D01*
X-763120Y3450000D01*
X-757700Y3451060D01*
X-752280Y3456350D01*
X-748900Y3462700D01*
X-748220Y3469050D01*
X-749580Y3476460D01*
X-754320Y3481750D01*
X-759060Y3483870D01*
X-765150D01*
G01X-759060D02*
X-754990Y3487040D01*
X-751610Y3492330D01*
X-750250Y3498680D01*
X-751610Y3505030D01*
X-754990Y3510320D01*
X-761090Y3513500D01*
X-767190Y3512440D01*
X-773280Y3508210D01*
G01X-534580Y4830000D02*
Y4893500D01*
X-521030D01*
X-515620Y4890320D01*
X-511550Y4886090D01*
X-508160Y4879740D01*
X-505460Y4872330D01*
X-504780Y4861750D01*
X-505460Y4851170D01*
X-508160Y4843760D01*
X-511550Y4837410D01*
X-515620Y4833170D01*
X-521030Y4830000D01*
X-534580D01*
G01X-463800D02*
Y4893500D01*
X-471930Y4880800D01*
G01Y4830000D02*
X-455670D01*
G01X230320Y2160000D02*
X224900Y2161060D01*
X220160Y2165290D01*
X216100Y2171640D01*
X213390Y2179050D01*
X212030Y2187520D01*
Y2195980D01*
X213390Y2204450D01*
X216100Y2211860D01*
X220160Y2218210D01*
X224900Y2222440D01*
X230320Y2223500D01*
X235740Y2222440D01*
X240480Y2218210D01*
X244540Y2211860D01*
X247250Y2204450D01*
X248610Y2195980D01*
Y2187520D01*
X247250Y2179050D01*
X244540Y2171640D01*
X240480Y2165290D01*
X235740Y2161060D01*
X230320Y2160000D01*
G01X235740Y2176930D02*
X243870Y2160000D01*
G01X286200D02*
Y2223500D01*
X278070Y2210800D01*
G01Y2160000D02*
X294330D01*
G01X1187300Y2586770D02*
X1193650Y2590160D01*
X1197880Y2594220D01*
X1200000Y2598970D01*
X1197880Y2604380D01*
X1193650Y2608450D01*
X1187300Y2612510D01*
X1178830Y2613870D01*
X1136500D01*
G01X1147080Y2643330D02*
X1140730Y2647390D01*
X1137560Y2652140D01*
X1136500Y2657550D01*
X1138620Y2664330D01*
X1143910Y2669070D01*
X1150260Y2670420D01*
X1156610Y2669750D01*
X1161900Y2667040D01*
X1172480Y2653490D01*
X1179890Y2647390D01*
X1190480Y2643330D01*
X1200000Y2641980D01*
Y2670420D01*
G01X896620Y3609340D02*
X891200Y3610400D01*
X886460Y3614630D01*
X882400Y3620980D01*
X879690Y3628390D01*
X878330Y3636860D01*
Y3645320D01*
X879690Y3653790D01*
X882400Y3661200D01*
X886460Y3667550D01*
X891200Y3671780D01*
X896620Y3672840D01*
X902040Y3671780D01*
X906780Y3667550D01*
X910840Y3661200D01*
X913550Y3653790D01*
X914910Y3645320D01*
Y3636860D01*
X913550Y3628390D01*
X910840Y3620980D01*
X906780Y3614630D01*
X902040Y3610400D01*
X896620Y3609340D01*
G01X902040Y3626270D02*
X910170Y3609340D01*
G01X960630D02*
Y3672840D01*
X935570Y3627330D01*
X969430D01*
G01X995420Y4320000D02*
Y4383500D01*
X1008970D01*
X1014380Y4380320D01*
X1018450Y4376090D01*
X1021840Y4369740D01*
X1024540Y4362330D01*
X1025220Y4351750D01*
X1024540Y4341170D01*
X1021840Y4333760D01*
X1018450Y4327410D01*
X1014380Y4323170D01*
X1008970Y4320000D01*
X995420D01*
G01X1074330D02*
Y4383500D01*
X1049270Y4337990D01*
X1083130D01*
G54D13*
G01X-1739900Y4743450D02*
Y4806950D01*
X-1748030Y4794250D01*
G01Y4743450D02*
X-1731770D01*
G01X-1397300Y4943230D02*
X-1403650Y4939840D01*
X-1407880Y4935780D01*
X-1410000Y4931030D01*
X-1407880Y4925620D01*
X-1403650Y4921550D01*
X-1397300Y4917490D01*
X-1388830Y4916130D01*
X-1346500D01*
G01X-1397300Y4888700D02*
X-1404710Y4884640D01*
X-1408940Y4879220D01*
X-1410000Y4873120D01*
X-1408940Y4867700D01*
X-1403650Y4862280D01*
X-1397300Y4858900D01*
X-1390950Y4858220D01*
X-1383540Y4859580D01*
X-1378250Y4864320D01*
X-1376130Y4869060D01*
Y4875150D01*
G01Y4869060D02*
X-1372960Y4864990D01*
X-1367670Y4861610D01*
X-1361320Y4860250D01*
X-1354970Y4861610D01*
X-1349680Y4864990D01*
X-1346500Y4871090D01*
X-1347560Y4877190D01*
X-1351790Y4883280D01*
G01X1244600Y4743450D02*
Y4806950D01*
X1236470Y4794250D01*
G01Y4743450D02*
X1252730D01*
G01X1572700Y4913230D02*
X1566350Y4909840D01*
X1562120Y4905780D01*
X1560000Y4901030D01*
X1562120Y4895620D01*
X1566350Y4891550D01*
X1572700Y4887490D01*
X1581170Y4886130D01*
X1623500D01*
G01X1560000Y4835670D02*
X1623500D01*
X1577990Y4860730D01*
Y4826870D01*
G54D14*
G01X-1460500Y3238500D02*
Y1714500D01*
X-1714500D01*
Y3238500D01*
X-1460500D01*
G01X-1714500Y3556000D02*
Y4826000D01*
X-1460500D01*
Y3556000D01*
X-1714500D01*
G01X-1084580Y4203700D02*
X-756920D01*
Y3776980D01*
X-1084580D01*
Y4203700D01*
G01X-121920Y1701800D02*
X-449580D01*
Y2128520D01*
X-121920D01*
Y1701800D01*
G01X-5080Y2108200D02*
X322580D01*
Y1681480D01*
X-5080D01*
Y2108200D01*
G01X502920Y3822700D02*
X830580D01*
Y3395980D01*
X502920D01*
Y3822700D01*
G01X1524000Y3238500D02*
Y1714500D01*
X1270000D01*
Y3238500D01*
X1524000D01*
G01X1270000Y3556000D02*
Y4826000D01*
X1524000D01*
Y3556000D01*
X1270000D01*
M02*
