G04 ================== begin FILE IDENTIFICATION RECORD ==================*
G04 Layout Name:  C:/DATA/GIT/CADENCE/MODULES/TESTCP506 WIFI MODULE/allegro/CP506.brd*
G04 Film Name:    BOTTOM*
G04 File Format:  Gerber RS274X*
G04 File Origin:  Cadence Allegro 17.2-P019*
G04 Origin Date:  Wed Jun 21 15:00:08 2017*
G04 *
G04 Layer:  ETCH/BOTTOM*
G04 Layer:  PIN/BOTTOM*
G04 Layer:  VIA CLASS/BOTTOM*
G04 *
G04 Offset:    (0.0000 0.0000)*
G04 Mirror:    No*
G04 Mode:      Positive*
G04 Rotation:  0*
G04 FullContactRelief:  No*
G04 UndefLineWidth:     0.0000*
G04 ================== end FILE IDENTIFICATION RECORD ====================*
%FSLAX25Y25*MOMM*%
%IR0*IPPOS*OFA0.00000B0.00000*MIA0B0*SFA1.00000B1.00000*%
%ADD16R,.5X2.5*%
%ADD13R,1.02X.74*%
%ADD14R,.74X1.02*%
%ADD12C,.7*%
%ADD17R,2.1501X.95*%
%ADD11R,2.X2.5*%
%ADD10C,1.2*%
%ADD15R,.9X.8*%
%ADD18R,2.1501X3.2499*%
%ADD19C,.3*%
%ADD20C,2.2004*%
G75*
%LPD*%
G75*
G36*
G01X2869990Y-239990D02*
X1000010D01*
Y2949990D01*
X2869990D01*
Y-239990D01*
G37*
%LPC*%
G75*
G36*
G01X2115000Y398600D02*
X1825000D01*
G02X1777660Y432460I0J50023D01*
G01X1776490Y435900D01*
X1745000D01*
G02X1732280Y448620I0J12720D01*
G01Y698620D01*
G02X1745000Y711340I12720J0D01*
G01X1776490D01*
X1777660Y714780D01*
G02X1785040Y728710I47339J-16160D01*
G03X1776930Y744980I-8115J6111D01*
G01X1623070D01*
X1254980Y1113070D01*
Y1991430D01*
G02X1237980Y2029000I33015J37570D01*
G01Y2131000D01*
G02X1259980Y2172440I50029J0D01*
G01Y2259160D01*
G02X1229980Y2305000I20022J45840D01*
G01Y2385000D01*
G02X1230180Y2389450I50019J-19D01*
G01X1230200Y2389670D01*
Y2394980D01*
X1173070D01*
X1132780Y2435270D01*
X1130990Y2435460D01*
G02X1224710Y2527240I9010J84540D01*
G01X1226930Y2525020D01*
X1328010D01*
X1367600Y2564610D01*
X1562340D01*
X1596930Y2530020D01*
X1645000D01*
G02X1683560Y2511860I0J-50018D01*
G01X1685080Y2510020D01*
X1697560D01*
G02X1739000Y2532020I41440J-28029D01*
G01X1795570D01*
Y2542520D01*
X1868070Y2615020D01*
X2191930D01*
X2316930Y2490020D01*
X2365000D01*
G02X2408310Y2465020I0J-50015D01*
G01X2453480D01*
G02X2479000Y2472020I25520J-43019D01*
G01X2535570D01*
Y2482520D01*
X2554980Y2501930D01*
Y2559850D01*
X2551660Y2561080D01*
G02X2518980Y2608000I17342J46920D01*
G01Y2682000D01*
G02X2538830Y2721900I50026J0D01*
G03Y2738100I-6129J8100D01*
G02X2518980Y2778000I30176J39900D01*
G01Y2852000D01*
G02X2569000Y2902020I50020J0D01*
G01X2671000D01*
G02X2721020Y2852000I0J-50020D01*
G01Y2778000D01*
G02X2701170Y2738100I-50026J0D01*
G03Y2721900I6129J-8100D01*
G02X2721020Y2682000I-30176J-39900D01*
G01Y2608000D01*
G02X2688340Y2561080I-50022J0D01*
G01X2685020Y2559850D01*
Y2448070D01*
X2665610Y2428660D01*
Y2414660D01*
X2631020Y2380070D01*
Y2348000D01*
G02X2611170Y2308100I-50026J0D01*
G03Y2291900I6129J-8100D01*
G02X2631020Y2252000I-30176J-39900D01*
G01Y2178000D01*
G02X2581000Y2127980I-50020J0D01*
G01X2479000D01*
G02X2437560Y2149980I0J50029D01*
G01X2424630D01*
X2419630Y2144980D01*
X2408310D01*
G02X2383730Y2123620I-43312J25019D01*
G03X2378150Y2110280I3797J-9425D01*
G02X2381880Y2094720I-46149J-19290D01*
G01X2382230Y2090020D01*
X2394690D01*
X2395620Y2093930D01*
G02X2408000Y2103720I12380J-2933D01*
G01X2482000D01*
G02X2494720Y2091000I0J-12720D01*
G01Y1989000D01*
G02X2482000Y1976280I-12720J0D01*
G01X2408000D01*
G02X2395620Y1986070I0J12723D01*
G01X2394690Y1989980D01*
X2382230D01*
X2381880Y1985280D01*
G02X2360020Y1947560I-49883J3714D01*
G01Y1931020D01*
X2492000D01*
G02X2542020Y1881000I0J-50020D01*
G01Y1779000D01*
G02X2525020Y1741430I-50015J0D01*
G01Y903070D01*
X2396930Y774980D01*
X2156930D01*
X2155020Y773070D01*
Y728630D01*
G02X2165020Y698620I-40030J-30010D01*
G01Y448620D01*
G02X2115000Y398600I-50020J0D01*
G37*
G36*
G01X1339980Y-175000D02*
Y75000D01*
G02X1390000Y125020I50020J0D01*
G01X1590000D01*
G02X1640020Y75000I0J-50020D01*
G01Y-175000D01*
G02X1590000Y-225020I-50020J0D01*
G01X1390000D01*
G02X1339980Y-175000I0J50020D01*
G37*
G36*
G01Y375000D02*
Y625000D01*
G02X1390000Y675020I50020J0D01*
G01X1590000D01*
G02X1640020Y625000I0J-50020D01*
G01Y375000D01*
G02X1590000Y324980I-50020J0D01*
G01X1390000D01*
G02X1339980Y375000I0J50020D01*
G37*
G36*
G01X2542480Y1277500D02*
Y1602500D01*
G02X2592500Y1652520I50020J0D01*
G01X2807500D01*
G02X2857520Y1602500I0J-50020D01*
G01Y1277500D01*
G02X2807500Y1227480I-50020J0D01*
G01X2592500D01*
G02X2542480Y1277500I0J50020D01*
G37*
G36*
G01X2219980Y-175000D02*
Y75000D01*
G02X2270000Y125020I50020J0D01*
G01X2470000D01*
G02X2520020Y75000I0J-50020D01*
G01Y-175000D01*
G02X2470000Y-225020I-50020J0D01*
G01X2270000D01*
G02X2219980Y-175000I0J50020D01*
G37*
G36*
G01X2517980Y149000D02*
Y251010D01*
G02X2526280Y278600I50022J-5D01*
G03X2524600Y291770I-8469J5612D01*
G02X2511080Y311660I33394J37239D01*
G01X2509850Y314980D01*
X2463070D01*
X2453070Y324980D01*
X2270000D01*
G02X2219980Y375000I0J50020D01*
G01Y625000D01*
G02X2270000Y675020I50020J0D01*
G01X2470000D01*
G02X2520020Y625000I0J-50020D01*
G01Y484360D01*
G03X2534880Y475350I10161J0D01*
G02X2558000Y481020I23131J-44347D01*
G01X2632000D01*
G02X2681880Y434720I0J-50018D01*
G01X2682230Y430020D01*
X2714690D01*
X2715620Y433930D01*
G02X2728000Y443720I12380J-2933D01*
G01X2802000D01*
G02X2814720Y431000I0J-12720D01*
G01Y329000D01*
G02X2802000Y316280I-12720J0D01*
G01X2728000D01*
G02X2715620Y326070I0J12723D01*
G01X2714690Y329980D01*
X2682230D01*
X2681880Y325280D01*
G02X2673720Y301400I-49883J3711D01*
G03X2675400Y288230I8469J-5612D01*
G02X2691880Y254720I-33400J-37233D01*
G01X2692230Y250020D01*
X2704690D01*
X2705620Y253930D01*
G02X2718000Y263720I12380J-2933D01*
G01X2792000D01*
G02X2804720Y251000I0J-12720D01*
G01Y149000D01*
G02X2792000Y136280I-12720J0D01*
G01X2718000D01*
G02X2705620Y146070I0J12723D01*
G01X2704690Y149980D01*
X2692230D01*
X2691880Y145280D01*
G02X2642000Y98980I-49880J3718D01*
G01X2568000D01*
G02X2517980Y149000I0J50020D01*
G37*
G54D20*
X1710000Y240000D03*
X2150000D03*
%LPD*%
G75*
G36*
G01X2389980Y1728980D02*
Y1724370D01*
X2394980Y1719370D01*
Y956930D01*
X2343070Y905020D01*
X2103070D01*
X2070000Y871950D01*
X1946930Y995020D01*
X1676930D01*
X1671640Y1000310D01*
G02X1675230Y1008980I3594J3590D01*
G01X1692000D01*
G03X1741880Y1055280I0J50018D01*
G01X1742230Y1059980D01*
X1754690D01*
X1755620Y1056070D01*
G03X1768000Y1046280I12380J2933D01*
G01X1842000D01*
G03X1854720Y1059000I0J12720D01*
G01Y1161000D01*
G03X1842000Y1173720I-12720J0D01*
G01X1768000D01*
G03X1755620Y1163930I0J-12723D01*
G01X1754690Y1160020D01*
X1742230D01*
X1741880Y1164720D01*
G03X1739440Y1176850I-49880J-3723D01*
G03X1761020Y1218000I-28444J41150D01*
G01Y1236500D01*
G02X1774650Y1246050I10161J0D01*
G03X1779000Y1245280I4358J11949D01*
G01X1881000D01*
G03X1893720Y1258000I0J12720D01*
G01Y1332000D01*
G03X1883930Y1344380I-12723J0D01*
G01X1880020Y1345310D01*
Y1353050D01*
G02X1884720Y1358120I5080J4D01*
G03X1918520Y1374920I-3718J49881D01*
G01X1955460D01*
X1956810Y1371920D01*
G03X2000040Y1342480I45615J20521D01*
G02X2004880Y1337410I-241J-5075D01*
G01Y1270670D01*
X2000550Y1270020D01*
G03X1989700Y1257440I1868J-12580D01*
G01Y1162440D01*
G03X2002420Y1149720I12720J0D01*
G01X2217440D01*
G03X2230160Y1162440I0J12720D01*
G01Y1257440D01*
G03X2219310Y1270020I-12718J0D01*
G01X2214970Y1270660D01*
Y1337410D01*
G02X2219810Y1342480I5081J-5D01*
G03X2267460Y1392440I-2366J49960D01*
G01Y1487440D01*
G03X2217440Y1537460I-50020J0D01*
G01X2209970D01*
Y1572420D01*
X2217440D01*
G03X2267460Y1622440I0J50020D01*
G01Y1717440D01*
G03X2267440Y1718590I-50020J-295D01*
G02X2277600Y1728980I10158J230D01*
G01X2389980D01*
G37*
G54D10*
X1710000Y240000D03*
X2150000D03*
G54D11*
X1490000Y-50000D03*
Y500000D03*
X2370000Y-50000D03*
Y500000D03*
G54D12*
X1050000Y360000D03*
X1080000Y-150000D03*
X1560000Y720000D03*
X1200000Y750000D03*
X1140000Y1320000D03*
X1110000Y2130000D03*
Y1950000D03*
Y1770000D03*
X1495000Y2080000D03*
X1230000Y2730000D03*
X1140000Y2520000D03*
X1950000Y120000D03*
X1890000Y-90000D03*
X2220000Y990000D03*
X2100000Y1020000D03*
X1805000Y1110000D03*
X1830000Y1445000D03*
X2175000Y2040000D03*
X1888700Y2280000D03*
X2320000Y2210000D03*
X1790000Y2445000D03*
X2760000Y-90000D03*
X2400000Y210000D03*
X2670000Y840000D03*
Y1080000D03*
X2790000D03*
X2445000Y2040000D03*
X2730000Y2190000D03*
X2760000Y2430000D03*
X2620000Y2815000D03*
G54D13*
X1660000Y1255000D03*
Y1425000D03*
X1830000Y1295000D03*
Y1445000D03*
X1790000Y2275000D03*
Y2445000D03*
X2530000Y2215000D03*
X2620000Y2815000D03*
Y2645000D03*
X2530000Y2385000D03*
G54D14*
X1655000Y1110000D03*
X1325000Y2080000D03*
X1495000D03*
X1805000Y1110000D03*
X2285000Y1830000D03*
X2005000Y2040000D03*
X2175000D03*
X2295000D03*
X2765000Y380000D03*
X2595000D03*
X2755000Y200000D03*
X2605000D03*
X2455000Y1830000D03*
X2445000Y2040000D03*
G54D15*
X1325000Y2345000D03*
X1600000Y2250000D03*
Y2440000D03*
X2045000Y2305000D03*
X2320000Y2210000D03*
Y2400000D03*
G54D16*
X1770000Y573620D03*
X1850000D03*
X1930000D03*
X2010000D03*
X2090000D03*
G54D17*
X2109930Y1669940D03*
Y1439940D03*
Y1209940D03*
G54D18*
X2700000Y1440000D03*
G54D19*
G01X1560000Y720000D02*
X1706380Y573620D01*
G01X1325000Y2080000D02*
Y2001300D01*
X1320000Y1996300D01*
Y1140000D01*
X1650000Y810000D01*
X1860000D01*
X1930000Y740000D01*
Y573620D01*
G01X2005000Y2040000D02*
Y1915000D01*
X1920000Y1830000D01*
X1530000D01*
X1500000Y1800000D01*
Y1080000D01*
X1650000Y930000D01*
X1920000D01*
X2010000Y840000D01*
Y573620D01*
G01X1660000Y1425000D02*
X1810000D01*
X1830000Y1445000D01*
G01X1660000Y1255000D02*
Y1115000D01*
X1655000Y1110000D01*
G01X1325000Y2345000D02*
Y2080000D01*
G01X1600000Y2250000D02*
X1686300D01*
X1711300Y2275000D01*
X1790000D01*
G01X1600000Y2440000D02*
X1706300D01*
X1711300Y2445000D01*
X1790000D01*
G01X1140000Y2520000D02*
X1200000Y2460000D01*
X1354940D01*
X1394530Y2499590D01*
X1535410D01*
X1595000Y2440000D01*
X1600000D01*
G01X1706380Y573620D02*
X1770000D01*
G01Y430820D02*
Y573620D01*
G01D02*
Y716420D01*
G01X2455000Y1830000D02*
Y1751300D01*
X2460000Y1746300D01*
Y930000D01*
X2370000Y840000D01*
X2130000D01*
X2090000Y800000D01*
Y573620D01*
G01X1830000Y1295000D02*
X1844000D01*
X1929060Y1209940D01*
G01X1830000Y1295000D02*
Y1230300D01*
G01X1929060Y1209940D02*
X2109930D01*
G01X1805000Y1205300D02*
Y1110000D01*
G01X2109930Y1144640D02*
Y1209940D01*
G01D02*
X2235240D01*
G01X1805000Y1041200D02*
Y1110000D01*
G01D02*
X1859800D01*
G01X1830000Y1230300D02*
X1805000Y1205300D01*
G01X2109930Y1439940D02*
X1913760D01*
X1908700Y1445000D01*
X1830000D01*
G01X2285000Y1830000D02*
X2194790D01*
X2109930Y1745140D01*
Y1669940D01*
G01X2175000Y2040000D02*
X2295000D01*
G01D02*
Y1918700D01*
X2285000Y1908700D01*
Y1830000D01*
G01X2045000Y2305000D02*
Y2158700D01*
X2005000Y2118700D01*
Y2040000D01*
G01X1790000Y2275000D02*
X1855000D01*
X1860000Y2280000D01*
X1888700D01*
G01X2530000Y2215000D02*
X2397700D01*
X2392700Y2210000D01*
X2320000D01*
G01Y2400000D02*
X2436300D01*
X2451300Y2385000D01*
X2530000D01*
G01X1790000Y2445000D02*
X1804000D01*
X1860590Y2501590D01*
Y2515590D01*
X1895000Y2550000D01*
X2165000D01*
X2315000Y2400000D01*
X2320000D01*
G01X2765000Y380000D02*
Y301300D01*
G01X2755000Y291300D02*
Y200000D01*
G01Y131200D02*
Y200000D01*
G01D02*
X2809800D01*
G01X2765000Y301300D02*
X2755000Y291300D01*
G01X2595000Y380000D02*
Y288700D01*
X2605000Y278700D01*
Y200000D01*
G01X2821590Y450590D02*
X2765000Y394000D01*
Y380000D01*
G01X2835590Y1123090D02*
X2852700Y1105980D01*
Y1054020D01*
X2835590Y1036910D01*
Y450590D01*
G01D02*
X2821590D01*
G01X2595000Y380000D02*
X2490000D01*
X2370000Y500000D01*
G01X2835590Y1964410D02*
Y1638050D01*
X2852510Y1621130D01*
Y1258870D01*
X2835590Y1241950D01*
Y1123090D01*
G01X2445000Y2040000D02*
X2760000D01*
G01X2445000Y1971200D02*
Y2040000D01*
G01D02*
Y2108800D01*
G01X2760000Y2040000D02*
X2835590Y1964410D01*
G01X2620000Y2645000D02*
Y2475000D01*
X2600590Y2455590D01*
Y2441590D01*
X2544000Y2385000D01*
X2530000D01*
M02*
