G04 ================== begin FILE IDENTIFICATION RECORD ==================*
G04 Layout Name:  C:/DATA/GIT/CADENCE/MODULES/TESTCP506 WIFI MODULE/allegro/CP506.brd*
G04 Film Name:    TOP*
G04 File Format:  Gerber RS274X*
G04 File Origin:  Cadence Allegro 17.2-P019*
G04 Origin Date:  Wed Jun 21 15:00:08 2017*
G04 *
G04 Layer:  ETCH/TOP*
G04 Layer:  PIN/TOP*
G04 Layer:  VIA CLASS/TOP*
G04 *
G04 Offset:    (0.0000 0.0000)*
G04 Mirror:    No*
G04 Mode:      Positive*
G04 Rotation:  0*
G04 FullContactRelief:  No*
G04 UndefLineWidth:     0.0000*
G04 ================== end FILE IDENTIFICATION RECORD ====================*
%FSLAX25Y25*MOMM*%
%IR0*IPPOS*OFA0.00000B0.00000*MIA0B0*SFA1.00000B1.00000*%
%ADD12C,.7*%
%ADD10R,1.X2.5001*%
%ADD11C,1.2*%
%ADD13C,.3*%
%ADD14C,2.2004*%
G75*
%LPD*%
G75*
G36*
G01X1258980Y-205030D02*
G03X1263430Y-225640I50021J15D01*
G02X1254180Y-239990I-9253J-4192D01*
G01X1000010D01*
Y2949990D01*
X1093500D01*
G02X1100680Y2932650I-3J-10158D01*
G01X1030640Y2862600D01*
Y2537410D01*
X1055270Y2512780D01*
X1055460Y2510990D01*
G03X1164310Y2601470I84541J9010D01*
G01X1160680Y2602550D01*
Y2808740D01*
X1196920Y2844980D01*
X1320980D01*
Y2595000D01*
G03X1371000Y2544980I50020J0D01*
G01X1613510D01*
G02X1620690Y2527630I-3J-10162D01*
G01X1614980Y2521920D01*
Y2163070D01*
X1713070Y2064980D01*
X2080990D01*
G02X2091020Y2053240I-7J-10161D01*
G03X2090460Y2049010I83976J-13269D01*
G01X2090270Y2047220D01*
X2028070Y1985020D01*
X1586930D01*
X1560020Y2011930D01*
Y2025190D01*
X1561150Y2026590D01*
G03X1429980Y2025220I-66150J53410D01*
G01Y1958070D01*
X1533070Y1854980D01*
X2081930D01*
X2182220Y1955270D01*
X2184010Y1955460D01*
G03X2201640Y1959260I-8998J84543D01*
G02X2214980Y1949610I3181J-9648D01*
G01Y1586930D01*
X2138070Y1510020D01*
X1884780D01*
G03Y1379980I-54780J-65020D01*
G01X2191930D01*
X2345020Y1533070D01*
Y1961220D01*
X2465020Y2081220D01*
Y2270080D01*
X2350080Y2385020D01*
X2073070D01*
X2004980Y2316930D01*
Y2286930D01*
X1983070Y2265020D01*
X1973200D01*
Y2270120D01*
X1973230Y2270660D01*
Y2270680D01*
G03X1954850Y2333440I-84529J9316D01*
G01X1953720Y2334840D01*
Y2346770D01*
X2086020Y2479070D01*
Y2547150D01*
X2089250Y2548420D01*
G03X2121020Y2594990I-18251J46573D01*
G01Y2845000D01*
G03X2071000Y2895020I-50020J0D01*
G01X1686020D01*
Y2899640D01*
X1653020Y2932650D01*
G02X1660200Y2949990I7183J7182D01*
G01X2869990D01*
Y-239990D01*
X2586820D01*
G02X2577570Y-225640I3J10158D01*
G03X2582020Y-205030I-45571J20625D01*
G01Y45000D01*
G03X2532000Y95020I-50020J0D01*
G01X2132000D01*
G03X2081980Y45000I0J-50020D01*
G01Y-205030D01*
G03X2086430Y-225640I50021J15D01*
G02X2077180Y-239990I-9253J-4192D01*
G01X1763820D01*
G02X1754570Y-225640I3J10158D01*
G03X1759020Y-205030I-45571J20625D01*
G01Y45000D01*
G03X1709000Y95020I-50020J0D01*
G01X1309000D01*
G03X1258980Y45000I0J-50020D01*
G01Y-205030D01*
G37*
%LPC*%
G75*
G36*
G01X2521020Y2595000D02*
G02X2471000Y2544980I-50020J0D01*
G01X2371000D01*
G02X2320980Y2595000I0J50020D01*
G01Y2845000D01*
G02X2371000Y2895020I50020J0D01*
G01X2471000D01*
G02X2521020Y2845000I0J-50020D01*
G01Y2785020D01*
X2526910D01*
G03X2536840Y2797300I-5J10159D01*
G02X2685020Y2760220I83158J17699D01*
G01Y2723070D01*
X2616930Y2654980D01*
X2521020D01*
Y2595000D01*
G37*
G36*
G01X2158280D02*
Y2845000D01*
G02X2171000Y2857720I12720J0D01*
G01X2271000D01*
G02X2283720Y2845000I0J-12720D01*
G01Y2595000D01*
G02X2271000Y2582280I-12720J0D01*
G01X2171000D01*
G02X2158280Y2595000I0J12720D01*
G37*
G54D14*
X1710000Y240000D03*
X2150000D03*
%LPD*%
G75*
G54D10*
X1359000Y-80000D03*
X1509000D03*
X1659000D03*
X1421000Y2720000D03*
X1621000D03*
X2182000Y-80000D03*
X2332000D03*
X1821000Y2720000D03*
X2021000D03*
X2221000D03*
X2482000Y-80000D03*
X2421000Y2720000D03*
G54D11*
X1710000Y240000D03*
X2150000D03*
G54D12*
X1050000Y360000D03*
X1080000Y-150000D03*
X1560000Y720000D03*
X1200000Y750000D03*
X1140000Y1320000D03*
X1110000Y2130000D03*
Y1950000D03*
Y1770000D03*
X1495000Y2080000D03*
X1230000Y2730000D03*
X1140000Y2520000D03*
X1950000Y120000D03*
X1890000Y-90000D03*
X2220000Y990000D03*
X2100000Y1020000D03*
X1805000Y1110000D03*
X1830000Y1445000D03*
X2175000Y2040000D03*
X1888700Y2280000D03*
X2320000Y2210000D03*
X1790000Y2445000D03*
X2760000Y-90000D03*
X2400000Y210000D03*
X2670000Y840000D03*
Y1080000D03*
X2790000D03*
X2445000Y2040000D03*
X2730000Y2190000D03*
X2760000Y2430000D03*
X2620000Y2815000D03*
G54D13*
G01X1560000Y720000D02*
Y1050000D01*
X1620000Y1110000D01*
X1805000D01*
G01X1495000Y2080000D02*
Y1985000D01*
X1560000Y1920000D01*
X2055000D01*
X2175000Y2040000D01*
G01X2320000Y2210000D02*
X2180000D01*
X2100000Y2130000D01*
X1740000D01*
X1680000Y2190000D01*
Y2494990D01*
X1710010Y2525000D01*
X1778710D01*
X1821000Y2567290D01*
Y2720000D01*
G01X1621000D02*
Y2872710D01*
X1583710Y2910000D01*
X1169990D01*
X1095660Y2835670D01*
Y2564340D01*
X1140000Y2520000D01*
G01X2445000Y2040000D02*
Y1245000D01*
X2310000Y1110000D01*
X1805000D01*
G01X1830000Y1445000D02*
X2165000D01*
X2280000Y1560000D01*
Y1988150D01*
X2400000Y2108150D01*
Y2243150D01*
X2323150Y2320000D01*
X2100000D01*
X2070000Y2290000D01*
Y2260000D01*
X2010000Y2200000D01*
X1855550D01*
X1790000Y2265550D01*
Y2445000D01*
G01X1888700Y2280000D02*
Y2373700D01*
X2021000Y2506000D01*
Y2720000D01*
G01X2445000Y2040000D02*
X2550000Y2145000D01*
Y2280000D01*
X2370000Y2460000D01*
X2280000D01*
X2250000Y2490000D01*
G01D02*
Y2691000D01*
X2221000Y2720000D01*
G01Y2577190D02*
Y2720000D01*
G01D02*
Y2862810D01*
G01X2153200Y2720000D02*
X2221000D01*
G01D02*
X2288800D01*
G01X2421000D02*
X2590000D01*
X2620000Y2750000D01*
Y2815000D01*
M02*
