G04 ================== begin FILE IDENTIFICATION RECORD ==================*
G04 Layout Name:  C:/DATA/GIT/CADENCE/MODULES/RPI_NRF24L01/allegro/RPI_NRF24L01.brd*
G04 Film Name:    SC_TOP*
G04 File Format:  Gerber RS274X*
G04 File Origin:  Cadence Allegro 17.2-P019*
G04 Origin Date:  Fri Mar 17 17:17:09 2017*
G04 *
G04 Layer:  REF DES/SILKSCREEN_TOP*
G04 Layer:  PACKAGE GEOMETRY/SILKSCREEN_TOP*
G04 Layer:  BOARD GEOMETRY/SILKSCREEN_TOP*
G04 Layer:  BOARD GEOMETRY/DESIGN_OUTLINE*
G04 *
G04 Offset:    (0.0000 0.0000)*
G04 Mirror:    No*
G04 Mode:      Positive*
G04 Rotation:  0*
G04 FullContactRelief:  No*
G04 UndefLineWidth:     0.0000*
G04 ================== end FILE IDENTIFICATION RECORD ====================*
%FSLAX25Y25*MOMM*%
%IR0*IPPOS*OFA0.00000B0.00000*MIA0B0*SFA1.00000B1.00000*%
%ADD10C,.1*%
%ADD11C,.2*%
%ADD12C,.15*%
G75*
%LPD*%
G75*
G36*
G01X870000Y2347000D02*
G02I-30000J0D01*
G37*
G36*
G01X3480000Y1857500D02*
G02I-20000J0D01*
G37*
G54D10*
G01X1400000Y670000D02*
X1030000D01*
Y830000D01*
X1400000D01*
Y670000D01*
G01X1205000Y755000D02*
X1190000D01*
G01X1225000D02*
X1240000D01*
G01X1205000Y700000D02*
Y805000D01*
G01X1225000Y700000D02*
Y805000D01*
G01X1030000Y1490000D02*
X2480000D01*
Y970000D01*
X1030000D01*
Y1490000D01*
G01X1180000Y2300000D02*
X1340000D01*
Y1930000D01*
X1180000D01*
Y2300000D01*
G01X1120000Y1965000D02*
Y2065000D01*
X1170000D01*
X1120000Y2105000D01*
X1070000Y2065000D01*
X1120000D01*
G01X880000Y1930000D02*
Y2300000D01*
X1040000D01*
Y1930000D01*
X880000D01*
G01X960000Y2090000D02*
Y2095000D01*
X940000D01*
X980000Y2110000D01*
X940000D01*
X980000Y2125000D01*
X940000D01*
X960000Y2135000D01*
Y2140000D01*
G01X1080000Y2155000D02*
Y2135000D01*
G01X1110000Y2125000D02*
X1080000Y2155000D01*
X1100000D01*
G01X1120000Y2105000D02*
Y2200000D01*
G01X1070000Y2110000D02*
X1170000D01*
G01X2080000Y830000D02*
X2450000D01*
Y670000D01*
X2080000D01*
Y830000D01*
G01X1540000D02*
X1910000D01*
Y670000D01*
X1540000D01*
Y830000D01*
G01X1700000Y750000D02*
X1705000D01*
Y770000D01*
X1720000Y730000D01*
Y770000D01*
X1735000Y730000D01*
Y770000D01*
X1745000Y750000D01*
X1750000D01*
G01X1790000Y1230000D02*
X1840000D01*
G01X1700000D02*
X1660000D01*
G01X1700000Y1350000D02*
Y1090000D01*
G01X1790000Y1350000D02*
Y1090000D01*
G01X1720000D02*
X1770000D01*
Y1350000D01*
X1720000D01*
Y1090000D01*
G01X2110000Y1965000D02*
Y2065000D01*
X2160000D01*
X2110000Y2105000D01*
X2060000Y2065000D01*
X2110000D01*
G01X1600000Y2300000D02*
X1760000D01*
Y1930000D01*
X1600000D01*
Y2300000D01*
G01X1540000Y1965000D02*
Y2065000D01*
X1590000D01*
X1540000Y2105000D01*
X1490000Y2065000D01*
X1540000D01*
G01X1970000Y2300000D02*
Y1930000D01*
X1810000D01*
Y2300000D01*
X1970000D01*
G01X1890000Y2140000D02*
Y2135000D01*
X1910000D01*
X1870000Y2120000D01*
X1910000D01*
X1870000Y2105000D01*
X1910000D01*
X1890000Y2095000D01*
Y2090000D01*
G01X2070000Y2155000D02*
Y2135000D01*
G01X2100000Y2125000D02*
X2070000Y2155000D01*
X2090000D01*
G01X2060000Y2110000D02*
X2160000D01*
G01X1500000Y2155000D02*
Y2135000D01*
G01X1530000Y2125000D02*
X1500000Y2155000D01*
X1520000D01*
G01X1540000Y2105000D02*
Y2200000D01*
G01X1490000Y2110000D02*
X1590000D01*
G01X2990000Y1150000D02*
X2620000D01*
Y1310000D01*
X2990000D01*
Y1150000D01*
G01X2795000Y1235000D02*
X2780000D01*
G01X2815000D02*
X2830000D01*
G01X2795000Y1180000D02*
Y1285000D01*
G01X2815000Y1180000D02*
Y1285000D01*
G01X2275000Y745000D02*
X2290000D01*
G01X2255000D02*
X2240000D01*
G01X2275000Y800000D02*
Y695000D01*
G01X2255000Y800000D02*
Y695000D01*
G01X2810000Y1010000D02*
Y640000D01*
X2650000D01*
Y1010000D01*
X2810000D01*
G01X2725000Y815000D02*
Y800000D01*
G01Y835000D02*
Y850000D01*
G01X2780000Y815000D02*
X2675000D01*
G01X2780000Y835000D02*
X2675000D01*
G01X2170000Y2300000D02*
X2330000D01*
Y1930000D01*
X2170000D01*
Y2300000D01*
G01X2540000D02*
Y1930000D01*
X2380000D01*
Y2300000D01*
X2540000D01*
G01X2460000Y2140000D02*
Y2135000D01*
X2480000D01*
X2440000Y2120000D01*
X2480000D01*
X2440000Y2105000D01*
X2480000D01*
X2460000Y2095000D01*
Y2090000D01*
G01X2110000Y2105000D02*
Y2200000D01*
G01X3530000Y1010000D02*
Y640000D01*
X3370000D01*
Y1010000D01*
X3530000D01*
G01X3450000Y850000D02*
Y845000D01*
X3470000D01*
X3430000Y830000D01*
X3470000D01*
X3430000Y815000D01*
X3470000D01*
X3450000Y805000D01*
Y800000D01*
G01X3260000Y1010000D02*
Y640000D01*
X3100000D01*
Y1010000D01*
X3260000D01*
G01X3180000Y850000D02*
Y845000D01*
X3200000D01*
X3160000Y830000D01*
X3200000D01*
X3160000Y815000D01*
X3200000D01*
X3180000Y805000D01*
Y800000D01*
G01X2890000Y640000D02*
Y1010000D01*
X3050000D01*
Y640000D01*
X2890000D01*
G01X2970000Y800000D02*
Y805000D01*
X2950000D01*
X2990000Y820000D01*
X2950000D01*
X2990000Y835000D01*
X2950000D01*
X2970000Y845000D01*
Y850000D01*
G01X3800000Y1010000D02*
Y640000D01*
X3640000D01*
Y1010000D01*
X3800000D01*
G01X3715000Y815000D02*
Y800000D01*
G01Y835000D02*
Y850000D01*
G01X3770000Y815000D02*
X3665000D01*
G01X3770000Y835000D02*
X3665000D01*
G01X3910000Y640000D02*
Y1010000D01*
X4070000D01*
Y640000D01*
X3910000D01*
G01X3995000Y835000D02*
Y850000D01*
G01Y815000D02*
Y800000D01*
G01X3940000Y835000D02*
X4045000D01*
G01X3940000Y815000D02*
X4045000D01*
G01X4010000Y1430000D02*
Y1060000D01*
X3850000D01*
Y1430000D01*
X4010000D01*
G01X3925000Y1235000D02*
Y1220000D01*
G01Y1255000D02*
Y1270000D01*
G01X3980000Y1235000D02*
X3875000D01*
G01X3980000Y1255000D02*
X3875000D01*
G01X4490000Y1430000D02*
Y1060000D01*
X4330000D01*
Y1430000D01*
X4490000D01*
G01X4460000Y1235000D02*
X4355000D01*
G01X4460000Y1255000D02*
X4355000D01*
G01X4090000Y1060000D02*
Y1430000D01*
X4250000D01*
Y1060000D01*
X4090000D01*
G01X4170000Y1220000D02*
Y1225000D01*
X4150000D01*
X4190000Y1240000D01*
X4150000D01*
X4190000Y1255000D01*
X4150000D01*
X4170000Y1265000D01*
Y1270000D01*
G01X4730000Y1580000D02*
Y1210000D01*
X4570000D01*
Y1580000D01*
X4730000D01*
G01X4405000Y1235000D02*
Y1220000D01*
G01Y1255000D02*
Y1270000D01*
G01X4645000Y1385000D02*
Y1370000D01*
G01Y1405000D02*
Y1420000D01*
G01X4700000Y1385000D02*
X4595000D01*
G01X4700000Y1405000D02*
X4595000D01*
G01X5270000Y1840000D02*
X5110000D01*
Y2210000D01*
X5270000D01*
Y1840000D01*
G01X4970000Y2210000D02*
Y1840000D01*
X4810000D01*
Y2210000D01*
X4970000D01*
G01X4890000Y2050000D02*
Y2045000D01*
X4910000D01*
X4870000Y2030000D01*
X4910000D01*
X4870000Y2015000D01*
X4910000D01*
X4890000Y2005000D01*
Y2000000D01*
G01X5370000Y1985000D02*
Y2005000D01*
G01X5340000Y2015000D02*
X5370000Y1985000D01*
X5350000D01*
G01X5330000Y2035000D02*
Y1940000D01*
G01X5380000Y2030000D02*
X5280000D01*
G01X5330000Y2175000D02*
Y2075000D01*
X5280000D01*
X5330000Y2035000D01*
X5380000Y2075000D01*
X5330000D01*
G54D11*
G01X703000Y2397000D02*
Y2897000D01*
X5803000D01*
Y2397000D01*
X703000D01*
G01X3160000Y1407500D02*
Y1360000D01*
X3207500D01*
G01Y1760000D02*
X3160000D01*
Y1712500D01*
G01X3560000Y1407500D02*
Y1360000D01*
X3512500D01*
G01Y1760000D02*
X3560000D01*
Y1712500D01*
G54D12*
G01X1070630Y922180D02*
X1064790Y926120D01*
X1057970Y928740D01*
X1050180D01*
X1041420Y924800D01*
X1034610Y918240D01*
X1029740Y910370D01*
X1025840Y897240D01*
X1024870Y885430D01*
X1026820Y873620D01*
X1029740Y865750D01*
X1035580Y857870D01*
X1042390Y852620D01*
X1049210Y850000D01*
X1056030D01*
X1062840Y852620D01*
X1068680Y856560D01*
X1073550Y861810D01*
G01X1127950Y850000D02*
X1134770Y851310D01*
X1142550Y855250D01*
X1147420Y861810D01*
X1149370Y871000D01*
X1147420Y880180D01*
X1141580Y888060D01*
X1132820Y892000D01*
X1123080D01*
X1117240Y894620D01*
X1112370Y901180D01*
X1110420Y910370D01*
X1113350Y919550D01*
X1120160Y926120D01*
X1127950Y928740D01*
X1135740Y926120D01*
X1142550Y919550D01*
X1145480Y910370D01*
X1143530Y901180D01*
X1138660Y894620D01*
X1132820Y892000D01*
X1123080D01*
X1114320Y888060D01*
X1108480Y880180D01*
X1106530Y871000D01*
X1108480Y861810D01*
X1113350Y855250D01*
X1121130Y851310D01*
X1127950Y850000D01*
G01X1187790Y1810000D02*
Y1888740D01*
X1207260D01*
X1215050Y1884800D01*
X1220890Y1879550D01*
X1225760Y1871680D01*
X1229660Y1862490D01*
X1230630Y1849370D01*
X1229660Y1836250D01*
X1225760Y1827060D01*
X1220890Y1819180D01*
X1215050Y1813940D01*
X1207260Y1810000D01*
X1187790D01*
G01X1287950D02*
Y1888740D01*
X1276270Y1872990D01*
G01Y1810000D02*
X1299630D01*
G01X889740D02*
Y1888740D01*
X914080D01*
X921870Y1884800D01*
X926740Y1879550D01*
X928680Y1869050D01*
X926740Y1858560D01*
X920890Y1852000D01*
X914080Y1848060D01*
X889740D01*
G01X914080D02*
X928680Y1810000D01*
G01X987950D02*
Y1888740D01*
X976270Y1872990D01*
G01Y1810000D02*
X999630D01*
G01X1099210Y1560000D02*
Y1595430D01*
X1079740Y1638740D01*
G01X1118680D02*
X1099210Y1595430D01*
G01X1177950Y1560000D02*
Y1638740D01*
X1166270Y1622990D01*
G01Y1560000D02*
X1189630D01*
G01X639740Y2285750D02*
X644610Y2277870D01*
X650450Y2272620D01*
X657260Y2270000D01*
X665050Y2272620D01*
X670890Y2277870D01*
X676740Y2285750D01*
X678680Y2296250D01*
Y2348740D01*
G01X737950Y2270000D02*
Y2348740D01*
X726270Y2332990D01*
G01Y2270000D02*
X749630D01*
G01X2140630Y937180D02*
X2134790Y941120D01*
X2127970Y943740D01*
X2120180D01*
X2111420Y939800D01*
X2104610Y933240D01*
X2099740Y925370D01*
X2095840Y912240D01*
X2094870Y900430D01*
X2096820Y888620D01*
X2099740Y880750D01*
X2105580Y872870D01*
X2112390Y867620D01*
X2119210Y865000D01*
X2126030D01*
X2132840Y867620D01*
X2138680Y871560D01*
X2143550Y876810D01*
G01X2181400Y874180D02*
X2188210Y867620D01*
X2196000Y865000D01*
X2203790Y867620D01*
X2210610Y875500D01*
X2215480Y887310D01*
X2217420Y899120D01*
Y913560D01*
X2215480Y925370D01*
X2210610Y935870D01*
X2204770Y941120D01*
X2197950Y943740D01*
X2190160Y941120D01*
X2184320Y935870D01*
X2180420Y927990D01*
X2178480Y917490D01*
X2180420Y908310D01*
X2185290Y899120D01*
X2191130Y893870D01*
X2197950Y892560D01*
X2205740Y895180D01*
X2211580Y901740D01*
X2217420Y913560D01*
G01X1544740Y855000D02*
Y933740D01*
X1569080D01*
X1576870Y929800D01*
X1581740Y924550D01*
X1583680Y914050D01*
X1581740Y903560D01*
X1575890Y897000D01*
X1569080Y893060D01*
X1544740D01*
G01X1569080D02*
X1583680Y855000D01*
G01X1624450Y887810D02*
X1631270Y897000D01*
X1637110Y902240D01*
X1644900Y904870D01*
X1651710Y902240D01*
X1656580Y897000D01*
X1660480Y889120D01*
X1661450Y879930D01*
X1660480Y872060D01*
X1656580Y864180D01*
X1650740Y857620D01*
X1643920Y855000D01*
X1636130Y857620D01*
X1629320Y865500D01*
X1625420Y877310D01*
X1624450Y890430D01*
X1626400Y907490D01*
X1629320Y916680D01*
X1634190Y925870D01*
X1641000Y932430D01*
X1647820Y933740D01*
X1654630Y931120D01*
X1659500Y924550D01*
G01X1597790Y1820000D02*
Y1898740D01*
X1617260D01*
X1625050Y1894800D01*
X1630890Y1889550D01*
X1635760Y1881680D01*
X1639660Y1872490D01*
X1640630Y1859370D01*
X1639660Y1846250D01*
X1635760Y1837060D01*
X1630890Y1829180D01*
X1625050Y1823940D01*
X1617260Y1820000D01*
X1597790D01*
G01X1709630D02*
Y1898740D01*
X1673610Y1842310D01*
X1722290D01*
G01X1819740Y1820000D02*
Y1898740D01*
X1844080D01*
X1851870Y1894800D01*
X1856740Y1889550D01*
X1858680Y1879050D01*
X1856740Y1868560D01*
X1850890Y1862000D01*
X1844080Y1858060D01*
X1819740D01*
G01X1844080D02*
X1858680Y1820000D01*
G01X1896530Y1835750D02*
X1902370Y1826560D01*
X1910160Y1821310D01*
X1918920Y1820000D01*
X1926710Y1821310D01*
X1934500Y1827870D01*
X1939370Y1835750D01*
X1940340Y1843620D01*
X1938400Y1852810D01*
X1931580Y1859370D01*
X1924770Y1862000D01*
X1916000D01*
G01X1924770D02*
X1930610Y1865930D01*
X1935480Y1872490D01*
X1937420Y1880370D01*
X1935480Y1888240D01*
X1930610Y1894800D01*
X1921840Y1898740D01*
X1913080Y1897430D01*
X1904320Y1892180D01*
G01X2800630Y1422180D02*
X2794790Y1426120D01*
X2787970Y1428740D01*
X2780180D01*
X2771420Y1424800D01*
X2764610Y1418240D01*
X2759740Y1410370D01*
X2755840Y1397240D01*
X2754870Y1385430D01*
X2756820Y1373620D01*
X2759740Y1365750D01*
X2765580Y1357870D01*
X2772390Y1352620D01*
X2779210Y1350000D01*
X2786030D01*
X2792840Y1352620D01*
X2798680Y1356560D01*
X2803550Y1361810D01*
G01X2839450Y1382810D02*
X2846270Y1392000D01*
X2852110Y1397240D01*
X2859900Y1399870D01*
X2866710Y1397240D01*
X2871580Y1392000D01*
X2875480Y1384120D01*
X2876450Y1374930D01*
X2875480Y1367060D01*
X2871580Y1359180D01*
X2865740Y1352620D01*
X2858920Y1350000D01*
X2851130Y1352620D01*
X2844320Y1360500D01*
X2840420Y1372310D01*
X2839450Y1385430D01*
X2841400Y1402490D01*
X2844320Y1411680D01*
X2849190Y1420870D01*
X2856000Y1427430D01*
X2862820Y1428740D01*
X2869630Y1426120D01*
X2874500Y1419550D01*
G01X2720630Y1112180D02*
X2714790Y1116120D01*
X2707970Y1118740D01*
X2700180D01*
X2691420Y1114800D01*
X2684610Y1108240D01*
X2679740Y1100370D01*
X2675840Y1087240D01*
X2674870Y1075430D01*
X2676820Y1063620D01*
X2679740Y1055750D01*
X2685580Y1047870D01*
X2692390Y1042620D01*
X2699210Y1040000D01*
X2706030D01*
X2712840Y1042620D01*
X2718680Y1046560D01*
X2723550Y1051810D01*
G01X2776000Y1040000D02*
X2777950Y1057060D01*
X2780870Y1071490D01*
X2784770Y1084620D01*
X2789630Y1099050D01*
X2797420Y1118740D01*
X2758480D01*
G01X2197790Y1830000D02*
Y1908740D01*
X2217260D01*
X2225050Y1904800D01*
X2230890Y1899550D01*
X2235760Y1891680D01*
X2239660Y1882490D01*
X2240630Y1869370D01*
X2239660Y1856250D01*
X2235760Y1847060D01*
X2230890Y1839180D01*
X2225050Y1833940D01*
X2217260Y1830000D01*
X2197790D01*
G01X2276530Y1845750D02*
X2282370Y1836560D01*
X2290160Y1831310D01*
X2298920Y1830000D01*
X2306710Y1831310D01*
X2314500Y1837870D01*
X2319370Y1845750D01*
X2320340Y1853620D01*
X2318400Y1862810D01*
X2311580Y1869370D01*
X2304770Y1872000D01*
X2296000D01*
G01X2304770D02*
X2310610Y1875930D01*
X2315480Y1882490D01*
X2317420Y1890370D01*
X2315480Y1898240D01*
X2310610Y1904800D01*
X2301840Y1908740D01*
X2293080Y1907430D01*
X2284320Y1902180D01*
G01X2389740Y1830000D02*
Y1908740D01*
X2414080D01*
X2421870Y1904800D01*
X2426740Y1899550D01*
X2428680Y1889050D01*
X2426740Y1878560D01*
X2420890Y1872000D01*
X2414080Y1868060D01*
X2389740D01*
G01X2414080D02*
X2428680Y1830000D01*
G01X2499630D02*
Y1908740D01*
X2463610Y1852310D01*
X2512290D01*
G01X3399740Y1128740D02*
Y1050000D01*
X3438680D01*
G01X3497950D02*
Y1128740D01*
X3486270Y1112990D01*
G01Y1050000D02*
X3509630D01*
G01X3129740Y1128740D02*
Y1050000D01*
X3168680D01*
G01X3209450Y1115620D02*
X3215290Y1123490D01*
X3222110Y1127430D01*
X3229900Y1128740D01*
X3239630Y1126120D01*
X3246450Y1119550D01*
X3248400Y1111680D01*
X3247420Y1103800D01*
X3243530Y1097240D01*
X3224060Y1084120D01*
X3215290Y1074930D01*
X3209450Y1061810D01*
X3207500Y1050000D01*
X3248400D01*
G01X2909740Y1118740D02*
Y1040000D01*
X2948680D01*
G01X2986530Y1055750D02*
X2992370Y1046560D01*
X3000160Y1041310D01*
X3008920Y1040000D01*
X3016710Y1041310D01*
X3024500Y1047870D01*
X3029370Y1055750D01*
X3030340Y1063620D01*
X3028400Y1072810D01*
X3021580Y1079370D01*
X3014770Y1082000D01*
X3006000D01*
G01X3014770D02*
X3020610Y1085930D01*
X3025480Y1092490D01*
X3027420Y1100370D01*
X3025480Y1108240D01*
X3020610Y1114800D01*
X3011840Y1118740D01*
X3003080Y1117430D01*
X2994320Y1112180D01*
G01X3557790Y1958740D02*
Y1902310D01*
X3561680Y1890500D01*
X3569470Y1882620D01*
X3579210Y1880000D01*
X3588950Y1882620D01*
X3596740Y1890500D01*
X3600630Y1902310D01*
Y1958740D01*
G01X3657950Y1880000D02*
Y1958740D01*
X3646270Y1942990D01*
G01Y1880000D02*
X3669630D01*
G01X3710630Y1112180D02*
X3704790Y1116120D01*
X3697970Y1118740D01*
X3690180D01*
X3681420Y1114800D01*
X3674610Y1108240D01*
X3669740Y1100370D01*
X3665840Y1087240D01*
X3664870Y1075430D01*
X3666820Y1063620D01*
X3669740Y1055750D01*
X3675580Y1047870D01*
X3682390Y1042620D01*
X3689210Y1040000D01*
X3696030D01*
X3702840Y1042620D01*
X3708680Y1046560D01*
X3713550Y1051810D01*
G01X3779630Y1040000D02*
Y1118740D01*
X3743610Y1062310D01*
X3792290D01*
G01X4150630Y762180D02*
X4144790Y766120D01*
X4137970Y768740D01*
X4130180D01*
X4121420Y764800D01*
X4114610Y758240D01*
X4109740Y750370D01*
X4105840Y737240D01*
X4104870Y725430D01*
X4106820Y713620D01*
X4109740Y705750D01*
X4115580Y697870D01*
X4122390Y692620D01*
X4129210Y690000D01*
X4136030D01*
X4142840Y692620D01*
X4148680Y696560D01*
X4153550Y701810D01*
G01X4186530D02*
X4192370Y695250D01*
X4199190Y691310D01*
X4207950Y690000D01*
X4216710Y692620D01*
X4223530Y697870D01*
X4228400Y707060D01*
X4229370Y717560D01*
X4227420Y728060D01*
X4222550Y734620D01*
X4215740Y739870D01*
X4208920Y741180D01*
X4202110Y739870D01*
X4193350Y734620D01*
X4196270Y768740D01*
X4222550D01*
G01X3870630Y1562180D02*
X3864790Y1566120D01*
X3857970Y1568740D01*
X3850180D01*
X3841420Y1564800D01*
X3834610Y1558240D01*
X3829740Y1550370D01*
X3825840Y1537240D01*
X3824870Y1525430D01*
X3826820Y1513620D01*
X3829740Y1505750D01*
X3835580Y1497870D01*
X3842390Y1492620D01*
X3849210Y1490000D01*
X3856030D01*
X3862840Y1492620D01*
X3868680Y1496560D01*
X3873550Y1501810D01*
G01X3909450Y1555620D02*
X3915290Y1563490D01*
X3922110Y1567430D01*
X3929900Y1568740D01*
X3939630Y1566120D01*
X3946450Y1559550D01*
X3948400Y1551680D01*
X3947420Y1543800D01*
X3943530Y1537240D01*
X3924060Y1524120D01*
X3915290Y1514930D01*
X3909450Y1501810D01*
X3907500Y1490000D01*
X3948400D01*
G01X4380630Y1552180D02*
X4374790Y1556120D01*
X4367970Y1558740D01*
X4360180D01*
X4351420Y1554800D01*
X4344610Y1548240D01*
X4339740Y1540370D01*
X4335840Y1527240D01*
X4334870Y1515430D01*
X4336820Y1503620D01*
X4339740Y1495750D01*
X4345580Y1487870D01*
X4352390Y1482620D01*
X4359210Y1480000D01*
X4366030D01*
X4372840Y1482620D01*
X4378680Y1486560D01*
X4383550Y1491810D01*
G01X4437950Y1480000D02*
Y1558740D01*
X4426270Y1542990D01*
G01Y1480000D02*
X4449630D01*
G01X4109740D02*
Y1558740D01*
X4134080D01*
X4141870Y1554800D01*
X4146740Y1549550D01*
X4148680Y1539050D01*
X4146740Y1528560D01*
X4140890Y1522000D01*
X4134080Y1518060D01*
X4109740D01*
G01X4134080D02*
X4148680Y1480000D01*
G01X4189450Y1545620D02*
X4195290Y1553490D01*
X4202110Y1557430D01*
X4209900Y1558740D01*
X4219630Y1556120D01*
X4226450Y1549550D01*
X4228400Y1541680D01*
X4227420Y1533800D01*
X4223530Y1527240D01*
X4204060Y1514120D01*
X4195290Y1504930D01*
X4189450Y1491810D01*
X4187500Y1480000D01*
X4228400D01*
G01X4660630Y1692180D02*
X4654790Y1696120D01*
X4647970Y1698740D01*
X4640180D01*
X4631420Y1694800D01*
X4624610Y1688240D01*
X4619740Y1680370D01*
X4615840Y1667240D01*
X4614870Y1655430D01*
X4616820Y1643620D01*
X4619740Y1635750D01*
X4625580Y1627870D01*
X4632390Y1622620D01*
X4639210Y1620000D01*
X4646030D01*
X4652840Y1622620D01*
X4658680Y1626560D01*
X4663550Y1631810D01*
G01X4696530Y1635750D02*
X4702370Y1626560D01*
X4710160Y1621310D01*
X4718920Y1620000D01*
X4726710Y1621310D01*
X4734500Y1627870D01*
X4739370Y1635750D01*
X4740340Y1643620D01*
X4738400Y1652810D01*
X4731580Y1659370D01*
X4724770Y1662000D01*
X4716000D01*
G01X4724770D02*
X4730610Y1665930D01*
X4735480Y1672490D01*
X4737420Y1680370D01*
X4735480Y1688240D01*
X4730610Y1694800D01*
X4721840Y1698740D01*
X4713080Y1697430D01*
X4704320Y1692180D01*
G01X5010000Y2202210D02*
X5088740D01*
Y2182740D01*
X5084800Y2174950D01*
X5079550Y2169110D01*
X5071680Y2164240D01*
X5062490Y2160340D01*
X5049370Y2159370D01*
X5036250Y2160340D01*
X5027060Y2164240D01*
X5019180Y2169110D01*
X5013940Y2174950D01*
X5010000Y2182740D01*
Y2202210D01*
G01X5075620Y2120550D02*
X5083490Y2114710D01*
X5087430Y2107890D01*
X5088740Y2100100D01*
X5086120Y2090370D01*
X5079550Y2083550D01*
X5071680Y2081600D01*
X5063800Y2082580D01*
X5057240Y2086470D01*
X5044120Y2105940D01*
X5034930Y2114710D01*
X5021810Y2120550D01*
X5010000Y2122500D01*
Y2081600D01*
G01X4690000Y2210260D02*
X4768740D01*
Y2185920D01*
X4764800Y2178130D01*
X4759550Y2173260D01*
X4749050Y2171320D01*
X4738560Y2173260D01*
X4732000Y2179110D01*
X4728060Y2185920D01*
Y2210260D01*
G01Y2185920D02*
X4690000Y2171320D01*
G01X4701810Y2133470D02*
X4695250Y2127630D01*
X4691310Y2120810D01*
X4690000Y2112050D01*
X4692620Y2103290D01*
X4697870Y2096470D01*
X4707060Y2091600D01*
X4717560Y2090630D01*
X4728060Y2092580D01*
X4734620Y2097450D01*
X4739870Y2104260D01*
X4741180Y2111080D01*
X4739870Y2117890D01*
X4734620Y2126650D01*
X4768740Y2123730D01*
Y2097450D01*
M02*
