G04 ================== begin FILE IDENTIFICATION RECORD ==================*
G04 Layout Name:  C:/DATA/GIT/CADENCE/MODULES/RPI_NRF24L01/allegro/RPI_NRF24L01.brd*
G04 Film Name:    SP_TOP*
G04 File Format:  Gerber RS274X*
G04 File Origin:  Cadence Allegro 17.2-P019*
G04 Origin Date:  Fri Mar 17 17:17:09 2017*
G04 *
G04 Layer:  VIA CLASS/PASTEMASK_TOP*
G04 Layer:  PIN/PASTEMASK_TOP*
G04 Layer:  PACKAGE GEOMETRY/PASTEMASK_TOP*
G04 *
G04 Offset:    (0.0000 0.0000)*
G04 Mirror:    No*
G04 Mode:      Positive*
G04 Rotation:  0*
G04 FullContactRelief:  No*
G04 UndefLineWidth:     0.0000*
G04 ================== end FILE IDENTIFICATION RECORD ====================*
%FSLAX25Y25*MOMM*%
%IR0*IPPOS*OFA0.00000B0.00000*MIA0B0*SFA1.00000B1.00000*%
%ADD11R,5.5X1.5*%
%ADD10R,1.2X1.2*%
%ADD12O,.3X.875*%
%ADD13O,.875X.3*%
%LPD*%
G75*
G54D10*
X1110000Y750000D03*
X1320000D03*
X1260000Y2010000D03*
X960000D03*
X1260000Y2220000D03*
X960000D03*
X2160000Y750000D03*
X1830000D03*
X1620000D03*
X1680000Y2010000D03*
X1890000D03*
X1680000Y2220000D03*
X1890000D03*
X2700000Y1230000D03*
X2910000D03*
X2370000Y750000D03*
X2730000Y720000D03*
Y930000D03*
X2250000Y2010000D03*
X2460000D03*
X2250000Y2220000D03*
X2460000D03*
X3450000Y720000D03*
Y930000D03*
X3180000Y720000D03*
Y930000D03*
X2970000D03*
Y720000D03*
X3720000D03*
Y930000D03*
X3990000D03*
Y720000D03*
X3930000Y1140000D03*
Y1350000D03*
X4410000Y1140000D03*
Y1350000D03*
X4170000D03*
Y1140000D03*
X4650000Y1290000D03*
Y1500000D03*
X5190000Y2130000D03*
Y1920000D03*
X4890000D03*
Y2130000D03*
G54D11*
X1228000Y1230000D03*
X2278000D03*
G54D12*
X3460000Y1366250D03*
X3410000D03*
X3360000D03*
X3310000D03*
X3260000D03*
Y1753750D03*
X3310000D03*
X3360000D03*
X3410000D03*
X3460000D03*
G54D13*
X3553750Y1660000D03*
Y1610000D03*
Y1560000D03*
Y1510000D03*
Y1460000D03*
X3166250D03*
Y1510000D03*
Y1560000D03*
Y1610000D03*
Y1660000D03*
M02*
