G04 ================== begin FILE IDENTIFICATION RECORD ==================*
G04 Layout Name:  C:/DATA/GIT/CADENCE/MODULES/RPI_DYNAMIXEL/allegro/RPI_DYNAMIXEL.brd*
G04 Film Name:    SC_TOP*
G04 File Format:  Gerber RS274X*
G04 File Origin:  Cadence Allegro 17.2-P019*
G04 Origin Date:  Mon Apr 24 13:28:51 2017*
G04 *
G04 Layer:  REF DES/SILKSCREEN_TOP*
G04 Layer:  PACKAGE KEEPIN/ALL*
G04 Layer:  PACKAGE GEOMETRY/SILKSCREEN_TOP*
G04 *
G04 Offset:    (0.0000 0.0000)*
G04 Mirror:    No*
G04 Mode:      Positive*
G04 Rotation:  0*
G04 FullContactRelief:  No*
G04 UndefLineWidth:     0.0000*
G04 ================== end FILE IDENTIFICATION RECORD ====================*
%FSLAX25Y25*MOMM*%
%IR0*IPPOS*OFA0.00000B0.00000*MIA0B0*SFA1.00000B1.00000*%
%ADD10C,.1*%
%ADD11C,.1001*%
%ADD12C,.2*%
%ADD13C,.3*%
%ADD14C,.15*%
G75*
%LPD*%
G75*
G36*
G01X-2403750Y-496500D02*
G02I-20000J0D01*
G37*
G36*
G01X-2383000Y843000D02*
G02I-30000J0D01*
G37*
G36*
G01X-1451250Y-496500D02*
G02I-20000J0D01*
G37*
G36*
G01X-341000Y-425500D02*
G02I-15000J0D01*
G37*
G36*
G01X-812550Y-320500D02*
G02I-15000J0D01*
G37*
G36*
G01X578500Y173500D02*
G02I-20000J0D01*
G37*
G36*
G01X2737500Y110000D02*
G02I-20000J0D01*
G37*
G54D10*
G01X-3064500Y-491500D02*
X-2694500D01*
Y-651500D01*
X-3064500D01*
Y-491500D01*
G01X-2904500Y-571500D02*
X-2899500D01*
Y-551500D01*
X-2884500Y-591500D01*
Y-551500D01*
X-2869500Y-591500D01*
Y-551500D01*
X-2859500Y-571500D01*
X-2854500D01*
G01X-3064500Y-745500D02*
X-2694500D01*
Y-905500D01*
X-3064500D01*
Y-745500D01*
G01X-2904500Y-825500D02*
X-2899500D01*
Y-805500D01*
X-2884500Y-845500D01*
Y-805500D01*
X-2869500Y-845500D01*
Y-805500D01*
X-2859500Y-825500D01*
X-2854500D01*
G01X-2683500Y-207000D02*
Y163000D01*
X-2523500D01*
Y-207000D01*
X-2683500D01*
G01X-3064500D02*
Y163000D01*
X-2904500D01*
Y-207000D01*
X-3064500D01*
G01X-2603500Y-47000D02*
Y-42000D01*
X-2623500D01*
X-2583500Y-27000D01*
X-2623500D01*
X-2583500Y-12000D01*
X-2623500D01*
X-2603500Y-2000D01*
Y3000D01*
G01X-2984500Y-47000D02*
Y-42000D01*
X-3004500D01*
X-2964500Y-27000D01*
X-3004500D01*
X-2964500Y-12000D01*
X-3004500D01*
X-2984500Y-2000D01*
Y3000D01*
G01X-2286000Y-47000D02*
Y-42000D01*
X-2306000D01*
X-2266000Y-27000D01*
X-2306000D01*
X-2266000Y-12000D01*
X-2306000D01*
X-2286000Y-2000D01*
Y3000D01*
G01X-1571000Y682000D02*
X-1941000D01*
Y842000D01*
X-1571000D01*
Y682000D01*
G01X-1731000Y762000D02*
X-1736000D01*
Y742000D01*
X-1751000Y782000D01*
Y742000D01*
X-1766000Y782000D01*
Y742000D01*
X-1776000Y762000D01*
X-1781000D01*
G01X2302500Y-1063000D02*
Y-1433000D01*
X2142500D01*
Y-1063000D01*
X2302500D01*
G01X2222500Y-1223000D02*
Y-1228000D01*
X2242500D01*
X2202500Y-1243000D01*
X2242500D01*
X2202500Y-1258000D01*
X2242500D01*
X2222500Y-1268000D01*
Y-1273000D01*
G01X2841000Y-110500D02*
X3211000D01*
Y-270500D01*
X2841000D01*
Y-110500D01*
G01X3001000Y-190500D02*
X3006000D01*
Y-170500D01*
X3021000Y-210500D01*
Y-170500D01*
X3036000Y-210500D01*
Y-170500D01*
X3046000Y-190500D01*
X3051000D01*
G54D11*
G01X-1616510Y-367000D02*
X-2066490D01*
G01D02*
Y653010D01*
G01D02*
X-1616510D01*
G01D02*
Y-367000D01*
G54D12*
G01X-2550000Y893000D02*
Y1393000D01*
X2550000D01*
Y893000D01*
X-2550000D01*
G01X-2208750Y-1385000D02*
Y-520000D01*
X-1982250D01*
Y-1385000D01*
X-2208750D01*
G01X-1256250D02*
Y-520000D01*
X-1029750D01*
Y-1385000D01*
X-1256250D01*
G01X-1143000Y-45700D02*
Y-335300D01*
G01X478500Y183500D02*
Y173500D01*
X271000Y-34000D01*
X-351500D01*
Y173500D01*
G01Y588500D02*
Y796000D01*
X271000D01*
X478500Y588500D01*
Y578500D01*
G01X581000Y-313000D02*
X-126000D01*
Y-1465000D01*
X581000D01*
G01X1140000Y-1450000D02*
X2040000D01*
G01X1590000Y-1700000D02*
X1140000D01*
Y-280000D01*
X2040000D01*
Y-1700000D01*
X1590000D01*
G01X1807500Y525000D02*
Y732500D01*
X2430000D01*
X2637500Y525000D01*
Y515000D01*
G01Y120000D02*
Y110000D01*
X2430000Y-97500D01*
X1807500D01*
Y110000D01*
G54D13*
G01X-2146500Y443000D02*
Y567990D01*
G01X-2196490Y503000D02*
X-2091510D01*
G54D14*
G01X-3170260Y-430000D02*
Y-351260D01*
X-3145920D01*
X-3138130Y-355200D01*
X-3133260Y-360450D01*
X-3131320Y-370950D01*
X-3133260Y-381440D01*
X-3139110Y-388000D01*
X-3145920Y-391940D01*
X-3170260D01*
G01X-3145920D02*
X-3131320Y-430000D01*
G01X-3072050D02*
Y-351260D01*
X-3083730Y-367010D01*
G01Y-430000D02*
X-3060370D01*
G01X-3200260Y-740000D02*
Y-661260D01*
X-3175920D01*
X-3168130Y-665200D01*
X-3163260Y-670450D01*
X-3161320Y-680950D01*
X-3163260Y-691440D01*
X-3169110Y-698000D01*
X-3175920Y-701940D01*
X-3200260D01*
G01X-3175920D02*
X-3161320Y-740000D01*
G01X-3120550Y-674380D02*
X-3114710Y-666510D01*
X-3107890Y-662570D01*
X-3100100Y-661260D01*
X-3090370Y-663880D01*
X-3083550Y-670450D01*
X-3081600Y-678320D01*
X-3082580Y-686200D01*
X-3086470Y-692760D01*
X-3105940Y-705880D01*
X-3114710Y-715070D01*
X-3120550Y-728190D01*
X-3122500Y-740000D01*
X-3081600D01*
G01X-2391000Y-202260D02*
X-2469740D01*
Y-177920D01*
X-2465800Y-170130D01*
X-2460550Y-165260D01*
X-2450050Y-163320D01*
X-2439560Y-165260D01*
X-2433000Y-171110D01*
X-2429060Y-177920D01*
Y-202260D01*
G01Y-177920D02*
X-2391000Y-163320D01*
G01X-2406750Y-125470D02*
X-2397560Y-119630D01*
X-2392310Y-111840D01*
X-2391000Y-103080D01*
X-2392310Y-95290D01*
X-2398870Y-87500D01*
X-2406750Y-82630D01*
X-2414620Y-81660D01*
X-2423810Y-83600D01*
X-2430370Y-90420D01*
X-2433000Y-97230D01*
Y-106000D01*
G01Y-97230D02*
X-2436930Y-91390D01*
X-2443490Y-86520D01*
X-2451370Y-84580D01*
X-2459240Y-86520D01*
X-2465800Y-91390D01*
X-2469740Y-100160D01*
X-2468430Y-108920D01*
X-2463180Y-117680D01*
G01X-2708500Y-202260D02*
X-2787240D01*
Y-177920D01*
X-2783300Y-170130D01*
X-2778050Y-165260D01*
X-2767550Y-163320D01*
X-2757060Y-165260D01*
X-2750500Y-171110D01*
X-2746560Y-177920D01*
Y-202260D01*
G01Y-177920D02*
X-2708500Y-163320D01*
G01Y-92370D02*
X-2787240D01*
X-2730810Y-128390D01*
Y-79710D01*
G01X-3089500Y-202260D02*
X-3168240D01*
Y-177920D01*
X-3164300Y-170130D01*
X-3159050Y-165260D01*
X-3148550Y-163320D01*
X-3138060Y-165260D01*
X-3131500Y-171110D01*
X-3127560Y-177920D01*
Y-202260D01*
G01Y-177920D02*
X-3089500Y-163320D01*
G01Y-106000D02*
X-3106560Y-104050D01*
X-3120990Y-101130D01*
X-3134120Y-97230D01*
X-3148550Y-92370D01*
X-3168240Y-84580D01*
Y-123520D01*
G01X-2680260Y905750D02*
X-2675390Y897870D01*
X-2669550Y892620D01*
X-2662740Y890000D01*
X-2654950Y892620D01*
X-2649110Y897870D01*
X-2643260Y905750D01*
X-2641320Y916250D01*
Y968740D01*
G01X-2600550Y955620D02*
X-2594710Y963490D01*
X-2587890Y967430D01*
X-2580100Y968740D01*
X-2570370Y966120D01*
X-2563550Y959550D01*
X-2561600Y951680D01*
X-2562580Y943800D01*
X-2566470Y937240D01*
X-2585940Y924120D01*
X-2594710Y914930D01*
X-2600550Y901810D01*
X-2602500Y890000D01*
X-2561600D01*
G01X-2662210Y640000D02*
Y718740D01*
X-2642740D01*
X-2634950Y714800D01*
X-2629110Y709550D01*
X-2624240Y701680D01*
X-2620340Y692490D01*
X-2619370Y679370D01*
X-2620340Y666250D01*
X-2624240Y657060D01*
X-2629110Y649180D01*
X-2634950Y643940D01*
X-2642740Y640000D01*
X-2662210D01*
G01X-2580550Y705620D02*
X-2574710Y713490D01*
X-2567890Y717430D01*
X-2560100Y718740D01*
X-2550370Y716120D01*
X-2543550Y709550D01*
X-2541600Y701680D01*
X-2542580Y693800D01*
X-2546470Y687240D01*
X-2565940Y674120D01*
X-2574710Y664930D01*
X-2580550Y651810D01*
X-2582500Y640000D01*
X-2541600D01*
G01X-3052210Y630000D02*
Y708740D01*
X-3032740D01*
X-3024950Y704800D01*
X-3019110Y699550D01*
X-3014240Y691680D01*
X-3010340Y682490D01*
X-3009370Y669370D01*
X-3010340Y656250D01*
X-3014240Y647060D01*
X-3019110Y639180D01*
X-3024950Y633940D01*
X-3032740Y630000D01*
X-3052210D01*
G01X-2973470Y645750D02*
X-2967630Y636560D01*
X-2959840Y631310D01*
X-2951080Y630000D01*
X-2943290Y631310D01*
X-2935500Y637870D01*
X-2930630Y645750D01*
X-2929660Y653620D01*
X-2931600Y662810D01*
X-2938420Y669370D01*
X-2945230Y672000D01*
X-2954000D01*
G01X-2945230D02*
X-2939390Y675930D01*
X-2934520Y682490D01*
X-2932580Y690370D01*
X-2934520Y698240D01*
X-2939390Y704800D01*
X-2948160Y708740D01*
X-2956920Y707430D01*
X-2965680Y702180D01*
G01X-2178680Y-171370D02*
X-2182620Y-177210D01*
X-2185240Y-184030D01*
Y-191820D01*
X-2181300Y-200580D01*
X-2174740Y-207390D01*
X-2166870Y-212260D01*
X-2153740Y-216160D01*
X-2141930Y-217130D01*
X-2130120Y-215180D01*
X-2122250Y-212260D01*
X-2114370Y-206420D01*
X-2109120Y-199610D01*
X-2106500Y-192790D01*
Y-185970D01*
X-2109120Y-179160D01*
X-2113060Y-173320D01*
X-2118310Y-168450D01*
G01X-2139310Y-132550D02*
X-2148500Y-125730D01*
X-2153740Y-119890D01*
X-2156370Y-112100D01*
X-2153740Y-105290D01*
X-2148500Y-100420D01*
X-2140620Y-96520D01*
X-2131430Y-95550D01*
X-2123560Y-96520D01*
X-2115680Y-100420D01*
X-2109120Y-106260D01*
X-2106500Y-113080D01*
X-2109120Y-120870D01*
X-2117000Y-127680D01*
X-2128810Y-131580D01*
X-2141930Y-132550D01*
X-2158990Y-130600D01*
X-2168180Y-127680D01*
X-2177370Y-122810D01*
X-2183930Y-116000D01*
X-2185240Y-109180D01*
X-2182620Y-102370D01*
X-2176050Y-97500D01*
G01X-2162210Y-391260D02*
Y-447690D01*
X-2158320Y-459500D01*
X-2150530Y-467380D01*
X-2140790Y-470000D01*
X-2131050Y-467380D01*
X-2123260Y-459500D01*
X-2119370Y-447690D01*
Y-391260D01*
G01X-2062050Y-470000D02*
Y-391260D01*
X-2073730Y-407010D01*
G01Y-470000D02*
X-2050370D01*
G01X-2352210Y640000D02*
Y718740D01*
X-2332740D01*
X-2324950Y714800D01*
X-2319110Y709550D01*
X-2314240Y701680D01*
X-2310340Y692490D01*
X-2309370Y679370D01*
X-2310340Y666250D01*
X-2314240Y657060D01*
X-2319110Y649180D01*
X-2324950Y643940D01*
X-2332740Y640000D01*
X-2352210D01*
G01X-2252050D02*
Y718740D01*
X-2263730Y702990D01*
G01Y640000D02*
X-2240370D01*
G01X-2110260Y798740D02*
Y720000D01*
X-2071320D01*
G01X-2033470Y735750D02*
X-2027630Y726560D01*
X-2019840Y721310D01*
X-2011080Y720000D01*
X-2003290Y721310D01*
X-1995500Y727870D01*
X-1990630Y735750D01*
X-1989660Y743620D01*
X-1991600Y752810D01*
X-1998420Y759370D01*
X-2005230Y762000D01*
X-2014000D01*
G01X-2005230D02*
X-1999390Y765930D01*
X-1994520Y772490D01*
X-1992580Y780370D01*
X-1994520Y788240D01*
X-1999390Y794800D01*
X-2008160Y798740D01*
X-2016920Y797430D01*
X-2025680Y792180D01*
G01X-828210Y-444500D02*
Y-523240D01*
X-847680D01*
X-855470Y-519300D01*
X-861310Y-514050D01*
X-866180Y-506180D01*
X-870080Y-496990D01*
X-871050Y-483870D01*
X-870080Y-470750D01*
X-866180Y-461560D01*
X-861310Y-453680D01*
X-855470Y-448440D01*
X-847680Y-444500D01*
X-828210D01*
G01X-940050D02*
Y-523240D01*
X-904030Y-466810D01*
X-952710D01*
G01X-1435210Y-313760D02*
Y-370190D01*
X-1431320Y-382000D01*
X-1423530Y-389880D01*
X-1413790Y-392500D01*
X-1404050Y-389880D01*
X-1396260Y-382000D01*
X-1392370Y-370190D01*
Y-313760D01*
G01X-1353550Y-326880D02*
X-1347710Y-319010D01*
X-1340890Y-315070D01*
X-1333100Y-313760D01*
X-1323370Y-316380D01*
X-1316550Y-322950D01*
X-1314600Y-330820D01*
X-1315580Y-338700D01*
X-1319470Y-345260D01*
X-1338940Y-358380D01*
X-1347710Y-367570D01*
X-1353550Y-380690D01*
X-1355500Y-392500D01*
X-1314600D01*
G01X-1517820Y59370D02*
X-1513880Y65210D01*
X-1511260Y72030D01*
Y79820D01*
X-1515200Y88580D01*
X-1521760Y95390D01*
X-1529630Y100260D01*
X-1542760Y104160D01*
X-1554570Y105130D01*
X-1566380Y103180D01*
X-1574250Y100260D01*
X-1582130Y94420D01*
X-1587380Y87610D01*
X-1590000Y80790D01*
Y73970D01*
X-1587380Y67160D01*
X-1583440Y61320D01*
X-1578190Y56450D01*
G01X-1580820Y18600D02*
X-1587380Y11790D01*
X-1590000Y4000D01*
X-1587380Y-3790D01*
X-1579500Y-10610D01*
X-1567690Y-15480D01*
X-1555880Y-17420D01*
X-1541440D01*
X-1529630Y-15480D01*
X-1519130Y-10610D01*
X-1513880Y-4770D01*
X-1511260Y2050D01*
X-1513880Y9840D01*
X-1519130Y15680D01*
X-1527010Y19580D01*
X-1537510Y21520D01*
X-1546690Y19580D01*
X-1555880Y14710D01*
X-1561130Y8870D01*
X-1562440Y2050D01*
X-1559820Y-5740D01*
X-1553260Y-11580D01*
X-1541440Y-17420D01*
G01X-1510000Y410000D02*
Y190000D01*
X-1610000D01*
Y410000D01*
X-1510000D01*
G01X-702180Y-1239370D02*
X-706120Y-1245210D01*
X-708740Y-1252030D01*
Y-1259820D01*
X-704800Y-1268580D01*
X-698240Y-1275390D01*
X-690370Y-1280260D01*
X-677240Y-1284160D01*
X-665430Y-1285130D01*
X-653620Y-1283180D01*
X-645750Y-1280260D01*
X-637870Y-1274420D01*
X-632620Y-1267610D01*
X-630000Y-1260790D01*
Y-1253970D01*
X-632620Y-1247160D01*
X-636560Y-1241320D01*
X-641810Y-1236450D01*
G01X-630000Y-1182050D02*
X-708740D01*
X-692990Y-1193730D01*
G01X-630000D02*
Y-1170370D01*
G01X-708740Y-1103310D02*
X-706120Y-1111100D01*
X-699550Y-1116940D01*
X-691680Y-1120840D01*
X-681180Y-1123760D01*
X-669370Y-1124730D01*
X-657560Y-1123760D01*
X-647060Y-1120840D01*
X-639180Y-1116940D01*
X-632620Y-1111100D01*
X-630000Y-1103310D01*
X-632620Y-1095520D01*
X-639180Y-1089680D01*
X-647060Y-1085780D01*
X-657560Y-1082860D01*
X-669370Y-1081890D01*
X-681180Y-1082860D01*
X-691680Y-1085780D01*
X-699550Y-1089680D01*
X-706120Y-1095520D01*
X-708740Y-1103310D01*
G01X-710000Y-1010000D02*
Y-790000D01*
X-610000D01*
Y-1010000D01*
X-710000D01*
G01X-510790Y-341260D02*
Y-397690D01*
X-506900Y-409500D01*
X-499110Y-417380D01*
X-489370Y-420000D01*
X-479630Y-417380D01*
X-471840Y-409500D01*
X-467950Y-397690D01*
Y-341260D01*
G01X-398950Y-420000D02*
Y-341260D01*
X-434970Y-397690D01*
X-386290D01*
G01X-690260Y88740D02*
Y10000D01*
X-651320D01*
G01X-610550Y75620D02*
X-604710Y83490D01*
X-597890Y87430D01*
X-590100Y88740D01*
X-580370Y86120D01*
X-573550Y79550D01*
X-571600Y71680D01*
X-572580Y63800D01*
X-576470Y57240D01*
X-595940Y44120D01*
X-604710Y34930D01*
X-610550Y21810D01*
X-612500Y10000D01*
X-571600D01*
G01X460630Y-77820D02*
X454790Y-73880D01*
X447970Y-71260D01*
X440180D01*
X431420Y-75200D01*
X424610Y-81760D01*
X419740Y-89630D01*
X415840Y-102760D01*
X414870Y-114570D01*
X416820Y-126380D01*
X419740Y-134250D01*
X425580Y-142130D01*
X432390Y-147380D01*
X439210Y-150000D01*
X446030D01*
X452840Y-147380D01*
X458680Y-143440D01*
X463550Y-138190D01*
G01X496530D02*
X502370Y-144750D01*
X509190Y-148690D01*
X517950Y-150000D01*
X526710Y-147380D01*
X533530Y-142130D01*
X538400Y-132940D01*
X539370Y-122440D01*
X537420Y-111940D01*
X532550Y-105380D01*
X525740Y-100130D01*
X518920Y-98820D01*
X512110Y-100130D01*
X503350Y-105380D01*
X506270Y-71260D01*
X532550D01*
G01X450630Y842180D02*
X444790Y846120D01*
X437970Y848740D01*
X430180D01*
X421420Y844800D01*
X414610Y838240D01*
X409740Y830370D01*
X405840Y817240D01*
X404870Y805430D01*
X406820Y793620D01*
X409740Y785750D01*
X415580Y777870D01*
X422390Y772620D01*
X429210Y770000D01*
X436030D01*
X442840Y772620D01*
X448680Y776560D01*
X453550Y781810D01*
G01X486530Y785750D02*
X492370Y776560D01*
X500160Y771310D01*
X508920Y770000D01*
X516710Y771310D01*
X524500Y777870D01*
X529370Y785750D01*
X530340Y793620D01*
X528400Y802810D01*
X521580Y809370D01*
X514770Y812000D01*
X506000D01*
G01X514770D02*
X520610Y815930D01*
X525480Y822490D01*
X527420Y830370D01*
X525480Y838240D01*
X520610Y844800D01*
X511840Y848740D01*
X503080Y847430D01*
X494320Y842180D01*
G01X1219740Y-234250D02*
X1224610Y-242130D01*
X1230450Y-247380D01*
X1237260Y-250000D01*
X1245050Y-247380D01*
X1250890Y-242130D01*
X1256740Y-234250D01*
X1258680Y-223750D01*
Y-171260D01*
G01X1296530Y-234250D02*
X1302370Y-243440D01*
X1310160Y-248690D01*
X1318920Y-250000D01*
X1326710Y-248690D01*
X1334500Y-242130D01*
X1339370Y-234250D01*
X1340340Y-226380D01*
X1338400Y-217190D01*
X1331580Y-210630D01*
X1324770Y-208000D01*
X1316000D01*
G01X1324770D02*
X1330610Y-204070D01*
X1335480Y-197510D01*
X1337420Y-189630D01*
X1335480Y-181760D01*
X1330610Y-175200D01*
X1321840Y-171260D01*
X1313080Y-172570D01*
X1304320Y-177820D01*
G01X588500Y-77000D02*
X808500D01*
Y-177000D01*
X588500D01*
Y-77000D01*
G01X1090630Y22180D02*
X1084790Y26120D01*
X1077970Y28740D01*
X1070180D01*
X1061420Y24800D01*
X1054610Y18240D01*
X1049740Y10370D01*
X1045840Y-2760D01*
X1044870Y-14570D01*
X1046820Y-26380D01*
X1049740Y-34250D01*
X1055580Y-42130D01*
X1062390Y-47380D01*
X1069210Y-50000D01*
X1076030D01*
X1082840Y-47380D01*
X1088680Y-43440D01*
X1093550Y-38190D01*
G01X1159630Y-50000D02*
Y28740D01*
X1123610Y-27690D01*
X1172290D01*
G01X842500Y-77000D02*
X1062500D01*
Y-177000D01*
X842500D01*
Y-77000D01*
G01X1279740Y868740D02*
Y790000D01*
X1318680D01*
G01X1377950D02*
Y868740D01*
X1366270Y852990D01*
G01Y790000D02*
X1389630D01*
G01X2060000Y-889740D02*
X2138740D01*
Y-914080D01*
X2134800Y-921870D01*
X2129550Y-926740D01*
X2119050Y-928680D01*
X2108560Y-926740D01*
X2102000Y-920890D01*
X2098060Y-914080D01*
Y-889740D01*
G01Y-914080D02*
X2060000Y-928680D01*
G01X2071810Y-966530D02*
X2065250Y-972370D01*
X2061310Y-979190D01*
X2060000Y-987950D01*
X2062620Y-996710D01*
X2067870Y-1003530D01*
X2077060Y-1008400D01*
X2087560Y-1009370D01*
X2098060Y-1007420D01*
X2104620Y-1002550D01*
X2109870Y-995740D01*
X2111180Y-988920D01*
X2109870Y-982110D01*
X2104620Y-973350D01*
X2138740Y-976270D01*
Y-1002550D01*
G01X1730630Y-167820D02*
X1724790Y-163880D01*
X1717970Y-161260D01*
X1710180D01*
X1701420Y-165200D01*
X1694610Y-171760D01*
X1689740Y-179630D01*
X1685840Y-192760D01*
X1684870Y-204570D01*
X1686820Y-216380D01*
X1689740Y-224250D01*
X1695580Y-232130D01*
X1702390Y-237380D01*
X1709210Y-240000D01*
X1716030D01*
X1722840Y-237380D01*
X1728680Y-233440D01*
X1733550Y-228190D01*
G01X1787950Y-240000D02*
X1794770Y-238690D01*
X1802550Y-234750D01*
X1807420Y-228190D01*
X1809370Y-219000D01*
X1807420Y-209820D01*
X1801580Y-201940D01*
X1792820Y-198000D01*
X1783080D01*
X1777240Y-195380D01*
X1772370Y-188820D01*
X1770420Y-179630D01*
X1773350Y-170450D01*
X1780160Y-163880D01*
X1787950Y-161260D01*
X1795740Y-163880D01*
X1802550Y-170450D01*
X1805480Y-179630D01*
X1803530Y-188820D01*
X1798660Y-195380D01*
X1792820Y-198000D01*
X1783080D01*
X1774320Y-201940D01*
X1768480Y-209820D01*
X1766530Y-219000D01*
X1768480Y-228190D01*
X1773350Y-234750D01*
X1781130Y-238690D01*
X1787950Y-240000D01*
G01X2078500Y-240500D02*
X1858500D01*
Y-140500D01*
X2078500D01*
Y-240500D01*
G01X1680630Y102180D02*
X1674790Y106120D01*
X1667970Y108740D01*
X1660180D01*
X1651420Y104800D01*
X1644610Y98240D01*
X1639740Y90370D01*
X1635840Y77240D01*
X1634870Y65430D01*
X1636820Y53620D01*
X1639740Y45750D01*
X1645580Y37870D01*
X1652390Y32620D01*
X1659210Y30000D01*
X1666030D01*
X1672840Y32620D01*
X1678680Y36560D01*
X1683550Y41810D01*
G01X1719450Y95620D02*
X1725290Y103490D01*
X1732110Y107430D01*
X1739900Y108740D01*
X1749630Y106120D01*
X1756450Y99550D01*
X1758400Y91680D01*
X1757420Y83800D01*
X1753530Y77240D01*
X1734060Y64120D01*
X1725290Y54930D01*
X1719450Y41810D01*
X1717500Y30000D01*
X1758400D01*
G01X1477500Y-13500D02*
X1697500D01*
Y-113500D01*
X1477500D01*
Y-13500D01*
G01X2669210Y-950000D02*
X2661420Y-948690D01*
X2654610Y-943440D01*
X2648760Y-935570D01*
X2644870Y-926380D01*
X2642920Y-915880D01*
Y-905380D01*
X2644870Y-894880D01*
X2648760Y-885690D01*
X2654610Y-877820D01*
X2661420Y-872570D01*
X2669210Y-871260D01*
X2677000Y-872570D01*
X2683810Y-877820D01*
X2689660Y-885690D01*
X2693550Y-894880D01*
X2695500Y-905380D01*
Y-915880D01*
X2693550Y-926380D01*
X2689660Y-935570D01*
X2683810Y-943440D01*
X2677000Y-948690D01*
X2669210Y-950000D01*
G01X2677000Y-929000D02*
X2688680Y-950000D01*
G01X2747950D02*
Y-871260D01*
X2736270Y-887010D01*
G01Y-950000D02*
X2759630D01*
G01X2450630Y-147820D02*
X2444790Y-143880D01*
X2437970Y-141260D01*
X2430180D01*
X2421420Y-145200D01*
X2414610Y-151760D01*
X2409740Y-159630D01*
X2405840Y-172760D01*
X2404870Y-184570D01*
X2406820Y-196380D01*
X2409740Y-204250D01*
X2415580Y-212130D01*
X2422390Y-217380D01*
X2429210Y-220000D01*
X2436030D01*
X2442840Y-217380D01*
X2448680Y-213440D01*
X2453550Y-208190D01*
G01X2506000Y-220000D02*
X2507950Y-202940D01*
X2510870Y-188510D01*
X2514770Y-175380D01*
X2519630Y-160950D01*
X2527420Y-141260D01*
X2488480D01*
G01X2112500Y-140500D02*
X2332500D01*
Y-240500D01*
X2112500D01*
Y-140500D01*
G01X2845740Y-85500D02*
Y-6760D01*
X2870080D01*
X2877870Y-10700D01*
X2882740Y-15950D01*
X2884680Y-26450D01*
X2882740Y-36940D01*
X2876890Y-43500D01*
X2870080Y-47440D01*
X2845740D01*
G01X2870080D02*
X2884680Y-85500D01*
G01X2925450Y-52690D02*
X2932270Y-43500D01*
X2938110Y-38260D01*
X2945900Y-35630D01*
X2952710Y-38260D01*
X2957580Y-43500D01*
X2961480Y-51380D01*
X2962450Y-60570D01*
X2961480Y-68440D01*
X2957580Y-76320D01*
X2951740Y-82880D01*
X2944920Y-85500D01*
X2937130Y-82880D01*
X2930320Y-75000D01*
X2926420Y-63190D01*
X2925450Y-50070D01*
X2927400Y-33010D01*
X2930320Y-23820D01*
X2935190Y-14630D01*
X2942000Y-8070D01*
X2948820Y-6760D01*
X2955630Y-9380D01*
X2960500Y-15950D01*
G01X2690630Y672180D02*
X2684790Y676120D01*
X2677970Y678740D01*
X2670180D01*
X2661420Y674800D01*
X2654610Y668240D01*
X2649740Y660370D01*
X2645840Y647240D01*
X2644870Y635430D01*
X2646820Y623620D01*
X2649740Y615750D01*
X2655580Y607870D01*
X2662390Y602620D01*
X2669210Y600000D01*
X2676030D01*
X2682840Y602620D01*
X2688680Y606560D01*
X2693550Y611810D01*
G01X2747950Y600000D02*
Y678740D01*
X2736270Y662990D01*
G01Y600000D02*
X2759630D01*
G01X3069740Y-814250D02*
X3074610Y-822130D01*
X3080450Y-827380D01*
X3087260Y-830000D01*
X3095050Y-827380D01*
X3100890Y-822130D01*
X3106740Y-814250D01*
X3108680Y-803750D01*
Y-751260D01*
G01X3167950Y-830000D02*
Y-751260D01*
X3156270Y-767010D01*
G01Y-830000D02*
X3179630D01*
M02*
