G04 ================== begin FILE IDENTIFICATION RECORD ==================*
G04 Layout Name:  C:/DATA/GIT/CADENCE/MODULES/RPI_DYNAMIXEL/allegro/RPI_DYNAMIXEL.brd*
G04 Film Name:    SM_TOP*
G04 File Format:  Gerber RS274X*
G04 File Origin:  Cadence Allegro 17.2-P019*
G04 Origin Date:  Mon Apr 24 13:28:51 2017*
G04 *
G04 Layer:  PIN/SOLDERMASK_TOP*
G04 Layer:  VIA CLASS/SOLDERMASK_TOP*
G04 Layer:  ROUTE KEEPIN/ALL*
G04 Layer:  PACKAGE GEOMETRY/SOLDERMASK_TOP*
G04 *
G04 Offset:    (0.0000 0.0000)*
G04 Mirror:    No*
G04 Mode:      Positive*
G04 Rotation:  0*
G04 FullContactRelief:  No*
G04 UndefLineWidth:     0.0000*
G04 ================== end FILE IDENTIFICATION RECORD ====================*
%FSLAX25Y25*MOMM*%
%IR0*IPPOS*OFA0.00000B0.00000*MIA0B0*SFA1.00000B1.00000*%
%ADD10O,2.X.6*%
%ADD17R,1.02X.74*%
%ADD22R,.74X1.02*%
%ADD21R,9.36X10.62*%
%ADD25R,1.X1.1*%
%ADD16R,2.1X1.6*%
%ADD24O,2.6X4.6*%
%ADD23O,4.6X2.6*%
%ADD15R,3.7X2.8*%
%ADD11C,1.5*%
%ADD19R,3.7X1.27*%
%ADD14R,2.X2.*%
%ADD13C,1.9*%
%ADD18R,4.064X7.112*%
%ADD12R,1.4X1.4*%
%ADD20R,3.825X1.9*%
%LPD*%
G75*
G54D10*
X-2393750Y-1333500D03*
Y-1206500D03*
Y-1079500D03*
Y-952500D03*
Y-825500D03*
Y-698500D03*
Y-571500D03*
X-1797250Y-952500D03*
Y-1079500D03*
Y-1206500D03*
Y-1333500D03*
Y-571500D03*
Y-698500D03*
Y-825500D03*
X-1441250Y-1333500D03*
Y-1206500D03*
Y-1079500D03*
Y-952500D03*
Y-825500D03*
Y-698500D03*
Y-571500D03*
X-844750Y-952500D03*
Y-1079500D03*
Y-1206500D03*
Y-1333500D03*
Y-571500D03*
Y-698500D03*
Y-825500D03*
G54D20*
X-302750Y381000D03*
X429750D03*
X1856250Y317500D03*
X2588750D03*
G54D11*
X-2580000Y-1333500D03*
X-2984500Y-127000D03*
X-2603500D03*
X-2984500Y-571500D03*
X-2730500Y-825500D03*
X-2794000Y-381000D03*
X-2880000Y780000D03*
X-2222500Y-952500D03*
X-2286000Y-127000D03*
X-1641250Y-593770D03*
X-1841500Y-222000D03*
X-2032000Y-825500D03*
X-2349500Y-381000D03*
X-1861000Y762000D03*
X-1573500Y-1333500D03*
X-1380000Y-180000D03*
X-1620000Y-444500D03*
X-1206500Y-698500D03*
X-356000Y-1316000D03*
X-844750Y-484750D03*
X-302750Y381000D03*
X2147500Y-12500D03*
X2222500Y-1022500D03*
X3111500Y508000D03*
G54D12*
X-2774500Y-571500D03*
X-2984500D03*
X-2774500Y-825500D03*
X-2984500D03*
X-2603500Y-127000D03*
X-2984500D03*
X-2603500Y298000D03*
Y508000D03*
X-2984500Y298000D03*
Y508000D03*
X-2603500Y83000D03*
X-2984500D03*
X-2286000Y-127000D03*
Y298000D03*
Y508000D03*
Y83000D03*
X-1861000Y762000D03*
X-1651000D03*
X2222500Y-1353000D03*
Y-1143000D03*
X2921000Y-190500D03*
X3131000D03*
G54D21*
X581000Y-889000D03*
G54D13*
X-2413000Y1270000D03*
X-1651000D03*
Y1016000D03*
X-1905000Y1270000D03*
Y1016000D03*
X-2159000Y1270000D03*
Y1016000D03*
X-889000Y1270000D03*
Y1016000D03*
X-1143000Y1270000D03*
Y1016000D03*
X-1397000Y1270000D03*
Y1016000D03*
X-127000Y1270000D03*
Y1016000D03*
X-381000Y1270000D03*
Y1016000D03*
X-635000Y1270000D03*
Y1016000D03*
X635000Y1270000D03*
Y1016000D03*
X381000Y1270000D03*
Y1016000D03*
X127000Y1270000D03*
Y1016000D03*
X1397000Y1270000D03*
Y1016000D03*
X1143000Y1270000D03*
Y1016000D03*
X889000Y1270000D03*
Y1016000D03*
X2159000Y1270000D03*
Y1016000D03*
X1905000Y1270000D03*
Y1016000D03*
X1651000Y1270000D03*
Y1016000D03*
X2726500Y-635000D03*
X2413000Y1270000D03*
Y1016000D03*
X2976500Y-635000D03*
G54D22*
X773500Y-127000D03*
X623500D03*
X1027500D03*
X877500D03*
X1893500Y-190500D03*
X2043500D03*
X1662500Y-63500D03*
X1512500D03*
X2297500Y-190500D03*
X2147500D03*
G54D14*
X-2413000Y1016000D03*
X2476500Y-635000D03*
G54D23*
X1590000Y-950000D03*
Y-350000D03*
G54D15*
X-1841500Y-222000D03*
Y508000D03*
G54D24*
X2070000Y-600000D03*
G54D16*
X-1353450Y-190500D03*
X-932550D03*
G54D25*
X2571500Y-1058500D03*
X2666500Y-1333500D03*
X2476500D03*
G54D17*
X-1560000Y225000D03*
Y375000D03*
X-660000Y-975000D03*
Y-825000D03*
G54D18*
X-1276000Y444500D03*
X-756000D03*
X883000Y381000D03*
X1403000D03*
G54D19*
X-356000Y-1229000D03*
Y-1059000D03*
Y-889000D03*
Y-719000D03*
Y-549000D03*
M02*
