G04 ================== begin FILE IDENTIFICATION RECORD ==================*
G04 Layout Name:  C:/DATA/GIT/CADENCE/MODULES/RPI_DYNAMIXEL/allegro/RPI_DYNAMIXEL.brd*
G04 Film Name:    SP_TOP*
G04 File Format:  Gerber RS274X*
G04 File Origin:  Cadence Allegro 17.2-P019*
G04 Origin Date:  Mon Apr 24 13:28:51 2017*
G04 *
G04 Layer:  PIN/PASTEMASK_TOP*
G04 Layer:  VIA CLASS/PASTEMASK_TOP*
G04 Layer:  PACKAGE GEOMETRY/PASTEMASK_TOP*
G04 *
G04 Offset:    (0.0000 0.0000)*
G04 Mirror:    No*
G04 Mode:      Positive*
G04 Rotation:  0*
G04 FullContactRelief:  No*
G04 UndefLineWidth:     0.0000*
G04 ================== end FILE IDENTIFICATION RECORD ====================*
%FSLAX25Y25*MOMM*%
%IR0*IPPOS*OFA0.00000B0.00000*MIA0B0*SFA1.00000B1.00000*%
%ADD10O,2.X.6*%
%ADD14R,1.02X.74*%
%ADD19R,.74X1.02*%
%ADD18R,9.36X10.62*%
%ADD13R,2.1X1.6*%
%ADD12R,3.5X2.6*%
%ADD16R,3.7X1.27*%
%ADD20R,.8X.9*%
%ADD11R,1.2X1.2*%
%ADD17R,3.825X1.9*%
%ADD15R,3.048X5.842*%
%LPD*%
G75*
G54D10*
X-2393750Y-1333500D03*
Y-1206500D03*
Y-1079500D03*
Y-952500D03*
Y-825500D03*
Y-698500D03*
Y-571500D03*
X-1797250Y-952500D03*
Y-1079500D03*
Y-1206500D03*
Y-1333500D03*
Y-571500D03*
Y-698500D03*
Y-825500D03*
X-1441250Y-1333500D03*
Y-1206500D03*
Y-1079500D03*
Y-952500D03*
Y-825500D03*
Y-698500D03*
Y-571500D03*
X-844750Y-952500D03*
Y-1079500D03*
Y-1206500D03*
Y-1333500D03*
Y-571500D03*
Y-698500D03*
Y-825500D03*
G54D11*
X-2774500Y-571500D03*
X-2984500D03*
X-2774500Y-825500D03*
X-2984500D03*
X-2603500Y-127000D03*
X-2984500D03*
X-2603500Y298000D03*
Y508000D03*
X-2984500Y298000D03*
Y508000D03*
X-2603500Y83000D03*
X-2984500D03*
X-2286000Y-127000D03*
Y298000D03*
Y508000D03*
Y83000D03*
X-1861000Y762000D03*
X-1651000D03*
X2222500Y-1353000D03*
Y-1143000D03*
X2921000Y-190500D03*
X3131000D03*
G54D20*
X2571500Y-1058500D03*
X2666500Y-1333500D03*
X2476500D03*
G54D12*
X-1841500Y-222000D03*
Y508000D03*
G54D13*
X-1353450Y-190500D03*
X-932550D03*
G54D14*
X-1560000Y225000D03*
Y375000D03*
X-660000Y-975000D03*
Y-825000D03*
G54D15*
X-1276000Y444500D03*
X-756000D03*
X883000Y381000D03*
X1403000D03*
G54D16*
X-356000Y-1229000D03*
Y-1059000D03*
Y-889000D03*
Y-719000D03*
Y-549000D03*
G54D17*
X-302750Y381000D03*
X429750D03*
X1856250Y317500D03*
X2588750D03*
G54D18*
X581000Y-889000D03*
G54D19*
X773500Y-127000D03*
X623500D03*
X1027500D03*
X877500D03*
X1893500Y-190500D03*
X2043500D03*
X1662500Y-63500D03*
X1512500D03*
X2297500Y-190500D03*
X2147500D03*
M02*
