G04 ================== begin FILE IDENTIFICATION RECORD ==================*
G04 Layout Name:  C:/DATA/GIT/CADENCE/MODULES/RPI_DYNAMIXEL/allegro/RPI_DYNAMIXEL.brd*
G04 Film Name:    TOP*
G04 File Format:  Gerber RS274X*
G04 File Origin:  Cadence Allegro 17.2-P019*
G04 Origin Date:  Mon Apr 24 13:28:51 2017*
G04 *
G04 Layer:  ETCH/TOP*
G04 Layer:  PIN/TOP*
G04 Layer:  VIA CLASS/TOP*
G04 *
G04 Offset:    (0.0000 0.0000)*
G04 Mirror:    No*
G04 Mode:      Positive*
G04 Rotation:  0*
G04 FullContactRelief:  No*
G04 UndefLineWidth:     0.0000*
G04 ================== end FILE IDENTIFICATION RECORD ====================*
%FSLAX25Y25*MOMM*%
%IR0*IPPOS*OFA0.00000B0.00000*MIA0B0*SFA1.00000B1.00000*%
%ADD10O,2.X.6*%
%ADD18R,1.02X.74*%
%ADD23R,.74X1.02*%
%ADD22R,9.36X10.62*%
%ADD25O,2.X4.*%
%ADD24O,4.X2.*%
%ADD17R,2.1X1.6*%
%ADD12C,1.*%
%ADD16R,3.5X2.6*%
%ADD20R,3.7X1.27*%
%ADD14C,1.6*%
%ADD11C,3.5*%
%ADD26R,.8X.9*%
%ADD13R,1.2X1.2*%
%ADD21R,3.825X1.9*%
%ADD19R,3.556X6.35*%
%ADD15R,1.5999X1.5999*%
%ADD27C,.3*%
%ADD28C,.5*%
%ADD29C,.6*%
%ADD31C,2.2004*%
%ADD33C,4.1004*%
%ADD30O,2.2544X4.2544*%
%ADD32C,1.8544*%
G75*
%LPD*%
G75*
G36*
G01X-2621350Y-1429980D02*
X-2649980Y-1401350D01*
Y-1304510D01*
X-2634980Y-1289510D01*
Y-1231840D01*
G02X-2583770Y-1210630I29999J-4D01*
G01X-2542880Y-1251520D01*
X-2503440D01*
G03X-2497360Y-1256230I39721J44996D01*
G02X-2493360Y-1302710I-16795J-24858D01*
G03X-2463750Y-1376220I29610J-30792D01*
G01X-2323750D01*
G03X-2294140Y-1302710I0J42718D01*
G02X-2290140Y-1256230I20795J21622D01*
G03X-2291790Y-1155700I-33610J49727D01*
G02Y-1130300I7987J12700D01*
G03X-2284060Y-1124520I-31960J50801D01*
G01X-2043350D01*
X-1986980Y-1068150D01*
Y-921940D01*
X-1962120Y-897060D01*
X-1962060Y-897000D01*
G03X-1948080Y-879920I-69936J71504D01*
G02X-1904360Y-872670I25169J-16327D01*
G03X-1899210Y-876300I37105J47174D01*
G02Y-901700I-7987J-12700D01*
G03X-1909790Y-994840I31961J-50801D01*
G02Y-1037160I-21267J-21160D01*
G03Y-1121840I42540J-42340D01*
G02Y-1164160I-21267J-21160D01*
G03Y-1248840I42540J-42340D01*
G02Y-1291160I-21267J-21160D01*
G03X-1867250Y-1393520I42540J-42340D01*
G01X-1727250D01*
G03X-1684710Y-1291160I0J60020D01*
G02Y-1248840I21267J21160D01*
G03Y-1164160I-42540J42340D01*
G02Y-1121840I21267J21160D01*
G03Y-1037160I-42540J42340D01*
G02Y-994840I21267J21160D01*
G03Y-910160I-42540J42340D01*
G02Y-867840I21267J21160D01*
G03Y-783160I-42540J42340D01*
G02Y-740840I21267J21160D01*
G03X-1667730Y-706260I-42537J42346D01*
G02X-1651350Y-693280I14872J-1942D01*
G03X-1609040Y-688460I10093J99509D01*
G02X-1570010Y-710740I9661J-28401D01*
G03X-1553790Y-740840I58758J12243D01*
G02Y-783160I-21267J-21160D01*
G03Y-867840I42540J-42340D01*
G02Y-910160I-21267J-21160D01*
G03Y-994840I42540J-42340D01*
G02Y-1037160I-21267J-21160D01*
G03Y-1121840I42540J-42340D01*
G02Y-1164160I-21267J-21160D01*
G03X-1544860Y-1256230I42540J-42342D01*
G02X-1540860Y-1302710I-16795J-24858D01*
G03X-1511250Y-1376220I29610J-30792D01*
G01X-1371250D01*
G03X-1341640Y-1302710I0J42718D01*
G02X-1337640Y-1256230I20795J21622D01*
G03X-1328710Y-1164160I-33610J49728D01*
G02Y-1121840I21267J21160D01*
G03Y-1037160I-42540J42340D01*
G02Y-994840I21267J21160D01*
G03Y-910160I-42540J42340D01*
G02Y-867840I21267J21160D01*
G03X-1339290Y-774700I-42541J42339D01*
G02Y-749300I7987J12700D01*
G03X-1331560Y-743520I-31960J50801D01*
G01X-1302920D01*
G03X-1301970Y-744490I46929J45011D01*
G01X-1278060Y-768380D01*
X-1278000Y-768440D01*
G03X-1174590Y-793290I71498J69941D01*
G02X-1135020Y-821730I9569J-28434D01*
G01Y-1342790D01*
X-1099040Y-1378770D01*
G02X-1120260Y-1429980I-21216J-21210D01*
G01X-2621350D01*
G37*
G36*
G01X-2975500Y-243990D02*
X-2924500Y-187000D01*
X-2984500Y-123250D01*
X-3044500Y-187000D01*
X-2993500Y-243990D01*
G03X-2975500I9000J12000D01*
G37*
G36*
G01X-2993500Y-708510D02*
X-3044500Y-765500D01*
X-2984500Y-829250D01*
X-2924500Y-765500D01*
X-2975500Y-708510D01*
G03X-2993500I-9000J-12000D01*
G37*
G36*
G01Y-454510D02*
X-3044500Y-511500D01*
X-2984500Y-575250D01*
X-2924500Y-511500D01*
X-2975500Y-454510D01*
G03X-2993500I-9000J-12000D01*
G37*
G36*
G01X-2975500Y-688490D02*
X-2924500Y-631500D01*
X-2984500Y-567750D01*
X-3044500Y-631500D01*
X-2993500Y-688490D01*
G03X-2975500I9000J12000D01*
G37*
G36*
G01X-2719890Y-885610D02*
X-2695150Y-860850D01*
X-2730500Y-821750D01*
X-2765850Y-860850D01*
X-2741110Y-885610D01*
G03X-2719890I10610J10610D01*
G37*
G36*
G01X-2804610Y-320890D02*
X-2829350Y-345650D01*
X-2794000Y-384750D01*
X-2758650Y-345650D01*
X-2783390Y-320890D01*
G03X-2804610I-10610J-10610D01*
G37*
G36*
G01X-2759600Y-451770D02*
X-2754360Y-407520D01*
X-2795020Y-377390D01*
X-2829350Y-416350D01*
X-2785110Y-460610D01*
G03X-2759600Y-451770I10611J10607D01*
G37*
G36*
G01X-2783500Y-454510D02*
X-2834500Y-511500D01*
X-2774500Y-575250D01*
X-2714500Y-511500D01*
X-2765500Y-454510D01*
G03X-2783500I-9000J-12000D01*
G37*
G36*
G01X-2486510Y517000D02*
X-2543500Y568000D01*
X-2607250Y508000D01*
X-2543500Y448000D01*
X-2486510Y499000D01*
G03Y517000I-12000J9000D01*
G37*
G36*
G01X-2881100Y515620D02*
X-2924500Y559700D01*
X-2988250Y508000D01*
X-2924500Y456300D01*
X-2881100Y500380D01*
G03Y515620I-12920J7620D01*
G37*
G36*
G01X-2594500Y181010D02*
X-2543500Y238000D01*
X-2603500Y301750D01*
X-2663500Y238000D01*
X-2612500Y181010D01*
G03X-2594500I9000J12000D01*
G37*
G36*
G01X-2612500Y199990D02*
X-2663500Y143000D01*
X-2603500Y79250D01*
X-2543500Y143000D01*
X-2594500Y199990D01*
G03X-2612500I-9000J-12000D01*
G37*
G36*
G01X-2975500Y181010D02*
X-2924500Y238000D01*
X-2984500Y301750D01*
X-3044500Y238000D01*
X-2993500Y181010D01*
G03X-2975500I9000J12000D01*
G37*
G36*
G01X-2993500Y199990D02*
X-3044500Y143000D01*
X-2984500Y79250D01*
X-2924500Y143000D01*
X-2975500Y199990D01*
G03X-2993500I-9000J-12000D01*
G37*
G36*
G01X-2712020Y930520D02*
Y1028830D01*
G03X-2715370Y1036370I-10160J0D01*
G02X-2718590Y1054490I10055J11133D01*
G03Y1245510I-181410J95510D01*
G02X-2715370Y1263630I13275J6987D01*
G03X-2712020Y1271170I-6810J7540D01*
G01Y1385650D01*
X-2710390Y1387280D01*
X-2484890D01*
X-2476270Y1360010D01*
G03X-2486250Y1352090I63287J-89996D01*
G02X-2504060Y1350490I-9983J11196D01*
G03X-2509360Y1351980I-5297J-8670D01*
G01X-2618350D01*
X-2621980Y1348350D01*
Y971920D01*
G02X-2651980Y941920I-30001J1D01*
G03X-2673190Y933140I-5J-29998D01*
G01X-2686410Y919920D01*
G02X-2712020Y930520I-10610J10603D01*
G37*
G36*
G01Y625090D02*
Y734980D01*
X-2621980D01*
Y598020D01*
X-2663500D01*
G03X-2672760Y596560I-12J-30022D01*
G02X-2712020Y625090I-9262J28533D01*
G37*
G36*
G01X-2282610Y-963110D02*
X-2257850Y-987850D01*
X-2218750Y-952500D01*
X-2257850Y-917150D01*
X-2282610Y-941890D01*
G03Y-963110I10610J-10610D01*
G37*
G36*
G01X-1940310Y-785550D02*
G03X-2103500Y-755560I-91693J-39951D01*
G01X-2103560Y-755620D01*
X-2128440Y-780480D01*
X-2284060D01*
G03X-2291790Y-774700I-39690J-45021D01*
G02Y-749300I7987J12700D01*
G03X-2284060Y-743520I-31960J50801D01*
G01X-2170350D01*
X-2050480Y-623650D01*
Y-394530D01*
G02X-2017690Y-364660I30001J-1D01*
G03X-2016500Y-364720I1235J12658D01*
G01X-1740110D01*
G02X-1712400Y-406210I-2J-30000D01*
G03X-1709160Y-489830I92400J-38293D01*
G02X-1723470Y-511600I-13370J-6800D01*
G03X-1727250Y-511480I-3793J-59900D01*
G01X-1867250D01*
G03X-1909790Y-613840I0J-60020D01*
G02Y-656160I-21267J-21160D01*
G03Y-740840I42540J-42340D01*
G02Y-783160I-21267J-21160D01*
G03X-1914700Y-788740I42519J-42364D01*
G02X-1940310Y-785550I-11860J9185D01*
G37*
G36*
G01X-2021390Y-885610D02*
X-1996650Y-860850D01*
X-2032000Y-821750D01*
X-2067350Y-860850D01*
X-2042610Y-885610D01*
G03X-2021390I10610J10610D01*
G37*
G36*
G01X-2092110Y-836110D02*
X-2067350Y-860850D01*
X-2028250Y-825500D01*
X-2067350Y-790150D01*
X-2092110Y-814890D01*
G03Y-836110I10610J-10610D01*
G37*
G36*
G01X-2338890Y-441110D02*
X-2314150Y-416350D01*
X-2349500Y-377250D01*
X-2384850Y-416350D01*
X-2360110Y-441110D01*
G03X-2338890I10610J10610D01*
G37*
G36*
G01X-537460Y-1429980D02*
G02X-548060Y-1404370I3J15000D01*
G01X-544980Y-1401290D01*
Y-1305220D01*
X-171000D01*
G03X-158280Y-1292500I0J12720D01*
G01Y-1165500D01*
G03X-158680Y-1162350I-12718J-15D01*
G02X-153090Y-1146590I14534J3716D01*
G03X-140980Y-1122500I-17906J24090D01*
G01Y-995500D01*
G03X-153090Y-971410I-30016J0D01*
G02X-158680Y-955650I8944J12044D01*
G03X-158280Y-952500I-12318J3165D01*
G01Y-825500D01*
G03X-158680Y-822350I-12718J-15D01*
G02X-153090Y-806590I14534J3716D01*
G03X-140980Y-782500I-17906J24090D01*
G01Y-485500D01*
G03X-171000Y-455480I-30020J0D01*
G01X-300980D01*
Y-188290D01*
X-294710Y-182020D01*
X555250D01*
X559290Y-190680D01*
G03X586500Y-208020I27210J12679D01*
G01X660500D01*
G03X689030Y-187350I0J30024D01*
G01X692410Y-177020D01*
X721180D01*
X725530Y-184430D01*
G03X736500Y-190720I10970J6421D01*
G01X812340D01*
X816850Y-196480D01*
G03X840500Y-208020I23656J18477D01*
G01X914500D01*
G03X943030Y-187350I0J30024D01*
G01X946410Y-177020D01*
X975180D01*
X979530Y-184430D01*
G03X990500Y-190720I10970J6421D01*
G01X1064500D01*
G03X1077220Y-178000I0J12720D01*
G01Y-76000D01*
G03X1064500Y-63280I-12720J0D01*
G01X990500D01*
G03X979530Y-69570I0J-12711D01*
G01X975180Y-76980D01*
X946410D01*
X943030Y-66650D01*
G03X940190Y-60460I-28531J-9344D01*
G01X938020Y-56880D01*
Y33480D01*
X1060800D01*
G03X1090820Y63500I0J30020D01*
G01Y698500D01*
G03X1060800Y728520I-30020J0D01*
G01X705200D01*
G03X675180Y698500I0J-30020D01*
G01Y530930D01*
G02X633090Y503480I-29999J5D01*
G03X621000Y506020I-12085J-27481D01*
G01X238500D01*
G03X208480Y476000I0J-30020D01*
G01Y286000D01*
G03X238500Y255980I30020J0D01*
G01X573210D01*
X585570Y243620D01*
Y227130D01*
X568480Y210040D01*
Y-51280D01*
X564480Y-55590D01*
G03X559290Y-63320I22028J-20397D01*
G01X555250Y-71980D01*
X-340290D01*
X-411020Y-142710D01*
Y-455480D01*
X-541000D01*
G03X-545490Y-455820I15J-30019D01*
G02X-579980Y-426160I-4490J29663D01*
G01Y-261210D01*
X-705710Y-135480D01*
X-748530D01*
X-756200Y-116960D01*
X-752940Y-113700D01*
Y-88700D01*
X-700980Y-36740D01*
Y96980D01*
X-578200D01*
G03X-548180Y127000I0J30020D01*
G01Y762000D01*
G03X-578200Y792020I-30020J0D01*
G01X-933800D01*
G03X-963820Y762000I0J-30020D01*
G01Y127000D01*
G03X-933800Y96980I30020J0D01*
G01X-811020D01*
Y8840D01*
X-862980Y-43120D01*
Y-68120D01*
X-875340Y-80480D01*
X-1037550D01*
G03X-1067570Y-110500I0J-30020D01*
G01Y-270500D01*
G03X-1037550Y-300520I30020J0D01*
G01X-827550D01*
G03X-797530Y-270500I0J30020D01*
G01Y-245520D01*
X-751290D01*
X-690020Y-306790D01*
Y-500030D01*
G02X-738260Y-523850I-30001J-1D01*
G03X-750010Y-516820I-36488J-47652D01*
G03X-939490I-94740J32070D01*
G03X-957290Y-613840I24741J-54682D01*
G02Y-656160I-21267J-21160D01*
G03Y-740840I42540J-42340D01*
G02Y-783160I-21267J-21160D01*
G03Y-867840I42540J-42340D01*
G02Y-910160I-21267J-21160D01*
G03Y-994840I42540J-42340D01*
G02Y-1037160I-21267J-21160D01*
G03Y-1121840I42540J-42340D01*
G02Y-1164160I-21267J-21160D01*
G03Y-1248840I42540J-42340D01*
G02Y-1291160I-21267J-21160D01*
G03X-966380Y-1302890I42534J-42348D01*
G02X-1013390Y-1308800I-25801J15306D01*
G01X-1024980Y-1297210D01*
Y-517210D01*
X-1177210Y-364980D01*
X-1417200D01*
X-1484360Y-297820D01*
X-1468260Y-281720D01*
X-1460610Y-283040D01*
G03X-1458450Y-283220I2133J12542D01*
G01X-1248450D01*
G03X-1235730Y-270500I0J12720D01*
G01Y-110500D01*
G03X-1248450Y-97780I-12720J0D01*
G01X-1458450D01*
G03X-1471170Y-110500I0J-12720D01*
G01Y-270500D01*
G03X-1470990Y-272660I12722J-27D01*
G01X-1469670Y-280310D01*
X-1485770Y-296410D01*
X-1504980Y-277200D01*
Y-1990D01*
X-1406010Y96980D01*
X-1339430D01*
X-1332430Y89980D01*
X-1127570D01*
X-1120570Y96980D01*
X-1098200D01*
G03X-1068180Y127000I0J30020D01*
G01Y149370D01*
X-1049980Y167570D01*
Y792430D01*
X-1127570Y870020D01*
X-1772520D01*
G02X-1800510Y852020I-27496J11995D01*
G01X-1817290D01*
X-1820210Y853320D01*
G03X-1901790I-40790J-91320D01*
G01X-1904710Y852020D01*
X-1921000D01*
G03X-1951020Y822000I0J-30020D01*
G01Y805710D01*
X-1952320Y802790D01*
G03Y721210I91320J-40790D01*
G01X-1951020Y718290D01*
Y702000D01*
G03X-1950950Y700010I30018J60D01*
G02X-1980890Y668020I-29935J-1989D01*
G01X-2016500D01*
G03X-2046520Y638000I0J-30020D01*
G01Y531610D01*
G02X-2097730Y510400I-29999J4D01*
G01X-2140350Y553020D01*
X-2164240D01*
X-2205980Y590370D01*
G03X-2225990Y598020I-20020J-22370D01*
G02X-2240980Y613020I10J15000D01*
G01Y793140D01*
X-2188140Y845980D01*
X-2088560D01*
X-1989930Y944610D01*
X-1979350Y934900D01*
G03X-1823900Y1090350I74350J81100D01*
G01X-1833610Y1100930D01*
X-1735930Y1198610D01*
X-1725350Y1188900D01*
G03X-1553900Y1321730I74351J81096D01*
G01X-1559120Y1331530D01*
X-1540660Y1349990D01*
X-1500100Y1309430D01*
X-1502590Y1300900D01*
G03X-1427900Y1375590I105590J-30900D01*
G01X-1436430Y1373100D01*
X-1467710Y1404370D01*
G02X-1457100Y1429980I10607J10608D01*
G01X-1239650D01*
X-1189130Y1379460D01*
X-1219650Y1348930D01*
X-1219720Y1348850D01*
G03X-1066280I76720J-78850D01*
G01X-1066350Y1348930D01*
X-1097980Y1380570D01*
Y1415650D01*
X-1121110Y1438780D01*
G02X-1099900Y1489990I21214J21211D01*
G01X2950000D01*
G02X3239990Y1210000I5000J-284990D01*
G01Y592880D01*
G02X3187270Y573300I-29998J5D01*
G03X3011480Y508000I-75767J-65300D01*
G01Y471650D01*
X2875980Y336150D01*
Y-68740D01*
X2838630Y-110480D01*
G03X2830980Y-130500I22371J-20020D01*
G01Y-250500D01*
G03X2861000Y-280520I30020J0D01*
G01X2981000D01*
G03X3005950Y-267200I0J30027D01*
G01X3010400Y-260540D01*
X3041600D01*
X3046050Y-267200D01*
G03X3048630Y-270520I24937J16716D01*
G01X3085980Y-312260D01*
Y-461850D01*
X3022850Y-524980D01*
X2976500D01*
G03X2900690Y-555270I0J-110014D01*
G02X2850020Y-533530I-20670J21743D01*
G01Y-527570D01*
X2790020Y-467570D01*
Y193090D01*
X2796680Y197540D01*
G03X2810020Y222500I-16681J24960D01*
G01Y412500D01*
G03X2796680Y437460I-30021J0D01*
G01X2790020Y441910D01*
Y672430D01*
X2652430Y810020D01*
X1247570D01*
X1169980Y732430D01*
Y-312430D01*
X1487570Y-630020D01*
X1830020D01*
Y-251730D01*
X1848270D01*
X1851230Y-253080D01*
G03X1856500Y-254220I5264J11581D01*
G01X1930500D01*
G03X1941470Y-247930I0J12711D01*
G01X1945820Y-240520D01*
X1974590D01*
X1977970Y-250850D01*
G03X2006500Y-271520I28530J9354D01*
G01X2080500D01*
G03X2095500Y-267500I-6J30018D01*
G03X2110500Y-271520I15006J25998D01*
G01X2184500D01*
G03X2213030Y-250850I0J30024D01*
G01X2216410Y-240520D01*
X2245180D01*
X2249530Y-247930D01*
G03X2260500Y-254220I10970J6421D01*
G01X2334500D01*
G03X2347220Y-241500I0J12720D01*
G01Y-139500D01*
G03X2334500Y-126780I-12720J0D01*
G01X2260500D01*
G03X2249530Y-133070I0J-12711D01*
G01X2245180Y-140480D01*
X2216410D01*
X2213030Y-130150D01*
G03X2207470Y-120180I-28519J-9369D01*
G01X2195510Y-105950D01*
X2217380Y-84060D01*
X2217440Y-84000D01*
G03X2061770Y-64030I-69944J71499D01*
G02X2036060Y-109480I-25712J-15452D01*
G01X2006500D01*
G03X1977970Y-130150I0J-30024D01*
G01X1974590Y-140480D01*
X1945820D01*
X1941470Y-133070D01*
G03X1930500Y-126780I-10970J-6421D01*
G01X1856500D01*
G03X1843780Y-139500I0J-12720D01*
G01Y-168900D01*
G02X1792570Y-190110I-29998J3D01*
G01X1752430Y-149980D01*
X1741870D01*
G02X1712110Y-116130I-6J30001D01*
G03X1712220Y-114500I-12607J1670D01*
G01Y-12500D01*
G03X1699500Y220I-12720J0D01*
G01X1625500D01*
G03X1614530Y-6070I0J-12711D01*
G01X1610180Y-13480D01*
X1581410D01*
X1578030Y-3150D01*
G03X1577560Y-1830I-28509J-9407D01*
G02X1593200Y36160I28037J10672D01*
G03X1610820Y63500I-12401J27340D01*
G01Y488370D01*
X1632430Y509980D01*
X2327570D01*
X2369980Y467570D01*
Y424760D01*
X2369150Y422360D01*
G03X2367480Y412500I28348J-9873D01*
G01Y222500D01*
G03X2369150Y212640I30018J13D01*
G01X2369980Y210240D01*
Y107570D01*
X2429980Y47570D01*
Y-372430D01*
X2609980Y-552430D01*
Y-672430D01*
X2638240Y-700700D01*
X2638860Y-701510D01*
G03X2659990Y-722640I87640J66510D01*
G01X2660800Y-723260D01*
X2687570Y-750020D01*
X2850020D01*
Y-676590D01*
X2874230D01*
X2878400Y-684800D01*
G03X2899780Y-713850I98098J49805D01*
G01X2899850Y-713930D01*
X2922110Y-736200D01*
X2814330Y-843980D01*
X2584850D01*
X2526480Y-902350D01*
Y-973050D01*
X2508630Y-994060D01*
G03X2501480Y-1013500I22868J-19446D01*
G01Y-1103500D01*
G03X2501500Y-1104580I30020J16D01*
G01X2501510Y-1104850D01*
Y-1120120D01*
X2446000D01*
Y-1198120D01*
G02X2420390Y-1208730I-15002J-3D01*
G01X2394520Y-1182850D01*
Y-1163650D01*
X2328850Y-1097980D01*
X2328380D01*
X2312860Y-1082160D01*
X2312040Y-1077630D01*
G03X2310000Y-1070960I-29534J-5386D01*
G03X2135000I-87500J48460D01*
G03X2132480Y-1083000I27502J-12040D01*
G01Y-1203000D01*
G03X2145800Y-1227950I30027J0D01*
G01X2152460Y-1232400D01*
Y-1263600D01*
X2145800Y-1268050D01*
G03X2132480Y-1293000I16707J-24950D01*
G01Y-1379350D01*
X2081850Y-1429980D01*
X1061720D01*
Y-358000D01*
G03X1049000Y-345280I-12720J0D01*
G01X113000D01*
G03X100280Y-358000I0J-12720D01*
G01Y-1429980D01*
X-537460D01*
G37*
G36*
G01X-1653780Y-346020D02*
Y-92000D01*
G03X-1666500Y-79280I-12720J0D01*
G01X-2016500D01*
G03X-2017690Y-79340I45J-12718D01*
G02X-2050480Y-49470I-2789J29871D01*
G01Y318110D01*
G02X-2018490Y348050I30001J5D01*
G03X-2016500Y347980I2050J29948D01*
G01X-1890430D01*
X-1872430Y329980D01*
X-1641160D01*
X-1636800Y322650D01*
G03X-1620350Y309470I25802J15348D01*
G01X-1610020Y306090D01*
Y277320D01*
X-1617430Y272970D01*
G03X-1623720Y262000I6421J-10970D01*
G01Y188000D01*
G03X-1611000Y175280I12720J0D01*
G01X-1555760D01*
G02X-1534540Y124070I4J-30000D01*
G01X-1615020Y43590D01*
Y-329920D01*
G02X-1628710Y-344860I-15000J3D01*
G03X-1636330Y-345820I8683J-99643D01*
G01X-1637550Y-346020D01*
X-1653780D01*
G37*
G36*
G01X-2169010Y517000D02*
X-2226000Y568000D01*
X-2289750Y508000D01*
X-2226000Y448000D01*
X-2169010Y499000D01*
G03Y517000I-12000J9000D01*
G37*
G36*
G01X-2277000Y181010D02*
X-2226000Y238000D01*
X-2286000Y301750D01*
X-2346000Y238000D01*
X-2295000Y181010D01*
G03X-2277000I9000J12000D01*
G37*
G36*
G01X-2295000Y199990D02*
X-2346000Y143000D01*
X-2286000Y79250D01*
X-2226000Y143000D01*
X-2277000Y199990D01*
G03X-2295000I-9000J-12000D01*
G37*
G36*
G01X-1653940Y360000D02*
Y375810D01*
X-1653850Y376620D01*
G03X-1653780Y378000I-12652J1334D01*
G01Y638000D01*
G03X-1666500Y650720I-12720J0D01*
G01X-1740000D01*
Y691960D01*
X-1719510D01*
X-1716460Y690510D01*
G03X-1711000Y689280I5460J11504D01*
G01X-1591000D01*
G03X-1578280Y702000I0J12720D01*
G01Y822000D01*
G03X-1578350Y823380I-12722J46D01*
G01X-1578440Y824190D01*
Y840000D01*
X-1140000D01*
X-1125930Y825930D01*
G02X-1147150Y774720I-21216J-21210D01*
G01X-1453800D01*
G03X-1466520Y762000I0J-12720D01*
G01Y452860D01*
G02X-1505280Y424170I-29998J-1D01*
G03X-1509000Y424720I-3700J-12173D01*
G01X-1611000D01*
G03X-1623720Y412000I0J-12720D01*
G01Y360000D01*
X-1653940D01*
G37*
G36*
G01X-1513390Y-1322890D02*
X-1538150Y-1298150D01*
X-1577250Y-1333500D01*
X-1538150Y-1368850D01*
X-1513390Y-1344110D01*
G03Y-1322890I-10610J10610D01*
G37*
G36*
G01X-1701360Y-604380D02*
X-1676600Y-629120D01*
X-1637500Y-593770D01*
X-1676600Y-558420D01*
X-1701360Y-583160D01*
G03Y-604380I10610J-10610D01*
G37*
G36*
G01X-1559890Y-433890D02*
X-1584650Y-409150D01*
X-1623750Y-444500D01*
X-1584650Y-479850D01*
X-1559890Y-455110D01*
G03Y-433890I-10610J10610D01*
G37*
G36*
G01X-1266610Y-709110D02*
X-1241850Y-733850D01*
X-1202750Y-698500D01*
X-1241850Y-663150D01*
X-1266610Y-687890D01*
G03Y-709110I10610J-10610D01*
G37*
G36*
G01X-1474120Y382660D02*
X-1509000Y412000D01*
X-1563750Y375000D01*
X-1509000Y338000D01*
X-1474120Y367340D01*
G03Y382660I-12890J7660D01*
G37*
G36*
G01X-1153610Y1372530D02*
X-1199560Y1326560D01*
X-1143000Y1266250D01*
X-1086440Y1326560D01*
X-1132390Y1372530D01*
G03X-1153610I-10610J-10610D01*
G37*
G36*
G01X-1648880Y683650D02*
X-1626290Y702020D01*
X-1651000Y765750D01*
X-1675710Y702020D01*
X-1653120Y683650D01*
G03X-1648880I2120J14850D01*
G37*
G36*
G01X-366610Y-1255890D02*
X-391350Y-1280650D01*
X-356000Y-1319750D01*
X-320650Y-1280650D01*
X-345390Y-1255890D01*
G03X-366610I-10610J-10610D01*
G37*
G36*
G01X-652300Y-1055360D02*
X-609000Y-1012000D01*
X-660000Y-971250D01*
X-711000Y-1012000D01*
X-667700Y-1055360D01*
G03X-652300I7700J12880D01*
G37*
G36*
G01X-834140Y-544860D02*
X-809400Y-520100D01*
X-844750Y-481000D01*
X-880100Y-520100D01*
X-855360Y-544860D01*
G03X-834140I10610J10610D01*
G37*
G36*
G01X-574120Y-817340D02*
X-609000Y-788000D01*
X-663750Y-825000D01*
X-609000Y-862000D01*
X-574120Y-832660D01*
G03Y-817340I-12890J7660D01*
G37*
G36*
G01X-596360Y-910770D02*
G03X-599650Y-909470I-12658J-27222D01*
G01X-609980Y-906090D01*
Y-877320D01*
X-602570Y-872970D01*
G03X-596280Y-862000I-6421J10970D01*
G01Y-787610D01*
X-572000D01*
X-567860Y-795910D01*
G03X-558910Y-806590I26856J13415D01*
G02X-553320Y-822350I-8944J-12044D01*
G03X-553720Y-825500I12318J-3165D01*
G01Y-883560D01*
G02X-596360Y-910770I-29999J-4D01*
G37*
G36*
G01X-737710Y-778270D02*
G03X-742790Y-774700I-37004J-47256D01*
G02Y-749300I7987J12700D01*
G03X-723750Y-730150I-31952J50808D01*
G02X-677050Y-724760I25487J-15822D01*
G01X-652140Y-749670D01*
G02X-662740Y-775280I-10603J-10610D01*
G01X-711000D01*
G03X-719010Y-778120I0J-12716D01*
G02X-737710Y-778270I-9444J11653D01*
G37*
G36*
G01X1035160Y-212880D02*
X1064500Y-178000D01*
X1027500Y-123250D01*
X990500Y-178000D01*
X1019840Y-212880D01*
G03X1035160I7660J12890D01*
G37*
G36*
G01X781160D02*
X810500Y-178000D01*
X773500Y-123250D01*
X736500Y-178000D01*
X765840Y-212880D01*
G03X781160I7660J12890D01*
G37*
G36*
G01X1462780Y-114500D02*
G03X1475500Y-127220I12720J0D01*
G01X1507220D01*
X1560000Y-180000D01*
X1740000D01*
X1773210Y-213210D01*
G03X1800000Y-243180I55567J22713D01*
G01Y-279630D01*
X1778310D01*
X1773840Y-274660D01*
G03X1690000Y-237280I-83840J-75333D01*
G01X1490000D01*
G03Y-462720I0J-112720D01*
G01X1690000D01*
G03X1753180Y-443350I0J112724D01*
G02X1800000Y-468190I16821J-24840D01*
G01Y-600000D01*
X1500000D01*
X1200000Y-300000D01*
Y52720D01*
X1217860D01*
X1220520Y51670D01*
G03X1225190Y50780I4675J11831D01*
G01X1500000D01*
Y220D01*
X1475500D01*
G03X1462780Y-12500I0J-12720D01*
G01Y-114500D01*
G37*
G36*
G01X2400000Y425220D02*
Y480000D01*
X2340000Y540000D01*
X1620000D01*
X1619130Y539130D01*
G02X1593520Y549730I-10610J10603D01*
G01Y698500D01*
G03X1580800Y711220I-12720J0D01*
G01X1263650D01*
G02X1242430Y762430I-4J30000D01*
G01X1260000Y780000D01*
X2640000D01*
X2760000Y660000D01*
Y425220D01*
X2400000D01*
G37*
G36*
G01X1885840Y-104620D02*
X1856500Y-139500D01*
X1893500Y-194250D01*
X1930500Y-139500D01*
X1901160Y-104620D01*
G03X1885840I-7660J-12890D01*
G37*
G36*
G01X2128750Y-181850D02*
X2080500Y-139500D01*
X2039750Y-190500D01*
X2080500Y-241500D01*
X2128750Y-199150D01*
G03Y-181850I-12260J8650D01*
G37*
G36*
G01X2062250Y-199150D02*
X2110500Y-241500D01*
X2151250Y-190500D01*
X2110500Y-139500D01*
X2062250Y-181850D01*
G03Y-199150I12260J-8650D01*
G37*
G36*
G01X1747750Y-54850D02*
X1699500Y-12500D01*
X1658750Y-63500D01*
X1699500Y-114500D01*
X1747750Y-72150D01*
G03Y-54850I-12260J8650D01*
G37*
G36*
G01X1427250Y-72150D02*
X1475500Y-114500D01*
X1516250Y-63500D01*
X1475500Y-12500D01*
X1427250Y-54850D01*
G03Y-72150I12260J-8650D01*
G37*
G36*
G01X2233110Y-1082610D02*
X2257850Y-1057850D01*
X2222500Y-1018750D01*
X2187150Y-1057850D01*
X2211890Y-1082610D01*
G03X2233110I10610J10610D01*
G37*
G36*
G01X2213500Y-1026010D02*
X2162500Y-1083000D01*
X2222500Y-1146750D01*
X2282500Y-1083000D01*
X2231500Y-1026010D01*
G03X2213500I-9000J-12000D01*
G37*
G36*
G01X2323250Y-1135610D02*
X2282500Y-1094080D01*
X2218750Y-1143000D01*
X2282500Y-1191920D01*
X2323250Y-1150390D01*
G03Y-1135610I-13050J7390D01*
G37*
G36*
G01X2674450Y-1416210D02*
X2706500Y-1378500D01*
X2666500Y-1329750D01*
X2626500Y-1378500D01*
X2658550Y-1416210D01*
G03X2674450I7950J12720D01*
G37*
G36*
G01X2563550Y-975790D02*
X2531500Y-1013500D01*
X2571500Y-1062250D01*
X2611500Y-1013500D01*
X2579450Y-975790D01*
G03X2563550I-7950J-12720D01*
G37*
G36*
G01X2305160Y-276380D02*
X2334500Y-241500D01*
X2297500Y-186750D01*
X2260500Y-241500D01*
X2289840Y-276380D01*
G03X2305160I7660J12890D01*
G37*
G36*
G01X2139840Y-104620D02*
X2110500Y-139500D01*
X2147500Y-194250D01*
X2184500Y-139500D01*
X2155160Y-104620D01*
G03X2139840I-7660J-12890D01*
G37*
G36*
G01X2715890Y-532470D02*
X2669940Y-578440D01*
X2726500Y-638750D01*
X2783060Y-578440D01*
X2737110Y-532470D01*
G03X2715890I-10610J-10610D01*
G37*
G36*
G01X2820000Y-576230D02*
X2798510D01*
X2794070Y-571510D01*
G03X2664960Y-565650I-67570J-63491D01*
G02X2640000Y-554430I-9959J11217D01*
G01Y-540000D01*
X2460000Y-360000D01*
Y60000D01*
X2400000Y120000D01*
Y209780D01*
X2760000D01*
Y-480000D01*
X2820000Y-540000D01*
Y-576230D01*
G37*
G36*
G01X2158110Y-72610D02*
X2182850Y-47850D01*
X2147500Y-8750D01*
X2112150Y-47850D01*
X2136890Y-72610D01*
G03X2158110I10610J10610D01*
G37*
G36*
G01X3140000Y-307490D02*
X3191000Y-250500D01*
X3131000Y-186750D01*
X3071000Y-250500D01*
X3122000Y-307490D01*
G03X3140000I9000J12000D01*
G37*
G36*
G01X2987110Y-737530D02*
X3033060Y-691560D01*
X2976500Y-631250D01*
X2919940Y-691560D01*
X2965890Y-737530D01*
G03X2987110I10610J10610D01*
G37*
G36*
G01X3041500Y-555000D02*
X2976500D01*
X2973850Y-637650D01*
X3056500Y-635000D01*
Y-570000D01*
G03X3041500Y-555000I-15000J0D01*
G37*
G36*
G01X2912000Y-73510D02*
X2861000Y-130500D01*
X2921000Y-194250D01*
X2981000Y-130500D01*
X2930000Y-73510D01*
G03X2912000I-9000J-12000D01*
G37*
G36*
G01X3076500Y458000D02*
X3111500D01*
X3114150Y510650D01*
X3061500Y508000D01*
Y473000D01*
G03X3076500Y458000I15000J0D01*
G37*
%LPC*%
G75*
G36*
G01X1652280Y222500D02*
Y412500D01*
G02X1665000Y425220I12720J0D01*
G01X2047500D01*
G02X2060220Y412500I0J-12720D01*
G01Y222500D01*
G02X2047500Y209780I-12720J0D01*
G01X1665000D01*
G02X1652280Y222500I0J12720D01*
G37*
G36*
G01X1490000Y-1062720D02*
G02Y-837280I0J112720D01*
G01X1690000D01*
G02Y-1062720I0J-112720D01*
G01X1490000D01*
G37*
G36*
G01X-506720Y286000D02*
Y476000D01*
G02X-494000Y488720I12720J0D01*
G01X-111500D01*
G02X-98780Y476000I0J-12720D01*
G01Y286000D01*
G02X-111500Y273280I-12720J0D01*
G01X-494000D01*
G02X-506720Y286000I0J12720D01*
G37*
G36*
G01X2556500Y-727720D02*
X2396500D01*
G02X2383780Y-715000I5J12725D01*
G01Y-555000D01*
G02X2396500Y-542280I12725J-5D01*
G01X2556500D01*
G02X2560370Y-542890I-22J-12722D01*
G01X2566610Y-544890D01*
X2568610Y-551130D01*
G02X2569220Y-555000I-12112J-3892D01*
G01Y-715000D01*
G02X2556500Y-727720I-12725J5D01*
G37*
G54D31*
X-1651000Y1016000D03*
X-889000Y1270000D03*
Y1016000D03*
X-1143000D03*
X-127000Y1270000D03*
Y1016000D03*
X-381000Y1270000D03*
Y1016000D03*
X-635000Y1270000D03*
Y1016000D03*
X635000Y1270000D03*
Y1016000D03*
X381000Y1270000D03*
Y1016000D03*
X127000Y1270000D03*
Y1016000D03*
X1397000Y1270000D03*
Y1016000D03*
X1143000Y1270000D03*
Y1016000D03*
X889000Y1270000D03*
Y1016000D03*
X2159000Y1270000D03*
Y1016000D03*
X1905000Y1270000D03*
Y1016000D03*
X1651000Y1270000D03*
Y1016000D03*
X2413000Y1270000D03*
Y1016000D03*
G54D33*
X2900000Y1150000D03*
G54D30*
X2070000Y-600000D03*
G54D32*
X-1397000Y1016000D03*
%LPD*%
G75*
G36*
G01X-2519890Y-1322890D02*
X-2544650Y-1298150D01*
X-2583750Y-1333500D01*
X-2544650Y-1368850D01*
X-2519890Y-1344110D01*
G03Y-1322890I-10610J10610D01*
G37*
G54D10*
X-2393750Y-1333500D03*
Y-1206500D03*
Y-1079500D03*
Y-952500D03*
Y-825500D03*
Y-698500D03*
Y-571500D03*
X-1797250Y-952500D03*
Y-1079500D03*
Y-1206500D03*
Y-1333500D03*
Y-571500D03*
Y-698500D03*
Y-825500D03*
X-1441250Y-1333500D03*
Y-1206500D03*
Y-1079500D03*
Y-952500D03*
Y-825500D03*
Y-698500D03*
Y-571500D03*
X-844750Y-952500D03*
Y-1079500D03*
Y-1206500D03*
Y-1333500D03*
Y-571500D03*
Y-698500D03*
Y-825500D03*
G54D11*
X-2900000Y-1150000D03*
Y1150000D03*
X2900000Y-1150000D03*
Y1150000D03*
G54D20*
X-356000Y-1229000D03*
Y-1059000D03*
Y-889000D03*
Y-719000D03*
Y-549000D03*
G54D21*
X-302750Y381000D03*
X429750D03*
X1856250Y317500D03*
X2588750D03*
G54D12*
G01X-2413000Y1270000D02*
X-2159000D01*
X-2580000Y-1333500D03*
X-2984500Y-127000D03*
X-2603500D03*
X-2984500Y-571500D03*
X-2730500Y-825500D03*
X-2794000Y-381000D03*
X-2880000Y780000D03*
X-2222500Y-952500D03*
X-2286000Y-127000D03*
X-1641250Y-593770D03*
X-1841500Y-222000D03*
X-2032000Y-825500D03*
X-2349500Y-381000D03*
X-1861000Y762000D03*
X-1573500Y-1333500D03*
X-1380000Y-180000D03*
X-1620000Y-444500D03*
X-1206500Y-698500D03*
X-356000Y-1316000D03*
X-844750Y-484750D03*
X-302750Y381000D03*
X2147500Y-12500D03*
X2222500Y-1022500D03*
X3111500Y508000D03*
G54D13*
X-2774500Y-571500D03*
X-2984500D03*
X-2774500Y-825500D03*
X-2984500D03*
X-2603500Y-127000D03*
X-2984500D03*
X-2603500Y298000D03*
Y508000D03*
X-2984500Y298000D03*
Y508000D03*
X-2603500Y83000D03*
X-2984500D03*
X-2286000Y-127000D03*
Y298000D03*
Y508000D03*
Y83000D03*
X-1861000Y762000D03*
X-1651000D03*
X2222500Y-1353000D03*
Y-1143000D03*
X2921000Y-190500D03*
X3131000D03*
G54D22*
X581000Y-889000D03*
G54D14*
X-2413000Y1270000D03*
X-1651000D03*
Y1016000D03*
X-1905000Y1270000D03*
Y1016000D03*
X-2159000Y1270000D03*
Y1016000D03*
X-889000Y1270000D03*
Y1016000D03*
X-1143000Y1270000D03*
Y1016000D03*
X-1397000Y1270000D03*
Y1016000D03*
X-127000Y1270000D03*
Y1016000D03*
X-381000Y1270000D03*
Y1016000D03*
X-635000Y1270000D03*
Y1016000D03*
X635000Y1270000D03*
Y1016000D03*
X381000Y1270000D03*
Y1016000D03*
X127000Y1270000D03*
Y1016000D03*
X1397000Y1270000D03*
Y1016000D03*
X1143000Y1270000D03*
Y1016000D03*
X889000Y1270000D03*
Y1016000D03*
X2159000Y1270000D03*
Y1016000D03*
X1905000Y1270000D03*
Y1016000D03*
X1651000Y1270000D03*
Y1016000D03*
X2726500Y-635000D03*
X2413000Y1270000D03*
Y1016000D03*
X2976500Y-635000D03*
G54D23*
X773500Y-127000D03*
X623500D03*
X1027500D03*
X877500D03*
X1893500Y-190500D03*
X2043500D03*
X1662500Y-63500D03*
X1512500D03*
X2297500Y-190500D03*
X2147500D03*
G54D15*
X-2413000Y1016000D03*
X2476500Y-635000D03*
G54D24*
X1590000Y-950000D03*
Y-350000D03*
G54D16*
X-1841500Y-222000D03*
Y508000D03*
G54D25*
X2070000Y-600000D03*
G54D26*
X2571500Y-1058500D03*
X2666500Y-1333500D03*
X2476500D03*
G54D17*
X-1353450Y-190500D03*
X-932550D03*
G54D27*
G01X-2393750Y-1333500D02*
X-2580000D01*
G01X-2730500Y-825500D02*
Y-1008350D01*
X-2680000Y-1058850D01*
Y-1270860D01*
X-2695000Y-1285860D01*
Y-1420000D01*
X-2640000Y-1475000D01*
X2100500D01*
X2222500Y-1353000D01*
G01X-2603500Y508000D02*
X-2476500D01*
X-2413000Y444500D01*
Y-254000D01*
X-2603500Y-444500D01*
Y-1127230D01*
X-2524230Y-1206500D01*
X-2393750D01*
G01X-2984500Y-825500D02*
Y-571500D01*
G01D02*
Y-127000D01*
G01X-2774500Y-825500D02*
X-2730500D01*
G01X-2774500Y-571500D02*
Y-400500D01*
X-2794000Y-381000D01*
G01D02*
Y407980D01*
X-2894020Y508000D01*
X-2984500D01*
G01X-1397000Y1270000D02*
X-1559300Y1432300D01*
X-2928850D01*
X-3120000Y1241150D01*
Y840000D01*
X-2788000Y508000D01*
X-2603500D01*
G01X-1143000Y1270000D02*
Y1397000D01*
X-1221000Y1475000D01*
X-2952550D01*
X-2972040Y1472960D01*
X-3180000Y1265000D01*
Y600000D01*
X-3088000Y508000D01*
X-2984500D01*
G01X-2603500Y298000D02*
Y83000D01*
G01X-2984500Y298000D02*
Y83000D01*
G01X-2880000Y780000D02*
X-2443000D01*
X-2413000Y810000D01*
Y1016000D01*
G01X-2032000Y-825500D02*
Y-1049500D01*
X-2062000Y-1079500D01*
X-2393750D01*
G01Y-952500D02*
X-2222500D01*
G01X-1641250Y-593770D02*
X-1704980D01*
X-1727250Y-571500D01*
X-1797250D01*
G01X-1841500Y-222000D02*
Y24980D01*
G01X-2393750Y-825500D02*
X-2032000D01*
G01X-2393750Y-698500D02*
X-2189000D01*
X-2095500Y-605000D01*
Y444500D01*
X-2159000Y508000D01*
X-2286000D01*
G01X-2349500Y-381000D02*
Y-466770D01*
X-2393750Y-511020D01*
Y-571500D01*
G01X-1841500Y24980D02*
X-1641480Y225000D01*
G01X-2286000Y508000D02*
Y811790D01*
X-2206790Y891000D01*
X-2107210D01*
X-2034000Y964210D01*
Y1063790D01*
X-1952790Y1145000D01*
X-1853210D01*
X-1780000Y1218210D01*
Y1248700D01*
X-1758700Y1270000D01*
X-1651000D01*
G01X-1841500Y508000D02*
X-1651000Y698500D01*
Y762000D01*
G01X-1545000Y508000D02*
X-1841500D01*
G01X-2286000Y298000D02*
Y83000D01*
G01X-1573500Y-1333500D02*
X-1441250D01*
G01X-1620000Y-444500D02*
X-1510550D01*
X-1441250Y-513800D01*
Y-571500D01*
G01X-1206500Y-698500D02*
X-1441250D01*
G01X-1641480Y225000D02*
X-1560000D01*
G01X-1276000Y444500D02*
X-1345500Y375000D01*
X-1560000D01*
G01X-1276000Y444500D02*
X-1481500D01*
G01D02*
X-1545000Y508000D01*
G01X-356000Y-1229000D02*
Y-1316000D01*
G01Y-1229000D02*
X241000D01*
X581000Y-889000D01*
G01X-570000Y-1059000D02*
X-643480D01*
X-660000Y-1042480D01*
Y-975000D01*
G01X-844750Y-571500D02*
Y-484750D01*
G01X-356000Y-889000D02*
X581000D01*
G01X-660000Y-825000D02*
X-562140D01*
G01D02*
X-498140Y-889000D01*
X-356000D01*
G01X-907550Y-190500D02*
X-932550D01*
G01X773500Y-696500D02*
X581000Y-889000D01*
G01D02*
X2332970D01*
G01X526000Y381000D02*
X429750D01*
G01X773500Y-127000D02*
Y-696500D01*
G01D02*
X1027500Y-442500D01*
Y-127000D01*
G01X1333500Y-198500D02*
Y-33700D01*
G01X1587500Y-352500D02*
X1487500D01*
X1333500Y-198500D01*
G01Y-33700D02*
X1403000Y35800D01*
G01X1363300Y-63500D02*
X1333500Y-33700D01*
G01X1893500Y157550D02*
Y-190500D01*
G01X2043500D02*
X2147500D01*
G01X1856250Y317500D02*
Y194800D01*
G01D02*
X1893500Y157550D01*
G01X1856250Y194800D02*
X1841500Y180050D01*
Y0D01*
X1778000Y-63500D01*
G01D02*
X1662500D01*
G01X1512500D02*
X1363300D01*
G01X1403000Y381000D02*
Y577500D01*
X1524000Y698500D01*
X2476500D01*
G01X1403000Y35800D02*
Y381000D01*
G01X2476500Y-1333500D02*
Y-1328500D01*
X2349500Y-1201500D01*
Y-1182300D01*
X2310200Y-1143000D01*
X2222500D01*
G01D02*
Y-1022500D01*
G01X2666500Y-1333500D02*
Y-1408980D01*
X2614980Y-1460500D01*
X2330000D01*
X2222500Y-1353000D01*
G01X2976500Y-635000D02*
Y-745480D01*
X2832980Y-889000D01*
X2603500D01*
X2571500Y-921000D01*
Y-1058500D01*
G01X2476500Y-635000D02*
X2297500Y-456000D01*
G01X2332970Y-889000D02*
X2476500Y-745470D01*
G01D02*
Y-635000D01*
G01X2297500Y-456000D02*
Y-190500D01*
G01X2147500D02*
Y-12500D01*
G01X2588750Y317500D02*
Y-308750D01*
G01D02*
X2726500Y-446500D01*
G01D02*
Y-635000D01*
G01X2588750Y586250D02*
Y317500D01*
G01X2476500Y698500D02*
X2588750Y586250D01*
G01X3131000Y-190500D02*
Y-480500D01*
X2976500Y-635000D01*
G01X2921000Y-190500D02*
Y317500D01*
X3111500Y508000D01*
G54D18*
X-1560000Y225000D03*
Y375000D03*
X-660000Y-975000D03*
Y-825000D03*
G54D28*
G01X-1276000Y444500D02*
Y304800D01*
X-1560000Y20800D01*
Y-299990D01*
X-1439990Y-420000D01*
X-1200000D01*
X-1080000Y-540000D01*
Y-1320000D01*
X-981500Y-1418500D01*
X-640000D01*
X-600000Y-1378500D01*
Y-1089000D01*
X-570000Y-1059000D01*
G01D02*
X-356000D01*
G01Y-719000D02*
X-605000D01*
X-635000Y-689000D01*
Y-284000D01*
X-728500Y-190500D01*
X-907550D01*
G01X-756000Y444500D02*
Y-13950D01*
X-807960Y-65910D01*
Y-90910D01*
X-907550Y-190500D01*
G01X623500Y-127000D02*
X-317500D01*
X-356000Y-165500D01*
Y-549000D01*
G01X526000Y381000D02*
X640590Y266410D01*
Y204340D01*
X623500Y187250D01*
Y-127000D01*
G01X526000Y381000D02*
X883000D01*
G01D02*
Y-42800D01*
X877500Y-48300D01*
Y-127000D01*
G54D19*
X-1276000Y444500D03*
X-756000D03*
X883000Y381000D03*
X1403000D03*
G54D29*
G01X-2393750Y-1391220D02*
Y-1333500D01*
G01D02*
X-2266030D01*
G01X-1841500Y-379720D02*
Y-222000D01*
G01D02*
X-1638780D01*
G01X-1841500Y508000D02*
X-1638780Y658600D01*
G01X-1841500Y508000D02*
X-1638780Y583300D01*
G01X-1441250Y-1391220D02*
Y-1333500D01*
G01D02*
X-1313530D01*
G01X-1353450Y-298220D02*
Y-190500D01*
G01D02*
Y-82780D01*
G01X-1486170Y-190500D02*
X-1353450D01*
G01D02*
X-1220730D01*
G01X-1560000Y160280D02*
Y225000D01*
G01X-1638720Y167880D02*
X-1560000Y225000D01*
G01Y375000D02*
Y439720D01*
G01Y375000D02*
X-1481280Y432120D01*
G01X-1276000Y444500D02*
Y789720D01*
G01X-1469330D02*
X-1276000Y444500D01*
G01X-1397000Y908280D02*
Y1016000D01*
G01D02*
Y1123720D01*
G01X-1504720Y1016000D02*
X-1397000D01*
G01D02*
X-1289280D01*
G01X-1651000Y762000D02*
X-1563280D01*
G01X-1651000D02*
X-1563280Y674280D01*
G01X-356000Y-1229000D02*
X-143280Y-1302020D01*
G01X-462360Y-1311120D02*
X-356000Y-1229000D01*
G01X-660000Y-825000D02*
Y-760280D01*
G01X-699360Y-764080D02*
X-660000Y-825000D01*
G01X-356000Y-889000D02*
X-143280Y-852490D01*
G01X-568720D02*
X-356000Y-889000D01*
G01X-302750Y258280D02*
Y381000D01*
G01D02*
Y503720D01*
G01Y381000D02*
X-83780D01*
G01X581000Y-889000D02*
Y-330280D01*
G01Y-889000D02*
X1073440Y-330280D01*
G01X1362280Y-950000D02*
X1590000D01*
G01X1362280Y-350000D02*
X1590000D01*
G01X1027500Y-127000D02*
Y-48280D01*
G01Y-127000D02*
X1092220D01*
G01X1306340Y35780D02*
X1403000Y381000D01*
G01X1590000Y-1077720D02*
Y-950000D01*
G01D02*
Y-822280D01*
G01Y-950000D02*
X1817720D01*
G01X2070000Y-827720D02*
Y-600000D01*
G01D02*
Y-372280D01*
G01X1942280Y-600000D02*
X2070000D01*
G01D02*
X2197720D01*
G01X1893500Y-269220D02*
Y-190500D01*
G01X1828780D02*
X1893500D01*
G01X1590000Y-477720D02*
Y-350000D01*
G01D02*
Y-222280D01*
G01X1856250Y317500D02*
Y440220D01*
G01Y317500D02*
X2075220D01*
G01X1662500Y-63500D02*
Y15220D01*
G01Y-63500D02*
X1719620Y15220D01*
G01X1512500Y-142220D02*
Y-63500D01*
G01X1455380Y-142220D02*
X1512500Y-63500D01*
G01X1403000Y381000D02*
X1596330Y726220D01*
G01X2297500Y-190500D02*
Y-111780D01*
G01Y-190500D02*
X2362220D01*
G01X2476500Y-635000D02*
Y-527280D01*
G01X2368780Y-635000D02*
X2476500D01*
G01D02*
X2584220D01*
G01X2479260Y201760D02*
X2588750Y317500D01*
G01D02*
X2698240Y433240D01*
M02*
